<svg preserveAspectRatio="none" width="100%" height="100%" overflow="visible" style="display: block;" viewBox="0 0 38 35.8859" fill="none" xmlns="http://www.w3.org/2000/svg">
<g id="Plane.svg" clip-path="url(#clip0_0_30)">
<path id="Vector" d="M22.1835 35.3551C22.3312 35.8418 22.9092 36.0419 23.3245 35.7501L28.2421 32.2946C28.4476 32.1503 28.567 31.9118 28.5598 31.6602L28.0507 13.7759C28.0443 13.5514 28.1388 13.3358 28.3079 13.1888L36.6925 5.89943C38.092 4.90149 38.4191 2.96201 37.4248 1.55734C36.4305 0.152673 34.4981 -0.175632 33.0985 0.822334L23.5082 6.35039C23.3145 6.46201 23.0812 6.48065 22.8724 6.40118L6.17844 0.0486153C5.94768 -0.0391985 5.68862 -0.00672996 5.48642 0.135331L0.576939 3.58511C0.157629 3.87975 0.151968 4.50109 0.565842 4.80337L12.0654 13.2025C12.4759 13.5023 12.4744 14.1172 12.0624 14.415L6.58853 18.371C6.42943 18.486 6.23167 18.5334 6.03799 18.5032L2.33672 17.9247C2.14467 17.8947 1.94853 17.9411 1.79009 18.0541L0.313819 19.1068C-0.0900578 19.3948 -0.10701 19.9907 0.279843 20.3013L5.22068 24.2688C5.32942 24.3561 5.41162 24.4722 5.45796 24.6041L7.56466 30.5924C7.72961 31.0613 8.29582 31.2414 8.69972 30.9534L10.174 29.9021C10.3336 29.7883 10.4422 29.616 10.4764 29.4226L11.1258 25.7441C11.1597 25.5522 11.2668 25.3812 11.4243 25.2673L16.8912 21.3163C17.306 21.0165 17.8914 21.2149 18.0403 21.7055L22.1835 35.3551Z" fill="var(--fill-0, #D44333)"/>
</g>
<defs>
<clipPath id="clip0_0_30">
<rect width="38" height="35.8859" fill="white"/>
</clipPath>
</defs>
</svg>
