<svg preserveAspectRatio="none" width="100%" height="100%" overflow="visible" style="display: block;" viewBox="0 0 81 38.4124" fill="none" xmlns="http://www.w3.org/2000/svg">
<g id="Group_2085656460.svg">
<path id="Vector" d="M78.8659 9.42172H78.2771V5.88857C78.2771 2.59097 70.9752 0 61.7891 0C52.6029 0 45.301 2.59097 45.301 5.88857V9.42172H44.7122C43.7369 9.42172 42.9456 10.2123 42.9456 11.1883V17.0769C42.9456 18.0521 43.7369 18.8434 44.7122 18.8434H45.301V30.6206C45.301 31.9212 46.3559 32.976 47.6565 32.976V35.3314C47.6565 36.632 48.7113 37.6869 50.0119 37.6869H52.3673C53.668 37.6869 54.7228 36.632 54.7228 35.3314V32.976H68.8553V35.3314C68.8553 36.632 69.9101 37.6869 71.2108 37.6869H73.5662C74.8668 37.6869 75.9216 36.632 75.9216 35.3314V32.976H76.3927C77.5704 32.976 78.2771 32.0338 78.2771 31.0916V18.8434H78.8659C79.8412 18.8434 80.6325 18.0521 80.6325 17.0769V11.1883C80.6325 10.2123 79.8412 9.42172 78.8659 9.42172ZM51.1897 29.4428C49.889 29.4428 48.8342 28.3881 48.8342 27.0874C48.8342 25.7868 49.889 24.732 51.1897 24.732C52.4903 24.732 53.5451 25.7868 53.5451 27.0874C53.5451 28.3881 52.4903 29.4428 51.1897 29.4428ZM52.3673 21.1989C51.0667 21.1989 50.0119 20.144 50.0119 18.8434V9.42172C50.0119 8.12108 51.0667 7.06628 52.3673 7.06628H71.2108C72.5114 7.06628 73.5662 8.12108 73.5662 9.42172V18.8434C73.5662 20.144 72.5114 21.1989 71.2108 21.1989H52.3673ZM72.3884 29.4428C71.0879 29.4428 70.033 28.3881 70.033 27.0874C70.033 25.7868 71.0879 24.732 72.3884 24.732C73.6891 24.732 74.7439 25.7868 74.7439 27.0874C74.7439 28.3881 73.6891 29.4428 72.3884 29.4428Z" fill="var(--fill-0, #3A3A3A)"/>
<path id="Vector_2" d="M35.9203 9.42172H35.3314V5.88857C35.3314 2.59097 28.0296 0 18.8434 0C9.65729 0 2.35543 2.59097 2.35543 5.88857V9.42172H1.76657C0.791277 9.42172 0 10.2123 0 11.1883V17.0769C0 18.0521 0.791277 18.8434 1.76657 18.8434H2.35543V30.6206C2.35543 31.9212 3.41023 32.976 4.71086 32.976V35.3314C4.71086 36.632 5.76565 37.6869 7.06629 37.6869H9.42172C10.7224 37.6869 11.7771 36.632 11.7771 35.3314V32.976H25.9097V35.3314C25.9097 36.632 26.9645 37.6869 28.2652 37.6869H30.6206C31.9212 37.6869 32.976 36.632 32.976 35.3314V32.976H33.4471C34.6248 32.976 35.3314 32.0338 35.3314 31.0916V18.8434H35.9203C36.8956 18.8434 37.6869 18.0521 37.6869 17.0769V11.1883C37.6869 10.2123 36.8956 9.42172 35.9203 9.42172ZM8.244 29.4428C6.94336 29.4428 5.88857 28.3881 5.88857 27.0874C5.88857 25.7868 6.94336 24.732 8.244 24.732C9.54464 24.732 10.5994 25.7868 10.5994 27.0874C10.5994 28.3881 9.54464 29.4428 8.244 29.4428ZM9.42172 21.1989C8.12108 21.1989 7.06629 20.144 7.06629 18.8434V9.42172C7.06629 8.12108 8.12108 7.06628 9.42172 7.06628H28.2652C29.5658 7.06628 30.6206 8.12108 30.6206 9.42172V18.8434C30.6206 20.144 29.5658 21.1989 28.2652 21.1989H9.42172ZM29.4428 29.4428C28.1422 29.4428 27.0874 28.3881 27.0874 27.0874C27.0874 25.7868 28.1422 24.732 29.4428 24.732C30.7435 24.732 31.7983 25.7868 31.7983 27.0874C31.7983 28.3881 30.7435 29.4428 29.4428 29.4428Z" fill="var(--fill-0, #D3D3D3)"/>
</g>
</svg>
