<svg preserveAspectRatio="none" width="100%" height="100%" overflow="visible" style="display: block;" viewBox="0 0 58 58" fill="none" xmlns="http://www.w3.org/2000/svg">
<g id="Group_2085656457.svg">
<path id="Vector" d="M51.7462 26.2294L48.4914 22.4482C47.8692 21.7303 47.3667 20.3901 47.3667 19.4328V15.3644C47.3667 12.8277 45.2846 10.7456 42.7478 10.7456H38.6794C37.746 10.7456 36.3819 10.243 35.6639 9.62079L31.8828 6.36604C30.2314 4.95406 27.5272 4.95406 25.8519 6.36604L22.0947 9.6447C21.3767 10.243 20.0125 10.7456 19.0792 10.7456H14.939C12.4022 10.7456 10.3201 12.8277 10.3201 15.3644V19.4567C10.3201 20.3901 9.81764 21.7303 9.21928 22.4482L5.98851 26.2533C4.60046 27.9047 4.60046 30.5851 5.98851 32.2363L9.21928 36.0415C9.81764 36.7594 10.3201 38.0997 10.3201 39.0329V43.1253C10.3201 45.6621 12.4022 47.7442 14.939 47.7442H19.0792C20.0125 47.7442 21.3767 48.2468 22.0947 48.869L25.8758 52.1237C27.5272 53.5357 30.2314 53.5357 31.9067 52.1237L35.6879 48.869C36.4059 48.2468 37.746 47.7442 38.7033 47.7442H42.7717C45.3085 47.7442 47.3906 45.6621 47.3906 43.1253V39.0569C47.3906 38.1236 47.8931 36.7594 48.5153 36.0415L51.7701 32.2603C53.1581 30.609 53.1581 27.8808 51.7462 26.2294Z" fill="var(--fill-0, white)"/>
<path id="Vector_2" d="M25.4588 27.1955C24.1317 25.906 22.0106 25.9365 20.721 27.2636C19.4315 28.5907 19.462 30.7119 20.7891 32.0014L23.124 29.5985L25.4588 27.1955ZM27.687 34.0321L25.3522 36.4351C26.6523 37.6984 28.7216 37.6984 30.0218 36.4351L27.687 34.0321ZM37.9034 28.7769C39.2305 27.4873 39.2609 25.3662 37.9715 24.0391C36.6819 22.712 34.5608 22.6815 33.2336 23.971L35.5685 26.3739L37.9034 28.7769ZM23.124 29.5985L20.7891 32.0014L25.3522 36.4351L27.687 34.0321L30.0218 31.6292L25.4588 27.1955L23.124 29.5985ZM27.687 34.0321L30.0218 36.4351L33.9626 32.6059L31.6278 30.2031L29.2929 27.8001L25.3522 31.6292L27.687 34.0321ZM31.6278 30.2031L33.9626 32.6059L37.9034 28.7769L35.5685 26.3739L33.2336 23.971L29.2929 27.8001L31.6278 30.2031Z" fill="var(--fill-0, #D44333)"/>
</g>
</svg>
