<svg preserveAspectRatio="none" width="100%" height="100%" overflow="visible" style="display: block;" viewBox="0 0 58 58" fill="none" xmlns="http://www.w3.org/2000/svg">
<g id="Group_2085656439.svg" clip-path="url(#clip0_0_14)">
<path id="Vector" d="M51.7997 0.70715H5.68253C2.62615 0.70715 0.148467 3.18483 0.148467 6.24121V52.3584C0.148467 55.4147 2.62615 57.8924 5.68253 57.8924H51.7997C54.8561 57.8924 57.3337 55.4147 57.3337 52.3584V6.24121C57.3337 3.18483 54.8561 0.70715 51.7997 0.70715Z" fill="var(--fill-0, #FFD900)"/>
<path id="Vector_2" fill-rule="evenodd" clip-rule="evenodd" d="M32.7065 32.2867C30.4739 36.7475 31.1895 39.9918 34.9104 39.9918C38.7467 39.9918 42.5249 36.7765 44.7011 32.2867C46.9337 27.7389 46.1322 24.5236 42.5249 24.5236C38.9471 24.5236 34.8817 27.7969 32.7065 32.2867ZM42.0669 28.0865C42.9256 28.0865 42.7538 29.8246 41.3227 32.2577C39.9203 34.604 38.4032 36.3999 37.4587 36.3999C36.5714 36.3999 36.7432 34.6619 38.2028 32.2577C39.6054 29.8824 41.1224 28.0865 42.0669 28.0865Z" fill="var(--fill-0, #3A3A3A)"/>
<path id="Vector_3" d="M29.4429 27.9421C31.332 24.5241 31.7327 21.077 30.2729 21.077C28.383 21.077 25.1486 24.6399 22.4009 29.4774C19.6809 34.2858 18.9939 37.8487 20.7398 37.8487C22.1904 37.8487 24.5577 35.7605 26.8586 32.374H22.6298L24.29 29.6512H32.7345C28.2971 37.8777 22.0279 43.7578 15.5588 43.7578C9.86211 43.7578 9.34688 37.3853 13.784 29.1588C18.0206 21.3088 24.7479 15.1969 30.731 15.1969C34.4232 15.1969 37.6871 18.7597 33.3928 27.9421H29.4429Z" fill="var(--fill-0, #3A3A3A)"/>
</g>
<defs>
<clipPath id="clip0_0_14">
<rect width="58" height="58" fill="white"/>
</clipPath>
</defs>
</svg>
