<svg preserveAspectRatio="none" width="100%" height="100%" overflow="visible" style="display: block;" viewBox="0 0 55 30.4118" fill="none" xmlns="http://www.w3.org/2000/svg">
<g id="Group_2085656458.svg" clip-path="url(#clip0_0_18)">
<path id="Vector" d="M44.6982 13.507C45.1103 13.0828 45.7982 13.0828 46.2349 13.507L53.3505 20.4187C53.7871 20.8429 53.807 21.5313 53.395 21.9554L46.6799 28.8672C46.2679 29.2913 45.5799 29.2913 45.1433 28.8672C44.7068 28.443 44.6867 27.7553 45.0988 27.3312L50.0125 22.273H23.7262C23.126 22.273 22.6257 21.7869 22.6084 21.1871C22.591 20.5872 23.0631 20.1012 23.6632 20.1012H49.9496L44.7428 15.043C44.3061 14.6189 44.2863 13.9312 44.6982 13.507Z" fill="var(--fill-0, #D44333)" stroke="var(--stroke-0, #D44333)" stroke-width="2.03739"/>
<path id="Vector_2" d="M10.5078 16.9907C10.0957 17.4149 9.40772 17.4149 8.97108 16.9907L1.85553 10.079C1.4189 9.65476 1.39895 8.96642 1.81101 8.54228L8.52604 1.63053C8.93815 1.20636 9.6261 1.20636 10.0627 1.63053C10.4992 2.05471 10.5192 2.74242 10.1073 3.16654L5.19348 8.2247H31.4799C32.0799 8.2247 32.5803 8.71077 32.5977 9.31059C32.6151 9.91048 32.1429 10.3965 31.5428 10.3965H5.2564L10.4633 15.4547C10.8998 15.8788 10.9197 16.5665 10.5078 16.9907Z" fill="var(--fill-0, #D44333)" stroke="var(--stroke-0, #D44333)" stroke-width="2.03739"/>
</g>
<defs>
<clipPath id="clip0_0_18">
<rect width="55" height="30.4118" fill="white"/>
</clipPath>
</defs>
</svg>
