<svg preserveAspectRatio="none" width="100%" height="100%" overflow="visible" style="display: block;" viewBox="0 0 29 21.3684" fill="none" xmlns="http://www.w3.org/2000/svg">
<g id="Vector_472.svg">
<path id="Vector" d="M6.84983 7.57781C5.55907 6.32363 3.49601 6.35329 2.24184 7.64405C0.987656 8.93479 1.01731 10.9979 2.30806 12.252L4.57895 9.91493L6.84983 7.57781ZM12.1299 17.2519L9.85904 19.589C11.1236 20.8177 13.1362 20.8177 14.4008 19.589L12.1299 17.2519ZM27.4433 6.91606C28.7341 5.66188 28.7637 3.59882 27.5096 2.30806C26.2554 1.01731 24.1924 0.987656 22.9016 2.24184L25.1725 4.57895L27.4433 6.91606ZM4.57895 9.91493L2.30806 12.252L9.85904 19.589L12.1299 17.2519L14.4008 14.9148L6.84983 7.57781L4.57895 9.91493ZM12.1299 17.2519L14.4008 19.589L20.9221 13.2525L18.6513 10.9154L16.3803 8.57831L9.85904 14.9148L12.1299 17.2519ZM18.6513 10.9154L20.9221 13.2525L27.4433 6.91606L25.1725 4.57895L22.9016 2.24184L16.3803 8.57831L18.6513 10.9154Z" fill="var(--fill-0, #D44333)"/>
</g>
</svg>
