<svg width="88" height="22" viewBox="0 0 88 22" fill="none" xmlns="http://www.w3.org/2000/svg">
<path fill-rule="evenodd" clip-rule="evenodd" d="M40.7487 19.0476V3.7808H38.1206V21.5028H48.5691V19.0476H47.9429H40.7487ZM73.0608 9.44245H74.7718V0H72.1437V9.44245H73.0657H73.0608ZM75.3536 18.0378C76.6455 20.3972 78.894 21.6942 81.6898 21.6942C85.2741 21.6942 87.5917 19.7464 87.5917 16.7313C87.5917 13.7162 85.7877 12.4097 83.0803 11.1175L82.8436 11.0074L82.3259 10.7585L81.5764 10.3996C79.318 9.32756 78.8595 8.8777 78.8595 7.72912C78.8595 6.58052 79.8309 5.69993 81.2214 5.69993C82.6119 5.69993 83.5438 6.15936 84.239 7.24096L84.6632 7.89666L84.7123 7.97317L84.796 7.92534L85.4865 7.53769L86.078 7.20268L86.8082 6.7911L86.897 6.74323L86.8429 6.66188L86.3936 5.96315C85.2056 4.10624 83.5635 3.24479 81.2214 3.24479C78.3467 3.24479 76.256 5.13041 76.256 7.72912C76.256 10.3278 78.0607 11.5003 80.4226 12.625L81.9561 13.3429C84.2489 14.4101 84.989 15.2333 84.989 16.7265C84.989 18.3058 83.7854 19.2104 81.6898 19.2104C79.9147 19.2104 78.4748 18.368 77.6465 16.8366L77.252 16.1139L77.2076 16.0278L77.1189 16.0756L76.3842 16.4728L75.7185 16.8318L75.0134 17.2098L74.9296 17.2529L74.974 17.3343L75.3536 18.0282V18.0378ZM51.1431 21.5028H52.8541V3.44101H50.2259V21.5028H51.148H51.1431ZM17.3666 12.448C17.3666 7.3319 21.6417 3.18258 26.9128 3.18258C32.1839 3.18258 36.4589 7.3319 36.4589 12.448C36.4589 17.564 32.1839 21.7133 26.9128 21.7133C21.6417 21.7133 17.3666 17.564 17.3666 12.448ZM19.98 12.448C19.98 8.72932 23.0864 5.71907 26.9128 5.71907C30.7391 5.71907 33.8456 8.73413 33.8456 12.448C33.8456 16.1617 30.7391 19.1768 26.9128 19.1768C23.0864 19.1768 19.98 16.1617 19.98 12.448ZM2.65781 12.5341C2.6233 8.69111 5.47334 5.76693 9.29475 5.73343C11.3854 5.71429 13.2394 6.54224 14.5165 8.05938L15.0195 8.65754L15.0787 8.72932L15.1527 8.67196L15.7838 8.20295L16.3705 7.76741L17.051 7.2601L17.1349 7.19789L17.0707 7.12132L16.5184 6.48002C14.704 4.36947 12.13 3.22086 9.27012 3.24479C3.96449 3.30222 -0.0196501 7.29839 7.29066e-05 12.5532C0.0740361 17.8081 4.13214 21.7373 9.43775 21.6894C12.2977 21.6655 14.8519 20.4738 16.627 18.3345L17.1644 17.6836L17.2285 17.6071L17.1447 17.5496L16.4544 17.0567L15.8578 16.6307L15.2167 16.1714L15.1428 16.1187L15.0836 16.1905L14.5905 16.7983C13.3381 18.3393 11.4989 19.1959 9.41312 19.2104C5.59168 19.2439 2.69233 16.3771 2.65781 12.5341ZM67.8291 16.3867L57.9082 3.59416L57.7553 3.39316L57.6419 3.31658H55.995V3.92438V20.6078V21.498H58.5492V8.56188L68.6575 21.5506L68.7758 21.632H69.1605H69.259H70.3833V21.0193V4.33596V3.44101H67.8291V16.3915V16.3867Z" fill="#313131"/>
</svg>
