<svg width="57" height="57" viewBox="0 0 57 57" fill="none" xmlns="http://www.w3.org/2000/svg">
<path d="M57 28.5C57 44.2401 44.2401 57 28.5 57C12.7599 57 0 44.2401 0 28.5C0 12.7599 12.7599 0 28.5 0C44.2401 0 57 12.7599 57 28.5Z" fill="#E62118"/>
<path d="M33.725 20.1563H23.2407C22.248 20.1575 21.2963 20.5519 20.5943 21.2529C19.8923 21.954 19.4975 22.9045 19.4963 23.896V31.3753C19.4975 32.3667 19.8923 33.3172 20.5943 34.0183C21.2963 34.7194 22.248 35.1137 23.2407 35.1149H24.7384V38.8546C24.7386 38.9975 24.7797 39.1374 24.857 39.2577C24.9342 39.378 25.0444 39.4736 25.1744 39.5334C25.3044 39.5931 25.4488 39.6144 25.5905 39.5947C25.7322 39.575 25.8653 39.5151 25.9741 39.4223L31.0066 35.1149H33.725C34.7177 35.1137 35.6694 34.7194 36.3714 34.0183C37.0733 33.3172 37.4682 32.3667 37.4694 31.3753V23.896C37.4682 22.9045 37.0733 21.954 36.3714 21.2529C35.6694 20.5519 34.7177 20.1575 33.725 20.1563ZM23.9896 29.1315C23.6933 29.1315 23.4038 29.0437 23.1574 28.8794C22.9111 28.715 22.7192 28.4814 22.6058 28.2081C22.4924 27.9347 22.4628 27.634 22.5206 27.3438C22.5784 27.0536 22.721 26.7871 22.9305 26.5779C23.1399 26.3687 23.4068 26.2262 23.6974 26.1685C23.9879 26.1108 24.289 26.1404 24.5627 26.2536C24.8364 26.3668 25.0703 26.5586 25.2349 26.8046C25.3995 27.0506 25.4873 27.3398 25.4873 27.6356C25.4873 28.0323 25.3295 28.4128 25.0486 28.6933C24.7677 28.9739 24.3868 29.1315 23.9896 29.1315ZM28.4828 29.1315C28.1866 29.1315 27.897 29.0437 27.6507 28.8794C27.4044 28.715 27.2125 28.4814 27.0991 28.2081C26.9857 27.9347 26.9561 27.634 27.0139 27.3438C27.0716 27.0536 27.2143 26.7871 27.4238 26.5779C27.6332 26.3687 27.9001 26.2262 28.1906 26.1685C28.4812 26.1108 28.7823 26.1404 29.056 26.2536C29.3297 26.3668 29.5636 26.5586 29.7282 26.8046C29.8928 27.0506 29.9806 27.3398 29.9806 27.6356C29.9806 28.0323 29.8228 28.4128 29.5419 28.6933C29.261 28.9739 28.8801 29.1315 28.4828 29.1315ZM32.9761 29.1315C32.6799 29.1315 32.3903 29.0437 32.144 28.8794C31.8977 28.715 31.7057 28.4814 31.5924 28.2081C31.479 27.9347 31.4493 27.634 31.5071 27.3438C31.5649 27.0536 31.7076 26.7871 31.917 26.5779C32.1265 26.3687 32.3934 26.2262 32.6839 26.1685C32.9745 26.1108 33.2756 26.1404 33.5493 26.2536C33.823 26.3668 34.0569 26.5586 34.2215 26.8046C34.386 27.0506 34.4739 27.3398 34.4739 27.6356C34.4739 28.0323 34.3161 28.4128 34.0352 28.6933C33.7543 28.9739 33.3734 29.1315 32.9761 29.1315Z" fill="white"/>
</svg>
