<svg width="57" height="57" viewBox="0 0 57 57" fill="none" xmlns="http://www.w3.org/2000/svg">
<path d="M57 28.5C57 44.2401 44.2401 57 28.5 57C12.7599 57 0 44.2401 0 28.5C0 12.7599 12.7599 0 28.5 0C44.2401 0 57 12.7599 57 28.5Z" fill="#E62118"/>
<path d="M31.8811 24.6095L29.704 20.2038C29.4727 19.7364 29.0048 19.4455 28.483 19.4455C27.9611 19.4455 27.4926 19.7364 27.2613 20.2038L25.0748 24.6169L20.2069 25.3233C19.6898 25.3981 19.2684 25.753 19.1073 26.2493C18.9454 26.745 19.0776 27.2797 19.4518 27.644L22.978 31.0853L22.1467 35.928C22.0583 36.4419 22.266 36.9524 22.688 37.2588C22.9267 37.4318 23.2059 37.5201 23.487 37.5201C23.7034 37.5201 23.9212 37.4675 24.1221 37.3625L28.4891 35.0761L32.8432 37.3625C33.3057 37.6049 33.8552 37.5659 34.2772 37.2588C34.6993 36.9524 34.9076 36.4426 34.8193 35.928L33.9914 31.0739L37.5142 27.644C37.8884 27.2797 38.0199 26.7456 37.8587 26.2493C37.6976 25.753 37.2762 25.3981 36.7591 25.3233L31.8912 24.6169L31.8811 24.6095Z" fill="white"/>
</svg>
