<svg width="55" height="57" viewBox="0 0 55 57" fill="none" xmlns="http://www.w3.org/2000/svg">
<path d="M55 28.5C55 44.2401 42.6878 57 27.5 57C12.3122 57 0 44.2401 0 28.5C0 12.7599 12.3122 0 27.5 0C42.6878 0 55 12.7599 55 28.5Z" fill="#E62118"/>
<path d="M35.7301 22.5121H31.6068V21.6592C31.6068 20.7183 30.8671 19.9532 29.9574 19.9532H25.0094C24.0998 19.9532 23.3601 20.7183 23.3601 21.6592V22.5121H19.2368C18.3271 22.5121 17.5874 23.2772 17.5874 24.218V26.7769C17.5874 27.7178 18.3271 28.4828 19.2368 28.4828H25.8341V28.0563C25.8341 27.8206 26.0186 27.6299 26.2465 27.6299H28.7205C28.9484 27.6299 29.1328 27.8206 29.1328 28.0563V28.4828H35.7302C36.6398 28.4828 37.3794 27.7178 37.3794 26.7769V24.218C37.3794 23.2772 36.6398 22.5121 35.7301 22.5121ZM29.9574 22.5121H25.0094V21.6592H29.9574V22.5121Z" fill="white"/>
<path d="M37.1507 28.9341C37.0102 28.862 36.8422 28.8787 36.7182 28.9762C36.4251 29.206 36.0836 29.3273 35.73 29.3273H29.1328V30.6081C29.1328 30.8441 28.9483 31.0351 28.7204 31.0351H26.2464C26.0185 31.0351 25.8341 30.8441 25.8341 30.6081V29.3273H19.2368C18.8832 29.3273 18.5418 29.206 18.2486 28.9762C18.1242 28.8778 17.9567 28.8611 17.8161 28.9341C17.676 29.0063 17.5874 29.1542 17.5874 29.3165V35.3046C17.5874 36.2465 18.3271 37.0125 19.2368 37.0125H35.7301C36.6397 37.0125 37.3794 36.2465 37.3794 35.3046V29.3165C37.3794 29.1542 37.2908 29.0063 37.1507 28.9341Z" fill="white"/>
</svg>
