<svg width="55" height="55" viewBox="0 0 55 55" fill="none" xmlns="http://www.w3.org/2000/svg">
<path d="M55 27.5C55 42.6878 42.6878 55 27.5 55C12.3122 55 0 42.6878 0 27.5C0 12.3122 12.3122 0 27.5 0C42.6878 0 55 12.3122 55 27.5Z" fill="#E62118"/>
<path d="M28.1262 25.7251C26.9137 25.8963 25.8548 27.0329 25.8446 27.0432C25.8293 27.0589 25.8121 27.0727 25.7934 27.084C24.1461 28.1518 23.2176 27.3395 23.1793 27.2909C22.1254 26.3433 23.0923 24.7545 23.1332 24.688C23.5649 23.9715 24.0876 23.3139 24.6884 22.7314H20.2147L18.2733 29.1275C18.2942 29.1391 18.3131 29.1537 18.3296 29.1709C21.3427 32.5734 25.3432 35.5926 26.9214 36.7319C27.0857 36.8531 27.2899 36.9076 27.4928 36.8842C27.6958 36.8608 27.8822 36.7614 28.0145 36.6059C28.1468 36.4505 28.215 36.2506 28.2053 36.0469C28.1956 35.8431 28.1088 35.6506 27.9625 35.5083L25.7908 33.3397C25.7432 33.2918 25.7165 33.2271 25.7165 33.1596C25.7165 33.0921 25.7432 33.0274 25.7908 32.9795C25.8146 32.9556 25.8429 32.9366 25.8741 32.9236C25.9053 32.9106 25.9387 32.9039 25.9725 32.9039C26.0062 32.9039 26.0396 32.9106 26.0708 32.9236C26.102 32.9366 26.1303 32.9556 26.1541 32.9795L28.3334 35.1558L28.8449 35.6795C29.0284 35.858 29.2747 35.9576 29.5308 35.9569C29.787 35.9563 30.0328 35.8555 30.2154 35.6761C30.398 35.4967 30.5031 35.2531 30.5079 34.9973C30.5128 34.7415 30.4172 34.494 30.2415 34.3078L28.2489 32.2311L27.8704 31.8403C27.8464 31.8165 27.8274 31.7883 27.8144 31.7571C27.8014 31.726 27.7947 31.6926 27.7947 31.6589C27.7947 31.6252 27.8014 31.5918 27.8144 31.5607C27.8274 31.5295 27.8464 31.5013 27.8704 31.4775C27.8942 31.4536 27.9224 31.4346 27.9536 31.4216C27.9848 31.4087 28.0182 31.402 28.052 31.402C28.0858 31.402 28.1192 31.4087 28.1504 31.4216C28.1815 31.4346 28.2098 31.4536 28.2336 31.4775L31.1419 34.4917C31.2827 34.6309 31.461 34.7262 31.655 34.7662C31.8491 34.8061 32.0506 34.7889 32.2351 34.7167C32.4195 34.6445 32.579 34.5203 32.6942 34.3593C32.8093 34.1983 32.8752 34.0074 32.8838 33.8097C32.888 33.6704 32.8629 33.5318 32.81 33.4029C32.7571 33.2739 32.6777 33.1575 32.5768 33.0612L30.8324 31.3754L29.6174 30.1978C29.5903 30.1753 29.5683 30.1474 29.5525 30.1159C29.5367 30.0845 29.5277 30.0501 29.5258 30.015C29.524 29.9798 29.5294 29.9447 29.5418 29.9118C29.5542 29.8789 29.5733 29.8489 29.5978 29.8236C29.6224 29.7984 29.6519 29.7785 29.6845 29.7652C29.7171 29.7519 29.7521 29.7455 29.7873 29.7463C29.8225 29.7471 29.8572 29.7552 29.8891 29.7701C29.9211 29.7849 29.9496 29.8062 29.9729 29.8325L33.426 33.1711C33.5166 33.264 33.6251 33.3376 33.7449 33.3875C33.8647 33.4374 33.9934 33.4626 34.1232 33.4615C34.253 33.4604 34.3813 33.4331 34.5002 33.3812C34.6192 33.3293 34.7264 33.2539 34.8154 33.1595C34.9044 33.0651 34.9733 32.9537 35.018 32.832C35.0628 32.7103 35.0823 32.5808 35.0756 32.4513C35.0689 32.3218 35.036 32.1951 34.9789 32.0786C34.9218 31.9622 34.8416 31.8585 34.7433 31.7738L28.1262 25.7251Z" fill="white"/>
<path fill-rule="evenodd" clip-rule="evenodd" d="M30.8324 31.3754L29.6174 30.1978C29.5903 30.1753 29.5683 30.1474 29.5525 30.1159C29.5367 30.0845 29.5277 30.0501 29.5258 30.015C29.524 29.9798 29.5294 29.9447 29.5418 29.9118C29.5542 29.8789 29.5733 29.8489 29.5978 29.8236C29.6224 29.7984 29.6519 29.7785 29.6845 29.7652C29.7171 29.7519 29.7521 29.7455 29.7873 29.7463C29.8225 29.7471 29.8572 29.7552 29.8891 29.7701C29.9211 29.7849 29.9496 29.8062 29.9729 29.8325L33.426 33.1711C33.5166 33.264 33.6251 33.3376 33.7449 33.3875C33.8647 33.4374 33.9934 33.4626 34.1232 33.4615C34.253 33.4604 34.3813 33.4331 34.5002 33.3812C34.6192 33.3293 34.7264 33.2539 34.8154 33.1595C34.9044 33.0651 34.9733 32.9537 35.018 32.832C35.0628 32.7103 35.0823 32.5808 35.0756 32.4513C35.0689 32.3218 35.036 32.1951 34.9789 32.0786C34.9218 31.9622 34.8416 31.8585 34.7433 31.7738L28.1262 25.7251C26.9398 25.8926 25.9003 26.9846 25.8467 27.041L25.8446 27.0432C25.8293 27.0589 25.8121 27.0727 25.7934 27.084C24.1461 28.1518 23.2176 27.3395 23.1793 27.2909C22.1254 26.3433 23.0923 24.7545 23.1332 24.688C23.5111 24.0608 23.9588 23.4787 24.4675 22.9526C24.5399 22.8777 24.6135 22.804 24.6884 22.7314H20.2147L18.2733 29.1275C18.2942 29.1391 18.3131 29.1537 18.3296 29.1709C21.3427 32.5734 25.3432 35.5926 26.9214 36.7319C27.0857 36.8531 27.2899 36.9076 27.4928 36.8842C27.6958 36.8608 27.8822 36.7614 28.0145 36.6059C28.1468 36.4505 28.215 36.2506 28.2053 36.0469C28.1956 35.8431 28.1088 35.6506 27.9625 35.5083L25.7908 33.3397C25.7432 33.2918 25.7165 33.2271 25.7165 33.1596C25.7165 33.0921 25.7432 33.0274 25.7908 32.9795C25.8146 32.9556 25.8429 32.9366 25.8741 32.9236C25.9053 32.9106 25.9387 32.9039 25.9725 32.9039C26.0062 32.9039 26.0396 32.9106 26.0708 32.9236C26.102 32.9366 26.1303 32.9556 26.1541 32.9795L28.3334 35.1558L28.8449 35.6795C29.0284 35.858 29.2747 35.9576 29.5308 35.9569C29.787 35.9563 30.0328 35.8555 30.2154 35.6761C30.398 35.4967 30.5031 35.2531 30.5079 34.9973C30.5128 34.7415 30.4172 34.494 30.2415 34.3078L28.2489 32.2311L27.8704 31.8403C27.8464 31.8165 27.8274 31.7883 27.8144 31.7571C27.8014 31.726 27.7947 31.6926 27.7947 31.6589C27.7947 31.6252 27.8014 31.5918 27.8144 31.5607C27.8274 31.5295 27.8464 31.5013 27.8704 31.4775C27.8942 31.4536 27.9224 31.4346 27.9536 31.4216C27.9848 31.4087 28.0182 31.402 28.052 31.402C28.0858 31.402 28.1192 31.4087 28.1504 31.4216C28.1815 31.4346 28.2098 31.4536 28.2336 31.4775L31.1419 34.4917C31.2827 34.6309 31.461 34.7262 31.655 34.7662C31.8491 34.8061 32.0506 34.7889 32.2351 34.7167C32.4195 34.6445 32.579 34.5203 32.6942 34.3593C32.8093 34.1983 32.8752 34.0074 32.8838 33.8097C32.888 33.6704 32.8629 33.5318 32.81 33.4029C32.7571 33.2739 32.6777 33.1575 32.5768 33.0612L30.8324 31.3754ZM32.6628 33.8015C32.6659 33.6938 32.6464 33.5866 32.6055 33.4868C32.5644 33.3866 32.5026 33.2962 32.4242 33.2213L29.4686 30.3616C29.4215 30.3207 29.3828 30.2709 29.3548 30.2151C29.3254 30.1563 29.3084 30.0921 29.305 30.0265C29.3016 29.9609 29.3118 29.8953 29.3349 29.8338C29.3581 29.7723 29.3937 29.7163 29.4394 29.6693C29.4852 29.6222 29.5402 29.5852 29.601 29.5604C29.6618 29.5356 29.727 29.5236 29.7926 29.5251C29.8582 29.5267 29.9228 29.5418 29.9823 29.5694C30.0388 29.5957 30.0896 29.6327 30.1318 29.6785L33.582 33.0143L33.5843 33.0166C33.654 33.0881 33.7376 33.1448 33.8299 33.1833C33.9222 33.2217 34.0213 33.2411 34.1213 33.2403C34.2214 33.2395 34.3202 33.2184 34.4118 33.1784C34.5035 33.1384 34.586 33.0803 34.6545 33.0077C34.7231 32.935 34.7761 32.8493 34.8105 32.7556C34.8449 32.662 34.86 32.5624 34.8548 32.4628C34.8496 32.3632 34.8243 32.2657 34.7804 32.1761C34.7364 32.0865 34.6748 32.0067 34.5991 31.9415L34.5966 31.9394L28.0563 25.9609C27.5395 26.059 27.0465 26.3427 26.6654 26.6228C26.2834 26.9035 26.0334 27.1655 26.0036 27.1968C25.9761 27.2253 25.945 27.2504 25.9113 27.2712C25.0483 27.8299 24.3497 27.9103 23.8458 27.8241C23.5964 27.7815 23.4015 27.6992 23.2641 27.6222C23.1955 27.5837 23.1409 27.5463 23.1005 27.5153C23.0744 27.4953 23.0458 27.4716 23.0235 27.4483C22.4194 26.8988 22.4072 26.1697 22.5298 25.6115C22.6519 25.0554 22.9162 24.6188 22.9444 24.5729C23.2943 23.9922 23.7027 23.4494 24.163 22.9526H20.3786L18.5254 29.0584C21.5182 32.4279 25.4808 35.4191 27.0508 36.5525L27.0517 36.5532L27.0527 36.5539C27.1719 36.6419 27.3202 36.6814 27.4675 36.6645C27.6149 36.6475 27.7502 36.5752 27.8461 36.4625C27.942 36.3498 27.9914 36.205 27.9844 36.0574C27.9774 35.9097 27.9146 35.7702 27.8084 35.667L27.8073 35.666L25.6344 33.496C25.5455 33.4067 25.4954 33.2856 25.4954 33.1596C25.4954 33.0336 25.5453 32.9128 25.634 32.8236C25.6783 32.779 25.7312 32.7435 25.7892 32.7193C25.8473 32.6952 25.9096 32.6827 25.9725 32.6827C26.0353 32.6827 26.0976 32.6952 26.1557 32.7193C26.2136 32.7434 26.2663 32.7787 26.3105 32.8232L28.4905 35.0002L29.0009 35.5227C29.1428 35.6597 29.3327 35.7362 29.5303 35.7357C29.7288 35.7352 29.9191 35.6571 30.0605 35.5183C30.2019 35.3794 30.2831 35.1909 30.2869 34.993C30.2906 34.7956 30.2169 34.6044 30.0814 34.4603L28.0902 32.385L28.0894 32.3843L27.713 31.9956C27.6691 31.9517 27.6343 31.8997 27.6104 31.8424C27.5861 31.7842 27.5736 31.7219 27.5736 31.6589C27.5736 31.5959 27.5861 31.5336 27.6104 31.4754C27.6345 31.4176 27.6698 31.365 27.7143 31.3208C27.7585 31.2765 27.811 31.2414 27.8687 31.2174C27.9268 31.1932 27.9891 31.1808 28.052 31.1808C28.1149 31.1808 28.1772 31.1932 28.2352 31.2174C28.2933 31.2415 28.3461 31.277 28.3904 31.3216L28.3916 31.3227L31.299 34.336C31.4091 34.4442 31.5482 34.5183 31.6996 34.5495C31.8518 34.5808 32.0098 34.5673 32.1545 34.5107C32.2991 34.4541 32.4242 34.3567 32.5144 34.2306C32.6043 34.1048 32.6559 33.9558 32.6628 33.8015Z" fill="#E62118"/>
<path d="M19.4849 21.2107C18.7273 20.8714 17.9308 20.6338 17.1162 20.502C16.0763 20.3338 15.2359 21.2201 15.2359 22.2736V28.8532C15.2359 29.7201 15.9387 30.4228 16.8055 30.4228C16.9731 30.4232 17.1361 30.3693 17.2701 30.2691C17.4041 30.1689 17.5016 30.0279 17.548 29.8676L19.9062 22.1319C19.9601 21.9535 19.9471 21.7618 19.8696 21.5923C19.7921 21.4228 19.6554 21.2872 19.4849 21.2107Z" fill="white"/>
<path d="M28.9419 21.6882C28.3891 21.4602 27.7715 21.4465 27.2092 21.6497C26.2275 22.0093 24.7947 22.8724 23.5361 24.9325C23.5361 24.9479 22.7492 26.2168 23.49 26.9001C23.5156 26.9232 24.1769 27.4781 25.4585 26.6586C25.6431 26.466 26.7991 25.3049 28.1653 25.1791C28.2006 25.1761 28.2361 25.1805 28.2696 25.192C28.3032 25.2035 28.334 25.2218 28.3601 25.2459L35.0782 31.4107C35.1089 31.439 35.1371 31.4698 35.1653 31.5006C35.9343 31.3825 36.4469 30.6786 36.5956 30.4218L34.1606 23.7714L28.9419 21.6882Z" fill="white"/>
<path fill-rule="evenodd" clip-rule="evenodd" d="M28.8588 21.8941L28.8576 21.8936C28.3559 21.6866 27.7952 21.6741 27.2848 21.8585C26.3502 22.2009 24.9613 23.0299 23.7315 25.0379C23.7286 25.0435 23.7248 25.0506 23.7221 25.0556C23.7203 25.059 23.7184 25.0625 23.7163 25.0663C23.7114 25.0753 23.7058 25.0856 23.699 25.0984C23.6801 25.1337 23.654 25.1837 23.625 25.2453C23.5665 25.3693 23.4972 25.537 23.4498 25.7213C23.3522 26.1002 23.3621 26.4781 23.6374 26.7343C23.6424 26.7381 23.7734 26.8443 24.0294 26.8748C24.2957 26.9065 24.7236 26.8596 25.3177 26.4852C25.4364 26.3631 25.772 26.033 26.244 25.7103C26.7418 25.37 27.4089 25.0257 28.145 24.9579L28.1468 24.9578C28.2126 24.9522 28.2788 24.9604 28.3413 24.9819C28.4037 25.0033 28.461 25.0374 28.5096 25.0821L35.2278 31.247C35.2323 31.2511 35.2367 31.2552 35.241 31.2593C35.5214 31.1906 35.7654 31.0312 35.9635 30.8494C36.139 30.6884 36.2704 30.5172 36.3503 30.3964L33.9867 23.9411L28.8588 21.8941ZM34.1606 23.7714L36.5956 30.4218C36.4469 30.6786 35.9343 31.3825 35.1653 31.5006C35.1371 31.4698 35.1089 31.439 35.0782 31.4107L28.3601 25.2459C28.334 25.2218 28.3032 25.2035 28.2696 25.192C28.2361 25.1805 28.2006 25.1761 28.1653 25.1791C26.7991 25.3049 25.6431 26.466 25.4585 26.6586C24.1769 27.4781 23.5156 26.9232 23.49 26.9001C22.8084 26.2714 23.4202 25.1469 23.5222 24.9592C23.5311 24.9429 23.5361 24.9325 23.5361 24.9325C24.7947 22.8724 26.2275 22.0093 27.2092 21.6497C27.7715 21.4465 28.3891 21.4602 28.9419 21.6882L34.1606 23.7714Z" fill="#E62118"/>
<path d="M39.268 21.6049C37.8079 21.5952 36.3598 21.8679 35.0034 22.4081C34.821 22.4862 34.676 22.6319 34.5987 22.8145C34.5214 22.9971 34.5178 23.2026 34.5888 23.3878L37.4378 31.136C37.4934 31.2855 37.5932 31.4145 37.724 31.5059C37.8548 31.5973 38.0103 31.6467 38.1699 31.6476C39.0591 31.6476 39.78 30.9267 39.78 30.0375V22.1299C39.78 21.8422 39.5557 21.6049 39.268 21.6049Z" fill="white"/>
</svg>
