<svg width="55" height="55" viewBox="0 0 55 55" fill="none" xmlns="http://www.w3.org/2000/svg">
<circle cx="27.5" cy="27.5" r="27.5" fill="#E62118"/>
<path d="M27.3597 27.0093C28.2177 27.0093 29.0565 26.7548 29.7699 26.2781C30.4834 25.8014 31.0394 25.1238 31.3677 24.3311C31.696 23.5383 31.7819 22.666 31.6145 21.8245C31.447 20.9829 31.0338 20.2099 30.427 19.6032C29.8202 18.9966 29.0471 18.5835 28.2056 18.4162C27.364 18.2488 26.4917 18.3349 25.699 18.6633C24.9063 18.9918 24.2288 19.548 23.7522 20.2615C23.2756 20.975 23.0213 21.8138 23.0215 22.6718C23.0227 23.822 23.4802 24.9246 24.2935 25.7378C25.1068 26.551 26.2096 27.0083 27.3597 27.0093Z" fill="white"/>
<path d="M36.7693 27.2847C38.5662 27.2847 40.0229 25.828 40.0229 24.0311C40.0229 22.2341 38.5662 20.7774 36.7693 20.7774C34.9723 20.7774 33.5156 22.2341 33.5156 24.0311C33.5156 25.828 34.9723 27.2847 36.7693 27.2847Z" fill="white"/>
<path d="M33.0742 30.8474C31.9699 29.7198 30.5531 28.9455 29.0046 28.6234C27.4561 28.3013 25.8463 28.446 24.3809 29.0391C22.9154 29.6322 21.6608 30.6467 20.7774 31.9531C19.8939 33.2594 19.4216 34.7983 19.4209 36.3732C19.4209 36.5745 19.5012 36.7676 19.6442 36.91C19.7872 37.0523 19.9812 37.1323 20.1834 37.1323H34.565C34.7673 37.1323 34.9612 37.0523 35.1042 36.91C35.2472 36.7676 35.3276 36.5745 35.3276 36.3732C35.3305 35.5682 35.2057 34.7678 34.9577 34.0016C34.5885 32.8171 33.9431 31.7363 33.0742 30.8474Z" fill="white"/>
<path d="M36.7987 28.111C35.77 28.1149 34.7613 28.3944 33.8779 28.9202C34.0445 29.0687 34.2125 29.215 34.3698 29.3757C35.4148 30.4472 36.191 31.7499 36.6353 33.1775C36.7874 33.6475 36.8996 34.1295 36.9706 34.6183H41.7869C41.9904 34.6183 42.1856 34.5377 42.3296 34.3941C42.4735 34.2505 42.5543 34.0558 42.5543 33.8528C42.5527 32.3304 41.9458 30.871 40.8667 29.7945C39.7877 28.7181 38.3247 28.1126 36.7987 28.111Z" fill="white"/>
<path d="M17.5989 27.2847C15.802 27.2847 14.3452 25.828 14.3452 24.0311C14.3452 22.2341 15.802 20.7774 17.5989 20.7774C19.3958 20.7774 20.8525 22.2341 20.8525 24.0311C20.8525 25.828 19.3958 27.2847 17.5989 27.2847Z" fill="white"/>
<path d="M17.9318 28.111C18.9604 28.1149 19.9692 28.3944 20.8525 28.9202C20.686 29.0687 20.5179 29.215 20.3606 29.3757C19.3157 30.4472 18.5395 31.7499 18.0952 33.1775C17.9431 33.6475 17.8309 34.1295 17.7599 34.6183H12.9436C12.74 34.6183 12.5448 34.5377 12.4009 34.3941C12.257 34.2505 12.1761 34.0558 12.1761 33.8528C12.1778 32.3304 12.7847 30.871 13.8637 29.7945C14.9428 28.7181 16.4058 28.1126 17.9318 28.111Z" fill="white"/>
</svg>
