<svg preserveAspectRatio="none" width="100%" height="100%" overflow="visible" style="display: block;" viewBox="0 0 109 52.1304" fill="none" xmlns="http://www.w3.org/2000/svg">
<g id="Vector.svg" clip-path="url(#clip0_0_15563)">
<path id="Vector" fill-rule="evenodd" clip-rule="evenodd" d="M54.3697 34.7471C52.2442 34.6298 50.2481 33.6827 48.7887 32.0972C47.3295 30.5115 46.5275 28.4154 46.543 26.239C46.5359 24.1362 47.3564 22.111 48.8356 20.5806C50.306 19.082 52.2933 18.2348 54.3697 18.2348C55.3913 18.2163 56.4056 18.4049 57.3484 18.7886C58.3024 19.1785 59.1655 19.7527 59.886 20.4764C60.6198 21.2136 61.1988 22.0836 61.5902 23.0374C61.9874 24.0023 62.1922 25.0321 62.194 26.0717H68.9C68.8889 24.1212 68.5035 22.1902 67.7639 20.3917C67.0241 18.5932 65.9436 16.9598 64.5868 15.5913C61.8464 12.8154 58.1438 11.2949 54.2894 11.2949C50.4352 11.2949 46.7458 12.9023 44.0366 15.7043C41.3276 18.5063 39.8171 22.2944 39.8371 26.2347C39.8371 34.4344 46.347 42.004 54.3697 42.004H108.998V34.7427H54.3697V34.7471ZM108.998 52.124V44.9168H54.3697C50.7397 44.9265 47.1948 43.8458 44.2172 41.8216C41.205 39.7864 38.8523 36.8867 37.4532 33.4851C36.054 30.0837 35.671 26.339 36.3526 22.7115C37.0185 19.1203 38.7317 15.7923 41.2875 13.126C43.8227 10.4978 47.0621 8.69927 50.5956 7.95206C54.1291 7.20485 57.8029 7.54588 61.1469 8.92952C64.491 10.3131 67.3628 12.6807 69.3902 15.7325C71.4176 18.7843 72.5226 22.3791 72.5537 26.0717H79.6831C79.6496 20.9609 78.1369 15.9715 75.3386 11.7359C72.5404 7.50026 68.5747 4.21388 63.9452 2.28071C59.3156 0.347536 54.2316 -0.141187 49.3301 0.877529C44.4287 1.89625 39.9351 4.35289 36.4084 8.00202C32.8558 11.6836 30.4664 16.2852 29.5264 21.2563C28.5638 26.2737 29.0741 31.465 30.9968 36.1872C32.9194 40.9093 36.1656 44.9409 40.3227 47.7753C44.4801 50.61 49.368 52.126 54.3719 52.126H109L108.998 52.124ZM7.12928 52.1304V17.4312H0V10.1546H14.1382V52.1304H7.12928ZM8.51503 7.2179H17.0212V52.1304H24.0391V0H8.51949V7.2179H8.51503Z" fill="var(--fill-0, #D44333)"/>
</g>
<defs>
<clipPath id="clip0_0_15563">
<rect width="109" height="52.1304" fill="white"/>
</clipPath>
</defs>
</svg>
