<svg preserveAspectRatio="none" width="100%" height="100%" overflow="visible" style="display: block;" viewBox="0 0 230.002 55.0705" fill="none" xmlns="http://www.w3.org/2000/svg">
<g id="Group">
<path id="Vector" fill-rule="evenodd" clip-rule="evenodd" d="M204.238 32.9529C199.893 41.5542 201.286 47.8097 208.527 47.8097C215.993 47.8097 223.346 41.6101 227.581 32.9529C231.926 24.1842 230.366 17.9846 223.346 17.9846C216.383 17.9846 208.472 24.296 204.238 32.9529ZM222.455 24.8544C224.126 24.8544 223.792 28.2056 221.007 32.8971C218.277 37.4212 215.325 40.884 213.487 40.884C211.76 40.884 212.094 37.5328 214.935 32.8971C217.664 28.3172 220.617 24.8544 222.455 24.8544Z" fill="var(--fill-0, black)"/>
<path id="Vector_2" d="M197.886 24.5752C201.563 17.9846 202.342 11.3381 199.502 11.3381C195.823 11.3381 189.529 18.2079 184.181 27.5353C178.888 36.8068 177.551 43.6767 180.949 43.6767C183.772 43.6767 188.379 39.6502 192.857 33.1206H184.627L187.858 27.8704H204.292C195.656 43.7325 183.455 55.0705 170.866 55.0705C159.779 55.0705 158.776 42.7831 167.412 26.921C175.657 11.7849 188.749 7.24792e-05 200.393 7.24792e-05C207.578 7.24792e-05 213.93 6.86992 205.573 24.5752H197.886Z" fill="var(--fill-0, black)"/>
<path id="Vector_3" d="M25.7383 46.9157H18.9973V13.3485H15.9889C10.4736 13.3485 7.57663 16.141 7.57663 20.2742C7.57663 24.9656 9.58221 27.144 13.7048 29.9365L17.1031 32.2264L7.29808 46.9157H0L8.80228 33.7904C3.73261 30.16 0.891369 26.6412 0.891369 20.6652C0.891369 13.1808 6.07245 8.09829 15.9332 8.09829H25.7383V46.9157Z" fill="var(--fill-0, black)"/>
<path id="Vector_4" d="M155.822 45.7424C154.207 46.9154 152.034 47.4739 148.97 47.4739C140.112 47.4739 135.822 42.2797 135.822 32.8964C135.822 24.351 140.223 18.2632 148.691 18.2632C151.978 18.2632 154.429 18.8217 155.822 19.6037V25.2448C154.485 24.4069 151.978 23.5133 149.415 23.5133C145.07 23.5133 142.674 26.6409 142.674 32.7289C142.674 38.5375 144.624 42.2238 149.36 42.2238C152.145 42.2238 154.151 41.4977 155.822 40.3249V45.7424Z" fill="var(--fill-0, black)"/>
<path id="Vector_5" d="M136.211 46.9154H128.69L118.885 33.3433V46.9154H112.256V18.8216H118.885V32.0028L128.245 18.8216H134.93L125.57 32.0028L136.211 46.9154Z" fill="var(--fill-0, black)"/>
<path id="Vector_6" fill-rule="evenodd" clip-rule="evenodd" d="M91.8359 35.2422H107.8V31.7236C107.8 21.9495 103.51 18.2632 96.8806 18.2632C88.8025 18.2632 84.9585 24.4628 84.9585 32.9523C84.9585 42.7266 89.7497 47.4739 98.2176 47.4739C102.452 47.4739 105.571 46.357 107.521 45.0165V39.5987C105.46 40.9951 102.006 42.2238 98.7747 42.2238C93.9441 42.2238 92.0677 39.9419 91.8359 35.2422ZM91.8233 30.3272C91.9783 25.8803 93.5952 23.5133 96.7692 23.5133C100.056 23.5133 101.059 26.2501 101.059 29.7688V30.3272H91.8233Z" fill="var(--fill-0, black)"/>
<path id="Vector_7" fill-rule="evenodd" clip-rule="evenodd" d="M80.3904 41.6653H83.343V53.3383H77.2148V46.9154H62.3401V53.3383H56.212V41.6653H58.2732C60.6131 36.9737 61.0587 28.0932 61.0587 21.2233V18.8216H80.3904V41.6653ZM64.4014 41.6653H73.7608V24.0717H66.7413V24.9096C66.7413 29.7687 66.2398 37.4205 64.4014 41.6653Z" fill="var(--fill-0, black)"/>
<path id="Vector_8" d="M46.7961 29.9362V18.8216H53.4256V46.9154H46.7961V35.1863H37.938V46.9154H31.3084V18.8216H37.938V29.9362H46.7961Z" fill="var(--fill-0, black)"/>
</g>
</svg>
