<?xml version="1.0" encoding="UTF-8"?> <svg xmlns="http://www.w3.org/2000/svg" width="258" height="195" viewBox="0 0 258 195" fill="none"><g clip-path="url(#clip0_859_16312)"><path d="M0 16.2448C0 7.27307 7.27305 0 16.2448 0H241.402C250.374 0 257.647 7.27305 257.647 16.2448V177.932C257.647 186.903 250.374 194.176 241.402 194.176H16.2448C7.27306 194.176 0 186.903 0 177.932V16.2448Z" fill="#FBFBFB"></path><g clip-path="url(#clip1_859_16312)"><path d="M19.9937 20.6195C19.6125 20.6195 19.2684 20.7095 18.9613 20.8895C18.6648 21.0695 18.4107 21.329 18.199 21.6678C17.9872 21.996 17.8284 22.3984 17.7225 22.8748C17.6166 23.3513 17.5637 23.886 17.5637 24.479C17.5637 25.2837 17.6537 25.9719 17.8337 26.5437C18.0137 27.1048 18.289 27.5337 18.6595 27.8301C19.0301 28.1266 19.5013 28.2748 20.0731 28.2748C20.5284 28.2748 20.9731 28.2219 21.4072 28.116C21.8519 28.0101 22.3125 27.8619 22.789 27.6713V29.6884C22.3231 29.8895 21.8519 30.0378 21.3754 30.1331C20.899 30.2284 20.3801 30.276 19.819 30.276C18.686 30.276 17.7595 30.0378 17.0395 29.5613C16.3195 29.0742 15.7848 28.3966 15.4354 27.5284C15.0966 26.6495 14.9272 25.6278 14.9272 24.4631C14.9272 23.6054 15.0384 22.8219 15.2607 22.1125C15.4831 21.3925 15.8113 20.7731 16.2454 20.2542C16.6795 19.7354 17.209 19.3331 17.8337 19.0472C18.469 18.7613 19.1942 18.6184 20.0095 18.6184C20.539 18.6184 21.0948 18.6925 21.6772 18.8407C22.2701 18.9784 22.7837 19.169 23.2178 19.4125L22.4078 21.366C22.016 21.1648 21.619 20.9901 21.2166 20.8419C20.8248 20.6937 20.4172 20.6195 19.9937 20.6195ZM28.4671 21.2707C29.5366 21.2707 30.3624 21.5248 30.9448 22.0331C31.5377 22.5307 31.8342 23.2984 31.8342 24.336V30.1172H30.0713L29.5789 28.9419H29.5154C29.2824 29.249 29.0442 29.5031 28.8007 29.7042C28.5571 29.9054 28.2766 30.0484 27.9589 30.1331C27.6413 30.2284 27.2548 30.276 26.7995 30.276C26.323 30.276 25.8942 30.1807 25.513 29.9901C25.1424 29.789 24.846 29.4872 24.6236 29.0848C24.4013 28.6719 24.2901 28.1531 24.2901 27.5284C24.2901 26.6072 24.5918 25.9295 25.1954 25.4954C25.8095 25.0507 26.7095 24.8072 27.8954 24.7648L29.293 24.7172V24.336C29.293 23.8807 29.1924 23.5472 28.9913 23.3354C28.7901 23.1237 28.5148 23.0178 28.1654 23.0178C27.8054 23.0178 27.4295 23.0813 27.0377 23.2084C26.646 23.3248 26.2542 23.4731 25.8624 23.6531L25.0842 22.049C25.5501 21.8054 26.0636 21.6148 26.6248 21.4772C27.1966 21.3395 27.8107 21.2707 28.4671 21.2707ZM28.5624 26.1307C27.9377 26.1519 27.4983 26.2895 27.2442 26.5437C27.0007 26.7978 26.8789 27.1313 26.8789 27.5442C26.8789 27.9042 26.9636 28.1637 27.133 28.3225C27.313 28.4707 27.546 28.5448 27.8318 28.5448C28.2342 28.5448 28.5783 28.3966 28.8642 28.1001C29.1607 27.7931 29.3089 27.3642 29.3089 26.8137V26.099L28.5624 26.1307ZM36.4901 21.4454V24.7807H39.1742V21.4454H41.6995V30.1172H39.1742V26.5437H36.4901V30.1172H33.9489V21.4454H36.4901ZM49.4187 21.4454H52.214L49.0534 25.6066L52.484 30.1172H49.5934L46.401 25.7178V30.1172H43.8599V21.4454H46.401V25.6542L49.4187 21.4454ZM60.7329 23.2242H58.0329V30.1172H55.5076V23.2242H52.8076V21.4454H60.7329V23.2242ZM61.1683 26.8295V24.8919H65.1865V26.8295H61.1683ZM66.8189 30.1172V18.7772H75.3954V30.1172H72.8225V20.7784H69.3919V30.1172H66.8189ZM81.2757 21.2866C82.0487 21.2866 82.7157 21.4401 83.2769 21.7472C83.8381 22.0542 84.2722 22.499 84.5792 23.0813C84.8863 23.6637 85.0398 24.3784 85.0398 25.2254V26.369H79.8781C79.8992 27.036 80.0687 27.5601 80.3863 27.9413C80.7145 28.3225 81.1804 28.5131 81.7839 28.5131C82.3134 28.5131 82.7898 28.4601 83.2134 28.3542C83.6475 28.2378 84.0922 28.0631 84.5475 27.8301V29.6566C84.1557 29.8684 83.7269 30.0219 83.261 30.1172C82.8057 30.2231 82.2392 30.276 81.5616 30.276C80.7357 30.276 79.9998 30.1172 79.3539 29.7995C78.7187 29.4713 78.2157 28.979 77.8451 28.3225C77.4851 27.666 77.3051 26.8401 77.3051 25.8448C77.3051 24.8284 77.4692 23.9866 77.7975 23.3195C78.1363 22.6419 78.6022 22.1337 79.1951 21.7948C79.7987 21.456 80.4922 21.2866 81.2757 21.2866ZM81.3234 22.9701C80.9422 22.9701 80.6245 23.1184 80.3704 23.4148C80.1163 23.7113 79.9681 24.1719 79.9257 24.7966H82.7051C82.7051 24.4472 82.6522 24.1348 82.5463 23.8595C82.4404 23.5842 82.2869 23.3672 82.0857 23.2084C81.8845 23.0495 81.6304 22.9701 81.3234 22.9701ZM93.9555 23.2242H91.2555V30.1172H88.7302V23.2242H86.0302V21.4454H93.9555V23.2242ZM98.7866 21.2866C99.5596 21.2866 100.227 21.4401 100.788 21.7472C101.349 22.0542 101.783 22.499 102.09 23.0813C102.397 23.6637 102.551 24.3784 102.551 25.2254V26.369H97.389C97.4102 27.036 97.5796 27.5601 97.8972 27.9413C98.2255 28.3225 98.6913 28.5131 99.2949 28.5131C99.8243 28.5131 100.301 28.4601 100.724 28.3542C101.158 28.2378 101.603 28.0631 102.058 27.8301V29.6566C101.667 29.8684 101.238 30.0219 100.772 30.1172C100.317 30.2231 99.7502 30.276 99.0725 30.276C98.2466 30.276 97.5107 30.1172 96.8649 29.7995C96.2296 29.4713 95.7266 28.979 95.356 28.3225C94.996 27.666 94.816 26.8401 94.816 25.8448C94.816 24.8284 94.9802 23.9866 95.3084 23.3195C95.6472 22.6419 96.1131 22.1337 96.706 21.7948C97.3096 21.456 98.0031 21.2866 98.7866 21.2866ZM98.8343 22.9701C98.4531 22.9701 98.1355 23.1184 97.8813 23.4148C97.6272 23.7113 97.479 24.1719 97.4366 24.7966H100.216C100.216 24.4472 100.163 24.1348 100.057 23.8595C99.9513 23.5842 99.7978 23.3672 99.5966 23.2084C99.3955 23.0495 99.1413 22.9701 98.8343 22.9701ZM109.068 21.2866C109.979 21.2866 110.704 21.6678 111.244 22.4301C111.795 23.1819 112.07 24.2937 112.07 25.7654C112.07 26.7501 111.938 27.5813 111.673 28.259C111.408 28.926 111.043 29.429 110.577 29.7678C110.111 30.1066 109.576 30.276 108.973 30.276C108.592 30.276 108.264 30.2231 107.988 30.1172C107.713 30.0113 107.48 29.8737 107.289 29.7042C107.109 29.5348 106.951 29.3548 106.813 29.1642H106.702C106.734 29.3654 106.76 29.5772 106.781 29.7995C106.802 30.0113 106.813 30.2231 106.813 30.4348V33.929H104.272V21.4454H106.336L106.702 22.5731H106.813C106.951 22.3401 107.12 22.1284 107.321 21.9378C107.522 21.7366 107.766 21.5778 108.052 21.4613C108.338 21.3448 108.676 21.2866 109.068 21.2866ZM108.163 23.1766C107.835 23.1766 107.57 23.2613 107.369 23.4307C107.168 23.6001 107.025 23.8595 106.94 24.209C106.855 24.5478 106.813 24.9766 106.813 25.4954V25.7495C106.813 26.3107 106.855 26.7872 106.94 27.179C107.025 27.5601 107.168 27.8513 107.369 28.0525C107.57 28.2537 107.845 28.3542 108.195 28.3542C108.481 28.3542 108.719 28.2537 108.909 28.0525C109.1 27.8513 109.243 27.5548 109.338 27.1631C109.434 26.7713 109.481 26.2948 109.481 25.7337C109.481 24.8866 109.37 24.2513 109.148 23.8278C108.936 23.3937 108.608 23.1766 108.163 23.1766ZM113.366 24.9237C113.366 23.6425 113.52 22.5572 113.827 21.6678C114.134 20.7784 114.631 20.0637 115.32 19.5237C116.018 18.9837 116.956 18.6131 118.131 18.4119C118.628 18.3272 119.142 18.2531 119.671 18.1895C120.211 18.1154 120.757 18.0413 121.307 17.9672L121.561 20.0319C121.307 20.0637 121.037 20.1007 120.751 20.1431C120.466 20.1748 120.174 20.2119 119.878 20.2542C119.592 20.2966 119.311 20.339 119.036 20.3813C118.761 20.4131 118.512 20.4448 118.29 20.4766C117.845 20.5401 117.474 20.6301 117.178 20.7466C116.892 20.8525 116.659 21.006 116.479 21.2072C116.299 21.4084 116.161 21.6837 116.066 22.0331C115.981 22.3719 115.928 22.8113 115.907 23.3513H116.018C116.124 23.1501 116.278 22.949 116.479 22.7478C116.691 22.5466 116.95 22.3772 117.257 22.2395C117.575 22.1019 117.935 22.0331 118.337 22.0331C118.973 22.0331 119.528 22.176 120.005 22.4619C120.492 22.7478 120.868 23.1713 121.133 23.7325C121.408 24.2937 121.546 24.9925 121.546 25.829C121.546 26.8137 121.371 27.6342 121.021 28.2907C120.672 28.9472 120.19 29.4448 119.576 29.7837C118.962 30.1119 118.253 30.276 117.448 30.276C116.823 30.276 116.262 30.1595 115.764 29.9266C115.267 29.6937 114.838 29.3495 114.478 28.8942C114.118 28.439 113.843 27.8778 113.652 27.2107C113.461 26.5437 113.366 25.7813 113.366 24.9237ZM117.575 28.3542C117.85 28.3542 118.088 28.2801 118.29 28.1319C118.501 27.9837 118.666 27.7401 118.782 27.4013C118.898 27.0625 118.957 26.6072 118.957 26.0354C118.957 25.3472 118.861 24.8019 118.671 24.3995C118.491 23.9866 118.168 23.7801 117.702 23.7801C117.427 23.7801 117.167 23.8648 116.924 24.0342C116.68 24.1931 116.474 24.3784 116.304 24.5901C116.135 24.7913 116.018 24.966 115.955 25.1142C115.955 25.5272 115.981 25.9295 116.034 26.3213C116.087 26.7025 116.177 27.0466 116.304 27.3537C116.431 27.6607 116.596 27.9042 116.797 28.0842C117.008 28.2642 117.268 28.3542 117.575 28.3542ZM122.207 21.4454H124.923L126.368 26.3213C126.421 26.4695 126.458 26.6284 126.479 26.7978C126.511 26.9566 126.532 27.1207 126.543 27.2901C126.564 27.4595 126.58 27.6395 126.591 27.8301H126.654C126.675 27.5548 126.702 27.2954 126.734 27.0519C126.776 26.7978 126.834 26.5542 126.908 26.3213L128.354 21.4454H131.022L127.623 31.2131C127.411 31.8166 127.141 32.3195 126.813 32.7219C126.485 33.1242 126.088 33.426 125.622 33.6272C125.156 33.8284 124.611 33.929 123.986 33.929C123.732 33.929 123.509 33.9131 123.319 33.8813C123.139 33.8601 122.98 33.8337 122.842 33.8019V31.9278C122.948 31.949 123.075 31.9701 123.224 31.9913C123.382 32.0125 123.547 32.0231 123.716 32.0231C124.034 32.0231 124.298 31.9542 124.51 31.8166C124.722 31.679 124.897 31.4937 125.034 31.2607C125.172 31.0278 125.272 30.7684 125.336 30.4825L125.447 30.0537L122.207 21.4454ZM136.878 21.2866C137.788 21.2866 138.514 21.6678 139.054 22.4301C139.604 23.1819 139.88 24.2937 139.88 25.7654C139.88 26.7501 139.747 27.5813 139.483 28.259C139.218 28.926 138.853 29.429 138.387 29.7678C137.921 30.1066 137.386 30.276 136.783 30.276C136.401 30.276 136.073 30.2231 135.798 30.1172C135.523 30.0113 135.29 29.8737 135.099 29.7042C134.919 29.5348 134.76 29.3548 134.623 29.1642H134.511C134.543 29.3654 134.57 29.5772 134.591 29.7995C134.612 30.0113 134.623 30.2231 134.623 30.4348V33.929H132.081V21.4454H134.146L134.511 22.5731H134.623C134.76 22.3401 134.93 22.1284 135.131 21.9378C135.332 21.7366 135.575 21.5778 135.861 21.4613C136.147 21.3448 136.486 21.2866 136.878 21.2866ZM135.973 23.1766C135.644 23.1766 135.38 23.2613 135.178 23.4307C134.977 23.6001 134.834 23.8595 134.75 24.209C134.665 24.5478 134.623 24.9766 134.623 25.4954V25.7495C134.623 26.3107 134.665 26.7872 134.75 27.179C134.834 27.5601 134.977 27.8513 135.178 28.0525C135.38 28.2537 135.655 28.3542 136.004 28.3542C136.29 28.3542 136.528 28.2537 136.719 28.0525C136.91 27.8513 137.053 27.5548 137.148 27.1631C137.243 26.7713 137.291 26.2948 137.291 25.7337C137.291 24.8866 137.18 24.2513 136.957 23.8278C136.745 23.3937 136.417 23.1766 135.973 23.1766ZM147.481 21.4454V23.2242H144.146V30.1172H141.605V21.4454H147.481Z" fill="#272727"></path><path d="M234.705 19.4122C234.705 20.3868 233.915 21.1769 232.94 21.1769C231.966 21.1769 231.176 20.3868 231.176 19.4122C231.176 18.4375 231.966 17.6475 232.94 17.6475C233.915 17.6475 234.705 18.4375 234.705 19.4122Z" fill="#939393"></path><path d="M234.705 24.7063C234.705 25.6809 233.915 26.471 232.94 26.471C231.966 26.471 231.176 25.6809 231.176 24.7063C231.176 23.7317 231.966 22.9416 232.94 22.9416C233.915 22.9416 234.705 23.7317 234.705 24.7063Z" fill="#939393"></path><path d="M234.705 30.0004C234.705 30.975 233.915 31.7651 232.94 31.7651C231.966 31.7651 231.176 30.975 231.176 30.0004C231.176 29.0258 231.966 28.2357 232.94 28.2357C233.915 28.2357 234.705 29.0258 234.705 30.0004Z" fill="#939393"></path><path d="M19.4431 60.1508C19.4431 60.7649 19.4007 61.312 19.316 61.792C19.2313 62.272 19.0866 62.6814 18.8819 63.0202C18.6842 63.352 18.4266 63.6061 18.109 63.7826C17.7984 63.9591 17.4172 64.0473 16.9654 64.0473C16.4078 64.0473 15.9454 63.892 15.5784 63.5814C15.2184 63.2708 14.9501 62.8261 14.7737 62.2473C14.6042 61.6614 14.5195 60.9626 14.5195 60.1508C14.5195 59.3391 14.5972 58.6438 14.7525 58.0649C14.9148 57.4861 15.176 57.0414 15.536 56.7308C15.896 56.4202 16.376 56.2649 16.976 56.2649C17.5407 56.2649 18.0031 56.4202 18.3631 56.7308C18.7301 57.0343 19.0019 57.4791 19.1784 58.0649C19.3548 58.6438 19.4431 59.3391 19.4431 60.1508ZM15.9278 60.1614C15.9278 60.7755 15.9595 61.2908 16.0231 61.7073C16.0866 62.1167 16.196 62.4273 16.3513 62.6391C16.5066 62.8438 16.7148 62.9461 16.976 62.9461C17.2372 62.9461 17.4419 62.8438 17.5901 62.6391C17.7454 62.4343 17.8584 62.1238 17.929 61.7073C17.9995 61.2908 18.0348 60.7755 18.0348 60.1614C18.0348 59.5402 17.9995 59.0249 17.929 58.6155C17.8584 58.1991 17.7454 57.8885 17.5901 57.6838C17.4419 57.472 17.2372 57.3661 16.976 57.3661C16.7148 57.3661 16.5066 57.472 16.3513 57.6838C16.196 57.8885 16.0866 58.1955 16.0231 58.6049C15.9595 59.0143 15.9278 59.5332 15.9278 60.1614ZM21.0103 63.9414L23.6997 57.5355H20.2056V56.3814H25.2032V57.2814L22.5032 63.9414H21.0103ZM28.5508 61.6226V60.5743H37.7308V61.6226H28.5508ZM46.0377 60.1508C46.0377 60.7649 45.9954 61.312 45.9107 61.792C45.826 62.272 45.6813 62.6814 45.4766 63.0202C45.2789 63.352 45.0213 63.6061 44.7036 63.7826C44.393 63.9591 44.0119 64.0473 43.5601 64.0473C43.0024 64.0473 42.5401 63.892 42.173 63.5814C41.813 63.2708 41.5448 62.8261 41.3683 62.2473C41.1989 61.6614 41.1142 60.9626 41.1142 60.1508C41.1142 59.3391 41.1919 58.6438 41.3472 58.0649C41.5095 57.4861 41.7707 57.0414 42.1307 56.7308C42.4907 56.4202 42.9707 56.2649 43.5707 56.2649C44.1354 56.2649 44.5977 56.4202 44.9577 56.7308C45.3248 57.0343 45.5966 57.4791 45.773 58.0649C45.9495 58.6438 46.0377 59.3391 46.0377 60.1508ZM42.5224 60.1614C42.5224 60.7755 42.5542 61.2908 42.6177 61.7073C42.6813 62.1167 42.7907 62.4273 42.946 62.6391C43.1013 62.8438 43.3095 62.9461 43.5707 62.9461C43.8319 62.9461 44.0366 62.8438 44.1848 62.6391C44.3401 62.4343 44.453 62.1238 44.5236 61.7073C44.5942 61.2908 44.6295 60.7755 44.6295 60.1614C44.6295 59.5402 44.5942 59.0249 44.5236 58.6155C44.453 58.1991 44.3401 57.8885 44.1848 57.6838C44.0366 57.472 43.8319 57.3661 43.5707 57.3661C43.3095 57.3661 43.1013 57.472 42.946 57.6838C42.7907 57.8885 42.6813 58.1955 42.6177 58.6049C42.5542 59.0143 42.5224 59.5332 42.5224 60.1614ZM51.7767 59.6108C51.7767 60.0626 51.7414 60.5073 51.6709 60.9449C51.6073 61.3755 51.4979 61.7779 51.3426 62.152C51.1873 62.5261 50.9756 62.8579 50.7073 63.1473C50.4461 63.4296 50.1109 63.652 49.7014 63.8143C49.2991 63.9696 48.8156 64.0473 48.2509 64.0473C48.1097 64.0473 47.9473 64.0402 47.7638 64.0261C47.5803 64.012 47.425 63.9908 47.2979 63.9626V62.8614C47.425 62.8967 47.5626 62.9249 47.7109 62.9461C47.8661 62.9673 48.0144 62.9779 48.1556 62.9779C48.6003 62.9779 48.9673 62.9143 49.2567 62.7873C49.5461 62.6532 49.7756 62.4696 49.945 62.2367C50.1214 61.9967 50.245 61.7179 50.3156 61.4002C50.3932 61.0755 50.4391 60.7296 50.4532 60.3626H50.3897C50.2979 60.5249 50.185 60.6732 50.0509 60.8073C49.9167 60.9414 49.7509 61.0473 49.5532 61.1249C49.3556 61.2026 49.105 61.2414 48.8014 61.2414C48.3991 61.2414 48.0497 61.1496 47.7532 60.9661C47.4638 60.7826 47.2379 60.5179 47.0756 60.172C46.9132 59.8191 46.832 59.392 46.832 58.8908C46.832 58.3473 46.9273 57.8814 47.1179 57.4932C47.3156 57.0979 47.5909 56.7979 47.9438 56.5932C48.2967 56.3814 48.7203 56.2755 49.2144 56.2755C49.5744 56.2755 49.9097 56.3461 50.2203 56.4873C50.5309 56.6214 50.8026 56.8261 51.0356 57.1014C51.2685 57.3696 51.4485 57.7155 51.5756 58.1391C51.7097 58.5555 51.7767 59.0461 51.7767 59.6108ZM49.2356 57.3661C48.932 57.3661 48.6814 57.4896 48.4838 57.7367C48.2932 57.9838 48.1979 58.3614 48.1979 58.8696C48.1979 59.2791 48.2791 59.6038 48.4414 59.8438C48.6109 60.0767 48.8614 60.1932 49.1932 60.1932C49.4332 60.1932 49.6379 60.1367 49.8073 60.0238C49.9838 59.9038 50.1179 59.7555 50.2097 59.5791C50.3085 59.4026 50.3579 59.2155 50.3579 59.0179C50.3579 58.8132 50.3332 58.612 50.2838 58.4143C50.2414 58.2167 50.1744 58.0402 50.0826 57.8849C49.9909 57.7296 49.8709 57.6061 49.7226 57.5143C49.5814 57.4155 49.4191 57.3661 49.2356 57.3661ZM62.0913 58.2026V63.9414H60.8207V60.8073C60.8207 60.5743 60.8243 60.3449 60.8313 60.1191C60.8454 59.8932 60.8596 59.6779 60.8737 59.4732H60.8419L59.3278 63.9414H58.2796L56.7654 59.4732H56.7337C56.7478 59.6779 56.7584 59.8932 56.7654 60.1191C56.7796 60.3449 56.7866 60.5885 56.7866 60.8496V63.9414H55.516V58.2026H57.4431L58.809 62.3638L60.2066 58.2026H62.0913ZM65.9203 58.0967C66.6121 58.0967 67.1415 58.2591 67.5085 58.5838C67.8756 58.9014 68.0591 59.4026 68.0591 60.0873V63.9414H67.0744L66.7991 63.1473H66.7568C66.6015 63.352 66.4427 63.5249 66.2803 63.6661C66.1179 63.8002 65.9309 63.8955 65.7191 63.952C65.5074 64.0155 65.2532 64.0473 64.9568 64.0473C64.6391 64.0473 64.3532 63.9838 64.0991 63.8567C63.845 63.7296 63.6438 63.5355 63.4956 63.2743C63.3474 63.0061 63.2732 62.6708 63.2732 62.2685C63.2732 61.6755 63.4779 61.2308 63.8874 60.9343C64.2968 60.6308 64.9109 60.4649 65.7297 60.4367L66.6509 60.4049V60.1191C66.6509 59.752 66.5732 59.4908 66.4179 59.3355C66.2627 59.1802 66.0509 59.1026 65.7827 59.1026C65.5285 59.1026 65.2709 59.1449 65.0097 59.2296C64.7556 59.3143 64.505 59.4132 64.2579 59.5261L63.8238 58.5943C64.1132 58.4461 64.4344 58.3261 64.7874 58.2343C65.1403 58.1426 65.5179 58.0967 65.9203 58.0967ZM66.0579 61.252C65.5568 61.2732 65.2074 61.3755 65.0097 61.5591C64.8121 61.7355 64.7132 61.9755 64.7132 62.2791C64.7132 62.5473 64.7803 62.7414 64.9144 62.8614C65.0556 62.9814 65.2391 63.0414 65.465 63.0414C65.7968 63.0414 66.0791 62.932 66.3121 62.7132C66.545 62.4873 66.6615 62.1555 66.6615 61.7179V61.2308L66.0579 61.252ZM72.5122 58.0967C73.1334 58.0967 73.631 58.3473 74.0052 58.8485C74.3863 59.3426 74.5769 60.0802 74.5769 61.0614C74.5769 61.7108 74.4887 62.2579 74.3122 62.7026C74.1357 63.1473 73.8887 63.4826 73.571 63.7085C73.2534 63.9343 72.8863 64.0473 72.4699 64.0473C72.2087 64.0473 71.9793 64.012 71.7816 63.9414C71.591 63.8638 71.4287 63.7685 71.2946 63.6555C71.1605 63.5355 71.0475 63.4085 70.9557 63.2743H70.8816C70.9028 63.4014 70.9205 63.5461 70.9346 63.7085C70.9487 63.8638 70.9557 64.012 70.9557 64.1532V66.4826H69.5475V58.2026H70.691L70.8816 58.9649H70.9557C71.0546 58.8026 71.171 58.6579 71.3052 58.5308C71.4463 58.3967 71.6157 58.2908 71.8134 58.2132C72.011 58.1355 72.244 58.0967 72.5122 58.0967ZM72.0675 59.1767C71.7993 59.1767 71.5805 59.2402 71.411 59.3673C71.2487 59.4873 71.1322 59.6743 71.0616 59.9285C70.991 60.1826 70.9557 60.5002 70.9557 60.8814V61.0508C70.9557 61.4602 70.9875 61.8061 71.051 62.0885C71.1216 62.3708 71.2381 62.5861 71.4005 62.7343C71.5699 62.8826 71.7993 62.9567 72.0887 62.9567C72.3287 62.9567 72.5263 62.8791 72.6816 62.7238C72.8369 62.5685 72.9534 62.3496 73.031 62.0673C73.1087 61.7779 73.1475 61.4355 73.1475 61.0402C73.1475 60.4473 73.0557 59.9885 72.8722 59.6638C72.6957 59.3391 72.4275 59.1767 72.0675 59.1767ZM80.1252 59.2296H78.3464V63.9414H76.9488V59.2296H75.1805V58.2026H80.1252V59.2296ZM83.4054 58.0967C84.0971 58.0967 84.6265 58.2591 84.9936 58.5838C85.3607 58.9014 85.5442 59.4026 85.5442 60.0873V63.9414H84.5595L84.2842 63.1473H84.2418C84.0865 63.352 83.9277 63.5249 83.7654 63.6661C83.603 63.8002 83.4159 63.8955 83.2042 63.952C82.9924 64.0155 82.7383 64.0473 82.4418 64.0473C82.1242 64.0473 81.8383 63.9838 81.5842 63.8567C81.3301 63.7296 81.1289 63.5355 80.9807 63.2743C80.8324 63.0061 80.7583 62.6708 80.7583 62.2685C80.7583 61.6755 80.963 61.2308 81.3724 60.9343C81.7818 60.6308 82.3959 60.4649 83.2148 60.4367L84.1359 60.4049V60.1191C84.1359 59.752 84.0583 59.4908 83.903 59.3355C83.7477 59.1802 83.5359 59.1026 83.2677 59.1026C83.0136 59.1026 82.7559 59.1449 82.4948 59.2296C82.2407 59.3143 81.9901 59.4132 81.743 59.5261L81.3089 58.5943C81.5983 58.4461 81.9195 58.3261 82.2724 58.2343C82.6254 58.1426 83.003 58.0967 83.4054 58.0967ZM83.543 61.252C83.0418 61.2732 82.6924 61.3755 82.4948 61.5591C82.2971 61.7355 82.1983 61.9755 82.1983 62.2791C82.1983 62.5473 82.2654 62.7414 82.3995 62.8614C82.5407 62.9814 82.7242 63.0414 82.9501 63.0414C83.2818 63.0414 83.5642 62.932 83.7971 62.7132C84.0301 62.4873 84.1465 62.1555 84.1465 61.7179V61.2308L83.543 61.252Z" fill="#272727"></path><circle cx="92.4131" cy="60.4415" r="1.76471" fill="#B7B7B7"></circle><path d="M100.682 59.1873C101.127 59.1873 101.519 59.2755 101.858 59.452C102.196 59.6285 102.461 59.8861 102.652 60.2249C102.849 60.5567 102.948 60.9661 102.948 61.4532C102.948 61.9896 102.842 62.452 102.631 62.8402C102.419 63.2285 102.105 63.5285 101.688 63.7402C101.279 63.9449 100.767 64.0473 100.153 64.0473C99.7788 64.0473 99.4259 64.012 99.0941 63.9414C98.7623 63.8708 98.4764 63.7685 98.2364 63.6343V62.4485C98.4835 62.5896 98.78 62.7061 99.1259 62.7979C99.4717 62.8896 99.7964 62.9355 100.1 62.9355C100.396 62.9355 100.651 62.8896 100.862 62.7979C101.074 62.6991 101.236 62.5508 101.349 62.3532C101.462 62.1485 101.519 61.8908 101.519 61.5802C101.519 61.1567 101.399 60.8355 101.159 60.6167C100.919 60.3979 100.548 60.2885 100.047 60.2885C99.8635 60.2885 99.6694 60.3061 99.4647 60.3414C99.26 60.3767 99.0906 60.412 98.9564 60.4473L98.3741 60.1296L98.6494 56.3814H102.461V57.5461H99.867L99.7294 59.2932C99.8423 59.272 99.9694 59.2508 100.111 59.2296C100.259 59.2014 100.449 59.1873 100.682 59.1873ZM109.07 64.0473C108.54 64.0473 108.082 63.9449 107.693 63.7402C107.312 63.5285 107.016 63.2073 106.804 62.7767C106.599 62.3391 106.497 61.7814 106.497 61.1038C106.497 60.3979 106.61 59.8261 106.836 59.3885C107.069 58.9438 107.386 58.6191 107.789 58.4143C108.198 58.2026 108.66 58.0967 109.176 58.0967C109.5 58.0967 109.804 58.132 110.086 58.2026C110.376 58.2732 110.616 58.3579 110.806 58.4567L110.383 59.4838C110.192 59.4061 110.002 59.3391 109.811 59.2826C109.62 59.2261 109.43 59.1979 109.239 59.1979C108.95 59.1979 108.71 59.2685 108.519 59.4096C108.329 59.5508 108.18 59.7626 108.075 60.0449C107.976 60.3202 107.926 60.6696 107.926 61.0932C107.926 61.5026 107.976 61.8449 108.075 62.1202C108.18 62.3955 108.329 62.6038 108.519 62.7449C108.71 62.8791 108.943 62.9461 109.218 62.9461C109.493 62.9461 109.748 62.9073 109.98 62.8296C110.22 62.752 110.446 62.6461 110.658 62.512V63.6661C110.439 63.8002 110.206 63.8955 109.959 63.952C109.712 64.0155 109.416 64.0473 109.07 64.0473ZM116.804 61.0614C116.804 61.5414 116.744 61.9649 116.624 62.332C116.504 62.6991 116.328 63.0132 116.095 63.2743C115.869 63.5285 115.594 63.7226 115.269 63.8567C114.944 63.9838 114.581 64.0473 114.178 64.0473C113.804 64.0473 113.455 63.9838 113.13 63.8567C112.812 63.7226 112.537 63.5285 112.304 63.2743C112.078 63.0132 111.902 62.6991 111.775 62.332C111.648 61.9649 111.584 61.5414 111.584 61.0614C111.584 60.4261 111.687 59.8896 111.891 59.452C112.103 59.0073 112.407 58.672 112.802 58.4461C113.197 58.2132 113.667 58.0967 114.21 58.0967C114.718 58.0967 115.167 58.2132 115.555 58.4461C115.943 58.672 116.247 59.0073 116.465 59.452C116.691 59.8896 116.804 60.4261 116.804 61.0614ZM113.014 61.0614C113.014 61.4638 113.056 61.8096 113.141 62.0991C113.225 62.3814 113.352 62.5967 113.522 62.7449C113.698 62.8932 113.924 62.9673 114.2 62.9673C114.475 62.9673 114.697 62.8932 114.867 62.7449C115.043 62.5967 115.17 62.3814 115.248 62.0991C115.332 61.8096 115.375 61.4638 115.375 61.0614C115.375 60.652 115.332 60.3096 115.248 60.0343C115.163 59.752 115.032 59.5402 114.856 59.3991C114.687 59.2508 114.464 59.1767 114.189 59.1767C113.772 59.1767 113.472 59.3391 113.289 59.6638C113.105 59.9885 113.014 60.4543 113.014 61.0614ZM122.344 59.2296H120.566V63.9414H119.168V59.2296H117.4V58.2026H122.344V59.2296ZM126.292 58.0967C126.913 58.0967 127.41 58.3473 127.785 58.8485C128.166 59.3426 128.356 60.0802 128.356 61.0614C128.356 61.7108 128.268 62.2579 128.092 62.7026C127.915 63.1473 127.668 63.4826 127.35 63.7085C127.033 63.9343 126.666 64.0473 126.249 64.0473C125.988 64.0473 125.759 64.012 125.561 63.9414C125.37 63.8638 125.208 63.7685 125.074 63.6555C124.94 63.5355 124.827 63.4085 124.735 63.2743H124.661C124.682 63.4014 124.7 63.5461 124.714 63.7085C124.728 63.8638 124.735 64.012 124.735 64.1532V66.4826H123.327V58.2026H124.47L124.661 58.9649H124.735C124.834 58.8026 124.95 58.6579 125.085 58.5308C125.226 58.3967 125.395 58.2908 125.593 58.2132C125.79 58.1355 126.023 58.0967 126.292 58.0967ZM125.847 59.1767C125.579 59.1767 125.36 59.2402 125.19 59.3673C125.028 59.4873 124.912 59.6743 124.841 59.9285C124.77 60.1826 124.735 60.5002 124.735 60.8814V61.0508C124.735 61.4602 124.767 61.8061 124.83 62.0885C124.901 62.3708 125.018 62.5861 125.18 62.7343C125.349 62.8826 125.579 62.9567 125.868 62.9567C126.108 62.9567 126.306 62.8791 126.461 62.7238C126.616 62.5685 126.733 62.3496 126.81 62.0673C126.888 61.7779 126.927 61.4355 126.927 61.0402C126.927 60.4473 126.835 59.9885 126.652 59.6638C126.475 59.3391 126.207 59.1767 125.847 59.1767ZM128.727 58.2026H130.231L131.258 61.4426C131.307 61.5767 131.346 61.7108 131.374 61.8449C131.41 61.9791 131.438 62.1132 131.459 62.2473C131.487 62.3814 131.508 62.5155 131.523 62.6496H131.554C131.583 62.4732 131.618 62.2791 131.66 62.0673C131.71 61.8555 131.766 61.6473 131.83 61.4426L132.835 58.2026H134.318L132.041 64.6932C131.907 65.0743 131.738 65.3991 131.533 65.6673C131.335 65.9355 131.092 66.1367 130.803 66.2708C130.52 66.412 130.181 66.4826 129.786 66.4826C129.624 66.4826 129.479 66.472 129.352 66.4508C129.232 66.4367 129.126 66.4191 129.034 66.3979V65.3391C129.105 65.3532 129.193 65.3673 129.299 65.3814C129.405 65.3955 129.514 65.4026 129.627 65.4026C129.832 65.4026 130.005 65.3567 130.146 65.2649C130.294 65.1802 130.418 65.0602 130.517 64.9049C130.615 64.7567 130.69 64.5838 130.739 64.3861L130.887 63.9202L128.727 58.2026ZM139.599 58.2026V62.9249H140.393V65.9743H139.122V63.9414H135.533V65.9743H134.273V62.9249H134.728C134.975 62.5155 135.187 62.0567 135.364 61.5485C135.54 61.0332 135.678 60.4896 135.777 59.9179C135.882 59.3461 135.949 58.7743 135.978 58.2026H139.599ZM137.121 59.2191C137.079 59.6638 137.015 60.1085 136.931 60.5532C136.846 60.9908 136.74 61.4108 136.613 61.8132C136.493 62.2155 136.345 62.5861 136.168 62.9249H138.201V59.2191H137.121ZM142.717 58.2026V60.4791H144.898V58.2026H146.295V63.9414H144.898V61.5061H142.717V63.9414H141.308V58.2026H142.717ZM149.135 60.9343C149.135 61.0332 149.132 61.1602 149.125 61.3155C149.118 61.4638 149.111 61.6226 149.104 61.792C149.097 61.9543 149.086 62.1026 149.072 62.2367C149.065 62.3638 149.061 62.4591 149.061 62.5226L151.56 58.2026H153.18V63.9414H151.867V61.2414C151.867 61.0791 151.871 60.892 151.878 60.6802C151.892 60.4685 151.903 60.2673 151.91 60.0767C151.924 59.8791 151.934 59.7308 151.941 59.632L149.453 63.9414H147.823V58.2026H149.135V60.9343ZM158.235 58.2026H159.77L157.599 60.9555L159.961 63.9414H158.351L156.128 61.0296V63.9414H154.719V58.2026H156.128V60.9873L158.235 58.2026ZM165.485 61.0614C165.485 61.5414 165.425 61.9649 165.305 62.332C165.185 62.6991 165.009 63.0132 164.776 63.2743C164.55 63.5285 164.275 63.7226 163.95 63.8567C163.625 63.9838 163.262 64.0473 162.859 64.0473C162.485 64.0473 162.136 63.9838 161.811 63.8567C161.494 63.7226 161.218 63.5285 160.985 63.2743C160.759 63.0132 160.583 62.6991 160.456 62.332C160.329 61.9649 160.265 61.5414 160.265 61.0614C160.265 60.4261 160.368 59.8896 160.572 59.452C160.784 59.0073 161.088 58.672 161.483 58.4461C161.878 58.2132 162.348 58.0967 162.891 58.0967C163.399 58.0967 163.848 58.2132 164.236 58.4461C164.624 58.672 164.928 59.0073 165.146 59.452C165.372 59.8896 165.485 60.4261 165.485 61.0614ZM161.695 61.0614C161.695 61.4638 161.737 61.8096 161.822 62.0991C161.906 62.3814 162.034 62.5967 162.203 62.7449C162.379 62.8932 162.605 62.9673 162.881 62.9673C163.156 62.9673 163.378 62.8932 163.548 62.7449C163.724 62.5967 163.851 62.3814 163.929 62.0991C164.014 61.8096 164.056 61.4638 164.056 61.0614C164.056 60.652 164.014 60.3096 163.929 60.0343C163.844 59.752 163.714 59.5402 163.537 59.3991C163.368 59.2508 163.145 59.1767 162.87 59.1767C162.454 59.1767 162.154 59.3391 161.97 59.6638C161.786 59.9885 161.695 60.4543 161.695 61.0614ZM171.436 59.6849C171.436 60.0096 171.344 60.2779 171.161 60.4896C170.977 60.7014 170.713 60.8391 170.367 60.9026V60.9449C170.734 60.9943 171.03 61.1285 171.256 61.3473C171.489 61.5591 171.606 61.8555 171.606 62.2367C171.606 62.4838 171.563 62.7132 171.479 62.9249C171.394 63.1296 171.26 63.3096 171.076 63.4649C170.893 63.6132 170.649 63.7296 170.346 63.8143C170.042 63.8991 169.672 63.9414 169.234 63.9414H166.714V58.2026H169.234C169.686 58.2026 170.074 58.2485 170.399 58.3402C170.73 58.432 170.984 58.5873 171.161 58.8061C171.344 59.0179 171.436 59.3108 171.436 59.6849ZM170.166 62.1838C170.166 61.9226 170.081 61.7355 169.912 61.6226C169.749 61.5026 169.492 61.4426 169.139 61.4426H168.122V62.9779H169.149C169.481 62.9779 169.732 62.9179 169.901 62.7979C170.077 62.6779 170.166 62.4732 170.166 62.1838ZM170.028 59.8014C170.028 59.5896 169.957 59.4343 169.816 59.3355C169.682 59.2367 169.474 59.1873 169.192 59.1873H168.122V60.4791H169.043C169.368 60.4791 169.612 60.4261 169.774 60.3202C169.943 60.2143 170.028 60.0414 170.028 59.8014Z" fill="#272727"></path><circle cx="177.999" cy="60.4415" r="1.76471" fill="#B7B7B7"></circle><path d="M188.619 63.9414H183.695V62.9567L185.485 61.0085C185.845 60.6202 186.134 60.2885 186.353 60.0132C186.572 59.7308 186.731 59.4696 186.829 59.2296C186.935 58.9896 186.988 58.7285 186.988 58.4461C186.988 58.1002 186.9 57.8426 186.724 57.6732C186.554 57.4967 186.328 57.4085 186.046 57.4085C185.764 57.4085 185.495 57.4755 185.241 57.6096C184.994 57.7367 184.733 57.9202 184.458 58.1602L183.685 57.2814C183.889 57.0979 184.105 56.932 184.331 56.7838C184.556 56.6285 184.818 56.5049 185.114 56.4132C185.418 56.3214 185.767 56.2755 186.162 56.2755C186.621 56.2755 187.016 56.3638 187.348 56.5402C187.687 56.7096 187.948 56.9461 188.132 57.2496C188.315 57.5532 188.407 57.9061 188.407 58.3085C188.407 58.6191 188.361 58.9049 188.269 59.1661C188.185 59.4273 188.058 59.6849 187.888 59.9391C187.719 60.1932 187.518 60.4543 187.285 60.7226C187.052 60.9908 186.791 61.2838 186.501 61.6014L185.474 62.7238V62.7873H188.619V63.9414ZM191.997 59.1873C192.441 59.1873 192.833 59.2755 193.172 59.452C193.511 59.6285 193.775 59.8861 193.966 60.2249C194.164 60.5567 194.263 60.9661 194.263 61.4532C194.263 61.9896 194.157 62.452 193.945 62.8402C193.733 63.2285 193.419 63.5285 193.003 63.7402C192.593 63.9449 192.081 64.0473 191.467 64.0473C191.093 64.0473 190.74 64.012 190.408 63.9414C190.077 63.8708 189.791 63.7685 189.551 63.6343V62.4485C189.798 62.5896 190.094 62.7061 190.44 62.7979C190.786 62.8896 191.111 62.9355 191.414 62.9355C191.711 62.9355 191.965 62.8896 192.177 62.7979C192.388 62.6991 192.551 62.5508 192.664 62.3532C192.777 62.1485 192.833 61.8908 192.833 61.5802C192.833 61.1567 192.713 60.8355 192.473 60.6167C192.233 60.3979 191.863 60.2885 191.361 60.2885C191.178 60.2885 190.984 60.3061 190.779 60.3414C190.574 60.3767 190.405 60.412 190.271 60.4473L189.688 60.1296L189.964 56.3814H193.775V57.5461H191.181L191.044 59.2932C191.157 59.272 191.284 59.2508 191.425 59.2296C191.573 59.2014 191.764 59.1873 191.997 59.1873ZM200.076 60.1508C200.076 60.7649 200.033 61.312 199.949 61.792C199.864 62.272 199.719 62.6814 199.514 63.0202C199.317 63.352 199.059 63.6061 198.742 63.7826C198.431 63.9591 198.05 64.0473 197.598 64.0473C197.04 64.0473 196.578 63.892 196.211 63.5814C195.851 63.2708 195.583 62.8261 195.406 62.2473C195.237 61.6614 195.152 60.9626 195.152 60.1508C195.152 59.3391 195.23 58.6438 195.385 58.0649C195.547 57.4861 195.809 57.0414 196.169 56.7308C196.529 56.4202 197.009 56.2649 197.609 56.2649C198.173 56.2649 198.636 56.4202 198.996 56.7308C199.363 57.0343 199.634 57.4791 199.811 58.0649C199.987 58.6438 200.076 59.3391 200.076 60.1508ZM196.56 60.1614C196.56 60.7755 196.592 61.2908 196.656 61.7073C196.719 62.1167 196.829 62.4273 196.984 62.6391C197.139 62.8438 197.347 62.9461 197.609 62.9461C197.87 62.9461 198.074 62.8438 198.223 62.6391C198.378 62.4343 198.491 62.1238 198.562 61.7073C198.632 61.2908 198.667 60.7755 198.667 60.1614C198.667 59.5402 198.632 59.0249 198.562 58.6155C198.491 58.1991 198.378 57.8885 198.223 57.6838C198.074 57.472 197.87 57.3661 197.609 57.3661C197.347 57.3661 197.139 57.472 196.984 57.6838C196.829 57.8885 196.719 58.1955 196.656 58.6049C196.592 59.0143 196.56 59.5332 196.56 60.1614ZM208.389 60.1508C208.389 60.7649 208.347 61.312 208.262 61.792C208.177 62.272 208.033 62.6814 207.828 63.0202C207.63 63.352 207.373 63.6061 207.055 63.7826C206.744 63.9591 206.363 64.0473 205.911 64.0473C205.354 64.0473 204.891 63.892 204.524 63.5814C204.164 63.2708 203.896 62.8261 203.72 62.2473C203.55 61.6614 203.466 60.9626 203.466 60.1508C203.466 59.3391 203.543 58.6438 203.698 58.0649C203.861 57.4861 204.122 57.0414 204.482 56.7308C204.842 56.4202 205.322 56.2649 205.922 56.2649C206.487 56.2649 206.949 56.4202 207.309 56.7308C207.676 57.0343 207.948 57.4791 208.124 58.0649C208.301 58.6438 208.389 59.3391 208.389 60.1508ZM204.874 60.1614C204.874 60.7755 204.906 61.2908 204.969 61.7073C205.033 62.1167 205.142 62.4273 205.297 62.6391C205.453 62.8438 205.661 62.9461 205.922 62.9461C206.183 62.9461 206.388 62.8438 206.536 62.6391C206.691 62.4343 206.804 62.1238 206.875 61.7073C206.946 61.2908 206.981 60.7755 206.981 60.1614C206.981 59.5402 206.946 59.0249 206.875 58.6155C206.804 58.1991 206.691 57.8885 206.536 57.6838C206.388 57.472 206.183 57.3661 205.922 57.3661C205.661 57.3661 205.453 57.472 205.297 57.6838C205.142 57.8885 205.033 58.1955 204.969 58.6049C204.906 59.0143 204.874 59.5332 204.874 60.1614ZM214.117 60.1508C214.117 60.7649 214.075 61.312 213.99 61.792C213.906 62.272 213.761 62.6814 213.556 63.0202C213.359 63.352 213.101 63.6061 212.783 63.7826C212.473 63.9591 212.092 64.0473 211.64 64.0473C211.082 64.0473 210.62 63.892 210.253 63.5814C209.893 63.2708 209.625 62.8261 209.448 62.2473C209.279 61.6614 209.194 60.9626 209.194 60.1508C209.194 59.3391 209.272 58.6438 209.427 58.0649C209.589 57.4861 209.85 57.0414 210.21 56.7308C210.57 56.4202 211.05 56.2649 211.65 56.2649C212.215 56.2649 212.677 56.4202 213.037 56.7308C213.405 57.0343 213.676 57.4791 213.853 58.0649C214.029 58.6438 214.117 59.3391 214.117 60.1508ZM210.602 60.1614C210.602 60.7755 210.634 61.2908 210.697 61.7073C210.761 62.1167 210.87 62.4273 211.026 62.6391C211.181 62.8438 211.389 62.9461 211.65 62.9461C211.912 62.9461 212.116 62.8438 212.265 62.6391C212.42 62.4343 212.533 62.1238 212.603 61.7073C212.674 61.2908 212.709 60.7755 212.709 60.1614C212.709 59.5402 212.674 59.0249 212.603 58.6155C212.533 58.1991 212.42 57.8885 212.265 57.6838C212.116 57.472 211.912 57.3661 211.65 57.3661C211.389 57.3661 211.181 57.472 211.026 57.6838C210.87 57.8885 210.761 58.1955 210.697 58.6049C210.634 59.0143 210.602 59.5332 210.602 60.1614ZM219.846 60.1508C219.846 60.7649 219.804 61.312 219.719 61.792C219.634 62.272 219.489 62.6814 219.285 63.0202C219.087 63.352 218.829 63.6061 218.512 63.7826C218.201 63.9591 217.82 64.0473 217.368 64.0473C216.811 64.0473 216.348 63.892 215.981 63.5814C215.621 63.2708 215.353 62.8261 215.176 62.2473C215.007 61.6614 214.922 60.9626 214.922 60.1508C214.922 59.3391 215 58.6438 215.155 58.0649C215.318 57.4861 215.579 57.0414 215.939 56.7308C216.299 56.4202 216.779 56.2649 217.379 56.2649C217.944 56.2649 218.406 56.4202 218.766 56.7308C219.133 57.0343 219.405 57.4791 219.581 58.0649C219.758 58.6438 219.846 59.3391 219.846 60.1508ZM216.331 60.1614C216.331 60.7755 216.362 61.2908 216.426 61.7073C216.489 62.1167 216.599 62.4273 216.754 62.6391C216.909 62.8438 217.118 62.9461 217.379 62.9461C217.64 62.9461 217.845 62.8438 217.993 62.6391C218.148 62.4343 218.261 62.1238 218.332 61.7073C218.402 61.2908 218.438 60.7755 218.438 60.1614C218.438 59.5402 218.402 59.0249 218.332 58.6155C218.261 58.1991 218.148 57.8885 217.993 57.6838C217.845 57.472 217.64 57.3661 217.379 57.3661C217.118 57.3661 216.909 57.472 216.754 57.6838C216.599 57.8885 216.489 58.1955 216.426 58.6049C216.362 59.0143 216.331 59.5332 216.331 60.1614ZM223.712 63.9414V56.3814H225.893C226.79 56.3814 227.453 56.5755 227.884 56.9638C228.315 57.352 228.53 57.8955 228.53 58.5943C228.53 59.032 228.438 59.4273 228.255 59.7802C228.071 60.1332 227.782 60.412 227.386 60.6167C226.991 60.8214 226.465 60.9238 225.809 60.9238H225.131V63.9414H223.712ZM222.929 62.692V61.792H226.613V62.692H222.929ZM222.929 60.9238V59.8014H225.618V60.9238H222.929ZM225.65 59.8014C225.946 59.8014 226.2 59.7626 226.412 59.6849C226.624 59.6073 226.79 59.4838 226.91 59.3143C227.03 59.1449 227.09 58.9191 227.09 58.6367C227.09 58.2555 226.988 57.9732 226.783 57.7896C226.578 57.5991 226.26 57.5038 225.83 57.5038H225.131V59.8014H225.65Z" fill="#272727"></path><path d="M14.1172 89.5587C14.1172 83.4673 19.0552 78.5293 25.1466 78.5293H131.205C137.297 78.5293 142.235 83.4673 142.235 89.5587C142.235 95.6501 137.297 100.588 131.205 100.588H25.1466C19.0552 100.588 14.1172 95.6501 14.1172 89.5587Z" fill="#EFA451"></path><path d="M28.3546 89.268C28.3546 89.8539 28.284 90.3868 28.1428 90.8668C28.0017 91.3398 27.7934 91.7492 27.5181 92.0951C27.2428 92.4409 26.9005 92.7057 26.4911 92.8892C26.0817 93.0727 25.6087 93.1645 25.0723 93.1645C24.5146 93.1645 24.0275 93.0727 23.6111 92.8892C23.2017 92.6986 22.8593 92.4339 22.584 92.0951C22.3158 91.7492 22.1146 91.3362 21.9805 90.8562C21.8464 90.3762 21.7793 89.8433 21.7793 89.2574C21.7793 88.4809 21.8993 87.8033 22.1393 87.2245C22.3793 86.6457 22.7428 86.1939 23.2299 85.8692C23.724 85.5445 24.3417 85.3821 25.0828 85.3821C25.7958 85.3821 26.3958 85.5445 26.8828 85.8692C27.3699 86.1868 27.737 86.6386 27.984 87.2245C28.2311 87.8033 28.3546 88.4845 28.3546 89.268ZM22.7746 89.268C22.7746 89.9033 22.8558 90.4504 23.0181 90.9092C23.1805 91.368 23.4311 91.7209 23.7699 91.968C24.1158 92.2151 24.5499 92.3386 25.0723 92.3386C25.6017 92.3386 26.0358 92.2151 26.3746 91.968C26.7134 91.7209 26.9605 91.368 27.1158 90.9092C27.2781 90.4504 27.3593 89.9033 27.3593 89.268C27.3593 88.3151 27.1758 87.5704 26.8087 87.0339C26.4487 86.4904 25.8734 86.2186 25.0828 86.2186C24.5534 86.2186 24.1158 86.3421 23.7699 86.5892C23.4311 86.8292 23.1805 87.1786 23.0181 87.6374C22.8558 88.0892 22.7746 88.6327 22.7746 89.268ZM36.3101 87.3833L34.1183 90.1362L36.4901 93.0586H35.4524L33.1654 90.1786V93.0586H32.3077V90.1786L30.0101 93.0586H28.9724L31.3442 90.1362L29.163 87.3833H30.1583L32.3077 90.1362V87.3833H33.1654V90.1362L35.3148 87.3833H36.3101ZM38.2252 90.8457C38.2252 90.9092 38.2216 91.0009 38.2146 91.1209C38.2146 91.2339 38.211 91.3574 38.204 91.4915C38.1969 91.6186 38.1899 91.7421 38.1828 91.8621C38.1757 91.9751 38.1687 92.0668 38.1616 92.1374L40.9993 87.3833H42.1216V93.0586H41.264V89.7127C41.264 89.5998 41.264 89.4515 41.264 89.268C41.271 89.0845 41.2781 88.9045 41.2852 88.728C41.2922 88.5445 41.2993 88.4068 41.3063 88.3151L38.5005 93.0586H37.3569V87.3833H38.2252V90.8457ZM47.8432 87.3833V92.2751H48.6162V95.028H47.7374V93.0586H44.0315V95.028H43.1527V92.2751H43.5868C43.8903 91.8233 44.1409 91.3327 44.3385 90.8033C44.5362 90.2668 44.6844 89.7092 44.7832 89.1304C44.8891 88.5445 44.9456 87.9621 44.9527 87.3833H47.8432ZM45.768 88.1139C45.7397 88.5939 45.6691 89.0915 45.5562 89.6068C45.4503 90.1151 45.3091 90.6021 45.1327 91.068C44.9632 91.5339 44.7656 91.9362 44.5397 92.2751H46.9432V88.1139H45.768ZM51.6845 87.288C52.3339 87.288 52.8174 87.4398 53.135 87.7433C53.4598 88.0468 53.6221 88.5304 53.6221 89.1939V93.0586H52.955L52.775 92.2539H52.7327C52.5774 92.4586 52.4186 92.6315 52.2562 92.7727C52.1009 92.9068 51.9174 93.0057 51.7056 93.0692C51.5009 93.1327 51.2468 93.1645 50.9433 93.1645C50.6256 93.1645 50.3398 93.1045 50.0856 92.9845C49.8315 92.8645 49.6303 92.6809 49.4821 92.4339C49.3339 92.1798 49.2598 91.8621 49.2598 91.4809C49.2598 90.9162 49.468 90.4821 49.8845 90.1786C50.3009 89.868 50.9433 89.6986 51.8115 89.6704L52.7115 89.6386V89.2998C52.7115 88.8268 52.6162 88.4986 52.4256 88.3151C52.2421 88.1315 51.9774 88.0398 51.6315 88.0398C51.3562 88.0398 51.0915 88.0857 50.8374 88.1774C50.5903 88.2621 50.3539 88.3609 50.128 88.4739L49.8421 87.7751C50.0821 87.6409 50.3609 87.528 50.6786 87.4362C50.9962 87.3374 51.3315 87.288 51.6845 87.288ZM51.9386 90.3162C51.2892 90.3445 50.8374 90.4574 50.5833 90.6551C50.3362 90.8527 50.2127 91.1315 50.2127 91.4915C50.2127 91.8092 50.3009 92.0421 50.4774 92.1904C50.6539 92.3386 50.8833 92.4127 51.1656 92.4127C51.6033 92.4127 51.9703 92.2821 52.2668 92.0209C52.5633 91.7527 52.7115 91.3433 52.7115 90.7927V90.2845L51.9386 90.3162ZM57.3412 87.2774C57.8 87.2774 58.1953 87.3833 58.5271 87.5951C58.8589 87.8068 59.113 88.1068 59.2895 88.4951C59.473 88.8762 59.5648 89.3245 59.5648 89.8398V90.4009H55.9224C55.9365 91.0433 56.0883 91.5339 56.3777 91.8727C56.6671 92.2045 57.073 92.3704 57.5953 92.3704C57.9342 92.3704 58.2342 92.3386 58.4953 92.2751C58.7636 92.2045 59.0389 92.1057 59.3212 91.9786V92.7939C59.0459 92.9209 58.7742 93.0127 58.5059 93.0692C58.2448 93.1327 57.9271 93.1645 57.553 93.1645C57.0448 93.1645 56.5965 93.0551 56.2083 92.8362C55.82 92.6174 55.5165 92.2927 55.2977 91.8621C55.0789 91.4245 54.9695 90.8915 54.9695 90.2633C54.9695 89.6421 55.0683 89.1092 55.2659 88.6645C55.4636 88.2198 55.7389 87.8774 56.0918 87.6374C56.4518 87.3974 56.8683 87.2774 57.3412 87.2774ZM57.3412 88.0398C56.9318 88.0398 56.6071 88.1845 56.3671 88.4739C56.1271 88.7562 55.9859 89.1515 55.9436 89.6598H58.6118C58.6118 89.3351 58.5659 89.0527 58.4742 88.8127C58.3824 88.5727 58.2412 88.3857 58.0506 88.2515C57.8671 88.1104 57.6306 88.0398 57.3412 88.0398ZM64.6495 88.1668H62.9024V93.0586H61.9919V88.1668H60.266V87.3833H64.6495V88.1668ZM70.4335 93.1645C69.9535 93.1645 69.53 93.0621 69.1629 92.8574C68.7958 92.6527 68.5064 92.3351 68.2947 91.9045C68.09 91.4739 67.9876 90.9233 67.9876 90.2527C67.9876 89.5539 68.097 88.9857 68.3158 88.548C68.5347 88.1104 68.8311 87.7892 69.2053 87.5845C69.5864 87.3798 70.017 87.2774 70.497 87.2774C70.7723 87.2774 71.037 87.3092 71.2911 87.3727C71.5523 87.4292 71.7641 87.4998 71.9264 87.5845L71.6406 88.3574C71.4782 88.2939 71.2876 88.2339 71.0688 88.1774C70.857 88.1209 70.6594 88.0927 70.4758 88.0927C70.13 88.0927 69.8441 88.1739 69.6182 88.3362C69.3923 88.4986 69.2229 88.7386 69.11 89.0562C68.997 89.3739 68.9406 89.7692 68.9406 90.2421C68.9406 90.6939 68.997 91.0786 69.11 91.3962C69.2229 91.7139 69.3888 91.9539 69.6076 92.1162C69.8335 92.2786 70.1088 92.3598 70.4335 92.3598C70.7229 92.3598 70.9806 92.328 71.2064 92.2645C71.4323 92.2009 71.6406 92.1233 71.8311 92.0315V92.8574C71.6476 92.9562 71.4464 93.0304 71.2276 93.0798C71.0088 93.1362 70.7441 93.1645 70.4335 93.1645ZM77.7616 90.2104C77.7616 90.6833 77.7016 91.1033 77.5816 91.4704C77.4687 91.8304 77.3028 92.1374 77.084 92.3915C76.8652 92.6457 76.6005 92.8398 76.2899 92.9739C75.9793 93.1009 75.6334 93.1645 75.2522 93.1645C74.8993 93.1645 74.571 93.1009 74.2675 92.9739C73.971 92.8398 73.7099 92.6457 73.484 92.3915C73.2652 92.1374 73.0957 91.8304 72.9757 91.4704C72.8557 91.1033 72.7957 90.6833 72.7957 90.2104C72.7957 89.5821 72.8946 89.0527 73.0922 88.6221C73.2969 88.1845 73.5863 87.8527 73.9605 87.6268C74.3346 87.3939 74.7757 87.2774 75.284 87.2774C75.771 87.2774 76.1981 87.3939 76.5652 87.6268C76.9393 87.8527 77.2322 88.1845 77.444 88.6221C77.6557 89.0527 77.7616 89.5821 77.7616 90.2104ZM73.7487 90.2104C73.7487 90.6551 73.8016 91.0433 73.9075 91.3751C74.0134 91.6998 74.1793 91.9504 74.4052 92.1268C74.631 92.3033 74.9205 92.3915 75.2734 92.3915C75.6263 92.3915 75.9157 92.3033 76.1416 92.1268C76.3675 91.9504 76.5334 91.6998 76.6393 91.3751C76.7522 91.0433 76.8087 90.6551 76.8087 90.2104C76.8087 89.7586 76.7522 89.3739 76.6393 89.0562C76.5334 88.7386 76.3675 88.4951 76.1416 88.3257C75.9157 88.1492 75.6228 88.0609 75.2628 88.0609C74.7334 88.0609 74.3487 88.2515 74.1087 88.6327C73.8687 89.0139 73.7487 89.5398 73.7487 90.2104ZM82.4238 87.3833V88.1668H80.052V93.0586H79.1308V87.3833H82.4238ZM87.3032 93.0586H86.3714V88.1562H84.815C84.7514 89.0527 84.6667 89.8186 84.5608 90.4539C84.462 91.0821 84.335 91.5939 84.1797 91.9892C84.0314 92.3845 83.8514 92.6739 83.6397 92.8574C83.4279 93.0409 83.1773 93.1327 82.8879 93.1327C82.7961 93.1327 82.7044 93.1257 82.6126 93.1115C82.5279 93.1045 82.4573 93.0868 82.4008 93.0586V92.3598C82.4432 92.3739 82.4891 92.3845 82.5385 92.3915C82.5879 92.3986 82.6373 92.4021 82.6867 92.4021C82.8279 92.4021 82.955 92.3386 83.0679 92.2115C83.1879 92.0845 83.2938 91.8904 83.3856 91.6292C83.4844 91.368 83.5726 91.0398 83.6503 90.6445C83.7279 90.2421 83.795 89.7692 83.8514 89.2257C83.915 88.6821 83.9714 88.068 84.0208 87.3833H87.3032V93.0586ZM91.0181 87.288C91.6675 87.288 92.151 87.4398 92.4687 87.7433C92.7934 88.0468 92.9557 88.5304 92.9557 89.1939V93.0586H92.2887L92.1087 92.2539H92.0663C91.911 92.4586 91.7522 92.6315 91.5899 92.7727C91.4346 92.9068 91.251 93.0057 91.0393 93.0692C90.8346 93.1327 90.5805 93.1645 90.2769 93.1645C89.9593 93.1645 89.6734 93.1045 89.4193 92.9845C89.1652 92.8645 88.964 92.6809 88.8157 92.4339C88.6675 92.1798 88.5934 91.8621 88.5934 91.4809C88.5934 90.9162 88.8016 90.4821 89.2181 90.1786C89.6346 89.868 90.2769 89.6986 91.1452 89.6704L92.0452 89.6386V89.2998C92.0452 88.8268 91.9499 88.4986 91.7593 88.3151C91.5757 88.1315 91.311 88.0398 90.9652 88.0398C90.6899 88.0398 90.4252 88.0857 90.171 88.1774C89.924 88.2621 89.6875 88.3609 89.4616 88.4739L89.1757 87.7751C89.4157 87.6409 89.6946 87.528 90.0122 87.4362C90.3299 87.3374 90.6652 87.288 91.0181 87.288ZM91.2722 90.3162C90.6228 90.3445 90.171 90.4574 89.9169 90.6551C89.6699 90.8527 89.5463 91.1315 89.5463 91.4915C89.5463 91.8092 89.6346 92.0421 89.811 92.1904C89.9875 92.3386 90.2169 92.4127 90.4993 92.4127C90.9369 92.4127 91.304 92.2821 91.6005 92.0209C91.8969 91.7527 92.0452 91.3433 92.0452 90.7927V90.2845L91.2722 90.3162ZM96.749 93.1645C96.269 93.1645 95.8455 93.0621 95.4784 92.8574C95.1113 92.6527 94.8219 92.3351 94.6102 91.9045C94.4055 91.4739 94.3031 90.9233 94.3031 90.2527C94.3031 89.5539 94.4125 88.9857 94.6313 88.548C94.8502 88.1104 95.1466 87.7892 95.5207 87.5845C95.9019 87.3798 96.3325 87.2774 96.8125 87.2774C97.0878 87.2774 97.3525 87.3092 97.6066 87.3727C97.8678 87.4292 98.0796 87.4998 98.2419 87.5845L97.956 88.3574C97.7937 88.2939 97.6031 88.2339 97.3843 88.1774C97.1725 88.1209 96.9749 88.0927 96.7913 88.0927C96.4455 88.0927 96.1596 88.1739 95.9337 88.3362C95.7078 88.4986 95.5384 88.7386 95.4255 89.0562C95.3125 89.3739 95.256 89.7692 95.256 90.2421C95.256 90.6939 95.3125 91.0786 95.4255 91.3962C95.5384 91.7139 95.7043 91.9539 95.9231 92.1162C96.149 92.2786 96.4243 92.3598 96.749 92.3598C97.0384 92.3598 97.296 92.328 97.5219 92.2645C97.7478 92.2009 97.956 92.1233 98.1466 92.0315V92.8574C97.9631 92.9562 97.7619 93.0304 97.5431 93.0798C97.3243 93.1362 97.0596 93.1645 96.749 93.1645ZM104.077 90.2104C104.077 90.6833 104.017 91.1033 103.897 91.4704C103.784 91.8304 103.618 92.1374 103.399 92.3915C103.181 92.6457 102.916 92.8398 102.605 92.9739C102.295 93.1009 101.949 93.1645 101.568 93.1645C101.215 93.1645 100.887 93.1009 100.583 92.9739C100.287 92.8398 100.025 92.6457 99.7995 92.3915C99.5806 92.1374 99.4112 91.8304 99.2912 91.4704C99.1712 91.1033 99.1112 90.6833 99.1112 90.2104C99.1112 89.5821 99.2101 89.0527 99.4077 88.6221C99.6124 88.1845 99.9018 87.8527 100.276 87.6268C100.65 87.3939 101.091 87.2774 101.599 87.2774C102.087 87.2774 102.514 87.3939 102.881 87.6268C103.255 87.8527 103.548 88.1845 103.759 88.6221C103.971 89.0527 104.077 89.5821 104.077 90.2104ZM100.064 90.2104C100.064 90.6551 100.117 91.0433 100.223 91.3751C100.329 91.6998 100.495 91.9504 100.721 92.1268C100.947 92.3033 101.236 92.3915 101.589 92.3915C101.942 92.3915 102.231 92.3033 102.457 92.1268C102.683 91.9504 102.849 91.6998 102.955 91.3751C103.068 91.0433 103.124 90.6551 103.124 90.2104C103.124 89.7586 103.068 89.3739 102.955 89.0562C102.849 88.7386 102.683 88.4951 102.457 88.3257C102.231 88.1492 101.938 88.0609 101.578 88.0609C101.049 88.0609 100.664 88.2515 100.424 88.6327C100.184 89.0139 100.064 89.5398 100.064 90.2104ZM109.777 88.8127C109.777 89.1657 109.678 89.4409 109.48 89.6386C109.283 89.8362 109.025 89.9704 108.707 90.0409V90.0833C109.039 90.1327 109.329 90.2598 109.576 90.4645C109.823 90.6621 109.946 90.9727 109.946 91.3962C109.946 91.6362 109.904 91.8586 109.819 92.0633C109.742 92.268 109.615 92.4445 109.438 92.5927C109.262 92.7409 109.036 92.8574 108.76 92.9421C108.485 93.0198 108.153 93.0586 107.765 93.0586H105.446V87.3833H107.755C108.143 87.3833 108.489 87.4292 108.792 87.5209C109.096 87.6057 109.336 87.7539 109.512 87.9657C109.689 88.1704 109.777 88.4527 109.777 88.8127ZM108.993 91.3962C108.993 91.0715 108.877 90.8386 108.644 90.6974C108.418 90.5562 108.086 90.4857 107.649 90.4857H106.367V92.3068H107.67C108.093 92.3068 108.418 92.2398 108.644 92.1057C108.877 91.9645 108.993 91.728 108.993 91.3962ZM108.845 88.9292C108.845 88.6609 108.753 88.4668 108.57 88.3468C108.393 88.2198 108.107 88.1562 107.712 88.1562H106.367V89.7127H107.543C107.973 89.7127 108.298 89.6492 108.517 89.5221C108.736 89.3951 108.845 89.1974 108.845 88.9292ZM113.26 87.288C113.909 87.288 114.393 87.4398 114.71 87.7433C115.035 88.0468 115.197 88.5304 115.197 89.1939V93.0586H114.53L114.35 92.2539H114.308C114.153 92.4586 113.994 92.6315 113.831 92.7727C113.676 92.9068 113.493 93.0057 113.281 93.0692C113.076 93.1327 112.822 93.1645 112.518 93.1645C112.201 93.1645 111.915 93.1045 111.661 92.9845C111.407 92.8645 111.205 92.6809 111.057 92.4339C110.909 92.1798 110.835 91.8621 110.835 91.4809C110.835 90.9162 111.043 90.4821 111.46 90.1786C111.876 89.868 112.518 89.6986 113.387 89.6704L114.287 89.6386V89.2998C114.287 88.8268 114.191 88.4986 114.001 88.3151C113.817 88.1315 113.553 88.0398 113.207 88.0398C112.931 88.0398 112.667 88.0857 112.413 88.1774C112.165 88.2621 111.929 88.3609 111.703 88.4739L111.417 87.7751C111.657 87.6409 111.936 87.528 112.254 87.4362C112.571 87.3374 112.907 87.288 113.26 87.288ZM113.514 90.3162C112.864 90.3445 112.413 90.4574 112.158 90.6551C111.911 90.8527 111.788 91.1315 111.788 91.4915C111.788 91.8092 111.876 92.0421 112.053 92.1904C112.229 92.3386 112.458 92.4127 112.741 92.4127C113.178 92.4127 113.545 92.2821 113.842 92.0209C114.138 91.7527 114.287 91.3433 114.287 90.7927V90.2845L113.514 90.3162ZM117.762 87.3833V89.7445H120.6V87.3833H121.521V93.0586H120.6V90.528H117.762V93.0586H116.841V87.3833H117.762ZM124.058 90.8457C124.058 90.9092 124.055 91.0009 124.048 91.1209C124.048 91.2339 124.044 91.3574 124.037 91.4915C124.03 91.6186 124.023 91.7421 124.016 91.8621C124.009 91.9751 124.002 92.0668 123.995 92.1374L126.832 87.3833H127.955V93.0586H127.097V89.7127C127.097 89.5998 127.097 89.4515 127.097 89.268C127.104 89.0845 127.111 88.9045 127.118 88.728C127.125 88.5445 127.132 88.4068 127.139 88.3151L124.333 93.0586H123.19V87.3833H124.058V90.8457ZM130.013 93.0586H128.954L130.468 90.6762C130.263 90.6198 130.066 90.5315 129.875 90.4115C129.691 90.2845 129.54 90.1115 129.42 89.8927C129.3 89.6668 129.24 89.388 129.24 89.0562C129.24 88.5127 129.413 88.0998 129.759 87.8174C130.111 87.528 130.577 87.3833 131.156 87.3833H133.56V93.0586H132.639V90.8033H131.379L130.013 93.0586ZM130.14 89.0668C130.14 89.3915 130.249 89.6351 130.468 89.7974C130.694 89.9527 131.008 90.0304 131.41 90.0304H132.639V88.1562H131.241C130.846 88.1562 130.563 88.2409 130.394 88.4104C130.224 88.5798 130.14 88.7986 130.14 89.0668Z" fill="white"></path></g><rect width="302.647" height="80.3529" transform="translate(0 113.823)" fill="white"></rect><rect x="0.441176" y="114.264" width="301.765" height="79.4706" fill="white"></rect><rect x="0.441176" y="114.264" width="301.765" height="79.4706" stroke="#EFEFEF" stroke-width="0.882353"></rect><path d="M25.1465 128.382H76.2051C82.0528 128.382 86.7939 133.122 86.7939 138.97C86.7939 144.817 82.0528 149.558 76.2051 149.558H25.1465C19.2988 149.558 14.5586 144.817 14.5586 138.97C14.5587 133.122 19.2989 128.382 25.1465 128.382Z" stroke="#DDDDDD" stroke-width="0.882353"></path><path d="M22.1499 134.91H23.0287V139.06C23.0287 139.237 23.0252 139.431 23.0181 139.643C23.0181 139.847 23.0146 140.052 23.0075 140.257C23.0005 140.461 22.9899 140.645 22.9758 140.807C22.9687 140.963 22.9617 141.083 22.9546 141.167H22.997L26.8617 134.91H27.9205V142.47H27.0417V138.361C27.0417 138.171 27.0452 137.966 27.0523 137.747C27.0593 137.521 27.0664 137.306 27.0734 137.101C27.0805 136.89 27.0875 136.703 27.0946 136.54C27.1087 136.378 27.1158 136.258 27.1158 136.18H27.084L23.2087 142.47H22.1499V134.91ZM34.0359 138.224C34.0359 138.577 33.937 138.852 33.7394 139.05C33.5417 139.247 33.2841 139.381 32.9664 139.452V139.494C33.2982 139.544 33.5876 139.671 33.8347 139.876C34.0817 140.073 34.2053 140.384 34.2053 140.807C34.2053 141.047 34.1629 141.27 34.0782 141.474C34.0006 141.679 33.8735 141.856 33.697 142.004C33.5206 142.152 33.2947 142.269 33.0194 142.353C32.7441 142.431 32.4123 142.47 32.0241 142.47H29.7053V136.794H32.0135C32.4017 136.794 32.7476 136.84 33.0511 136.932C33.3547 137.017 33.5947 137.165 33.7711 137.377C33.9476 137.581 34.0359 137.864 34.0359 138.224ZM33.2523 140.807C33.2523 140.483 33.1359 140.25 32.9029 140.109C32.677 139.967 32.3453 139.897 31.9076 139.897H30.6264V141.718H31.9288C32.3523 141.718 32.677 141.651 32.9029 141.517C33.1359 141.376 33.2523 141.139 33.2523 140.807ZM33.1041 138.34C33.1041 138.072 33.0123 137.878 32.8288 137.758C32.6523 137.631 32.3664 137.567 31.9711 137.567H30.6264V139.124H31.8017C32.2323 139.124 32.557 139.06 32.7759 138.933C32.9947 138.806 33.1041 138.609 33.1041 138.34ZM37.5186 136.699C38.168 136.699 38.6515 136.851 38.9691 137.154C39.2939 137.458 39.4562 137.941 39.4562 138.605V142.47H38.7891L38.6091 141.665H38.5668C38.4115 141.87 38.2527 142.043 38.0903 142.184C37.935 142.318 37.7515 142.417 37.5397 142.48C37.335 142.544 37.0809 142.576 36.7774 142.576C36.4597 142.576 36.1739 142.516 35.9197 142.396C35.6656 142.276 35.4644 142.092 35.3162 141.845C35.168 141.591 35.0939 141.273 35.0939 140.892C35.0939 140.327 35.3021 139.893 35.7186 139.59C36.135 139.279 36.7774 139.11 37.6456 139.081L38.5456 139.05V138.711C38.5456 138.238 38.4503 137.91 38.2597 137.726C38.0762 137.543 37.8115 137.451 37.4656 137.451C37.1903 137.451 36.9256 137.497 36.6715 137.589C36.4244 137.673 36.188 137.772 35.9621 137.885L35.6762 137.186C35.9162 137.052 36.195 136.939 36.5127 136.847C36.8303 136.749 37.1656 136.699 37.5186 136.699ZM37.7727 139.727C37.1233 139.756 36.6715 139.869 36.4174 140.066C36.1703 140.264 36.0468 140.543 36.0468 140.903C36.0468 141.22 36.135 141.453 36.3115 141.601C36.488 141.75 36.7174 141.824 36.9997 141.824C37.4374 141.824 37.8044 141.693 38.1009 141.432C38.3974 141.164 38.5456 140.754 38.5456 140.204V139.696L37.7727 139.727ZM42.0212 136.794V139.156H44.8589V136.794H45.78V142.47H44.8589V139.939H42.0212V142.47H41.1V136.794H42.0212ZM52.1182 139.621C52.1182 140.094 52.0582 140.514 51.9382 140.881C51.8253 141.241 51.6594 141.549 51.4406 141.803C51.2218 142.057 50.9571 142.251 50.6465 142.385C50.3359 142.512 49.99 142.576 49.6088 142.576C49.2559 142.576 48.9277 142.512 48.6241 142.385C48.3277 142.251 48.0665 142.057 47.8406 141.803C47.6218 141.549 47.4524 141.241 47.3324 140.881C47.2124 140.514 47.1524 140.094 47.1524 139.621C47.1524 138.993 47.2512 138.464 47.4488 138.033C47.6535 137.596 47.943 137.264 48.3171 137.038C48.6912 136.805 49.1324 136.689 49.6406 136.689C50.1277 136.689 50.5547 136.805 50.9218 137.038C51.2959 137.264 51.5888 137.596 51.8006 138.033C52.0124 138.464 52.1182 138.993 52.1182 139.621ZM48.1053 139.621C48.1053 140.066 48.1582 140.454 48.2641 140.786C48.37 141.111 48.5359 141.361 48.7618 141.538C48.9877 141.714 49.2771 141.803 49.63 141.803C49.983 141.803 50.2724 141.714 50.4982 141.538C50.7241 141.361 50.89 141.111 50.9959 140.786C51.1088 140.454 51.1653 140.066 51.1653 139.621C51.1653 139.17 51.1088 138.785 50.9959 138.467C50.89 138.15 50.7241 137.906 50.4982 137.737C50.2724 137.56 49.9794 137.472 49.6194 137.472C49.09 137.472 48.7053 137.663 48.4653 138.044C48.2253 138.425 48.1053 138.951 48.1053 139.621ZM57.818 138.224C57.818 138.577 57.7192 138.852 57.5216 139.05C57.3239 139.247 57.0663 139.381 56.7486 139.452V139.494C57.0804 139.544 57.3698 139.671 57.6168 139.876C57.8639 140.073 57.9874 140.384 57.9874 140.807C57.9874 141.047 57.9451 141.27 57.8604 141.474C57.7827 141.679 57.6557 141.856 57.4792 142.004C57.3027 142.152 57.0768 142.269 56.8016 142.353C56.5263 142.431 56.1945 142.47 55.8063 142.47H53.4874V136.794H55.7957C56.1839 136.794 56.5298 136.84 56.8333 136.932C57.1368 137.017 57.3768 137.165 57.5533 137.377C57.7298 137.581 57.818 137.864 57.818 138.224ZM57.0345 140.807C57.0345 140.483 56.918 140.25 56.6851 140.109C56.4592 139.967 56.1274 139.897 55.6898 139.897H54.4086V141.718H55.711C56.1345 141.718 56.4592 141.651 56.6851 141.517C56.918 141.376 57.0345 141.139 57.0345 140.807ZM56.8863 138.34C56.8863 138.072 56.7945 137.878 56.611 137.758C56.4345 137.631 56.1486 137.567 55.7533 137.567H54.4086V139.124H55.5839C56.0145 139.124 56.3392 139.06 56.558 138.933C56.7768 138.806 56.8863 138.609 56.8863 138.34ZM65.4952 134.804V135.736C66.2646 135.75 66.8716 135.884 67.3163 136.138C67.761 136.392 68.0752 136.731 68.2587 137.154C68.4493 137.571 68.5446 138.037 68.5446 138.552C68.5446 138.891 68.4952 139.23 68.3963 139.569C68.2975 139.9 68.1316 140.204 67.8987 140.479C67.6728 140.747 67.3622 140.966 66.9669 141.136C66.5787 141.305 66.0881 141.397 65.4952 141.411V142.576H64.5634V141.411C63.9634 141.397 63.4657 141.305 63.0705 141.136C62.6752 140.959 62.361 140.733 62.1281 140.458C61.9022 140.176 61.7434 139.869 61.6516 139.537C61.5599 139.205 61.514 138.877 61.514 138.552C61.514 138.178 61.5669 137.825 61.6728 137.493C61.7787 137.154 61.9481 136.858 62.181 136.604C62.414 136.343 62.7246 136.134 63.1128 135.979C63.5081 135.824 63.9916 135.743 64.5634 135.736V134.804H65.4952ZM64.5634 136.54C64.041 136.554 63.6246 136.646 63.314 136.816C63.0034 136.985 62.781 137.218 62.6469 137.514C62.5199 137.804 62.4563 138.146 62.4563 138.541C62.4563 138.958 62.5305 139.321 62.6787 139.632C62.8269 139.936 63.0563 140.172 63.3669 140.341C63.6775 140.511 64.0763 140.606 64.5634 140.627V136.54ZM65.4952 140.627C65.9963 140.606 66.4022 140.507 66.7128 140.331C67.0234 140.154 67.2493 139.914 67.3905 139.611C67.5316 139.3 67.6022 138.944 67.6022 138.541C67.6022 138.139 67.5352 137.793 67.401 137.504C67.274 137.207 67.0552 136.978 66.7446 136.816C66.441 136.646 66.0246 136.554 65.4952 136.54V140.627ZM69.3358 141.898C69.3358 141.637 69.3958 141.453 69.5158 141.347C69.6358 141.241 69.784 141.189 69.9605 141.189C70.137 141.189 70.2887 141.241 70.4158 141.347C70.5429 141.453 70.6064 141.637 70.6064 141.898C70.6064 142.152 70.5429 142.336 70.4158 142.449C70.2887 142.561 70.137 142.618 69.9605 142.618C69.784 142.618 69.6358 142.561 69.5158 142.449C69.3958 142.336 69.3358 142.152 69.3358 141.898ZM76.2595 142.47H72.2783V134.91H76.2595V135.746H73.2207V138.107H76.0795V138.933H73.2207V141.633H76.2595V142.47ZM77.5665 141.898C77.5665 141.637 77.6265 141.453 77.7465 141.347C77.8665 141.241 78.0147 141.189 78.1912 141.189C78.3677 141.189 78.5194 141.241 78.6465 141.347C78.7736 141.453 78.8371 141.637 78.8371 141.898C78.8371 142.152 78.7736 142.336 78.6465 142.449C78.5194 142.561 78.3677 142.618 78.1912 142.618C78.0147 142.618 77.8665 142.561 77.7465 142.449C77.6265 142.336 77.5665 142.152 77.5665 141.898Z" fill="#272727"></path><path d="M105.322 128.382H211.381C217.229 128.382 221.97 133.122 221.97 138.97C221.97 144.817 217.229 149.558 211.381 149.558H105.322C99.4746 149.558 94.7344 144.817 94.7344 138.97C94.7344 133.122 99.4746 128.382 105.322 128.382Z" stroke="#DDDDDD" stroke-width="0.882353"></path><path d="M107.546 142.47H106.423L103.257 138.637V142.47H102.315V134.91H103.257V138.573L106.349 134.91H107.408L104.359 138.584L107.546 142.47ZM113.051 139.621C113.051 140.094 112.991 140.514 112.871 140.881C112.758 141.241 112.592 141.549 112.374 141.803C112.155 142.057 111.89 142.251 111.579 142.385C111.269 142.512 110.923 142.576 110.542 142.576C110.189 142.576 109.861 142.512 109.557 142.385C109.261 142.251 108.999 142.057 108.774 141.803C108.555 141.549 108.385 141.241 108.265 140.881C108.145 140.514 108.085 140.094 108.085 139.621C108.085 138.993 108.184 138.464 108.382 138.033C108.586 137.596 108.876 137.264 109.25 137.038C109.624 136.805 110.065 136.689 110.574 136.689C111.061 136.689 111.488 136.805 111.855 137.038C112.229 137.264 112.522 137.596 112.734 138.033C112.945 138.464 113.051 138.993 113.051 139.621ZM109.038 139.621C109.038 140.066 109.091 140.454 109.197 140.786C109.303 141.111 109.469 141.361 109.695 141.538C109.921 141.714 110.21 141.803 110.563 141.803C110.916 141.803 111.205 141.714 111.431 141.538C111.657 141.361 111.823 141.111 111.929 140.786C112.042 140.454 112.098 140.066 112.098 139.621C112.098 139.17 112.042 138.785 111.929 138.467C111.823 138.15 111.657 137.906 111.431 137.737C111.205 137.56 110.912 137.472 110.552 137.472C110.023 137.472 109.638 137.663 109.398 138.044C109.158 138.425 109.038 138.951 109.038 139.621ZM115.342 136.794V139.156H118.179V136.794H119.1V142.47H118.179V139.939H115.342V142.47H114.42V136.794H115.342ZM122.919 142.576C122.439 142.576 122.015 142.473 121.648 142.269C121.281 142.064 120.991 141.746 120.78 141.316C120.575 140.885 120.473 140.334 120.473 139.664C120.473 138.965 120.582 138.397 120.801 137.959C121.02 137.521 121.316 137.2 121.69 136.996C122.072 136.791 122.502 136.689 122.982 136.689C123.257 136.689 123.522 136.72 123.776 136.784C124.037 136.84 124.249 136.911 124.412 136.996L124.126 137.769C123.963 137.705 123.773 137.645 123.554 137.589C123.342 137.532 123.144 137.504 122.961 137.504C122.615 137.504 122.329 137.585 122.103 137.747C121.877 137.91 121.708 138.15 121.595 138.467C121.482 138.785 121.426 139.18 121.426 139.653C121.426 140.105 121.482 140.49 121.595 140.807C121.708 141.125 121.874 141.365 122.093 141.527C122.319 141.69 122.594 141.771 122.919 141.771C123.208 141.771 123.466 141.739 123.692 141.676C123.917 141.612 124.126 141.534 124.316 141.443V142.269C124.133 142.367 123.932 142.441 123.713 142.491C123.494 142.547 123.229 142.576 122.919 142.576ZM129.326 137.578H127.578V142.47H126.668V137.578H124.942V136.794H129.326V137.578ZM132.419 136.699C133.068 136.699 133.552 136.851 133.869 137.154C134.194 137.458 134.356 137.941 134.356 138.605V142.47H133.689L133.509 141.665H133.467C133.312 141.87 133.153 142.043 132.99 142.184C132.835 142.318 132.652 142.417 132.44 142.48C132.235 142.544 131.981 142.576 131.677 142.576C131.36 142.576 131.074 142.516 130.82 142.396C130.566 142.276 130.364 142.092 130.216 141.845C130.068 141.591 129.994 141.273 129.994 140.892C129.994 140.327 130.202 139.893 130.619 139.59C131.035 139.279 131.677 139.11 132.546 139.081L133.446 139.05V138.711C133.446 138.238 133.35 137.91 133.16 137.726C132.976 137.543 132.712 137.451 132.366 137.451C132.09 137.451 131.826 137.497 131.572 137.589C131.324 137.673 131.088 137.772 130.862 137.885L130.576 137.186C130.816 137.052 131.095 136.939 131.413 136.847C131.73 136.749 132.066 136.699 132.419 136.699ZM132.673 139.727C132.023 139.756 131.572 139.869 131.317 140.066C131.07 140.264 130.947 140.543 130.947 140.903C130.947 141.22 131.035 141.453 131.212 141.601C131.388 141.75 131.617 141.824 131.9 141.824C132.337 141.824 132.704 141.693 133.001 141.432C133.297 141.164 133.446 140.754 133.446 140.204V139.696L132.673 139.727ZM136.921 136.794V139.156H139.759V136.794H140.68V142.47H139.759V139.939H136.921V142.47H136V136.794H136.921ZM146.097 137.578H144.35V142.47H143.439V137.578H141.714V136.794H146.097V137.578ZM148.015 140.257C148.015 140.32 148.011 140.412 148.004 140.532C148.004 140.645 148.001 140.769 147.994 140.903C147.987 141.03 147.98 141.153 147.973 141.273C147.965 141.386 147.958 141.478 147.951 141.549L150.789 136.794H151.911V142.47H151.054V139.124C151.054 139.011 151.054 138.863 151.054 138.679C151.061 138.496 151.068 138.316 151.075 138.139C151.082 137.956 151.089 137.818 151.096 137.726L148.29 142.47H147.147V136.794H148.015V140.257ZM154.52 136.794V139.156H157.358V136.794H158.279V142.47H157.358V139.939H154.52V142.47H153.599V136.794H154.52ZM164.617 139.621C164.617 140.094 164.557 140.514 164.437 140.881C164.324 141.241 164.158 141.549 163.939 141.803C163.721 142.057 163.456 142.251 163.145 142.385C162.835 142.512 162.489 142.576 162.108 142.576C161.755 142.576 161.427 142.512 161.123 142.385C160.827 142.251 160.565 142.057 160.339 141.803C160.121 141.549 159.951 141.241 159.831 140.881C159.711 140.514 159.651 140.094 159.651 139.621C159.651 138.993 159.75 138.464 159.948 138.033C160.152 137.596 160.442 137.264 160.816 137.038C161.19 136.805 161.631 136.689 162.139 136.689C162.627 136.689 163.054 136.805 163.421 137.038C163.795 137.264 164.088 137.596 164.299 138.033C164.511 138.464 164.617 138.993 164.617 139.621ZM160.604 139.621C160.604 140.066 160.657 140.454 160.763 140.786C160.869 141.111 161.035 141.361 161.261 141.538C161.487 141.714 161.776 141.803 162.129 141.803C162.482 141.803 162.771 141.714 162.997 141.538C163.223 141.361 163.389 141.111 163.495 140.786C163.608 140.454 163.664 140.066 163.664 139.621C163.664 139.17 163.608 138.785 163.495 138.467C163.389 138.15 163.223 137.906 162.997 137.737C162.771 137.56 162.478 137.472 162.118 137.472C161.589 137.472 161.204 137.663 160.964 138.044C160.724 138.425 160.604 138.951 160.604 139.621ZM170.317 138.224C170.317 138.577 170.218 138.852 170.02 139.05C169.823 139.247 169.565 139.381 169.247 139.452V139.494C169.579 139.544 169.869 139.671 170.116 139.876C170.363 140.073 170.486 140.384 170.486 140.807C170.486 141.047 170.444 141.27 170.359 141.474C170.282 141.679 170.155 141.856 169.978 142.004C169.802 142.152 169.576 142.269 169.3 142.353C169.025 142.431 168.693 142.47 168.305 142.47H165.986V136.794H168.295C168.683 136.794 169.029 136.84 169.332 136.932C169.636 137.017 169.876 137.165 170.052 137.377C170.229 137.581 170.317 137.864 170.317 138.224ZM169.533 140.807C169.533 140.483 169.417 140.25 169.184 140.109C168.958 139.967 168.626 139.897 168.189 139.897H166.907V141.718H168.21C168.633 141.718 168.958 141.651 169.184 141.517C169.417 141.376 169.533 141.139 169.533 140.807ZM169.385 138.34C169.385 138.072 169.293 137.878 169.11 137.758C168.933 137.631 168.647 137.567 168.252 137.567H166.907V139.124H168.083C168.513 139.124 168.838 139.06 169.057 138.933C169.276 138.806 169.385 138.609 169.385 138.34ZM173.905 142.576C173.425 142.576 173.002 142.473 172.635 142.269C172.268 142.064 171.978 141.746 171.767 141.316C171.562 140.885 171.46 140.334 171.46 139.664C171.46 138.965 171.569 138.397 171.788 137.959C172.007 137.521 172.303 137.2 172.677 136.996C173.058 136.791 173.489 136.689 173.969 136.689C174.244 136.689 174.509 136.72 174.763 136.784C175.024 136.84 175.236 136.911 175.398 136.996L175.113 137.769C174.95 137.705 174.76 137.645 174.541 137.589C174.329 137.532 174.131 137.504 173.948 137.504C173.602 137.504 173.316 137.585 173.09 137.747C172.864 137.91 172.695 138.15 172.582 138.467C172.469 138.785 172.413 139.18 172.413 139.653C172.413 140.105 172.469 140.49 172.582 140.807C172.695 141.125 172.861 141.365 173.08 141.527C173.305 141.69 173.581 141.771 173.905 141.771C174.195 141.771 174.453 141.739 174.678 141.676C174.904 141.612 175.113 141.534 175.303 141.443V142.269C175.12 142.367 174.918 142.441 174.7 142.491C174.481 142.547 174.216 142.576 173.905 142.576ZM179.751 136.794H180.757L178.491 139.526L180.948 142.47H179.878L177.485 139.59V142.47H176.564V136.794H177.485V139.547L179.751 136.794ZM182.758 140.257C182.758 140.32 182.754 140.412 182.747 140.532C182.747 140.645 182.743 140.769 182.736 140.903C182.729 141.03 182.722 141.153 182.715 141.273C182.708 141.386 182.701 141.478 182.694 141.549L185.532 136.794H186.654V142.47H185.796V139.124C185.796 139.011 185.796 138.863 185.796 138.679C185.803 138.496 185.811 138.316 185.818 138.139C185.825 137.956 185.832 137.818 185.839 137.726L183.033 142.47H181.889V136.794H182.758V140.257ZM192.725 134.444C192.697 134.797 192.612 135.093 192.471 135.333C192.337 135.573 192.132 135.753 191.857 135.873C191.589 135.993 191.239 136.053 190.809 136.053C190.364 136.053 190.007 135.993 189.739 135.873C189.478 135.753 189.284 135.577 189.157 135.344C189.037 135.104 188.963 134.804 188.934 134.444H189.792C189.827 134.825 189.923 135.083 190.078 135.217C190.233 135.344 190.48 135.407 190.819 135.407C191.13 135.407 191.373 135.34 191.55 135.206C191.726 135.065 191.829 134.811 191.857 134.444H192.725ZM189.21 140.257C189.21 140.32 189.206 140.412 189.199 140.532C189.199 140.645 189.196 140.769 189.189 140.903C189.182 141.03 189.174 141.153 189.167 141.273C189.16 141.386 189.153 141.478 189.146 141.549L191.984 136.794H193.106V142.47H192.249V139.124C192.249 139.011 192.249 138.863 192.249 138.679C192.256 138.496 192.263 138.316 192.27 138.139C192.277 137.956 192.284 137.818 192.291 137.726L189.485 142.47H188.342V136.794H189.21V140.257ZM202.736 142.47H201.614L198.448 138.637V142.47H197.506V134.91H198.448V138.573L201.54 134.91H202.599L199.549 138.584L202.736 142.47ZM203.445 141.898C203.445 141.637 203.505 141.453 203.625 141.347C203.745 141.241 203.894 141.189 204.07 141.189C204.247 141.189 204.398 141.241 204.525 141.347C204.652 141.453 204.716 141.637 204.716 141.898C204.716 142.152 204.652 142.336 204.525 142.449C204.398 142.561 204.247 142.618 204.07 142.618C203.894 142.618 203.745 142.561 203.625 142.449C203.505 142.336 203.445 142.152 203.445 141.898ZM210.835 142.47L210.009 140.13H207.203L206.388 142.47H205.424L208.177 134.878H209.067L211.809 142.47H210.835ZM208.95 136.996C208.936 136.939 208.904 136.837 208.855 136.689C208.813 136.54 208.767 136.389 208.717 136.233C208.675 136.071 208.64 135.947 208.611 135.863C208.576 136.004 208.537 136.149 208.495 136.297C208.46 136.438 208.424 136.569 208.389 136.689C208.354 136.809 208.322 136.911 208.294 136.996L207.51 139.283H209.734L208.95 136.996ZM212.524 141.898C212.524 141.637 212.584 141.453 212.704 141.347C212.824 141.241 212.972 141.189 213.149 141.189C213.325 141.189 213.477 141.241 213.604 141.347C213.731 141.453 213.795 141.637 213.795 141.898C213.795 142.152 213.731 142.336 213.604 142.449C213.477 142.561 213.325 142.618 213.149 142.618C212.972 142.618 212.824 142.561 212.704 142.449C212.584 142.336 212.524 142.152 212.524 141.898Z" fill="#272727"></path><path d="M25.1465 158.44H86.2051C92.0528 158.44 96.7939 163.181 96.7939 169.028C96.7939 174.876 92.0528 179.616 86.2051 179.616H25.1465C19.2988 179.616 14.5586 174.876 14.5586 169.028C14.5587 163.181 19.2989 158.44 25.1465 158.44Z" stroke="#DDDDDD" stroke-width="0.882353"></path><path d="M22.1393 172.528V164.968H27.497V172.528H26.5652V165.805H23.0817V172.528H22.1393ZM30.1806 170.315C30.1806 170.379 30.1771 170.471 30.17 170.591C30.17 170.704 30.1665 170.827 30.1594 170.961C30.1523 171.088 30.1453 171.212 30.1382 171.332C30.1312 171.445 30.1241 171.537 30.1171 171.607L32.9547 166.853H34.0771V172.528H33.2194V169.182C33.2194 169.069 33.2194 168.921 33.2194 168.738C33.2265 168.554 33.2335 168.374 33.2406 168.198C33.2476 168.014 33.2547 167.877 33.2618 167.785L30.4559 172.528H29.3123V166.853H30.1806V170.315ZM38.3375 166.747C38.994 166.747 39.5198 166.991 39.9151 167.478C40.3175 167.965 40.5187 168.699 40.5187 169.68C40.5187 170.322 40.4269 170.866 40.2434 171.311C40.0598 171.748 39.8022 172.08 39.4704 172.306C39.1457 172.525 38.7646 172.634 38.3269 172.634C38.0516 172.634 37.8081 172.595 37.5963 172.518C37.3916 172.44 37.2151 172.341 37.0669 172.221C36.9187 172.094 36.7916 171.957 36.6857 171.808H36.6222C36.6363 171.928 36.6504 172.08 36.6646 172.264C36.6787 172.447 36.6857 172.606 36.6857 172.74V175.069H35.7646V166.853H36.5163L36.6434 167.626H36.6857C36.7916 167.464 36.9187 167.315 37.0669 167.181C37.2151 167.047 37.3916 166.941 37.5963 166.864C37.8081 166.786 38.0551 166.747 38.3375 166.747ZM38.1575 167.531C37.8046 167.531 37.5187 167.605 37.2998 167.753C37.0881 167.894 36.9328 168.109 36.834 168.399C36.7351 168.688 36.6857 169.055 36.6857 169.5V169.68C36.6857 170.146 36.7281 170.541 36.8128 170.866C36.9046 171.191 37.0598 171.438 37.2787 171.607C37.4975 171.777 37.7975 171.861 38.1787 171.861C38.4963 171.861 38.7575 171.766 38.9622 171.575C39.1669 171.385 39.3187 171.127 39.4175 170.802C39.5163 170.471 39.5657 170.093 39.5657 169.669C39.5657 169.02 39.4493 168.501 39.2163 168.113C38.9904 167.725 38.6375 167.531 38.1575 167.531ZM46.5656 169.68C46.5656 170.153 46.5056 170.573 46.3856 170.94C46.2727 171.3 46.1068 171.607 45.888 171.861C45.6692 172.115 45.4045 172.309 45.0939 172.444C44.7833 172.571 44.4374 172.634 44.0562 172.634C43.7033 172.634 43.375 172.571 43.0715 172.444C42.775 172.309 42.5139 172.115 42.288 171.861C42.0692 171.607 41.8997 171.3 41.7797 170.94C41.6597 170.573 41.5997 170.153 41.5997 169.68C41.5997 169.052 41.6986 168.522 41.8962 168.092C42.1009 167.654 42.3903 167.322 42.7644 167.097C43.1386 166.864 43.5797 166.747 44.088 166.747C44.575 166.747 45.0021 166.864 45.3692 167.097C45.7433 167.322 46.0362 167.654 46.248 168.092C46.4597 168.522 46.5656 169.052 46.5656 169.68ZM42.5527 169.68C42.5527 170.125 42.6056 170.513 42.7115 170.845C42.8174 171.169 42.9833 171.42 43.2092 171.597C43.435 171.773 43.7245 171.861 44.0774 171.861C44.4303 171.861 44.7197 171.773 44.9456 171.597C45.1715 171.42 45.3374 171.169 45.4433 170.845C45.5562 170.513 45.6127 170.125 45.6127 169.68C45.6127 169.228 45.5562 168.844 45.4433 168.526C45.3374 168.208 45.1715 167.965 44.9456 167.795C44.7197 167.619 44.4268 167.531 44.0668 167.531C43.5374 167.531 43.1527 167.721 42.9127 168.102C42.6727 168.484 42.5527 169.009 42.5527 169.68ZM51.2278 166.853V167.637H48.856V172.528H47.9348V166.853H51.2278ZM56.854 169.68C56.854 170.153 56.794 170.573 56.674 170.94C56.5611 171.3 56.3952 171.607 56.1764 171.861C55.9575 172.115 55.6928 172.309 55.3822 172.444C55.0716 172.571 54.7258 172.634 54.3446 172.634C53.9916 172.634 53.6634 172.571 53.3599 172.444C53.0634 172.309 52.8022 172.115 52.5764 171.861C52.3575 171.607 52.1881 171.3 52.0681 170.94C51.9481 170.573 51.8881 170.153 51.8881 169.68C51.8881 169.052 51.9869 168.522 52.1846 168.092C52.3893 167.654 52.6787 167.322 53.0528 167.097C53.4269 166.864 53.8681 166.747 54.3764 166.747C54.8634 166.747 55.2905 166.864 55.6575 167.097C56.0316 167.322 56.3246 167.654 56.5364 168.092C56.7481 168.522 56.854 169.052 56.854 169.68ZM52.8411 169.68C52.8411 170.125 52.894 170.513 52.9999 170.845C53.1058 171.169 53.2716 171.42 53.4975 171.597C53.7234 171.773 54.0128 171.861 54.3658 171.861C54.7187 171.861 55.0081 171.773 55.234 171.597C55.4599 171.42 55.6258 171.169 55.7316 170.845C55.8446 170.513 55.9011 170.125 55.9011 169.68C55.9011 169.228 55.8446 168.844 55.7316 168.526C55.6258 168.208 55.4599 167.965 55.234 167.795C55.0081 167.619 54.7152 167.531 54.3552 167.531C53.8258 167.531 53.4411 167.721 53.2011 168.102C52.9611 168.484 52.8411 169.009 52.8411 169.68ZM62.5538 168.282C62.5538 168.635 62.455 168.911 62.2573 169.108C62.0597 169.306 61.802 169.44 61.4844 169.511V169.553C61.8161 169.602 62.1055 169.729 62.3526 169.934C62.5997 170.132 62.7232 170.442 62.7232 170.866C62.7232 171.106 62.6808 171.328 62.5961 171.533C62.5185 171.738 62.3914 171.914 62.215 172.062C62.0385 172.211 61.8126 172.327 61.5373 172.412C61.262 172.489 60.9302 172.528 60.542 172.528H58.2232V166.853H60.5314C60.9197 166.853 61.2655 166.899 61.5691 166.991C61.8726 167.075 62.1126 167.224 62.2891 167.435C62.4655 167.64 62.5538 167.922 62.5538 168.282ZM61.7702 170.866C61.7702 170.541 61.6538 170.308 61.4208 170.167C61.195 170.026 60.8632 169.955 60.4255 169.955H59.1444V171.777H60.4467C60.8702 171.777 61.195 171.709 61.4208 171.575C61.6538 171.434 61.7702 171.198 61.7702 170.866ZM61.622 168.399C61.622 168.131 61.5302 167.937 61.3467 167.817C61.1702 167.689 60.8844 167.626 60.4891 167.626H59.1444V169.182H60.3197C60.7502 169.182 61.075 169.119 61.2938 168.992C61.5126 168.865 61.622 168.667 61.622 168.399ZM66.0365 166.758C66.6859 166.758 67.1694 166.909 67.4871 167.213C67.8118 167.517 67.9741 168 67.9741 168.664V172.528H67.3071L67.1271 171.724H67.0847C66.9294 171.928 66.7706 172.101 66.6082 172.242C66.453 172.377 66.2694 172.475 66.0577 172.539C65.853 172.602 65.5988 172.634 65.2953 172.634C64.9777 172.634 64.6918 172.574 64.4377 172.454C64.1835 172.334 63.9824 172.151 63.8341 171.904C63.6859 171.649 63.6118 171.332 63.6118 170.951C63.6118 170.386 63.82 169.952 64.2365 169.648C64.653 169.338 65.2953 169.168 66.1635 169.14L67.0635 169.108V168.769C67.0635 168.297 66.9682 167.968 66.7777 167.785C66.5941 167.601 66.3294 167.509 65.9835 167.509C65.7082 167.509 65.4435 167.555 65.1894 167.647C64.9424 167.732 64.7059 167.831 64.48 167.944L64.1941 167.245C64.4341 167.111 64.713 166.998 65.0306 166.906C65.3482 166.807 65.6835 166.758 66.0365 166.758ZM66.2906 169.786C65.6412 169.814 65.1894 169.927 64.9353 170.125C64.6882 170.322 64.5647 170.601 64.5647 170.961C64.5647 171.279 64.653 171.512 64.8294 171.66C65.0059 171.808 65.2353 171.882 65.5177 171.882C65.9553 171.882 66.3224 171.752 66.6188 171.491C66.9153 171.222 67.0635 170.813 67.0635 170.262V169.754L66.2906 169.786ZM77.4759 172.528H76.5336V165.805H74.3206C74.2783 166.193 74.2289 166.602 74.1724 167.033C74.123 167.457 74.07 167.877 74.0136 168.293C73.9641 168.709 73.9112 169.101 73.8547 169.468C73.7983 169.835 73.7453 170.157 73.6959 170.432C73.6112 170.905 73.5018 171.307 73.3677 171.639C73.2406 171.971 73.0712 172.221 72.8594 172.391C72.6547 172.56 72.3794 172.645 72.0336 172.645C71.9206 172.645 71.8041 172.631 71.6841 172.602C71.5641 172.581 71.4618 172.553 71.3771 172.518V171.724C71.4547 171.759 71.5394 171.791 71.6312 171.819C71.723 171.84 71.8218 171.851 71.9277 171.851C72.1183 171.851 72.27 171.766 72.383 171.597C72.4959 171.42 72.5841 171.205 72.6477 170.951C72.7183 170.689 72.7783 170.428 72.8277 170.167C72.863 169.969 72.9053 169.698 72.9547 169.352C73.0112 169.006 73.0712 168.607 73.1347 168.155C73.1983 167.697 73.2618 167.199 73.3253 166.662C73.3959 166.119 73.4665 165.554 73.5371 164.968H77.4759V172.528ZM79.1485 171.957C79.1485 171.695 79.2085 171.512 79.3285 171.406C79.4485 171.3 79.5968 171.247 79.7732 171.247C79.9497 171.247 80.1015 171.3 80.2285 171.406C80.3556 171.512 80.4191 171.695 80.4191 171.957C80.4191 172.211 80.3556 172.394 80.2285 172.507C80.1015 172.62 79.9497 172.677 79.7732 172.677C79.5968 172.677 79.4485 172.62 79.3285 172.507C79.2085 172.394 79.1485 172.211 79.1485 171.957ZM84.1346 164.968C84.7275 164.968 85.2252 165.028 85.6275 165.148C86.0299 165.268 86.3334 165.466 86.5381 165.741C86.7428 166.017 86.8452 166.384 86.8452 166.842C86.8452 167.139 86.7922 167.404 86.6864 167.637C86.5875 167.862 86.4393 168.053 86.2417 168.208C86.044 168.357 85.8005 168.459 85.5111 168.515V168.568C85.8075 168.618 86.0722 168.709 86.3052 168.844C86.5452 168.978 86.7322 169.168 86.8664 169.415C87.0075 169.662 87.0781 169.984 87.0781 170.379C87.0781 170.838 86.9758 171.229 86.7711 171.554C86.5734 171.872 86.2911 172.115 85.924 172.285C85.5569 172.447 85.1158 172.528 84.6005 172.528H82.0911V164.968H84.1346ZM84.3146 168.187C84.9075 168.187 85.3134 168.085 85.5322 167.88C85.7581 167.668 85.8711 167.358 85.8711 166.948C85.8711 166.532 85.7334 166.235 85.4581 166.059C85.1899 165.875 84.7628 165.784 84.1769 165.784H83.0334V168.187H84.3146ZM83.0334 168.981V171.724H84.4311C85.0452 171.724 85.4722 171.593 85.7122 171.332C85.9593 171.071 86.0828 170.728 86.0828 170.305C86.0828 170.037 86.0264 169.804 85.9134 169.606C85.8075 169.408 85.6311 169.257 85.384 169.151C85.1369 169.038 84.7981 168.981 84.3675 168.981H83.0334ZM87.9272 171.957C87.9272 171.695 87.9872 171.512 88.1072 171.406C88.2272 171.3 88.3755 171.247 88.552 171.247C88.7284 171.247 88.8802 171.3 89.0072 171.406C89.1343 171.512 89.1978 171.695 89.1978 171.957C89.1978 172.211 89.1343 172.394 89.0072 172.507C88.8802 172.62 88.7284 172.677 88.552 172.677C88.3755 172.677 88.2272 172.62 88.1072 172.507C87.9872 172.394 87.9272 172.211 87.9272 171.957Z" fill="#272727"></path><path d="M115.322 158.44H166.381C172.229 158.44 176.97 163.181 176.97 169.028C176.97 174.876 172.229 179.616 166.381 179.616H115.322C109.475 179.616 104.734 174.876 104.734 169.028C104.734 163.181 109.475 158.44 115.322 158.44Z" stroke="#DDDDDD" stroke-width="0.882353"></path><path d="M114.602 172.528H113.66V165.805H111.457V164.968H116.783V165.805H114.602V172.528ZM118.936 166.758C119.586 166.758 120.069 166.909 120.387 167.213C120.712 167.517 120.874 168 120.874 168.664V172.528H120.207L120.027 171.724H119.985C119.829 171.928 119.67 172.101 119.508 172.242C119.353 172.377 119.169 172.475 118.957 172.539C118.753 172.602 118.499 172.634 118.195 172.634C117.877 172.634 117.592 172.574 117.337 172.454C117.083 172.334 116.882 172.151 116.734 171.904C116.586 171.649 116.512 171.332 116.512 170.951C116.512 170.386 116.72 169.952 117.136 169.648C117.553 169.338 118.195 169.168 119.063 169.14L119.963 169.108V168.769C119.963 168.297 119.868 167.968 119.677 167.785C119.494 167.601 119.229 167.509 118.883 167.509C118.608 167.509 118.343 167.555 118.089 167.647C117.842 167.732 117.606 167.831 117.38 167.944L117.094 167.245C117.334 167.111 117.613 166.998 117.93 166.906C118.248 166.807 118.583 166.758 118.936 166.758ZM119.19 169.786C118.541 169.814 118.089 169.927 117.835 170.125C117.588 170.322 117.465 170.601 117.465 170.961C117.465 171.279 117.553 171.512 117.729 171.66C117.906 171.808 118.135 171.882 118.417 171.882C118.855 171.882 119.222 171.752 119.519 171.491C119.815 171.222 119.963 170.813 119.963 170.262V169.754L119.19 169.786ZM125.091 166.747C125.747 166.747 126.273 166.991 126.668 167.478C127.071 167.965 127.272 168.699 127.272 169.68C127.272 170.322 127.18 170.866 126.997 171.311C126.813 171.748 126.555 172.08 126.224 172.306C125.899 172.525 125.518 172.634 125.08 172.634C124.805 172.634 124.561 172.595 124.35 172.518C124.145 172.44 123.968 172.341 123.82 172.221C123.672 172.094 123.545 171.957 123.439 171.808H123.375C123.39 171.928 123.404 172.08 123.418 172.264C123.432 172.447 123.439 172.606 123.439 172.74V175.069H122.518V166.853H123.27L123.397 167.626H123.439C123.545 167.464 123.672 167.315 123.82 167.181C123.968 167.047 124.145 166.941 124.35 166.864C124.561 166.786 124.808 166.747 125.091 166.747ZM124.911 167.531C124.558 167.531 124.272 167.605 124.053 167.753C123.841 167.894 123.686 168.109 123.587 168.399C123.488 168.688 123.439 169.055 123.439 169.5V169.68C123.439 170.146 123.481 170.541 123.566 170.866C123.658 171.191 123.813 171.438 124.032 171.607C124.251 171.777 124.551 171.861 124.932 171.861C125.25 171.861 125.511 171.766 125.715 171.575C125.92 171.385 126.072 171.127 126.171 170.802C126.27 170.471 126.319 170.093 126.319 169.669C126.319 169.02 126.202 168.501 125.97 168.113C125.744 167.725 125.391 167.531 124.911 167.531ZM130.693 166.758C131.342 166.758 131.826 166.909 132.144 167.213C132.468 167.517 132.631 168 132.631 168.664V172.528H131.964L131.784 171.724H131.741C131.586 171.928 131.427 172.101 131.265 172.242C131.109 172.377 130.926 172.475 130.714 172.539C130.509 172.602 130.255 172.634 129.952 172.634C129.634 172.634 129.348 172.574 129.094 172.454C128.84 172.334 128.639 172.151 128.491 171.904C128.342 171.649 128.268 171.332 128.268 170.951C128.268 170.386 128.476 169.952 128.893 169.648C129.309 169.338 129.952 169.168 130.82 169.14L131.72 169.108V168.769C131.72 168.297 131.625 167.968 131.434 167.785C131.251 167.601 130.986 167.509 130.64 167.509C130.365 167.509 130.1 167.555 129.846 167.647C129.599 167.732 129.362 167.831 129.136 167.944L128.851 167.245C129.091 167.111 129.369 166.998 129.687 166.906C130.005 166.807 130.34 166.758 130.693 166.758ZM130.947 169.786C130.298 169.814 129.846 169.927 129.592 170.125C129.345 170.322 129.221 170.601 129.221 170.961C129.221 171.279 129.309 171.512 129.486 171.66C129.662 171.808 129.892 171.882 130.174 171.882C130.612 171.882 130.979 171.752 131.275 171.491C131.572 171.222 131.72 170.813 131.72 170.262V169.754L130.947 169.786ZM136.424 172.634C135.944 172.634 135.52 172.532 135.153 172.327C134.786 172.122 134.497 171.805 134.285 171.374C134.08 170.944 133.978 170.393 133.978 169.722C133.978 169.024 134.087 168.455 134.306 168.018C134.525 167.58 134.821 167.259 135.196 167.054C135.577 166.849 136.007 166.747 136.487 166.747C136.763 166.747 137.027 166.779 137.281 166.842C137.543 166.899 137.754 166.969 137.917 167.054L137.631 167.827C137.469 167.764 137.278 167.704 137.059 167.647C136.847 167.591 136.65 167.562 136.466 167.562C136.12 167.562 135.834 167.644 135.609 167.806C135.383 167.968 135.213 168.208 135.1 168.526C134.987 168.844 134.931 169.239 134.931 169.712C134.931 170.164 134.987 170.548 135.1 170.866C135.213 171.184 135.379 171.424 135.598 171.586C135.824 171.748 136.099 171.829 136.424 171.829C136.713 171.829 136.971 171.798 137.197 171.734C137.423 171.671 137.631 171.593 137.821 171.501V172.327C137.638 172.426 137.437 172.5 137.218 172.549C136.999 172.606 136.734 172.634 136.424 172.634ZM143.752 169.68C143.752 170.153 143.692 170.573 143.572 170.94C143.459 171.3 143.293 171.607 143.074 171.861C142.856 172.115 142.591 172.309 142.28 172.444C141.97 172.571 141.624 172.634 141.243 172.634C140.89 172.634 140.561 172.571 140.258 172.444C139.961 172.309 139.7 172.115 139.474 171.861C139.256 171.607 139.086 171.3 138.966 170.94C138.846 170.573 138.786 170.153 138.786 169.68C138.786 169.052 138.885 168.522 139.083 168.092C139.287 167.654 139.577 167.322 139.951 167.097C140.325 166.864 140.766 166.747 141.274 166.747C141.761 166.747 142.188 166.864 142.556 167.097C142.93 167.322 143.223 167.654 143.434 168.092C143.646 168.522 143.752 169.052 143.752 169.68ZM139.739 169.68C139.739 170.125 139.792 170.513 139.898 170.845C140.004 171.169 140.17 171.42 140.396 171.597C140.621 171.773 140.911 171.861 141.264 171.861C141.617 171.861 141.906 171.773 142.132 171.597C142.358 171.42 142.524 171.169 142.63 170.845C142.743 170.513 142.799 170.125 142.799 169.68C142.799 169.228 142.743 168.844 142.63 168.526C142.524 168.208 142.358 167.965 142.132 167.795C141.906 167.619 141.613 167.531 141.253 167.531C140.724 167.531 140.339 167.721 140.099 168.102C139.859 168.484 139.739 169.009 139.739 169.68ZM149.452 168.282C149.452 168.635 149.353 168.911 149.155 169.108C148.958 169.306 148.7 169.44 148.382 169.511V169.553C148.714 169.602 149.004 169.729 149.251 169.934C149.498 170.132 149.621 170.442 149.621 170.866C149.621 171.106 149.579 171.328 149.494 171.533C149.416 171.738 149.289 171.914 149.113 172.062C148.936 172.211 148.711 172.327 148.435 172.412C148.16 172.489 147.828 172.528 147.44 172.528H145.121V166.853H147.429C147.818 166.853 148.164 166.899 148.467 166.991C148.771 167.075 149.011 167.224 149.187 167.435C149.364 167.64 149.452 167.922 149.452 168.282ZM148.668 170.866C148.668 170.541 148.552 170.308 148.319 170.167C148.093 170.026 147.761 169.955 147.324 169.955H146.042V171.777H147.345C147.768 171.777 148.093 171.709 148.319 171.575C148.552 171.434 148.668 171.198 148.668 170.866ZM148.52 168.399C148.52 168.131 148.428 167.937 148.245 167.817C148.068 167.689 147.782 167.626 147.387 167.626H146.042V169.182H147.218C147.648 169.182 147.973 169.119 148.192 168.992C148.411 168.865 148.52 168.667 148.52 168.399ZM155.647 164.968C156.239 164.968 156.737 165.028 157.139 165.148C157.542 165.268 157.845 165.466 158.05 165.741C158.255 166.017 158.357 166.384 158.357 166.842C158.357 167.139 158.304 167.404 158.198 167.637C158.099 167.862 157.951 168.053 157.754 168.208C157.556 168.357 157.312 168.459 157.023 168.515V168.568C157.319 168.618 157.584 168.709 157.817 168.844C158.057 168.978 158.244 169.168 158.378 169.415C158.519 169.662 158.59 169.984 158.59 170.379C158.59 170.838 158.488 171.229 158.283 171.554C158.085 171.872 157.803 172.115 157.436 172.285C157.069 172.447 156.628 172.528 156.112 172.528H153.603V164.968H155.647ZM155.827 168.187C156.419 168.187 156.825 168.085 157.044 167.88C157.27 167.668 157.383 167.358 157.383 166.948C157.383 166.532 157.245 166.235 156.97 166.059C156.702 165.875 156.275 165.784 155.689 165.784H154.545V168.187H155.827ZM154.545 168.981V171.724H155.943C156.557 171.724 156.984 171.593 157.224 171.332C157.471 171.071 157.595 170.728 157.595 170.305C157.595 170.037 157.538 169.804 157.425 169.606C157.319 169.408 157.143 169.257 156.896 169.151C156.649 169.038 156.31 168.981 155.879 168.981H154.545ZM159.439 171.957C159.439 171.695 159.499 171.512 159.619 171.406C159.739 171.3 159.887 171.247 160.064 171.247C160.24 171.247 160.392 171.3 160.519 171.406C160.646 171.512 160.71 171.695 160.71 171.957C160.71 172.211 160.646 172.394 160.519 172.507C160.392 172.62 160.24 172.677 160.064 172.677C159.887 172.677 159.739 172.62 159.619 172.507C159.499 172.394 159.439 172.211 159.439 171.957ZM164.425 164.968C165.018 164.968 165.516 165.028 165.918 165.148C166.321 165.268 166.624 165.466 166.829 165.741C167.033 166.017 167.136 166.384 167.136 166.842C167.136 167.139 167.083 167.404 166.977 167.637C166.878 167.862 166.73 168.053 166.532 168.208C166.335 168.357 166.091 168.459 165.802 168.515V168.568C166.098 168.618 166.363 168.709 166.596 168.844C166.836 168.978 167.023 169.168 167.157 169.415C167.298 169.662 167.369 169.984 167.369 170.379C167.369 170.838 167.266 171.229 167.062 171.554C166.864 171.872 166.582 172.115 166.215 172.285C165.848 172.447 165.406 172.528 164.891 172.528H162.382V164.968H164.425ZM164.605 168.187C165.198 168.187 165.604 168.085 165.823 167.88C166.049 167.668 166.162 167.358 166.162 166.948C166.162 166.532 166.024 166.235 165.749 166.059C165.481 165.875 165.053 165.784 164.468 165.784H163.324V168.187H164.605ZM163.324 168.981V171.724H164.722C165.336 171.724 165.763 171.593 166.003 171.332C166.25 171.071 166.373 170.728 166.373 170.305C166.373 170.037 166.317 169.804 166.204 169.606C166.098 169.408 165.922 169.257 165.675 169.151C165.428 169.038 165.089 168.981 164.658 168.981H163.324ZM168.218 171.957C168.218 171.695 168.278 171.512 168.398 171.406C168.518 171.3 168.666 171.247 168.843 171.247C169.019 171.247 169.171 171.3 169.298 171.406C169.425 171.512 169.489 171.695 169.489 171.957C169.489 172.211 169.425 172.394 169.298 172.507C169.171 172.62 169.019 172.677 168.843 172.677C168.666 172.677 168.518 172.62 168.398 172.507C168.278 172.394 168.218 172.211 168.218 171.957Z" fill="#272727"></path><path d="M195.057 158.882H202.116C207.72 158.882 212.263 163.425 212.263 169.028C212.263 174.632 207.72 179.176 202.116 179.176H195.057C189.453 179.176 184.91 174.632 184.91 169.028C184.91 163.425 189.453 158.882 195.057 158.882Z" stroke="#DDDDDD" stroke-width="0.882353"></path><path d="M202.113 170.205C201.463 170.205 200.936 169.678 200.936 169.028C200.936 168.378 201.463 167.852 202.113 167.852C202.762 167.852 203.289 168.378 203.289 169.028C203.289 169.678 202.762 170.205 202.113 170.205Z" fill="#6C7278"></path><path d="M198.583 170.205C197.933 170.205 197.407 169.678 197.407 169.028C197.407 168.378 197.933 167.852 198.583 167.852C199.233 167.852 199.76 168.378 199.76 169.028C199.76 169.678 199.233 170.205 198.583 170.205Z" fill="#6C7278"></path><path d="M195.054 170.205C194.404 170.205 193.877 169.678 193.877 169.028C193.877 168.378 194.404 167.852 195.054 167.852C195.704 167.852 196.23 168.378 196.23 169.028C196.23 169.678 195.704 170.205 195.054 170.205Z" fill="#6C7278"></path></g><path d="M16.2451 0.441406H241.402C250.13 0.441464 257.206 7.51704 257.206 16.2451V177.932C257.206 186.66 250.13 193.735 241.402 193.735H16.2451C7.51701 193.735 0.441406 186.66 0.441406 177.932V16.2451C0.441406 7.51701 7.51701 0.441406 16.2451 0.441406Z" stroke="#EFEFEF" stroke-width="0.882353"></path><defs><clipPath id="clip0_859_16312"><path d="M0 16.2448C0 7.27307 7.27305 0 16.2448 0H241.402C250.374 0 257.647 7.27305 257.647 16.2448V177.932C257.647 186.903 250.374 194.176 241.402 194.176H16.2448C7.27306 194.176 0 186.903 0 177.932V16.2448Z" fill="white"></path></clipPath><clipPath id="clip1_859_16312"><path d="M0 15.8824C0 7.11078 7.11077 0 15.8824 0H241.765C250.536 0 257.647 7.11077 257.647 15.8824V114.706H0V15.8824Z" fill="white"></path></clipPath></defs></svg> 