<?xml version="1.0" encoding="UTF-8"?> <svg xmlns="http://www.w3.org/2000/svg" width="220" height="100" viewBox="0 0 220 100" fill="none"><g clip-path="url(#clip0_859_16311)"><rect width="219.706" height="99.7059" rx="14.1176" fill="white"></rect><path d="M28.4836 28.1537H24.7766C24.5564 28.1536 24.3418 28.2234 24.1638 28.353C23.9857 28.4826 23.8534 28.6653 23.7858 28.8749C23.6088 29.428 23.2604 29.9105 22.791 30.2524C22.3217 30.5944 21.7557 30.7782 21.1749 30.7772C20.5942 30.7783 20.0282 30.5945 19.5588 30.2525C19.0894 29.9105 18.7411 29.4281 18.5641 28.8749C18.4964 28.6653 18.364 28.4825 18.1859 28.3529C18.0078 28.2233 17.7931 28.1536 17.5728 28.1537H13.8659C13.7291 28.1536 13.5936 28.1806 13.4672 28.2329C13.3408 28.2852 13.226 28.362 13.1293 28.4587C13.0325 28.5554 12.9558 28.6703 12.9035 28.7967C12.8511 28.9231 12.8242 29.0585 12.8242 29.1953V35.1362C12.8244 35.4124 12.9342 35.6772 13.1295 35.8724C13.3249 36.0677 13.5897 36.1774 13.8659 36.1774H28.4836C28.6203 36.1775 28.7558 36.1506 28.8821 36.0982C29.0085 36.0459 29.1233 35.9692 29.2201 35.8726C29.3168 35.7759 29.3935 35.6611 29.4459 35.5347C29.4983 35.4084 29.5252 35.273 29.5253 35.1362V29.1953C29.5253 28.6196 29.0594 28.1537 28.4836 28.1537Z" fill="#272727"></path><path d="M20.9562 28.7089C21.0085 28.7822 21.0941 28.826 21.1841 28.826C21.2747 28.826 21.3596 28.7822 21.4125 28.7079L24.2934 24.6562C24.323 24.6141 24.3406 24.5648 24.3442 24.5135C24.3477 24.4622 24.3372 24.4109 24.3137 24.3652C24.2902 24.3194 24.2545 24.281 24.2105 24.2543C24.1665 24.2275 24.116 24.2134 24.0645 24.2136H22.7094V20.5738C22.7094 20.4181 22.5838 20.293 22.4292 20.293H19.9207C19.7657 20.293 19.6405 20.4181 19.6405 20.5738V24.2136H18.2844C18.233 24.2137 18.1826 24.2279 18.1387 24.2547C18.0949 24.2815 18.0592 24.3198 18.0357 24.3655C18.0122 24.4112 18.0017 24.4625 18.0053 24.5138C18.009 24.565 18.0267 24.6143 18.0565 24.6562L20.9562 28.7089Z" fill="#272727"></path><path d="M47.688 24.1295C47.1892 24.1295 46.7422 24.2236 46.3469 24.4118C45.9516 24.5906 45.6127 24.8589 45.3304 25.2165C45.0574 25.5648 44.8457 25.993 44.6951 26.5012C44.5539 27.0001 44.4833 27.5648 44.4833 28.1954C44.4833 29.0236 44.601 29.7436 44.8363 30.3554C45.0716 30.9671 45.4245 31.4377 45.8951 31.7671C46.3751 32.0965 46.968 32.2612 47.6739 32.2612C48.088 32.2612 48.4786 32.2236 48.8457 32.1483C49.2222 32.073 49.5939 31.9789 49.961 31.8659V32.9671C49.6033 33.1083 49.2363 33.2118 48.8598 33.2777C48.4833 33.3436 48.0316 33.3765 47.5045 33.3765C46.5351 33.3765 45.7257 33.1648 45.0763 32.7412C44.4363 32.3177 43.9563 31.7154 43.6363 30.9342C43.3163 30.153 43.1563 29.2354 43.1563 28.1812C43.1563 27.4189 43.2551 26.7224 43.4527 26.0918C43.6504 25.4612 43.9422 24.9154 44.328 24.4542C44.7139 23.993 45.1892 23.6401 45.7539 23.3954C46.3186 23.1412 46.968 23.0142 47.7022 23.0142C48.1822 23.0142 48.648 23.0659 49.0998 23.1695C49.5516 23.273 49.961 23.4189 50.328 23.6071L49.8339 24.6801C49.5422 24.5389 49.2127 24.4118 48.8457 24.2989C48.488 24.1859 48.1022 24.1295 47.688 24.1295ZM56.0986 25.6683H57.4398L54.4186 29.3106L57.6939 33.2354H56.268L53.0774 29.3954V33.2354H51.8492V25.6683H53.0774V29.3389L56.0986 25.6683ZM61.6741 25.5412C62.54 25.5412 63.1847 25.7436 63.6082 26.1483C64.0412 26.553 64.2576 27.1977 64.2576 28.0824V33.2354H63.3682L63.1282 32.1624H63.0717C62.8647 32.4354 62.6529 32.6659 62.4365 32.8542C62.2294 33.033 61.9847 33.1648 61.7023 33.2495C61.4294 33.3342 61.0906 33.3765 60.6859 33.3765C60.2623 33.3765 59.8812 33.2965 59.5423 33.1365C59.2035 32.9765 58.9353 32.7318 58.7376 32.4024C58.54 32.0636 58.4412 31.6401 58.4412 31.1318C58.4412 30.3789 58.7188 29.8001 59.2741 29.3954C59.8294 28.9812 60.6859 28.7554 61.8435 28.7177L63.0435 28.6754V28.2236C63.0435 27.593 62.9165 27.1554 62.6623 26.9106C62.4176 26.6659 62.0647 26.5436 61.6035 26.5436C61.2365 26.5436 60.8835 26.6048 60.5447 26.7271C60.2153 26.8401 59.9 26.9718 59.5988 27.1224L59.2176 26.1906C59.5376 26.0118 59.9094 25.8612 60.3329 25.7389C60.7565 25.6071 61.2035 25.5412 61.6741 25.5412ZM62.0129 29.5789C61.147 29.6165 60.5447 29.7671 60.2059 30.0306C59.8765 30.2942 59.7117 30.6659 59.7117 31.1459C59.7117 31.5695 59.8294 31.8801 60.0647 32.0777C60.3 32.2754 60.6059 32.3742 60.9823 32.3742C61.5659 32.3742 62.0553 32.2001 62.4506 31.8518C62.8459 31.4942 63.0435 30.9483 63.0435 30.2142V29.5365L62.0129 29.5789ZM67.5365 28.4212C67.5365 28.8636 67.6494 29.193 67.8753 29.4095C68.1012 29.6165 68.4306 29.7201 68.8635 29.7201C69.3059 29.7201 69.7059 29.6495 70.0635 29.5083C70.4212 29.3577 70.7882 29.1601 71.1647 28.9154V25.6683H72.3929V33.2354H71.1647V29.8612C70.7788 30.1342 70.3882 30.3506 69.9929 30.5106C69.607 30.6612 69.1506 30.7365 68.6235 30.7365C67.8894 30.7365 67.32 30.5342 66.9153 30.1295C66.5106 29.7248 66.3082 29.1836 66.3082 28.5059V25.6683H67.5365V28.4212ZM77.3497 25.5412C78.2155 25.5412 78.8602 25.7436 79.2838 26.1483C79.7167 26.553 79.9332 27.1977 79.9332 28.0824V33.2354H79.0438L78.8038 32.1624H78.7473C78.5402 32.4354 78.3285 32.6659 78.112 32.8542C77.9049 33.033 77.6602 33.1648 77.3779 33.2495C77.1049 33.3342 76.7661 33.3765 76.3614 33.3765C75.9379 33.3765 75.5567 33.2965 75.2179 33.1365C74.8791 32.9765 74.6108 32.7318 74.4132 32.4024C74.2155 32.0636 74.1167 31.6401 74.1167 31.1318C74.1167 30.3789 74.3944 29.8001 74.9497 29.3954C75.5049 28.9812 76.3614 28.7554 77.5191 28.7177L78.7191 28.6754V28.2236C78.7191 27.593 78.592 27.1554 78.3379 26.9106C78.0932 26.6659 77.7402 26.5436 77.2791 26.5436C76.912 26.5436 76.5591 26.6048 76.2202 26.7271C75.8908 26.8401 75.5755 26.9718 75.2744 27.1224L74.8932 26.1906C75.2132 26.0118 75.5849 25.8612 76.0085 25.7389C76.432 25.6071 76.8791 25.5412 77.3497 25.5412ZM77.6885 29.5789C76.8226 29.6165 76.2202 29.7671 75.8814 30.0306C75.552 30.2942 75.3873 30.6659 75.3873 31.1459C75.3873 31.5695 75.5049 31.8801 75.7402 32.0777C75.9755 32.2754 76.2814 32.3742 76.6579 32.3742C77.2414 32.3742 77.7308 32.2001 78.1261 31.8518C78.5214 31.4942 78.7191 30.9483 78.7191 30.2142V29.5365L77.6885 29.5789ZM87.1226 26.713H84.7932V33.2354H83.5791V26.713H81.2779V25.6683H87.1226V26.713ZM91.8114 28.7742C92.4326 28.7742 92.9502 28.8542 93.3644 29.0142C93.7785 29.1742 94.0891 29.4142 94.2961 29.7342C94.5126 30.0448 94.6208 30.4401 94.6208 30.9201C94.6208 31.3906 94.522 31.8001 94.3244 32.1483C94.1267 32.4965 93.8161 32.7648 93.3926 32.953C92.9785 33.1412 92.4373 33.2354 91.7691 33.2354H88.522V25.6683H89.7502V28.7742H91.8114ZM93.3926 30.9906C93.3926 30.5295 93.242 30.2189 92.9408 30.0589C92.6396 29.8895 92.2208 29.8048 91.6844 29.8048H89.7502V32.233H91.7126C92.1926 32.233 92.5926 32.1389 92.9126 31.9506C93.2326 31.7624 93.3926 31.4424 93.3926 30.9906ZM105.247 25.6683V32.1906H106.278V35.8612H105.106V33.2354H100.165V35.8612H98.9932V32.1906H99.572C99.9767 31.5883 100.311 30.9342 100.574 30.2283C100.838 29.513 101.036 28.7695 101.167 27.9977C101.309 27.2165 101.384 26.4401 101.393 25.6683H105.247ZM102.48 26.6424C102.443 27.2824 102.349 27.9459 102.198 28.633C102.057 29.3106 101.869 29.9601 101.633 30.5812C101.407 31.2024 101.144 31.7389 100.843 32.1906H104.047V26.6424H102.48ZM113.87 29.4377C113.87 30.0683 113.79 30.6283 113.63 31.1177C113.48 31.5977 113.258 32.0071 112.967 32.3459C112.675 32.6848 112.322 32.9436 111.908 33.1224C111.494 33.2918 111.032 33.3765 110.524 33.3765C110.054 33.3765 109.616 33.2918 109.211 33.1224C108.816 32.9436 108.468 32.6848 108.167 32.3459C107.875 32.0071 107.649 31.5977 107.489 31.1177C107.329 30.6283 107.249 30.0683 107.249 29.4377C107.249 28.6001 107.381 27.8942 107.644 27.3201C107.917 26.7365 108.303 26.2942 108.802 25.993C109.301 25.6824 109.889 25.5271 110.567 25.5271C111.216 25.5271 111.785 25.6824 112.275 25.993C112.774 26.2942 113.164 26.7365 113.447 27.3201C113.729 27.8942 113.87 28.6001 113.87 29.4377ZM108.52 29.4377C108.52 30.0306 108.59 30.5483 108.731 30.9906C108.872 31.4236 109.094 31.7577 109.395 31.993C109.696 32.2283 110.082 32.3459 110.552 32.3459C111.023 32.3459 111.409 32.2283 111.71 31.993C112.011 31.7577 112.232 31.4236 112.374 30.9906C112.524 30.5483 112.6 30.0306 112.6 29.4377C112.6 28.8354 112.524 28.3224 112.374 27.8989C112.232 27.4754 112.011 27.1506 111.71 26.9248C111.409 26.6895 111.018 26.5718 110.538 26.5718C109.832 26.5718 109.32 26.8259 109 27.3342C108.68 27.8424 108.52 28.5436 108.52 29.4377ZM119.945 25.6683H121.286L118.265 29.3106L121.54 33.2354H120.115L116.924 29.3954V33.2354H115.696V25.6683H116.924V29.3389L119.945 25.6683ZM121.695 25.6683H123.022L124.532 29.9742C124.626 30.2283 124.711 30.473 124.786 30.7083C124.862 30.9436 124.928 31.1742 124.984 31.4001C125.041 31.6165 125.083 31.8283 125.111 32.0354H125.154C125.21 31.8001 125.29 31.4942 125.394 31.1177C125.506 30.7318 125.624 30.3459 125.746 29.9601L127.172 25.6683H128.514L125.45 34.2801C125.281 34.7506 125.078 35.1601 124.843 35.5083C124.617 35.8659 124.339 36.1389 124.01 36.3271C123.681 36.5248 123.285 36.6236 122.824 36.6236C122.617 36.6236 122.429 36.6095 122.259 36.5812C122.099 36.5624 121.963 36.5389 121.85 36.5106V35.5224C121.944 35.5412 122.062 35.5601 122.203 35.5789C122.344 35.5977 122.49 35.6071 122.641 35.6071C122.914 35.6071 123.149 35.5506 123.346 35.4377C123.544 35.3342 123.714 35.1789 123.855 34.9718C123.996 34.7742 124.114 34.5389 124.208 34.2659L124.561 33.2636L121.695 25.6683ZM137.385 25.6683V33.2354H136.269V28.4071C136.269 28.2095 136.274 28.0024 136.284 27.7859C136.302 27.5695 136.321 27.3577 136.34 27.1506H136.298L133.996 33.2354H132.98L130.735 27.1506H130.693C130.712 27.3577 130.726 27.5695 130.735 27.7859C130.745 28.0024 130.749 28.2236 130.749 28.4495V33.2354H129.634V25.6683H131.286L133.488 31.753L135.733 25.6683H137.385ZM142.397 25.5271C143.008 25.5271 143.535 25.6683 143.978 25.9506C144.42 26.233 144.759 26.633 144.994 27.1506C145.239 27.6589 145.361 28.2565 145.361 28.9436V29.6918H140.505C140.524 30.5483 140.726 31.2024 141.112 31.6542C141.498 32.0965 142.039 32.3177 142.735 32.3177C143.187 32.3177 143.587 32.2754 143.935 32.1906C144.293 32.0965 144.66 31.9648 145.037 31.7954V32.8824C144.67 33.0518 144.307 33.1742 143.95 33.2495C143.601 33.3342 143.178 33.3765 142.679 33.3765C142.001 33.3765 141.404 33.2306 140.886 32.9389C140.368 32.6471 139.964 32.2142 139.672 31.6401C139.38 31.0565 139.234 30.3459 139.234 29.5083C139.234 28.6801 139.366 27.9695 139.63 27.3765C139.893 26.7836 140.26 26.3271 140.731 26.0071C141.211 25.6871 141.766 25.5271 142.397 25.5271ZM142.397 26.5436C141.851 26.5436 141.418 26.7365 141.098 27.1224C140.778 27.4989 140.59 28.0259 140.533 28.7036H144.091C144.091 28.2706 144.03 27.8942 143.907 27.5742C143.785 27.2542 143.597 27.0048 143.342 26.8259C143.098 26.6377 142.782 26.5436 142.397 26.5436ZM148.372 25.6683V28.8165H152.155V25.6683H153.383V33.2354H152.155V29.8612H148.372V33.2354H147.143V25.6683H148.372ZM160.606 26.713H158.277V33.2354H157.063V26.713H154.761V25.6683H160.606V26.713ZM162.005 33.2354V25.6683H163.234V28.7742H165.013C165.643 28.7742 166.161 28.8542 166.565 29.0142C166.97 29.1742 167.271 29.4142 167.469 29.7342C167.667 30.0448 167.765 30.4401 167.765 30.9201C167.765 31.3906 167.667 31.8001 167.469 32.1483C167.281 32.4965 166.98 32.7648 166.565 32.953C166.161 33.1412 165.629 33.2354 164.97 33.2354H162.005ZM164.857 32.233C165.356 32.233 165.761 32.1436 166.071 31.9648C166.382 31.7765 166.537 31.4518 166.537 30.9906C166.537 30.5295 166.391 30.2189 166.1 30.0589C165.817 29.8895 165.408 29.8048 164.871 29.8048H163.234V32.233H164.857ZM168.937 33.2354V25.6683H170.165V33.2354H168.937Z" fill="#272727"></path><path d="M26.1758 73.9413C25.5191 73.9413 24.9266 74.2012 24.4808 74.6178L18.6008 71.1752C18.6424 70.9824 18.6758 70.7896 18.6758 70.5884C18.6758 70.3872 18.6424 70.1944 18.6008 70.0016L24.4758 66.5565C24.9258 66.9756 25.5174 67.2355 26.1758 67.2355C27.5591 67.2355 28.6758 66.1122 28.6758 64.7208C28.6758 63.3293 27.5591 62.2061 26.1758 62.2061C24.7924 62.2061 23.6758 63.3293 23.6758 64.7208C23.6758 64.9219 23.7091 65.1147 23.7508 65.3075L17.8758 68.7527C17.4258 68.3336 16.8341 68.0737 16.1758 68.0737C14.7924 68.0737 13.6758 69.1969 13.6758 70.5884C13.6758 71.9799 14.7924 73.1031 16.1758 73.1031C16.8341 73.1031 17.4258 72.8433 17.8758 72.4241L23.7491 75.876C23.7022 76.0658 23.6776 76.2605 23.6758 76.4561C23.6758 76.9534 23.8224 77.4396 24.0971 77.8531C24.3718 78.2667 24.7623 78.589 25.2191 78.7793C25.6759 78.9697 26.1786 79.0195 26.6635 78.9224C27.1485 78.8254 27.5939 78.5859 27.9435 78.2342C28.2932 77.8825 28.5313 77.4345 28.6277 76.9466C28.7242 76.4588 28.6747 75.9532 28.4855 75.4937C28.2963 75.0342 27.9758 74.6415 27.5647 74.3652C27.1536 74.0888 26.6702 73.9413 26.1758 73.9413Z" fill="#272727"></path><path d="M51.9233 70.5347C51.9233 71.3159 51.8292 72.0265 51.641 72.6665C51.4527 73.2971 51.1751 73.843 50.808 74.3042C50.441 74.7653 49.9845 75.1183 49.4386 75.363C48.8927 75.6077 48.2622 75.73 47.5469 75.73C46.8033 75.73 46.1539 75.6077 45.5986 75.363C45.0527 75.1089 44.5963 74.7559 44.2292 74.3042C43.8716 73.843 43.6033 73.2924 43.4245 72.6524C43.2457 72.0124 43.1563 71.3018 43.1563 70.5206C43.1563 69.4853 43.3163 68.5818 43.6363 67.81C43.9563 67.0383 44.441 66.4359 45.0904 66.003C45.7492 65.57 46.5727 65.3536 47.561 65.3536C48.5116 65.3536 49.3116 65.57 49.961 66.003C50.6104 66.4265 51.0998 67.0289 51.4292 67.81C51.7586 68.5818 51.9233 69.49 51.9233 70.5347ZM44.4833 70.5347C44.4833 71.3818 44.5916 72.1112 44.808 72.723C45.0245 73.3347 45.3586 73.8053 45.8104 74.1347C46.2716 74.4642 46.8504 74.6289 47.5469 74.6289C48.2527 74.6289 48.8316 74.4642 49.2833 74.1347C49.7351 73.8053 50.0645 73.3347 50.2716 72.723C50.488 72.1112 50.5963 71.3818 50.5963 70.5347C50.5963 69.2642 50.3516 68.2712 49.8622 67.5559C49.3822 66.8312 48.6151 66.4689 47.561 66.4689C46.8551 66.4689 46.2716 66.6336 45.8104 66.963C45.3586 67.283 45.0245 67.7489 44.808 68.3606C44.5916 68.963 44.4833 69.6877 44.4833 70.5347ZM58.8459 69.0665H56.5165V75.5889H55.3024V69.0665H53.0012V68.0218H58.8459V69.0665ZM66.3018 68.0218V75.5889H65.0736V69.0806H61.4736V75.5889H60.2453V68.0218H66.3018ZM71.9756 67.8806C72.8509 67.8806 73.552 68.2053 74.0791 68.8547C74.6156 69.5042 74.8838 70.483 74.8838 71.7912C74.8838 72.6477 74.7615 73.3724 74.5167 73.9653C74.272 74.5489 73.9285 74.9912 73.4862 75.2924C73.0532 75.5842 72.545 75.73 71.9615 75.73C71.5944 75.73 71.2697 75.6783 70.9873 75.5747C70.7144 75.4712 70.4791 75.3395 70.2815 75.1795C70.0838 75.01 69.9144 74.8265 69.7732 74.6289H69.6885C69.7073 74.7889 69.7262 74.9912 69.745 75.2359C69.7638 75.4806 69.7732 75.6924 69.7732 75.8712V78.9771H68.545V68.0218H69.5473L69.7167 69.0524H69.7732C69.9144 68.8359 70.0838 68.6383 70.2815 68.4595C70.4791 68.2806 70.7144 68.1395 70.9873 68.0359C71.2697 67.9324 71.5991 67.8806 71.9756 67.8806ZM71.7356 68.9253C71.265 68.9253 70.8838 69.0242 70.592 69.2218C70.3097 69.41 70.1026 69.6971 69.9709 70.083C69.8391 70.4689 69.7732 70.9583 69.7732 71.5512V71.7912C69.7732 72.4124 69.8297 72.9395 69.9426 73.3724C70.065 73.8053 70.272 74.1347 70.5638 74.3606C70.8556 74.5865 71.2556 74.6995 71.7638 74.6995C72.1873 74.6995 72.5356 74.5724 72.8085 74.3183C73.0815 74.0642 73.2838 73.7206 73.4156 73.2877C73.5473 72.8453 73.6132 72.3418 73.6132 71.7771C73.6132 70.9112 73.4579 70.2195 73.1473 69.7018C72.8462 69.1842 72.3756 68.9253 71.7356 68.9253ZM79.4452 67.8947C80.3111 67.8947 80.9558 68.0971 81.3794 68.5018C81.8123 68.9065 82.0288 69.5512 82.0288 70.4359V75.5889H81.1394L80.8994 74.5159H80.8429C80.6358 74.7889 80.4241 75.0195 80.2076 75.2077C80.0005 75.3865 79.7558 75.5183 79.4735 75.603C79.2005 75.6877 78.8617 75.73 78.457 75.73C78.0335 75.73 77.6523 75.65 77.3135 75.49C76.9747 75.33 76.7064 75.0853 76.5088 74.7559C76.3111 74.4171 76.2123 73.9936 76.2123 73.4853C76.2123 72.7324 76.4899 72.1536 77.0452 71.7489C77.6005 71.3347 78.457 71.1089 79.6147 71.0712L80.8147 71.0289V70.5771C80.8147 69.9465 80.6876 69.5089 80.4335 69.2642C80.1888 69.0195 79.8358 68.8971 79.3747 68.8971C79.0076 68.8971 78.6547 68.9583 78.3158 69.0806C77.9864 69.1936 77.6711 69.3253 77.3699 69.4759L76.9888 68.5442C77.3088 68.3653 77.6805 68.2147 78.1041 68.0924C78.5276 67.9606 78.9747 67.8947 79.4452 67.8947ZM79.7841 71.9324C78.9182 71.97 78.3158 72.1206 77.977 72.3842C77.6476 72.6477 77.4829 73.0195 77.4829 73.4995C77.4829 73.923 77.6005 74.2336 77.8358 74.4312C78.0711 74.6289 78.377 74.7277 78.7535 74.7277C79.337 74.7277 79.8264 74.5536 80.2217 74.2053C80.617 73.8477 80.8147 73.3018 80.8147 72.5677V71.89L79.7841 71.9324ZM89.9947 69.9277C89.9947 70.3983 89.8629 70.7653 89.5994 71.0289C89.3358 71.2924 88.9923 71.4712 88.5688 71.5653V71.6218C89.0111 71.6877 89.397 71.8571 89.7264 72.13C90.0558 72.3936 90.2205 72.8077 90.2205 73.3724C90.2205 73.6924 90.1641 73.9889 90.0511 74.2618C89.9476 74.5347 89.7782 74.77 89.5429 74.9677C89.3076 75.1653 89.0064 75.3206 88.6394 75.4336C88.2723 75.5371 87.8299 75.5889 87.3123 75.5889H84.2205V68.0218H87.2982C87.8158 68.0218 88.277 68.083 88.6817 68.2053C89.0864 68.3183 89.4064 68.5159 89.6417 68.7983C89.877 69.0712 89.9947 69.4477 89.9947 69.9277ZM88.9499 73.3724C88.9499 72.9395 88.7947 72.6289 88.4841 72.4406C88.1829 72.2524 87.7405 72.1583 87.157 72.1583H85.4488V74.5865H87.1852C87.7499 74.5865 88.1829 74.4971 88.4841 74.3183C88.7947 74.13 88.9499 73.8147 88.9499 73.3724ZM88.7523 70.083C88.7523 69.7253 88.6299 69.4665 88.3852 69.3065C88.1499 69.1371 87.7688 69.0524 87.2417 69.0524H85.4488V71.1277H87.0158C87.5899 71.1277 88.0229 71.043 88.3147 70.8736C88.6064 70.7042 88.7523 70.4406 88.7523 70.083ZM93.0712 72.6383C93.0712 72.723 93.0665 72.8453 93.0571 73.0053C93.0571 73.1559 93.0524 73.3206 93.043 73.4995C93.0335 73.6689 93.0241 73.8336 93.0147 73.9936C93.0053 74.1442 92.9959 74.2665 92.9865 74.3606L96.77 68.0218H98.2665V75.5889H97.123V71.1277C97.123 70.9771 97.123 70.7795 97.123 70.5347C97.1324 70.29 97.1418 70.05 97.1512 69.8147C97.1606 69.57 97.17 69.3865 97.1794 69.2642L93.4383 75.5889H91.9135V68.0218H93.0712V72.6383ZM105.514 69.0665H103.185V75.5889H101.971V69.0665H99.6694V68.0218H105.514V69.0665ZM110.203 71.1277C110.824 71.1277 111.342 71.2077 111.756 71.3677C112.17 71.5277 112.481 71.7677 112.688 72.0877C112.904 72.3983 113.012 72.7936 113.012 73.2736C113.012 73.7442 112.914 74.1536 112.716 74.5018C112.518 74.85 112.208 75.1183 111.784 75.3065C111.37 75.4947 110.829 75.5889 110.161 75.5889H106.914V68.0218H108.142V71.1277H110.203ZM111.784 73.3442C111.784 72.883 111.634 72.5724 111.332 72.4124C111.031 72.243 110.612 72.1583 110.076 72.1583H108.142V74.5865H110.104C110.584 74.5865 110.984 74.4924 111.304 74.3042C111.624 74.1159 111.784 73.7959 111.784 73.3442ZM123.639 68.0218V74.5442H124.669V78.2147H123.498V75.5889H118.557V78.2147H117.385V74.5442H117.964C118.368 73.9418 118.702 73.2877 118.966 72.5818C119.229 71.8665 119.427 71.123 119.559 70.3512C119.7 69.57 119.775 68.7936 119.785 68.0218H123.639ZM120.872 68.9959C120.834 69.6359 120.74 70.2995 120.589 70.9865C120.448 71.6642 120.26 72.3136 120.025 72.9347C119.799 73.5559 119.535 74.0924 119.234 74.5442H122.439V68.9959H120.872ZM132.262 71.7912C132.262 72.4218 132.182 72.9818 132.022 73.4712C131.871 73.9512 131.65 74.3606 131.358 74.6995C131.066 75.0383 130.713 75.2971 130.299 75.4759C129.885 75.6453 129.424 75.73 128.916 75.73C128.445 75.73 128.008 75.6453 127.603 75.4759C127.208 75.2971 126.859 75.0383 126.558 74.6995C126.266 74.3606 126.04 73.9512 125.88 73.4712C125.72 72.9818 125.64 72.4218 125.64 71.7912C125.64 70.9536 125.772 70.2477 126.036 69.6736C126.309 69.09 126.695 68.6477 127.193 68.3465C127.692 68.0359 128.28 67.8806 128.958 67.8806C129.608 67.8806 130.177 68.0359 130.666 68.3465C131.165 68.6477 131.556 69.09 131.838 69.6736C132.12 70.2477 132.262 70.9536 132.262 71.7912ZM126.911 71.7912C126.911 72.3842 126.982 72.9018 127.123 73.3442C127.264 73.7771 127.485 74.1112 127.786 74.3465C128.088 74.5818 128.473 74.6995 128.944 74.6995C129.415 74.6995 129.8 74.5818 130.102 74.3465C130.403 74.1112 130.624 73.7771 130.765 73.3442C130.916 72.9018 130.991 72.3842 130.991 71.7912C130.991 71.1889 130.916 70.6759 130.765 70.2524C130.624 69.8289 130.403 69.5042 130.102 69.2783C129.8 69.043 129.41 68.9253 128.93 68.9253C128.224 68.9253 127.711 69.1795 127.391 69.6877C127.071 70.1959 126.911 70.8971 126.911 71.7912ZM138.337 68.0218H139.678L136.657 71.6642L139.932 75.5889H138.506L135.315 71.7489V75.5889H134.087V68.0218H135.315V71.6924L138.337 68.0218ZM140.086 68.0218H141.413L142.924 72.3277C143.018 72.5818 143.103 72.8265 143.178 73.0618C143.253 73.2971 143.319 73.5277 143.376 73.7536C143.432 73.97 143.475 74.1818 143.503 74.3889H143.545C143.602 74.1536 143.682 73.8477 143.785 73.4712C143.898 73.0853 144.016 72.6995 144.138 72.3136L145.564 68.0218H146.905L143.842 76.6336C143.672 77.1042 143.47 77.5136 143.235 77.8618C143.009 78.2195 142.731 78.4924 142.402 78.6806C142.072 78.8783 141.677 78.9771 141.216 78.9771C141.009 78.9771 140.82 78.963 140.651 78.9347C140.491 78.9159 140.355 78.8924 140.242 78.8642V77.8759C140.336 77.8947 140.453 77.9136 140.595 77.9324C140.736 77.9512 140.882 77.9606 141.032 77.9606C141.305 77.9606 141.54 77.9042 141.738 77.7912C141.936 77.6877 142.105 77.5324 142.246 77.3253C142.387 77.1277 142.505 76.8924 142.599 76.6195L142.952 75.6171L140.086 68.0218ZM155.776 68.0218V75.5889H154.661V70.7606C154.661 70.563 154.666 70.3559 154.675 70.1395C154.694 69.923 154.713 69.7112 154.732 69.5042H154.689L152.388 75.5889H151.372L149.127 69.5042H149.085C149.103 69.7112 149.117 69.923 149.127 70.1395C149.136 70.3559 149.141 70.5771 149.141 70.803V75.5889H148.026V68.0218H149.677L151.88 74.1065L154.125 68.0218H155.776ZM160.788 67.8806C161.4 67.8806 161.927 68.0218 162.369 68.3042C162.812 68.5865 163.15 68.9865 163.386 69.5042C163.63 70.0124 163.753 70.61 163.753 71.2971V72.0453H158.896C158.915 72.9018 159.118 73.5559 159.503 74.0077C159.889 74.45 160.43 74.6712 161.127 74.6712C161.579 74.6712 161.979 74.6289 162.327 74.5442C162.685 74.45 163.052 74.3183 163.428 74.1489V75.2359C163.061 75.4053 162.699 75.5277 162.341 75.603C161.993 75.6877 161.569 75.73 161.07 75.73C160.393 75.73 159.795 75.5842 159.278 75.2924C158.76 75.0006 158.355 74.5677 158.063 73.9936C157.772 73.41 157.626 72.6995 157.626 71.8618C157.626 71.0336 157.758 70.323 158.021 69.73C158.285 69.1371 158.652 68.6806 159.122 68.3606C159.602 68.0406 160.158 67.8806 160.788 67.8806ZM160.788 68.8971C160.242 68.8971 159.809 69.09 159.489 69.4759C159.169 69.8524 158.981 70.3795 158.925 71.0571H162.482C162.482 70.6242 162.421 70.2477 162.299 69.9277C162.176 69.6077 161.988 69.3583 161.734 69.1795C161.489 68.9912 161.174 68.8971 160.788 68.8971ZM166.763 68.0218V71.17H170.547V68.0218H171.775V75.5889H170.547V72.2147H166.763V75.5889H165.535V68.0218H166.763ZM178.998 69.0665H176.668V75.5889H175.454V69.0665H173.153V68.0218H178.998V69.0665ZM180.397 75.5889V68.0218H181.625V71.1277H183.404C184.035 71.1277 184.552 71.2077 184.957 71.3677C185.362 71.5277 185.663 71.7677 185.861 72.0877C186.058 72.3983 186.157 72.7936 186.157 73.2736C186.157 73.7442 186.058 74.1536 185.861 74.5018C185.672 74.85 185.371 75.1183 184.957 75.3065C184.552 75.4947 184.021 75.5889 183.362 75.5889H180.397ZM183.249 74.5865C183.748 74.5865 184.152 74.4971 184.463 74.3183C184.773 74.13 184.929 73.8053 184.929 73.3442C184.929 72.883 184.783 72.5724 184.491 72.4124C184.209 72.243 183.799 72.1583 183.263 72.1583H181.625V74.5865H183.249ZM187.329 75.5889V68.0218H188.557V75.5889H187.329Z" fill="#272727"></path></g><defs><clipPath id="clip0_859_16311"><rect width="219.706" height="99.7059" rx="14.1176" fill="white"></rect></clipPath></defs></svg> 