<?xml version="1.0" encoding="UTF-8"?> <svg xmlns="http://www.w3.org/2000/svg" width="298" height="48" viewBox="0 0 298 48" fill="none"><g clip-path="url(#clip0_459_2749)"><path d="M46.3403 1.54948V35.4449C46.3403 41.105 41.735 45.7103 36.0749 45.7103H12.4449C6.78478 45.7103 2.17948 41.105 2.17948 35.4449V11.8149C2.17948 6.15477 6.78478 1.54948 12.4449 1.54948H46.3403ZM47.8899 -0.00012207H12.4449C5.92026 -0.00012207 0.629883 5.29026 0.629883 11.8149V35.4449C0.629883 41.9695 5.92026 47.2599 12.4449 47.2599H36.0749C42.5995 47.2599 47.8899 41.9695 47.8899 35.4449V-0.00012207Z" fill="#3A3A3A"></path><path d="M39.6785 17.7142H34.0021L28.603 23.6244V11.8148H24.226V14.6748C24.0847 14.4899 23.9324 14.3051 23.7639 14.1257C22.1708 12.4401 19.8763 11.5865 16.9456 11.5865C13.5528 11.5865 11.6226 13.1035 10.6004 14.3758C9.33357 15.958 8.76811 18.1165 9.15958 19.8728C10.1763 24.4237 14.3956 25.1523 17.5002 25.5546C19.9524 25.8754 22.2958 26.3158 22.2306 28.5016C22.1653 30.7689 19.6099 31.3235 17.9352 31.3235C13.5691 31.3235 13.4223 28.0938 13.4223 28.0938H8.72461C8.79529 29.3063 9.15958 31.2528 10.6494 32.922C12.2805 34.7489 14.7327 35.6787 17.9352 35.6787C20.3874 35.6787 22.6221 34.8794 24.226 33.4603V35.4122H28.603V29.8391L30.1526 28.1427L34.5784 35.4122H39.6731L33.2354 24.7662L39.6731 17.7088L39.6785 17.7142ZM24.226 23.0481C21.0833 20.4654 14.276 22.0857 13.542 18.8723C13.1559 17.1814 14.8414 15.6861 17.0218 15.6861C18.9846 15.6861 20.9583 16.1265 21.7032 18.8669H24.2206V23.0481H24.226Z" fill="#3A3A3A"></path></g><path d="M72.4899 20.7689V6.8868H77.547C78.7897 6.8868 79.8144 7.07189 80.6208 7.44208C81.4273 7.79905 82.0223 8.30806 82.4057 8.96911C82.8023 9.63016 83.0006 10.4102 83.0006 11.3092C83.0006 12.2083 82.8023 12.9883 82.4057 13.6493C82.0223 14.3104 81.4273 14.826 80.6208 15.1962C79.8144 15.5532 78.7897 15.7317 77.547 15.7317H74.8697V20.7689H72.4899ZM74.8697 13.6692H77.3486C78.6046 13.6692 79.464 13.4775 79.9267 13.0941C80.3895 12.6974 80.6208 12.1025 80.6208 11.3092C80.6208 10.5292 80.3895 9.94085 79.9267 9.54422C79.464 9.14759 78.6046 8.94928 77.3486 8.94928H74.8697V13.6692ZM89.2553 20.987C88.3298 20.987 87.4771 20.7953 86.697 20.4119C85.917 20.0153 85.289 19.4203 84.813 18.6271C84.3371 17.8338 84.0991 16.829 84.0991 15.6127V15.216C84.0991 14.0526 84.3239 13.0875 84.7734 12.3206C85.2361 11.5538 85.8443 10.9853 86.5979 10.6151C87.3515 10.2317 88.1712 10.04 89.057 10.04C90.6567 10.04 91.8797 10.4697 92.7258 11.3291C93.5852 12.1884 94.0149 13.418 94.0149 15.0177V16.1283H86.3202C86.3467 16.8422 86.4987 17.4173 86.7763 17.8536C87.054 18.2899 87.411 18.6072 87.8473 18.8055C88.2835 18.9906 88.7529 19.0832 89.2553 19.0832C90.0089 19.0832 90.5576 18.9642 90.9013 18.7262C91.2583 18.4882 91.5029 18.1775 91.6351 17.7941H93.8165C93.605 18.8386 93.0828 19.6319 92.2498 20.1739C91.4301 20.716 90.432 20.987 89.2553 20.987ZM89.1561 11.9438C88.667 11.9438 88.2108 12.0298 87.7878 12.2016C87.3647 12.3735 87.0209 12.6445 86.7565 13.0147C86.4921 13.3849 86.3467 13.8807 86.3202 14.5021H91.8334C91.8202 13.8411 91.6946 13.3254 91.4566 12.9552C91.2186 12.5851 90.9013 12.3272 90.5047 12.1818C90.108 12.0232 89.6585 11.9438 89.1561 11.9438ZM99.7675 20.987C98.8156 20.987 98.0091 20.8548 97.3481 20.5904C96.687 20.326 96.178 19.9425 95.8211 19.4401C95.4641 18.9245 95.2592 18.3098 95.2063 17.5958H97.4274C97.4803 17.9131 97.5861 18.1842 97.7447 18.4089C97.9166 18.6337 98.1612 18.8055 98.4785 18.9245C98.809 19.0303 99.2255 19.0832 99.7279 19.0832C100.627 19.0832 101.248 18.9378 101.592 18.6469C101.936 18.356 102.108 17.9924 102.108 17.5562C102.108 17.1595 101.956 16.8488 101.652 16.6241C101.361 16.3861 100.845 16.2671 100.105 16.2671H98.3793V14.5616H99.9659C100.574 14.5616 101.017 14.436 101.295 14.1848C101.572 13.9336 101.711 13.6163 101.711 13.2329C101.711 12.8891 101.566 12.5917 101.275 12.3405C100.984 12.076 100.481 11.9438 99.7675 11.9438C99.0007 11.9438 98.4653 12.0694 98.1612 12.3206C97.8703 12.5718 97.6918 12.909 97.6257 13.332H95.4046C95.4575 12.6578 95.6558 12.076 95.9996 11.5869C96.3433 11.0977 96.8325 10.7209 97.4671 10.4565C98.1017 10.1788 98.8685 10.04 99.7675 10.04C101.209 10.04 102.26 10.3243 102.921 10.8928C103.595 11.4613 103.932 12.2016 103.932 13.1139C103.932 13.6163 103.807 14.0592 103.555 14.4426C103.317 14.826 102.921 15.1169 102.365 15.3152C103.106 15.5003 103.615 15.811 103.892 16.2473C104.183 16.6836 104.329 17.186 104.329 17.7545C104.329 18.3626 104.164 18.9113 103.833 19.4005C103.502 19.8897 103 20.2797 102.326 20.5705C101.652 20.8482 100.799 20.987 99.7675 20.987ZM106.216 20.7689V10.2582H108.397V17.695L113.454 10.2582H115.537V20.7689H113.355V13.332L108.298 20.7689H106.216ZM117.031 23.2478V18.9047H118.221C118.406 18.6271 118.565 18.1974 118.697 17.6156C118.829 17.0207 118.928 16.3398 118.994 15.573C119.074 14.8062 119.113 14.0261 119.113 13.2329V10.2582H126.947V18.9047H128.335V23.2478H126.312V20.7689H119.054V23.2478H117.031ZM120.442 18.9047H124.765V12.1223H121.215V13.6295C121.215 14.6475 121.156 15.6259 121.037 16.5646C120.918 17.49 120.72 18.2701 120.442 18.9047ZM134.391 20.987C133.465 20.987 132.612 20.7953 131.832 20.4119C131.052 20.0153 130.424 19.4203 129.948 18.6271C129.472 17.8338 129.234 16.829 129.234 15.6127V15.216C129.234 14.0526 129.459 13.0875 129.909 12.3206C130.371 11.5538 130.98 10.9853 131.733 10.6151C132.487 10.2317 133.306 10.04 134.192 10.04C135.792 10.04 137.015 10.4697 137.861 11.3291C138.72 12.1884 139.15 13.418 139.15 15.0177V16.1283H131.456C131.482 16.8422 131.634 17.4173 131.912 17.8536C132.189 18.2899 132.546 18.6072 132.983 18.8055C133.419 18.9906 133.888 19.0832 134.391 19.0832C135.144 19.0832 135.693 18.9642 136.037 18.7262C136.394 18.4882 136.638 18.1775 136.77 17.7941H138.952C138.74 18.8386 138.218 19.6319 137.385 20.1739C136.565 20.716 135.567 20.987 134.391 20.987ZM134.291 11.9438C133.802 11.9438 133.346 12.0298 132.923 12.2016C132.5 12.3735 132.156 12.6445 131.892 13.0147C131.627 13.3849 131.482 13.8807 131.456 14.5021H136.969C136.955 13.8411 136.83 13.3254 136.592 12.9552C136.354 12.5851 136.037 12.3272 135.64 12.1818C135.243 12.0232 134.794 11.9438 134.291 11.9438ZM141.036 20.7689V10.2582H143.217V14.4823H148.175V10.2582H150.356V20.7689H148.175V16.3464H143.217V20.7689H141.036ZM155.321 20.7689V12.1223H151.851V10.2582H160.973V12.1223H157.503V20.7689H155.321ZM162.461 20.7689V10.2582H164.642V13.9468H166.625C167.974 13.9468 168.972 14.2377 169.62 14.8194C170.268 15.3879 170.592 16.2341 170.592 17.3578C170.592 18.0586 170.453 18.6667 170.175 19.1823C169.898 19.698 169.468 20.0946 168.886 20.3722C168.304 20.6366 167.551 20.7689 166.625 20.7689H162.461ZM164.642 18.9047H166.427C167.154 18.9047 167.663 18.7791 167.954 18.5279C168.258 18.2635 168.41 17.8735 168.41 17.3578C168.41 16.8422 168.258 16.4588 167.954 16.2076C167.663 15.9432 167.154 15.811 166.427 15.811H164.642V18.9047ZM171.98 20.7689V10.2582H174.161V20.7689H171.98ZM183.983 20.7689V12.1223H180.512V10.2582H189.635V12.1223H186.164V20.7689H183.983ZM195.489 20.987C194.564 20.987 193.711 20.7953 192.931 20.4119C192.151 20.0153 191.523 19.4203 191.047 18.6271C190.571 17.8338 190.333 16.829 190.333 15.6127V15.216C190.333 14.0526 190.558 13.0875 191.008 12.3206C191.47 11.5538 192.078 10.9853 192.832 10.6151C193.586 10.2317 194.405 10.04 195.291 10.04C196.891 10.04 198.114 10.4697 198.96 11.3291C199.819 12.1884 200.249 13.418 200.249 15.0177V16.1283H192.554C192.581 16.8422 192.733 17.4173 193.011 17.8536C193.288 18.2899 193.645 18.6072 194.081 18.8055C194.518 18.9906 194.987 19.0832 195.489 19.0832C196.243 19.0832 196.792 18.9642 197.135 18.7262C197.492 18.4882 197.737 18.1775 197.869 17.7941H200.051C199.839 18.8386 199.317 19.6319 198.484 20.1739C197.664 20.716 196.666 20.987 195.489 20.987ZM195.39 11.9438C194.901 11.9438 194.445 12.0298 194.022 12.2016C193.599 12.3735 193.255 12.6445 192.991 13.0147C192.726 13.3849 192.581 13.8807 192.554 14.5021H198.068C198.054 13.8411 197.929 13.3254 197.691 12.9552C197.453 12.5851 197.135 12.3272 196.739 12.1818C196.342 12.0232 195.893 11.9438 195.39 11.9438ZM200.756 20.7689L204.543 15.2954L200.954 10.2582H203.413L205.971 13.7882L208.49 10.2582H210.87L207.32 15.216L211.068 20.7689H208.569L205.892 16.6836L203.175 20.7689H200.756ZM212.547 20.7689V10.2582H214.728V14.4823H219.686V10.2582H221.868V20.7689H219.686V16.3464H214.728V20.7689H212.547ZM228.915 20.987C227.95 20.987 227.077 20.7887 226.297 20.3921C225.517 19.9822 224.896 19.3807 224.433 18.5874C223.983 17.7809 223.759 16.7893 223.759 15.6127V15.216C223.759 14.1055 223.983 13.1668 224.433 12.4C224.896 11.6199 225.517 11.0316 226.297 10.635C227.077 10.2383 227.95 10.04 228.915 10.04C229.893 10.04 230.766 10.2383 231.533 10.635C232.313 11.0316 232.927 11.6199 233.377 12.4C233.84 13.1668 234.071 14.1055 234.071 15.216V15.6127C234.071 16.7893 233.84 17.7809 233.377 18.5874C232.927 19.3807 232.313 19.9822 231.533 20.3921C230.766 20.7887 229.893 20.987 228.915 20.987ZM228.915 19.0832C229.417 19.0832 229.893 18.9642 230.343 18.7262C230.792 18.4882 231.156 18.118 231.433 17.6156C231.711 17.1 231.85 16.4324 231.85 15.6127V15.216C231.85 14.4624 231.711 13.8477 231.433 13.3717C231.156 12.8825 230.792 12.5256 230.343 12.3008C229.893 12.0628 229.417 11.9438 228.915 11.9438C228.412 11.9438 227.936 12.0628 227.487 12.3008C227.037 12.5256 226.674 12.8825 226.396 13.3717C226.119 13.8477 225.98 14.4624 225.98 15.216V15.6127C225.98 16.4324 226.119 17.1 226.396 17.6156C226.674 18.118 227.037 18.4882 227.487 18.7262C227.936 18.9642 228.412 19.0832 228.915 19.0832ZM235.947 20.7689V10.2582H245.07V20.7689H242.888V12.1223H238.129V20.7689H235.947ZM250.615 20.987C249.861 20.987 249.213 20.8482 248.671 20.5705C248.143 20.2797 247.739 19.8831 247.462 19.3807C247.184 18.8783 247.045 18.3164 247.045 17.695C247.045 16.6505 247.356 15.8771 247.977 15.3747C248.599 14.8591 249.511 14.6013 250.714 14.6013H253.986V14.0261C253.986 13.2329 253.808 12.6908 253.451 12.4C253.107 12.0959 252.558 11.9438 251.805 11.9438C251.13 11.9438 250.635 12.0496 250.317 12.2611C250 12.4727 249.815 12.7635 249.762 13.1337H247.64C247.68 12.5256 247.872 11.9901 248.215 11.5274C248.559 11.0646 249.042 10.7011 249.663 10.4366C250.298 10.1722 251.045 10.04 251.904 10.04C252.763 10.04 253.51 10.1722 254.145 10.4366C254.793 10.7011 255.288 11.1175 255.632 11.686C255.989 12.2413 256.168 12.9817 256.168 13.9072V18.0916C256.168 18.6469 256.174 19.1361 256.188 19.5591C256.201 19.969 256.234 20.3722 256.287 20.7689H254.304C254.264 20.4648 254.231 20.207 254.204 19.9954C254.191 19.7839 254.185 19.5195 254.185 19.2022C253.933 19.6913 253.497 20.1144 252.876 20.4714C252.267 20.8151 251.514 20.987 250.615 20.987ZM251.21 19.0832C251.712 19.0832 252.168 18.9972 252.578 18.8254C253.001 18.6535 253.338 18.3957 253.59 18.0519C253.854 17.7082 253.986 17.2917 253.986 16.8026V16.2274H251.111C250.555 16.2274 250.106 16.3464 249.762 16.5844C249.432 16.8224 249.266 17.1727 249.266 17.6355C249.266 18.0718 249.418 18.4221 249.722 18.6866C250.04 18.951 250.536 19.0832 251.21 19.0832ZM258.554 24.7352V10.2582H260.576V12.0232C260.894 11.415 261.363 10.9324 261.985 10.5755C262.619 10.2185 263.333 10.04 264.126 10.04C265.501 10.04 266.585 10.4697 267.379 11.3291C268.172 12.1884 268.569 13.4841 268.569 15.216V15.6127C268.569 16.8026 268.383 17.8007 268.013 18.6072C267.643 19.4005 267.127 19.9954 266.466 20.3921C265.805 20.7887 265.025 20.987 264.126 20.987C263.373 20.987 262.685 20.8217 262.064 20.4912C261.442 20.1607 261 19.698 260.735 19.103V24.7352H258.554ZM263.611 19.0832C264.43 19.0832 265.091 18.7989 265.594 18.2304C266.096 17.6619 266.347 16.7893 266.347 15.6127V15.216C266.347 14.1055 266.103 13.2858 265.614 12.7569C265.124 12.2149 264.457 11.9438 263.611 11.9438C263.122 11.9438 262.652 12.0496 262.203 12.2611C261.766 12.4727 261.409 12.7834 261.132 13.1932C260.867 13.6031 260.735 14.1121 260.735 14.7202V16.1085C260.735 16.7695 260.867 17.3248 261.132 17.7743C261.409 18.2106 261.766 18.5411 262.203 18.7659C262.639 18.9774 263.108 19.0832 263.611 19.0832ZM270.457 20.7689V10.2582H272.639V14.5219H273.829L277.517 10.2582H279.976L275.514 15.2755L280.175 20.7689H277.517L273.829 16.3068H272.639V20.7689H270.457ZM284.544 20.987C283.79 20.987 283.142 20.8482 282.6 20.5705C282.071 20.2797 281.668 19.8831 281.391 19.3807C281.113 18.8783 280.974 18.3164 280.974 17.695C280.974 16.6505 281.285 15.8771 281.906 15.3747C282.528 14.8591 283.44 14.6013 284.643 14.6013H287.915V14.0261C287.915 13.2329 287.737 12.6908 287.38 12.4C287.036 12.0959 286.487 11.9438 285.734 11.9438C285.059 11.9438 284.564 12.0496 284.246 12.2611C283.929 12.4727 283.744 12.7635 283.691 13.1337H281.569C281.609 12.5256 281.8 11.9901 282.144 11.5274C282.488 11.0646 282.97 10.7011 283.592 10.4366C284.226 10.1722 284.973 10.04 285.833 10.04C286.692 10.04 287.439 10.1722 288.074 10.4366C288.722 10.7011 289.217 11.1175 289.561 11.686C289.918 12.2413 290.097 12.9817 290.097 13.9072V18.0916C290.097 18.6469 290.103 19.1361 290.116 19.5591C290.13 19.969 290.163 20.3722 290.216 20.7689H288.232C288.193 20.4648 288.16 20.207 288.133 19.9954C288.12 19.7839 288.113 19.5195 288.113 19.2022C287.862 19.6913 287.426 20.1144 286.805 20.4714C286.196 20.8151 285.443 20.987 284.544 20.987ZM285.139 19.0832C285.641 19.0832 286.097 18.9972 286.507 18.8254C286.93 18.6535 287.267 18.3957 287.519 18.0519C287.783 17.7082 287.915 17.2917 287.915 16.8026V16.2274H285.04C284.484 16.2274 284.035 16.3464 283.691 16.5844C283.361 16.8224 283.195 17.1727 283.195 17.6355C283.195 18.0718 283.347 18.4221 283.651 18.6866C283.969 18.951 284.464 19.0832 285.139 19.0832ZM75.7621 43.9756L71.3992 40.2274V38.4029L75.7621 34.6548V37.0346L73.0849 39.2755L75.7621 41.5165V43.9756ZM80.4225 43.9756L76.0596 40.2274V38.4029L80.4225 34.6548V37.0346L77.7453 39.2755L80.4225 41.5165V43.9756ZM88.3536 44.987C87.2166 44.987 86.1919 44.749 85.2797 44.2731C84.3674 43.7839 83.6403 43.0237 83.0982 41.9924C82.5694 40.948 82.305 39.5928 82.305 37.927V37.5304C82.305 36.3272 82.4636 35.296 82.7809 34.4366C83.0982 33.5641 83.5279 32.8501 84.07 32.2948C84.6253 31.7396 85.2665 31.3297 85.9936 31.0653C86.734 30.8009 87.5207 30.6687 88.3536 30.6687C89.1204 30.6687 89.8343 30.7678 90.4954 30.9661C91.1564 31.1512 91.7382 31.4355 92.2406 31.8189C92.743 32.2023 93.1462 32.6782 93.4503 33.2468C93.7544 33.8153 93.9395 34.4829 94.0056 35.2497H91.5068C91.3349 34.3904 90.9647 33.7624 90.3962 33.3657C89.8409 32.9691 89.1601 32.7708 88.3536 32.7708C87.7719 32.7708 87.21 32.9228 86.6679 33.2269C86.1258 33.5178 85.6763 34.007 85.3194 34.6945C84.9756 35.3819 84.8037 36.3272 84.8037 37.5304V37.927C84.8037 38.8789 84.9095 39.6788 85.121 40.3266C85.3326 40.9612 85.6102 41.4636 85.954 41.8338C86.3109 42.204 86.6943 42.475 87.1042 42.6469C87.5273 42.8055 87.9437 42.8849 88.3536 42.8849C89.3055 42.8849 90.0393 42.6667 90.5549 42.2304C91.0837 41.7809 91.401 41.1727 91.5068 40.4059H94.0056C93.9262 41.2256 93.7279 41.9263 93.4106 42.5081C93.1065 43.0898 92.6967 43.5657 92.1811 43.9359C91.6787 44.2929 91.1035 44.5573 90.4557 44.7292C89.8079 44.9011 89.1072 44.987 88.3536 44.987ZM95.9972 44.7689V34.2582H98.1787V38.5219H99.3686L103.057 34.2582H105.516L101.054 39.2755L105.715 44.7689H103.057L99.3686 40.3068H98.1787V44.7689H95.9972ZM111.377 44.987C110.412 44.987 109.54 44.7887 108.76 44.3921C107.98 43.9822 107.358 43.3807 106.896 42.5874C106.446 41.7809 106.221 40.7893 106.221 39.6127V39.216C106.221 38.1055 106.446 37.1668 106.896 36.4C107.358 35.6199 107.98 35.0316 108.76 34.635C109.54 34.2383 110.412 34.04 111.377 34.04C112.356 34.04 113.228 34.2383 113.995 34.635C114.775 35.0316 115.39 35.6199 115.84 36.4C116.302 37.1668 116.534 38.1055 116.534 39.216V39.6127C116.534 40.7893 116.302 41.7809 115.84 42.5874C115.39 43.3807 114.775 43.9822 113.995 44.3921C113.228 44.7887 112.356 44.987 111.377 44.987ZM111.377 43.0832C111.88 43.0832 112.356 42.9642 112.805 42.7262C113.255 42.4882 113.618 42.118 113.896 41.6156C114.174 41.1 114.313 40.4324 114.313 39.6127V39.216C114.313 38.4624 114.174 37.8477 113.896 37.3717C113.618 36.8825 113.255 36.5256 112.805 36.3008C112.356 36.0628 111.88 35.9438 111.377 35.9438C110.875 35.9438 110.399 36.0628 109.95 36.3008C109.5 36.5256 109.137 36.8825 108.859 37.3717C108.581 37.8477 108.442 38.4624 108.442 39.216V39.6127C108.442 40.4324 108.581 41.1 108.859 41.6156C109.137 42.118 109.5 42.4882 109.95 42.7262C110.399 42.9642 110.875 43.0832 111.377 43.0832ZM118.018 44.987C117.912 44.987 117.793 44.9804 117.661 44.9672C117.542 44.9672 117.43 44.954 117.324 44.9275V42.865C117.364 42.8783 117.463 42.8849 117.621 42.8849C117.992 42.8849 118.289 42.7262 118.514 42.4089C118.752 42.0916 118.924 41.5429 119.029 40.7629C119.148 39.9696 119.208 38.8591 119.208 37.4312V34.2582H127.14V44.7689H124.959V36.1223H121.31V37.8278C121.31 39.2293 121.237 40.3993 121.092 41.338C120.96 42.2635 120.755 42.9906 120.477 43.5195C120.199 44.0483 119.856 44.4251 119.446 44.6499C119.036 44.8746 118.56 44.987 118.018 44.987ZM129.616 44.7689V34.2582H131.798V38.5219H132.988L136.676 34.2582H139.135L134.673 39.2755L139.334 44.7689H136.676L132.988 40.3068H131.798V44.7689H129.616ZM144.997 44.987C144.031 44.987 143.159 44.7887 142.379 44.3921C141.599 43.9822 140.977 43.3807 140.515 42.5874C140.065 41.7809 139.84 40.7893 139.84 39.6127V39.216C139.84 38.1055 140.065 37.1668 140.515 36.4C140.977 35.6199 141.599 35.0316 142.379 34.635C143.159 34.2383 144.031 34.04 144.997 34.04C145.975 34.04 146.847 34.2383 147.614 34.635C148.394 35.0316 149.009 35.6199 149.459 36.4C149.921 37.1668 150.153 38.1055 150.153 39.216V39.6127C150.153 40.7893 149.921 41.7809 149.459 42.5874C149.009 43.3807 148.394 43.9822 147.614 44.3921C146.847 44.7887 145.975 44.987 144.997 44.987ZM144.997 43.0832C145.499 43.0832 145.975 42.9642 146.424 42.7262C146.874 42.4882 147.238 42.118 147.515 41.6156C147.793 41.1 147.932 40.4324 147.932 39.6127V39.216C147.932 38.4624 147.793 37.8477 147.515 37.3717C147.238 36.8825 146.874 36.5256 146.424 36.3008C145.975 36.0628 145.499 35.9438 144.997 35.9438C144.494 35.9438 144.018 36.0628 143.569 36.3008C143.119 36.5256 142.756 36.8825 142.478 37.3717C142.2 37.8477 142.061 38.4624 142.061 39.216V39.6127C142.061 40.4324 142.2 41.1 142.478 41.6156C142.756 42.118 143.119 42.4882 143.569 42.7262C144.018 42.9642 144.494 43.0832 144.997 43.0832ZM152.029 44.7689V34.2582H156.987C157.873 34.2582 158.587 34.3838 159.129 34.635C159.684 34.8729 160.094 35.2101 160.358 35.6464C160.623 36.0694 160.755 36.5586 160.755 37.1139C160.755 37.5766 160.616 38.0261 160.338 38.4624C160.061 38.8855 159.671 39.1698 159.168 39.3152C159.816 39.4738 160.305 39.7779 160.636 40.2274C160.98 40.6637 161.151 41.1794 161.151 41.7743C161.151 42.6866 160.847 43.4137 160.239 43.9558C159.631 44.4978 158.679 44.7689 157.384 44.7689H152.029ZM154.21 42.9047H157.086C157.8 42.9047 158.289 42.7923 158.554 42.5676C158.831 42.3296 158.97 41.9991 158.97 41.576C158.97 41.1529 158.831 40.8356 158.554 40.6241C158.289 40.3993 157.8 40.2869 157.086 40.2869H154.21V42.9047ZM154.21 38.5814H156.789C157.45 38.5814 157.912 38.4757 158.177 38.2641C158.441 38.0394 158.573 37.7353 158.573 37.3519C158.573 36.9685 158.441 36.671 158.177 36.4595C157.912 36.2347 157.45 36.1223 156.789 36.1223H154.21V38.5814ZM167.603 44.987C166.638 44.987 165.765 44.7887 164.985 44.3921C164.205 43.9822 163.584 43.3807 163.121 42.5874C162.671 41.7809 162.447 40.7893 162.447 39.6127V39.216C162.447 38.1055 162.671 37.1668 163.121 36.4C163.584 35.6199 164.205 35.0316 164.985 34.635C165.765 34.2383 166.638 34.04 167.603 34.04C168.581 34.04 169.454 34.2383 170.221 34.635C171.001 35.0316 171.616 35.6199 172.065 36.4C172.528 37.1668 172.759 38.1055 172.759 39.216V39.6127C172.759 40.7893 172.528 41.7809 172.065 42.5874C171.616 43.3807 171.001 43.9822 170.221 44.3921C169.454 44.7887 168.581 44.987 167.603 44.987ZM167.603 43.0832C168.105 43.0832 168.581 42.9642 169.031 42.7262C169.48 42.4882 169.844 42.118 170.122 41.6156C170.399 41.1 170.538 40.4324 170.538 39.6127V39.216C170.538 38.4624 170.399 37.8477 170.122 37.3717C169.844 36.8825 169.48 36.5256 169.031 36.3008C168.581 36.0628 168.105 35.9438 167.603 35.9438C167.101 35.9438 166.625 36.0628 166.175 36.3008C165.726 36.5256 165.362 36.8825 165.084 37.3717C164.807 37.8477 164.668 38.4624 164.668 39.216V39.6127C164.668 40.4324 164.807 41.1 165.084 41.6156C165.362 42.118 165.726 42.4882 166.175 42.7262C166.625 42.9642 167.101 43.0832 167.603 43.0832ZM174.338 34.6548L178.701 38.4029V40.2274L174.338 43.9756V41.5958L177.015 39.3549L174.338 37.1139V34.6548ZM178.998 34.6548L183.361 38.4029V40.2274L178.998 43.9756V41.5958L181.676 39.3549L178.998 37.1139V34.6548Z" fill="#444444"></path><defs><clipPath id="clip0_459_2749"><rect width="47.26" height="47.26" fill="white" transform="translate(0.629883)"></rect></clipPath></defs></svg> 