<?xml version="1.0" encoding="UTF-8"?> <svg xmlns="http://www.w3.org/2000/svg" width="66" height="66" viewBox="0 0 66 66" fill="none"><rect x="0.168945" y="0.804688" width="65.0729" height="65.0729" rx="6.29738" fill="#FFD900"></rect><path fill-rule="evenodd" clip-rule="evenodd" d="M37.2177 36.74C34.6772 41.8161 35.4915 45.5079 39.7256 45.5079C44.0911 45.5079 48.3904 41.8491 50.8668 36.74C53.4073 31.565 52.4953 27.9062 48.3904 27.9062C44.3191 27.9062 39.693 31.631 37.2177 36.74ZM47.8692 31.9605C48.8464 31.9605 48.6509 33.9383 47.0224 36.707C45.4265 39.377 43.7002 41.4206 42.6254 41.4206C41.6157 41.4206 41.8112 39.4428 43.4722 36.707C45.0682 34.0041 46.7944 31.9605 47.8692 31.9605Z" fill="#3A3A3A"></path><path d="M33.504 31.7962C35.6536 27.9067 36.1096 23.9842 34.4485 23.9842C32.2979 23.9842 28.6174 28.0385 25.4907 33.5432C22.3955 39.0149 21.6137 43.0692 23.6005 43.0692C25.2511 43.0692 27.945 40.693 30.5632 36.8394H25.7512L27.6403 33.741H37.2496C32.2001 43.1022 25.0662 49.7934 17.7048 49.7934C11.2224 49.7934 10.6361 42.5419 15.6852 33.1807C20.5062 24.2479 28.1614 17.293 34.9697 17.293C39.1712 17.293 42.8853 21.3473 37.9987 31.7962H33.504Z" fill="#3A3A3A"></path></svg> 