<?xml version="1.0" encoding="UTF-8"?> <svg xmlns="http://www.w3.org/2000/svg" width="97" height="46" viewBox="0 0 97 46" fill="none"><path d="M94.4444 11.2828H93.7392V7.05175C93.7392 3.10277 84.995 0 73.9943 0C62.9936 0 54.2494 3.10277 54.2494 7.05175V11.2828H53.5442C52.3763 11.2828 51.4287 12.2295 51.4287 13.3983V20.4501C51.4287 21.618 52.3763 22.5656 53.5442 22.5656H54.2494V36.6691C54.2494 38.2266 55.5126 39.4898 57.0701 39.4898V42.3105C57.0701 43.868 58.3333 45.1312 59.8908 45.1312H62.7115C64.2691 45.1312 65.5322 43.868 65.5322 42.3105V39.4898H82.4564V42.3105C82.4564 43.868 83.7195 45.1312 85.2771 45.1312H88.0978C89.6553 45.1312 90.9185 43.868 90.9185 42.3105V39.4898H91.4826C92.893 39.4898 93.7392 38.3615 93.7392 37.2332V22.5656H94.4444C95.6123 22.5656 96.5599 21.618 96.5599 20.4501V13.3983C96.5599 12.2295 95.6123 11.2828 94.4444 11.2828ZM61.3012 35.2587C59.7436 35.2587 58.4805 33.9956 58.4805 32.438C58.4805 30.8805 59.7436 29.6173 61.3012 29.6173C62.8587 29.6173 64.1219 30.8805 64.1219 32.438C64.1219 33.9956 62.8587 35.2587 61.3012 35.2587ZM62.7115 25.3863C61.154 25.3863 59.8908 24.1231 59.8908 22.5656V11.2828C59.8908 9.72524 61.154 8.46209 62.7115 8.46209H85.2771C86.8346 8.46209 88.0978 9.72524 88.0978 11.2828V22.5656C88.0978 24.1231 86.8346 25.3863 85.2771 25.3863H62.7115ZM86.6874 35.2587C85.1299 35.2587 83.8667 33.9956 83.8667 32.438C83.8667 30.8805 85.1299 29.6173 86.6874 29.6173C88.245 29.6173 89.5081 30.8805 89.5081 32.438C89.5081 33.9956 88.245 35.2587 86.6874 35.2587Z" fill="#3A3A3A"></path><path d="M43.0157 11.2828H42.3105V7.05175C42.3105 3.10277 33.5663 0 22.5656 0C11.5649 0 2.8207 3.10277 2.8207 7.05175V11.2828H2.11552C0.947579 11.2828 0 12.2295 0 13.3983V20.4501C0 21.618 0.947579 22.5656 2.11552 22.5656H2.8207V36.6691C2.8207 38.2266 4.08385 39.4898 5.6414 39.4898V42.3105C5.6414 43.868 6.90454 45.1312 8.4621 45.1312H11.2828C12.8404 45.1312 14.1035 43.868 14.1035 42.3105V39.4898H31.0277V42.3105C31.0277 43.868 32.2908 45.1312 33.8484 45.1312H36.6691C38.2266 45.1312 39.4898 43.868 39.4898 42.3105V39.4898H40.0539C41.4643 39.4898 42.3105 38.3615 42.3105 37.2332V22.5656H43.0157C44.1836 22.5656 45.1312 21.618 45.1312 20.4501V13.3983C45.1312 12.2295 44.1836 11.2828 43.0157 11.2828ZM9.87245 35.2587C8.31489 35.2587 7.05175 33.9956 7.05175 32.438C7.05175 30.8805 8.31489 29.6173 9.87245 29.6173C11.43 29.6173 12.6931 30.8805 12.6931 32.438C12.6931 33.9956 11.43 35.2587 9.87245 35.2587ZM11.2828 25.3863C9.72524 25.3863 8.4621 24.1231 8.4621 22.5656V11.2828C8.4621 9.72524 9.72524 8.46209 11.2828 8.46209H33.8484C35.4059 8.46209 36.6691 9.72524 36.6691 11.2828V22.5656C36.6691 24.1231 35.4059 25.3863 33.8484 25.3863H11.2828ZM35.2587 35.2587C33.7012 35.2587 32.438 33.9956 32.438 32.438C32.438 30.8805 33.7012 29.6173 35.2587 29.6173C36.8163 29.6173 38.0794 30.8805 38.0794 32.438C38.0794 33.9956 36.8163 35.2587 35.2587 35.2587Z" fill="#D3D3D3"></path></svg> 