<?xml version="1.0" encoding="UTF-8"?> <svg xmlns="http://www.w3.org/2000/svg" width="365" height="53" viewBox="0 0 365 53" fill="none"><path d="M72.7848 21V7.11794H78.3377C79.911 7.11794 81.0612 7.45508 81.7883 8.12935C82.5287 8.80362 82.8989 9.70265 82.8989 10.8264C82.8989 11.5404 82.7138 12.1551 82.3436 12.6708C81.9734 13.1732 81.4644 13.5367 80.8166 13.7615C81.6363 13.9466 82.2841 14.3234 82.7601 14.8919C83.2493 15.4472 83.4939 16.1743 83.4939 17.0734C83.4939 17.8402 83.3286 18.5211 82.9981 19.116C82.6675 19.711 82.1453 20.1737 81.4314 20.5042C80.7174 20.8347 79.792 21 78.655 21H72.7848ZM75.1646 18.9375H78.3972C79.4284 18.9375 80.1357 18.7723 80.5191 18.4417C80.9158 18.1112 81.1141 17.6022 81.1141 16.9147C81.1141 16.2404 80.9158 15.7248 80.5191 15.3679C80.1225 14.9977 79.4086 14.8126 78.3773 14.8126H75.1646V18.9375ZM75.1646 12.9087H78.0402C78.9657 12.9087 79.6069 12.7369 79.9638 12.3931C80.334 12.0494 80.5191 11.5866 80.5191 11.0049C80.5191 10.41 80.3406 9.96046 79.9837 9.65637C79.6267 9.33907 78.9789 9.18042 78.0402 9.18042H75.1646V12.9087ZM84.2879 21L88.0757 15.5265L84.4862 10.4893H86.9453L89.5036 14.0193L92.0222 10.4893H94.402L90.8521 15.4472L94.6003 21H92.1015L89.4242 16.9147L86.7073 21H84.2879ZM100.253 21.2181C99.2879 21.2181 98.4153 21.0198 97.6353 20.6232C96.8552 20.2133 96.2338 19.6118 95.7711 18.8185C95.3216 18.0121 95.0968 17.0205 95.0968 15.8438V15.4472C95.0968 14.3366 95.3216 13.3979 95.7711 12.6311C96.2338 11.8511 96.8552 11.2627 97.6353 10.8661C98.4153 10.4695 99.2879 10.2712 100.253 10.2712C101.231 10.2712 102.104 10.4695 102.871 10.8661C103.651 11.2627 104.266 11.8511 104.715 12.6311C105.178 13.3979 105.409 14.3366 105.409 15.4472V15.8438C105.409 17.0205 105.178 18.0121 104.715 18.8185C104.266 19.6118 103.651 20.2133 102.871 20.6232C102.104 21.0198 101.231 21.2181 100.253 21.2181ZM100.253 19.3143C100.755 19.3143 101.231 19.1953 101.681 18.9574C102.13 18.7194 102.494 18.3492 102.772 17.8468C103.049 17.3312 103.188 16.6635 103.188 15.8438V15.4472C103.188 14.6936 103.049 14.0788 102.772 13.6028C102.494 13.1137 102.13 12.7567 101.681 12.5319C101.231 12.294 100.755 12.175 100.253 12.175C99.7506 12.175 99.2747 12.294 98.8252 12.5319C98.3756 12.7567 98.0121 13.1137 97.7344 13.6028C97.4568 14.0788 97.318 14.6936 97.318 15.4472V15.8438C97.318 16.6635 97.4568 17.3312 97.7344 17.8468C98.0121 18.3492 98.3756 18.7194 98.8252 18.9574C99.2747 19.1953 99.7506 19.3143 100.253 19.3143ZM106.197 23.4789V19.1358H107.387C107.572 18.8582 107.731 18.4285 107.863 17.8468C107.995 17.2518 108.094 16.571 108.16 15.8041C108.24 15.0373 108.279 14.2573 108.279 13.464V10.4893H116.113V19.1358H117.501V23.4789H115.478V21H108.22V23.4789H106.197ZM109.608 19.1358H113.931V12.3535H110.382V13.8607C110.382 14.8787 110.322 15.857 110.203 16.7957C110.084 17.7212 109.886 18.5012 109.608 19.1358ZM119.092 21V10.4893H121.274V17.9261L126.331 10.4893H128.413V21H126.232V13.5632L121.175 21H119.092ZM130.899 21V10.4893H133.358L136.71 16.6371L140.061 10.4893H142.401V21H140.22V13.7615L137.443 18.8185H135.857L133.08 13.7615V21H130.899ZM149.535 21V10.4893H154.493C155.379 10.4893 156.093 10.6149 156.635 10.8661C157.19 11.1041 157.6 11.4412 157.864 11.8775C158.129 12.3006 158.261 12.7898 158.261 13.345C158.261 13.8078 158.122 14.2573 157.845 14.6936C157.567 15.1167 157.177 15.4009 156.674 15.5463C157.322 15.705 157.811 16.0091 158.142 16.4586C158.486 16.8949 158.658 17.4105 158.658 18.0054C158.658 18.9177 158.354 19.6448 157.745 20.1869C157.137 20.729 156.185 21 154.89 21H149.535ZM151.717 19.1358H154.592C155.306 19.1358 155.795 19.0235 156.06 18.7987C156.337 18.5607 156.476 18.2302 156.476 17.8071C156.476 17.3841 156.337 17.0667 156.06 16.8552C155.795 16.6305 155.306 16.5181 154.592 16.5181H151.717V19.1358ZM151.717 14.8126H154.295C154.956 14.8126 155.418 14.7068 155.683 14.4953C155.947 14.2705 156.08 13.9664 156.08 13.583C156.08 13.1996 155.947 12.9021 155.683 12.6906C155.418 12.4658 154.956 12.3535 154.295 12.3535H151.717V14.8126ZM165.208 24.9663V10.4893H167.231V12.2543C167.548 11.6461 168.018 11.1636 168.639 10.8066C169.274 10.4496 169.988 10.2712 170.781 10.2712C172.156 10.2712 173.24 10.7008 174.033 11.5602C174.826 12.4196 175.223 13.7152 175.223 15.4472V15.8438C175.223 17.0337 175.038 18.0319 174.668 18.8384C174.298 19.6316 173.782 20.2266 173.121 20.6232C172.46 21.0198 171.68 21.2181 170.781 21.2181C170.027 21.2181 169.34 21.0529 168.718 20.7224C168.097 20.3918 167.654 19.9291 167.39 19.3342V24.9663H165.208ZM170.265 19.3143C171.085 19.3143 171.746 19.0301 172.248 18.4616C172.751 17.8931 173.002 17.0205 173.002 15.8438V15.4472C173.002 14.3366 172.757 13.5169 172.268 12.9881C171.779 12.446 171.111 12.175 170.265 12.175C169.776 12.175 169.307 12.2807 168.857 12.4923C168.421 12.7038 168.064 13.0145 167.786 13.4244C167.522 13.8342 167.39 14.3432 167.39 14.9514V16.3396C167.39 17.0006 167.522 17.5559 167.786 18.0054C168.064 18.4417 168.421 18.7723 168.857 18.997C169.293 19.2086 169.763 19.3143 170.265 19.3143ZM181.673 21.2181C180.748 21.2181 179.895 21.0264 179.115 20.643C178.335 20.2464 177.707 19.6515 177.231 18.8582C176.755 18.0649 176.517 17.0601 176.517 15.8438V15.4472C176.517 14.2837 176.742 13.3186 177.191 12.5518C177.654 11.785 178.262 11.2165 179.016 10.8463C179.769 10.4629 180.589 10.2712 181.475 10.2712C183.074 10.2712 184.297 10.7008 185.144 11.5602C186.003 12.4196 186.433 13.6491 186.433 15.2489V16.3594H178.738C178.764 17.0734 178.916 17.6485 179.194 18.0848C179.472 18.5211 179.829 18.8384 180.265 19.0367C180.701 19.2218 181.171 19.3143 181.673 19.3143C182.427 19.3143 182.975 19.1953 183.319 18.9574C183.676 18.7194 183.921 18.4087 184.053 18.0253H186.234C186.023 19.0697 185.5 19.863 184.668 20.4051C183.848 20.9471 182.85 21.2181 181.673 21.2181ZM181.574 12.175C181.085 12.175 180.629 12.2609 180.205 12.4328C179.782 12.6047 179.439 12.8757 179.174 13.2459C178.91 13.6161 178.764 14.1119 178.738 14.7332H184.251C184.238 14.0722 184.112 13.5566 183.874 13.1864C183.636 12.8162 183.319 12.5584 182.922 12.413C182.526 12.2543 182.076 12.175 181.574 12.175ZM192.879 21.2181C191.954 21.2181 191.101 21.0264 190.321 20.643C189.541 20.2464 188.913 19.6515 188.437 18.8582C187.961 18.0649 187.723 17.0601 187.723 15.8438V15.4472C187.723 14.2837 187.948 13.3186 188.397 12.5518C188.86 11.785 189.468 11.2165 190.222 10.8463C190.976 10.4629 191.795 10.2712 192.681 10.2712C194.281 10.2712 195.504 10.7008 196.35 11.5602C197.209 12.4196 197.639 13.6491 197.639 15.2489V16.3594H189.944C189.971 17.0734 190.123 17.6485 190.4 18.0848C190.678 18.5211 191.035 18.8384 191.471 19.0367C191.908 19.2218 192.377 19.3143 192.879 19.3143C193.633 19.3143 194.182 19.1953 194.525 18.9574C194.882 18.7194 195.127 18.4087 195.259 18.0253H197.441C197.229 19.0697 196.707 19.863 195.874 20.4051C195.054 20.9471 194.056 21.2181 192.879 21.2181ZM192.78 12.175C192.291 12.175 191.835 12.2609 191.412 12.4328C190.989 12.6047 190.645 12.8757 190.381 13.2459C190.116 13.6161 189.971 14.1119 189.944 14.7332H195.457C195.444 14.0722 195.319 13.5566 195.081 13.1864C194.843 12.8162 194.525 12.5584 194.129 12.413C193.732 12.2543 193.283 12.175 192.78 12.175ZM203.887 21.2181C202.949 21.2181 202.103 21.0198 201.349 20.6232C200.595 20.2266 200 19.6316 199.564 18.8384C199.141 18.0451 198.93 17.0469 198.93 15.8438V15.4472C198.93 14.3102 199.154 13.3583 199.604 12.5914C200.067 11.8246 200.675 11.2495 201.428 10.8661C202.182 10.4695 203.002 10.2712 203.887 10.2712C204.813 10.2712 205.593 10.4298 206.228 10.7471C206.875 11.0644 207.378 11.4941 207.735 12.0362C208.105 12.5782 208.343 13.1864 208.449 13.8607H206.228C206.095 13.3715 205.857 12.9682 205.514 12.6509C205.17 12.3336 204.628 12.175 203.887 12.175C203.398 12.175 202.942 12.2874 202.519 12.5121C202.109 12.7369 201.779 13.0938 201.527 13.583C201.276 14.059 201.151 14.6804 201.151 15.4472V15.8438C201.151 16.6767 201.276 17.351 201.527 17.8666C201.779 18.369 202.109 18.7392 202.519 18.9772C202.942 19.2019 203.398 19.3143 203.887 19.3143C204.509 19.3143 205.011 19.1755 205.395 18.8979C205.778 18.6202 206.056 18.1971 206.228 17.6286H208.449C208.316 18.369 208.039 19.0102 207.616 19.5523C207.206 20.0811 206.684 20.491 206.049 20.7819C205.414 21.0727 204.694 21.2181 203.887 21.2181ZM212.706 21V12.3535H209.236V10.4893H218.358V12.3535H214.888V21H212.706ZM219.846 24.9663V10.4893H221.868V12.2543C222.186 11.6461 222.655 11.1636 223.276 10.8066C223.911 10.4496 224.625 10.2712 225.418 10.2712C226.793 10.2712 227.877 10.7008 228.671 11.5602C229.464 12.4196 229.86 13.7152 229.86 15.4472V15.8438C229.86 17.0337 229.675 18.0319 229.305 18.8384C228.935 19.6316 228.419 20.2266 227.758 20.6232C227.097 21.0198 226.317 21.2181 225.418 21.2181C224.665 21.2181 223.977 21.0529 223.356 20.7224C222.734 20.3918 222.291 19.9291 222.027 19.3342V24.9663H219.846ZM224.903 19.3143C225.722 19.3143 226.383 19.0301 226.886 18.4616C227.388 17.8931 227.639 17.0205 227.639 15.8438V15.4472C227.639 14.3366 227.395 13.5169 226.906 12.9881C226.416 12.446 225.749 12.175 224.903 12.175C224.413 12.175 223.944 12.2807 223.495 12.4923C223.058 12.7038 222.701 13.0145 222.424 13.4244C222.159 13.8342 222.027 14.3432 222.027 14.9514V16.3396C222.027 17.0006 222.159 17.5559 222.424 18.0054C222.701 18.4417 223.058 18.7723 223.495 18.997C223.931 19.2086 224.4 19.3143 224.903 19.3143ZM236.41 24.9663V10.4893H238.432V12.2543C238.75 11.6461 239.219 11.1636 239.84 10.8066C240.475 10.4496 241.189 10.2712 241.982 10.2712C243.357 10.2712 244.441 10.7008 245.235 11.5602C246.028 12.4196 246.424 13.7152 246.424 15.4472V15.8438C246.424 17.0337 246.239 18.0319 245.869 18.8384C245.499 19.6316 244.983 20.2266 244.322 20.6232C243.661 21.0198 242.881 21.2181 241.982 21.2181C241.229 21.2181 240.541 21.0529 239.92 20.7224C239.298 20.3918 238.855 19.9291 238.591 19.3342V24.9663H236.41ZM241.467 19.3143C242.286 19.3143 242.947 19.0301 243.45 18.4616C243.952 17.8931 244.203 17.0205 244.203 15.8438V15.4472C244.203 14.3366 243.959 13.5169 243.47 12.9881C242.98 12.446 242.313 12.175 241.467 12.175C240.977 12.175 240.508 12.2807 240.059 12.4923C239.622 12.7038 239.265 13.0145 238.988 13.4244C238.723 13.8342 238.591 14.3432 238.591 14.9514V16.3396C238.591 17.0006 238.723 17.5559 238.988 18.0054C239.265 18.4417 239.622 18.7723 240.059 18.997C240.495 19.2086 240.964 19.3143 241.467 19.3143ZM252.874 21.2181C251.909 21.2181 251.037 21.0198 250.257 20.6232C249.477 20.2133 248.855 19.6118 248.392 18.8185C247.943 18.0121 247.718 17.0205 247.718 15.8438V15.4472C247.718 14.3366 247.943 13.3979 248.392 12.6311C248.855 11.8511 249.477 11.2627 250.257 10.8661C251.037 10.4695 251.909 10.2712 252.874 10.2712C253.853 10.2712 254.725 10.4695 255.492 10.8661C256.272 11.2627 256.887 11.8511 257.336 12.6311C257.799 13.3979 258.031 14.3366 258.031 15.4472V15.8438C258.031 17.0205 257.799 18.0121 257.336 18.8185C256.887 19.6118 256.272 20.2133 255.492 20.6232C254.725 21.0198 253.853 21.2181 252.874 21.2181ZM252.874 19.3143C253.377 19.3143 253.853 19.1953 254.302 18.9574C254.752 18.7194 255.115 18.3492 255.393 17.8468C255.671 17.3312 255.809 16.6635 255.809 15.8438V15.4472C255.809 14.6936 255.671 14.0788 255.393 13.6028C255.115 13.1137 254.752 12.7567 254.302 12.5319C253.853 12.294 253.377 12.175 252.874 12.175C252.372 12.175 251.896 12.294 251.446 12.5319C250.997 12.7567 250.633 13.1137 250.356 13.6028C250.078 14.0788 249.939 14.6936 249.939 15.4472V15.8438C249.939 16.6635 250.078 17.3312 250.356 17.8468C250.633 18.3492 250.997 18.7194 251.446 18.9574C251.896 19.1953 252.372 19.3143 252.874 19.3143ZM264.27 21.2181C263.331 21.2181 262.485 21.0198 261.731 20.6232C260.978 20.2266 260.383 19.6316 259.946 18.8384C259.523 18.0451 259.312 17.0469 259.312 15.8438V15.4472C259.312 14.3102 259.537 13.3583 259.986 12.5914C260.449 11.8246 261.057 11.2495 261.811 10.8661C262.564 10.4695 263.384 10.2712 264.27 10.2712C265.195 10.2712 265.975 10.4298 266.61 10.7471C267.258 11.0644 267.76 11.4941 268.117 12.0362C268.487 12.5782 268.725 13.1864 268.831 13.8607H266.61C266.478 13.3715 266.24 12.9682 265.896 12.6509C265.552 12.3336 265.01 12.175 264.27 12.175C263.781 12.175 263.324 12.2874 262.901 12.5121C262.491 12.7369 262.161 13.0938 261.91 13.583C261.659 14.059 261.533 14.6804 261.533 15.4472V15.8438C261.533 16.6767 261.659 17.351 261.91 17.8666C262.161 18.369 262.491 18.7392 262.901 18.9772C263.324 19.2019 263.781 19.3143 264.27 19.3143C264.891 19.3143 265.393 19.1755 265.777 18.8979C266.16 18.6202 266.438 18.1971 266.61 17.6286H268.831C268.699 18.369 268.421 19.0102 267.998 19.5523C267.588 20.0811 267.066 20.491 266.431 20.7819C265.797 21.0727 265.076 21.2181 264.27 21.2181ZM274.973 21.2181C274.034 21.2181 273.188 21.0198 272.434 20.6232C271.68 20.2266 271.086 19.6316 270.649 18.8384C270.226 18.0451 270.015 17.0469 270.015 15.8438V15.4472C270.015 14.3102 270.239 13.3583 270.689 12.5914C271.152 11.8246 271.76 11.2495 272.513 10.8661C273.267 10.4695 274.087 10.2712 274.973 10.2712C275.898 10.2712 276.678 10.4298 277.313 10.7471C277.96 11.0644 278.463 11.4941 278.82 12.0362C279.19 12.5782 279.428 13.1864 279.534 13.8607H277.313C277.18 13.3715 276.942 12.9682 276.599 12.6509C276.255 12.3336 275.713 12.175 274.973 12.175C274.483 12.175 274.027 12.2874 273.604 12.5121C273.194 12.7369 272.864 13.0938 272.613 13.583C272.361 14.059 272.236 14.6804 272.236 15.4472V15.8438C272.236 16.6767 272.361 17.351 272.613 17.8666C272.864 18.369 273.194 18.7392 273.604 18.9772C274.027 19.2019 274.483 19.3143 274.973 19.3143C275.594 19.3143 276.096 19.1755 276.48 18.8979C276.863 18.6202 277.141 18.1971 277.313 17.6286H279.534C279.402 18.369 279.124 19.0102 278.701 19.5523C278.291 20.0811 277.769 20.491 277.134 20.7819C276.5 21.0727 275.779 21.2181 274.973 21.2181ZM281.312 21V10.4893H283.494V17.9261L288.551 10.4893H290.633V21H288.452V13.5632L283.395 21H281.312ZM293.119 21V10.4893H295.301V17.9261L300.358 10.4893H302.44V21H300.258V13.5632L295.201 21H293.119ZM297.76 9.29941C296.676 9.29941 295.876 9.06143 295.36 8.58547C294.858 8.09629 294.606 7.4088 294.606 6.523H296.629C296.629 6.99895 296.722 7.3427 296.907 7.55423C297.105 7.76577 297.396 7.87154 297.78 7.87154C298.163 7.87154 298.447 7.76577 298.632 7.55423C298.831 7.3427 298.93 6.99895 298.93 6.523H300.953C300.953 7.4088 300.695 8.09629 300.179 8.58547C299.664 9.06143 298.857 9.29941 297.76 9.29941ZM309.289 21.2181C308.35 21.2181 307.504 21.0198 306.75 20.6232C305.997 20.2266 305.402 19.6316 304.966 18.8384C304.542 18.0451 304.331 17.0469 304.331 15.8438V15.4472C304.331 14.3102 304.556 13.3583 305.005 12.5914C305.468 11.8246 306.076 11.2495 306.83 10.8661C307.583 10.4695 308.403 10.2712 309.289 10.2712C310.214 10.2712 310.994 10.4298 311.629 10.7471C312.277 11.0644 312.779 11.4941 313.136 12.0362C313.506 12.5782 313.744 13.1864 313.85 13.8607H311.629C311.497 13.3715 311.259 12.9682 310.915 12.6509C310.571 12.3336 310.029 12.175 309.289 12.175C308.8 12.175 308.343 12.2874 307.92 12.5121C307.511 12.7369 307.18 13.0938 306.929 13.583C306.678 14.059 306.552 14.6804 306.552 15.4472V15.8438C306.552 16.6767 306.678 17.351 306.929 17.8666C307.18 18.369 307.511 18.7392 307.92 18.9772C308.343 19.2019 308.8 19.3143 309.289 19.3143C309.91 19.3143 310.413 19.1755 310.796 18.8979C311.179 18.6202 311.457 18.1971 311.629 17.6286H313.85C313.718 18.369 313.44 19.0102 313.017 19.5523C312.607 20.0811 312.085 20.491 311.45 20.7819C310.816 21.0727 310.095 21.2181 309.289 21.2181ZM315.629 21V10.4893H317.81V14.7531H319L322.689 10.4893H325.148L320.686 15.5067L325.346 21H322.689L319 16.5379H317.81V21H315.629ZM331.009 21.2181C330.044 21.2181 329.171 21.0198 328.391 20.6232C327.611 20.2133 326.99 19.6118 326.527 18.8185C326.078 18.0121 325.853 17.0205 325.853 15.8438V15.4472C325.853 14.3366 326.078 13.3979 326.527 12.6311C326.99 11.8511 327.611 11.2627 328.391 10.8661C329.171 10.4695 330.044 10.2712 331.009 10.2712C331.987 10.2712 332.86 10.4695 333.627 10.8661C334.407 11.2627 335.022 11.8511 335.471 12.6311C335.934 13.3979 336.165 14.3366 336.165 15.4472V15.8438C336.165 17.0205 335.934 18.0121 335.471 18.8185C335.022 19.6118 334.407 20.2133 333.627 20.6232C332.86 21.0198 331.987 21.2181 331.009 21.2181ZM331.009 19.3143C331.511 19.3143 331.987 19.1953 332.437 18.9574C332.886 18.7194 333.25 18.3492 333.528 17.8468C333.805 17.3312 333.944 16.6635 333.944 15.8438V15.4472C333.944 14.6936 333.805 14.0788 333.528 13.6028C333.25 13.1137 332.886 12.7567 332.437 12.5319C331.987 12.294 331.511 12.175 331.009 12.175C330.507 12.175 330.031 12.294 329.581 12.5319C329.132 12.7567 328.768 13.1137 328.49 13.6028C328.213 14.0788 328.074 14.6936 328.074 15.4472V15.8438C328.074 16.6635 328.213 17.3312 328.49 17.8468C328.768 18.3492 329.132 18.7194 329.581 18.9574C330.031 19.1953 330.507 19.3143 331.009 19.3143ZM338.041 21V10.4893H345.379V12.3535H340.223V21H338.041ZM351.233 21.2181C350.268 21.2181 349.395 21.0198 348.615 20.6232C347.835 20.2133 347.214 19.6118 346.751 18.8185C346.302 18.0121 346.077 17.0205 346.077 15.8438V15.4472C346.077 14.3366 346.302 13.3979 346.751 12.6311C347.214 11.8511 347.835 11.2627 348.615 10.8661C349.395 10.4695 350.268 10.2712 351.233 10.2712C352.212 10.2712 353.084 10.4695 353.851 10.8661C354.631 11.2627 355.246 11.8511 355.695 12.6311C356.158 13.3979 356.389 14.3366 356.389 15.4472V15.8438C356.389 17.0205 356.158 18.0121 355.695 18.8185C355.246 19.6118 354.631 20.2133 353.851 20.6232C353.084 21.0198 352.212 21.2181 351.233 21.2181ZM351.233 19.3143C351.736 19.3143 352.212 19.1953 352.661 18.9574C353.111 18.7194 353.474 18.3492 353.752 17.8468C354.029 17.3312 354.168 16.6635 354.168 15.8438V15.4472C354.168 14.6936 354.029 14.0788 353.752 13.6028C353.474 13.1137 353.111 12.7567 352.661 12.5319C352.212 12.294 351.736 12.175 351.233 12.175C350.731 12.175 350.255 12.294 349.805 12.5319C349.356 12.7567 348.992 13.1137 348.715 13.6028C348.437 14.0788 348.298 14.6936 348.298 15.4472V15.8438C348.298 16.6635 348.437 17.3312 348.715 17.8468C348.992 18.3492 349.356 18.7194 349.805 18.9574C350.255 19.1953 350.731 19.3143 351.233 19.3143ZM72.7848 45V31.1179H84.0888V45H81.709V33.1804H75.1646V45H72.7848ZM93.013 45.2181C92.1668 45.2181 91.3604 45.0859 90.5935 44.8215C89.8399 44.5571 89.1657 44.1472 88.5707 43.592C87.9758 43.0235 87.5064 42.2963 87.1627 41.4105C86.8322 40.5115 86.6669 39.4273 86.6669 38.1581V37.7615C86.6669 36.5452 86.8322 35.5073 87.1627 34.648C87.5064 33.7754 87.9758 33.0614 88.5707 32.5061C89.1657 31.9509 89.8399 31.5476 90.5935 31.2964C91.3604 31.032 92.1668 30.8998 93.013 30.8998C93.8591 30.8998 94.659 31.032 95.4126 31.2964C96.1794 31.5476 96.8603 31.9509 97.4552 32.5061C98.0502 33.0614 98.5129 33.7754 98.8434 34.648C99.1872 35.5073 99.3591 36.5452 99.3591 37.7615V38.1581C99.3591 39.4273 99.1872 40.5115 98.8434 41.4105C98.5129 42.2963 98.0502 43.0235 97.4552 43.592C96.8603 44.1472 96.1794 44.5571 95.4126 44.8215C94.659 45.0859 93.8591 45.2181 93.013 45.2181ZM93.013 43.116C93.674 43.116 94.2954 42.9574 94.8771 42.64C95.4589 42.3227 95.9348 41.8071 96.305 41.0932C96.6752 40.366 96.8603 39.3877 96.8603 38.1581V37.7615C96.8603 36.598 96.6752 35.6726 96.305 34.9851C95.9348 34.2844 95.4589 33.782 94.8771 33.4779C94.2954 33.1606 93.674 33.0019 93.013 33.0019C92.3519 33.0019 91.7239 33.1606 91.129 33.4779C90.5473 33.782 90.0713 34.2844 89.7011 34.9851C89.3441 35.6726 89.1657 36.598 89.1657 37.7615V38.1581C89.1657 39.3877 89.3441 40.366 89.7011 41.0932C90.0713 41.8071 90.5473 42.3227 91.129 42.64C91.7239 42.9574 92.3519 43.116 93.013 43.116ZM109.87 44.2067L105.507 40.4586V38.6341L109.87 34.8859V37.2657L107.193 39.5067L109.87 41.7476V44.2067ZM114.53 44.2067L110.167 40.4586V38.6341L114.53 34.8859V37.2657L111.853 39.5067L114.53 41.7476V44.2067ZM117.107 45V31.1179H119.566L123.988 39.348L128.411 31.1179H130.79V45H128.411V35.2826L124.742 42.1244H123.155L119.486 35.2826V45H117.107ZM133.668 45V34.4893H135.85V41.9261L140.907 34.4893H142.989V45H140.808V37.5632L135.751 45H133.668ZM145.475 45V34.4893H147.657V38.7134H152.614V34.4893H154.796V45H152.614V40.5776H147.657V45H145.475ZM165.77 47.4789V45H157.282V34.4893H159.463V43.1358H164.025V34.4893H166.206V43.1358H167.793V47.4789H165.77ZM169.379 45V34.4893H171.56V41.9261L176.618 34.4893H178.7V45H176.518V37.5632L171.461 45H169.379ZM186.144 48.9663V45.2181C184.319 45.2181 182.938 44.7554 181.999 43.8299C181.06 42.9045 180.591 41.5758 180.591 39.8438V39.4472C180.591 37.7946 181.06 36.5187 181.999 35.6197C182.938 34.7207 184.319 34.2712 186.144 34.2712V31.1179H188.325V34.2712C190.136 34.2712 191.511 34.7207 192.45 35.6197C193.402 36.5187 193.878 37.7946 193.878 39.4472V39.8438C193.878 41.5758 193.402 42.9045 192.45 43.8299C191.511 44.7554 190.136 45.2181 188.325 45.2181V48.9663H186.144ZM191.657 39.8438V39.4472C191.657 38.3498 191.386 37.5301 190.844 36.9881C190.315 36.446 189.462 36.175 188.285 36.175V43.3143C189.462 43.3143 190.315 43.0301 190.844 42.4616C191.386 41.8798 191.657 41.0073 191.657 39.8438ZM182.812 39.4273V39.8438C182.812 41.0073 183.083 41.8798 183.625 42.4616C184.167 43.0301 185.02 43.3143 186.183 43.3143V36.175C185.007 36.175 184.147 36.446 183.605 36.9881C183.076 37.5301 182.812 38.3432 182.812 39.4273ZM195.762 48.9663V34.4893H197.785V36.2543C198.102 35.6461 198.571 35.1636 199.193 34.8066C199.827 34.4496 200.541 34.2712 201.335 34.2712C202.71 34.2712 203.794 34.7008 204.587 35.5602C205.38 36.4196 205.777 37.7152 205.777 39.4472V39.8438C205.777 41.0337 205.592 42.0319 205.222 42.8384C204.851 43.6316 204.336 44.2266 203.675 44.6232C203.014 45.0198 202.234 45.2181 201.335 45.2181C200.581 45.2181 199.893 45.0529 199.272 44.7224C198.651 44.3918 198.208 43.9291 197.943 43.3342V48.9663H195.762ZM200.819 43.3143C201.639 43.3143 202.3 43.0301 202.802 42.4616C203.304 41.8931 203.556 41.0205 203.556 39.8438V39.4472C203.556 38.3366 203.311 37.5169 202.822 36.9881C202.333 36.446 201.665 36.175 200.819 36.175C200.33 36.175 199.86 36.2807 199.411 36.4923C198.975 36.7038 198.618 37.0145 198.34 37.4244C198.076 37.8342 197.943 38.3432 197.943 38.9514V40.3396C197.943 41.0006 198.076 41.5559 198.34 42.0054C198.618 42.4417 198.975 42.7723 199.411 42.997C199.847 43.2086 200.317 43.3143 200.819 43.3143ZM207.665 45V34.4893H209.847V38.178H211.83C213.179 38.178 214.177 38.4688 214.825 39.0505C215.472 39.619 215.796 40.4652 215.796 41.589C215.796 42.2897 215.658 42.8979 215.38 43.4135C215.102 43.9291 214.673 44.3257 214.091 44.6034C213.509 44.8678 212.756 45 211.83 45H207.665ZM209.847 43.1358H211.632C212.359 43.1358 212.868 43.0102 213.159 42.759C213.463 42.4946 213.615 42.1046 213.615 41.589C213.615 41.0734 213.463 40.69 213.159 40.4388C212.868 40.1743 212.359 40.0421 211.632 40.0421H209.847V43.1358ZM217.185 45V34.4893H219.366V45H217.185ZM221.75 34.8859L226.113 38.6341V40.4586L221.75 44.2067V41.827L224.428 39.586L221.75 37.345V34.8859ZM226.411 34.8859L230.774 38.6341V40.4586L226.411 44.2067V41.827L229.088 39.586L226.411 37.345V34.8859Z" fill="#444444"></path><path d="M29.0548 25.4256C29.0426 25.4134 28.7498 25.1084 28.2436 25.1084C27.9752 25.1084 27.7007 25.1937 27.4262 25.3524C27.3773 25.3768 27.3468 25.4317 27.359 25.4867C27.359 25.4988 27.5604 26.8652 27.4079 27.4509C27.292 27.8901 26.9198 28.4086 26.2427 28.4086C26.0963 28.4086 25.9499 28.3841 25.7913 28.3414H25.7852L26.2977 27.9938C26.3342 27.9693 26.3586 27.9266 26.3586 27.8779C26.3586 27.829 26.3342 27.7924 26.2977 27.762L25.2789 27.0604C25.6022 26.8164 25.8035 26.6456 25.8279 26.6213C25.8585 26.5969 25.8768 26.5602 25.8768 26.5236C25.8768 26.4871 25.8646 26.4504 25.834 26.4199L25.651 26.2369C25.6266 26.2125 25.5901 26.1943 25.5534 26.1943C25.5229 26.1943 25.4924 26.2064 25.468 26.2247C25.4558 26.2308 25.1874 26.4382 24.7787 26.7188L24.37 26.4382L25.9682 25.3403L26.0902 25.6574C26.1085 25.7062 26.1574 25.7428 26.2122 25.7428C26.2122 25.7428 26.2122 25.7428 26.2183 25.7428C26.2671 25.7428 26.3159 25.7123 26.3403 25.6696L27.1028 24.2666C27.1273 24.2177 27.1212 24.1629 27.0967 24.1202C27.0723 24.0835 27.0296 24.0591 26.9809 24.0591C26.9748 24.0591 26.9686 24.0591 26.9625 24.0591L25.3887 24.2971C25.3338 24.3032 25.291 24.3397 25.2728 24.3947C25.2606 24.4435 25.2728 24.4983 25.3155 24.535L25.5717 24.7607L23.7538 26.0112L21.9421 24.7607L22.1983 24.535C22.2349 24.4983 22.2533 24.4435 22.235 24.3947C22.2227 24.3397 22.18 24.3032 22.1252 24.2971L20.5513 24.0591C20.5452 24.0591 20.5391 24.0591 20.533 24.0591C20.4842 24.0591 20.4416 24.0774 20.4171 24.1202C20.3866 24.1629 20.3866 24.2177 20.411 24.2666L21.1674 25.6696C21.1918 25.7123 21.2406 25.7428 21.2895 25.7428C21.2956 25.7428 21.2956 25.7428 21.2956 25.7428C21.3504 25.7428 21.3931 25.7062 21.4176 25.6574L21.5457 25.3403L23.1439 26.4382L22.7351 26.7188C22.3264 26.4382 22.058 26.2308 22.0519 26.2247C22.0275 26.2064 21.9971 26.1943 21.9666 26.1943C21.9299 26.1943 21.8933 26.2065 21.869 26.2369L21.686 26.4199C21.6615 26.4443 21.6432 26.481 21.6432 26.5236C21.6432 26.5602 21.6615 26.5969 21.6921 26.6213C21.7226 26.6456 21.9238 26.8164 22.2472 27.0604L21.2284 27.762C21.1918 27.7863 21.1674 27.829 21.1674 27.8779C21.1674 27.9266 21.1918 27.9632 21.2284 27.9938L21.7408 28.3414C21.7408 28.3414 21.7408 28.3414 21.7347 28.3414C21.5762 28.3841 21.4298 28.4086 21.2834 28.4086C20.6062 28.4086 20.228 27.8901 20.1121 27.4509C19.9596 26.8652 20.161 25.4988 20.161 25.4867C20.167 25.4317 20.1426 25.3768 20.0938 25.3524C19.8132 25.1937 19.5387 25.1084 19.2764 25.1084C18.764 25.1084 18.4711 25.4073 18.4589 25.4256C18.4346 25.4439 18.4224 25.4806 18.4224 25.5049C18.4163 25.5903 18.2577 27.5606 19.1727 28.5611C19.5082 28.927 19.9535 29.1162 20.4842 29.1162C20.5758 29.1162 20.6794 29.1162 20.777 29.0979C21.2956 29.0369 21.8018 28.8966 22.296 28.7258L23.1439 29.2992L21.2712 30.568C21.2345 30.5985 21.2101 30.6352 21.2101 30.6839C21.2101 30.7266 21.2284 30.7694 21.2712 30.7998L23.15 32.0991L21.5457 33.2093L21.4237 32.8983C21.4054 32.8494 21.3565 32.8189 21.3016 32.8128C21.3016 32.8128 21.3016 32.8128 21.2956 32.8128C21.2467 32.8128 21.1979 32.8433 21.1735 32.8861L20.4171 34.2891C20.3927 34.3318 20.3988 34.3928 20.4232 34.4294C20.4477 34.466 20.4903 34.4903 20.5391 34.4903C20.5452 34.4903 20.5513 34.4903 20.5574 34.4903L22.1313 34.2586C22.1861 34.2525 22.2288 34.2097 22.2411 34.161C22.2594 34.106 22.2411 34.0512 22.2044 34.0146L21.9421 33.7827L23.7599 32.5261L25.5777 33.7827L25.3155 34.0146C25.2728 34.0512 25.2606 34.106 25.2728 34.161C25.285 34.2097 25.3338 34.2463 25.3887 34.2586L26.9625 34.4903C26.9686 34.4903 26.9748 34.4903 26.9809 34.4903C27.0235 34.4903 27.0662 34.4721 27.0967 34.4294C27.1273 34.3866 27.1273 34.3318 27.1028 34.2891L26.3403 32.8861C26.3159 32.8433 26.2732 32.8128 26.2183 32.8128H26.2122C26.1513 32.8128 26.1085 32.8494 26.0902 32.8983L25.9682 33.2093L24.3639 32.0991L26.2427 30.7998C26.2794 30.7755 26.3038 30.7327 26.3038 30.6839C26.3038 30.6352 26.2794 30.5985 26.2427 30.568L24.37 29.2992L25.2179 28.7258C25.7059 28.9027 26.2122 29.0369 26.7308 29.0979C26.8345 29.1101 26.932 29.1162 27.0235 29.1162C27.5604 29.1162 27.9996 28.927 28.335 28.5611C29.2501 27.5606 29.0915 25.5903 29.0854 25.5049C29.0854 25.4806 29.0732 25.45 29.0548 25.4256ZM23.7477 26.8775L24.1503 27.152C24.0222 27.2312 23.888 27.3167 23.7477 27.402C23.6074 27.3167 23.4732 27.2373 23.3451 27.152L23.7477 26.8775ZM22.2838 27.884L22.8389 27.4996C22.9487 27.5668 23.0584 27.6399 23.1804 27.7193C22.9609 27.8351 22.7412 27.9449 22.5217 28.0487L22.2838 27.884ZM25.1813 30.6839L23.7477 31.6721L22.3203 30.6839L23.7477 29.714L25.1813 30.6839ZM23.7477 28.8783L23.0584 28.4086C23.3024 28.2927 23.5282 28.1768 23.7477 28.0548C23.9674 28.1768 24.1992 28.2927 24.4431 28.4086L23.7477 28.8783ZM24.98 28.0487C24.7604 27.951 24.5347 27.8412 24.315 27.7193C24.437 27.646 24.5469 27.5729 24.6567 27.4996L25.2179 27.884L24.98 28.0487Z" fill="#3A3A3A"></path><path d="M29.5371 26.5842C29.592 26.4744 29.6163 26.2669 29.6163 26.2669L29.5371 26.2426V26.5842Z" fill="#3A3A3A"></path><path d="M47.5616 21.698C46.976 21.3443 46.0061 21.2223 45.0179 21.3138C46.5612 20.777 47.6165 19.6302 47.6714 18.6053C46.8662 18.3736 46.0305 18.4955 45.3046 18.6603C46.0549 18.0991 47.2871 17.0742 47.1346 15.5674C46.4087 15.3906 45.079 15.8969 44.5239 16.147C46.305 15.1465 46.9456 12.7797 46 11.4377C45.4388 11.7671 42.8951 14.3658 42.4803 14.6647C43.798 13.1579 44.414 12.0782 44.7678 11.0656C45.1887 9.96149 45.2193 8.03384 43.8528 7.38724C43.2062 8.86346 40.9493 12.6516 39.6927 14.2255C39.5524 14.1035 39.4425 13.9388 39.2657 13.9082C38.9668 14.8659 38.0761 16.1409 37.2649 16.7509C37.2221 16.6716 37.1428 16.452 37.0025 16.2141C36.1424 17.5012 33.9098 19.2642 33.19 20.35C32.6288 21.1552 32.6288 21.8811 33.4097 22.6314C33.7268 22.9486 34.3246 23.5037 33.8062 24.2845C33.0986 25.3154 31.6773 25.4374 30.9086 24.8275C30.9086 24.6445 30.9025 24.4675 30.8964 24.3028C31.8053 23.9491 32.0188 22.7107 31.3478 21.9421C31.2014 22.2227 30.9575 22.4301 30.6647 22.5338C30.5854 22.2105 30.5182 22.058 30.5121 22.0397L30.4755 21.9665H30.3963C30.3902 21.9665 30.0912 21.9482 29.6459 21.8994C30.1523 21.7347 30.4755 21.2649 30.4024 20.6367C29.6215 21.3077 28.8408 20.6672 28.6638 20.4903C28.1758 19.9169 28.0355 19.2702 28.2307 18.282C28.3955 17.4219 29.2861 16.0555 29.8717 15.6163C29.9571 15.6955 30.0912 15.8603 30.3779 15.8358C30.5427 15.781 30.8172 15.6407 31.0245 15.5613C31.6162 15.3845 32.1896 15.5187 32.5557 15.7566C33.2266 16.1653 33.1656 16.6167 33.1474 16.9461C34.166 16.3727 33.8123 15.4149 32.4763 15.0612C33.3914 15.0612 34.1417 15.8969 34.3368 16.0006C34.8432 16.3727 35.5691 16.2873 35.99 16.086C36.8013 15.7016 36.966 14.7439 36.7463 14.5488C36.6671 14.8904 36.4048 15.1954 35.935 15.2503C35.2397 15.3296 34.5687 15.0307 34.0379 14.7928C33.5865 14.6036 32.8607 14.4633 32.3665 14.4939C33.2816 13.9875 34.7029 14.0424 35.2091 14.8233C35.5141 14.5792 35.7033 14.3597 35.7886 13.8533C36.0509 12.4869 34.9835 11.7854 33.8428 11.7854C33.8732 11.456 33.6414 11.2913 33.3364 11.401C33.3364 11.2608 33.2998 11.151 33.2205 11.0961C33.245 11.0961 33.2816 11.0839 33.3059 11.0839C34.4527 11.0046 35.5386 10.6508 36.1242 10.0347C37.1489 8.93666 35.5141 7.54583 36.0998 6.46612C36.661 6.71012 37.0757 7.02733 37.8504 7.13713C37.9297 7.30184 38.0029 7.63123 38.0273 7.80814C38.2774 9.02817 37.0757 9.22947 37.3869 10.5288C37.5211 11.1205 37.9664 11.3218 38.1128 12.0233C38.1128 12.0233 38.1676 12.5113 37.7406 12.9384C38.7288 12.9628 39.2474 12.1271 38.9424 11.3523C38.8082 11.0351 38.4665 10.7362 38.4665 10.3641C38.9729 11.0351 39.4242 11.0107 40.205 10.7606C40.5588 10.6508 40.5893 11.1449 40.3698 11.5415C40.9065 11.2242 41.0407 10.7057 41.0407 10.4739C41.0407 9.92488 40.6137 9.66868 40.205 9.77847C39.9733 9.80287 39.5097 10.1201 39.4791 9.66868C39.3816 8.88787 40.6137 8.91836 40.3636 7.66173C40.2295 7.03342 39.528 6.68572 38.436 6.55152C38.3262 6.44172 38.0517 6.17941 37.9053 5.9598C37.3075 4.96549 36.6854 4.70318 36.3132 4.90448C35.874 5.12409 35.6483 5.3132 35.2884 5.5084C35.0018 5.6609 34.6968 5.74021 34.5076 5.9598C34.0318 6.55152 34.4832 7.46653 34.7272 8.02775C34.8919 8.35715 35.2884 9.10746 35.1116 9.66868C34.9163 10.3397 33.8123 10.7606 33.1413 10.9009C33.0986 10.9009 33.068 10.9131 33.0253 10.9131V10.6508C33.2205 10.3092 33.3853 9.90048 33.5195 9.52838C33.9709 8.32055 33.2998 7.83254 32.3055 7.60074C32.1774 7.52143 32.0432 7.49093 31.8785 7.54583H31.8481L31.8237 7.74714L31.6895 7.70444L31.72 7.46043H31.6589C31.7748 7.38113 31.8237 7.24083 31.8237 7.10663C31.8237 6.96022 31.7687 6.84433 31.7139 6.76502H31.8481L31.7931 6.71012C31.7687 6.65522 31.7139 6.60032 31.6284 6.51492C31.604 6.49051 31.5736 6.43561 31.5736 6.40511C31.5979 6.42952 31.6284 6.46001 31.6834 6.48442C31.7382 6.53932 31.8176 6.59422 31.8481 6.64912L31.9273 6.70402V5.5999L31.8481 5.667C31.8237 5.6914 31.7382 5.7463 31.6834 5.8073C31.6284 5.8622 31.604 5.8622 31.5736 5.88661C31.5736 5.8622 31.5979 5.8317 31.6284 5.7768C31.7139 5.7219 31.7687 5.64261 31.7931 5.5999L31.8481 5.5145H30.7257L30.7805 5.5999C30.8355 5.6365 30.9025 5.7219 30.9575 5.7768C30.9819 5.8317 31.0124 5.8622 31.0367 5.88661C31.0063 5.8622 30.9575 5.8622 30.9269 5.8073C30.8294 5.7524 30.7805 5.6975 30.7257 5.667L30.683 5.5999V6.72232L30.7378 6.66742C30.7927 6.61252 30.8477 6.55762 30.9391 6.50271C30.9697 6.47832 31.0184 6.44781 31.0489 6.42342C31.0184 6.44781 30.9941 6.50271 30.9697 6.53321C30.9147 6.61862 30.8416 6.66742 30.7927 6.72842L30.7378 6.78332H30.9147C30.8172 6.86262 30.7927 6.97852 30.7927 7.12493C30.7927 7.25914 30.8477 7.39944 30.9391 7.47873H30.9147L30.9391 7.72274L30.7927 7.76544L30.7622 7.56413H30.7378C30.5732 7.50924 30.439 7.53974 30.3291 7.61903C29.3165 7.85084 28.6455 8.34496 29.097 9.54667C29.2372 9.91878 29.402 10.3275 29.6032 10.6691V10.846C28.5907 10.5166 26.7667 9.40637 26.2788 8.73536C26.2238 8.66826 26.1811 8.61336 26.1568 8.57066H26.1507L26.169 7.84475C26.5227 7.25303 26.84 6.52712 27.0839 5.8622C27.7245 4.12367 26.7789 3.39776 25.2784 3.09886C25.1259 2.98905 24.9367 2.93415 24.6867 3.01955L24.6317 3.29406L24.3146 3.26966L24.3389 2.91586C24.2963 2.92806 24.2413 2.92806 24.1864 2.92806C24.4 2.81825 24.5525 2.55595 24.5525 2.28755C24.5525 2.09234 24.4549 1.86053 24.2902 1.75073H24.5525C24.4 1.61652 24.156 1.32983 24.1072 1.13462C24.2963 1.18952 24.583 1.44572 24.7172 1.58603V0.164703C24.583 0.274505 24.2963 0.54901 24.1072 0.573411C24.156 0.414808 24.4 0.140303 24.5525 0H23.1312C23.2409 0.140303 23.5154 0.414808 23.5399 0.573411C23.3751 0.54901 23.1006 0.274505 22.9481 0.164703V1.58603C23.1006 1.44572 23.369 1.18952 23.5399 1.13462C23.5154 1.32372 23.2409 1.61043 23.1312 1.75073H23.3751C23.2104 1.86053 23.1312 2.09234 23.1312 2.28755C23.1312 2.55595 23.2654 2.82435 23.4849 2.92806C23.4301 2.92806 23.3751 2.92806 23.2898 2.90365L23.3203 3.25746L23.0031 3.28186L22.9726 3.00735C22.7286 2.92806 22.5395 2.98296 22.3747 3.08666C20.8864 3.39166 19.9408 4.11148 20.5814 5.85C20.8009 6.51492 21.1182 7.24693 21.4963 7.83254V8.58286C21.472 8.60725 21.4415 8.66215 21.3865 8.71705C20.9107 9.38806 19.0746 10.4983 18.0621 10.8277V10.6508C18.2634 10.3092 18.4342 9.90048 18.5684 9.52838C19.0198 8.32055 18.3487 7.83254 17.3362 7.60074C17.2202 7.52143 17.0921 7.49093 16.9274 7.54583H16.9031L16.8726 7.74714L16.7384 7.70444L16.7628 7.46043H16.7384C16.8176 7.38113 16.8726 7.24083 16.8726 7.10663C16.8726 6.96022 16.8482 6.84433 16.7628 6.76502H16.9274L16.8726 6.71012C16.8176 6.65522 16.7628 6.60032 16.7079 6.51492C16.6834 6.49051 16.6407 6.43561 16.6103 6.40511C16.6407 6.42952 16.7079 6.46001 16.7323 6.48442C16.8115 6.53932 16.8665 6.59422 16.9274 6.64912L16.9824 6.70402V5.5999L16.9274 5.667C16.8726 5.6914 16.8176 5.7463 16.7323 5.8073C16.7079 5.8622 16.6407 5.8622 16.6103 5.88661C16.6407 5.8622 16.6773 5.8317 16.7079 5.7768C16.7628 5.7219 16.8176 5.64261 16.8726 5.5999L16.9274 5.5145H15.805L15.86 5.5999C15.8844 5.6365 15.9575 5.7219 16.0125 5.7768C16.0674 5.8317 16.0917 5.8622 16.0917 5.88661C16.0734 5.85611 16.043 5.85611 15.9942 5.80121C15.9271 5.7463 15.8417 5.6914 15.8172 5.6609L15.7319 5.5938V6.71623L15.8172 6.66132C15.8417 6.60642 15.9271 6.55152 15.9942 6.49662C16.0491 6.47222 16.0734 6.44172 16.0978 6.41731C16.0978 6.44172 16.0734 6.49662 16.0186 6.52712C15.9636 6.61252 15.8905 6.66132 15.8661 6.72232L15.8111 6.77722H15.9575C15.8905 6.85653 15.8294 6.97243 15.8294 7.11883C15.8294 7.25303 15.8844 7.39333 16.0125 7.47264H15.9575L15.9881 7.71663L15.8356 7.75933L15.8111 7.55804H15.7807C15.616 7.50313 15.4818 7.53363 15.3719 7.61294C14.3594 7.84475 13.6883 8.33885 14.1398 9.54057C14.2801 9.91268 14.4448 10.3214 14.6461 10.663V10.9253C14.6034 10.9253 14.5668 10.9131 14.5362 10.9131C13.8653 10.7728 12.7429 10.3519 12.5538 9.68087C12.3768 9.11966 12.7734 8.36935 12.9381 8.03995C13.2004 7.47873 13.6396 6.56372 13.176 5.97201C12.9685 5.7524 12.6696 5.67311 12.3768 5.5206C12.0231 5.33149 11.8034 5.13629 11.3521 4.91668C10.9922 4.71539 10.3822 4.97159 9.75998 5.97201C9.62578 6.19161 9.33908 6.44781 9.22319 6.56372C8.14348 6.69792 7.44808 7.03953 7.29559 7.67393C7.04549 8.93057 8.27769 8.90616 8.19839 9.68087C8.16789 10.1323 7.69208 9.81508 7.47249 9.79067C7.04549 9.68087 6.62459 9.93708 6.62459 10.4861C6.62459 10.7179 6.77708 11.2364 7.29559 11.5537C7.07598 11.1571 7.10039 10.663 7.47249 10.7728C8.25329 11.0229 8.68638 11.0473 9.19878 10.3763C9.19878 10.7423 8.86938 11.0473 8.72299 11.3645C8.41798 12.1453 8.92429 12.975 9.92468 12.9506C9.47328 12.5236 9.56479 12.0355 9.56479 12.0355C9.70509 11.334 10.1443 11.1327 10.2907 10.541C10.5957 9.24167 9.38788 9.04036 9.65019 7.82034C9.67458 7.64344 9.72948 7.31404 9.81488 7.14933C10.5957 7.03953 11.0227 6.72842 11.5656 6.47832C12.1268 7.55804 10.5103 8.94886 11.5411 10.0469C12.1329 10.663 13.2247 11.0168 14.3594 11.0961C14.3837 11.0961 14.4204 11.1083 14.4509 11.1144C14.3715 11.1693 14.3289 11.273 14.3289 11.4134C14.03 11.3035 13.7981 11.4682 13.8409 11.7976C12.6635 11.7976 11.6266 12.4991 11.8828 13.8655C11.962 14.3719 12.1573 14.5914 12.4745 14.8354C12.9685 14.0547 14.3898 13.9997 15.3171 14.5061C14.8107 14.4756 14.0848 14.6159 13.6396 14.805C13.1149 15.0368 12.4501 15.3418 11.7547 15.2624C11.2728 15.2076 11.0288 14.9087 10.9312 14.5609C10.7116 14.7562 10.8763 15.7077 11.6937 16.0982C12.1023 16.2995 12.8282 16.3849 13.3346 16.0128C13.5297 15.903 14.2801 15.0734 15.2012 15.0734C13.8714 15.4271 13.4993 16.3849 14.5423 16.9583C14.4997 16.6289 14.4509 16.1775 15.1157 15.7688C15.4879 15.537 16.0734 15.3967 16.6529 15.5735C16.8543 15.6529 17.1288 15.7932 17.2935 15.848C17.5802 15.8725 17.7144 15.7077 17.7997 15.6285C18.3914 16.0677 19.2515 17.4341 19.4407 18.2942C19.648 19.2824 19.4955 19.923 19.0015 20.5025C18.8368 20.6794 18.0438 21.3199 17.2691 20.6489C17.1959 21.2771 17.5191 21.7408 18.0255 21.9116C17.5741 21.9604 17.2691 21.9786 17.263 21.9786H17.1837L17.1532 22.0519C17.1471 22.0641 17.0799 22.2227 16.9946 22.5399C16.714 22.4301 16.47 22.2288 16.3236 21.9482C15.6525 22.7168 15.86 23.9491 16.7628 24.3028C16.7567 24.4736 16.7506 24.6506 16.7506 24.8397C15.9759 25.4374 14.5729 25.3093 13.8775 24.2845C13.3407 23.5037 13.9567 22.9425 14.2618 22.6314C15.0426 21.8811 15.0426 21.1552 14.4753 20.35C13.7494 19.2702 11.5228 17.5012 10.6628 16.2141C10.5225 16.4459 10.4432 16.6655 10.4127 16.7509C9.60749 16.1409 8.70468 14.8659 8.40578 13.9082C8.24109 13.9327 8.11908 14.1035 7.97879 14.2255C6.73438 12.6516 4.46519 8.86346 3.82469 7.38724C2.47049 8.03384 2.49489 9.96149 2.90969 11.0656C3.2757 12.0782 3.89179 13.1579 5.19109 14.6647C4.7824 14.3597 2.23869 11.7671 1.6775 11.4377C0.738099 12.7797 1.3786 15.1465 3.15369 16.147C2.61079 15.8969 1.2688 15.3906 0.5429 15.5674C0.4087 17.0742 1.6226 18.0991 2.3729 18.6603C1.64089 18.4955 0.805203 18.3736 0 18.6053C0.0549005 19.6302 1.1224 20.7831 2.62299 21.3138C1.6653 21.2162 0.695399 21.3443 0.1037 21.698C0.2135 22.7656 1.4213 23.6868 2.86699 23.9063C1.89709 24.0161 1.037 24.4431 0.5856 25.0287C1.11629 25.7241 1.89709 26.261 3.0866 26.2366C2.81209 26.3342 2.49489 26.5233 2.22649 26.7795C2.19599 26.7551 2.14109 26.7246 2.0923 26.7246C2.0313 26.749 2.01299 26.8343 2.0313 26.8893C2.0313 26.8893 2.0313 26.8893 2.0313 26.932C1.9154 27.0113 1.85439 27.1089 1.84219 27.2065C1.7324 27.3651 1.6165 27.548 1.55549 27.7128C1.58599 27.725 1.6104 27.7555 1.6348 27.7677C1.62869 27.8531 1.6531 27.9568 1.7202 28.0605C1.6653 28.1155 1.64089 28.1947 1.6104 28.2801L0.914994 27.9995C0.878401 28.6339 1.0187 29.1524 1.3359 29.4757C1.58599 29.7624 1.8727 29.7197 1.7873 29.8174L2.5437 30.2809C2.6779 30.5676 2.95239 30.5676 3.14149 30.4884C3.14149 30.4884 3.14149 30.5128 3.14149 30.5433C3.14149 30.8421 3.34889 31.0862 3.6173 31.1838C3.56239 31.4338 3.6722 31.5924 4.0138 31.7083L6.85639 38.6015C6.74659 38.9309 6.85639 39.2176 7.10648 39.3274C7.04549 39.4068 6.99669 39.4921 6.99669 39.6568C7.10648 39.5775 7.27119 39.5471 7.35049 39.7788C7.40538 39.9435 7.10648 40.4742 7.55789 40.8342C7.49689 41.1513 7.66769 41.4746 7.99098 41.6149C7.99098 41.7797 8.14348 42.3103 8.16789 42.4995C7.96659 42.7862 7.49689 43.2254 7.55789 43.7072C7.61279 44.0489 7.74698 44.1587 8.02149 44.2441C7.91169 44.8602 8.25329 45.1348 8.77178 45.1652C8.77178 45.6166 9.19269 45.7752 9.46718 45.8057C9.72948 46.0009 9.83928 46.0802 10.1382 46.2328C9.86369 46.5561 10.0589 46.9831 10.5591 47.1234C10.614 47.3124 10.7543 47.4772 11.0349 47.5443C11.1996 47.8188 11.4985 47.8188 11.6753 47.7394C11.7852 47.6846 11.9804 47.3674 11.8095 47.0929C11.9194 46.9587 11.8645 46.6964 11.7852 46.5317C11.9498 46.2328 11.8095 45.8606 11.5839 45.7508C11.6144 45.5861 11.5289 45.3238 11.4741 45.1652C11.8706 44.9151 12.3647 44.604 12.5415 44.4942C13.5114 43.7988 14.6095 43.1766 15.8539 43.0973C16.1711 43.0668 16.7567 43.0424 17.086 43.0668C17.5924 43.1217 18.2878 43.2741 18.6965 42.957C18.8245 42.8776 18.9039 42.7373 18.8795 42.6031C18.8246 42.2859 18.483 42.0114 18.3731 41.7308C18.3427 41.6455 18.2939 41.5174 18.2389 41.4015C18.5928 41.4624 18.9221 41.4137 19.1235 41.316C19.343 41.2368 19.8738 40.8403 19.8494 40.2486C19.4224 40.4498 18.3975 40.7243 18.2878 39.6874C18.178 38.7723 18.9832 37.9914 20.2458 38.3331C21.1059 38.5526 22.3625 40.3828 21.2157 41.1818C20.6545 41.5661 19.7944 41.9322 19.9043 42.9326C20.2703 42.4812 20.7644 42.2616 21.4049 42.3164C20.4655 43.0118 19.7396 43.0973 18.7514 43.628C17.8913 44.1342 17.2507 44.9701 16.5737 44.9944C16.0552 45.0188 15.7685 44.4026 16.2748 43.9269C15.7685 43.8171 15.0974 44.2136 14.9084 44.7443C14.6643 45.4702 14.8535 45.9888 15.3049 46.2815C14.6949 46.6109 14.2373 47.2515 14.457 48.1664C14.6643 48.9168 15.4147 48.9168 15.128 49.8745C15.5489 49.7647 15.8233 49.478 15.9453 49.0693C16.0003 48.7826 16.0552 48.4837 16.1955 48.3434C16.1345 48.9168 16.4639 49.7647 17.2507 50.149C17.7814 50.4114 18.6172 50.515 19.2577 49.8502C19.5199 50.6004 20.4045 51.2471 21.3256 51.2165C21.7465 51.2165 22.1613 51.0335 22.4724 50.8506C22.692 51.4057 23.2532 51.973 23.8082 52.2414C24.3816 51.973 24.9428 51.4057 25.1747 50.8506C25.4796 51.0396 25.9005 51.2165 26.3093 51.2165C27.1937 51.241 28.1271 50.6004 28.3771 49.8502C29.0177 50.515 29.8534 50.4114 30.3841 50.149C31.1648 49.7647 31.4942 48.9168 31.4394 48.3434C31.5857 48.4837 31.6406 48.7826 31.7017 49.0693C31.8115 49.478 32.0798 49.7647 32.5068 49.8745C32.2201 48.9168 32.9888 48.9168 33.1778 48.1664C33.3975 47.2515 32.946 46.6048 32.3421 46.2815C32.7813 45.9948 32.9888 45.4763 32.7264 44.7443C32.5374 44.2136 31.8664 43.8171 31.36 43.9269C31.8664 44.4026 31.5918 45.0188 31.0611 44.9944C30.3902 44.9701 29.7496 44.1281 28.8834 43.628C27.9013 43.0912 27.1754 43.0118 26.2299 42.3164C26.8705 42.2616 27.3767 42.4812 27.7306 42.9326C27.8404 41.9322 26.9803 41.5661 26.4191 41.1818C25.2845 40.3828 26.5289 38.5526 27.4073 38.3331C28.6516 37.9914 29.4751 38.7723 29.347 39.6874C29.2128 40.7304 28.2124 40.4559 27.761 40.2486C27.761 40.8342 28.2918 41.2307 28.5113 41.316C28.7675 41.438 29.2434 41.5052 29.6642 41.3221C29.652 41.4258 29.6337 41.5357 29.6337 41.5661C29.5484 42.4567 29.0725 42.5361 29.2372 42.9021C29.469 43.1766 31.0002 43.1217 31.415 43.2071C32.1409 43.3047 32.7569 43.573 33.4523 43.7134C34.2332 43.8781 35.0627 43.8781 35.7642 44.1648C36.2156 44.36 36.7219 44.726 37.1611 44.9456C37.8322 45.0554 37.7223 45.3299 38.1493 45.3299C38.5337 45.3299 38.6801 45.0005 39.1741 44.8663C39.5158 44.787 39.9 44.9212 40.2417 44.8114C40.4917 44.7565 40.6015 44.5003 40.8334 44.36C41.1079 44.1953 41.4921 44.1953 41.7483 43.9574C41.8825 43.8353 41.913 43.6036 41.8886 43.4389L41.8947 43.4755C42.4193 43.1095 42.8159 42.5726 43.0354 41.9566C43.1696 41.9322 43.2794 41.8102 43.2794 41.6699C43.2794 41.6455 43.2794 41.6149 43.2794 41.6149C43.4136 41.5052 43.499 41.3404 43.499 41.1757C43.499 40.9684 43.4197 40.8037 43.2794 40.6695C43.2794 40.6695 43.2794 40.6389 43.2794 40.6145C43.2794 40.5047 43.2246 40.4254 43.1696 40.3522C42.9501 39.1627 42.0472 38.205 40.8821 37.9061C40.8821 37.8756 40.8821 37.8756 40.8821 37.8511H40.8577C40.8577 37.7963 40.8334 37.7658 40.7907 37.7658C40.6259 37.6011 40.4307 37.3449 40.4064 37.1802C40.5954 37.2351 40.9126 37.534 41.0773 37.656V36.0822C40.9126 36.2042 40.6015 36.5031 40.4064 36.5579C40.4307 36.3628 40.7296 36.0211 40.8821 35.8869H39.2839C39.4303 36.0211 39.7353 36.3628 39.7597 36.5579C39.5706 36.5031 39.2535 36.2042 39.0949 36.0822V37.656C39.2596 37.534 39.5706 37.2351 39.7597 37.1802C39.7353 37.3754 39.4303 37.7169 39.2839 37.8511L39.3388 37.8756C38.1493 38.1501 37.1916 39.1384 36.9721 40.3522C36.8927 40.4194 36.8379 40.5047 36.8379 40.6145C36.8379 40.6389 36.8379 40.6695 36.8379 40.6695C36.6976 40.8037 36.6182 40.9684 36.6182 41.1757C36.6182 41.3343 36.6976 41.5052 36.8379 41.6149C36.8379 41.6149 36.8379 41.6394 36.8379 41.6699C36.8379 41.8467 36.9477 41.9322 37.0818 41.9566C37.1368 42.1091 37.2038 42.2616 37.2771 42.3958C37.2771 42.3836 37.277 42.3836 37.2953 42.3653C37.1977 42.8167 36.6487 43.0912 36.5268 43.0912C35.5508 43.2315 34.471 42.8167 33.4889 42.4506C33.0558 42.2859 32.4641 42.0969 32.1774 41.6699C32.0006 41.3588 31.9212 41.1635 32.0127 40.889C32.1226 41.0232 32.2994 41.1757 32.5496 41.3099C32.574 41.1757 32.574 41.0232 32.6288 40.9134C32.8789 41.2855 33.2755 41.4746 33.7512 41.4502C33.4645 41.2062 33.3303 40.5597 33.4645 39.9984C33.8611 40.6695 35.3677 40.8037 35.6422 39.6019C35.081 39.8642 34.7211 39.5775 34.6174 39.2726C34.4527 38.7906 35.0017 37.6255 34.5076 36.7287C34.1112 36.0578 33.6597 35.6491 32.6105 35.4843C32.6899 35.3562 32.7204 35.2465 32.7447 35.0573C31.7748 35.4112 30.9391 35.1366 30.5427 34.3619C30.7378 34.4412 31.0184 34.4717 31.293 34.4717C30.4329 33.7702 30.4877 31.7877 31.1039 30.7628C31.1831 30.7079 31.2136 30.6531 31.293 30.6287C31.482 31.0129 32.0432 31.0129 32.3299 31.3241C32.4397 31.2143 32.4946 31.1838 32.6044 31.0923C32.6044 31.0923 32.6288 32.721 32.7386 33.392C32.8485 34.1423 33.5744 34.063 33.9465 34.3925C34.3857 33.9105 35.1786 33.9349 35.0566 33.1053C34.9469 32.2756 34.7821 31.5193 34.7577 30.9581C35.0017 31.4644 35.4836 33.3676 35.6728 33.9105C35.9839 34.7157 36.7646 34.4717 37.2038 34.7889C37.4905 34.2277 38.2164 34.063 37.9297 33.2151C37.8504 32.9955 36.661 30.4945 36.484 30.0125C36.9049 30.6287 38.0578 32.8308 38.4117 33.4469C38.8082 34.0874 39.5341 33.7763 40.0525 33.9349C40.1501 33.4713 40.8516 32.9345 40.3392 32.1292C39.6987 31.0618 38.192 29.2012 38.1128 28.9389C38.4117 29.2256 40.7479 32.1292 40.9309 32.2878C41.4738 32.7637 42.2668 32.3977 42.7365 32.3977C42.7365 31.8669 43.1574 31.2631 42.5474 30.647C41.9862 30.1102 40.6991 29.1951 40.4246 28.884C41.2847 29.4757 42.2973 30.4151 42.9012 30.5676C43.9687 30.8421 44.353 30.4151 44.7495 30.2505C44.4201 29.2805 44.8593 28.8292 42.6023 27.8836C44.5543 28.579 45.4205 28.2374 46.1159 27.6884C45.8414 26.9929 45.146 26.4073 44.5787 26.2122C45.7743 26.2366 46.5673 25.7058 47.0859 25.0043C46.6467 24.4187 45.7743 23.9917 44.7739 23.8819C46.2501 23.6807 47.4274 22.7656 47.5616 21.698ZM2.28139 28.8657C2.25699 28.8657 2.25699 28.8901 2.22649 28.9206C2.0618 28.8962 2.0618 28.7011 2.0923 28.5364C2.17159 28.5364 2.22649 28.5119 2.28139 28.457L2.3058 28.4875L2.22649 28.5425C2.25699 28.6461 2.25699 28.7559 2.28139 28.8657ZM2.8182 30.0125L2.5498 29.8539C2.6596 29.7258 2.7633 29.7258 2.8731 29.7991C2.8731 29.8783 2.8731 29.9577 2.8182 30.0125ZM3.62339 28.3045C3.5868 28.3045 3.55019 28.3045 3.5136 28.3045C3.50749 28.2984 3.5014 28.2862 3.49529 28.2801C3.5441 28.268 3.599 28.268 3.6417 28.2557C3.6417 28.268 3.6295 28.2862 3.62339 28.3045ZM19.1357 48.2884C18.4647 48.2884 17.9889 47.8675 18.3305 47.2758C18.5073 47.5443 18.8612 47.6663 19.1662 47.6968C19.1357 47.9774 19.1357 48.0567 19.1357 48.2884ZM29.3409 47.2758C29.6826 47.8675 29.2067 48.2884 28.5358 48.2884C28.5358 48.0567 28.5358 47.9774 28.4808 47.6968C28.7919 47.6724 29.158 47.5564 29.3409 47.2758ZM19.1113 11.0656C20.6423 10.7362 22.2039 9.87607 22.9054 9.15016C23.4849 9.18677 24.2352 9.19286 24.8025 9.15627C25.4918 9.88827 27.029 10.7301 28.5663 11.0595C27.6757 11.0595 26.1202 10.9802 25.9249 10.7606C25.9799 11.3218 27.1694 11.9562 27.9501 12.1271C27.3036 12.2063 26.7058 12.1271 26.1994 11.8952C26.4739 12.2917 26.7911 12.5906 27.3097 12.7675C26.7667 13.4385 25.6443 13.8716 24.5342 13.7679C24.8086 14.0974 25.315 14.3047 25.7541 14.2438C24.7537 15.8358 24.0157 17.4707 23.8388 19.3618H23.8327V19.3679C23.6679 17.4707 22.9298 15.8358 21.9355 14.2438C22.3869 14.2986 22.8811 14.0974 23.1373 13.7679C22.0149 13.8777 20.9351 13.4385 20.3739 12.7675C20.8986 12.5906 21.2096 12.2917 21.4841 11.8952C20.9901 12.1271 20.3739 12.2063 19.7335 12.1271C20.5142 11.9501 21.716 11.3218 21.7708 10.7606C21.5574 10.9863 20.0019 11.0656 19.1113 11.0656ZM5.07519 27.8958C4.93489 27.9568 4.76409 28.03 4.63599 28.0849C4.63599 28.0727 4.63599 28.0605 4.63599 28.0483C4.7702 27.9934 4.941 27.9446 5.07519 27.8958ZM14.9206 35.0634C14.951 35.2526 14.9755 35.3624 15.0548 35.4904C13.9995 35.6552 13.5542 36.0639 13.1699 36.7348C12.6331 37.6377 13.1943 38.8028 13.0418 39.2787C12.932 39.5775 12.5843 39.8703 12.0231 39.608C12.2976 40.8159 13.7981 40.6756 14.1947 40.0045C14.3289 40.5657 14.1947 41.2124 13.9202 41.4563C14.3898 41.4807 14.7864 41.2916 15.0304 40.9195C15.0852 41.0293 15.0852 41.1818 15.1096 41.316C15.3719 41.1818 15.5366 41.0293 15.6464 40.8951C15.6892 41.0293 15.738 41.3465 15.6769 41.6027C15.4757 41.7369 15.2499 41.865 14.8962 42.0481C14.335 42.3226 13.3102 42.719 12.7246 42.7984C12.2426 42.8776 11.4069 42.6031 11.1935 41.9322C10.9983 41.2916 10.4676 41.0843 10.0467 41.4807C9.93688 41.4015 9.63798 41.3404 9.50988 41.5418C9.50988 41.5418 9.37569 41.2368 9.21098 41.0904C9.32079 40.7609 9.23539 40.3644 8.93649 40.2302C8.91208 39.5836 8.51558 39.5836 8.37528 39.364C8.29599 39.2298 8.29599 39.059 8.48508 39.0346C8.40579 38.9126 8.23499 38.8882 8.21059 38.8882C8.26549 38.6137 8.18009 38.272 7.81409 38.1623L4.5689 31.4644C4.77629 31.2448 4.66649 30.9276 4.43469 30.8178C4.43469 30.8178 4.43469 30.7934 4.43469 30.7628C4.45299 30.7079 4.45909 30.6714 4.46519 30.6287C4.55059 30.6164 4.66039 30.592 4.75189 30.5676C5.39239 30.4151 6.39278 29.4757 7.25899 28.884C6.95399 29.2012 5.69739 30.1163 5.13619 30.647C4.6116 31.1654 4.83119 31.684 4.91659 32.1536L5.03859 32.4159C5.51439 32.4465 6.22809 32.7332 6.75879 32.2939C6.92349 32.1292 9.26589 29.2256 9.57699 28.945C9.45498 29.2073 7.97879 31.0679 7.30779 32.1353C6.81369 32.9406 7.53959 33.4713 7.62499 33.941C8.15569 33.7763 8.88159 34.0935 9.26589 33.453C9.63798 32.8368 10.7726 30.6348 11.1935 30.0186C11.0288 30.5006 9.82708 33.0016 9.74168 33.2212C9.45498 34.0691 10.1809 34.2338 10.4676 34.795C10.9068 34.4778 11.6937 34.7279 11.9987 33.9166C12.1878 33.3737 12.6696 31.4705 12.9198 30.9642C12.8893 31.5254 12.7246 32.2817 12.6148 33.1114C12.505 33.9471 13.2858 33.9166 13.6945 34.3986C14.0909 34.0691 14.8168 34.1484 14.9267 33.3981C15.0365 32.7271 15.0609 31.0984 15.0609 31.0984C15.1707 31.196 15.2255 31.2204 15.3476 31.3302C15.616 31.0129 16.1833 31.0129 16.3723 30.6348C16.4578 30.6592 16.4822 30.714 16.5676 30.769C17.1837 31.7938 17.2324 33.7763 16.3723 34.4778C16.6225 34.4778 16.9335 34.4473 17.1227 34.368C16.7445 35.1427 15.8966 35.4172 14.9206 35.0634ZM20.984 44.4332C20.4777 45.1287 20.0811 45.6349 19.7518 46.5012C19.1601 46.4462 19.276 45.7203 19.4651 45.3543C19.8616 44.6284 21.472 43.6829 22.2833 42.7373C21.9233 43.3413 21.4232 43.8903 20.984 44.4332ZM22.7347 45.7203C22.4053 47.0013 22.1735 48.8924 22.2833 49.7403C21.1487 49.1486 21.7891 46.8671 22.2283 45.885C22.8384 44.5186 23.2654 42.8471 23.4057 41.7797C23.7594 42.5909 22.9726 44.8541 22.7347 45.7203ZM25.3882 49.7403C25.4979 48.8924 25.2784 47.0013 24.9367 45.7203C24.6989 44.8541 23.918 42.5909 24.2658 41.7797C24.4 42.8471 24.827 44.5125 25.4431 45.885C25.8823 46.8671 26.5227 49.1486 25.3882 49.7403ZM28.2063 45.3482C28.4016 45.7203 28.5113 46.4401 27.9196 46.495C27.5903 45.6288 27.1937 45.1287 26.7058 44.4272C26.2483 43.8903 25.7481 43.3352 25.3882 42.7312C26.1933 43.6829 27.8098 44.6223 28.2063 45.3482ZM28.066 35.5576C26.5838 38.4368 23.8693 40.7792 23.8388 40.7487C23.8082 40.7853 21.0937 38.4368 19.6115 35.5576C18.1292 32.6844 17.1776 28.1642 17.1288 26.0047C17.0738 23.8453 17.5008 22.9242 17.5008 22.9242C17.5008 22.9242 19.3552 22.8205 20.8376 22.3081C22.0941 21.875 23.4606 20.7709 23.8449 20.4475C24.2291 20.7709 25.5956 21.8689 26.8583 22.3081C28.3344 22.8267 30.1888 22.9242 30.1888 22.9242C30.1888 22.9242 30.6097 23.8514 30.5549 26.0047C30.4938 28.1642 29.5423 32.6844 28.066 35.5576Z" fill="#3A3A3A"></path></svg> 