<?xml version="1.0" encoding="UTF-8"?> <svg xmlns="http://www.w3.org/2000/svg" width="352" height="166" viewBox="0 0 352 166" fill="none"><rect width="352" height="166" rx="30" fill="#D44333"></rect><path d="M30.98 110V94.6H33.62V105.82L41.188 94.6H43.74V110H41.1V98.78L33.532 110H30.98ZM46.7548 110V98.34H49.1748V103.026H54.6748V98.34H57.0948V110H54.6748V105.094H49.1748V110H46.7548ZM58.5826 112.75V107.932H59.9026C60.1079 107.624 60.2839 107.147 60.4306 106.502C60.5772 105.842 60.6872 105.087 60.7606 104.236C60.8486 103.385 60.8926 102.52 60.8926 101.64V98.34H69.5826V107.932H71.1226V112.75H68.8786V110H60.8266V112.75H58.5826ZM62.3666 107.932H67.1626V100.408H63.2246V102.08C63.2246 103.209 63.1586 104.295 63.0266 105.336C62.8946 106.363 62.6746 107.228 62.3666 107.932ZM77.6703 110.242C76.6436 110.242 75.6976 110.029 74.8323 109.604C73.967 109.164 73.2703 108.504 72.7423 107.624C72.2143 106.744 71.9503 105.629 71.9503 104.28V103.84C71.9503 102.549 72.1996 101.479 72.6983 100.628C73.2116 99.7773 73.8863 99.1467 74.7223 98.736C75.5583 98.3107 76.4676 98.098 77.4503 98.098C79.225 98.098 80.5816 98.5747 81.5203 99.528C82.4736 100.481 82.9503 101.845 82.9503 103.62V104.852H74.4143C74.4436 105.644 74.6123 106.282 74.9203 106.766C75.2283 107.25 75.6243 107.602 76.1083 107.822C76.5923 108.027 77.113 108.13 77.6703 108.13C78.5063 108.13 79.115 107.998 79.4963 107.734C79.8923 107.47 80.1636 107.125 80.3103 106.7H82.7303C82.4956 107.859 81.9163 108.739 80.9923 109.34C80.083 109.941 78.9756 110.242 77.6703 110.242ZM77.5603 100.21C77.0176 100.21 76.5116 100.305 76.0423 100.496C75.573 100.687 75.1916 100.987 74.8983 101.398C74.605 101.809 74.4436 102.359 74.4143 103.048H80.5303C80.5156 102.315 80.3763 101.743 80.1123 101.332C79.8483 100.921 79.4963 100.635 79.0563 100.474C78.6163 100.298 78.1176 100.21 77.5603 100.21ZM84.872 110V98.34H87.292V103.07H88.612L92.704 98.34H95.432L90.482 103.906L95.652 110H92.704L88.612 105.05H87.292V110H84.872ZM101.544 110.242C100.503 110.242 99.5641 110.022 98.7281 109.582C97.8921 109.142 97.2321 108.482 96.7481 107.602C96.2787 106.722 96.0441 105.615 96.0441 104.28V103.84C96.0441 102.579 96.2934 101.523 96.7921 100.672C97.3054 99.8213 97.9801 99.1833 98.8161 98.758C99.6521 98.318 100.561 98.098 101.544 98.098C102.571 98.098 103.436 98.274 104.14 98.626C104.859 98.978 105.416 99.4547 105.812 100.056C106.223 100.657 106.487 101.332 106.604 102.08H104.14C103.993 101.537 103.729 101.09 103.348 100.738C102.967 100.386 102.365 100.21 101.544 100.21C101.001 100.21 100.495 100.335 100.026 100.584C99.5714 100.833 99.2047 101.229 98.9261 101.772C98.6474 102.3 98.5081 102.989 98.5081 103.84V104.28C98.5081 105.204 98.6474 105.952 98.9261 106.524C99.2047 107.081 99.5714 107.492 100.026 107.756C100.495 108.005 101.001 108.13 101.544 108.13C102.233 108.13 102.791 107.976 103.216 107.668C103.641 107.36 103.949 106.891 104.14 106.26H106.604C106.457 107.081 106.149 107.793 105.68 108.394C105.225 108.981 104.646 109.435 103.942 109.758C103.238 110.081 102.439 110.242 101.544 110.242ZM115.277 114.642C115.057 114.642 114.837 114.62 114.617 114.576V112.464C114.837 112.508 115.057 112.53 115.277 112.53C115.6 112.53 115.864 112.449 116.069 112.288C116.275 112.141 116.465 111.885 116.641 111.518C116.817 111.151 117.023 110.645 117.257 110L112.307 98.34H114.947L118.511 107.36L121.723 98.34H124.187L119.677 110C119.252 111.085 118.849 111.973 118.467 112.662C118.086 113.351 117.653 113.85 117.169 114.158C116.685 114.481 116.055 114.642 115.277 114.642ZM123.903 112.75V107.932H125.223C125.428 107.624 125.604 107.147 125.751 106.502C125.898 105.842 126.008 105.087 126.081 104.236C126.169 103.385 126.213 102.52 126.213 101.64V98.34H134.903V107.932H136.443V112.75H134.199V110H126.147V112.75H123.903ZM127.687 107.932H132.483V100.408H128.545V102.08C128.545 103.209 128.479 104.295 128.347 105.336C128.215 106.363 127.995 107.228 127.687 107.932ZM142.991 110.242C141.92 110.242 140.952 110.022 140.087 109.582C139.221 109.127 138.532 108.46 138.019 107.58C137.52 106.685 137.271 105.585 137.271 104.28V103.84C137.271 102.608 137.52 101.567 138.019 100.716C138.532 99.8507 139.221 99.198 140.087 98.758C140.952 98.318 141.92 98.098 142.991 98.098C144.076 98.098 145.044 98.318 145.895 98.758C146.76 99.198 147.442 99.8507 147.941 100.716C148.454 101.567 148.711 102.608 148.711 103.84V104.28C148.711 105.585 148.454 106.685 147.941 107.58C147.442 108.46 146.76 109.127 145.895 109.582C145.044 110.022 144.076 110.242 142.991 110.242ZM142.991 108.13C143.548 108.13 144.076 107.998 144.575 107.734C145.073 107.47 145.477 107.059 145.785 106.502C146.093 105.93 146.247 105.189 146.247 104.28V103.84C146.247 103.004 146.093 102.322 145.785 101.794C145.477 101.251 145.073 100.855 144.575 100.606C144.076 100.342 143.548 100.21 142.991 100.21C142.433 100.21 141.905 100.342 141.407 100.606C140.908 100.855 140.505 101.251 140.197 101.794C139.889 102.322 139.735 103.004 139.735 103.84V104.28C139.735 105.189 139.889 105.93 140.197 106.502C140.505 107.059 140.908 107.47 141.407 107.734C141.905 107.998 142.433 108.13 142.991 108.13ZM150.622 110V98.34H156.122C157.105 98.34 157.897 98.4793 158.498 98.758C159.114 99.022 159.569 99.396 159.862 99.88C160.155 100.349 160.302 100.892 160.302 101.508C160.302 102.021 160.148 102.52 159.84 103.004C159.532 103.473 159.099 103.789 158.542 103.95C159.261 104.126 159.803 104.463 160.17 104.962C160.551 105.446 160.742 106.018 160.742 106.678C160.742 107.69 160.405 108.497 159.73 109.098C159.055 109.699 157.999 110 156.562 110H150.622ZM153.042 107.932H156.232C157.024 107.932 157.567 107.807 157.86 107.558C158.168 107.294 158.322 106.927 158.322 106.458C158.322 105.989 158.168 105.637 157.86 105.402C157.567 105.153 157.024 105.028 156.232 105.028H153.042V107.932ZM153.042 103.136H155.902C156.635 103.136 157.149 103.019 157.442 102.784C157.735 102.535 157.882 102.197 157.882 101.772C157.882 101.347 157.735 101.017 157.442 100.782C157.149 100.533 156.635 100.408 155.902 100.408H153.042V103.136ZM162.449 110.242C162.332 110.242 162.2 110.235 162.053 110.22C161.921 110.22 161.796 110.205 161.679 110.176V107.888C161.723 107.903 161.833 107.91 162.009 107.91C162.42 107.91 162.75 107.734 162.999 107.382C163.263 107.03 163.454 106.421 163.571 105.556C163.703 104.676 163.769 103.444 163.769 101.86V98.34H172.569V110H170.149V100.408H166.101V102.3C166.101 103.855 166.02 105.153 165.859 106.194C165.712 107.221 165.485 108.027 165.177 108.614C164.869 109.201 164.488 109.619 164.033 109.868C163.578 110.117 163.05 110.242 162.449 110.242ZM180.205 110.242C179.179 110.242 178.233 110.029 177.367 109.604C176.502 109.164 175.805 108.504 175.277 107.624C174.749 106.744 174.485 105.629 174.485 104.28V103.84C174.485 102.549 174.735 101.479 175.233 100.628C175.747 99.7773 176.421 99.1467 177.257 98.736C178.093 98.3107 179.003 98.098 179.985 98.098C181.76 98.098 183.117 98.5747 184.055 99.528C185.009 100.481 185.485 101.845 185.485 103.62V104.852H176.949C176.979 105.644 177.147 106.282 177.455 106.766C177.763 107.25 178.159 107.602 178.643 107.822C179.127 108.027 179.648 108.13 180.205 108.13C181.041 108.13 181.65 107.998 182.031 107.734C182.427 107.47 182.699 107.125 182.845 106.7H185.265C185.031 107.859 184.451 108.739 183.527 109.34C182.618 109.941 181.511 110.242 180.205 110.242ZM180.095 100.21C179.553 100.21 179.047 100.305 178.577 100.496C178.108 100.687 177.727 100.987 177.433 101.398C177.14 101.809 176.979 102.359 176.949 103.048H183.065C183.051 102.315 182.911 101.743 182.647 101.332C182.383 100.921 182.031 100.635 181.591 100.474C181.151 100.298 180.653 100.21 180.095 100.21ZM189.942 110V100.408H186.092V98.34H196.212V100.408H192.362V110H189.942ZM197.692 110V98.34H203.192C204.175 98.34 204.967 98.4793 205.568 98.758C206.184 99.022 206.639 99.396 206.932 99.88C207.226 100.349 207.372 100.892 207.372 101.508C207.372 102.021 207.218 102.52 206.91 103.004C206.602 103.473 206.17 103.789 205.612 103.95C206.331 104.126 206.874 104.463 207.24 104.962C207.622 105.446 207.812 106.018 207.812 106.678C207.812 107.69 207.475 108.497 206.8 109.098C206.126 109.699 205.07 110 203.632 110H197.692ZM200.112 107.932H203.302C204.094 107.932 204.637 107.807 204.93 107.558C205.238 107.294 205.392 106.927 205.392 106.458C205.392 105.989 205.238 105.637 204.93 105.402C204.637 105.153 204.094 105.028 203.302 105.028H200.112V107.932ZM200.112 103.136H202.972C203.706 103.136 204.219 103.019 204.512 102.784C204.806 102.535 204.952 102.197 204.952 101.772C204.952 101.347 204.806 101.017 204.512 100.782C204.219 100.533 203.706 100.408 202.972 100.408H200.112V103.136ZM214.799 110.242C213.729 110.242 212.761 110.022 211.895 109.582C211.03 109.127 210.341 108.46 209.827 107.58C209.329 106.685 209.079 105.585 209.079 104.28V103.84C209.079 102.608 209.329 101.567 209.827 100.716C210.341 99.8507 211.03 99.198 211.895 98.758C212.761 98.318 213.729 98.098 214.799 98.098C215.885 98.098 216.853 98.318 217.703 98.758C218.569 99.198 219.251 99.8507 219.749 100.716C220.263 101.567 220.519 102.608 220.519 103.84V104.28C220.519 105.585 220.263 106.685 219.749 107.58C219.251 108.46 218.569 109.127 217.703 109.582C216.853 110.022 215.885 110.242 214.799 110.242ZM214.799 108.13C215.357 108.13 215.885 107.998 216.383 107.734C216.882 107.47 217.285 107.059 217.593 106.502C217.901 105.93 218.055 105.189 218.055 104.28V103.84C218.055 103.004 217.901 102.322 217.593 101.794C217.285 101.251 216.882 100.855 216.383 100.606C215.885 100.342 215.357 100.21 214.799 100.21C214.242 100.21 213.714 100.342 213.215 100.606C212.717 100.855 212.313 101.251 212.005 101.794C211.697 102.322 211.543 103.004 211.543 103.84V104.28C211.543 105.189 211.697 105.93 212.005 106.502C212.313 107.059 212.717 107.47 213.215 107.734C213.714 107.998 214.242 108.13 214.799 108.13ZM222.431 114.4V98.34H224.675V100.298C225.027 99.6233 225.547 99.088 226.237 98.692C226.941 98.296 227.733 98.098 228.613 98.098C230.138 98.098 231.341 98.5747 232.221 99.528C233.101 100.481 233.541 101.919 233.541 103.84V104.28C233.541 105.6 233.335 106.707 232.925 107.602C232.514 108.482 231.942 109.142 231.209 109.582C230.475 110.022 229.61 110.242 228.613 110.242C227.777 110.242 227.014 110.059 226.325 109.692C225.635 109.325 225.144 108.812 224.851 108.152V114.4H222.431ZM228.041 108.13C228.95 108.13 229.683 107.815 230.241 107.184C230.798 106.553 231.077 105.585 231.077 104.28V103.84C231.077 102.608 230.805 101.699 230.263 101.112C229.72 100.511 228.979 100.21 228.041 100.21C227.498 100.21 226.977 100.327 226.479 100.562C225.995 100.797 225.599 101.141 225.291 101.596C224.997 102.051 224.851 102.615 224.851 103.29V104.83C224.851 105.563 224.997 106.179 225.291 106.678C225.599 107.162 225.995 107.529 226.479 107.778C226.963 108.013 227.483 108.13 228.041 108.13ZM240.526 110.242C239.499 110.242 238.553 110.029 237.688 109.604C236.822 109.164 236.126 108.504 235.598 107.624C235.07 106.744 234.806 105.629 234.806 104.28V103.84C234.806 102.549 235.055 101.479 235.554 100.628C236.067 99.7773 236.742 99.1467 237.578 98.736C238.414 98.3107 239.323 98.098 240.306 98.098C242.08 98.098 243.437 98.5747 244.376 99.528C245.329 100.481 245.806 101.845 245.806 103.62V104.852H237.27C237.299 105.644 237.468 106.282 237.776 106.766C238.084 107.25 238.48 107.602 238.964 107.822C239.448 108.027 239.968 108.13 240.526 108.13C241.362 108.13 241.97 107.998 242.352 107.734C242.748 107.47 243.019 107.125 243.166 106.7H245.586C245.351 107.859 244.772 108.739 243.848 109.34C242.938 109.941 241.831 110.242 240.526 110.242ZM240.416 100.21C239.873 100.21 239.367 100.305 238.898 100.496C238.428 100.687 238.047 100.987 237.754 101.398C237.46 101.809 237.299 102.359 237.27 103.048H243.386C243.371 102.315 243.232 101.743 242.968 101.332C242.704 100.921 242.352 100.635 241.912 100.474C241.472 100.298 240.973 100.21 240.416 100.21ZM247.728 110V98.34H250.148V103.026H255.648V98.34H258.068V110H255.648V105.094H250.148V110H247.728ZM260.655 110V98.34H263.075V103.026H268.575V98.34H270.995V110H268.575V105.094H263.075V110H260.655ZM278.643 110.242C277.572 110.242 276.604 110.022 275.739 109.582C274.874 109.127 274.184 108.46 273.671 107.58C273.172 106.685 272.923 105.585 272.923 104.28V103.84C272.923 102.608 273.172 101.567 273.671 100.716C274.184 99.8507 274.874 99.198 275.739 98.758C276.604 98.318 277.572 98.098 278.643 98.098C279.728 98.098 280.696 98.318 281.547 98.758C282.412 99.198 283.094 99.8507 283.593 100.716C284.106 101.567 284.363 102.608 284.363 103.84V104.28C284.363 105.585 284.106 106.685 283.593 107.58C283.094 108.46 282.412 109.127 281.547 109.582C280.696 110.022 279.728 110.242 278.643 110.242ZM278.643 108.13C279.2 108.13 279.728 107.998 280.227 107.734C280.726 107.47 281.129 107.059 281.437 106.502C281.745 105.93 281.899 105.189 281.899 104.28V103.84C281.899 103.004 281.745 102.322 281.437 101.794C281.129 101.251 280.726 100.855 280.227 100.606C279.728 100.342 279.2 100.21 278.643 100.21C278.086 100.21 277.558 100.342 277.059 100.606C276.56 100.855 276.157 101.251 275.849 101.794C275.541 102.322 275.387 103.004 275.387 103.84V104.28C275.387 105.189 275.541 105.93 275.849 106.502C276.157 107.059 276.56 107.47 277.059 107.734C277.558 107.998 278.086 108.13 278.643 108.13ZM291.114 110.242C290.073 110.242 289.134 110.022 288.298 109.582C287.462 109.142 286.802 108.482 286.318 107.602C285.849 106.722 285.614 105.615 285.614 104.28V103.84C285.614 102.579 285.864 101.523 286.362 100.672C286.876 99.8213 287.55 99.1833 288.386 98.758C289.222 98.318 290.132 98.098 291.114 98.098C292.141 98.098 293.006 98.274 293.71 98.626C294.429 98.978 294.986 99.4547 295.382 100.056C295.793 100.657 296.057 101.332 296.174 102.08H293.71C293.564 101.537 293.3 101.09 292.918 100.738C292.537 100.386 291.936 100.21 291.114 100.21C290.572 100.21 290.066 100.335 289.596 100.584C289.142 100.833 288.775 101.229 288.496 101.772C288.218 102.3 288.078 102.989 288.078 103.84V104.28C288.078 105.204 288.218 105.952 288.496 106.524C288.775 107.081 289.142 107.492 289.596 107.756C290.066 108.005 290.572 108.13 291.114 108.13C291.804 108.13 292.361 107.976 292.786 107.668C293.212 107.36 293.52 106.891 293.71 106.26H296.174C296.028 107.081 295.72 107.793 295.25 108.394C294.796 108.981 294.216 109.435 293.512 109.758C292.808 110.081 292.009 110.242 291.114 110.242ZM300.728 110V100.408H296.878V98.34H306.998V100.408H303.148V110H300.728ZM308.478 110V98.34H310.898V106.59L316.508 98.34H318.818V110H316.398V101.75L310.788 110H308.478ZM30.54 135V123.34H40.66V135H38.24V125.408H32.96V135H30.54ZM48.2914 135.242C47.2207 135.242 46.2527 135.022 45.3874 134.582C44.5221 134.127 43.8327 133.46 43.3194 132.58C42.8207 131.685 42.5714 130.585 42.5714 129.28V128.84C42.5714 127.608 42.8207 126.567 43.3194 125.716C43.8327 124.851 44.5221 124.198 45.3874 123.758C46.2527 123.318 47.2207 123.098 48.2914 123.098C49.3767 123.098 50.3447 123.318 51.1954 123.758C52.0607 124.198 52.7427 124.851 53.2414 125.716C53.7547 126.567 54.0114 127.608 54.0114 128.84V129.28C54.0114 130.585 53.7547 131.685 53.2414 132.58C52.7427 133.46 52.0607 134.127 51.1954 134.582C50.3447 135.022 49.3767 135.242 48.2914 135.242ZM48.2914 133.13C48.8487 133.13 49.3767 132.998 49.8754 132.734C50.3741 132.47 50.7774 132.059 51.0854 131.502C51.3934 130.93 51.5474 130.189 51.5474 129.28V128.84C51.5474 128.004 51.3934 127.322 51.0854 126.794C50.7774 126.251 50.3741 125.855 49.8754 125.606C49.3767 125.342 48.8487 125.21 48.2914 125.21C47.7341 125.21 47.2061 125.342 46.7074 125.606C46.2087 125.855 45.8054 126.251 45.4974 126.794C45.1894 127.322 45.0354 128.004 45.0354 128.84V129.28C45.0354 130.189 45.1894 130.93 45.4974 131.502C45.8054 132.059 46.2087 132.47 46.7074 132.734C47.2061 132.998 47.7341 133.13 48.2914 133.13ZM54.7154 137.75V132.932H56.0354C56.2407 132.624 56.4167 132.147 56.5634 131.502C56.7101 130.842 56.8201 130.087 56.8934 129.236C56.9814 128.385 57.0254 127.52 57.0254 126.64V123.34H65.7154V132.932H67.2554V137.75H65.0114V135H56.9594V137.75H54.7154ZM58.4994 132.932H63.2954V125.408H59.3574V127.08C59.3574 128.209 59.2914 129.295 59.1594 130.336C59.0274 131.363 58.8074 132.228 58.4994 132.932ZM68.4166 137.75V132.932H69.7366C69.9419 132.624 70.1179 132.147 70.2646 131.502C70.4112 130.842 70.5212 130.087 70.5946 129.236C70.6826 128.385 70.7266 127.52 70.7266 126.64V123.34H79.4166V132.932H80.9566V137.75H78.7126V135H70.6606V137.75H68.4166ZM72.2006 132.932H76.9966V125.408H73.0586V127.08C73.0586 128.209 72.9926 129.295 72.8606 130.336C72.7286 131.363 72.5086 132.228 72.2006 132.932ZM87.5043 135.242C86.4776 135.242 85.5316 135.029 84.6663 134.604C83.801 134.164 83.1043 133.504 82.5763 132.624C82.0483 131.744 81.7843 130.629 81.7843 129.28V128.84C81.7843 127.549 82.0336 126.479 82.5323 125.628C83.0456 124.777 83.7203 124.147 84.5563 123.736C85.3923 123.311 86.3016 123.098 87.2843 123.098C89.059 123.098 90.4156 123.575 91.3543 124.528C92.3076 125.481 92.7843 126.845 92.7843 128.62V129.852H84.2483C84.2776 130.644 84.4463 131.282 84.7543 131.766C85.0623 132.25 85.4583 132.602 85.9423 132.822C86.4263 133.027 86.947 133.13 87.5043 133.13C88.3403 133.13 88.949 132.998 89.3303 132.734C89.7263 132.47 89.9976 132.125 90.1443 131.7H92.5643C92.3296 132.859 91.7503 133.739 90.8263 134.34C89.917 134.941 88.8096 135.242 87.5043 135.242ZM87.3943 125.21C86.8516 125.21 86.3456 125.305 85.8763 125.496C85.407 125.687 85.0256 125.987 84.7323 126.398C84.439 126.809 84.2776 127.359 84.2483 128.048H90.3643C90.3496 127.315 90.2103 126.743 89.9463 126.332C89.6823 125.921 89.3303 125.635 88.8903 125.474C88.4503 125.298 87.9516 125.21 87.3943 125.21ZM94.706 139.4V123.34H96.95V125.298C97.302 124.623 97.8227 124.088 98.512 123.692C99.216 123.296 100.008 123.098 100.888 123.098C102.413 123.098 103.616 123.575 104.496 124.528C105.376 125.481 105.816 126.919 105.816 128.84V129.28C105.816 130.6 105.611 131.707 105.2 132.602C104.789 133.482 104.217 134.142 103.484 134.582C102.751 135.022 101.885 135.242 100.888 135.242C100.052 135.242 99.2893 135.059 98.6 134.692C97.9107 134.325 97.4193 133.812 97.126 133.152V139.4H94.706ZM100.316 133.13C101.225 133.13 101.959 132.815 102.516 132.184C103.073 131.553 103.352 130.585 103.352 129.28V128.84C103.352 127.608 103.081 126.699 102.538 126.112C101.995 125.511 101.255 125.21 100.316 125.21C99.7733 125.21 99.2527 125.327 98.754 125.562C98.27 125.797 97.874 126.141 97.566 126.596C97.2727 127.051 97.126 127.615 97.126 128.29V129.83C97.126 130.563 97.2727 131.179 97.566 131.678C97.874 132.162 98.27 132.529 98.754 132.778C99.238 133.013 99.7587 133.13 100.316 133.13ZM106.211 135L110.391 128.994L106.431 123.34H109.203L112.371 128.026H113.471V123.34H115.891V128.026H116.991L120.423 123.34H122.931L118.751 128.884L123.151 135H120.423L116.991 130.094H115.891V135H113.471V130.094H112.371L109.071 135H106.211ZM124.622 135V123.34H127.042V128.07H128.362L132.454 123.34H135.182L130.232 128.906L135.402 135H132.454L128.362 130.05H127.042V135H124.622ZM141.514 135.242C140.443 135.242 139.475 135.022 138.61 134.582C137.745 134.127 137.055 133.46 136.542 132.58C136.043 131.685 135.794 130.585 135.794 129.28V128.84C135.794 127.608 136.043 126.567 136.542 125.716C137.055 124.851 137.745 124.198 138.61 123.758C139.475 123.318 140.443 123.098 141.514 123.098C142.599 123.098 143.567 123.318 144.418 123.758C145.283 124.198 145.965 124.851 146.464 125.716C146.977 126.567 147.234 127.608 147.234 128.84V129.28C147.234 130.585 146.977 131.685 146.464 132.58C145.965 133.46 145.283 134.127 144.418 134.582C143.567 135.022 142.599 135.242 141.514 135.242ZM141.514 133.13C142.071 133.13 142.599 132.998 143.098 132.734C143.597 132.47 144 132.059 144.308 131.502C144.616 130.93 144.77 130.189 144.77 129.28V128.84C144.77 128.004 144.616 127.322 144.308 126.794C144 126.251 143.597 125.855 143.098 125.606C142.599 125.342 142.071 125.21 141.514 125.21C140.957 125.21 140.429 125.342 139.93 125.606C139.431 125.855 139.028 126.251 138.72 126.794C138.412 127.322 138.258 128.004 138.258 128.84V129.28C138.258 130.189 138.412 130.93 138.72 131.502C139.028 132.059 139.431 132.47 139.93 132.734C140.429 132.998 140.957 133.13 141.514 133.13ZM149.145 135V123.34H151.565V131.59L157.175 123.34H159.485V135H157.065V126.75L151.455 135H149.145ZM154.293 122.02C153.091 122.02 152.203 121.756 151.631 121.228C151.074 120.685 150.795 119.923 150.795 118.94H153.039C153.039 119.468 153.142 119.849 153.347 120.084C153.567 120.319 153.89 120.436 154.315 120.436C154.741 120.436 155.056 120.319 155.261 120.084C155.481 119.849 155.591 119.468 155.591 118.94H157.835C157.835 119.923 157.549 120.685 156.977 121.228C156.405 121.756 155.511 122.02 154.293 122.02ZM171.913 135.242C170.872 135.242 169.933 135.022 169.097 134.582C168.261 134.142 167.601 133.482 167.117 132.602C166.648 131.722 166.413 130.615 166.413 129.28V128.84C166.413 127.579 166.663 126.523 167.161 125.672C167.675 124.821 168.349 124.183 169.185 123.758C170.021 123.318 170.931 123.098 171.913 123.098C172.94 123.098 173.805 123.274 174.509 123.626C175.228 123.978 175.785 124.455 176.181 125.056C176.592 125.657 176.856 126.332 176.973 127.08H174.509C174.363 126.537 174.099 126.09 173.717 125.738C173.336 125.386 172.735 125.21 171.913 125.21C171.371 125.21 170.865 125.335 170.395 125.584C169.941 125.833 169.574 126.229 169.295 126.772C169.017 127.3 168.877 127.989 168.877 128.84V129.28C168.877 130.204 169.017 130.952 169.295 131.524C169.574 132.081 169.941 132.492 170.395 132.756C170.865 133.005 171.371 133.13 171.913 133.13C172.603 133.13 173.16 132.976 173.585 132.668C174.011 132.36 174.319 131.891 174.509 131.26H176.973C176.827 132.081 176.519 132.793 176.049 133.394C175.595 133.981 175.015 134.435 174.311 134.758C173.607 135.081 172.808 135.242 171.913 135.242ZM183.836 135.242C182.81 135.242 181.864 135.029 180.998 134.604C180.133 134.164 179.436 133.504 178.908 132.624C178.38 131.744 178.116 130.629 178.116 129.28V128.84C178.116 127.549 178.366 126.479 178.864 125.628C179.378 124.777 180.052 124.147 180.888 123.736C181.724 123.311 182.634 123.098 183.616 123.098C185.391 123.098 186.748 123.575 187.686 124.528C188.64 125.481 189.116 126.845 189.116 128.62V129.852H180.58C180.61 130.644 180.778 131.282 181.086 131.766C181.394 132.25 181.79 132.602 182.274 132.822C182.758 133.027 183.279 133.13 183.836 133.13C184.672 133.13 185.281 132.998 185.662 132.734C186.058 132.47 186.33 132.125 186.476 131.7H188.896C188.662 132.859 188.082 133.739 187.158 134.34C186.249 134.941 185.142 135.242 183.836 135.242ZM183.726 125.21C183.184 125.21 182.678 125.305 182.208 125.496C181.739 125.687 181.358 125.987 181.064 126.398C180.771 126.809 180.61 127.359 180.58 128.048H186.696C186.682 127.315 186.542 126.743 186.278 126.332C186.014 125.921 185.662 125.635 185.222 125.474C184.782 125.298 184.284 125.21 183.726 125.21ZM191.038 139.4V123.34H193.282V125.298C193.634 124.623 194.155 124.088 194.844 123.692C195.548 123.296 196.34 123.098 197.22 123.098C198.745 123.098 199.948 123.575 200.828 124.528C201.708 125.481 202.148 126.919 202.148 128.84V129.28C202.148 130.6 201.943 131.707 201.532 132.602C201.121 133.482 200.549 134.142 199.816 134.582C199.083 135.022 198.217 135.242 197.22 135.242C196.384 135.242 195.621 135.059 194.932 134.692C194.243 134.325 193.751 133.812 193.458 133.152V139.4H191.038ZM196.648 133.13C197.557 133.13 198.291 132.815 198.848 132.184C199.405 131.553 199.684 130.585 199.684 129.28V128.84C199.684 127.608 199.413 126.699 198.87 126.112C198.327 125.511 197.587 125.21 196.648 125.21C196.105 125.21 195.585 125.327 195.086 125.562C194.602 125.797 194.206 126.141 193.898 126.596C193.605 127.051 193.458 127.615 193.458 128.29V129.83C193.458 130.563 193.605 131.179 193.898 131.678C194.206 132.162 194.602 132.529 195.086 132.778C195.57 133.013 196.091 133.13 196.648 133.13ZM204.073 135V123.34H209.573C210.556 123.34 211.348 123.479 211.949 123.758C212.565 124.022 213.02 124.396 213.313 124.88C213.607 125.349 213.753 125.892 213.753 126.508C213.753 127.021 213.599 127.52 213.291 128.004C212.983 128.473 212.551 128.789 211.993 128.95C212.712 129.126 213.255 129.463 213.621 129.962C214.003 130.446 214.193 131.018 214.193 131.678C214.193 132.69 213.856 133.497 213.181 134.098C212.507 134.699 211.451 135 210.013 135H204.073ZM206.493 132.932H209.683C210.475 132.932 211.018 132.807 211.311 132.558C211.619 132.294 211.773 131.927 211.773 131.458C211.773 130.989 211.619 130.637 211.311 130.402C211.018 130.153 210.475 130.028 209.683 130.028H206.493V132.932ZM206.493 128.136H209.353C210.087 128.136 210.6 128.019 210.893 127.784C211.187 127.535 211.333 127.197 211.333 126.772C211.333 126.347 211.187 126.017 210.893 125.782C210.6 125.533 210.087 125.408 209.353 125.408H206.493V128.136ZM216.12 135V123.34H218.54V131.59L224.15 123.34H226.46V135H224.04V126.75L218.43 135H216.12ZM233.888 135.242C232.846 135.242 231.908 135.022 231.072 134.582C230.236 134.142 229.576 133.482 229.092 132.602C228.622 131.722 228.388 130.615 228.388 129.28V128.84C228.388 127.579 228.637 126.523 229.136 125.672C229.649 124.821 230.324 124.183 231.16 123.758C231.996 123.318 232.905 123.098 233.888 123.098C234.914 123.098 235.78 123.274 236.484 123.626C237.202 123.978 237.76 124.455 238.156 125.056C238.566 125.657 238.83 126.332 238.948 127.08H236.484C236.337 126.537 236.073 126.09 235.692 125.738C235.31 125.386 234.709 125.21 233.888 125.21C233.345 125.21 232.839 125.335 232.37 125.584C231.915 125.833 231.548 126.229 231.27 126.772C230.991 127.3 230.852 127.989 230.852 128.84V129.28C230.852 130.204 230.991 130.952 231.27 131.524C231.548 132.081 231.915 132.492 232.37 132.756C232.839 133.005 233.345 133.13 233.888 133.13C234.577 133.13 235.134 132.976 235.56 132.668C235.985 132.36 236.293 131.891 236.484 131.26H238.948C238.801 132.081 238.493 132.793 238.024 133.394C237.569 133.981 236.99 134.435 236.286 134.758C235.582 135.081 234.782 135.242 233.888 135.242ZM244.161 135.242C243.325 135.242 242.606 135.088 242.005 134.78C241.418 134.457 240.971 134.017 240.663 133.46C240.355 132.903 240.201 132.279 240.201 131.59C240.201 130.431 240.546 129.573 241.235 129.016C241.924 128.444 242.936 128.158 244.271 128.158H247.901V127.52C247.901 126.64 247.703 126.039 247.307 125.716C246.926 125.379 246.317 125.21 245.481 125.21C244.733 125.21 244.183 125.327 243.831 125.562C243.479 125.797 243.274 126.119 243.215 126.53H240.861C240.905 125.855 241.118 125.261 241.499 124.748C241.88 124.235 242.416 123.831 243.105 123.538C243.809 123.245 244.638 123.098 245.591 123.098C246.544 123.098 247.373 123.245 248.077 123.538C248.796 123.831 249.346 124.293 249.727 124.924C250.123 125.54 250.321 126.361 250.321 127.388V132.03C250.321 132.646 250.328 133.189 250.343 133.658C250.358 134.113 250.394 134.56 250.453 135H248.253C248.209 134.663 248.172 134.377 248.143 134.142C248.128 133.907 248.121 133.614 248.121 133.262C247.842 133.805 247.358 134.274 246.669 134.67C245.994 135.051 245.158 135.242 244.161 135.242ZM244.821 133.13C245.378 133.13 245.884 133.035 246.339 132.844C246.808 132.653 247.182 132.367 247.461 131.986C247.754 131.605 247.901 131.143 247.901 130.6V129.962H244.711C244.095 129.962 243.596 130.094 243.215 130.358C242.848 130.622 242.665 131.011 242.665 131.524C242.665 132.008 242.834 132.397 243.171 132.69C243.523 132.983 244.073 133.13 244.821 133.13Z" fill="white"></path><path d="M42.7 69.637C40.3807 69.637 38.3553 69.3267 36.624 68.706C34.9253 68.0853 33.5697 67.1053 32.557 65.766C31.577 64.394 30.9563 62.6137 30.695 60.425H39.025C39.2537 61.1763 39.6783 61.7643 40.299 62.189C40.9197 62.581 41.8017 62.777 42.945 62.777C44.023 62.777 44.954 62.5157 45.738 61.993C46.5547 61.4703 47.1917 60.5883 47.649 59.347C48.139 58.1057 48.4167 56.3417 48.482 54.055C47.698 55.1983 46.6037 55.9987 45.199 56.456C43.7943 56.9133 42.308 57.142 40.74 57.142C38.4533 57.142 36.4933 56.701 34.86 55.819C33.2593 54.937 32.0343 53.6957 31.185 52.095C30.3683 50.4617 29.96 48.567 29.96 46.411V45.921C29.96 43.5363 30.499 41.4457 31.577 39.649C32.655 37.8523 34.174 36.4803 36.134 35.533C38.094 34.553 40.3643 34.063 42.945 34.063C45.983 34.063 48.531 34.6183 50.589 35.729C52.6797 36.807 54.2477 38.571 55.293 41.021C56.371 43.4383 56.91 46.6397 56.91 50.625V51.605C56.91 55.9497 56.3057 59.445 55.097 62.091C53.921 64.7043 52.255 66.6153 50.099 67.824C47.9757 69.0327 45.5093 69.637 42.7 69.637ZM43.435 50.772C44.8723 50.772 45.9993 50.3637 46.816 49.547C47.6653 48.6977 48.09 47.538 48.09 46.068V45.627C48.09 44.2223 47.649 43.0953 46.767 42.246C45.9177 41.364 44.807 40.923 43.435 40.923C41.9977 40.923 40.8543 41.3477 40.005 42.197C39.1883 43.0137 38.78 44.1407 38.78 45.578V46.068C38.78 47.538 39.1883 48.6977 40.005 49.547C40.8543 50.3637 41.9977 50.772 43.435 50.772ZM72.7835 69.637C69.9742 69.637 67.5405 69.2287 65.4825 68.412C63.4245 67.5627 61.8402 66.3867 60.7295 64.884C59.6188 63.3487 59.0635 61.5357 59.0635 59.445C59.0635 57.5503 59.6352 55.8517 60.7785 54.349C61.9218 52.8463 63.6205 51.801 65.8745 51.213C64.1758 50.625 62.7712 49.6777 61.6605 48.371C60.5825 47.0643 60.0435 45.4637 60.0435 43.569C60.0435 41.6743 60.5335 40.0247 61.5135 38.62C62.5262 37.1827 63.9798 36.072 65.8745 35.288C67.8018 34.4713 70.1048 34.063 72.7835 34.063C75.4949 34.063 77.7979 34.4713 79.6925 35.288C81.5872 36.072 83.0245 37.1827 84.0045 38.62C85.0172 40.0247 85.5235 41.6743 85.5235 43.569C85.5235 45.431 84.9845 47.0153 83.9065 48.322C82.8285 49.6287 81.4238 50.5923 79.6925 51.213C81.9465 51.8663 83.6452 52.8953 84.7885 54.3C85.9318 55.7047 86.5035 57.4197 86.5035 59.445C86.5035 61.5357 85.9482 63.3487 84.8375 64.884C83.7268 66.3867 82.1425 67.5627 80.0845 68.412C78.0265 69.2287 75.5928 69.637 72.7835 69.637ZM72.7835 62.875C73.9595 62.875 74.9395 62.728 75.7235 62.434C76.5402 62.1073 77.1445 61.65 77.5365 61.062C77.9612 60.4413 78.1735 59.7227 78.1735 58.906C78.1735 57.534 77.6345 56.4887 76.5565 55.77C75.5112 55.0187 74.2535 54.5123 72.7835 54.251C71.3462 54.5123 70.0885 55.0187 69.0105 55.77C67.9325 56.5213 67.3935 57.5667 67.3935 58.906C67.3935 59.7227 67.6058 60.4413 68.0305 61.062C68.4878 61.65 69.1085 62.1073 69.8925 62.434C70.7092 62.728 71.6728 62.875 72.7835 62.875ZM72.7835 48.469C74.0248 48.2403 75.0702 47.832 75.9195 47.244C76.7688 46.6233 77.1935 45.676 77.1935 44.402C77.1935 43.226 76.8015 42.344 76.0175 41.756C75.2335 41.1353 74.1555 40.825 72.7835 40.825C71.4115 40.825 70.3335 41.119 69.5495 41.707C68.7655 42.295 68.3735 43.1933 68.3735 44.402C68.3735 45.676 68.8145 46.607 69.6965 47.195C70.5785 47.783 71.6075 48.2077 72.7835 48.469ZM88.4063 77.085L90.3663 69V61.65H98.2553V69L92.2283 77.085H88.4063ZM105.532 69L116.704 41.903H101.122V34.7H125.622V40.923L114.842 69H105.532ZM134.153 51.507C131.507 51.507 129.416 50.7557 127.881 49.253C126.345 47.7503 125.578 45.7577 125.578 43.275V42.785C125.578 41.119 125.921 39.6817 126.607 38.473C127.293 37.2317 128.273 36.268 129.547 35.582C130.853 34.896 132.389 34.553 134.153 34.553C135.917 34.553 137.436 34.896 138.71 35.582C140.016 36.268 141.013 37.2153 141.699 38.424C142.385 39.6327 142.728 41.0863 142.728 42.785V43.275C142.728 45.7577 141.96 47.7503 140.425 49.253C138.889 50.7557 136.799 51.507 134.153 51.507ZM134.153 45.725C134.61 45.725 134.986 45.5453 135.28 45.186C135.574 44.8267 135.721 44.1897 135.721 43.275V42.785C135.721 41.8703 135.574 41.2333 135.28 40.874C135.018 40.5147 134.643 40.335 134.153 40.335C133.695 40.335 133.32 40.5147 133.026 40.874C132.732 41.2333 132.585 41.8703 132.585 42.785V43.275C132.585 44.1897 132.715 44.8267 132.977 45.186C133.271 45.5453 133.663 45.725 134.153 45.725ZM129.743 69.49L153.263 35.19H161.103L137.583 69.49H129.743ZM156.693 70.127C154.047 70.127 151.956 69.3757 150.421 67.873C148.885 66.3703 148.118 64.3777 148.118 61.895V61.405C148.118 59.739 148.461 58.3017 149.147 57.093C149.833 55.8517 150.813 54.888 152.087 54.202C153.393 53.516 154.929 53.173 156.693 53.173C158.457 53.173 159.976 53.516 161.25 54.202C162.556 54.888 163.553 55.8353 164.239 57.044C164.925 58.2527 165.268 59.7063 165.268 61.405V61.895C165.268 64.3777 164.5 66.3703 162.965 67.873C161.429 69.3757 159.339 70.127 156.693 70.127ZM156.693 64.345C157.15 64.345 157.526 64.1653 157.82 63.806C158.114 63.4467 158.261 62.8097 158.261 61.895V61.405C158.261 60.4903 158.114 59.8533 157.82 59.494C157.558 59.1347 157.183 58.955 156.693 58.955C156.235 58.955 155.86 59.1347 155.566 59.494C155.272 59.8533 155.125 60.4903 155.125 61.405V61.895C155.125 62.8097 155.255 63.4467 155.517 63.806C155.811 64.1653 156.203 64.345 156.693 64.345Z" fill="white"></path></svg> 