<?xml version="1.0" encoding="UTF-8"?> <svg xmlns="http://www.w3.org/2000/svg" width="179" height="49" viewBox="0 0 179 49" fill="none"><rect width="179" height="49" rx="11.0661" fill="#EDEFF3"></rect><rect x="9" y="8" width="32" height="32" rx="6" fill="#3A3A3A"></rect><path d="M30.6777 23.2194C30.6774 23.2191 30.6771 23.2189 30.6768 23.2186L25.7813 18.3237C25.5726 18.115 25.2952 18 25.0001 18C24.705 18 24.4275 18.1149 24.2188 18.3236L19.3258 23.216C19.3241 23.2177 19.3225 23.2194 19.3208 23.2211C18.8923 23.652 18.8931 24.3512 19.323 24.781C19.5194 24.9775 19.7787 25.0913 20.0561 25.1032C20.0674 25.1043 20.0787 25.1049 20.0902 25.1049H20.2853V28.7072C20.2853 29.42 20.8653 30 21.5784 30H23.4937C23.6878 30 23.8453 29.8426 23.8453 29.6484V26.8242C23.8453 26.4989 24.1099 26.2343 24.4352 26.2343H25.5649C25.8902 26.2343 26.1549 26.4989 26.1549 26.8242V29.6484C26.1549 29.8426 26.3123 30 26.5065 30H28.4217C29.1348 30 29.7149 29.42 29.7149 28.7072V25.1049H29.8958C30.1908 25.1049 30.4683 24.99 30.6771 24.7812C31.1074 24.3506 31.1076 23.6503 30.6777 23.2194Z" fill="white"></path><path d="M49.9335 12.832H55.7094V14.2789H51.6838V15.8425H53.2007C53.7607 15.8425 54.243 15.9048 54.6476 16.0292C55.0598 16.1537 55.3982 16.3287 55.6627 16.5543C55.935 16.7799 56.1372 17.0522 56.2695 17.3711C56.4017 17.6823 56.4678 18.0323 56.4678 18.4213C56.4678 18.8102 56.4017 19.1642 56.2695 19.4831C56.1372 19.7943 55.935 20.0626 55.6627 20.2882C55.3982 20.5138 55.0598 20.6888 54.6476 20.8133C54.243 20.9378 53.7607 21 53.2007 21H49.9335V12.832ZM53.0256 19.5531C53.6635 19.5531 54.103 19.4559 54.3442 19.2614C54.5931 19.0591 54.7176 18.7791 54.7176 18.4213C54.7176 18.0634 54.5931 17.7873 54.3442 17.5928C54.103 17.3905 53.6635 17.2894 53.0256 17.2894H51.6838V19.5531H53.0256ZM60.1411 21.14C59.7211 21.14 59.3205 21.0778 58.9393 20.9533C58.5659 20.8211 58.2392 20.6227 57.9591 20.3582C57.6791 20.0937 57.4574 19.7631 57.294 19.3664C57.1307 18.9697 57.049 18.5029 57.049 17.9662V17.7328C57.049 17.2272 57.1307 16.7838 57.294 16.4026C57.4574 16.0214 57.6791 15.7025 57.9591 15.4458C58.2392 15.1891 58.5659 14.9985 58.9393 14.874C59.3205 14.7418 59.7211 14.6757 60.1411 14.6757C60.5612 14.6757 60.9579 14.7418 61.3313 14.874C61.7047 14.9985 62.0314 15.1891 62.3115 15.4458C62.5993 15.7025 62.8249 16.0214 62.9883 16.4026C63.1516 16.7838 63.2333 17.2272 63.2333 17.7328V17.9662C63.2333 18.4952 63.1516 18.958 62.9883 19.3547C62.8249 19.7515 62.5993 20.0821 62.3115 20.3466C62.0314 20.611 61.7047 20.8094 61.3313 20.9417C60.9579 21.0739 60.5612 21.14 60.1411 21.14ZM60.1411 19.8331C60.5768 19.8331 60.9385 19.6776 61.2263 19.3664C61.5219 19.0552 61.6697 18.5885 61.6697 17.9662V17.7328C61.6697 17.165 61.5219 16.7332 61.2263 16.4376C60.9385 16.1342 60.5768 15.9825 60.1411 15.9825C59.6977 15.9825 59.3321 16.1342 59.0443 16.4376C58.7565 16.7332 58.6126 17.165 58.6126 17.7328V17.9662C58.6126 18.5963 58.7565 19.0669 59.0443 19.3781C59.3321 19.6815 59.6977 19.8331 60.1411 19.8331ZM64.0483 21.14C63.986 21.14 63.9082 21.1361 63.8149 21.1284C63.7215 21.1284 63.6438 21.1206 63.5815 21.105V19.7165C63.6204 19.7242 63.6788 19.7281 63.7566 19.7281C63.9044 19.7281 64.0327 19.6853 64.1416 19.5998C64.2505 19.5064 64.34 19.3509 64.41 19.133C64.4878 18.9152 64.5422 18.6274 64.5733 18.2696C64.6122 17.904 64.6317 17.4528 64.6317 16.916V14.8157H69.5325V21H67.9922V16.0992H66.0552V17.1494C66.0552 17.9506 66.0125 18.6118 65.9269 19.133C65.8491 19.6465 65.7246 20.051 65.5535 20.3466C65.3901 20.6422 65.1801 20.8483 64.9234 20.965C64.6745 21.0817 64.3828 21.14 64.0483 21.14ZM70.6961 14.8157H72.2364V16.8927H73.5549C75.1496 16.8927 75.9469 17.5772 75.9469 18.9463C75.9469 19.2497 75.9003 19.5298 75.8069 19.7865C75.7214 20.0354 75.5813 20.2493 75.3869 20.4282C75.1924 20.6072 74.9435 20.7472 74.6401 20.8483C74.3367 20.9494 73.975 21 73.5549 21H70.6961V14.8157ZM73.3799 19.7631C73.7533 19.7631 74.0178 19.697 74.1733 19.5648C74.3289 19.4248 74.4067 19.2186 74.4067 18.9463C74.4067 18.6741 74.325 18.4718 74.1617 18.3396C74.0061 18.1996 73.7455 18.1295 73.3799 18.1295H72.2364V19.7631H73.3799ZM76.7072 14.8157H78.2475V19.7165H80.0794V14.8157H81.6197V19.7165H83.4516V14.8157H84.9919V21H76.7072V14.8157ZM88.9601 21.14C88.54 21.14 88.1394 21.0778 87.7582 20.9533C87.3848 20.8211 87.0581 20.6266 86.7781 20.3699C86.498 20.1054 86.2763 19.7748 86.113 19.3781C85.9496 18.9736 85.8679 18.5029 85.8679 17.9662V17.7328C85.8679 17.2194 85.9457 16.7721 86.1013 16.3909C86.2569 16.0098 86.4708 15.6947 86.7431 15.4458C87.0153 15.1891 87.3304 14.9985 87.6882 14.874C88.046 14.7418 88.4311 14.6757 88.8434 14.6757C89.8158 14.6757 90.5548 14.9324 91.0604 15.4458C91.566 15.9592 91.8188 16.7021 91.8188 17.6745V18.3279H87.4432C87.4509 18.6002 87.4976 18.8374 87.5832 19.0397C87.6688 19.2342 87.7815 19.3936 87.9216 19.5181C88.0616 19.6426 88.2211 19.7359 88.4 19.7981C88.5867 19.8526 88.7734 19.8798 88.9601 19.8798C89.3568 19.8798 89.6563 19.8215 89.8585 19.7048C90.0608 19.5881 90.2047 19.417 90.2903 19.1914H91.7022C91.5777 19.837 91.2704 20.3232 90.7804 20.6499C90.2903 20.9767 89.6835 21.14 88.9601 21.14ZM88.9017 15.9359C88.7228 15.9359 88.5439 15.9592 88.365 16.0059C88.1938 16.0526 88.0421 16.1265 87.9099 16.2276C87.7777 16.3287 87.6688 16.4648 87.5832 16.636C87.4976 16.8071 87.4509 17.0133 87.4432 17.2544H90.3253C90.3175 16.9977 90.2747 16.7838 90.1969 16.6126C90.1269 16.4415 90.0258 16.3054 89.8935 16.2042C89.7691 16.1031 89.6213 16.0331 89.4501 15.9942C89.279 15.9553 89.0962 15.9359 88.9017 15.9359ZM98.1791 21.14C97.6579 21.14 97.2145 21.0739 96.8489 20.9417C96.4911 20.8094 96.1954 20.6344 95.9621 20.4166C95.7287 20.191 95.5537 19.9343 95.437 19.6465C95.3281 19.3509 95.2697 19.0436 95.262 18.7246H97.0122C97.0356 19.0047 97.1406 19.2342 97.3273 19.4131C97.5218 19.5842 97.8057 19.6698 98.1791 19.6698C99.0348 19.6698 99.4626 19.1875 99.4626 18.2229C99.4626 17.9662 99.4276 17.7484 99.3576 17.5695C99.2876 17.3905 99.1943 17.2466 99.0776 17.1377C98.9609 17.0288 98.8248 16.951 98.6692 16.9044C98.5136 16.8499 98.3502 16.8227 98.1791 16.8227C97.9068 16.8227 97.6812 16.8732 97.5023 16.9744C97.3234 17.0755 97.1795 17.2116 97.0706 17.3828H95.437V12.832H100.758V14.2789H97.1873V15.7725C97.3506 15.6247 97.549 15.5197 97.7824 15.4575C98.0235 15.3874 98.2919 15.3524 98.5875 15.3524C98.9842 15.3524 99.3421 15.4147 99.661 15.5391C99.9877 15.6558 100.264 15.8347 100.489 16.0759C100.723 16.317 100.902 16.6165 101.026 16.9744C101.151 17.3322 101.213 17.7445 101.213 18.2112C101.213 18.6546 101.139 19.0591 100.991 19.4248C100.851 19.7826 100.649 20.0899 100.384 20.3466C100.12 20.6033 99.801 20.8016 99.4276 20.9417C99.0542 21.0739 98.6381 21.14 98.1791 21.14ZM105.176 21.14C104.732 21.14 104.316 21.07 103.927 20.93C103.546 20.7822 103.215 20.5449 102.935 20.2182C102.655 19.8837 102.434 19.4481 102.27 18.9113C102.107 18.3668 102.025 17.7017 102.025 16.916V16.6827C102.025 15.9514 102.107 15.333 102.27 14.8274C102.434 14.3217 102.655 13.9133 102.935 13.6022C103.215 13.2832 103.546 13.0537 103.927 12.9137C104.316 12.7659 104.732 12.692 105.176 12.692C105.619 12.692 106.031 12.7659 106.412 12.9137C106.801 13.0537 107.136 13.2832 107.416 13.6022C107.696 13.9133 107.918 14.3217 108.081 14.8274C108.244 15.333 108.326 15.9514 108.326 16.6827V16.916C108.326 17.7017 108.244 18.3668 108.081 18.9113C107.918 19.4481 107.696 19.8837 107.416 20.2182C107.136 20.5449 106.801 20.7822 106.412 20.93C106.031 21.07 105.619 21.14 105.176 21.14ZM105.176 19.6698C105.37 19.6698 105.553 19.6309 105.724 19.5531C105.895 19.4753 106.043 19.3353 106.167 19.133C106.3 18.923 106.401 18.6391 106.471 18.2812C106.541 17.9234 106.576 17.4683 106.576 16.916V16.6827C106.576 16.1848 106.541 15.7764 106.471 15.4575C106.401 15.1307 106.3 14.874 106.167 14.6873C106.043 14.4929 105.895 14.3567 105.724 14.2789C105.553 14.2012 105.37 14.1623 105.176 14.1623C104.973 14.1623 104.787 14.2012 104.616 14.2789C104.452 14.3567 104.304 14.4929 104.172 14.6873C104.048 14.874 103.95 15.1307 103.88 15.4575C103.81 15.7764 103.775 16.1848 103.775 16.6827V16.916C103.775 17.4683 103.81 17.9234 103.88 18.2812C103.95 18.6391 104.048 18.923 104.172 19.133C104.304 19.3353 104.452 19.4753 104.616 19.5531C104.787 19.6309 104.973 19.6698 105.176 19.6698ZM112.406 21.14C111.963 21.14 111.546 21.07 111.157 20.93C110.776 20.7822 110.446 20.5449 110.166 20.2182C109.886 19.8837 109.664 19.4481 109.501 18.9113C109.337 18.3668 109.256 17.7017 109.256 16.916V16.6827C109.256 15.9514 109.337 15.333 109.501 14.8274C109.664 14.3217 109.886 13.9133 110.166 13.6022C110.446 13.2832 110.776 13.0537 111.157 12.9137C111.546 12.7659 111.963 12.692 112.406 12.692C112.849 12.692 113.262 12.7659 113.643 12.9137C114.032 13.0537 114.366 13.2832 114.646 13.6022C114.926 13.9133 115.148 14.3217 115.311 14.8274C115.475 15.333 115.557 15.9514 115.557 16.6827V16.916C115.557 17.7017 115.475 18.3668 115.311 18.9113C115.148 19.4481 114.926 19.8837 114.646 20.2182C114.366 20.5449 114.032 20.7822 113.643 20.93C113.262 21.07 112.849 21.14 112.406 21.14ZM112.406 19.6698C112.6 19.6698 112.783 19.6309 112.954 19.5531C113.126 19.4753 113.273 19.3353 113.398 19.133C113.53 18.923 113.631 18.6391 113.701 18.2812C113.771 17.9234 113.806 17.4683 113.806 16.916V16.6827C113.806 16.1848 113.771 15.7764 113.701 15.4575C113.631 15.1307 113.53 14.874 113.398 14.6873C113.273 14.4929 113.126 14.3567 112.954 14.2789C112.783 14.2012 112.6 14.1623 112.406 14.1623C112.204 14.1623 112.017 14.2012 111.846 14.2789C111.683 14.3567 111.535 14.4929 111.403 14.6873C111.278 14.874 111.181 15.1307 111.111 15.4575C111.041 15.7764 111.006 16.1848 111.006 16.6827V16.916C111.006 17.4683 111.041 17.9234 111.111 18.2812C111.181 18.6391 111.278 18.923 111.403 19.133C111.535 19.3353 111.683 19.4753 111.846 19.5531C112.017 19.6309 112.204 19.6698 112.406 19.6698ZM122.087 21.14C121.667 21.14 121.266 21.0778 120.885 20.9533C120.512 20.8211 120.185 20.6227 119.905 20.3582C119.625 20.0937 119.403 19.7631 119.24 19.3664C119.076 18.9697 118.995 18.5029 118.995 17.9662V17.7328C118.995 17.2272 119.076 16.7838 119.24 16.4026C119.403 16.0214 119.625 15.7025 119.905 15.4458C120.185 15.1891 120.512 14.9985 120.885 14.874C121.266 14.7418 121.667 14.6757 122.087 14.6757C122.507 14.6757 122.904 14.7418 123.277 14.874C123.65 14.9985 123.977 15.1891 124.257 15.4458C124.545 15.7025 124.771 16.0214 124.934 16.4026C125.097 16.7838 125.179 17.2272 125.179 17.7328V17.9662C125.179 18.4952 125.097 18.958 124.934 19.3547C124.771 19.7515 124.545 20.0821 124.257 20.3466C123.977 20.611 123.65 20.8094 123.277 20.9417C122.904 21.0739 122.507 21.14 122.087 21.14ZM122.087 19.8331C122.522 19.8331 122.884 19.6776 123.172 19.3664C123.468 19.0552 123.615 18.5885 123.615 17.9662V17.7328C123.615 17.165 123.468 16.7332 123.172 16.4376C122.884 16.1342 122.522 15.9825 122.087 15.9825C121.643 15.9825 121.278 16.1342 120.99 16.4376C120.702 16.7332 120.558 17.165 120.558 17.7328V17.9662C120.558 18.5963 120.702 19.0669 120.99 19.3781C121.278 19.6815 121.643 19.8331 122.087 19.8331ZM127.441 16.0992H125.469V14.8157H130.953V16.0992H128.981V21H127.441V16.0992ZM134.337 21.14C133.917 21.14 133.516 21.0778 133.135 20.9533C132.762 20.8211 132.435 20.6266 132.155 20.3699C131.875 20.1054 131.653 19.7748 131.49 19.3781C131.326 18.9736 131.245 18.5029 131.245 17.9662V17.7328C131.245 17.2194 131.323 16.7721 131.478 16.3909C131.634 16.0098 131.848 15.6947 132.12 15.4458C132.392 15.1891 132.707 14.9985 133.065 14.874C133.423 14.7418 133.808 14.6757 134.22 14.6757C135.193 14.6757 135.932 14.9324 136.437 15.4458C136.943 15.9592 137.196 16.7021 137.196 17.6745V18.3279H132.82C132.828 18.6002 132.874 18.8374 132.96 19.0397C133.046 19.2342 133.158 19.3936 133.298 19.5181C133.438 19.6426 133.598 19.7359 133.777 19.7981C133.963 19.8526 134.15 19.8798 134.337 19.8798C134.734 19.8798 135.033 19.8215 135.235 19.7048C135.438 19.5881 135.582 19.417 135.667 19.1914H137.079C136.955 19.837 136.647 20.3232 136.157 20.6499C135.667 20.9767 135.06 21.14 134.337 21.14ZM134.279 15.9359C134.1 15.9359 133.921 15.9592 133.742 16.0059C133.571 16.0526 133.419 16.1265 133.287 16.2276C133.154 16.3287 133.046 16.4648 132.96 16.636C132.874 16.8071 132.828 17.0133 132.82 17.2544H135.702C135.694 16.9977 135.652 16.7838 135.574 16.6126C135.504 16.4415 135.403 16.3054 135.27 16.2042C135.146 16.1031 134.998 16.0331 134.827 15.9942C134.656 15.9553 134.473 15.9359 134.279 15.9359ZM138.016 21.14C137.954 21.14 137.876 21.1361 137.783 21.1284C137.689 21.1284 137.612 21.1206 137.549 21.105V19.7165C137.588 19.7242 137.647 19.7281 137.724 19.7281C137.872 19.7281 138.001 19.6853 138.109 19.5998C138.218 19.5064 138.308 19.3509 138.378 19.133C138.456 18.9152 138.51 18.6274 138.541 18.2696C138.58 17.904 138.6 17.4528 138.6 16.916V14.8157H143.5V21H141.96V16.0992H140.023V17.1494C140.023 17.9506 139.98 18.6118 139.895 19.133C139.817 19.6465 139.692 20.051 139.521 20.3466C139.358 20.6422 139.148 20.8483 138.891 20.965C138.642 21.0817 138.351 21.14 138.016 21.14ZM147.464 21.14C147.044 21.14 146.644 21.0778 146.263 20.9533C145.889 20.8211 145.562 20.6266 145.282 20.3699C145.002 20.1054 144.781 19.7748 144.617 19.3781C144.454 18.9736 144.372 18.5029 144.372 17.9662V17.7328C144.372 17.2194 144.45 16.7721 144.606 16.3909C144.761 16.0098 144.975 15.6947 145.247 15.4458C145.52 15.1891 145.835 14.9985 146.193 14.874C146.55 14.7418 146.935 14.6757 147.348 14.6757C148.32 14.6757 149.059 14.9324 149.565 15.4458C150.07 15.9592 150.323 16.7021 150.323 17.6745V18.3279H145.947C145.955 18.6002 146.002 18.8374 146.088 19.0397C146.173 19.2342 146.286 19.3936 146.426 19.5181C146.566 19.6426 146.725 19.7359 146.904 19.7981C147.091 19.8526 147.278 19.8798 147.464 19.8798C147.861 19.8798 148.161 19.8215 148.363 19.7048C148.565 19.5881 148.709 19.417 148.795 19.1914H150.206C150.082 19.837 149.775 20.3232 149.285 20.6499C148.795 20.9767 148.188 21.14 147.464 21.14ZM147.406 15.9359C147.227 15.9359 147.048 15.9592 146.869 16.0059C146.698 16.0526 146.546 16.1265 146.414 16.2276C146.282 16.3287 146.173 16.4648 146.088 16.636C146.002 16.8071 145.955 17.0133 145.947 17.2544H148.83C148.822 16.9977 148.779 16.7838 148.701 16.6126C148.631 16.4415 148.53 16.3054 148.398 16.2042C148.273 16.1031 148.126 16.0331 147.954 15.9942C147.783 15.9553 147.601 15.9359 147.406 15.9359ZM151.199 14.8157H152.739V18.783L155.493 14.8157H156.917V21H155.377V17.0327L152.623 21H151.199V14.8157ZM154.058 14.1739C153.366 14.1739 152.86 14.0261 152.541 13.7305C152.23 13.4349 152.074 12.9993 152.074 12.4237H153.44C153.44 12.727 153.49 12.941 153.591 13.0654C153.7 13.1821 153.856 13.2404 154.058 13.2404C154.276 13.2404 154.435 13.1821 154.536 13.0654C154.645 12.941 154.7 12.727 154.7 12.4237H156.042C156.042 12.9993 155.882 13.4349 155.563 13.7305C155.252 14.0261 154.75 14.1739 154.058 14.1739ZM50.7503 35.4737C50.6336 35.4737 50.5169 35.4621 50.4002 35.4387V34.1318C50.5169 34.1552 50.6336 34.1669 50.7503 34.1669C50.9836 34.1669 51.1626 34.0774 51.287 33.8985C51.4193 33.7273 51.5671 33.4278 51.7304 33L49.1167 26.8157H50.8436L52.5239 31.0864L54.0641 26.8157H55.651L53.2707 33C53.0995 33.4356 52.9362 33.809 52.7806 34.1202C52.6328 34.4391 52.4655 34.6958 52.2788 34.8903C52.0922 35.0926 51.8782 35.2404 51.6371 35.3337C51.3959 35.427 51.1003 35.4737 50.7503 35.4737ZM60.0016 30.7246C59.8227 30.8335 59.6087 30.9308 59.3598 31.0164C59.1109 31.1019 58.8075 31.1447 58.4497 31.1447C57.6951 31.1447 57.1272 30.9658 56.7461 30.608C56.3649 30.2501 56.1743 29.6861 56.1743 28.916V26.8157H57.7145V28.741C57.7145 29.1455 57.8001 29.4294 57.9713 29.5928C58.1424 29.7562 58.438 29.8378 58.8581 29.8378C59.1537 29.8378 59.3948 29.8028 59.5815 29.7328C59.776 29.6628 59.916 29.5967 60.0016 29.5345V26.8157H61.5418V33H60.0016V30.7246ZM64.569 33.14C64.2345 33.14 63.9389 33.0933 63.6822 33C63.4255 32.8989 63.2076 32.7627 63.0287 32.5916C62.8498 32.4127 62.7137 32.2065 62.6203 31.9732C62.527 31.732 62.4803 31.4714 62.4803 31.1914C62.4803 29.9467 63.2193 29.3244 64.6973 29.3244H66.541V29.0327C66.541 28.6282 66.4476 28.3443 66.2609 28.1809C66.082 28.0175 65.7942 27.9359 65.3974 27.9359C65.0474 27.9359 64.7946 27.9981 64.639 28.1226C64.4834 28.2393 64.3939 28.3871 64.3706 28.566H62.8304C62.8459 28.3015 62.912 28.0526 63.0287 27.8192C63.1532 27.5858 63.3243 27.3874 63.5421 27.2241C63.7677 27.053 64.04 26.9207 64.3589 26.8274C64.6779 26.7262 65.0435 26.6757 65.4558 26.6757C65.8525 26.6757 66.2103 26.7185 66.5293 26.804C66.856 26.8896 67.1322 27.0296 67.3577 27.2241C67.5911 27.4108 67.77 27.6558 67.8945 27.9592C68.019 28.2626 68.0812 28.6282 68.0812 29.056V31.4248C68.0812 31.7515 68.0851 32.0393 68.0929 32.2882C68.1084 32.5294 68.1318 32.7666 68.1629 33H66.7276C66.6965 32.8289 66.6771 32.7005 66.6693 32.6149C66.6693 32.5216 66.6693 32.3855 66.6693 32.2065C66.4982 32.4555 66.2376 32.6733 65.8875 32.86C65.5452 33.0467 65.1057 33.14 64.569 33.14ZM65.0474 31.9498C65.2341 31.9498 65.4169 31.9265 65.5958 31.8798C65.7747 31.8254 65.9342 31.7476 66.0742 31.6465C66.2142 31.5375 66.327 31.4014 66.4126 31.2381C66.4982 31.0747 66.541 30.8841 66.541 30.6663V30.3746H64.989C64.6934 30.3746 64.4601 30.4446 64.2889 30.5846C64.1256 30.7169 64.0439 30.8997 64.0439 31.133C64.0439 31.382 64.1295 31.5803 64.3006 31.7281C64.4717 31.8759 64.7207 31.9498 65.0474 31.9498ZM71.9341 33.14C71.5062 33.14 71.1056 33.0739 70.7322 32.9417C70.3666 32.8094 70.0477 32.611 69.7754 32.3466C69.5031 32.0821 69.2892 31.7515 69.1336 31.3547C68.9781 30.958 68.9003 30.4952 68.9003 29.9662V29.7328C68.9003 29.235 68.9819 28.7954 69.1453 28.4143C69.3087 28.0331 69.5265 27.7142 69.7987 27.4575C70.0788 27.2008 70.4016 27.0063 70.7672 26.874C71.1328 26.7418 71.5218 26.6757 71.9341 26.6757C72.3697 26.6757 72.7548 26.734 73.0893 26.8507C73.4315 26.9674 73.7194 27.1269 73.9527 27.3291C74.1861 27.5314 74.3689 27.7686 74.5011 28.0409C74.6334 28.3132 74.7112 28.6049 74.7345 28.916H73.1709C73.1087 28.6282 72.9804 28.4026 72.7859 28.2393C72.5992 28.0681 72.3152 27.9825 71.9341 27.9825C71.7318 27.9825 71.5412 28.0175 71.3623 28.0876C71.1912 28.1576 71.0356 28.2665 70.8956 28.4143C70.7633 28.5543 70.6583 28.7332 70.5805 28.951C70.5027 29.1688 70.4638 29.4294 70.4638 29.7328V29.9662C70.4638 30.2929 70.4989 30.5768 70.5689 30.818C70.6467 31.0514 70.7517 31.2458 70.8839 31.4014C71.0162 31.5492 71.1717 31.6581 71.3507 31.7281C71.5296 31.7981 71.724 31.8331 71.9341 31.8331C72.2375 31.8331 72.4981 31.7554 72.7159 31.5998C72.9415 31.4364 73.0931 31.2031 73.1709 30.8997H74.7345C74.6956 31.2419 74.5984 31.5531 74.4428 31.8331C74.295 32.1054 74.0966 32.3388 73.8477 32.5333C73.6066 32.7277 73.3226 32.8794 72.9959 32.9883C72.6692 33.0895 72.3152 33.14 71.9341 33.14ZM77.0616 28.0992H75.0896V26.8157H80.5738V28.0992H78.6018V33H77.0616V28.0992ZM81.2712 26.8157H84.375C84.7717 26.8157 85.1101 26.8585 85.3901 26.944C85.678 27.0218 85.9152 27.1346 86.1019 27.2824C86.2886 27.4302 86.4247 27.6053 86.5103 27.8075C86.5959 28.0098 86.6387 28.2315 86.6387 28.4726C86.6387 28.7604 86.5492 29.0327 86.3703 29.2894C86.1992 29.5383 85.9619 29.7056 85.6585 29.7912C86.0397 29.8845 86.3353 30.0634 86.5453 30.3279C86.7631 30.5846 86.872 30.888 86.872 31.2381C86.872 31.7748 86.6853 32.2027 86.312 32.5216C85.9386 32.8405 85.3707 33 84.6084 33H81.2712V26.8157ZM84.305 31.7631C84.655 31.7631 84.9117 31.7126 85.0751 31.6114C85.2462 31.5025 85.3318 31.3314 85.3318 31.098C85.3318 30.8647 85.2501 30.6974 85.0868 30.5963C84.9312 30.4874 84.6706 30.4329 84.305 30.4329H82.8114V31.7631H84.305ZM84.1533 29.2894C84.5111 29.2894 84.7562 29.2389 84.8884 29.1377C85.0284 29.0366 85.0984 28.881 85.0984 28.671C85.0984 28.4687 85.0284 28.317 84.8884 28.2159C84.7484 28.107 84.5033 28.0526 84.1533 28.0526H82.8114V29.2894H84.1533ZM88.6287 35.4737C88.512 35.4737 88.3953 35.4621 88.2786 35.4387V34.1318C88.3953 34.1552 88.512 34.1669 88.6287 34.1669C88.8621 34.1669 89.041 34.0774 89.1654 33.8985C89.2977 33.7273 89.4455 33.4278 89.6089 33L86.9951 26.8157H88.722L90.4023 31.0864L91.9426 26.8157H93.5295L91.1491 33C90.978 33.4356 90.8146 33.809 90.659 34.1202C90.5112 34.4391 90.344 34.6958 90.1573 34.8903C89.9706 35.0926 89.7567 35.2404 89.5155 35.3337C89.2744 35.427 88.9788 35.4737 88.6287 35.4737ZM94.1138 26.8157H95.654V29.2077H96.1441C96.1986 28.7877 96.3075 28.4221 96.4708 28.1109C96.642 27.792 96.8559 27.5275 97.1126 27.3174C97.3693 27.1074 97.661 26.9479 97.9877 26.839C98.3222 26.7301 98.684 26.6757 99.0729 26.6757C99.493 26.6757 99.8819 26.7418 100.24 26.874C100.605 26.9985 100.92 27.1891 101.185 27.4458C101.457 27.7025 101.667 28.0214 101.815 28.4026C101.971 28.7838 102.048 29.2272 102.048 29.7328V29.9662C102.048 30.4952 101.971 30.958 101.815 31.3547C101.667 31.7515 101.457 32.0821 101.185 32.3466C100.92 32.611 100.605 32.8094 100.24 32.9417C99.8819 33.0739 99.493 33.14 99.0729 33.14C98.684 33.14 98.3222 33.0856 97.9877 32.9767C97.6533 32.8678 97.3577 32.7044 97.1009 32.4866C96.8442 32.2688 96.6303 31.9965 96.4592 31.6698C96.2958 31.3353 96.1908 30.9425 96.1441 30.4913H95.654V33H94.1138V26.8157ZM99.0729 31.8331C99.2596 31.8331 99.4385 31.7981 99.6097 31.7281C99.7808 31.6503 99.9286 31.5375 100.053 31.3897C100.185 31.2342 100.29 31.0397 100.368 30.8063C100.446 30.573 100.485 30.2929 100.485 29.9662V29.7328C100.485 29.4372 100.446 29.1805 100.368 28.9627C100.29 28.7371 100.185 28.5543 100.053 28.4143C99.9286 28.2665 99.7808 28.1576 99.6097 28.0876C99.4385 28.0175 99.2596 27.9825 99.0729 27.9825C98.8862 27.9825 98.7073 28.0175 98.5362 28.0876C98.365 28.1576 98.2133 28.2665 98.0811 28.4143C97.9566 28.5543 97.8555 28.7371 97.7777 28.9627C97.6999 29.1805 97.661 29.4372 97.661 29.7328V29.9662C97.661 30.2929 97.6999 30.5768 97.7777 30.818C97.8555 31.0514 97.9566 31.2458 98.0811 31.4014C98.2133 31.5492 98.365 31.6581 98.5362 31.7281C98.7073 31.7981 98.8862 31.8331 99.0729 31.8331ZM104.319 28.0992H102.347V26.8157H107.832V28.0992H105.86V33H104.319V28.0992ZM111.213 26.8157H114.317C114.713 26.8157 115.052 26.8585 115.332 26.944C115.62 27.0218 115.857 27.1346 116.043 27.2824C116.23 27.4302 116.366 27.6053 116.452 27.8075C116.537 28.0098 116.58 28.2315 116.58 28.4726C116.58 28.7604 116.491 29.0327 116.312 29.2894C116.141 29.5383 115.903 29.7056 115.6 29.7912C115.981 29.8845 116.277 30.0634 116.487 30.3279C116.705 30.5846 116.814 30.888 116.814 31.2381C116.814 31.7748 116.627 32.2027 116.254 32.5216C115.88 32.8405 115.312 33 114.55 33H111.213V26.8157ZM114.247 31.7631C114.597 31.7631 114.853 31.7126 115.017 31.6114C115.188 31.5025 115.273 31.3314 115.273 31.098C115.273 30.8647 115.192 30.6974 115.028 30.5963C114.873 30.4874 114.612 30.4329 114.247 30.4329H112.753V31.7631H114.247ZM114.095 29.2894C114.453 29.2894 114.698 29.2389 114.83 29.1377C114.97 29.0366 115.04 28.881 115.04 28.671C115.04 28.4687 114.97 28.317 114.83 28.2159C114.69 28.107 114.445 28.0526 114.095 28.0526H112.753V29.2894H114.095ZM122.23 33.14C121.896 33.14 121.6 33.0933 121.343 33C121.087 32.8989 120.869 32.7627 120.69 32.5916C120.511 32.4127 120.375 32.2065 120.281 31.9732C120.188 31.732 120.141 31.4714 120.141 31.1914C120.141 29.9467 120.88 29.3244 122.358 29.3244H124.202V29.0327C124.202 28.6282 124.109 28.3443 123.922 28.1809C123.743 28.0175 123.455 27.9359 123.059 27.9359C122.708 27.9359 122.456 27.9981 122.3 28.1226C122.144 28.2393 122.055 28.3871 122.032 28.566H120.491C120.507 28.3015 120.573 28.0526 120.69 27.8192C120.814 27.5858 120.985 27.3874 121.203 27.2241C121.429 27.053 121.701 26.9207 122.02 26.8274C122.339 26.7262 122.705 26.6757 123.117 26.6757C123.514 26.6757 123.871 26.7185 124.19 26.804C124.517 26.8896 124.793 27.0296 125.019 27.2241C125.252 27.4108 125.431 27.6558 125.556 27.9592C125.68 28.2626 125.742 28.6282 125.742 29.056V31.4248C125.742 31.7515 125.746 32.0393 125.754 32.2882C125.77 32.5294 125.793 32.7666 125.824 33H124.389C124.358 32.8289 124.338 32.7005 124.33 32.6149C124.33 32.5216 124.33 32.3855 124.33 32.2065C124.159 32.4555 123.899 32.6733 123.549 32.86C123.206 33.0467 122.767 33.14 122.23 33.14ZM122.708 31.9498C122.895 31.9498 123.078 31.9265 123.257 31.8798C123.436 31.8254 123.595 31.7476 123.735 31.6465C123.875 31.5375 123.988 31.4014 124.074 31.2381C124.159 31.0747 124.202 30.8841 124.202 30.6663V30.3746H122.65C122.355 30.3746 122.121 30.4446 121.95 30.5846C121.787 30.7169 121.705 30.8997 121.705 31.133C121.705 31.382 121.791 31.5803 121.962 31.7281C122.133 31.8759 122.382 31.9498 122.708 31.9498ZM126.853 26.8157H128.393V29.2427H128.977L130.867 26.8157H132.571L130.237 29.7445L132.687 33H130.844L128.977 30.4563H128.393V33H126.853V26.8157ZM138.337 33H133.331V26.8157H134.872V31.7165H137.275V26.8157H138.816V31.7165H139.691V34.4586H138.337V33ZM140.448 26.8157H141.988V30.783L144.742 26.8157H146.165V33H144.625V29.0327L141.871 33H140.448V26.8157ZM147.336 26.8157H148.877V30.783L151.63 26.8157H153.054V33H151.514V29.0327L148.76 33H147.336V26.8157Z" fill="#3A3A3A" fill-opacity="0.7"></path></svg> 