<?xml version="1.0" encoding="UTF-8"?> <svg xmlns="http://www.w3.org/2000/svg" width="32" height="32" viewBox="0 0 32 32" fill="none"><rect width="32" height="32" rx="6" fill="#3A3A3A"></rect><g clip-path="url(#clip0_439_659)"><path d="M16.0003 10.0212C14.6772 10.0227 13.4088 10.5489 12.4732 11.4844C11.5377 12.4198 11.0114 13.6882 11.0098 15.0112C11.0098 16.2962 12.0048 18.3072 13.9673 20.9882C14.2009 21.3083 14.5068 21.5687 14.8601 21.7482C15.2133 21.9277 15.604 22.0213 16.0003 22.0213C16.3965 22.0213 16.7872 21.9277 17.1405 21.7482C17.4937 21.5687 17.7996 21.3083 18.0333 20.9882C19.9958 18.3072 20.9908 16.2962 20.9908 15.0112C20.9892 13.6882 20.4629 12.4198 19.5273 11.4844C18.5917 10.5489 17.3233 10.0227 16.0003 10.0212ZM16.0003 17.0002C15.6047 17.0002 15.218 16.8829 14.8891 16.6632C14.5602 16.4434 14.3039 16.1311 14.1525 15.7656C14.0011 15.4002 13.9615 14.998 14.0387 14.6101C14.1159 14.2221 14.3063 13.8657 14.5861 13.586C14.8658 13.3063 15.2221 13.1158 15.6101 13.0387C15.998 12.9615 16.4002 13.0011 16.7656 13.1525C17.1311 13.3039 17.4434 13.5602 17.6632 13.8891C17.883 14.218 18.0003 14.6047 18.0003 15.0002C18.0003 15.5307 17.7896 16.0394 17.4145 16.4145C17.0394 16.7895 16.5307 17.0002 16.0003 17.0002Z" fill="white"></path></g><defs><clipPath id="clip0_439_659"><rect width="12" height="12" fill="white" transform="translate(10 10)"></rect></clipPath></defs></svg> 