<?xml version="1.0" encoding="UTF-8"?> <svg xmlns="http://www.w3.org/2000/svg" width="66" height="66" viewBox="0 0 66 66" fill="none"><path d="M58.8836 29.8473L55.1799 25.5445C54.4719 24.7276 53.9 23.2025 53.9 22.1132V17.4836C53.9 14.597 51.5307 12.2277 48.644 12.2277H44.0145C42.9524 12.2277 41.4001 11.6558 40.5831 10.9478L36.2804 7.24411C34.4013 5.63738 31.324 5.63738 29.4177 7.24411L25.1422 10.975C24.3252 11.6558 22.7729 12.2277 21.7108 12.2277H16.9996C14.1129 12.2277 11.7436 14.597 11.7436 17.4836V22.1404C11.7436 23.2025 11.1718 24.7276 10.4909 25.5445L6.81451 29.8745C5.23501 31.7536 5.23501 34.8037 6.81451 36.6827L10.4909 41.0127C11.1718 41.8297 11.7436 43.3548 11.7436 44.4168V49.0736C11.7436 51.9603 14.1129 54.3296 16.9996 54.3296H21.7108C22.7729 54.3296 24.3252 54.9015 25.1422 55.6095L29.4449 59.3132C31.324 60.9199 34.4013 60.9199 36.3076 59.3132L40.6104 55.6095C41.4274 54.9015 42.9524 54.3296 44.0417 54.3296H48.6713C51.5579 54.3296 53.9272 51.9603 53.9272 49.0736V44.4441C53.9272 43.382 54.4991 41.8297 55.2071 41.0127L58.9108 36.71C60.4903 34.8309 60.4903 31.7264 58.8836 29.8473Z" fill="white"></path><path d="M28.9704 30.9466C27.4602 29.4792 25.0465 29.5139 23.5791 31.0241C22.1117 32.5342 22.1464 34.948 23.6566 36.4154L26.3135 33.681L28.9704 30.9466ZM31.5059 38.7262L28.849 41.4606C30.3285 42.8982 32.6832 42.8982 34.1627 41.4606L31.5059 38.7262ZM43.1314 32.7461C44.6416 31.2787 44.6762 28.865 43.2089 27.3548C41.7415 25.8447 39.3278 25.81 37.8176 27.2773L40.4745 30.0117L43.1314 32.7461ZM26.3135 33.681L23.6566 36.4154L28.849 41.4606L31.5059 38.7262L34.1627 35.9918L28.9704 30.9466L26.3135 33.681ZM31.5059 38.7262L34.1627 41.4606L38.6471 37.1033L35.9902 34.369L33.3333 31.6346L28.849 35.9918L31.5059 38.7262ZM35.9902 34.369L38.6471 37.1033L43.1314 32.7461L40.4745 30.0117L37.8176 27.2773L33.3333 31.6346L35.9902 34.369Z" fill="#D44333"></path></svg> 