<?xml version="1.0" encoding="UTF-8"?> <svg xmlns="http://www.w3.org/2000/svg" width="85" height="47" viewBox="0 0 85 47" fill="none"><path d="M69.0791 20.8745C69.7159 20.2189 70.7791 20.2189 71.4539 20.8745L82.4507 31.5562C83.1255 32.2118 83.1563 33.2756 82.5195 33.9311L72.1417 44.6129C71.5049 45.2684 70.4417 45.2684 69.7669 44.6129C69.0923 43.9574 69.0613 42.8945 69.6981 42.2391L77.2921 34.4219L36.6677 34.4219C35.7402 34.4219 34.967 33.6707 34.9402 32.7437C34.9133 31.8166 35.643 31.0655 36.5704 31.0655H77.1948L69.1479 23.2483C68.4731 22.5928 68.4425 21.53 69.0791 20.8745Z" fill="#D44333" stroke="#D44333" stroke-width="3.14869"></path><path d="M16.2393 26.2583C15.6024 26.9139 14.5392 26.9139 13.8644 26.2583L2.86764 15.5766C2.19284 14.921 2.16202 13.8572 2.79883 13.2017L13.1766 2.51991C13.8135 1.86438 14.8767 1.86438 15.5515 2.51991C16.2261 3.17546 16.257 4.23828 15.6203 4.89375L8.02628 12.7109L48.6507 12.7109C49.5781 12.7109 50.3513 13.4621 50.3782 14.3891C50.4051 15.3162 49.6754 16.0673 48.7479 16.0673L8.12352 16.0673L16.1705 23.8845C16.8452 24.54 16.8759 25.6028 16.2393 26.2583Z" fill="#D44333" stroke="#D44333" stroke-width="3.14869"></path></svg> 