<?xml version="1.0" encoding="UTF-8"?> <svg xmlns="http://www.w3.org/2000/svg" width="758" height="288" viewBox="0 0 758 288" fill="none"><circle cx="613.725" cy="143.725" r="143.725" fill="#D44333"></circle><path d="M580.913 122.506C580.913 118.345 582.249 114.14 584.92 109.891C587.592 105.599 591.49 102.051 596.615 99.2483C601.739 96.4451 607.718 95.0436 614.55 95.0436C620.901 95.0436 626.508 96.2261 631.369 98.5913C636.231 100.913 639.976 104.088 642.604 108.118C645.275 112.147 646.611 116.527 646.611 121.257C646.611 124.98 645.845 128.243 644.312 131.046C642.823 133.849 641.027 136.28 638.925 138.339C636.866 140.354 633.143 143.77 627.756 148.588C626.267 149.946 625.062 151.15 624.142 152.201C623.266 153.209 622.609 154.15 622.172 155.026C621.734 155.858 621.383 156.713 621.12 157.589C620.901 158.421 620.551 159.91 620.069 162.056C619.237 166.611 616.631 168.889 612.251 168.889C609.973 168.889 608.046 168.144 606.47 166.655C604.937 165.166 604.17 162.954 604.17 160.019C604.17 156.34 604.74 153.165 605.878 150.493C607.017 147.778 608.528 145.412 610.411 143.398C612.295 141.339 614.835 138.908 618.033 136.105C620.836 133.652 622.85 131.813 624.077 130.586C625.347 129.316 626.398 127.915 627.23 126.382C628.106 124.849 628.544 123.184 628.544 121.389C628.544 117.885 627.23 114.928 624.602 112.519C622.018 110.11 618.668 108.906 614.55 108.906C609.733 108.906 606.185 110.132 603.907 112.585C601.63 114.994 599.703 118.564 598.126 123.294C596.637 128.243 593.812 130.718 589.651 130.718C587.198 130.718 585.118 129.864 583.409 128.156C581.745 126.404 580.913 124.52 580.913 122.506ZM612.974 194.511C610.302 194.511 607.959 193.657 605.944 191.949C603.973 190.197 602.988 187.766 602.988 184.656C602.988 181.897 603.951 179.576 605.878 177.692C607.805 175.809 610.171 174.867 612.974 174.867C615.733 174.867 618.054 175.809 619.938 177.692C621.821 179.576 622.763 181.897 622.763 184.656C622.763 187.722 621.777 190.131 619.806 191.883C617.835 193.635 615.558 194.511 612.974 194.511Z" fill="white"></path><circle cx="378.5" cy="143.5" r="143.5" fill="white"></circle><circle cx="143.5" cy="143.5" r="143.5" fill="#B9C4D7"></circle><path fill-rule="evenodd" clip-rule="evenodd" d="M351.041 121.125C351.041 105.684 363.559 93.1667 379 93.1667C394.441 93.1667 406.958 105.684 406.958 121.125C406.958 136.566 394.441 149.083 379 149.083C363.559 149.083 351.041 136.566 351.041 121.125ZM366.292 156.708H391.708C398.432 156.708 402.921 156.653 406.711 157.803C414.834 160.267 421.191 166.624 423.655 174.747C425.415 180.548 423.165 185.812 419.636 189.298C416.176 192.715 411.17 194.833 406.068 194.833H351.932C346.83 194.833 341.823 192.715 338.364 189.298C334.835 185.812 332.585 180.548 334.344 174.747C336.808 166.624 343.165 160.267 351.288 157.803C355.078 156.653 359.567 156.708 366.292 156.708Z" fill="#3A3A3A"></path><path d="M144.003 88.3994C174.709 88.4004 199.6 113.297 199.601 144.003C199.6 174.709 174.708 199.6 144.003 199.601C136.619 199.6 129.556 198.158 123.095 195.534C122.115 195.136 121.849 195.031 120.821 195.202L101.021 198.499L100.864 198.531C98.5882 198.911 96.2565 199.267 94.0557 198.323C92.0888 197.479 90.5258 195.907 89.6836 193.944C88.7202 191.697 89.1136 189.327 89.501 187.006V186.986L92.8047 167.173C92.9576 166.252 92.8212 165.772 92.4717 164.911C89.6811 158.04 88.3012 150.956 88.4062 144.003C88.8437 115.088 112.607 88.3998 144.003 88.3994ZM117.31 135.663C112.705 135.665 108.97 139.398 108.97 144.003C108.97 148.608 112.705 152.341 117.31 152.343C121.915 152.343 125.649 148.609 125.649 144.003C125.649 139.397 121.915 135.663 117.31 135.663ZM143.997 135.663C139.392 135.665 135.657 139.398 135.657 144.003C135.657 148.608 139.392 152.341 143.997 152.343C148.603 152.343 152.337 148.609 152.337 144.003C152.337 139.397 148.603 135.663 143.997 135.663ZM170.685 135.663C166.08 135.665 162.345 139.398 162.345 144.003C162.345 148.608 166.08 152.341 170.685 152.343C175.291 152.343 179.024 148.609 179.024 144.003C179.024 139.397 175.29 135.663 170.685 135.663Z" fill="white"></path></svg> 