<?xml version="1.0" encoding="UTF-8"?> <svg xmlns="http://www.w3.org/2000/svg" width="60" height="35" viewBox="0 0 60 35" fill="none"><circle cx="17.069" cy="17.069" r="16.0345" fill="#3A3A3A" stroke="white" stroke-width="2.06897"></circle><circle cx="42.9313" cy="17.069" r="16.0345" fill="#D44333" stroke="white" stroke-width="2.06897"></circle><path d="M14.4824 16.5516H19.6548" stroke="white" stroke-width="2.23812" stroke-linecap="round" stroke-linejoin="round"></path><path d="M17.0684 13.9655L17.0684 19.1379" stroke="white" stroke-width="2.23812" stroke-linecap="round" stroke-linejoin="round"></path><path d="M36.8898 18.818L38.4943 17.2135L36.8898 15.609L37.8457 14.6532L39.4501 16.2576L41.0546 14.6532L42.0105 15.609L40.406 17.2135L42.0105 18.818L41.0546 19.7739L39.4501 18.1694L37.8457 19.7739L36.8898 18.818ZM42.8106 20.0697L45.5985 17.6687C45.8564 17.4411 46.0764 17.2439 46.2585 17.077C46.4406 16.9025 46.5885 16.7432 46.7023 16.599C46.8161 16.4549 46.8958 16.3145 46.9413 16.178C46.9944 16.0414 47.0209 15.8935 47.0209 15.7342C47.0209 15.408 46.9299 15.1463 46.7478 14.949C46.5658 14.7442 46.2964 14.6418 45.9399 14.6418C45.5302 14.6418 45.2078 14.7556 44.9727 14.9832C44.7451 15.2032 44.6313 15.5863 44.6313 16.1325H42.9244C42.9244 15.2297 43.1785 14.5166 43.6868 13.9932C44.2027 13.4697 44.9537 13.208 45.9399 13.208C46.4027 13.208 46.8047 13.2725 47.1461 13.4014C47.4951 13.5228 47.7871 13.6973 48.0223 13.9249C48.2575 14.1449 48.432 14.4104 48.5458 14.7214C48.6671 15.0325 48.7278 15.3701 48.7278 15.7342C48.7278 16.0073 48.6785 16.269 48.5799 16.5194C48.4813 16.7621 48.3447 16.9973 48.1702 17.2249C48.0033 17.4525 47.8061 17.6763 47.5785 17.8963C47.3509 18.1087 47.1082 18.3211 46.8502 18.5335L45.2116 19.899H48.8416V21.3101H42.8106V20.0697Z" fill="white"></path></svg> 