<?xml version="1.0" encoding="UTF-8"?> <svg xmlns="http://www.w3.org/2000/svg" width="259" height="48" viewBox="0 0 259 48" fill="none"><path fill-rule="evenodd" clip-rule="evenodd" d="M32.8246 30.4433C31.5785 30.3739 30.4082 29.8135 29.5527 28.8752C28.6972 27.9368 28.227 26.6965 28.2362 25.4085C28.232 24.1642 28.713 22.9657 29.5802 22.0601C30.4422 21.1732 31.6073 20.6719 32.8246 20.6719C33.4234 20.6609 34.0181 20.7725 34.5708 20.9997C35.1301 21.2304 35.6362 21.5701 36.0585 21.9984C36.4887 22.4347 36.8281 22.9495 37.0577 23.5139C37.2904 24.0849 37.4105 24.6943 37.4116 25.3095H41.343C41.3365 24.1553 41.1105 23.0126 40.6769 21.9483C40.2433 20.884 39.6098 19.9174 38.8144 19.1076C37.2079 17.4649 35.0371 16.5651 32.7775 16.5651C30.518 16.5651 28.355 17.5163 26.7668 19.1744C25.1786 20.8326 24.293 23.0743 24.3048 25.4059C24.3048 30.2582 28.1212 34.7378 32.8246 34.7378H64.8504V30.4408H32.8246V30.4433ZM64.8504 40.7263V36.4615H32.8246C30.6965 36.4671 28.6183 35.8276 26.8726 34.6298C25.1067 33.4254 23.7275 31.7094 22.9072 29.6965C22.087 27.6836 21.8624 25.4676 22.262 23.3211C22.6523 21.1959 23.6568 19.2265 25.1551 17.6487C26.6414 16.0934 28.5405 15.0291 30.612 14.5869C32.6835 14.1448 34.8373 14.3466 36.7977 15.1653C38.7582 15.9841 40.4418 17.3852 41.6304 19.1911C42.8189 20.9971 43.4668 23.1244 43.485 25.3095H47.6646C47.645 22.285 46.7582 19.3325 45.1177 16.8261C43.4772 14.3196 41.1523 12.3748 38.4382 11.2308C35.7241 10.0868 32.7436 9.79762 29.8701 10.4005C26.9967 11.0033 24.3623 12.4571 22.2947 14.6165C20.212 16.7951 18.8113 19.5182 18.2601 22.4599C17.6959 25.4291 17.995 28.5011 19.1221 31.2955C20.2493 34.0899 22.1523 36.4756 24.5895 38.153C27.0267 39.8304 29.8923 40.7276 32.8259 40.7276H64.8517L64.8504 40.7263ZM5.12975 40.7302V20.1963H0.950195V15.8903H9.23878V40.7302H5.12975ZM5.94216 14.1525H10.9289V40.7302H15.0431V9.88116H5.94477V14.1525H5.94216Z" fill="#3A3A3A"></path><path d="M88.4372 20V6.11794H93.99C95.5633 6.11794 96.7135 6.45508 97.4407 7.12935C98.1811 7.80362 98.5513 8.70265 98.5513 9.82643C98.5513 10.5404 98.3662 11.1551 97.996 11.6708C97.6258 12.1732 97.1168 12.5367 96.4689 12.7615C97.2886 12.9466 97.9365 13.3234 98.4124 13.8919C98.9016 14.4472 99.1462 15.1743 99.1462 16.0734C99.1462 16.8402 98.9809 17.5211 98.6504 18.116C98.3199 18.711 97.7977 19.1737 97.0837 19.5042C96.3698 19.8347 95.4443 20 94.3073 20H88.4372ZM90.817 17.9375H94.0495C95.0807 17.9375 95.7881 17.7723 96.1715 17.4417C96.5681 17.1112 96.7664 16.6022 96.7664 15.9147C96.7664 15.2404 96.5681 14.7248 96.1715 14.3679C95.7748 13.9977 95.0609 13.8126 94.0297 13.8126H90.817V17.9375ZM90.817 11.9087H93.6925C94.618 11.9087 95.2592 11.7369 95.6162 11.3931C95.9864 11.0494 96.1715 10.5866 96.1715 10.0049C96.1715 9.40997 95.993 8.96046 95.636 8.65637C95.2791 8.33907 94.6312 8.18042 93.6925 8.18042H90.817V11.9087ZM99.9402 20L103.728 14.5265L100.139 9.4893H102.598L105.156 13.0193L107.675 9.4893H110.054L106.504 14.4472L110.253 20H107.754L105.077 15.9147L102.36 20H99.9402ZM115.905 20.2181C114.94 20.2181 114.068 20.0198 113.288 19.6232C112.508 19.2133 111.886 18.6118 111.423 17.8185C110.974 17.0121 110.749 16.0205 110.749 14.8438V14.4472C110.749 13.3366 110.974 12.3979 111.423 11.6311C111.886 10.8511 112.508 10.2627 113.288 9.8661C114.068 9.46947 114.94 9.27115 115.905 9.27115C116.884 9.27115 117.756 9.46947 118.523 9.8661C119.303 10.2627 119.918 10.8511 120.367 11.6311C120.83 12.3979 121.062 13.3366 121.062 14.4472V14.8438C121.062 16.0205 120.83 17.0121 120.367 17.8185C119.918 18.6118 119.303 19.2133 118.523 19.6232C117.756 20.0198 116.884 20.2181 115.905 20.2181ZM115.905 18.3143C116.408 18.3143 116.884 18.1953 117.333 17.9574C117.783 17.7194 118.146 17.3492 118.424 16.8468C118.702 16.3312 118.84 15.6635 118.84 14.8438V14.4472C118.84 13.6936 118.702 13.0788 118.424 12.6028C118.146 12.1137 117.783 11.7567 117.333 11.5319C116.884 11.294 116.408 11.175 115.905 11.175C115.403 11.175 114.927 11.294 114.478 11.5319C114.028 11.7567 113.664 12.1137 113.387 12.6028C113.109 13.0788 112.97 13.6936 112.97 14.4472V14.8438C112.97 15.6635 113.109 16.3312 113.387 16.8468C113.664 17.3492 114.028 17.7194 114.478 17.9574C114.927 18.1953 115.403 18.3143 115.905 18.3143ZM121.849 22.4789V18.1358H123.039C123.224 17.8582 123.383 17.4285 123.515 16.8468C123.647 16.2518 123.747 15.571 123.813 14.8041C123.892 14.0373 123.932 13.2573 123.932 12.464V9.4893H131.765V18.1358H133.153V22.4789H131.131V20H123.872V22.4789H121.849ZM125.26 18.1358H129.584V11.3535H126.034V12.8607C126.034 13.8787 125.974 14.857 125.855 15.7957C125.736 16.7212 125.538 17.5012 125.26 18.1358ZM134.745 20V9.4893H136.926V16.9261L141.983 9.4893H144.065V20H141.884V12.5632L136.827 20H134.745ZM146.551 20V9.4893H149.01L152.362 15.6371L155.713 9.4893H158.054V20H155.872V12.7615L153.096 17.8185H151.509L148.733 12.7615V20H146.551ZM165.187 20V9.4893H170.145C171.031 9.4893 171.745 9.6149 172.287 9.8661C172.842 10.1041 173.252 10.4412 173.517 10.8775C173.781 11.3006 173.913 11.7898 173.913 12.345C173.913 12.8078 173.774 13.2573 173.497 13.6936C173.219 14.1167 172.829 14.4009 172.327 14.5463C172.975 14.705 173.464 15.0091 173.794 15.4586C174.138 15.8949 174.31 16.4105 174.31 17.0054C174.31 17.9177 174.006 18.6448 173.398 19.1869C172.79 19.729 171.838 20 170.542 20H165.187ZM167.369 18.1358H170.244C170.958 18.1358 171.448 18.0235 171.712 17.7987C171.99 17.5607 172.128 17.2302 172.128 16.8071C172.128 16.3841 171.99 16.0667 171.712 15.8552C171.448 15.6305 170.958 15.5181 170.244 15.5181H167.369V18.1358ZM167.369 13.8126H169.947C170.608 13.8126 171.071 13.7068 171.335 13.4953C171.6 13.2705 171.732 12.9664 171.732 12.583C171.732 12.1996 171.6 11.9021 171.335 11.6906C171.071 11.4658 170.608 11.3535 169.947 11.3535H167.369V13.8126ZM180.861 20V9.4893H188.198V11.3535H183.042V20H180.861ZM189.685 23.9663V9.4893H191.708V11.2543C192.025 10.6461 192.494 10.1636 193.116 9.8066C193.75 9.44964 194.464 9.27115 195.257 9.27115C196.632 9.27115 197.717 9.70083 198.51 10.5602C199.303 11.4196 199.7 12.7152 199.7 14.4472V14.8438C199.7 16.0337 199.515 17.0319 199.144 17.8384C198.774 18.6316 198.259 19.2266 197.598 19.6232C196.937 20.0198 196.156 20.2181 195.257 20.2181C194.504 20.2181 193.816 20.0529 193.195 19.7224C192.574 19.3918 192.131 18.9291 191.866 18.3342V23.9663H189.685ZM194.742 18.3143C195.562 18.3143 196.223 18.0301 196.725 17.4616C197.227 16.8931 197.479 16.0205 197.479 14.8438V14.4472C197.479 13.3366 197.234 12.5169 196.745 11.9881C196.256 11.446 195.588 11.175 194.742 11.175C194.253 11.175 193.783 11.2807 193.334 11.4923C192.898 11.7038 192.541 12.0145 192.263 12.4244C191.998 12.8342 191.866 13.3432 191.866 13.9514V15.3396C191.866 16.0006 191.998 16.5559 192.263 17.0054C192.541 17.4417 192.898 17.7723 193.334 17.997C193.77 18.2086 194.239 18.3143 194.742 18.3143ZM202.887 24.1844C202.688 24.1844 202.49 24.1646 202.292 24.125V22.2211C202.49 22.2608 202.688 22.2806 202.887 22.2806C203.178 22.2806 203.416 22.2079 203.601 22.0625C203.786 21.9303 203.958 21.6989 204.116 21.3684C204.275 21.0378 204.46 20.5817 204.672 20L200.209 9.4893H202.589L205.802 17.6202L208.697 9.4893H210.918L206.853 20C206.47 20.9784 206.106 21.7782 205.762 22.3996C205.419 23.021 205.029 23.4705 204.592 23.7482C204.156 24.039 203.587 24.1844 202.887 24.1844ZM212.407 20V9.4893H221.53V20H219.348V11.3535H214.589V20H212.407ZM224.001 20V9.4893H233.124V20H230.942V11.3535H226.183V20H224.001ZM237.28 24.1844C237.082 24.1844 236.884 24.1646 236.685 24.125V22.2211C236.884 22.2608 237.082 22.2806 237.28 22.2806C237.571 22.2806 237.809 22.2079 237.994 22.0625C238.179 21.9303 238.351 21.6989 238.51 21.3684C238.669 21.0378 238.854 20.5817 239.065 20L234.603 9.4893H236.983L240.196 17.6202L243.091 9.4893H245.312L241.247 20C240.863 20.9784 240.5 21.7782 240.156 22.3996C239.812 23.021 239.422 23.4705 238.986 23.7482C238.55 24.039 237.981 24.1844 237.28 24.1844ZM88.0405 44V33.4893H90.222V37.7531H91.4119L95.1006 33.4893H97.5597L93.0976 38.5067L97.758 44H95.1006L91.4119 39.5379H90.222V44H88.0405ZM103.421 44.2181C102.456 44.2181 101.583 44.0198 100.803 43.6232C100.023 43.2133 99.4016 42.6118 98.9389 41.8185C98.4894 41.0121 98.2646 40.0205 98.2646 38.8438V38.4472C98.2646 37.3366 98.4894 36.3979 98.9389 35.6311C99.4016 34.8511 100.023 34.2627 100.803 33.8661C101.583 33.4695 102.456 33.2712 103.421 33.2712C104.399 33.2712 105.272 33.4695 106.039 33.8661C106.819 34.2627 107.433 34.8511 107.883 35.6311C108.346 36.3979 108.577 37.3366 108.577 38.4472V38.8438C108.577 40.0205 108.346 41.0121 107.883 41.8185C107.433 42.6118 106.819 43.2133 106.039 43.6232C105.272 44.0198 104.399 44.2181 103.421 44.2181ZM103.421 42.3143C103.923 42.3143 104.399 42.1953 104.849 41.9574C105.298 41.7194 105.662 41.3492 105.939 40.8468C106.217 40.3312 106.356 39.6635 106.356 38.8438V38.4472C106.356 37.6936 106.217 37.0788 105.939 36.6028C105.662 36.1137 105.298 35.7567 104.849 35.5319C104.399 35.294 103.923 35.175 103.421 35.175C102.918 35.175 102.442 35.294 101.993 35.5319C101.543 35.7567 101.18 36.1137 100.902 36.6028C100.625 37.0788 100.486 37.6936 100.486 38.4472V38.8438C100.486 39.6635 100.625 40.3312 100.902 40.8468C101.18 41.3492 101.543 41.7194 101.993 41.9574C102.442 42.1953 102.918 42.3143 103.421 42.3143ZM110.453 44V33.4893H112.912L116.264 39.6371L119.615 33.4893H121.956V44H119.774V36.7615L116.998 41.8185H115.411L112.635 36.7615V44H110.453ZM124.429 44V33.4893H133.552V44H131.37V35.3535H126.611V44H124.429ZM139.097 44.2181C138.343 44.2181 137.695 44.0793 137.153 43.8017C136.624 43.5108 136.221 43.1142 135.943 42.6118C135.666 42.1094 135.527 41.5475 135.527 40.9261C135.527 39.8817 135.838 39.1082 136.459 38.6058C137.08 38.0902 137.993 37.8324 139.196 37.8324H142.468V37.2573C142.468 36.464 142.289 35.922 141.933 35.6311C141.589 35.327 141.04 35.175 140.287 35.175C139.612 35.175 139.116 35.2807 138.799 35.4923C138.482 35.7038 138.297 35.9947 138.244 36.3649H136.122C136.162 35.7567 136.353 35.2213 136.697 34.7585C137.041 34.2958 137.523 33.9322 138.145 33.6678C138.779 33.4034 139.526 33.2712 140.386 33.2712C141.245 33.2712 141.992 33.4034 142.627 33.6678C143.274 33.9322 143.77 34.3487 144.114 34.9172C144.471 35.4724 144.649 36.2128 144.649 37.1383V41.3227C144.649 41.878 144.656 42.3672 144.669 42.7903C144.682 43.2001 144.716 43.6034 144.768 44H142.785C142.746 43.6959 142.713 43.4381 142.686 43.2266C142.673 43.015 142.666 42.7506 142.666 42.4333C142.415 42.9225 141.979 43.3456 141.357 43.7025C140.749 44.0463 139.996 44.2181 139.097 44.2181ZM139.692 42.3143C140.194 42.3143 140.65 42.2284 141.06 42.0565C141.483 41.8846 141.82 41.6268 142.071 41.2831C142.336 40.9393 142.468 40.5229 142.468 40.0337V39.4586H139.592C139.037 39.4586 138.588 39.5776 138.244 39.8156C137.913 40.0535 137.748 40.4039 137.748 40.8666C137.748 41.3029 137.9 41.6533 138.204 41.9177C138.522 42.1821 139.017 42.3143 139.692 42.3143ZM147.035 44V33.4893H149.217V37.7134H154.175V33.4893H156.356V44H154.175V39.5776H149.217V44H147.035ZM158.842 44V33.4893H161.024V40.9261L166.081 33.4893H168.163V44H165.981V36.5632L160.924 44H158.842ZM170.649 44V33.4893H172.83V40.9261L177.887 33.4893H179.97V44H177.788V36.5632L172.731 44H170.649ZM175.289 32.2994C174.205 32.2994 173.405 32.0614 172.89 31.5855C172.387 31.0963 172.136 30.4088 172.136 29.523H174.159C174.159 29.999 174.252 30.3427 174.437 30.5542C174.635 30.7658 174.926 30.8715 175.309 30.8715C175.693 30.8715 175.977 30.7658 176.162 30.5542C176.36 30.3427 176.46 29.999 176.46 29.523H178.482C178.482 30.4088 178.225 31.0963 177.709 31.5855C177.193 32.0614 176.387 32.2994 175.289 32.2994ZM190.785 43.2067L186.422 39.4586V37.6341L190.785 33.8859V36.2657L188.108 38.5067L190.785 40.7476V43.2067ZM195.445 43.2067L191.082 39.4586V37.6341L195.445 33.8859V36.2657L192.768 38.5067L195.445 40.7476V43.2067ZM197.229 44V41.9375H200.501V32.6365L197.229 34.9568V32.4977L200.58 30.1179H202.881V41.9375H205.558V44H197.229ZM212.898 44.2181C211.761 44.2181 210.736 43.9802 209.824 43.5042C208.912 43.015 208.184 42.2548 207.642 41.2236C207.114 40.1791 206.849 38.824 206.849 37.1581V36.7615C206.849 35.5584 207.008 34.5271 207.325 33.6678C207.642 32.7952 208.072 32.0813 208.614 31.526C209.169 30.9707 209.811 30.5608 210.538 30.2964C211.278 30.032 212.065 29.8998 212.898 29.8998C213.665 29.8998 214.378 29.999 215.04 30.1973C215.701 30.3824 216.282 30.6666 216.785 31.05C217.287 31.4334 217.69 31.9094 217.994 32.4779C218.299 33.0464 218.484 33.7141 218.55 34.4809H216.051C215.879 33.6215 215.509 32.9935 214.94 32.5969C214.385 32.2002 213.704 32.0019 212.898 32.0019C212.316 32.0019 211.754 32.154 211.212 32.4581C210.67 32.7489 210.22 33.2381 209.864 33.9256C209.52 34.6131 209.348 35.5584 209.348 36.7615V37.1581C209.348 38.11 209.454 38.9099 209.665 39.5577C209.877 40.1923 210.154 40.6947 210.498 41.0649C210.855 41.4351 211.239 41.7062 211.648 41.878C212.071 42.0367 212.488 42.116 212.898 42.116C213.85 42.116 214.583 41.8979 215.099 41.4616C215.628 41.0121 215.945 40.4039 216.051 39.6371H218.55C218.47 40.4568 218.272 41.1575 217.955 41.7392C217.651 42.3209 217.241 42.7969 216.725 43.1671C216.223 43.524 215.648 43.7885 215 43.9603C214.352 44.1322 213.651 44.2181 212.898 44.2181ZM220.244 33.8859L224.607 37.6341V39.4586L220.244 43.2067V40.827L222.921 38.586L220.244 36.345V33.8859ZM224.904 33.8859L229.267 37.6341V39.4586L224.904 43.2067V40.827L227.582 38.586L224.904 36.345V33.8859Z" fill="#444444"></path></svg> 