<?xml version="1.0" encoding="UTF-8"?> <svg xmlns="http://www.w3.org/2000/svg" width="20" height="20" viewBox="0 0 20 20" fill="none"><path d="M13.3335 1.66663H14.3679C15.0387 1.66662 15.5924 1.66661 16.0433 1.70346C16.5118 1.74173 16.9423 1.82386 17.3468 2.02994C17.974 2.34952 18.4839 2.85945 18.8035 3.48666C19.0096 3.8911 19.0917 4.32169 19.13 4.79011C19.1668 5.24108 19.1668 5.79469 19.1668 6.46545V13.5344C19.1668 14.2051 19.1668 14.7588 19.13 15.2098C19.0917 15.6782 19.0096 16.1088 18.8035 16.5133C18.4839 17.1405 17.974 17.6504 17.3468 17.97C16.9423 18.1761 16.5118 18.2582 16.0433 18.2965C15.5924 18.3333 15.0387 18.3333 14.3679 18.3333H13.3335C12.8733 18.3333 12.5002 17.9602 12.5002 17.5C12.5002 17.0397 12.8733 16.6666 13.3335 16.6666H14.3335C15.0473 16.6666 15.5326 16.666 15.9076 16.6353C16.5186 16.5854 17.0278 16.3271 17.3185 15.7566C17.569 15.265 17.5399 14.5836 17.5145 13.9868C17.5072 13.8154 17.5002 13.6509 17.5002 13.5V6.49996C17.5002 6.349 17.5072 6.18454 17.5145 6.01309C17.5399 5.41631 17.569 4.73487 17.3185 4.24331C17.0278 3.67286 16.5186 3.41451 15.9076 3.36459C15.5326 3.33394 15.0473 3.33329 14.3335 3.33329H13.3335C12.8733 3.33329 12.5002 2.9602 12.5002 2.49996C12.5002 2.03972 12.8733 1.66663 13.3335 1.66663Z" fill="#D44333"></path><path d="M8.08942 5.24404C7.76398 4.9186 7.23634 4.9186 6.91091 5.24404C6.58547 5.56947 6.58547 6.09711 6.91091 6.42255L9.65498 9.16663H1.66683C1.20659 9.16663 0.833496 9.53972 0.833496 9.99996C0.833496 10.4602 1.20659 10.8333 1.66683 10.8333H9.65498L6.91091 13.5774C6.58547 13.9028 6.58547 14.4304 6.91091 14.7559C7.23634 15.0813 7.76398 15.0813 8.08942 14.7559L12.2561 10.5892C12.5815 10.2638 12.5815 9.73614 12.2561 9.41071L8.08942 5.24404Z" fill="#D44333"></path></svg> 