<?xml version="1.0" encoding="UTF-8"?> <svg xmlns="http://www.w3.org/2000/svg" width="207" height="76" viewBox="0 0 207 76" fill="none"><rect width="206.378" height="75.0466" rx="18.7617" fill="#F0F1F5"></rect><path d="M48.4424 37.3082C48.4631 35.6964 48.8913 34.1161 49.687 32.7142C50.4826 31.3122 51.62 30.1345 52.9931 29.2903C52.1208 28.0443 50.97 27.019 49.6321 26.2957C48.294 25.5724 46.8059 25.171 45.2857 25.1235C42.043 24.7831 38.8992 27.0639 37.2469 27.0639C35.5622 27.0639 33.0182 25.1573 30.2783 25.2136C28.5063 25.271 26.7793 25.7862 25.2654 26.7094C23.7517 27.6327 22.5029 28.9322 21.6407 30.4815C17.9059 36.9476 20.6917 46.4507 24.2694 51.6774C26.0593 54.2368 28.1511 57.0958 30.8885 56.9945C33.5669 56.8832 34.5673 55.2864 37.8007 55.2864C41.0038 55.2864 41.9424 56.9945 44.7352 56.9299C47.6094 56.8832 49.4204 54.3592 51.1475 51.7755C52.4336 49.9518 53.4233 47.9363 54.0796 45.8036C52.4098 45.0974 50.985 43.9151 49.9825 42.4043C48.9799 40.8936 48.4443 39.1214 48.4424 37.3082Z" fill="#3A3A3A"></path><path d="M43.164 21.6861C44.7311 19.8048 45.5033 17.3867 45.3163 14.9453C42.9221 15.1968 40.7105 16.3411 39.1221 18.1502C38.3454 19.034 37.7507 20.0622 37.3718 21.1759C36.9928 22.2899 36.837 23.4673 36.9134 24.6414C38.1109 24.6537 39.2958 24.3941 40.3785 23.8823C41.4612 23.3703 42.4135 22.6193 43.164 21.6861Z" fill="#3A3A3A"></path><path d="M66.5666 46.4873L72.7112 30.2563H75.4936L81.6382 46.4873H78.6703L77.3022 42.8237H70.7171L69.349 46.4873H66.5666ZM71.6214 40.4123H76.3979L74.0328 33.7343L71.6214 40.4123ZM82.9063 51.1247V34.1981H85.2714V36.2617C85.6424 35.5507 86.1911 34.9865 86.9177 34.5691C87.6597 34.1517 88.4944 33.943 89.4219 33.943C91.0295 33.943 92.2971 34.4454 93.2246 35.4502C94.1521 36.455 94.6158 37.9699 94.6158 39.9949V40.4586C94.6158 41.8499 94.3994 43.017 93.9666 43.9599C93.5338 44.8874 92.9309 45.583 92.158 46.0467C91.3851 46.5105 90.473 46.7424 89.4219 46.7424C88.5408 46.7424 87.737 46.5491 87.0104 46.1627C86.2839 45.7762 85.766 45.2352 85.4569 44.5396V51.1247H82.9063ZM88.819 44.5164C89.7774 44.5164 90.5503 44.184 91.1377 43.5193C91.7252 42.8546 92.0189 41.8344 92.0189 40.4586V39.9949C92.0189 38.6964 91.7329 37.738 91.1609 37.1197C90.589 36.4859 89.8083 36.169 88.819 36.169C88.2471 36.169 87.6983 36.2927 87.1727 36.54C86.6626 36.7873 86.2452 37.1506 85.9206 37.6298C85.6115 38.109 85.4569 38.7041 85.4569 39.4152V41.0383C85.4569 41.8112 85.6115 42.4605 85.9206 42.986C86.2452 43.4962 86.6626 43.8826 87.1727 44.1454C87.6829 44.3927 88.2316 44.5164 88.819 44.5164ZM96.4762 51.1247V34.1981H98.8413V36.2617C99.2123 35.5507 99.7611 34.9865 100.488 34.5691C101.23 34.1517 102.064 33.943 102.992 33.943C104.599 33.943 105.867 34.4454 106.795 35.4502C107.722 36.455 108.186 37.9699 108.186 39.9949V40.4586C108.186 41.8499 107.969 43.017 107.537 43.9599C107.104 44.8874 106.501 45.583 105.728 46.0467C104.955 46.5105 104.043 46.7424 102.992 46.7424C102.111 46.7424 101.307 46.5491 100.58 46.1627C99.8538 45.7762 99.336 45.2352 99.0268 44.5396V51.1247H96.4762ZM102.389 44.5164C103.347 44.5164 104.12 44.184 104.708 43.5193C105.295 42.8546 105.589 41.8344 105.589 40.4586V39.9949C105.589 38.6964 105.303 37.738 104.731 37.1197C104.159 36.4859 103.378 36.169 102.389 36.169C101.817 36.169 101.268 36.2927 100.743 36.54C100.233 36.7873 99.8152 37.1506 99.4906 37.6298C99.1814 38.109 99.0268 38.7041 99.0268 39.4152V41.0383C99.0268 41.8112 99.1814 42.4605 99.4906 42.986C99.8152 43.4962 100.233 43.8826 100.743 44.1454C101.253 44.3927 101.802 44.5164 102.389 44.5164ZM121.06 46.7424C119.669 46.7424 118.517 46.5414 117.605 46.1395C116.693 45.7376 115.998 45.1888 115.518 44.4932C115.055 43.7821 114.776 42.9783 114.684 42.0817H117.466C117.59 42.7155 117.907 43.2411 118.417 43.6585C118.927 44.0758 119.808 44.2845 121.06 44.2845C122.359 44.2845 123.278 44.0758 123.819 43.6585C124.376 43.2256 124.654 42.7001 124.654 42.0817C124.654 41.5716 124.5 41.1542 124.19 40.8296C123.881 40.505 123.402 40.2268 122.753 39.9949C122.119 39.7476 121.307 39.5234 120.318 39.3225C119.205 39.0751 118.262 38.766 117.489 38.395C116.716 38.0085 116.129 37.4984 115.727 36.8646C115.341 36.2308 115.147 35.4193 115.147 34.43C115.147 33.6107 115.372 32.8687 115.82 32.204C116.268 31.5393 116.925 31.006 117.791 30.6041C118.672 30.2022 119.762 30.0012 121.06 30.0012C122.328 30.0012 123.379 30.1944 124.214 30.5809C125.064 30.9519 125.713 31.4697 126.161 32.1344C126.625 32.7991 126.896 33.5643 126.973 34.43H124.19C124.067 33.8425 123.75 33.3711 123.24 33.0155C122.745 32.6445 122.019 32.459 121.06 32.459C119.947 32.459 119.143 32.6523 118.649 33.0387C118.169 33.4252 117.93 33.8889 117.93 34.43C117.93 35.1719 118.239 35.7284 118.857 36.0994C119.476 36.4704 120.426 36.7873 121.709 37.0501C122.668 37.2511 123.502 37.4907 124.214 37.7689C124.925 38.0317 125.52 38.3563 125.999 38.7428C126.478 39.1138 126.834 39.5775 127.066 40.134C127.313 40.675 127.437 41.3243 127.437 42.0817C127.437 42.9783 127.197 43.7821 126.718 44.4932C126.254 45.1888 125.551 45.7376 124.608 46.1395C123.665 46.5414 122.482 46.7424 121.06 46.7424ZM134.059 46.6032C133.132 46.6032 132.374 46.4718 131.787 46.2091C131.215 45.9463 130.79 45.5366 130.512 44.9801C130.249 44.4082 130.118 43.6739 130.118 42.7774V36.3777H128.379V34.1981H130.118V31.4156H132.668V34.1981H135.798V36.3777H132.668V42.4295C132.668 43.1561 132.8 43.6662 133.062 43.9599C133.341 44.2381 133.866 44.3773 134.639 44.3773C135.103 44.3773 135.567 44.3541 136.03 44.3077V46.4873C135.737 46.5182 135.435 46.5414 135.126 46.5569C134.817 46.5878 134.461 46.6032 134.059 46.6032ZM143.114 46.7424C141.986 46.7424 140.966 46.5105 140.054 46.0467C139.141 45.5675 138.415 44.8642 137.874 43.9367C137.348 42.9938 137.086 41.8344 137.086 40.4586V39.9949C137.086 38.6964 137.348 37.5989 137.874 36.7023C138.415 35.7903 139.141 35.1024 140.054 34.6386C140.966 34.1749 141.986 33.943 143.114 33.943C144.258 33.943 145.278 34.1749 146.175 34.6386C147.087 35.1024 147.806 35.7903 148.331 36.7023C148.872 37.5989 149.143 38.6964 149.143 39.9949V40.4586C149.143 41.8344 148.872 42.9938 148.331 43.9367C147.806 44.8642 147.087 45.5675 146.175 46.0467C145.278 46.5105 144.258 46.7424 143.114 46.7424ZM143.114 44.5164C143.702 44.5164 144.258 44.3773 144.784 44.099C145.309 43.8208 145.734 43.3879 146.059 42.8005C146.384 42.1977 146.546 41.417 146.546 40.4586V39.9949C146.546 39.1138 146.384 38.395 146.059 37.8385C145.734 37.2665 145.309 36.8492 144.784 36.5864C144.258 36.3081 143.702 36.169 143.114 36.169C142.527 36.169 141.97 36.3081 141.445 36.5864C140.919 36.8492 140.494 37.2665 140.169 37.8385C139.845 38.395 139.683 39.1138 139.683 39.9949V40.4586C139.683 41.417 139.845 42.1977 140.169 42.8005C140.494 43.3879 140.919 43.8208 141.445 44.099C141.97 44.3773 142.527 44.5164 143.114 44.5164ZM150.989 46.4873V34.1981H153.354V36.2849C153.524 35.8521 153.756 35.4657 154.05 35.1256C154.359 34.77 154.73 34.4841 155.163 34.2676C155.611 34.0512 156.113 33.943 156.67 33.943C157.056 33.943 157.342 33.9585 157.528 33.9894C157.729 34.0203 157.868 34.0512 157.945 34.0822V36.4009C157.682 36.3236 157.443 36.2695 157.226 36.2386C157.01 36.1922 156.747 36.169 156.438 36.169C155.773 36.169 155.224 36.3236 154.792 36.6327C154.359 36.9264 154.042 37.3129 153.841 37.7921C153.64 38.2558 153.539 38.7582 153.539 39.2993V46.4873H150.989ZM164.435 46.7424C163.353 46.7424 162.356 46.5182 161.444 46.0699C160.531 45.6062 159.797 44.9106 159.241 43.9831C158.684 43.0556 158.406 41.8808 158.406 40.4586V39.9949C158.406 38.6346 158.669 37.5061 159.194 36.6096C159.735 35.713 160.446 35.0483 161.328 34.6155C162.209 34.1672 163.167 33.943 164.203 33.943C166.073 33.943 167.503 34.4454 168.492 35.4502C169.497 36.455 170 37.8926 170 39.763V41.0615H161.003C161.034 41.8962 161.212 42.5687 161.536 43.0788C161.861 43.5889 162.278 43.9599 162.788 44.1918C163.298 44.4082 163.847 44.5164 164.435 44.5164C165.316 44.5164 165.957 44.3773 166.359 44.099C166.777 43.8208 167.063 43.4575 167.217 43.0092H169.768C169.52 44.2304 168.91 45.1579 167.936 45.7917C166.978 46.4255 165.81 46.7424 164.435 46.7424ZM164.319 36.169C163.747 36.169 163.213 36.2695 162.719 36.4704C162.224 36.6714 161.822 36.9883 161.513 37.4211C161.204 37.8539 161.034 38.4336 161.003 39.1601H167.449C167.434 38.3872 167.287 37.7844 167.008 37.3515C166.73 36.9187 166.359 36.6173 165.895 36.4472C165.432 36.2617 164.906 36.169 164.319 36.169Z" fill="#3A3A3A"></path></svg> 