<?xml version="1.0" encoding="UTF-8"?> <svg xmlns="http://www.w3.org/2000/svg" width="207" height="76" viewBox="0 0 207 76" fill="none"><rect width="206.378" height="75.0466" rx="18.7617" fill="#F0F1F5"></rect><path d="M41.4093 22.0724C39.9782 22.059 38.7339 23.1604 38.7339 24.5991V27.6728L32.0143 26.0735C31.8052 26.0237 31.5968 25.9986 31.3921 25.9968C29.9611 25.9834 28.7167 27.0848 28.7167 28.5235V31.5853L22.0593 29.9979C20.3856 29.5996 18.7617 30.8065 18.7617 32.4474V49.5101C18.7617 50.9607 19.7945 52.2211 21.2691 52.5719L31.9085 55.1045C33.5822 55.5029 35.2061 54.296 35.2061 52.6551V35.5924C35.2061 34.552 34.6729 33.6126 33.8311 33.0359C33.8176 32.9939 33.8207 32.9474 33.848 32.9093C33.8947 32.8445 33.9787 32.8136 34.0571 32.8362C35.457 33.2405 36.7885 34.6078 36.9254 36.332L37.387 49.352C37.3989 49.7883 37.7037 50.1605 38.1336 50.2972L41.8668 51.1831C43.5404 51.5814 45.1643 50.3745 45.1643 48.7337C45.2084 43.1035 45.1957 37.3783 45.1972 31.7304C45.1972 30.9634 44.9259 30.3749 44.6211 29.9468C44.5717 29.8755 44.5196 29.8053 44.4643 29.7375C44.3977 29.6567 44.3249 29.58 44.2502 29.5051C44.1389 29.3933 44.02 29.2869 43.8919 29.1918L43.8894 29.1895C43.8367 29.1388 43.8216 29.0598 43.8651 29.0004C43.9118 28.9356 43.9958 28.9047 44.0742 28.9273C45.4741 29.3315 46.8118 30.6989 46.9424 32.423L47.4041 45.443C47.4159 45.8759 47.7177 46.2456 48.1445 46.3764L51.8838 47.2682C53.5575 47.6665 55.1814 46.4597 55.1814 44.8188V27.7561C55.1814 26.3054 54.1486 25.045 52.674 24.6943L42.0346 22.1616C41.8256 22.1118 41.6171 22.0867 41.4124 22.0849L41.4093 22.0724Z" fill="#3A3A3A"></path><path d="M68.3056 46.4873V30.2563H74.4502C75.8105 30.2563 76.939 30.4727 77.8355 30.9055C78.7476 31.3383 79.4355 31.9335 79.8992 32.6909C80.3629 33.4484 80.5948 34.3218 80.5948 35.3111C80.5948 36.4241 80.2934 37.3902 79.6905 38.2095C79.0876 39.0133 78.1833 39.593 76.9776 39.9485L81.0586 46.4873H77.9978L74.4038 40.2731H71.0881V46.4873H68.3056ZM71.0881 37.9544H73.9865C75.4086 37.9544 76.3979 37.7225 76.9544 37.2588C77.5264 36.7951 77.8124 36.1458 77.8124 35.3111C77.8124 34.4763 77.5264 33.8271 76.9544 33.3633C76.3979 32.8996 75.4086 32.6677 73.9865 32.6677H71.0881V37.9544ZM87.0827 46.7424C85.6296 46.7424 84.5321 46.325 83.7901 45.4903C83.0481 44.6401 82.6771 43.3493 82.6771 41.618V34.1981H85.2277V41.3861C85.2277 42.4218 85.4364 43.2025 85.8538 43.728C86.2866 44.2536 86.9668 44.5164 87.8943 44.5164C88.5744 44.5164 89.1232 44.3695 89.5405 44.0758C89.9734 43.7821 90.2903 43.3957 90.4912 42.9165C90.6922 42.4373 90.7927 41.9272 90.7927 41.3861V34.1981H93.3432V46.4873H90.9782V44.4005C90.6844 45.0342 90.2052 45.583 89.5405 46.0467C88.8913 46.5105 88.072 46.7424 87.0827 46.7424ZM101.8 46.7424C100.409 46.7424 99.2574 46.5414 98.3453 46.1395C97.4333 45.7376 96.7377 45.1888 96.2585 44.4932C95.7948 43.7821 95.5165 42.9783 95.4238 42.0817H98.2062C98.3299 42.7155 98.6468 43.2411 99.1569 43.6585C99.667 44.0758 100.548 44.2845 101.8 44.2845C103.099 44.2845 104.018 44.0758 104.56 43.6585C105.116 43.2256 105.394 42.7001 105.394 42.0817C105.394 41.5716 105.24 41.1542 104.931 40.8296C104.621 40.505 104.142 40.2268 103.493 39.9949C102.859 39.7476 102.048 39.5234 101.058 39.3225C99.9453 39.0751 99.0023 38.766 98.2294 38.395C97.4565 38.0085 96.8691 37.4984 96.4672 36.8646C96.0807 36.2308 95.8875 35.4193 95.8875 34.43C95.8875 33.6107 96.1116 32.8687 96.5599 32.204C97.0082 31.5393 97.6652 31.006 98.5308 30.6041C99.412 30.2022 100.502 30.0012 101.8 30.0012C103.068 30.0012 104.119 30.1944 104.954 30.5809C105.804 30.9519 106.453 31.4697 106.901 32.1344C107.365 32.7991 107.636 33.5643 107.713 34.43H104.931C104.807 33.8425 104.49 33.3711 103.98 33.0155C103.485 32.6445 102.759 32.459 101.8 32.459C100.687 32.459 99.8834 32.6523 99.3888 33.0387C98.9096 33.4252 98.67 33.8889 98.67 34.43C98.67 35.1719 98.9791 35.7284 99.5975 36.0994C100.216 36.4704 101.166 36.7873 102.449 37.0501C103.408 37.2511 104.243 37.4907 104.954 37.7689C105.665 38.0317 106.26 38.3563 106.739 38.7428C107.218 39.1138 107.574 39.5775 107.806 40.134C108.053 40.675 108.177 41.3243 108.177 42.0817C108.177 42.9783 107.937 43.7821 107.458 44.4932C106.994 45.1888 106.291 45.7376 105.348 46.1395C104.405 46.5414 103.222 46.7424 101.8 46.7424ZM114.8 46.6032C113.872 46.6032 113.115 46.4718 112.527 46.2091C111.955 45.9463 111.53 45.5366 111.252 44.9801C110.989 44.4082 110.858 43.6739 110.858 42.7774V36.3777H109.119V34.1981H110.858V31.4156H113.408V34.1981H116.539V36.3777H113.408V42.4295C113.408 43.1561 113.54 43.6662 113.803 43.9599C114.081 44.2381 114.606 44.3773 115.379 44.3773C115.843 44.3773 116.307 44.3541 116.77 44.3077V46.4873C116.477 46.5182 116.175 46.5414 115.866 46.5569C115.557 46.5878 115.201 46.6032 114.8 46.6032ZM123.854 46.7424C122.726 46.7424 121.706 46.5105 120.794 46.0467C119.882 45.5675 119.155 44.8642 118.614 43.9367C118.088 42.9938 117.826 41.8344 117.826 40.4586V39.9949C117.826 38.6964 118.088 37.5989 118.614 36.7023C119.155 35.7903 119.882 35.1024 120.794 34.6386C121.706 34.1749 122.726 33.943 123.854 33.943C124.998 33.943 126.018 34.1749 126.915 34.6386C127.827 35.1024 128.546 35.7903 129.071 36.7023C129.613 37.5989 129.883 38.6964 129.883 39.9949V40.4586C129.883 41.8344 129.613 42.9938 129.071 43.9367C128.546 44.8642 127.827 45.5675 126.915 46.0467C126.018 46.5105 124.998 46.7424 123.854 46.7424ZM123.854 44.5164C124.442 44.5164 124.998 44.3773 125.524 44.099C126.049 43.8208 126.475 43.3879 126.799 42.8005C127.124 42.1977 127.286 41.417 127.286 40.4586V39.9949C127.286 39.1138 127.124 38.395 126.799 37.8385C126.475 37.2665 126.049 36.8492 125.524 36.5864C124.998 36.3081 124.442 36.169 123.854 36.169C123.267 36.169 122.71 36.3081 122.185 36.5864C121.659 36.8492 121.234 37.2665 120.91 37.8385C120.585 38.395 120.423 39.1138 120.423 39.9949V40.4586C120.423 41.417 120.585 42.1977 120.91 42.8005C121.234 43.3879 121.659 43.8208 122.185 44.099C122.71 44.3773 123.267 44.5164 123.854 44.5164ZM131.729 46.4873V34.1981H134.094V36.2849C134.264 35.8521 134.496 35.4657 134.79 35.1256C135.099 34.77 135.47 34.4841 135.903 34.2676C136.351 34.0512 136.853 33.943 137.41 33.943C137.796 33.943 138.082 33.9585 138.268 33.9894C138.469 34.0203 138.608 34.0512 138.685 34.0822V36.4009C138.422 36.3236 138.183 36.2695 137.966 36.2386C137.75 36.1922 137.487 36.169 137.178 36.169C136.513 36.169 135.964 36.3236 135.532 36.6327C135.099 36.9264 134.782 37.3129 134.581 37.7921C134.38 38.2558 134.28 38.7582 134.28 39.2993V46.4873H131.729ZM145.175 46.7424C144.093 46.7424 143.096 46.5182 142.184 46.0699C141.272 45.6062 140.537 44.9106 139.981 43.9831C139.424 43.0556 139.146 41.8808 139.146 40.4586V39.9949C139.146 38.6346 139.409 37.5061 139.934 36.6096C140.476 35.713 141.187 35.0483 142.068 34.6155C142.949 34.1672 143.907 33.943 144.943 33.943C146.813 33.943 148.243 34.4454 149.233 35.4502C150.237 36.455 150.74 37.8926 150.74 39.763V41.0615H141.743C141.774 41.8962 141.952 42.5687 142.276 43.0788C142.601 43.5889 143.018 43.9599 143.529 44.1918C144.039 44.4082 144.587 44.5164 145.175 44.5164C146.056 44.5164 146.697 44.3773 147.099 44.099C147.517 43.8208 147.803 43.4575 147.957 43.0092H150.508C150.261 44.2304 149.65 45.1579 148.676 45.7917C147.718 46.4255 146.551 46.7424 145.175 46.7424ZM145.059 36.169C144.487 36.169 143.954 36.2695 143.459 36.4704C142.964 36.6714 142.562 36.9883 142.253 37.4211C141.944 37.8539 141.774 38.4336 141.743 39.1601H148.189C148.174 38.3872 148.027 37.7844 147.749 37.3515C147.47 36.9187 147.099 36.6173 146.636 36.4472C146.172 36.2617 145.646 36.169 145.059 36.169Z" fill="#3A3A3A"></path></svg> 