<?xml version="1.0" encoding="UTF-8"?> <svg xmlns="http://www.w3.org/2000/svg" width="207" height="76" viewBox="0 0 207 76" fill="none"><rect width="206.378" height="75.0466" rx="18.7617" fill="#F0F1F5"></rect><path d="M74.798 46.7424C73.314 46.7424 72.0233 46.4332 70.9258 45.8149C69.8282 45.1966 68.978 44.2768 68.3752 43.0556C67.7878 41.8189 67.494 40.2963 67.494 38.4877V38.024C67.494 36.741 67.6641 35.6048 68.0042 34.6155C68.3597 33.6261 68.8544 32.7914 69.4881 32.1112C70.1374 31.4156 70.9103 30.89 71.8069 30.5345C72.7034 30.179 73.7005 30.0012 74.798 30.0012C75.6328 30.0012 76.4057 30.1171 77.1167 30.349C77.8433 30.5654 78.4848 30.89 79.0413 31.3229C79.5978 31.7402 80.0615 32.2735 80.4325 32.9228C80.819 33.5566 81.1049 34.2908 81.2904 35.1256H78.2761C78.0597 34.4454 77.766 33.9121 77.395 33.5257C77.024 33.1392 76.6143 32.8687 76.1661 32.7141C75.7178 32.5441 75.2618 32.459 74.798 32.459C73.9324 32.459 73.1672 32.66 72.5025 33.0619C71.8378 33.4638 71.3199 34.0744 70.9489 34.8937C70.5934 35.713 70.4156 36.7564 70.4156 38.024V38.4877C70.4156 39.477 70.5238 40.335 70.7403 41.0615C70.9567 41.788 71.2581 42.3909 71.6446 42.8701C72.0465 43.3493 72.5102 43.7048 73.0358 43.9367C73.5768 44.1686 74.1642 44.2845 74.798 44.2845C75.6018 44.2845 76.2975 44.1454 76.8849 43.8672C77.4723 43.5889 77.9437 43.1561 78.2993 42.5687C78.6548 41.9813 78.8712 41.2393 78.9485 40.3427H75.2618V38.024H81.6382V38.9515C81.6382 40.2499 81.4759 41.3861 81.1513 42.36C80.8421 43.3338 80.3939 44.1454 79.8065 44.7946C79.219 45.4439 78.5002 45.9308 77.65 46.2554C76.8153 46.5801 75.8646 46.7424 74.798 46.7424ZM89.0545 46.7424C87.9261 46.7424 86.9058 46.5105 85.9938 46.0467C85.0818 45.5675 84.3552 44.8642 83.8142 43.9367C83.2886 42.9938 83.0258 41.8344 83.0258 40.4586V39.9949C83.0258 38.6964 83.2886 37.5989 83.8142 36.7023C84.3552 35.7903 85.0818 35.1024 85.9938 34.6386C86.9058 34.1749 87.9261 33.943 89.0545 33.943C90.1984 33.943 91.2187 34.1749 92.1152 34.6386C93.0273 35.1024 93.7461 35.7903 94.2716 36.7023C94.8127 37.5989 95.0832 38.6964 95.0832 39.9949V40.4586C95.0832 41.8344 94.8127 42.9938 94.2716 43.9367C93.7461 44.8642 93.0273 45.5675 92.1152 46.0467C91.2187 46.5105 90.1984 46.7424 89.0545 46.7424ZM89.0545 44.5164C89.6419 44.5164 90.1984 44.3773 90.724 44.099C91.2496 43.8208 91.6747 43.3879 91.9993 42.8005C92.3239 42.1977 92.4862 41.417 92.4862 40.4586V39.9949C92.4862 39.1138 92.3239 38.395 91.9993 37.8385C91.6747 37.2665 91.2496 36.8492 90.724 36.5864C90.1984 36.3081 89.6419 36.169 89.0545 36.169C88.4671 36.169 87.9106 36.3081 87.385 36.5864C86.8595 36.8492 86.4344 37.2665 86.1097 37.8385C85.7851 38.395 85.6228 39.1138 85.6228 39.9949V40.4586C85.6228 41.417 85.7851 42.1977 86.1097 42.8005C86.4344 43.3879 86.8595 43.8208 87.385 44.099C87.9106 44.3773 88.4671 44.5164 89.0545 44.5164ZM102.262 46.7424C101.134 46.7424 100.113 46.5105 99.2015 46.0467C98.2894 45.5675 97.5629 44.8642 97.0219 43.9367C96.4963 42.9938 96.2335 41.8344 96.2335 40.4586V39.9949C96.2335 38.6964 96.4963 37.5989 97.0219 36.7023C97.5629 35.7903 98.2894 35.1024 99.2015 34.6386C100.113 34.1749 101.134 33.943 102.262 33.943C103.406 33.943 104.426 34.1749 105.323 34.6386C106.235 35.1024 106.954 35.7903 107.479 36.7023C108.02 37.5989 108.291 38.6964 108.291 39.9949V40.4586C108.291 41.8344 108.02 42.9938 107.479 43.9367C106.954 44.8642 106.235 45.5675 105.323 46.0467C104.426 46.5105 103.406 46.7424 102.262 46.7424ZM102.262 44.5164C102.85 44.5164 103.406 44.3773 103.932 44.099C104.457 43.8208 104.882 43.3879 105.207 42.8005C105.532 42.1977 105.694 41.417 105.694 40.4586V39.9949C105.694 39.1138 105.532 38.395 105.207 37.8385C104.882 37.2665 104.457 36.8492 103.932 36.5864C103.406 36.3081 102.85 36.169 102.262 36.169C101.675 36.169 101.118 36.3081 100.593 36.5864C100.067 36.8492 99.642 37.2665 99.3174 37.8385C98.9928 38.395 98.8305 39.1138 98.8305 39.9949V40.4586C98.8305 41.417 98.9928 42.1977 99.3174 42.8005C99.642 43.3879 100.067 43.8208 100.593 44.099C101.118 44.3773 101.675 44.5164 102.262 44.5164ZM115.238 51.3798C113.97 51.3798 112.958 51.2252 112.2 50.9161C111.458 50.6069 110.91 50.1741 110.554 49.6176C110.214 49.0765 109.998 48.4582 109.905 47.7626H112.502C112.626 48.1336 112.873 48.4737 113.244 48.7828C113.63 49.092 114.295 49.2466 115.238 49.2466C116.397 49.2466 117.248 48.9683 117.789 48.4118C118.33 47.8553 118.6 47.0593 118.6 46.0236V44.2845C118.214 44.9338 117.688 45.4671 117.023 45.8844C116.359 46.3018 115.563 46.5105 114.635 46.5105C113.599 46.5105 112.687 46.2786 111.899 45.8149C111.126 45.3511 110.523 44.6632 110.09 43.7512C109.658 42.8392 109.441 41.703 109.441 40.3427V39.879C109.441 38.6114 109.658 37.537 110.09 36.6559C110.523 35.7748 111.126 35.1024 111.899 34.6386C112.687 34.1749 113.592 33.943 114.612 33.943C115.632 33.943 116.506 34.1749 117.232 34.6386C117.974 35.1024 118.492 35.6434 118.786 36.2617V34.1981H121.151V45.9076C121.151 47.6389 120.656 48.9838 119.667 49.9422C118.677 50.9006 117.201 51.3798 115.238 51.3798ZM115.215 44.2845C115.818 44.2845 116.374 44.1609 116.884 43.9135C117.394 43.6507 117.804 43.272 118.113 42.7774C118.438 42.2672 118.6 41.6412 118.6 40.8992V39.2761C118.6 38.6114 118.438 38.0549 118.113 37.6066C117.804 37.1429 117.387 36.7873 116.861 36.54C116.351 36.2927 115.802 36.169 115.215 36.169C114.241 36.169 113.468 36.4782 112.896 37.0965C112.324 37.6994 112.038 38.6268 112.038 39.879V40.3427C112.038 41.6566 112.332 42.646 112.919 43.3107C113.507 43.9599 114.272 44.2845 115.215 44.2845ZM127.649 46.6032C126.767 46.6032 126.041 46.4796 125.469 46.2322C124.912 45.9695 124.495 45.5444 124.217 44.9569C123.954 44.3541 123.823 43.558 123.823 42.5687V30.2563H126.373V42.3832C126.373 43.1406 126.497 43.6662 126.744 43.9599C126.992 44.2381 127.448 44.3773 128.112 44.3773C128.282 44.3773 128.429 44.3773 128.553 44.3773C128.676 44.3618 128.8 44.3464 128.924 44.3309V46.5337C128.847 46.5491 128.723 46.5646 128.553 46.5801C128.398 46.5955 128.236 46.6032 128.066 46.6032C127.911 46.6032 127.772 46.6032 127.649 46.6032ZM135.658 46.7424C134.576 46.7424 133.579 46.5182 132.667 46.0699C131.755 45.6062 131.021 44.9106 130.464 43.9831C129.908 43.0556 129.629 41.8808 129.629 40.4586V39.9949C129.629 38.6346 129.892 37.5061 130.418 36.6096C130.959 35.713 131.67 35.0483 132.551 34.6155C133.432 34.1672 134.391 33.943 135.426 33.943C137.297 33.943 138.727 34.4454 139.716 35.4502C140.721 36.455 141.223 37.8926 141.223 39.763V41.0615H132.226C132.257 41.8962 132.435 42.5687 132.76 43.0788C133.084 43.5889 133.502 43.9599 134.012 44.1918C134.522 44.4082 135.071 44.5164 135.658 44.5164C136.539 44.5164 137.181 44.3773 137.583 44.099C138 43.8208 138.286 43.4575 138.441 43.0092H140.991C140.744 44.2304 140.133 45.1579 139.159 45.7917C138.201 46.4255 137.034 46.7424 135.658 46.7424ZM135.542 36.169C134.97 36.169 134.437 36.2695 133.942 36.4704C133.448 36.6714 133.046 36.9883 132.736 37.4211C132.427 37.8539 132.257 38.4336 132.226 39.1601H138.672C138.657 38.3872 138.51 37.7844 138.232 37.3515C137.954 36.9187 137.583 36.6173 137.119 36.4472C136.655 36.2617 136.13 36.169 135.542 36.169ZM148.645 46.4873V30.2563H154.557C156.011 30.2563 157.209 30.4727 158.151 30.9055C159.094 31.3229 159.79 31.918 160.238 32.6909C160.702 33.4638 160.934 34.3759 160.934 35.427C160.934 36.4782 160.702 37.3902 160.238 38.1631C159.79 38.936 159.094 39.5389 158.151 39.9717C157.209 40.3891 156.011 40.5978 154.557 40.5978H151.427V46.4873H148.645ZM151.427 38.1863H154.326C155.794 38.1863 156.799 37.9621 157.34 37.5139C157.881 37.0501 158.151 36.3545 158.151 35.427C158.151 34.515 157.881 33.8271 157.34 33.3633C156.799 32.8996 155.794 32.6677 154.326 32.6677H151.427V38.1863ZM166.734 46.6032C165.853 46.6032 165.127 46.4796 164.555 46.2322C163.998 45.9695 163.581 45.5444 163.303 44.9569C163.04 44.3541 162.908 43.558 162.908 42.5687V30.2563H165.459V42.3832C165.459 43.1406 165.583 43.6662 165.83 43.9599C166.077 44.2381 166.533 44.3773 167.198 44.3773C167.368 44.3773 167.515 44.3773 167.639 44.3773C167.762 44.3618 167.886 44.3464 168.01 44.3309V46.5337C167.932 46.5491 167.809 46.5646 167.639 46.5801C167.484 46.5955 167.322 46.6032 167.152 46.6032C166.997 46.6032 166.858 46.6032 166.734 46.6032ZM173.231 46.7424C172.35 46.7424 171.593 46.5801 170.959 46.2554C170.341 45.9154 169.869 45.4516 169.545 44.8642C169.22 44.2768 169.058 43.6198 169.058 42.8933C169.058 41.6721 169.421 40.7678 170.147 40.1804C170.874 39.5775 171.941 39.2761 173.347 39.2761H177.173V38.6037C177.173 37.6762 176.964 37.0424 176.547 36.7023C176.145 36.3468 175.504 36.169 174.623 36.169C173.834 36.169 173.254 36.2927 172.884 36.54C172.513 36.7873 172.296 37.1274 172.234 37.5602H169.753C169.8 36.8492 170.024 36.2231 170.426 35.6821C170.828 35.141 171.392 34.7159 172.118 34.4068C172.86 34.0976 173.734 33.943 174.738 33.943C175.743 33.943 176.617 34.0976 177.359 34.4068C178.116 34.7159 178.696 35.2029 179.098 35.8676C179.515 36.5168 179.724 37.3825 179.724 38.4645V43.357C179.724 44.0063 179.731 44.5782 179.747 45.0729C179.762 45.5521 179.801 46.0236 179.863 46.4873H177.544C177.498 46.1318 177.459 45.8303 177.428 45.583C177.413 45.3357 177.405 45.0265 177.405 44.6555C177.111 45.2275 176.601 45.7221 175.875 46.1395C175.164 46.5414 174.282 46.7424 173.231 46.7424ZM173.927 44.5164C174.514 44.5164 175.048 44.4159 175.527 44.215C176.022 44.014 176.416 43.7126 176.709 43.3107C177.019 42.9087 177.173 42.4218 177.173 41.8499V41.1774H173.811C173.162 41.1774 172.636 41.3166 172.234 41.5948C171.848 41.8731 171.655 42.2827 171.655 42.8237C171.655 43.3338 171.832 43.7435 172.188 44.0526C172.559 44.3618 173.139 44.5164 173.927 44.5164ZM183.797 51.3798C183.565 51.3798 183.333 51.3566 183.101 51.3102V49.0843C183.333 49.1306 183.565 49.1538 183.797 49.1538C184.137 49.1538 184.415 49.0688 184.632 48.8988C184.848 48.7442 185.049 48.4737 185.234 48.0872C185.42 47.7008 185.636 47.1675 185.884 46.4873L180.667 34.1981H183.449L187.205 43.7048L190.591 34.1981H193.188L188.434 46.4873C187.986 47.6312 187.561 48.5664 187.159 49.293C186.757 50.0195 186.301 50.5451 185.791 50.8697C185.281 51.2098 184.616 51.3798 183.797 51.3798Z" fill="#3A3A3A"></path><path fill-rule="evenodd" clip-rule="evenodd" d="M24.2848 55.1812C24.4221 55.1271 24.5662 55.0589 24.7148 54.9743L44.4449 43.687L39.7673 38.8055L24.2848 55.1812ZM45.3184 43.1881L40.4382 38.095L45.3139 32.9383L52.0264 36.7658C53.681 37.7092 52.8346 38.8878 52.0264 39.3489L45.3184 43.1881ZM44.4427 32.442L24.7148 21.1946C24.5032 21.0746 24.2646 21.0017 24.026 20.9688L39.7629 37.3916L44.4427 32.442ZM22.8689 21.1711L39.0921 38.0997L22.9477 55.1765C22.4773 54.8636 22.2229 54.1862 22.2206 53.311C22.2116 51.6337 22.0833 25.001 22.0743 23.0013C22.0676 22.0438 22.403 21.4581 22.8689 21.1711Z" fill="#3A3A3A"></path></svg> 