<?xml version="1.0" encoding="UTF-8"?> <svg xmlns="http://www.w3.org/2000/svg" width="207" height="76" viewBox="0 0 207 76" fill="none"><rect width="206.378" height="75.0466" rx="18.7617" fill="#F0F1F5"></rect><path d="M66.5664 46.4873L72.7081 30.264H75.4892L81.6309 46.4873H78.6644L77.297 42.8255H70.7149L69.3475 46.4873H66.5664ZM71.6188 40.4151H76.3931L74.0291 33.7404L71.6188 40.4151ZM82.6666 51.1225V34.2039H85.0306V36.2666C85.4014 35.5559 85.9499 34.9919 86.6761 34.5748C87.4177 34.1576 88.252 33.949 89.1791 33.949C90.786 33.949 92.0529 34.4511 92.98 35.4554C93.907 36.4597 94.3706 37.9739 94.3706 39.998V40.4615C94.3706 41.8521 94.1542 43.0186 93.7216 43.9611C93.289 44.8881 92.6864 45.5834 91.9139 46.047C91.1413 46.5105 90.2297 46.7422 89.1791 46.7422C88.2984 46.7422 87.495 46.5491 86.7688 46.1628C86.0426 45.7766 85.525 45.2358 85.216 44.5405V51.1225H82.6666ZM88.5765 44.5173C89.5345 44.5173 90.307 44.1851 90.8941 43.5208C91.4813 42.8564 91.7748 41.8366 91.7748 40.4615V39.998C91.7748 38.7001 91.489 37.7422 90.9173 37.1241C90.3456 36.4907 89.5654 36.1739 88.5765 36.1739C88.0048 36.1739 87.4563 36.2975 86.931 36.5447C86.4211 36.7919 86.004 37.155 85.6795 37.634C85.3705 38.113 85.216 38.7078 85.216 39.4186V41.0409C85.216 41.8134 85.3705 42.4624 85.6795 42.9877C86.004 43.4976 86.4211 43.8838 86.931 44.1465C87.4409 44.3937 87.9894 44.5173 88.5765 44.5173ZM95.9983 51.1225V34.2039H98.3623V36.2666C98.7331 35.5559 99.2816 34.9919 100.008 34.5748C100.749 34.1576 101.584 33.949 102.511 33.949C104.118 33.949 105.385 34.4511 106.312 35.4554C107.239 36.4597 107.702 37.9739 107.702 39.998V40.4615C107.702 41.8521 107.486 43.0186 107.053 43.9611C106.621 44.8881 106.018 45.5834 105.246 46.047C104.473 46.5105 103.561 46.7422 102.511 46.7422C101.63 46.7422 100.827 46.5491 100.1 46.1628C99.3743 45.7766 98.8567 45.2358 98.5477 44.5405V51.1225H95.9983ZM101.908 44.5173C102.866 44.5173 103.639 44.1851 104.226 43.5208C104.813 42.8564 105.107 41.8366 105.107 40.4615V39.998C105.107 38.7001 104.821 37.7422 104.249 37.1241C103.677 36.4907 102.897 36.1739 101.908 36.1739C101.337 36.1739 100.788 36.2975 100.263 36.5447C99.7529 36.7919 99.3357 37.155 99.0112 37.634C98.7022 38.113 98.5477 38.7078 98.5477 39.4186V41.0409C98.5477 41.8134 98.7022 42.4624 99.0112 42.9877C99.3357 43.4976 99.7529 43.8838 100.263 44.1465C100.773 44.3937 101.321 44.5173 101.908 44.5173ZM116.283 46.7422C114.8 46.7422 113.509 46.4332 112.412 45.8152C111.315 45.1972 110.466 44.2778 109.863 43.0572C109.276 41.8212 108.982 40.2993 108.982 38.4915V38.028C108.982 36.7456 109.152 35.61 109.492 34.6211C109.848 33.6323 110.342 32.7979 110.976 32.1181C111.624 31.4228 112.397 30.8975 113.293 30.5421C114.189 30.1867 115.186 30.009 116.283 30.009C117.117 30.009 117.89 30.1249 118.601 30.3567C119.327 30.573 119.968 30.8975 120.524 31.3301C121.08 31.7473 121.544 32.2803 121.915 32.9292C122.301 33.5627 122.587 34.2966 122.772 35.131H119.759C119.543 34.4511 119.249 33.9181 118.879 33.5318C118.508 33.1456 118.098 32.8752 117.65 32.7207C117.202 32.5507 116.746 32.4657 116.283 32.4657C115.418 32.4657 114.653 32.6666 113.988 33.0683C113.324 33.47 112.806 34.0803 112.436 34.8992C112.08 35.7181 111.903 36.761 111.903 38.028V38.4915C111.903 39.4804 112.011 40.3379 112.227 41.0641C112.443 41.7903 112.745 42.3928 113.131 42.8718C113.533 43.3508 113.996 43.7062 114.522 43.9379C115.062 44.1697 115.649 44.2856 116.283 44.2856C117.086 44.2856 117.782 44.1465 118.369 43.8684C118.956 43.5903 119.427 43.1577 119.782 42.5705C120.138 41.9834 120.354 41.2418 120.431 40.3456H116.746V38.028H123.12V38.9551C123.12 40.2529 122.958 41.3885 122.633 42.3619C122.324 43.3353 121.876 44.1465 121.289 44.7954C120.702 45.4444 119.983 45.9311 119.134 46.2555C118.299 46.58 117.349 46.7422 116.283 46.7422ZM128.563 46.7422C127.682 46.7422 126.925 46.58 126.291 46.2555C125.673 45.9156 125.202 45.4521 124.878 44.865C124.553 44.2778 124.391 43.6212 124.391 42.895C124.391 41.6744 124.754 40.7705 125.48 40.1834C126.206 39.5808 127.272 39.2795 128.679 39.2795H132.503V38.6074C132.503 37.6804 132.294 37.0469 131.877 36.707C131.475 36.3516 130.834 36.1739 129.953 36.1739C129.165 36.1739 128.586 36.2975 128.215 36.5447C127.844 36.7919 127.628 37.1319 127.566 37.5645H125.086C125.133 36.8537 125.357 36.228 125.758 35.6872C126.16 35.1464 126.724 34.7215 127.45 34.4125C128.192 34.1035 129.065 33.949 130.069 33.949C131.073 33.949 131.946 34.1035 132.688 34.4125C133.445 34.7215 134.024 35.2082 134.426 35.8726C134.843 36.5216 135.052 37.3868 135.052 38.4684V43.3585C135.052 44.0075 135.06 44.5791 135.075 45.0736C135.091 45.5525 135.129 46.0238 135.191 46.4873H132.873C132.827 46.1319 132.788 45.8306 132.758 45.5834C132.742 45.3362 132.734 45.0272 132.734 44.6564C132.441 45.2281 131.931 45.7225 131.205 46.1397C130.494 46.5414 129.613 46.7422 128.563 46.7422ZM129.258 44.5173C129.845 44.5173 130.378 44.4169 130.857 44.216C131.352 44.0152 131.745 43.7139 132.039 43.3122C132.348 42.9104 132.503 42.4238 132.503 41.8521V41.18H129.142C128.493 41.18 127.968 41.319 127.566 41.5971C127.18 41.8752 126.987 42.2847 126.987 42.8255C126.987 43.3353 127.164 43.7448 127.52 44.0538C127.891 44.3628 128.47 44.5173 129.258 44.5173ZM141.201 46.6032C140.32 46.6032 139.594 46.4796 139.022 46.2324C138.466 45.9697 138.049 45.5448 137.771 44.9577C137.508 44.3551 137.377 43.5594 137.377 42.5705V30.264H139.926V42.3851C139.926 43.1422 140.05 43.6675 140.297 43.9611C140.544 44.2392 141 44.3783 141.664 44.3783C141.834 44.3783 141.981 44.3783 142.105 44.3783C142.228 44.3628 142.352 44.3474 142.476 44.3319V46.5337C142.398 46.5491 142.275 46.5646 142.105 46.58C141.95 46.5955 141.788 46.6032 141.618 46.6032C141.464 46.6032 141.324 46.6032 141.201 46.6032ZM147.811 46.6032C146.93 46.6032 146.204 46.4796 145.632 46.2324C145.076 45.9697 144.659 45.5448 144.381 44.9577C144.118 44.3551 143.987 43.5594 143.987 42.5705V30.264H146.536V42.3851C146.536 43.1422 146.66 43.6675 146.907 43.9611C147.154 44.2392 147.61 44.3783 148.274 44.3783C148.444 44.3783 148.591 44.3783 148.714 44.3783C148.838 44.3628 148.962 44.3474 149.085 44.3319V46.5337C149.008 46.5491 148.884 46.5646 148.714 46.58C148.56 46.5955 148.398 46.6032 148.228 46.6032C148.073 46.6032 147.934 46.6032 147.811 46.6032ZM155.585 46.7422C154.503 46.7422 153.506 46.5182 152.595 46.0701C151.683 45.6066 150.949 44.9113 150.393 43.9843C149.837 43.0572 149.559 41.883 149.559 40.4615V39.998C149.559 38.6383 149.821 37.5104 150.347 36.6143C150.888 35.7181 151.598 35.0537 152.479 34.6211C153.36 34.173 154.318 33.949 155.353 33.949C157.222 33.949 158.652 34.4511 159.64 35.4554C160.645 36.4597 161.147 37.8967 161.147 39.7662V41.0641H152.155C152.185 41.8984 152.363 42.5705 152.688 43.0804C153.012 43.5903 153.429 43.9611 153.939 44.1929C154.449 44.4092 154.997 44.5173 155.585 44.5173C156.465 44.5173 157.107 44.3783 157.508 44.1002C157.925 43.822 158.211 43.459 158.366 43.0109H160.915C160.668 44.2315 160.058 45.1585 159.084 45.792C158.126 46.4255 156.96 46.7422 155.585 46.7422ZM155.469 36.1739C154.897 36.1739 154.364 36.2743 153.87 36.4752C153.375 36.6761 152.973 36.9928 152.664 37.4254C152.355 37.858 152.185 38.4374 152.155 39.1636H158.598C158.582 38.3911 158.435 37.7885 158.157 37.3559C157.879 36.9233 157.508 36.622 157.045 36.452C156.581 36.2666 156.056 36.1739 155.469 36.1739ZM162.771 46.4873V34.2039H165.135V36.2898C165.305 35.8572 165.537 35.4709 165.83 35.131C166.139 34.7756 166.51 34.4898 166.943 34.2735C167.391 34.0572 167.893 33.949 168.449 33.949C168.835 33.949 169.121 33.9644 169.307 33.9954C169.508 34.0263 169.647 34.0572 169.724 34.0881V36.4057C169.461 36.3284 169.222 36.2743 169.005 36.2434C168.789 36.1971 168.526 36.1739 168.217 36.1739C167.553 36.1739 167.005 36.3284 166.572 36.6374C166.139 36.931 165.823 37.3173 165.622 37.7962C165.421 38.2598 165.32 38.7619 165.32 39.3027V46.4873H162.771ZM173.32 51.3775C173.088 51.3775 172.856 51.3543 172.625 51.3079V49.083C172.856 49.1294 173.088 49.1526 173.32 49.1526C173.66 49.1526 173.938 49.0676 174.154 48.8976C174.37 48.7431 174.571 48.4727 174.757 48.0865C174.942 47.7002 175.158 47.1671 175.406 46.4873L170.191 34.2039H172.972L176.727 43.7062L180.11 34.2039H182.706L177.955 46.4873C177.507 47.6307 177.082 48.5654 176.68 49.2916C176.279 50.0178 175.823 50.5431 175.313 50.8676C174.803 51.2075 174.139 51.3775 173.32 51.3775Z" fill="#3A3A3A"></path><g clip-path="url(#clip0_859_16302)"><path fill-rule="evenodd" clip-rule="evenodd" d="M29.7763 19.8652C22.5209 19.8652 19.8672 22.5185 19.8672 29.7724V45.2741C19.8672 52.528 22.5209 55.1813 29.7763 55.1813H45.2694C52.5246 55.1813 55.1833 52.528 55.1833 45.2741V29.7724C55.1833 22.5185 52.5295 19.8652 45.2742 19.8652H29.7763Z" fill="#3A3A3A"></path><path fill-rule="evenodd" clip-rule="evenodd" d="M35.2698 40.348H36.6876L35.9763 38.6937L35.2698 40.348ZM34.9206 41.1816L34.5 42.1442H33.5423L35.5789 37.5237H36.4066L38.4349 42.1442H37.4517L37.0364 41.1816H34.9206ZM50.3315 42.1408H51.2571V37.5234H50.3315V42.1408ZM46.6475 40.1572H48.3537V39.3154H46.6475V38.369H49.1243V37.5268H45.7221V42.1439H49.2134V41.3017H46.6475V40.1572ZM42.9697 40.7028L41.9203 37.5234H41.1545L40.1051 40.7028L39.0838 37.526H38.0852L39.6969 42.1467H40.4732L41.5243 39.1116L42.5754 42.1467H43.3585L44.966 37.526H43.9932L42.9697 40.7028ZM32.1293 40.17C32.1293 40.9216 31.756 41.3233 31.0782 41.3233C30.3967 41.3233 30.0215 40.91 30.0215 40.1379V37.5266H29.0834V40.17C29.0834 41.4703 29.806 42.216 31.0655 42.216C32.3374 42.216 33.0666 41.4561 33.0666 40.1314V37.5237H32.1293V40.17ZM26.8452 37.5237H27.7828V42.147H26.8452V40.2694H24.7272V42.147H23.7891V37.5237H24.7272V39.3886H26.8452V37.5237Z" fill="white"></path><path fill-rule="evenodd" clip-rule="evenodd" d="M37.5266 31.637C34.2808 31.637 31.6406 28.9966 31.6406 25.751H32.472C32.472 28.5379 34.7398 30.8053 37.5266 30.8053C40.3135 30.8053 42.5812 28.5379 42.5812 25.751H43.4126C43.4126 28.9966 40.7722 31.637 37.5266 31.637Z" fill="white"></path></g><defs><clipPath id="clip0_859_16302"><rect width="35.3161" height="35.3161" fill="white" transform="translate(19.8672 19.8652)"></rect></clipPath></defs></svg> 