<?xml version="1.0" encoding="UTF-8"?> <svg xmlns="http://www.w3.org/2000/svg" width="701" height="662" viewBox="0 0 701 662" fill="none"><path d="M409.227 652.209C411.952 661.187 422.615 664.879 430.276 659.496L520.993 595.751C524.783 593.088 526.986 588.689 526.854 584.047L517.462 254.129C517.344 249.987 519.086 246.011 522.206 243.299L676.88 108.829C702.698 90.4196 708.732 54.6413 690.39 28.7289C672.047 2.81641 636.399 -3.23995 610.581 15.1699L433.664 117.148C430.091 119.207 425.788 119.551 421.936 118.085L113.976 0.896824C109.719 -0.72311 104.94 -0.12415 101.21 2.49651L10.643 66.1358C2.90784 71.5712 2.80341 83.0332 10.4383 88.6096L222.575 243.551C230.148 249.082 230.12 260.426 222.519 265.919L121.541 338.897C118.606 341.018 114.958 341.893 111.385 341.335L43.1064 330.664C39.5636 330.11 35.9453 330.966 33.0224 333.051L5.78913 352.47C-1.66133 357.783 -1.97405 368.775 5.16237 374.506L96.3079 447.695C98.3137 449.306 99.8302 451.448 100.685 453.88L139.548 564.35C142.591 573 153.036 576.321 160.487 571.009L187.684 551.615C190.628 549.516 192.632 546.338 193.262 542.769L205.242 474.91C205.867 471.371 207.842 468.216 210.749 466.115L311.599 393.229C319.25 387.7 330.049 391.359 332.796 400.41L409.227 652.209Z" fill="#D44333"></path></svg> 