<?xml version="1.0" encoding="UTF-8"?> <svg xmlns="http://www.w3.org/2000/svg" viewBox="0 0 65.2607421875 66.6484375" fill="none"><path d="M65.12125357824426 33.253337186158156C65.12125357824426 51.61875620229007 50.543448477009775 66.50692345911855 32.56062678912213 66.50692345911855C14.57790473595539 66.50692345911855 0 51.61875620229007 0 33.253337186158156C0 14.888067622107586 14.57790473595539 0 32.56062678912213 0C50.543448477009775 0 65.12125357824426 14.888067622107586 65.12125357824426 33.253337186158156Z" fill="white"></path><path d="M33.30215819939766 31.10720529803793C31.866421871272664 31.314196430701333 30.612767995586832 32.688657405474714 30.600562742276953 32.70111174558683C30.582628492515504 32.72004234255726 30.56220337473163 32.736731158307485 30.54003464933206 32.75043093243082C28.589684987774334 34.041447828453 27.490215842676527 33.05929856721136 27.444882044668415 33.00051408188215C26.19695716543416 31.854714791567268 27.341760108540075 29.9335082858719 27.390332034977334 29.85305324874761C27.901458153178673 28.986729350548664 28.520438856750953 28.191395190988786 29.23158167715291 27.48722680104962H23.934701010108537L21.636028364295086 35.22137201067509C21.6607128663973 35.23532087160066 21.683180495959565 35.253006034559874 21.70265908389492 35.27392932594823C25.270354261092557 39.388345125387644 30.006988892533396 43.039210385854005 31.87563808295563 44.416660402254294C32.070174875506915 44.56337252877505 32.311789073682014 44.62938053136927 32.5521578378459 44.60098463591364C32.79252660200978 44.57283782726025 33.013217508796515 44.45252890177719 33.16989310740696 44.2644683660842C33.32631961921517 44.07640783039122 33.40727282994394 43.834793632216126 33.395814837040795 43.58844678479842C33.384356844137635 43.34209993738072 33.281483994811545 43.10920377728411 33.10811958045086 42.937333883736876L30.537045607705153 40.314948029729244C30.480502903596133 40.25691080480677 30.448868879711355 40.17869754890267 30.448868879711355 40.09699707776717C30.448868879711355 40.01554569343392 30.480502903596133 39.93733243752982 30.537045607705153 39.879295212607346C30.56519241635854 39.85040114354723 30.598570047859017 39.82748515774094 30.635434894590887 39.81179268919966C30.672548828125 39.796100220658396 30.711904542879292 39.7878803561844 30.752007518040315 39.7878803561844C30.791861406399093 39.7878803561844 30.83146620795563 39.796100220658396 30.868580141489744 39.81179268919966C30.90544498822161 39.82748515774094 30.93882261972209 39.85040114354723 30.966969428375478 39.879295212607346L33.547259612804154 42.510897278297946L34.15303871585758 43.144075929598046C34.37024240741293 43.36003418714217 34.66192305283874 43.480343112625235 34.96531077796994 43.47959585221851C35.2684494162989 43.47884859181178 35.55938280131798 43.357045145515265 35.775839232466595 43.140090540762166C35.992046576812974 42.92313593600906 36.11634089113192 42.62846624895634 36.12206988758349 42.31934952737357C36.127798884035066 42.00998371898855 36.014713475817025 41.71058138269323 35.80672599594466 41.48540691346613L33.44737580510496 38.97436286006083L32.99926864787094 38.50184519620706C32.97087275241531 38.47295112714694 32.94820585341126 38.43882623523974 32.933011558474476 38.401214128101145C32.91756817673544 38.363602020962546 32.90959739906369 38.32324995899928 32.90959739906369 38.28239972343154C32.90959739906369 38.241549487863786 32.91756817673544 38.201197425900524 32.933011558474476 38.163585318761925C32.94820585341126 38.125973211623325 32.97087275241531 38.09184831971612 32.99926864787094 38.063203337458255C33.02741545652433 38.03430926839813 33.06079308802481 38.0111441957896 33.09765793475668 37.99545172724832C33.13477186829079 37.97975925870706 33.174127583045085 37.971788481035304 33.214230558206104 37.971788481035304C33.25408444656488 37.971788481035304 33.293689248121424 37.97975925870706 33.33080318165553 37.99545172724832C33.367668028387406 38.0111441957896 33.40104565988788 38.03430926839813 33.42919246854127 38.063203337458255L36.87281750954199 41.70784142786856C37.039456580242124 41.876224106184395 37.25043310174141 41.991551295622614 37.48034022021112 42.039874135257634C37.709998251878574 42.088196974892654 37.94862340842676 42.06727368350429 38.16707253399332 41.98009330271947C38.38552165955987 41.892663835132396 38.57432945565959 41.74246449338025 38.71057993648616 41.54792770082896C38.84707950411498 41.353141821475425 38.925043673216834 41.12223835579676 38.93525623210878 40.88311502564408C38.940237968153625 40.71473234732824 38.910347551884534 40.547096929419126 38.847826764521706 40.39116859121541C38.78530597715888 40.23524025301169 38.69115116591126 40.09450620974475 38.57183858763717 39.978182673097564L36.50616173664122 37.939656283546036L35.06768545369155 36.515627035126435C35.035802343004534 36.488476573682014 35.00939914196684 36.45460076857705 34.99096671860091 36.41673957463621C34.97228520843272 36.37862929389313 34.96157447593631 36.337031797918655 34.959332694716124 36.29468704153745C34.957090913495946 36.252093198354004 34.963567170354246 36.209748441972806 34.97826329168654 36.16989455361403C34.992959413018845 36.13004066525525 35.015377225220654 36.09367399212786 35.04452038108302 36.063285402254294C35.07366353694537 36.03264772557848 35.108535689259305 36.00873539256321 35.14714414360687 35.99254475041746C35.18575259795443 35.97635410827171 35.22710100712667 35.96863241740219 35.268947589903384 35.969628764611166C35.310545085877855 35.970625111820134 35.35164440824786 35.98058858390982 35.38950560218869 35.998522833671274C35.42736679612953 36.01645708343273 35.46099351443225 36.04211302406369 35.48864214948115 36.07399613475071L39.57715292148736 40.11094593869275C39.684509333253814 40.22328408650405 39.81278903640864 40.312457161706824 39.95476851368678 40.372736167849474C40.09649890416269 40.433015173992125 40.24894002713502 40.46340376386569 40.40262658411856 40.46215832985448C40.556313141102095 40.46091289584327 40.708256090469945 40.427784351145036 40.848990133736876 40.36501447697996C40.98997326380606 40.30224460281489 41.11675844614742 40.21107883319418 41.22237125029819 40.09699707776717C41.327734967646705 39.98291532234017 41.40918635197996 39.84815936232705 41.46224184085758 39.70094906220181C41.51504824293297 39.55373876207657 41.538213315541505 39.39706316346612 41.530242537869746 39.24063665165792C41.522271760197995 39.08396105304747 41.483414219048186 38.930772669668414 41.4159116956405 38.79003862640148C41.34816008543058 38.64930458313454 41.25325801377624 38.52376483480439 41.13693447712905 38.421390159082776L33.30215819939766 31.10720529803793Z" fill="#D44333"></path><path fill-rule="evenodd" clip-rule="evenodd" d="M36.50616173664122 37.939656283546036L35.06768545369155 36.515627035126435C35.035802343004534 36.488476573682014 35.00939914196684 36.45460076857705 34.99096671860091 36.41673957463621C34.97228520843272 36.37862929389313 34.96157447593631 36.337031797918655 34.959332694716124 36.29468704153745C34.957090913495946 36.252093198354004 34.963567170354246 36.209748441972806 34.97826329168654 36.16989455361403C34.992959413018845 36.13004066525525 35.015377225220654 36.09367399212786 35.04452038108302 36.063285402254294C35.07366353694537 36.03264772557848 35.108535689259305 36.00873539256321 35.14714414360687 35.99254475041746C35.18575259795443 35.97635410827171 35.22710100712667 35.96863241740219 35.268947589903384 35.969628764611166C35.310545085877855 35.970625111820134 35.35164440824786 35.98058858390982 35.38950560218869 35.998522833671274C35.42736679612953 36.01645708343273 35.46099351443225 36.04211302406369 35.48864214948115 36.07399613475071L39.57715292148736 40.11094593869275C39.684509333253814 40.22328408650405 39.81278903640864 40.312457161706824 39.95476851368678 40.372736167849474C40.09649890416269 40.433015173992125 40.24894002713502 40.46340376386569 40.40262658411856 40.46215832985448C40.556313141102095 40.46091289584327 40.708256090469945 40.427784351145036 40.848990133736876 40.36501447697996C40.98997326380606 40.30224460281489 41.11675844614742 40.21107883319418 41.22237125029819 40.09699707776717C41.327734967646705 39.98291532234017 41.40918635197996 39.84815936232705 41.46224184085758 39.70094906220181C41.51504824293297 39.55373876207657 41.538213315541505 39.39706316346612 41.530242537869746 39.24063665165792C41.522271760197995 39.08396105304747 41.483414219048186 38.930772669668414 41.4159116956405 38.79003862640148C41.34816008543058 38.64930458313454 41.25325801377624 38.52376483480439 41.13693447712905 38.421390159082776L33.30215819939766 31.10720529803793C31.89730863475071 31.30971286826097 30.66657074487118 32.63012200694776 30.60305361029938 32.69837179076217C30.601559089485924 32.69986631157562 30.6008118290792 32.70086265878459 30.600562742276953 32.70111174558683C30.582628492515504 32.72004234255726 30.56220337473163 32.736731158307485 30.54003464933206 32.75043093243082C28.589684987774334 34.041447828453 27.490215842676527 33.05929856721136 27.444882044668415 33.00051408188215C26.19695716543416 31.854714791567268 27.341760108540075 29.9335082858719 27.390332034977334 29.85305324874761C27.837691931804628 29.09483302272185 28.36774864697638 28.390913719584923 28.970040534798425 27.75474602665792C29.0557263947698 27.6640784306417 29.142906775554625 27.57490535543893 29.23158167715291 27.48722680104962H23.934701010108537L21.636028364295086 35.22137201067509C21.6607128663973 35.23532087160066 21.683180495959565 35.253006034559874 21.70265908389492 35.27392932594823C25.270354261092557 39.388345125387644 30.006988892533396 43.039210385854005 31.87563808295563 44.416660402254294C32.070174875506915 44.56337252877505 32.311789073682014 44.62938053136927 32.5521578378459 44.60098463591364C32.79252660200978 44.57283782726025 33.013217508796515 44.45252890177719 33.16989310740696 44.2644683660842C33.32631961921517 44.07640783039122 33.40727282994394 43.834793632216126 33.395814837040795 43.58844678479842C33.384356844137635 43.34209993738072 33.281483994811545 43.10920377728411 33.10811958045086 42.937333883736876L30.537045607705153 40.314948029729244C30.480502903596133 40.25691080480677 30.448868879711355 40.17869754890267 30.448868879711355 40.09699707776717C30.448868879711355 40.01554569343392 30.480502903596133 39.93733243752982 30.537045607705153 39.879295212607346C30.56519241635854 39.85040114354723 30.598570047859017 39.82748515774094 30.635434894590887 39.81179268919966C30.672548828125 39.796100220658396 30.711904542879292 39.7878803561844 30.752007518040315 39.7878803561844C30.791861406399093 39.7878803561844 30.83146620795563 39.796100220658396 30.868580141489744 39.81179268919966C30.90544498822161 39.82748515774094 30.93882261972209 39.85040114354723 30.966969428375478 39.879295212607346L33.547259612804154 42.510897278297946L34.15303871585758 43.144075929598046C34.37024240741293 43.36003418714217 34.66192305283874 43.480343112625235 34.96531077796994 43.47959585221851C35.2684494162989 43.47884859181178 35.55938280131798 43.357045145515265 35.775839232466595 43.140090540762166C35.992046576812974 42.92313593600906 36.11634089113192 42.62846624895634 36.12206988758349 42.31934952737357C36.127798884035066 42.00998371898855 36.014713475817025 41.71058138269323 35.80672599594466 41.48540691346613L33.44737580510496 38.97436286006083L32.99926864787094 38.50184519620706C32.97087275241531 38.47295112714694 32.94820585341126 38.43882623523974 32.933011558474476 38.401214128101145C32.91756817673544 38.363602020962546 32.90959739906369 38.32324995899928 32.90959739906369 38.28239972343154C32.90959739906369 38.241549487863786 32.91756817673544 38.201197425900524 32.933011558474476 38.163585318761925C32.94820585341126 38.125973211623325 32.97087275241531 38.09184831971612 32.99926864787094 38.063203337458255C33.02741545652433 38.03430926839813 33.06079308802481 38.0111441957896 33.09765793475668 37.99545172724832C33.13477186829079 37.97975925870706 33.174127583045085 37.971788481035304 33.214230558206104 37.971788481035304C33.25408444656488 37.971788481035304 33.293689248121424 37.97975925870706 33.33080318165553 37.99545172724832C33.367668028387406 38.0111441957896 33.40104565988788 38.03430926839813 33.42919246854127 38.063203337458255L36.87281750954199 41.70784142786856C37.039456580242124 41.876224106184395 37.25043310174141 41.991551295622614 37.48034022021112 42.039874135257634C37.709998251878574 42.088196974892654 37.94862340842676 42.06727368350429 38.16707253399332 41.98009330271947C38.38552165955987 41.892663835132396 38.57432945565959 41.74246449338025 38.71057993648616 41.54792770082896C38.84707950411498 41.353141821475425 38.925043673216834 41.12223835579676 38.93525623210878 40.88311502564408C38.940237968153625 40.71473234732824 38.910347551884534 40.547096929419126 38.847826764521706 40.39116859121541C38.78530597715888 40.23524025301169 38.69115116591126 40.09450620974475 38.57183858763717 39.978182673097564L36.50616173664122 37.939656283546036ZM38.67346600295205 40.87340064035663C38.67720230498569 40.74312824278387 38.65403723237714 40.6133540188156 38.60571439274213 40.49279600653029C38.556893379502625 40.37173982064051 38.48391094644561 40.26214162765387 38.39100156920921 40.171723118439886L34.8915810845062 36.71365104290911C34.83578564080391 36.66433185606512 34.78995366919131 36.60405284992247 34.75682512449308 36.536550326514785C34.721952972179146 36.465560587875714 34.701776941197515 36.387845505576095 34.69779155236164 36.308635902463024C34.69380616352576 36.22917721254771 34.705762330033394 36.14996760943463 34.73316187828006 36.07549065556417C34.76056142652671 36.00126278849594 34.80290618290792 35.93351117828602 34.85695801899451 35.87647030057252C34.911258941883354 35.81967850966126 34.97627059726861 35.774842885257634 35.04825668311665 35.744952468988544C35.120242768964694 35.714812965917226 35.19745967765983 35.70036593138716 35.27517475995944 35.702358625805104C35.35288984225907 35.7041022334208 35.42935949054747 35.72228556998449 35.49960196877982 35.75591228828721C35.56660631858302 35.787546312172 35.62688532472567 35.832381936575615 35.676702685174135 35.887679206673425L39.76197532875119 39.9213908821863L39.76471528357585 39.92413083701097C39.847163015118085 40.01056395738907 39.9460504756083 40.07931191480797 40.0553995817927 40.12564206002505C40.164748687977095 40.17222129204437 40.28206857183325 40.19563545145515 40.40038480289837 40.19463910424618C40.51895012076574 40.19364275703721 40.63602091781965 40.16823590320849 40.74437367679508 40.11991306357348C40.852975522572756 40.07159022393845 40.95061754905176 40.001347745706106 41.03181984658278 39.91342010451455C41.113022144113785 39.825492463322995 41.17579201827886 39.72187235359017 41.216393167044366 39.60853785856989C41.25724340261211 39.49545245035186 41.275177652373564 39.374894438066555 41.26895048231751 39.25458551258349C41.26272331226145 39.13402750029819 41.23283289599237 39.01620944283754 41.18077375432371 38.907856683862114C41.12871461265505 38.799503924886686 41.05573217959804 38.70310733241889 40.96606093079079 38.62414681610806L40.96332097596613 38.62165594808564L33.21921229425095 31.392409686605436C32.6074551079437 31.510975004472805 32.02384473028984 31.853967531160542 31.57249944462667 32.19272558221016C31.12015781175453 32.53223089366651 30.8242426906906 32.84906930611879 30.788872364772182 32.88668141325739C30.788872364772182 32.886930500059634 30.788872364772182 32.88668141325739 30.788872364772182 32.88668141325739C30.756241993678433 32.92130447876908 30.719377146946563 32.95169306864265 30.679523258587786 32.976850835669126C29.657769195789598 33.65237424335043 28.8305519255427 33.749518096224946 28.23398903417223 33.64539981288764C27.938821173515027 33.59383884482347 27.707917707836355 33.494453210728764 27.545264025972088 33.40129474669012C27.464061728441077 33.354715514670794 27.39929915985806 33.30938171666269 27.351474493827528 33.272018696326334C27.320587730349477 33.24785727650883 27.28671192524451 33.21896320744871 27.260308724206823 33.19081639879532C26.545180514968987 32.52650189721493 26.530484393636687 31.644734617276956 26.675701999343985 30.969958470002386C26.820421431446803 30.297424103947996 27.133274455063212 29.769360083194176 27.16665208656369 29.714062813096373C27.58113252549499 29.011887117575142 28.064610008647424 28.355294306864266 28.609611931953722 27.75474602665792H24.12878944641579L21.934459262061665 35.137927931923905C25.47809265416269 39.21224075620229 30.1698916611999 42.82947929836593 32.028826466334685 44.19970579750119L32.02982281354365 44.20070214471016L32.03106824755486 44.20144940511689C32.172051377624044 44.308058556476624 32.34765757320491 44.35588322250716 32.522267421576814 44.335209017921045C32.696628183146466 44.314783900137165 32.85679099698831 44.227354432550094 32.970374578810834 44.09110395172352C33.083958160633344 43.95485347089694 33.14249355916031 43.779496362118316 33.13427369468631 43.601150211712785C33.12605383021231 43.422554974505005 33.05157687634184 43.253923209386926 32.925788041209444 43.1291307214635L32.924542607198234 43.12788528745229L30.35172502683683 40.5040049126312C30.246610396290553 40.39590124045801 30.18707865055463 40.2494382007395 30.18707865055463 40.09699707776717C30.18707865055463 39.94480504159709 30.246112222686065 39.798591088680816 30.351226853232344 39.69073650330987C30.351226853232344 39.69073650330987 30.351226853232344 39.69073650330987 30.351226853232344 39.69073650330987C30.40378416850549 39.63693375402552 30.466304955868317 39.59384173723759 30.53505291328721 39.56469858137524C30.603800870706106 39.53555542551288 30.677530564169846 39.5203611305761 30.752007518040315 39.5203611305761C30.82648447191078 39.5203611305761 30.90021416537452 39.53555542551288 30.968962122793414 39.56469858137524C31.037460993410065 39.59384173723759 31.099981780772897 39.63643558042104 31.152290009243796 39.69023832970539C31.152040922441554 39.69023832970539 31.152539096046038 39.69048741650763 31.152290009243796 39.69023832970539L33.733327454079195 42.32283674260496L34.33786112312142 42.9545208730916C34.50574562783277 43.12016359658278 34.73067101025763 43.21282388701694 34.964563517563214 43.212325713412454C35.19970145888001 43.21157845300572 35.424875928107106 43.11717455495587 35.592262259213975 42.94929005024451C35.75964859032084 42.781405545533154 35.855796095986406 42.553242034679144 35.86027965842677 42.31411870452648C35.86476322086713 42.07524446117605 35.777582840082296 41.844091908695134 35.61717093943822 41.66998023392772C35.616921852635976 41.669731147125475 35.616672765833734 41.66948206032323 35.616423679031485 41.66923297352099L33.25931526941198 39.160430701335876L33.258568009005245 39.15968344092915L32.81270263299141 38.6896566450978C32.760892578125 38.63660115622018 32.719544168952766 38.57358219525286 32.691397360299376 38.504336064229484C32.66250329123926 38.43409358599714 32.64780716990696 38.358620284917706 32.64780716990696 38.28239972343154C32.64780716990696 38.20617916194537 32.66250329123926 38.13095494766817 32.691397360299376 38.06071246943583C32.71979325575501 37.990719078005725 32.76163983853172 37.927201943433914 32.81444624060711 37.87364828095181C32.86675446907801 37.8200946184697 32.928777082836355 37.777500775286256 32.997275953453006 37.74860670622614C33.0660239108719 37.71921446356155 33.13975360433564 37.704269255427 33.214230558206104 37.704269255427C33.28870751207657 37.704269255427 33.36243720554031 37.71921446356155 33.43118516295921 37.74860670622614C33.4999331203781 37.7777498620885 33.56245390774093 37.82059279207419 33.61501122301407 37.87464462816078L33.61625665702528 37.87589006217199L37.05888535081703 41.51978089217557C37.18915774838979 41.65055146335281 37.35380412467199 41.74022271216007 37.533146622286495 41.77783481929866C37.71323638030773 41.8156960132395 37.90030056879175 41.79950537109375 38.07167228873449 41.7310065004771C38.24304400867724 41.66250762986044 38.39100156920921 41.54468957239981 38.497859807371185 41.39224844942748C38.60421987192867 41.24005641325739 38.665246138478054 41.05996665523617 38.67346600295205 40.87340064035663Z" fill="white"></path><path d="M23.07061889312977 25.648218940094225C22.17360750089456 25.23797297680105 21.23049014156429 24.9507758938156 20.265976225921396 24.791410157740934C19.034690345076932 24.587980966349594 18.039688204839575 25.659676932997375 18.039688204839575 26.933506839664837V34.889837476890506C18.039688204839575 35.93799474072638 18.8717626677302 36.78787890997734 19.898149745050095 36.78787890997734C20.09649756567569 36.78837708358182 20.289614563454197 36.72286725459208 20.448233039122137 36.60181106870228C20.606851514790076 36.4807548828125 20.722328156309636 36.310130423276476 20.777201978843628 36.11634089113192L23.56946503198056 26.76213511972209C23.63328107071505 26.54667503578244 23.617887506336473 26.3147752228948 23.52609901971016 26.10977678464933C23.434335441764073 25.904778346403862 23.27245392898676 25.740879230528385 23.07061889312977 25.648218940094225Z" fill="#D44333"></path><path d="M34.26786773169132 26.22585123449427C33.61351670220062 25.950112144411975 32.88219785081703 25.933423328661735 32.216388828423185 26.17927200247495C31.053900722358062 26.613928472387883 29.357370512285303 27.657602173783395 27.86733326127147 30.148719283009303C27.86733326127147 30.167400793177478 26.93574862088502 31.701775494990457 27.81278325158039 32.52799641802839C27.84317184145396 32.55589413987953 28.62605166090172 33.22693398512047 30.143488460162214 32.23606668580033C30.361937585728768 32.00317052570372 31.730669564050572 30.5990682214635 33.3482392578125 30.446876185293412C33.39008584058922 30.44338897006202 33.43218151016818 30.44861979290911 33.472035398526955 30.462568653834683C33.51164020008349 30.476517514760253 33.54800687321087 30.498686240159824 33.578893636688925 30.527580309219942L41.5334806662989 37.98225012672948C41.56984733942629 38.01662410543893 41.60322497092676 38.053738038973044 41.636602602427246 38.091101059309395C42.547014864623094 37.94812523482228 43.15403940168773 37.09699563156011 43.330143770873086 36.786384389163885L40.4469640349177 28.744866065571323L34.26786773169132 26.22585123449427Z" fill="#D44333"></path><path fill-rule="evenodd" clip-rule="evenodd" d="M34.169478444805584 26.4746889499344L34.167983923992125 26.474190776329912C33.573911900644084 26.223858540076336 32.910095572668176 26.20866424513955 32.3058109904282 26.43159693314647C31.199367414867602 26.84557919847328 29.5548963464635 27.848153577498806 28.09873490055463 30.276251725757394C28.098485813752383 30.276500812559636 28.098236726950145 30.276998986164124 28.098236726950145 30.277248072966362C28.09474951171875 30.283973416626907 28.090764122882874 30.291695107496423 28.08752599445372 30.29767319075024C28.08528421323354 30.301658579586114 28.083042432013357 30.305893055224235 28.080800650793176 30.31062570446684C28.07482256753936 30.321336436963264 28.068346310681058 30.334039863877624 28.06012644620706 30.34948324561665C28.037708634005245 30.392077088800093 28.006821870527194 30.45260518174499 27.972447891817747 30.527082135615455C27.90320176079437 30.677032390565362 27.82125220285663 30.879789047590645 27.764958585549856 31.102721735597566C27.64963139611164 31.560792364921276 27.661338475817033 32.017866647036016 27.987144013150044 32.32748154222328C27.993122096403862 32.33221419146589 28.14830317420086 32.460493894620704 28.45144181252982 32.49735874135258C28.766785704168655 32.5357181088979 29.273428259929627 32.47917540478888 29.976849389462068 32.02633559831226C30.117334345926764 31.878627124582536 30.514627795503337 31.479590067390266 31.07357857973521 31.08927104827648C31.662917953840648 30.677779650972088 32.452772203751195 30.261555604425094 33.324326924797234 30.179606046487354L33.3253232720062 30.179356959685112L33.32631961921517 30.179356959685112C33.40428378831703 30.172631616024567 33.482746131023376 30.182595088114265 33.55672491128936 30.20850011554747C33.63070369155534 30.234405142980677 33.69845530176527 30.275504465350668 33.75599435308325 30.32955630143726C33.75599435308325 30.32955630143726 33.756243439885495 30.329805388239503 33.75599435308325 30.32955630143726L41.71058138269323 37.784226118946805C41.71581220554031 37.78920785499165 41.721043028387406 37.79418959103649 41.72627385123449 37.799171327081346C42.05830655862356 37.71622542193464 42.346998162422466 37.52343223699904 42.581637930134775 37.30348859061903C42.78937632320491 37.10895179806774 42.94505557460639 36.9017115786021 43.03970855945849 36.755746712488076L40.24096924946326 28.949864503816794L34.169478444805584 26.4746889499344ZM40.4469640349177 28.744866065571323L43.330143770873086 36.786384389163885C43.15403940168773 37.09699563156011 42.547014864623094 37.94812523482228 41.636602602427246 38.091101059309395C41.60322497092676 38.053738038973044 41.56984733942629 38.01662410543893 41.5334806662989 37.98225012672948L33.578893636688925 30.527580309219942C33.54800687321087 30.498686240159824 33.51164020008349 30.476517514760253 33.472035398526955 30.462568653834683C33.43218151016818 30.44861979290911 33.39008584058922 30.44338897006202 33.3482392578125 30.446876185293412C31.730669564050572 30.5990682214635 30.361937585728768 32.00317052570372 30.143488460162214 32.23606668580033C28.62605166090172 33.22693398512047 27.84317184145396 32.55589413987953 27.81278325158039 32.52799641802839C27.00574201231512 31.767783497584684 27.730086433235925 30.408018644143606 27.85089353232347 30.18110056730081C27.86135517801765 30.161422709923663 27.86733326127147 30.15021380382276 27.86733326127147 30.148719283009303C29.357370512285303 27.657602173783395 31.053900722358062 26.613928472387883 32.216388828423185 26.17927200247495C32.88219785081703 25.933423328661735 33.61351670220062 25.950112144411975 34.26786773169132 26.22585123449427L40.4469640349177 28.744866065571323Z" fill="white"></path><path d="M46.49429341975787 26.124971079586114C44.76563101219585 26.113263999880722 43.0509174655594 26.443054926049616 41.44480576470062 27.0961605215291C41.22884750715649 27.19056441957896 41.05722670041149 27.366917875566553 40.965562757186305 27.58760878235329C40.874147900763354 27.808548775942267 40.86991342512524 28.056888317777908 40.95385567748092 28.280817352993797L44.32723824024929 37.65021741934041C44.39299715604127 37.83080535096612 44.51131338710639 37.98698277597209 44.66624537810114 38.09732822936546C44.82092828229365 38.207922769561065 45.00500342915076 38.26770360209924 45.19406031205271 38.2686999493082C46.2469502251312 38.2686999493082 47.10032160961355 37.39714522826216 47.10032160961355 36.321837502981865V26.759644251699665C47.10032160961355 26.41191907576932 46.834795078423184 26.124971079586114 46.49429341975787 26.124971079586114Z" fill="#D44333"></path></svg> 