<?xml version="1.0" encoding="UTF-8"?> <svg xmlns="http://www.w3.org/2000/svg" width="69" height="33" viewBox="0 0 69 33" fill="none"><path fill-rule="evenodd" clip-rule="evenodd" d="M34.4175 21.9959C33.072 21.9216 31.8084 21.3221 30.8846 20.3184C29.9609 19.3146 29.4532 17.9877 29.463 16.61C29.4585 15.2789 29.9779 13.9969 30.9143 13.0281C31.8451 12.0794 33.1031 11.5431 34.4175 11.5431C35.0642 11.5314 35.7063 11.6508 36.3031 11.8937C36.907 12.1405 37.4534 12.504 37.9095 12.9621C38.374 13.4288 38.7405 13.9795 38.9883 14.5833C39.2397 15.1941 39.3694 15.846 39.3705 16.5041H43.6156C43.6086 15.2694 43.3646 14.047 42.8964 12.9085C42.4281 11.77 41.7441 10.736 40.8852 9.86975C39.1505 8.1125 36.8066 7.15 34.3667 7.15C31.9269 7.15 29.5914 8.1675 27.8764 9.94125C26.1615 11.715 25.2053 14.113 25.218 16.6073C25.218 21.7979 29.3389 26.5897 34.4175 26.5897H68.9986V21.9931H34.4175V21.9959ZM68.9986 32.9959V28.4336H34.4175C32.1196 28.4397 29.8756 27.7556 27.9907 26.4742C26.0839 25.1859 24.5946 23.3503 23.7089 21.197C22.8232 19.0438 22.5807 16.6733 23.0122 14.377C23.4337 12.1037 24.5182 9.99697 26.1361 8.30912C27.741 6.64538 29.7916 5.50688 32.0284 5.03387C34.2652 4.56087 36.5908 4.77675 38.7077 5.65263C40.8246 6.5285 42.6425 8.02725 43.9259 9.95913C45.2093 11.891 45.9088 14.1666 45.9285 16.5041H50.4416C50.4204 13.2688 49.4628 10.1104 47.6914 7.42912C45.9201 4.74787 43.4097 2.6675 40.4791 1.44375C37.5484 0.22 34.3301 -0.089375 31.2273 0.5555C28.1246 1.20038 25.28 2.7555 23.0475 5.0655C20.7986 7.39606 19.2861 10.309 18.691 13.4558C18.0817 16.632 18.4047 19.9182 19.6218 22.9075C20.8389 25.8967 22.8938 28.4488 25.5254 30.2431C28.1571 32.0375 31.2513 32.9972 34.4189 32.9972H69L68.9986 32.9959ZM4.51303 33L4.51303 11.0344H0L0 6.42813H8.9499V33H4.51303ZM5.39025 4.56913H10.7749V33H15.2174V0L5.39307 0V4.56913H5.39025Z" fill="#D44333"></path></svg> 