<?xml version="1.0" encoding="UTF-8"?> <svg xmlns="http://www.w3.org/2000/svg" width="19" height="19" viewBox="0 0 19 19" fill="none"><path d="M1.05942 15.9356C0.434585 16.5605 0.449042 17.5586 1.09171 18.1651C1.73439 18.7716 2.76191 18.7567 3.38675 18.1319L2.22309 17.0338L1.05942 15.9356ZM18.3974 2.45875C18.3848 1.58808 17.648 0.892778 16.7517 0.905759L2.14625 1.11729C1.24999 1.13028 0.533641 1.84662 0.546251 2.71729C0.558862 3.58797 1.29565 4.28327 2.19192 4.27029L15.1746 4.08226L15.3572 16.6942C15.3699 17.5649 16.1066 18.2602 17.0029 18.2472C17.8992 18.2342 18.6155 17.5179 18.6029 16.6472L18.3974 2.45875ZM2.22309 17.0338L3.38675 18.1319L17.9382 3.58039L16.7746 2.48226L15.6109 1.38412L1.05942 15.9356L2.22309 17.0338Z" fill="white"></path></svg> 