<?xml version="1.0" encoding="UTF-8"?> <svg xmlns="http://www.w3.org/2000/svg" width="19" height="14" viewBox="0 0 19 14" fill="none"><path d="M4.48782 4.96477C3.64215 4.14307 2.29049 4.1625 1.46879 5.00817C0.647085 5.85383 0.666514 7.2055 1.51218 8.0272L3 6.49599L4.48782 4.96477ZM7.94719 11.303L6.45937 12.8342C7.2879 13.6392 8.60648 13.6392 9.43501 12.8342L7.94719 11.303ZM17.9801 4.53121C18.8258 3.70951 18.8452 2.35785 18.0235 1.51218C17.2018 0.666514 15.8502 0.647085 15.0045 1.46879L16.4923 3L17.9801 4.53121ZM3 6.49599L1.51218 8.0272L6.45937 12.8342L7.94719 11.303L9.43501 9.77176L4.48782 4.96477L3 6.49599ZM7.94719 11.303L9.43501 12.8342L13.7076 8.6827L12.2198 7.15149L10.7319 5.62027L6.45937 9.77176L7.94719 11.303ZM12.2198 7.15149L13.7076 8.6827L17.9801 4.53121L16.4923 3L15.0045 1.46879L10.7319 5.62027L12.2198 7.15149Z" fill="#D44333"></path></svg> 