<svg width="104" height="27" viewBox="0 0 104 27" fill="none" xmlns="http://www.w3.org/2000/svg">
<path fill-rule="evenodd" clip-rule="evenodd" d="M48.1576 23.3766V4.64008H45.0516V26.3897H57.3999V23.3766H56.6598H48.1576ZM86.3446 11.5885H88.3667V0H85.2607V11.5885H86.3504H86.3446ZM89.0543 22.1373C90.5811 25.0329 93.2384 26.6247 96.5425 26.6247C100.779 26.6247 103.518 24.2341 103.518 20.5338C103.518 16.8335 101.385 15.23 98.1858 13.6442L97.9061 13.5091L97.2942 13.2037L96.4085 12.7632C93.7395 11.4475 93.1976 10.8954 93.1976 9.48574C93.1976 8.07609 94.3456 6.99536 95.9889 6.99536C97.6322 6.99536 98.7336 7.55922 99.5552 8.88664L100.056 9.69131L100.115 9.78529L100.214 9.72655L101.03 9.2508L101.729 8.83965L102.591 8.33453L102.696 8.27579L102.632 8.17594L102.102 7.31841C100.697 5.03948 98.7569 3.98225 95.9889 3.98225C92.5915 3.98225 90.1207 6.29641 90.1207 9.48574C90.1207 12.6751 92.2535 14.1141 95.0449 15.4943L96.8572 16.3754C99.5669 17.6852 100.441 18.6954 100.441 20.528C100.441 22.4662 99.0191 23.5763 96.5425 23.5763C94.4446 23.5763 92.743 22.5426 91.764 20.663L91.2978 19.7761L91.2454 19.6704L91.1405 19.7292L90.2722 20.2167L89.4855 20.6572L88.6522 21.1212L88.5531 21.174L88.6056 21.2739L89.0543 22.1256V22.1373ZM60.4418 26.3897H62.4639V4.22306H59.3579V26.3897H60.4476H60.4418ZM20.5242 15.277C20.5242 8.99824 25.5765 3.90589 31.806 3.90589C38.0355 3.90589 43.0878 8.99824 43.0878 15.277C43.0878 21.5558 38.0355 26.6482 31.806 26.6482C25.5765 26.6482 20.5242 21.5558 20.5242 15.277ZM23.6127 15.277C23.6127 10.7133 27.2839 7.01886 31.806 7.01886C36.328 7.01886 39.9993 10.7192 39.9993 15.277C39.9993 19.8349 36.328 23.5352 31.806 23.5352C27.2839 23.5352 23.6127 19.8349 23.6127 15.277ZM3.14105 15.3828C3.10026 10.6663 6.46849 7.07759 10.9847 7.03648C13.4555 7.01298 15.6466 8.0291 17.1559 9.89101L17.7503 10.6252L17.8203 10.7133L17.9077 10.6428L18.6536 10.0672L19.347 9.53273L20.1512 8.91013L20.2503 8.83378L20.1745 8.7398L19.5218 7.95275C17.3774 5.36253 14.3355 3.95288 10.9556 3.98225C4.68531 4.05273 -0.0232234 8.95712 8.61665e-05 15.4062C0.087497 21.8554 4.88344 26.6775 11.1537 26.6188C14.5336 26.5894 17.5522 25.1269 19.6501 22.5015L20.2852 21.7027L20.361 21.6087L20.2619 21.5382L19.4461 20.9332L18.741 20.4105L17.9834 19.8466L17.896 19.782L17.8261 19.8701L17.2433 20.6161C15.7632 22.5073 13.5896 23.5587 11.1246 23.5763C6.60835 23.6174 3.18184 20.0992 3.14105 15.3828ZM80.1617 20.1109L68.437 4.41102L68.2563 4.16433L68.1223 4.07035H66.1759V4.81629V25.2914V26.3839H69.1945V10.5077L81.1407 26.4485L81.2805 26.5483H81.7351H81.8516H83.1803V25.7965V5.32141V4.22306H80.1617V20.1168V20.1109Z" fill="#999999"/>
</svg>
