<svg width="113" height="30" viewBox="0 0 113 30" fill="none" xmlns="http://www.w3.org/2000/svg">
<path d="M14.7747 11.2351L23.4986 23.7373H18.6142L11.1053 13.0694H7.50886V23.7373H3.23197V3.98237H0L2.1506 0H7.50886V9.4008H11.1053L18.2497 0H23.0976L14.7869 11.2351H14.7747ZM22.1864 15.1813C22.1864 13.3349 22.6116 11.7178 23.4621 10.33C24.2884 9.03877 25.4305 8.04921 26.8642 7.34928C28.298 6.66142 29.8532 6.31145 31.5056 6.31145C33.1581 6.31145 34.7497 6.64935 36.1227 7.31308C37.5564 8.00094 38.6986 9.0267 39.5248 10.3904C40.351 11.7299 40.7763 13.3228 40.7763 15.1692C40.7763 17.0156 40.3632 18.6568 39.5248 20.0205C38.6986 21.36 37.5564 22.3978 36.1227 23.1339C34.7133 23.8459 33.1702 24.208 31.5056 24.208C29.841 24.208 28.3344 23.8459 26.8885 23.1339C25.4305 22.4219 24.2762 21.3841 23.4257 20.0205C22.5995 18.6327 22.1742 17.0276 22.1742 15.1692L22.1864 15.1813ZM94.8085 6.8545H98.6115V9.15945C99.1947 8.26643 99.9723 7.59064 100.932 7.11999C101.916 6.62521 103.192 6.38386 104.735 6.38386C106.278 6.38386 107.748 6.74589 108.976 7.45789C110.166 8.19403 111.09 9.24392 111.734 10.5955C112.402 11.935 112.742 13.4676 112.742 15.2054C112.742 16.9432 112.402 18.524 111.734 19.8877C111.078 21.2272 110.166 22.2651 108.976 23.0012C108.417 23.3753 107.748 23.6529 106.995 23.8339C106.254 24.039 105.501 24.1356 104.735 24.1356C103.411 24.1356 102.427 24.039 101.771 23.8339C100.422 23.4356 99.4742 22.7598 98.9031 21.8306V29.723H94.7963V6.8545H94.8085ZM42.9633 6.8545H47.0336V13.2746H54.0079V6.8545H58.0539V23.7373H54.0079V16.6173H47.0336V23.7373H42.9633V6.8545ZM59.8279 6.8545H75.4896V10.0645H69.6939V23.7373H65.5506V10.0645H59.8279V6.8545ZM81.103 6.8545C82.6339 11.0058 84.019 15.1089 85.2827 19.1636C86.4734 15.1451 87.8221 11.0541 89.3287 6.8545H93.4355L87.1781 24.0752C86.6678 25.4751 86.1696 26.5612 85.6958 27.3215C85.1855 28.0817 84.5415 28.6489 83.776 29.023C83.0349 29.4213 82.0507 29.6264 80.8114 29.6264C80.1188 29.6264 79.73 29.6264 79.6692 29.5902L78.2841 26.3802C78.7094 26.4647 79.244 26.5129 79.8636 26.5129C80.6291 26.5129 81.2488 26.4043 81.7105 26.175C82.1357 25.994 82.4638 25.7527 82.6825 25.4389C82.9012 25.1493 83.0956 24.7752 83.2536 24.3407L76.7896 6.8545H81.103ZM26.3296 15.1451C26.3296 16.9914 26.7792 18.4154 27.6783 19.3929C28.5774 20.3463 29.8167 20.829 31.4206 20.829C33.0244 20.829 34.288 20.3463 35.1871 19.3929C36.1106 18.4154 36.5723 16.9914 36.5723 15.1451C36.5723 13.2987 36.1227 11.9833 35.2236 11.0662C34.3245 10.1249 33.0609 9.6663 31.4206 9.6663C29.7803 9.6663 28.5531 10.1369 27.654 11.0662C26.7792 11.9833 26.3418 13.3349 26.3418 15.1451H26.3296ZM98.818 15.1813C98.8667 16.8587 99.3162 18.1862 100.167 19.1998C101.017 20.2015 102.22 20.7083 103.763 20.7083C105.306 20.7083 106.497 20.2015 107.335 19.1998C108.186 18.1982 108.623 16.8587 108.648 15.1813C108.623 13.528 108.186 12.2126 107.335 11.2351C106.509 10.2335 105.318 9.72663 103.763 9.72663C102.208 9.72663 101.017 10.2214 100.167 11.1989C99.3162 12.1764 98.8667 13.5039 98.818 15.1813Z" fill="#999999"/>
</svg>
