<svg width="78" height="34" viewBox="0 0 78 34" fill="none" xmlns="http://www.w3.org/2000/svg">
<path d="M76.6424 10.5746C73.4491 5.45405 59.6077 0 38.9445 0C18.2813 0 4.54724 5.55579 1.27481 10.5746C-0.307717 12.9993 -0.52814 20.488 1.24655 23.3309C4.43985 28.4515 18.2869 33.9056 38.9501 33.9056C59.6134 33.9056 73.3418 28.3498 76.6198 23.3309C78.2024 20.9063 78.4228 13.4175 76.6481 10.5746H76.6424ZM74.8169 23.037C71.6971 27.8185 58.6582 33.1199 38.9388 33.1199C19.2195 33.1199 6.07889 27.9202 3.03819 23.037C1.34828 20.3241 1.5574 13.1915 3.06645 10.8742C6.18628 6.09271 19.2251 0.796913 38.9445 0.796913C58.6639 0.796913 71.8101 5.99663 74.8508 10.8798C76.5407 13.5927 76.3316 20.7311 74.8225 23.0427L74.8169 23.037Z" fill="#999999"/>
<path d="M26.6329 25.3145L27.7802 23.6642H27.1415L26.2655 25.015H26.2203L25.3216 23.6416L24.6943 23.6642L25.8246 25.3089L24.683 27.0327H25.3103L26.209 25.6423H26.2542L27.2093 27.0327H27.8819L26.6385 25.3145H26.6329ZM31.9908 24.6419C32.0643 24.8511 32.1039 25.0828 32.1039 25.3315C32.1039 25.6649 32.036 25.9645 31.9004 26.2358C31.7647 26.5071 31.5782 26.7218 31.3239 26.8744C31.0752 27.0327 30.7813 27.1118 30.4366 27.1118C30.1596 27.1118 29.9166 27.0609 29.7075 26.9649C29.4983 26.8688 29.3231 26.7388 29.1818 26.5749C29.0405 26.411 28.9332 26.2188 28.8597 26.004C28.7862 25.7893 28.7523 25.5632 28.7523 25.3315C28.7523 24.9924 28.8201 24.6928 28.9558 24.4328C29.0914 24.1728 29.2836 23.9637 29.5323 23.8111C29.7809 23.6585 30.0805 23.5851 30.4253 23.5851C30.6909 23.5851 30.9283 23.6303 31.1374 23.7207C31.3465 23.8055 31.5161 23.9355 31.663 24.0937C31.8043 24.252 31.9173 24.4328 31.9908 24.6476V24.6419ZM31.533 25.3258C31.533 25.0715 31.4878 24.8511 31.3974 24.6646C31.3069 24.478 31.1826 24.3311 31.0187 24.2294C30.8548 24.1276 30.6626 24.0711 30.4366 24.0711C30.1935 24.0711 29.9901 24.1276 29.8262 24.2407C29.6623 24.3481 29.5379 24.5007 29.4531 24.6928C29.3684 24.885 29.3288 25.0941 29.3288 25.3315C29.3288 25.5519 29.3684 25.761 29.4531 25.9588C29.5323 26.1567 29.6623 26.3149 29.8262 26.4392C29.9901 26.5579 30.1992 26.6201 30.4479 26.6201C30.6965 26.6201 30.8944 26.5579 31.0583 26.4392C31.2222 26.3149 31.3409 26.1567 31.42 25.9588C31.4991 25.761 31.5387 25.5519 31.5387 25.3315L31.533 25.3258ZM33.8559 24.3141C33.839 24.5346 33.822 24.7606 33.8107 24.9811C33.7994 25.1676 33.7825 25.3541 33.7655 25.5406C33.7429 25.7328 33.7146 25.9023 33.6751 26.0606C33.6355 26.2188 33.579 26.3432 33.4999 26.4392C33.4264 26.5353 33.3247 26.5805 33.206 26.5805C33.1834 26.5805 33.1551 26.5805 33.1155 26.5805C33.0816 26.5805 33.0421 26.5692 33.0025 26.5636L32.9686 27.0496C33.0025 27.0609 33.0421 27.0666 33.0816 27.0723C33.1212 27.0779 33.1664 27.0836 33.206 27.0892C33.2512 27.0892 33.2851 27.0892 33.319 27.0892C33.5225 27.0892 33.6807 27.0383 33.8051 26.9366C33.9238 26.8349 34.0142 26.6936 34.082 26.5127C34.1442 26.3319 34.1951 26.1284 34.2233 25.8967C34.2516 25.6649 34.2798 25.4276 34.2968 25.1732C34.3081 25.015 34.3194 24.8567 34.3307 24.6985C34.342 24.5402 34.3533 24.3763 34.3646 24.2181C34.3646 24.1841 34.3646 24.1559 34.3703 24.122H35.6871V27.0327H36.241V23.6642H33.8898C33.8785 23.8789 33.8616 24.0937 33.8446 24.3198L33.8559 24.3141ZM40.5873 26.5692H41.096V27.9709H40.6099L40.5873 27.0327H37.8575L37.8349 27.9709H37.3488V26.5692H37.6936C37.7501 26.5071 37.8066 26.4279 37.8688 26.3206C37.9366 26.1962 37.9931 26.0323 38.0496 25.8175C38.1005 25.6084 38.1401 25.3371 38.1627 25.0093C38.1796 24.7324 38.1966 24.4893 38.2079 24.2802C38.2192 24.0768 38.2305 23.8676 38.2418 23.6642H40.5873V26.5692ZM40.0334 24.122H38.7052C38.7052 24.122 38.7052 24.1559 38.7052 24.1728C38.6939 24.3085 38.6883 24.4554 38.6826 24.608C38.677 24.7606 38.6657 24.9245 38.6544 25.1111C38.6431 25.3202 38.6205 25.518 38.5865 25.7102C38.5526 25.9023 38.5074 26.0832 38.4453 26.2414C38.4 26.3658 38.3379 26.4675 38.27 26.5692H40.0334V24.122ZM42.8424 26.2188H42.7972V23.6416L42.2603 23.6642V27.0327H42.8368L44.4758 24.478H44.521V27.0327H45.0579V23.6642H44.4814L42.8368 26.2188H42.8424ZM48.8447 25.0998H47.1717V23.6359L46.6178 23.6585V27.027H47.1717V25.5519H48.8447V27.027H49.3986V23.6585H48.8447V25.0998ZM50.9585 27.0327H51.5124V24.122H53.2023V23.6642H50.9528V27.0327H50.9585ZM67.931 11.2753C67.931 11.2753 67.7897 10.3653 68.2532 9.6532C68.711 8.94106 69.5927 8.69238 69.5927 8.69238C69.5927 8.69238 69.7283 9.60233 69.2705 10.3145C68.8127 11.0266 67.9367 11.2753 67.9367 11.2753H67.931ZM69.2875 11.2922V11.3148L67.2359 17.6675L67.3489 11.2922H66.0151V20.4144H67.4167L69.4683 14.0786L69.3553 20.4144H70.6892V11.2922H69.2875ZM39.3326 16.4467H41.3277V15.1751H39.3326V12.5696H41.8703V11.2979H38.0044V20.4087H41.9438V19.137H39.3382V16.4524L39.3326 16.4467ZM47.59 20.4144V11.2922H46.2561V15.1751H44.3854V11.2922H43.0515V20.4144H44.3854V16.4467H46.2561V20.4144H47.59ZM63.2626 11.3148L61.2053 17.6675L61.3184 11.2922H59.9845V20.4144H61.3862L63.4378 14.0786L63.3248 20.4144H64.6586V11.2922H63.2569V11.3148H63.2626ZM7.19043 20.4144H8.73339V9.86232H7.19043V20.4144ZM19.2854 15.5368C19.212 17.0006 19.1272 17.8201 18.952 18.6397C18.7994 19.3575 18.5902 19.8492 18.1664 20.3409C18.1664 20.3409 18.4207 20.5952 18.9124 20.5952C19.5115 20.5952 19.9523 20.1713 20.1954 19.0918C20.3819 18.2553 20.4723 17.0571 20.5345 16.1302L20.7606 12.5696H21.9531V20.4144H23.2869V11.2922H19.5058C19.5058 11.2922 19.5058 11.2922 19.2911 15.5368H19.2854ZM11.6441 12.4848C12.684 10.9192 12.831 9.22366 12.831 9.22366C12.831 9.22366 11.3163 10.0771 10.282 11.6427C9.40596 12.9765 9.16293 14.4008 9.10641 14.7964C9.10641 14.7964 10.5929 14.0617 11.6441 12.4848ZM58.4076 19.0014L56.746 15.6611L58.792 11.2866H57.3677L55.3726 15.6046V11.2866H54.0388V20.4087H55.3726V15.8646C55.4969 16.1189 55.87 16.8932 56.989 19.2218C57.4977 20.2731 58.0403 20.5896 58.5942 20.5896C59.148 20.5896 59.3911 20.3409 59.3911 20.3409C59.0576 20.0639 58.7298 19.6514 58.402 18.9957L58.4076 19.0014ZM34.6755 11.2922L33.432 17.7693L32.1378 11.2922H30.3348L30.1709 20.403H31.5048L31.4426 13.553L32.9121 20.403H33.9746L35.3424 13.5417L35.3537 20.403H36.6875L36.5236 11.2922H34.6811H34.6755ZM17.6464 13.276V18.3627C17.6464 19.5383 16.6969 20.4935 15.5382 20.4935C14.3796 20.4935 13.4301 19.5383 13.4301 18.3627V13.276C13.4301 12.1005 14.3796 11.1453 15.5382 11.1453C16.6969 11.1453 17.6464 12.1005 17.6464 13.276ZM16.3125 13.1574C16.3125 12.7109 15.9565 12.3491 15.5382 12.3491C15.12 12.3491 14.7639 12.7109 14.7639 13.1574V18.4814C14.7639 18.9279 15.12 19.2896 15.5382 19.2896C15.9565 19.2896 16.3125 18.9279 16.3125 18.4814V13.1574ZM28.8823 18.3627C28.8823 19.5383 27.9328 20.4935 26.7741 20.4935C25.6155 20.4935 24.666 19.5383 24.666 18.3627V13.276C24.666 12.1005 25.6155 11.1453 26.7741 11.1453C27.9328 11.1453 28.8823 12.1005 28.8823 13.276V18.3627ZM27.5485 13.1574C27.5485 12.7109 27.1924 12.3491 26.7741 12.3491C26.3559 12.3491 25.9998 12.7109 25.9998 13.1574V18.4814C25.9998 18.9279 26.3559 19.2896 26.7741 19.2896C27.1924 19.2896 27.5485 18.9279 27.5485 18.4814V13.1574ZM52.8858 18.3627V17.4697H51.5972V18.4758C51.5972 18.9223 51.2411 19.284 50.8228 19.284C50.4046 19.284 50.0485 18.9223 50.0485 18.4758V13.1517C50.0485 12.7052 50.4046 12.3435 50.8228 12.3435C51.2411 12.3435 51.5972 12.7052 51.5972 13.1517V14.1069H52.8858V13.2704C52.8858 12.0948 51.9758 11.1396 50.8228 11.1396C49.6699 11.1396 48.7147 12.0948 48.7147 13.2704V18.3571C48.7147 19.5327 49.6642 20.4878 50.8228 20.4878C51.9815 20.4878 52.8858 19.5327 52.8858 18.3571V18.3627ZM12.0058 18.8657L10.7002 15.1016H9.11206C9.17989 15.3051 9.42857 16.0907 10.4007 19.137C10.8189 20.4426 11.4011 20.7422 12.0284 20.7422C12.6558 20.7422 12.9553 20.4483 12.9553 20.4483C12.5145 20.1205 12.3054 19.7022 12.0058 18.8657Z" fill="#999999"/>
</svg>
