<svg width="98" height="32" viewBox="0 0 98 32" fill="none" xmlns="http://www.w3.org/2000/svg">
<path d="M18.0812 9.29866C18.5264 9.84665 18.6634 10.5145 18.6634 10.5145C18.7148 10.7543 18.7148 10.9769 18.7148 11.1139C19.0402 14.0764 15.5296 14.4189 15.5296 14.4189H9.82714C8.79966 14.3675 5.63161 14.0422 3.14854 11.5591C0.939465 9.36716 0.494225 6.66147 0.203107 4.96614C-0.139386 2.87693 0.0147359 1.13022 0.203107 0H15.1358C26.6606 0.513738 27.0887 10.9426 27.0887 10.9426C27.8765 22.9984 14.622 22.8785 14.622 22.8785V31.0983H8.59416V18.7001C4.26164 19.1967 2.46355 23.8375 2.46355 23.8375C1.60732 26.252 1.89844 29.2317 1.89844 29.2317H4.39864C4.17602 28.6323 3.49103 26.526 4.39864 24.1971C4.861 22.9984 5.58023 22.1935 6.07685 21.7311V30.927H0.459976C0.237356 29.7968 0.0147359 28.1015 0.271605 26.0637C0.340103 25.5157 0.459976 24.6766 0.785343 23.7005C2.22381 19.5049 6.12822 17.6555 6.35084 17.5527C7.1557 17.176 8.57704 16.6622 10.4607 16.628H16.7626C17.1736 16.5595 19.0231 16.1999 20.2389 14.5388C21.1808 13.2202 21.1979 11.8674 21.1979 11.1995C21.1979 10.857 21.1465 7.92869 19.1087 6.55872C18.2182 5.95936 17.2763 5.89086 16.7626 5.87374C12.6013 5.65112 7.73793 5.80524 5.95697 5.87374L16.7626 4.12703C22.7391 4.16128 22.9446 11.131 22.9446 11.131C23.4583 17.5356 16.6941 18.4603 16.6941 18.4603H10.358V29.3345H12.9267V21.0975H15.5468C16.0947 21.1146 20.2903 21.2174 23.1843 17.8438C25.5133 15.121 25.4277 11.9701 25.3763 11.0796C25.1537 7.55195 23.0645 5.30863 22.2596 4.55515C19.2799 1.72959 15.6495 1.74671 14.9131 1.76383H1.96694C1.86419 2.48307 1.76145 3.63042 1.96694 4.98326C2.13819 6.13061 2.5663 8.97329 4.94662 10.8913C5.51173 11.3365 6.72758 12.1756 8.66266 12.4667V8.32256H15.5639C15.6495 8.30543 17.2421 8.27119 18.0812 9.29866ZM16.7626 4.12703H4.24451C4.21026 4.2469 3.30266 6.84984 4.80963 8.40818C5.03225 8.64793 5.40899 8.93905 5.99122 9.16166V5.87374L16.7626 4.12703ZM10.0326 9.82952V12.4667H15.1186C15.1186 12.4667 16.8482 12.4838 16.7969 11.0111C16.7969 11.0111 17.0195 9.64115 15.033 9.8124H10.0326V9.82952Z" fill="#999999"/>
<path d="M42.9683 22.4338H40.2112V11.337H34.8854V22.4338H32.1455V9.12793H42.9683V22.4338Z" fill="#999999"/>
<path d="M47.8659 17.7416V22.4338H45.126V9.12793H50.3147C51.308 9.12793 52.1984 9.3163 52.9519 9.67592C53.7054 10.0355 54.2876 10.5664 54.6986 11.2343C55.1096 11.9021 55.3151 12.6727 55.3151 13.529C55.3151 14.8304 54.8699 15.8579 53.9794 16.6114C53.0889 17.3649 51.8559 17.7416 50.2805 17.7416H47.8659ZM47.8659 15.5154H50.3147C51.034 15.5154 51.5991 15.3442 51.9758 15.0017C52.3526 14.6592 52.5409 14.1797 52.5409 13.5461C52.5409 12.9125 52.3526 12.3645 51.9587 11.9706C51.582 11.5767 51.0511 11.3541 50.3661 11.3541H47.8488V15.5154H47.8659Z" fill="#999999"/>
<path d="M64.9339 9.12793H67.6909V22.4338H64.9339V13.5975L59.6081 22.4338H56.8682V9.12793H59.6081V17.9814L64.9339 9.12793Z" fill="#999999"/>
<path d="M73.4165 9.12793L76.8414 18.7862L80.2492 9.12793H83.8454V22.4338H81.0883V18.8033L81.3623 12.5186L77.7661 22.4338H75.8824L72.2863 12.5186L72.5602 18.7862V22.4166H69.8203V9.12793H73.4165Z" fill="#999999"/>
<path d="M93.5322 19.6938H88.7202L87.8125 22.4338H84.9014L89.8504 9.12793H92.3848L97.3681 22.4338H94.4569L93.5322 19.6938ZM89.4736 17.4676H92.7958L91.1176 12.4844L89.4736 17.4676Z" fill="#999999"/>
<path d="M36.4403 24.2144H36.526C37.0568 24.2144 37.5534 24.3343 37.9815 24.574C38.4097 24.8137 38.7522 25.1391 38.9919 25.5844C39.2316 26.0125 39.3515 26.5091 39.3515 27.0742C39.3515 27.8962 39.0946 28.564 38.5638 29.0778C38.0329 29.5915 37.3308 29.8655 36.4403 29.8655V30.7389H35.0875V29.8655H35.0019C34.4539 29.8655 33.9744 29.7456 33.5291 29.523C33.101 29.2833 32.7585 28.9579 32.5188 28.5469C32.2791 28.1188 32.1592 27.6393 32.1592 27.1084C32.1592 26.5776 32.2791 26.0638 32.5188 25.6357C32.7585 25.2076 33.0839 24.8651 33.512 24.6254C33.9401 24.3856 34.4196 24.2658 34.9505 24.2486H35.0875V23.3582H36.4403V24.2144ZM35.0019 25.3789C34.5395 25.3789 34.1628 25.533 33.9059 25.8241C33.6319 26.1152 33.512 26.5262 33.512 27.0742C33.512 27.5708 33.649 27.9647 33.9059 28.2558C34.1799 28.5469 34.5395 28.6839 35.0361 28.6839H35.1046V25.3789H35.0019ZM36.4403 25.3789V28.6839H36.526C36.9883 28.6839 37.3479 28.5469 37.6048 28.2558C37.8617 27.9647 37.9987 27.5708 37.9987 27.0742C37.9987 26.5433 37.8617 26.1495 37.6048 25.8412C37.3479 25.5501 36.9712 25.396 36.4917 25.396H36.4403V25.3789Z" fill="#999999"/>
<path d="M46.0681 29.0269H43.6021L43.1398 30.4311H41.6328L44.1844 23.5984H45.4858L48.0374 30.4311H46.5476L46.0681 29.0269ZM43.9789 27.8967H45.6913L44.8351 25.3451L43.9789 27.8967Z" fill="#999999"/>
<path d="M52.0126 28.0337V30.4482H50.6084V23.5984H53.2798C53.7936 23.5984 54.2388 23.684 54.6327 23.8724C55.0265 24.0608 55.3177 24.3347 55.5403 24.6772C55.7458 25.0197 55.8485 25.4136 55.8485 25.8588C55.8485 26.5267 55.6259 27.0576 55.1635 27.4514C54.7012 27.8453 54.0676 28.0337 53.2627 28.0337H52.0126ZM52.0126 26.8863H53.2798C53.6566 26.8863 53.9306 26.8007 54.1361 26.6294C54.3244 26.4582 54.4272 26.2013 54.4272 25.876C54.4272 25.5335 54.3244 25.2766 54.1361 25.0711C53.9306 24.8656 53.6737 24.7629 53.3141 24.7457H52.0297V26.8863H52.0126Z" fill="#999999"/>
<path d="M60.5731 23.5984L62.3369 28.5645L64.0836 23.5984H65.9331V30.4482H64.5117V28.5645L64.6487 25.3451L62.8164 30.4482H61.8403L59.9909 25.3622L60.1278 28.5816V30.4482H58.7236V23.5984H60.5731Z" fill="#999999"/>
</svg>
