<svg width="108" height="27" viewBox="0 0 108 27" fill="none" xmlns="http://www.w3.org/2000/svg">
<path d="M37.872 9.62635L41.8149 6.4713C41.8149 6.45991 41.7997 6.45991 41.7864 6.45042C41.7953 6.44283 41.8047 6.43523 41.8149 6.42764C41.7162 6.365 41.6193 6.29666 41.5225 6.25109C40.4632 5.46708 39.2217 4.88618 37.8701 4.55967C37.0462 4.36034 36.1996 4.24454 35.313 4.24834C29.7907 4.25214 25.2803 8.4266 25.286 13.5294C25.286 14.6741 25.5119 15.7599 25.9333 16.7717L21.4684 20.3102C21.3374 20.4393 21.1817 20.4393 21.0394 20.3102C18.2906 17.3241 15.5361 14.3267 12.7873 11.3406V11.2399L18.414 4.80266C18.4728 5.59996 19.8282 7.87608 22.3682 8.00706C24.1811 8.09249 25.6372 7.22495 26.3547 6.07645C27.3305 4.50841 27.2337 2.77143 25.8707 1.26224C24.5266 0.206761 23.735 -0.0495156 21.9696 0.00743478C20.4205 0.174489 19.3935 0.761078 18.2602 1.82225L12.4873 8.26714L12.4949 0.833215L0.0246785 6.06696L0 26.4172L12.5082 21.0316L12.5044 14.321L20.9577 22.8312C21.0906 22.9186 21.2102 22.9186 21.364 22.8312C23.1864 21.3771 25.0145 19.9154 26.8407 18.448V18.4594L37.8739 9.63015" fill="#999999"/>
<path d="M37.8721 20.4695C35.9984 20.4695 34.4835 19.021 34.4835 17.2214C34.4835 15.435 35.9965 13.9733 37.8683 13.9695C39.7344 13.9695 41.2625 15.4275 41.2644 17.2138C41.2644 19.0134 39.7382 20.4676 37.874 20.4695M105.256 17.229C101.36 21.4908 95.3217 22.0128 92.0585 17.0562L99.5152 10.0494C99.4582 10.1425 99.1355 11.0043 99.1678 11.1884C99.1697 12.7622 99.6253 13.4835 101.165 14.3473C106.526 15.9856 109.335 8.16059 103.035 5.24473C101.805 4.60688 100.18 4.19684 98.4616 4.19874C94.2815 4.20064 90.6917 6.59065 89.1882 9.95073L85.4636 5.11184L73.7926 5.16689L82.2763 16.9385L81.1506 18.0415C80.9 16.1583 79.1592 14.6928 77.0578 14.6947C76.325 14.6947 75.6473 14.8731 75.0531 15.1731L67.6325 5.18208L59.5835 13.288L53.8941 5.19157L45.2927 14.3321C45.3288 14.0625 45.3402 13.7835 45.3402 13.5101C45.3402 11.2739 44.4802 9.22366 43.047 7.62525L37.9784 11.7162L37.8664 11.8054L27.957 19.7993C29.7965 21.6313 32.4087 22.7608 35.3207 22.7589C36.2072 22.7589 37.052 22.6488 37.8759 22.4532C38.3524 22.3355 38.8194 22.1951 39.2712 22.0166C40.7177 21.5117 42.0504 20.7049 43.1248 19.6L48.1915 14.3549L53.7707 22.2881L61.7628 14.2752L67.5717 22.4267L73.0447 17.5042H73.0788C72.982 17.8213 72.9345 18.1516 72.9345 18.4952C72.9345 20.591 74.7911 22.2881 77.0559 22.2862C77.3805 22.2862 77.7013 22.2672 78.0088 22.1932C79.1934 22.0071 79.8863 21.6275 80.9095 20.9023L88.4383 13.5367C88.4858 18.5939 92.9811 22.7019 98.4711 22.6962C102.513 22.6943 106.027 20.4543 107.612 17.2328L105.254 17.2214L105.256 17.229Z" fill="#999999"/>
</svg>
