<svg width="144" height="22" viewBox="0 0 144 22" fill="none" xmlns="http://www.w3.org/2000/svg">
<mask id="mask0_138_889" style="mask-type:luminance" maskUnits="userSpaceOnUse" x="0" y="0" width="144" height="22">
<path d="M143.49 0H0V21.798H143.49V0Z" fill="white"/>
</mask>
<g mask="url(#mask0_138_889)">
<path d="M140.414 19.3266C139.269 20.5278 137.974 21.2462 136.347 21.5728C135.248 21.7943 134.288 21.8426 133.172 21.7262C131.693 21.5728 130.474 21.0986 129.285 20.2097C128.311 19.4856 127.615 18.699 127.004 17.6483C126.536 16.8333 126.26 16.0722 126.11 15.1436C125.897 13.8572 125.954 12.7241 126.292 11.4661C127.064 8.60365 129.219 6.57606 132.119 5.97119C133.777 5.62758 135.248 5.66166 136.887 6.08478C138.054 6.3858 138.98 6.89411 139.863 7.7148C140.419 8.23164 140.814 8.75131 141.166 9.4215C141.581 10.2166 141.748 10.989 141.703 11.8836H136.529C136.415 11.1907 136.083 10.6369 135.526 10.2138C134.802 9.66288 133.868 9.61744 133.096 10.0974C132.567 10.4268 132.221 10.8726 132.034 11.4661C131.588 12.8803 131.568 14.1951 131.965 15.6235C132.136 16.2227 132.42 16.6941 132.874 17.1229C133.391 17.617 134.036 17.8187 134.745 17.7164C135.183 17.6511 135.541 17.4609 135.836 17.1286C136.145 16.785 136.324 16.4187 136.404 15.9615C136.461 15.6406 136.492 15.3708 136.509 15.0442H141.964C142.072 16.6884 141.552 18.1339 140.416 19.3266" fill="#999999"/>
</g>
<path d="M119.574 4.10019H125.234V0.101807H119.574V4.10019Z" fill="#999999"/>
<path d="M119.574 21.2892H125.234V6.15332H119.574V21.2892Z" fill="#999999"/>
<path d="M107.845 7.75252C108.589 7.10222 109.298 6.64218 110.196 6.22757C111.658 5.55171 113.121 5.4438 114.666 5.89532C116.324 6.38092 117.52 7.54806 118.042 9.19796C118.292 9.99025 118.403 10.6917 118.403 11.5237V21.2925H112.391V12.5063C112.391 12.2138 112.357 11.9639 112.269 11.6827C112.116 11.1773 111.78 10.8081 111.295 10.6008C110.23 10.1493 109.017 10.5497 108.432 11.5464C108.188 11.9639 108.077 12.3728 108.077 12.8556V21.2896H102.256V6.1509H107.717L107.842 7.74968" fill="#999999"/>
<path d="M40.9051 7.75252C41.6492 7.10222 42.3591 6.64218 43.2565 6.22757C44.7189 5.55171 46.1814 5.4438 47.7291 5.89532C49.3875 6.38092 50.583 7.54806 51.1084 9.19796C51.3583 9.99025 51.469 10.6917 51.469 11.5237V21.2925H45.4573V12.5063C45.4573 12.2138 45.4204 11.9639 45.3352 11.6827C45.179 11.1773 44.8467 10.8081 44.3583 10.6008C43.2934 10.1493 42.0808 10.5497 41.4986 11.5464C41.2544 11.9639 41.1408 12.3728 41.1408 12.8556V21.2896H35.3193V6.1509H40.7802L40.908 7.74968" fill="#999999"/>
<mask id="mask1_138_889" style="mask-type:luminance" maskUnits="userSpaceOnUse" x="0" y="0" width="144" height="22">
<path d="M143.49 0H0V21.798H143.49V0Z" fill="white"/>
</mask>
<g mask="url(#mask1_138_889)">
<path d="M76.5689 15.7256C77.0034 15.7994 77.3641 15.8903 77.7815 16.0294C78.1308 16.143 78.3693 16.4128 78.446 16.7706C78.5284 17.1596 78.4205 17.5288 78.1393 17.8099C77.8553 18.0968 77.5316 18.2643 77.1312 18.3268C76.5973 18.412 76.1231 18.3694 75.6148 18.1848C75.3677 18.0968 75.1746 17.986 74.9701 17.8185C74.7089 17.5998 74.5413 17.3471 74.442 17.0233C74.3568 16.7479 74.3227 16.5037 74.3284 16.2168H68.7852V16.5406C68.7852 17.0631 68.8675 17.5032 69.0493 17.9917C69.3275 18.7243 69.7081 19.2923 70.2845 19.829C71.0342 20.5304 71.818 20.9677 72.8063 21.2517C74.8566 21.8367 76.6996 21.9503 78.8067 21.6294C79.7949 21.4789 80.6099 21.212 81.4988 20.7519C81.8906 20.5503 82.203 20.3402 82.5409 20.0562C84.0375 18.7982 84.5941 16.8813 83.9949 15.0185C83.7677 14.317 83.4099 13.7775 82.8533 13.2919C82.0894 12.6302 81.317 12.2099 80.3458 11.926C80.1328 11.8635 79.9511 11.8124 79.7381 11.7527C78.5511 11.4233 77.5316 11.2047 76.3105 11.0229C75.9839 10.9746 75.7085 10.9207 75.3876 10.8469C75.2399 10.8128 75.115 10.7702 74.9787 10.7077C74.6379 10.5544 74.4874 10.1511 74.6407 9.81318C74.6493 9.79614 74.6578 9.7791 74.6663 9.76206C74.848 9.43549 75.1207 9.22251 75.4785 9.11744C76.1117 8.9357 76.6939 8.94989 77.3158 9.16288C77.9121 9.3645 78.287 9.91257 78.2586 10.543H83.6002C83.5945 9.88701 83.4951 9.33326 83.2736 8.71703C83.0464 8.09229 82.7028 7.61521 82.1803 7.20344C81.7259 6.84279 81.2943 6.59857 80.7547 6.38843C80.2265 6.18397 79.7637 6.05618 79.2071 5.95963C77.8837 5.73245 76.745 5.66429 75.4046 5.74381C74.6379 5.78924 73.9933 5.88296 73.2436 6.05902C72.2355 6.29756 71.4233 6.68661 70.6083 7.32555C69.9154 7.86795 69.461 8.50405 69.1714 9.33326C69.0379 9.71095 68.9754 10.0432 68.9584 10.4408C68.9271 11.1053 69.0237 11.6704 69.2708 12.2866C69.7109 13.3913 70.4947 14.175 71.5994 14.6152C72.1588 14.8396 72.6501 14.9844 73.2436 15.1065C74.4107 15.3479 75.3961 15.5353 76.5689 15.7341" fill="#999999"/>
</g>
<path d="M10.3208 14.7641H6.43605V9.79738H8.96059C9.44051 9.79738 9.8466 9.78602 10.3237 9.76047C10.9882 9.72355 11.5391 9.42821 11.9338 8.8915C12.144 8.60752 12.2632 8.32071 12.3115 7.97142C12.3541 7.67608 12.3598 7.42335 12.3285 7.12801C12.2206 6.02334 11.3062 5.19414 10.1959 5.19414H6.43321V21.2927H0.00683594V0.0996094H10.5168C10.9342 0.0996094 11.2892 0.108129 11.7038 0.130847C14.4924 0.281354 16.7898 1.82902 17.9711 4.35925C18.5874 5.67689 18.7947 6.94343 18.6356 8.38886C18.3034 11.4331 16.1736 13.7986 13.1833 14.4546C12.1922 14.6732 11.3346 14.7641 10.318 14.7641" fill="#999999"/>
<path d="M94.734 5.86443C94.1348 5.77071 93.6236 5.73096 93.0187 5.73096C92.4139 5.73096 91.9027 5.77071 91.3035 5.86443C89.5656 6.13704 88.1571 6.83562 86.8905 8.05388C85.5331 9.35733 84.7891 10.9022 84.6187 12.7764C84.5165 13.9265 84.6045 14.9204 84.9141 16.0336C85.3883 17.7431 86.28 19.0608 87.6885 20.1399C88.6143 20.8527 89.5372 21.2786 90.6788 21.5285C91.4909 21.7074 92.1895 21.7784 93.0187 21.7784C93.848 21.7784 94.5494 21.7046 95.3615 21.5285C96.5031 21.2786 97.4232 20.8527 98.349 20.1399L95.0974 16.5959C94.5806 17.7431 93.2317 18.2571 92.0845 17.7403C91.5563 17.5018 91.1786 17.1269 90.94 16.5959C90.7185 16.1074 90.5907 15.6673 90.5112 15.1362C90.3494 14.0742 90.3692 13.1512 90.5766 12.0949C90.6816 11.5468 90.8662 11.0981 91.1729 10.6324C91.8402 9.61291 93.209 9.32893 94.2313 9.99627C94.4983 10.1723 94.6942 10.3654 94.8674 10.6324C95.1741 11.1009 95.3559 11.5468 95.4638 12.0949C95.6682 13.1512 95.691 14.0742 95.5291 15.1362C95.4496 15.6673 95.3189 16.1074 95.1003 16.5959L98.3518 20.1399C99.7603 19.0608 100.652 17.7431 101.126 16.0336C101.436 14.9204 101.524 13.9293 101.422 12.7764C101.251 10.9022 100.51 9.35733 99.1526 8.05388C97.8833 6.83562 96.4776 6.13704 94.7368 5.86443" fill="#999999"/>
<mask id="mask2_138_889" style="mask-type:luminance" maskUnits="userSpaceOnUse" x="0" y="0" width="144" height="22">
<path d="M143.49 0H0V21.798H143.49V0Z" fill="white"/>
</mask>
<g mask="url(#mask2_138_889)">
<path d="M68.1804 20.1015C68.0952 18.8548 68.0469 17.7984 68.0242 16.5461C67.9901 14.9019 67.9702 13.5161 67.9589 11.8719C67.9532 10.9859 67.8538 10.2362 67.6323 9.37855C67.3426 8.25401 66.681 7.39924 65.6672 6.83129C65.0538 6.48768 64.4915 6.27754 63.8071 6.12987C61.6234 5.66131 59.698 5.62439 57.4972 6.00492C56.8781 6.11283 56.367 6.2605 55.7877 6.50188C54.4473 7.05563 53.5244 8.06659 53.0956 9.45239C52.9309 9.98058 52.8854 10.4605 52.9507 11.0143C52.9621 11.1165 52.9877 11.2017 53.0331 11.2926L58.1276 11.4175C58.1134 11.0938 58.156 10.8183 58.2668 10.5145C58.4343 10.0487 58.7609 9.71932 59.2266 9.55178C59.911 9.30188 60.567 9.29052 61.2599 9.5177C61.7142 9.66821 62.038 9.99478 62.1799 10.452C62.268 10.7388 62.2254 11.0199 62.0522 11.2642C61.9016 11.48 61.7171 11.6248 61.47 11.7185C61.3167 11.7753 61.1889 11.8179 61.0327 11.8605C60.3256 12.0508 59.7207 12.1814 58.9966 12.3035C58.4229 12.3972 57.943 12.4852 57.3751 12.6017C56.6027 12.755 55.9609 12.9226 55.214 13.1668C54.5296 13.3883 53.9901 13.7035 53.4619 14.1891C52.7747 14.8167 52.3828 15.5635 52.2493 16.4893C52.1641 17.1055 52.184 17.6422 52.3203 18.25C52.6781 19.8289 53.7714 20.996 55.3276 21.4475C57.0513 21.9473 58.67 21.865 60.3341 21.1948C61.1434 20.8682 61.7597 20.4167 62.3191 19.7465L61.9584 17.1453C61.7029 17.5429 61.382 17.8126 60.9532 18.0029C60.5499 18.1818 60.1836 18.2755 59.7434 18.321C59.3771 18.3579 59.0591 18.3295 58.7041 18.2301C58.4144 18.1506 58.1901 18.0171 57.9856 17.7984C57.8124 17.611 57.7102 17.4122 57.6562 17.1623C57.5767 16.7818 57.7017 16.4126 57.9998 16.1599C58.1986 15.9895 58.3946 15.8759 58.6388 15.785C59.2294 15.5664 59.7349 15.4045 60.3398 15.2313C61.0724 15.024 61.6773 14.8025 62.3702 14.4844C62.4384 15.0382 62.4355 15.5124 62.3589 16.0633C62.3021 16.4666 62.1799 16.7988 61.9584 17.1425L62.3191 19.7437C62.4298 20.1128 62.5321 20.4224 62.6599 20.783C62.7309 20.9846 62.8246 21.1437 62.9666 21.2999H68.5779C68.3394 20.925 68.2173 20.553 68.186 20.1072" fill="#999999"/>
<path d="M34.2101 20.1015C34.1249 18.8548 34.0766 17.7984 34.0539 16.5461C34.0198 14.9019 33.9999 13.5161 33.9886 11.8719C33.9829 10.9859 33.8864 10.2362 33.662 9.37855C33.3724 8.25401 32.7135 7.39924 31.6969 6.83129C31.0835 6.48768 30.5212 6.27754 29.8369 6.12987C27.6531 5.66131 25.7277 5.62439 23.5269 6.00492C22.9107 6.11283 22.3967 6.2605 21.8174 6.50188C20.477 7.05563 19.5541 8.06659 19.1253 9.45239C18.9606 9.98058 18.9152 10.4605 18.9805 11.0143C18.9918 11.1165 19.0174 11.2017 19.0628 11.2926L24.1573 11.4175C24.146 11.0938 24.1857 10.8183 24.2965 10.5145C24.464 10.0487 24.7906 9.71932 25.2563 9.55178C25.9407 9.30188 26.5967 9.29052 27.2896 9.5177C27.7468 9.66821 28.0705 9.99478 28.2125 10.452C28.3006 10.7388 28.2551 11.0199 28.0819 11.2642C27.9314 11.48 27.744 11.6248 27.4997 11.7185C27.3464 11.7753 27.2186 11.8179 27.0624 11.8605C26.3553 12.0508 25.7505 12.1814 25.0292 12.3035C24.4584 12.3972 23.9756 12.4852 23.4076 12.6017C22.6381 12.755 21.9935 12.9226 21.2466 13.1668C20.5651 13.3883 20.0255 13.7035 19.4973 14.1891C18.8101 14.8167 18.4182 15.5635 18.2847 16.4893C18.1967 17.1055 18.2194 17.6422 18.3557 18.25C18.7107 19.8289 19.8068 20.996 21.363 21.4475C23.0896 21.9473 24.7054 21.865 26.3695 21.1948C27.1788 20.8682 27.7979 20.4167 28.3545 19.7465L27.9939 17.1453C27.7383 17.5429 27.4174 17.8126 26.9857 18.0029C26.5825 18.1818 26.2162 18.2755 25.7788 18.321C25.4097 18.3579 25.0945 18.3295 24.7395 18.2301C24.4498 18.1506 24.2255 18.0171 24.021 17.7984C23.8478 17.611 23.7456 17.4122 23.6916 17.1623C23.6121 16.7818 23.7371 16.4126 24.0352 16.1599C24.234 15.9895 24.43 15.8759 24.6742 15.785C25.2649 15.5664 25.7732 15.4045 26.378 15.2313C27.1107 15.024 27.7156 14.8025 28.4085 14.4844C28.4766 15.0382 28.4738 15.5124 28.3943 16.0633C28.3375 16.4666 28.2154 16.7988 27.9939 17.1425L28.3545 19.7437C28.4653 20.1128 28.5675 20.4224 28.6953 20.783C28.7663 20.9846 28.86 21.1437 29.002 21.2999H34.6133C34.3748 20.925 34.2527 20.553 34.2214 20.1072" fill="#999999"/>
</g>
</svg>
