<svg width="111" height="41" viewBox="0 0 111 41" fill="none" xmlns="http://www.w3.org/2000/svg">
<path fill-rule="evenodd" clip-rule="evenodd" d="M19.4912 0C22.8973 0 25.6582 2.78298 25.6582 6.21668C25.6582 6.55204 25.6327 6.88741 25.5788 7.21863C25.5257 7.55055 25.4457 7.87694 25.3394 8.19575C25.2331 8.51386 25.1013 8.82369 24.9454 9.12111C24.7887 9.41783 24.6093 9.70213 24.4071 9.97056L19.4912 16.0209L14.9872 10.544L14.5767 9.97194C14.3752 9.70351 14.1951 9.41921 14.0384 9.1218C13.8825 8.82438 13.7507 8.51524 13.6444 8.19644C13.5381 7.87832 13.4574 7.55124 13.4043 7.22001C13.3504 6.8881 13.3242 6.55342 13.3242 6.21737C13.3242 2.78298 16.0858 0 19.4926 0H19.4912ZM16.6648 6.20357C16.6648 4.62887 17.9303 3.35227 19.4926 3.35227C21.0549 3.35227 22.3197 4.62887 22.3197 6.20357C22.3197 7.77827 21.0535 9.05279 19.4919 9.05348C17.9296 9.05348 16.6648 7.77758 16.6648 6.20357ZM21.8457 18.452H17.2775V23.3514L12.7128 17.822L0 33.2184L4.22864 36.7667L12.7128 26.4932L21.1963 36.7667L25.4243 33.2184L21.8457 28.8842V18.452Z" fill="#999999"/>
<path fill-rule="evenodd" clip-rule="evenodd" d="M49.8632 32.6594H52.3418V40.0464H48.6714V36.4361H33.7539V18.4388H37.8045V32.6573H45.8126V18.4374H49.8632V32.6594ZM59.2272 30.5541L67.7107 18.4374H71.7613V36.4347H67.71V24.3181L59.2258 36.4347H55.1759V18.4374H59.2258V30.5541H59.2272ZM110.695 18.4374V36.4347H106.668V29.312H98.3987V36.4347H94.3474V18.4374H98.3987V25.5091H106.668V18.4374H110.695ZM83.0133 18.0945C87.5538 18.0945 90.3761 20.7374 90.3761 24.9922V36.4326H86.9562L86.9176 36.2187L86.6402 34.6771C86.0798 35.3085 84.4493 36.7818 81.4537 36.7818C79.5409 36.7818 77.9089 36.2311 76.7352 35.1884C75.5876 34.172 74.9576 32.7222 74.9576 31.1061C74.9576 29.2319 75.5704 27.7559 76.7807 26.716C78.0442 25.6312 79.9073 25.0813 82.3191 25.0813H86.3938V24.9922C86.3938 22.8579 85.1303 21.5841 83.0133 21.5841C80.7154 21.5841 79.83 22.8862 79.6479 23.7219H75.6545C75.7546 22.1665 76.493 20.7546 77.7399 19.7458C79.0731 18.6658 80.8962 18.0945 83.0133 18.0945ZM86.3938 28.8358V28.3963H82.493C80.2682 28.3963 78.9392 29.3444 78.9392 30.9315C78.9392 32.5186 79.9549 33.2922 81.8001 33.2922C83.2748 33.2922 84.4244 32.8989 85.2159 32.1212C85.9977 31.3531 86.3945 30.2484 86.3945 28.8358H86.3938Z" fill="#999999"/>
</svg>
