<svg width="174" height="21" viewBox="0 0 174 21" fill="none" xmlns="http://www.w3.org/2000/svg">
<path d="M74.5287 12.776L70.0785 0.803711H60.0586V19.9536H69.935V15.2738L68.4133 8.64166L72.4902 19.9536H76.5384L80.6153 8.64166L79.0936 15.2738V19.9536H88.9987V0.803711H78.9501L74.5287 12.776Z" fill="#999999"/>
<path d="M27.5907 14.6421V0.803711H17.7143V14.6421H9.87639V0.803711H0V19.9536H19.5231H27.5907H30.634V14.6421H29.3995H27.5907Z" fill="#999999"/>
<path d="M108.292 0.803711H91.7549V19.9536H101.631V16.4509H108.665C112.972 16.3073 116.733 13.6086 116.733 8.7565C116.762 3.76088 113.202 0.803711 108.292 0.803711ZM101.66 6.14385H104.761C106.368 6.14385 107.546 6.97645 107.546 8.64166C107.546 10.3069 106.455 11.1395 104.761 11.1395H101.66V6.14385Z" fill="#999999"/>
<path d="M173.209 7.52213V1.40681C169.075 0.459367 165.888 0 162.385 0C156.873 0 148.432 1.57907 148.403 10.3645V10.4219C148.432 19.2073 156.873 20.7864 162.385 20.7864C165.888 20.7864 169.075 20.327 173.209 19.3795V13.2642C160.404 15.8194 158.423 13.4078 158.395 10.3932C158.423 7.40729 160.404 4.9669 173.209 7.52213Z" fill="#999999"/>
<path d="M146.651 10.3645C146.623 2.00973 138.813 0 132.583 0C126.353 0 118.515 2.00973 118.486 10.3645V10.4219C118.515 18.7766 126.324 20.7864 132.583 20.7864C138.813 20.7864 146.651 18.7766 146.68 10.4219C146.661 10.4027 146.651 10.3836 146.651 10.3645ZM132.583 14.7572C129.31 14.7572 128.478 12.4029 128.478 10.3932C128.478 8.38345 129.281 6.02919 132.583 6.02919C135.885 6.02919 136.689 8.38345 136.689 10.3932C136.66 12.4029 135.856 14.7572 132.583 14.7572Z" fill="#999999"/>
<path d="M32.585 19.9536H57.2759V14.6421H42.9494V12.374H55.2088V8.38327H42.9494V6.14385H57.2759V0.803711H32.585V19.9536Z" fill="#999999"/>
</svg>
