<svg width="156" height="27" viewBox="0 0 156 27" fill="none" xmlns="http://www.w3.org/2000/svg">
<path d="M34.7325 10.4512H31.5752V7.89551H40.8076V10.4512H37.6503V18.4201H34.7325V10.4512Z" fill="#999999"/>
<path d="M42.3369 7.89429H50.8016V10.3739H45.2241V11.9697H50.2752V14.2711H45.2241V15.9393H50.8777V18.4199H42.3369V7.89522V7.89429Z" fill="#999999"/>
<path d="M55.6827 13.0673L52.2237 7.89551H55.5778L57.442 10.8569L59.3228 7.89551H62.5998L59.1427 13.0376L62.7512 18.4201H59.398L57.3825 15.248L55.3532 18.4201H52.0752L55.6837 13.0673H55.6827Z" fill="#999999"/>
<path d="M64.1318 7.89429H67.0487V11.8333H70.7927V7.89429H73.7096V18.4189H70.7927V14.4187H67.0487V18.4189H64.1318V7.89429Z" fill="#999999"/>
<path d="M75.4609 13.1578C75.4609 10.1342 77.8969 7.68433 81.1452 7.68433C84.3935 7.68433 86.7988 10.1054 86.7988 13.1578C86.7988 16.2102 84.3628 18.6314 81.1155 18.6314C77.8681 18.6314 75.4619 16.2093 75.4619 13.1578H75.4609ZM83.8207 13.1578C83.8207 11.6391 82.7234 10.3153 81.1145 10.3153C79.5057 10.3153 78.453 11.6084 78.453 13.1578C78.453 14.7073 79.5503 15.9986 81.1452 15.9986C82.7401 15.9986 83.8207 14.7063 83.8207 13.1578Z" fill="#999999"/>
<path d="M88.5605 7.89429H91.4783V11.8333H95.2214V7.89429H98.1392V18.4189H95.2214V14.4187H91.4783V18.4189H88.5605V7.89429Z" fill="#999999"/>
<path d="M100.414 7.89429H103.302V13.8181L107.378 7.89429H110.098V18.4189H107.211V12.4952L103.135 18.4189H100.414V7.89429Z" fill="#999999"/>
<path d="M112.365 7.89429H115.282V12.1647L118.905 7.89429H122.364L118.38 12.42L122.499 18.4189H118.996L116.351 14.5106L115.282 15.697V18.4189H112.365V7.89429Z" fill="#999999"/>
<path d="M122.519 13.1578C122.519 10.1342 124.954 7.68433 128.201 7.68433C131.448 7.68433 133.855 10.1054 133.855 13.1578C133.855 16.2102 131.419 18.6314 128.171 18.6314C124.924 18.6314 122.518 16.2093 122.518 13.1578H122.519ZM130.876 13.1578C130.876 11.6391 129.781 10.3153 128.171 10.3153C126.561 10.3153 125.51 11.6084 125.51 13.1578C125.51 14.7073 126.606 15.9986 128.2 15.9986C129.794 15.9986 130.875 14.7063 130.875 13.1578H130.876Z" fill="#999999"/>
<path d="M146.896 7.89429H149.813V11.201H151.407C153.934 11.201 155.784 12.4051 155.784 14.7789C155.784 17.1527 154.13 18.4189 151.56 18.4189H146.897V7.89429H146.896ZM151.332 15.969C152.294 15.969 152.866 15.5327 152.866 14.7065C152.866 13.9694 152.294 13.4876 151.347 13.4876H149.813V15.969H151.333H151.332Z" fill="#999999"/>
<path d="M26.3145 21.0518L21.0527 26.3145L1.58496 26.3154L1.58398 26.3145H1.58496L9.02539 18.873V9.98828H12.0371V18.4189H14.2783V11.7578L19.127 18.4189H21.0527V6.84766L26.3145 1.58594V21.0518ZM24.7295 0L18.8115 5.91895V14.5576L13.9629 7.89453H3.74316V9.98828H6.75488V17.9746L0 24.7295V5.2627L5.2627 0H24.7295Z" fill="#999999"/>
<path d="M136.439 7.89404V12.5107C136.439 13.6024 136.328 15.1806 135.608 15.7395C135.27 16.0013 134.712 16.2018 134.359 16.2018V18.6833H134.635C135.643 18.6833 136.774 18.2776 137.208 18.0019C138.968 16.8851 139.185 14.761 139.185 12.3603V10.4507H141.703V18.4196H144.619V7.89497H136.438L136.439 7.89404Z" fill="#999999"/>
</svg>
