<svg width="143" height="27" viewBox="0 0 143 27" fill="none" xmlns="http://www.w3.org/2000/svg">
<path d="M142.466 13.8026V16.674C142.466 20.2965 140.617 22.1049 136.914 22.1049C133.21 22.1049 131.367 20.2908 131.367 16.674V5.4309C131.367 1.80837 133.216 0 136.914 0C140.611 0 142.466 1.80837 142.466 5.4309V7.52815H138.947V5.21135C138.947 3.79007 138.306 3.07943 137.018 3.07943C135.729 3.07943 135.088 3.79007 135.088 5.21135V16.882C135.088 18.2802 135.729 18.9793 137.018 18.9793C138.306 18.9793 138.947 18.2802 138.947 16.882V13.7968H142.466V13.8026ZM121.049 21.8565H117.224V0.248435H120.54V13.9239L121.892 9.16897L124.937 0.248435H129.033V21.8623H125.682V6.63841L124.157 11.948L121.043 21.8565H121.049ZM107.206 3.33365V9.04764H108.662C110.152 9.04764 110.897 8.28501 110.897 6.76551V5.56378C110.897 4.07895 110.268 3.33942 109.002 3.33942H107.211L107.206 3.33365ZM107.206 12.1329V18.7713H109.338C110.626 18.7713 111.267 18.0606 111.267 16.6393V14.7559C111.267 13.7679 111.077 13.0804 110.689 12.6875C110.331 12.3177 109.719 12.1329 108.864 12.1329H107.206ZM109.101 0.248435C112.775 0.248435 114.618 1.90659 114.618 5.21713V5.99132C114.618 8.21568 113.815 9.66584 112.215 10.3418C114.064 11.0005 114.988 12.5431 114.988 14.9754V16.7376C114.988 20.1521 113.105 21.8623 109.338 21.8623H103.485V0.248435H109.101ZM94.4488 3.33365V10.648H96.211C97.43 10.648 98.0367 9.96627 98.0367 8.60855V5.36734C98.0367 4.00962 97.43 3.32787 96.211 3.32787H94.4488V3.33365ZM96.211 0.248435C99.9086 0.248435 101.763 2.02792 101.763 5.58689V8.39478C101.763 11.9538 99.9144 13.7332 96.211 13.7332H94.4488V21.8507H90.7281V0.248435H96.211ZM81.9982 9.35385H87.1055V12.4391H81.9982V18.7655H88.4286V21.8507H78.2774V0.248435H88.4286V3.33365H81.9982V9.35385ZM76.0069 13.8026V16.674C76.0069 20.2965 74.1581 22.1049 70.4604 22.1049C66.7628 22.1049 64.9082 20.2908 64.9082 16.674V5.4309C64.9082 1.80837 66.757 0 70.4604 0C74.1638 0 76.0069 1.80837 76.0069 5.4309V7.52815H72.4883V5.21135C72.4883 3.79007 71.847 3.07943 70.5586 3.07943C69.2702 3.07943 68.6289 3.79007 68.6289 5.21135V16.882C68.6289 18.2802 69.2702 18.9793 70.5586 18.9793C71.847 18.9793 72.4883 18.2802 72.4883 16.882V13.7968H76.0069V13.8026ZM56.1783 3.33365V10.648H57.9405C59.1595 10.648 59.7662 9.96627 59.7662 8.60855V5.36734C59.7662 4.00962 59.1595 3.32787 57.9405 3.32787H56.1783V3.33365ZM57.9405 0.248435C61.6381 0.248435 63.4927 2.02792 63.4927 5.58689V8.39478C63.4927 11.9538 61.6439 13.7332 57.9405 13.7332H56.1783V21.8507H52.4576V0.248435H57.9405ZM46.9053 16.362C46.4316 18.4593 45.7209 19.9037 44.7734 20.6836C43.6468 21.6311 41.85 22.0298 39.3945 21.8854V18.8579C40.4114 18.9215 41.1567 18.8348 41.6304 18.6095C42.1966 18.3437 42.5433 17.8353 42.682 17.0958L42.7166 16.9109L37.5688 0.248435H41.2549L43.2828 7.62637L44.4326 12.6875L45.3107 7.65525L47.0036 0.248435H50.8976L46.9053 16.362ZM30.5318 18.7713C31.7971 18.7713 32.4268 18.0895 32.4268 16.7318V13.9817C32.4268 12.6239 31.7971 11.9422 30.5318 11.9422H28.3652V18.7655H30.5318V18.7713ZM24.6387 21.8565V0.248435H35.0614V3.33365H28.3594V8.86276H30.526C34.2698 8.86276 36.1418 10.6422 36.1418 14.2012V16.518C36.1418 20.077 34.2698 21.8565 30.526 21.8565H24.6387Z" fill="#999999"/>
<path d="M14.0055 0.247559V22.0347L10.8105 26.1599L17.3392 21.896V0.253336L14.0055 0.247559Z" fill="#999999"/>
<path d="M3.33365 0.247559V22.0347L6.52863 26.1599L0 21.896V0.253336L3.33365 0.247559Z" fill="#999999"/>
<path d="M12.3023 0.253336V21.5725L8.64515 26.2985L5.03418 21.5725V0.247559L12.3023 0.253336Z" fill="#999999"/>
</svg>
