<svg width="201" height="33" viewBox="0 0 201 33" fill="none" xmlns="http://www.w3.org/2000/svg">
<path d="M12.5931 7.3011C12.465 7.3438 12.3796 7.42919 12.3369 7.55729L12.3796 7.59999C12.5077 7.59999 12.7212 7.77078 12.8066 7.89888C12.9347 8.11237 12.9347 8.32586 12.8066 8.41126C12.7212 8.45396 12.5931 8.45396 12.465 8.32586H12.3796C12.4223 8.41126 12.4223 8.49665 12.465 8.53935C12.7639 9.09443 13.2763 9.47872 13.6179 9.35062C14.0022 9.22253 14.0449 8.66745 13.7887 8.11237C13.4898 7.55729 12.9774 7.173 12.5931 7.3011Z" fill="#999999"/>
<path d="M14.6456 0H4.78223C2.04953 0 0 2.09222 0 4.91032V27.7967C0 30.5294 2.00683 32.5362 4.78223 32.5362H14.6456C24.3381 32.5362 31.4261 25.6618 31.4261 16.1827C31.4261 6.83175 24.3381 0 14.6456 0ZM3.15968 30.8283C2.04953 30.2732 1.28095 29.2057 1.28095 27.6259V24.21C2.30572 23.9965 3.37318 23.8257 3.37318 23.8257L3.50127 23.2707C3.03159 23.228 2.09222 23.2707 1.28095 23.2707V19.8548C2.30572 20.111 3.80016 20.4099 4.95302 20.4099C6.95985 20.4099 8.07001 19.2143 8.07001 16.994C8.07001 14.2613 7.17334 11.7421 7.47223 10.1622L7.38683 10.0768C6.40477 11.1016 5.72159 10.8454 5.67889 10.5038C5.5508 9.82064 6.70366 9.00937 7.38683 8.71048C7.38683 8.66778 7.42953 8.62509 7.42953 8.58239C6.78905 8.66778 6.06318 8.58239 6.02048 8.1554C5.97778 7.64302 7.04524 7.13064 8.45429 7.25874L8.53969 7.17334C8.45429 7.13064 8.36889 7.08794 8.2408 7.04524C7.89921 6.87445 7.77112 6.53286 7.89921 6.31937C8.02731 6.06318 8.41159 5.97778 8.75318 5.97778C9.26556 5.97778 9.69255 6.10588 9.99144 6.23397C10.0341 6.23397 10.0768 6.19127 10.0768 6.19127C9.94874 6.10588 9.86334 6.02048 9.82064 5.89239C9.73524 5.76429 9.69255 5.5508 9.86334 5.4227C10.0768 5.25191 10.5465 5.20921 11.0162 5.63619L11.2724 5.89239C11.3151 5.89239 11.3578 5.89239 11.4432 5.84969C11.3578 5.72159 11.3151 5.63619 11.2724 5.5081C11.2297 5.33731 11.3151 5.20921 11.4859 5.12381C11.6994 5.08111 11.9129 5.16651 12.041 5.33731C12.1691 5.5508 12.2545 5.80699 12.2972 5.97778C11.3578 6.10588 8.75318 6.70366 8.75318 9.86334C8.75318 13.023 11.3151 16.1827 11.3151 20.9649C11.3151 22.7156 10.9308 24.4662 9.35096 26.473C8.1127 28.0529 6.14858 29.59 3.15968 30.8283ZM17.421 9.39366C17.8479 9.35096 18.2749 9.35096 18.7873 9.26556C18.1468 9.90604 17.7199 10.76 17.4637 11.6994C17.421 11.8275 17.3783 11.9556 17.0794 11.9983C14.3467 12.2118 11.9983 11.8702 11.2297 10.4184C11.1443 10.2476 11.1443 10.1195 11.3151 10.0341C11.4859 9.94874 11.6994 9.94874 11.9556 9.94874L11.9983 9.82064C11.5713 9.56445 10.8454 9.47905 10.4611 9.94874C10.2049 10.2476 10.2476 10.6746 10.5038 11.0589L10.6319 11.0162C10.6319 10.9308 10.5892 10.8454 10.5892 10.76C10.5892 10.7173 10.6319 10.7173 10.6319 10.6746C10.6604 10.6746 10.6888 10.6888 10.7173 10.7173C11.6567 12.1264 13.4927 12.596 15.1152 12.9803C17.4637 13.4927 18.3603 14.6029 18.2749 14.8591C18.1895 14.9445 18.1041 14.8164 18.0614 14.7737C16.0119 12.8522 8.79588 13.9624 9.35096 9.22286C9.47905 8.1127 10.2049 6.95985 11.4859 6.66096C11.4005 6.78905 11.3151 6.95985 11.2297 7.21604L11.4432 7.25874C12.041 6.23397 13.5781 6.27667 13.7062 7.30143C13.7062 7.30143 14.9018 8.53969 15.2006 8.79588C15.286 8.83858 15.286 8.88128 15.2433 8.96667C15.2006 9.00937 15.0726 9.00937 14.9018 8.96667L14.8591 9.09477C15.2006 9.30826 16.0119 9.47905 17.421 9.39366ZM19.0862 9.69255C19.5986 9.13747 20.1537 8.96667 21.4346 8.96667C23.1853 8.96667 24.637 10.7173 24.637 13.1938C24.637 13.5781 24.1673 13.5354 23.9965 13.2365C23.3987 12.2118 22.5875 12.041 21.3492 11.9556C20.4099 11.9129 19.2997 11.9983 18.2749 12.041C18.1041 12.041 18.0187 11.9129 18.0614 11.8275C18.3603 10.8881 18.6165 10.2049 19.0862 9.69255ZM21.9897 22.4167C21.52 24.1673 19.1716 24.8505 17.0367 24.9786C16.994 25.1067 16.9086 25.2348 16.8659 25.3629C18.1041 25.4056 19.2997 25.1494 19.9829 24.9359C19.3424 26.1314 17.1648 27.1135 14.9018 27.1135C13.7916 27.1135 12.4252 26.9 11.2297 26.3449C12.0837 24.7651 12.4252 23.1426 12.5106 21.6908C13.877 22.0751 15.7984 22.2886 17.3783 22.1605C20.1537 21.947 22.2459 20.9222 23.3987 20.1964C22.7156 21.9897 20.0683 23.0572 17.5064 23.3987C17.5064 23.5268 17.4637 23.6549 17.4637 23.783C19.3424 23.6122 21.1784 22.9718 21.9897 22.4167ZM14.6456 31.2126H5.97778C8.45429 29.8462 9.69255 28.5653 10.5465 27.3697C12.2118 28.0956 13.8343 28.4372 15.286 28.4372C18.0187 28.4372 20.3245 27.1989 21.52 24.9359C22.7583 24.21 23.5695 22.6729 23.6549 21.5627C24.4235 20.5807 24.5516 19.3424 24.3381 18.5311C24.2954 18.3176 24.1246 18.3176 23.8257 18.4884C21.3919 19.9402 19.0008 20.666 16.7378 20.666C15.3714 20.666 13.9624 20.4526 12.4679 20.0256C12.3399 18.403 12.041 17.0794 11.9129 16.2681C11.7421 15.2006 11.9983 14.3894 13.1938 14.3894C14.0478 14.3894 15.6703 14.6029 16.9513 15.2006C18.2322 15.7984 18.9581 16.9086 19.5132 16.9086C19.7267 16.9086 19.9402 16.7805 19.9402 16.3108C19.9402 15.3714 19.5986 13.9197 19.2143 13.3646C20.4099 13.2792 21.3492 13.3219 21.8616 13.3646C22.9718 13.5781 23.0145 14.1332 23.228 14.4748C23.4414 14.8164 23.8257 14.9872 24.2527 14.9872C25.064 14.9872 25.5764 14.5602 25.5764 13.023C25.5764 9.64985 23.4414 8.02731 21.2211 8.02731C19.3851 8.02731 18.7019 8.41159 16.9513 8.41159C15.713 8.41159 14.6883 5.89239 13.2792 5.5935C12.6814 4.22715 11.2724 4.05635 10.4184 4.73953C9.64985 4.26984 8.41159 4.52604 8.36889 5.38C7.47223 5.12381 6.31937 5.5935 6.83175 6.74635C4.65413 6.78905 4.22715 8.75318 5.72159 8.96667C3.80016 10.0341 4.69683 11.9129 6.27667 11.5286C6.40477 12.8522 6.91715 14.9872 6.91715 16.4816C6.91715 18.5311 5.97778 19.0008 4.69683 19.0008C3.71476 19.0008 2.22032 18.6165 1.19556 18.3603V5.03842C1.19556 2.7754 2.8181 1.32365 4.78223 1.32365H14.5602C23.2707 1.32365 29.9316 7.30143 29.9316 16.1827C30.0597 25.1494 23.356 31.2126 14.6456 31.2126Z" fill="#999999"/>
<path d="M200.552 21.2639L195.684 10.5893C195.129 9.43645 194.361 8.92407 193.251 8.92407H193.08C191.927 8.92407 191.158 9.43645 190.603 10.5893L185.736 21.2639C185.266 22.3314 185.608 23.2707 186.59 23.655C187.486 23.9966 188.298 23.7831 188.81 22.7584L189.92 20.41C190.902 20.7515 192.14 20.9223 193.251 20.9223C194.446 20.9223 195.599 20.7515 196.453 20.41L197.52 22.7584C197.99 23.7831 198.929 23.9539 199.741 23.655C200.637 23.228 201.022 22.246 200.552 21.2639ZM193.165 17.72C192.439 17.72 191.628 17.6346 191.03 17.4211L193.122 12.7669L195.215 17.4211C194.574 17.5919 193.891 17.72 193.165 17.72Z" fill="#999999"/>
<path d="M182.959 20.282H182.02V10.5041C182.02 9.39389 181.166 8.75342 180.184 8.75342C179.202 8.75342 178.433 9.39389 178.433 10.5041V20.282H172.199V10.5041C172.199 9.39389 171.388 8.75342 170.363 8.75342C169.339 8.75342 168.527 9.39389 168.527 10.5041V21.9899C168.527 22.972 169.168 23.7406 170.278 23.7406H181.123V25.3204C181.123 26.4306 181.935 27.0711 182.874 27.0711C183.899 27.0711 184.625 26.4306 184.625 25.3204V22.0326C184.71 20.8798 184.027 20.282 182.959 20.282Z" fill="#999999"/>
<path d="M164.896 20.282H163.957V10.5041C163.957 9.39389 163.103 8.75342 162.121 8.75342C161.138 8.75342 160.37 9.39389 160.37 10.5041V20.282H154.136V10.5041C154.136 9.39389 153.325 8.75342 152.3 8.75342C151.275 8.75342 150.464 9.39389 150.464 10.5041V21.9899C150.464 22.972 151.104 23.7406 152.215 23.7406H163.06V25.3204C163.06 26.4306 163.871 27.0711 164.811 27.0711C165.835 27.0711 166.561 26.4306 166.561 25.3204V22.0326C166.647 20.8798 165.963 20.282 164.896 20.282Z" fill="#999999"/>
<path d="M144.832 8.88151H144.703C143.636 8.88151 142.953 9.39389 142.184 10.4614L136.335 18.7876V10.5041C136.335 9.39389 135.609 8.75342 134.627 8.75342C133.645 8.75342 132.876 9.39389 132.876 10.5041V21.7337C132.876 22.9293 133.687 23.7406 134.883 23.7406H135.054C136.164 23.7406 136.932 23.1855 137.615 22.1607L143.465 13.8345V22.1607C143.465 23.2709 144.191 23.9114 145.173 23.9114C146.155 23.9114 146.881 23.2709 146.881 22.1607V10.8456C146.881 9.65009 146.155 8.88151 144.832 8.88151Z" fill="#999999"/>
<path d="M127.325 8.88159H117.291C116.138 8.88159 115.54 9.69286 115.54 10.6322V22.1181C115.54 23.2283 116.394 23.8687 117.376 23.8687C118.358 23.8687 119.127 23.2283 119.127 22.1181V12.3402H125.531V22.1181C125.531 23.2283 126.343 23.8687 127.368 23.8687C128.392 23.8687 129.204 23.2283 129.204 22.0327V10.5895C129.161 9.65016 128.478 8.88159 127.325 8.88159Z" fill="#999999"/>
<path d="M101.324 8.75366C97.0111 8.75366 93.6807 11.9987 93.6807 16.354C93.6807 20.7092 96.9684 23.9543 101.324 23.9543C105.679 23.9543 108.967 20.6665 108.967 16.3113C108.881 11.9133 105.594 8.75366 101.324 8.75366ZM101.324 20.4957C98.9326 20.4957 97.2673 18.7451 97.2673 16.3113C97.2673 13.8775 98.9753 12.1695 101.324 12.1695C103.672 12.1695 105.38 13.9202 105.38 16.3113C105.337 18.7451 103.715 20.4957 101.324 20.4957Z" fill="#999999"/>
<path d="M91.1622 20.2823H90.2228V10.6325C90.2228 9.65041 89.5824 8.88184 88.4722 8.88184H80.2314C79.2493 8.88184 78.6089 9.52231 78.6089 10.6325V12.9809C78.6089 14.6461 78.5662 15.9698 78.2673 17.3361C77.9684 18.7025 77.6268 19.5564 77.1144 20.2823H76.6874C75.5346 20.2823 74.9795 21.0082 74.9795 22.033V25.3207C74.9795 26.4309 75.7908 27.0714 76.7301 27.0714C77.7549 27.0714 78.4808 26.4309 78.4808 25.3207V23.7409H89.3262V25.3207C89.3262 26.4309 90.1374 27.0714 91.0768 27.0714C92.1016 27.0714 92.8274 26.4309 92.8274 25.3207V22.033C92.9128 21.0082 92.3578 20.2823 91.1622 20.2823ZM86.6362 20.2823H80.7865C81.1708 19.4711 81.427 18.7879 81.6831 17.7631C81.8966 16.653 82.0247 15.5428 82.0674 14.091L82.1101 12.3831H86.6789V20.2823H86.6362Z" fill="#999999"/>
<path d="M66.9956 8.75366C62.683 8.75366 59.3525 11.9987 59.3525 16.354C59.3525 20.7092 62.6403 23.9543 66.9956 23.9543C71.3508 23.9543 74.6386 20.6665 74.6386 16.3113C74.6386 11.9133 71.3508 8.75366 66.9956 8.75366ZM66.9956 20.4957C64.6044 20.4957 62.9392 18.7451 62.9392 16.3113C62.9392 13.8775 64.6471 12.1695 66.9956 12.1695C69.344 12.1695 71.0519 13.9202 71.0519 16.3113C71.0519 18.7024 69.4721 20.4957 66.9956 20.4957Z" fill="#999999"/>
<path d="M56.7494 20.2823H55.81V10.6325C55.81 9.65041 55.1695 8.88184 54.0594 8.88184H45.8186C44.8365 8.88184 44.196 9.52231 44.196 10.6325V12.9809C44.196 14.6461 44.196 15.9698 43.8545 17.3361C43.5556 18.7025 43.214 19.5564 42.7016 20.2823H42.3173C41.1645 20.2823 40.6094 21.0082 40.6094 22.033V25.3207C40.6094 26.4309 41.4206 27.0714 42.36 27.0714C43.3848 27.0714 44.1106 26.4309 44.1106 25.3207V23.7409H54.9561V25.3207C54.9561 26.4309 55.7673 27.0714 56.7067 27.0714C57.7315 27.0714 58.4573 26.4309 58.4573 25.3207V22.033C58.5427 21.0082 57.9876 20.2823 56.7494 20.2823ZM52.2661 20.2823H46.4164C46.8006 19.4711 47.0568 18.7879 47.313 17.7631C47.5265 16.653 47.6546 15.5428 47.6973 14.091L47.74 12.3831H52.3087L52.2661 20.2823Z" fill="#999999"/>
</svg>
