<svg width="211" height="25" viewBox="0 0 211 25" fill="none" xmlns="http://www.w3.org/2000/svg">
<path fill-rule="evenodd" clip-rule="evenodd" d="M69.6658 19.4685H64.6567V23.4375H69.6658V22.0866L71.5308 22.3855V23.1267C71.5308 23.7005 71.3993 24.0951 71.1243 24.2983C70.8494 24.5015 70.3234 24.6091 69.5582 24.6091H64.7882C64.0112 24.6091 63.4851 24.5015 63.2102 24.2983C62.9352 24.0951 62.8037 23.7005 62.8037 23.1267V19.8271C62.8037 19.2653 62.9352 18.8708 63.2102 18.6675C63.4851 18.4643 64.0112 18.3567 64.7882 18.3567H69.5582C70.3234 18.3567 70.8494 18.4643 71.1243 18.6675C71.3993 18.8708 71.5308 19.2653 71.5308 19.8271V20.4249L69.6658 20.664V19.4685Z" fill="#999999"/>
<path fill-rule="evenodd" clip-rule="evenodd" d="M77.0613 19.4685H83.1822V23.4375H77.0613V19.4685ZM75.1963 23.1387C75.1963 23.7125 75.3278 24.107 75.6028 24.3102C75.8777 24.5135 76.4037 24.6211 77.1808 24.6211H83.0507C83.8277 24.6211 84.3538 24.5135 84.6287 24.3102C84.9037 24.107 85.0352 23.7125 85.0352 23.1387V19.8271C85.0352 19.2653 84.9037 18.8708 84.6287 18.6675C84.3538 18.4643 83.8277 18.3567 83.0507 18.3567H77.1808C76.4037 18.3567 75.8777 18.4643 75.6028 18.6675C75.3278 18.8708 75.1963 19.2653 75.1963 19.8271V23.1387Z" fill="#999999"/>
<path fill-rule="evenodd" clip-rule="evenodd" d="M88.9309 24.6211V18.3567H90.4372L94.203 22.1464L97.8851 18.3567H99.3676V24.6211H97.646V20.7477C97.646 20.6759 97.646 20.5803 97.67 20.4608C97.6819 20.3532 97.6939 20.2217 97.7178 20.0782C97.6221 20.2336 97.5265 20.3771 97.4548 20.4727C97.383 20.5803 97.3113 20.664 97.2515 20.7357L94.2508 23.8679H93.8802L90.8676 20.7238C90.76 20.6042 90.6644 20.4966 90.5807 20.389C90.497 20.2814 90.4372 20.1858 90.3894 20.0902C90.4014 20.2217 90.4133 20.3293 90.4253 20.4368C90.4253 20.5444 90.4253 20.652 90.4253 20.7477V24.6211H88.9189H88.9309Z" fill="#999999"/>
<path fill-rule="evenodd" clip-rule="evenodd" d="M109.962 19.5402C110.082 19.612 110.141 19.7435 110.141 19.9228V20.5923C110.141 20.7835 110.082 20.9031 109.962 20.9748C109.843 21.0465 109.627 21.0824 109.305 21.0824H105.12V19.4326H109.305C109.627 19.4326 109.843 19.4685 109.962 19.5402ZM105.108 24.6211V22.1703H110.118C110.751 22.1703 111.217 22.0747 111.504 21.8834C111.791 21.6921 111.935 21.3813 111.935 20.9509V19.5641C111.935 19.1457 111.791 18.8349 111.504 18.6436C111.217 18.4523 110.763 18.3567 110.118 18.3567H103.279V24.6211H105.108Z" fill="#999999"/>
<path fill-rule="evenodd" clip-rule="evenodd" d="M117.779 19.5641L119.5 22.1225H115.997L117.779 19.5641ZM114.276 24.6211L115.208 23.2582H120.277L121.234 24.6211H123.326L118.735 18.3567H116.942L112.423 24.6211H114.276Z" fill="#999999"/>
<path fill-rule="evenodd" clip-rule="evenodd" d="M125.873 24.6211V18.3567H127.14L132.759 22.0508C132.95 22.1703 133.118 22.2899 133.261 22.3975C133.405 22.5051 133.536 22.6246 133.668 22.7322C133.632 22.3855 133.62 22.1344 133.608 21.991C133.608 21.8475 133.596 21.728 133.596 21.6563V18.3686H135.27V24.633H134.002L128.133 20.7596C127.989 20.664 127.87 20.5803 127.762 20.4966C127.654 20.4129 127.559 20.3412 127.463 20.2575C127.487 20.4488 127.511 20.6281 127.523 20.8075C127.535 20.9868 127.547 21.1302 127.547 21.2617V24.645H125.873V24.6211Z" fill="#999999"/>
<path fill-rule="evenodd" clip-rule="evenodd" d="M141.581 24.6211V21.8236L137.433 18.3567H139.919L142.657 20.7596L145.407 18.3567H147.594L143.458 21.7758V24.6211H141.581Z" fill="#999999"/>
<path fill-rule="evenodd" clip-rule="evenodd" d="M32.6998 0.095459C25.2518 0.095459 19.2266 3.13201 19.2266 6.8739C19.2266 10.6158 25.2638 13.6523 32.6998 13.6523C40.1357 13.6523 46.173 10.6158 46.173 6.8739C46.173 3.13201 40.1357 0.095459 32.6998 0.095459ZM32.6998 9.99414C29.2567 9.99414 26.4712 8.59541 26.4712 6.86195C26.4712 5.12848 29.2567 3.72976 32.6998 3.72976C36.1428 3.72976 38.9283 5.12848 38.9283 6.86195C38.9283 8.59541 36.1428 9.99414 32.6998 9.99414Z" fill="#999999"/>
<path fill-rule="evenodd" clip-rule="evenodd" d="M173.681 0.095459C166.233 0.095459 160.208 3.13201 160.208 6.8739C160.208 10.6158 166.245 13.6523 173.681 13.6523C181.117 13.6523 187.154 10.6158 187.154 6.8739C187.154 3.13201 181.129 0.095459 173.681 0.095459ZM173.681 9.99414C170.238 9.99414 167.453 8.59541 167.453 6.86195C167.453 5.12848 170.238 3.72976 173.681 3.72976C177.124 3.72976 179.91 5.12848 179.91 6.86195C179.91 8.59541 177.124 9.99414 173.681 9.99414Z" fill="#999999"/>
<path fill-rule="evenodd" clip-rule="evenodd" d="M18.8171 2.05596C16.1152 1.18325 12.9472 0.669189 9.55199 0.669189C6.15679 0.669189 2.77354 1.21912 0 2.1516V6.21628C1.6976 5.64244 3.58648 5.22402 5.59491 4.97296V12.6241H13.3895V4.96101C15.3382 5.18815 17.1553 5.58267 18.8171 6.12064V2.05596Z" fill="#999999"/>
<path fill-rule="evenodd" clip-rule="evenodd" d="M111.048 2.05596C108.346 1.18325 105.166 0.669189 101.782 0.669189C98.3992 0.669189 95.004 1.20716 92.2305 2.1516V6.21628C93.9281 5.64244 95.8169 5.22402 97.8254 4.97296V12.6241H105.62V4.96101C107.569 5.18815 109.386 5.58267 111.048 6.12064V2.05596Z" fill="#999999"/>
<path fill-rule="evenodd" clip-rule="evenodd" d="M144.104 12.6239H136.298V1.43408H144.104V12.6239Z" fill="#999999"/>
<path fill-rule="evenodd" clip-rule="evenodd" d="M154.784 1.43408H146.989V12.6239H159.877V9.07328H154.784V1.43408Z" fill="#999999"/>
<path fill-rule="evenodd" clip-rule="evenodd" d="M203.177 5.51048C203.177 4.48235 201.515 3.64551 199.459 3.64551C197.403 3.64551 195.741 4.48235 195.741 5.51048C195.741 5.78544 195.861 6.04845 196.076 6.27559L199.71 4.57799L202.46 6.62229C202.926 6.31146 203.201 5.9289 203.201 5.51048H203.177Z" fill="#999999"/>
<path fill-rule="evenodd" clip-rule="evenodd" d="M210.112 5.51122C210.112 2.47467 205.198 0 199.149 0C196.304 0 193.722 0.549927 191.773 1.43459C189.573 2.43881 188.187 3.88535 188.187 5.49927V12.6244H195.981V10.7833C196.985 10.9388 198.049 11.0224 199.149 11.0224C199.221 11.0224 199.293 11.0224 199.364 11.0224L203.967 14.4416L209.49 11.8593L206.466 9.61176C208.701 8.60755 210.112 7.14905 210.112 5.51122ZM199.46 7.37619C197.954 7.37619 196.651 6.9219 196.065 6.27634C195.85 6.03724 195.73 5.78619 195.73 5.51122C195.73 4.4831 197.392 3.64625 199.448 3.64625C201.504 3.64625 203.166 4.4831 203.166 5.51122C203.166 5.92965 202.891 6.3122 202.425 6.62303C201.743 7.07732 200.667 7.37619 199.436 7.37619H199.46Z" fill="#999999"/>
<path fill-rule="evenodd" clip-rule="evenodd" d="M81.8601 5.35576C81.7884 5.12861 81.7047 4.90147 81.5971 4.68628H81.5254L81.8601 5.35576Z" fill="#999999"/>
<path fill-rule="evenodd" clip-rule="evenodd" d="M81.6089 4.68608C80.7362 2.77329 78.8114 1.44629 76.5758 1.44629H47.4775V12.6361H55.2722V4.68608H59.4086L63.258 12.4687H71.4591L67.6096 4.68608H73.3361L77.1855 12.4687H85.3866L81.6089 4.68608Z" fill="#999999"/>
<path fill-rule="evenodd" clip-rule="evenodd" d="M121.533 1.42284C114.91 2.29555 109.854 6.92211 109.854 12.5051C109.854 12.5409 109.854 12.5887 109.854 12.6246H117.983V9.75543H125.777V12.6246H133.405V1.4348L121.522 1.41089L121.533 1.42284ZM125.789 7.02971H118.64C119.477 6.07331 120.493 5.22451 121.641 4.48331H125.789V7.02971Z" fill="#999999"/>
</svg>
