<svg width="225" height="19" viewBox="0 0 225 19" fill="none" xmlns="http://www.w3.org/2000/svg">
<path d="M7.93817 8.8632L15.5926 18.4487H10.4226L4.3782 10.6202H4.29242V18.4487H0V0H4.26603V7.49663H4.35181L10.3929 0H15.3122L7.93817 8.8632ZM65.5609 18.4455H60.8989L59.1173 14.0724H53.0729L51.3804 18.4455H47.1407L54.4586 0H57.847L65.5609 18.4455ZM57.8173 10.6755L56.8012 7.7797C56.4943 6.88818 56.2403 6.11053 56.1281 5.5216H56.0951C55.9895 6.13331 55.7289 6.91421 55.422 7.72439L54.2937 10.6755H57.8206H57.8173ZM21.604 10.8122H27.6417V7.35672H21.604V3.42945H27.612L29.0472 0H17.2819V18.4455H28.5985V15.0193H21.604V10.8122ZM47.1407 18.4455H41.9575L37.2296 11.1636L35.7515 11.1701V18.4455H31.4129V0H36.7875C40.2847 0 42.0631 0.361166 43.1683 1.18762C44.5013 2.18326 45.2337 3.64094 45.2337 5.21575C45.2337 8.9543 41.687 10.2591 41.687 10.2591L47.1407 18.4455ZM41.0238 5.67128C41.0238 4.18432 39.7535 3.52706 38.1963 3.52706H35.7548V7.87731H37.7707C39.6084 7.87731 41.0271 7.25585 41.0271 5.66802L41.0238 5.67128ZM220.124 0V18.4455H224.46V0H220.124ZM77.8013 6.35456C77.2372 7.22006 76.7819 7.9977 76.4453 8.66797H76.3892C75.9669 7.94239 75.5149 7.27212 74.9507 6.49447L70.2855 0H66.389V18.4455H70.6847V8.94454C70.6847 8.44347 70.6847 7.71788 70.655 7.10618H70.7111C71.107 7.80248 71.559 8.35887 71.9516 8.88923L75.4291 13.5681H77.3196L80.3715 9.05517C80.6817 8.58012 81.4438 7.49337 81.6121 7.10292H81.6418C81.6121 7.65931 81.6121 8.41093 81.6121 9.0812V18.4455H85.9078V0H81.9816L77.8013 6.35456ZM105.044 18.4455H100.382L98.6036 14.0724H92.5559L90.8634 18.4455H86.627L93.9416 0H97.33L105.044 18.4455ZM97.3036 10.6723L96.2875 7.77645C95.9773 6.88492 95.7233 6.10402 95.6111 5.51835H95.5814C95.4692 6.13005 95.2152 6.91095 94.905 7.71788L93.7767 10.669H97.3069L97.3036 10.6723ZM123.5 6.35456C122.936 7.22006 122.484 7.9977 122.144 8.66797H122.088C121.666 7.94239 121.214 7.27212 120.65 6.49447L115.984 0H112.088V18.4455H116.384V8.94454C116.384 8.44347 116.384 7.71788 116.354 7.10618H116.41C116.806 7.80248 117.258 8.35887 117.651 8.88923L121.128 13.5681H123.019L126.07 9.05517C126.381 8.58012 127.143 7.49337 127.311 7.10292H127.341C127.311 7.65931 127.311 8.41093 127.311 9.0812V18.4455H131.607V0H127.681L123.5 6.35456ZM150.835 18.4455H146.173L144.395 14.0724H138.347L136.655 18.4455H132.418L139.733 0H143.121L150.835 18.4455ZM143.095 10.6723L142.079 7.77645C141.769 6.88492 141.515 6.10402 141.402 5.51835H141.373C141.261 6.13005 141.006 6.91095 140.696 7.71788L139.568 10.669H143.098L143.095 10.6723ZM186.082 0L187.471 3.31882H195.178L185.798 18.4455H201.704V15.0063H192.776L201.876 0H186.082ZM178.081 0L185.795 18.4455H181.133L179.351 14.0724H173.307L171.614 18.4455H167.375L174.696 0H178.084H178.081ZM178.055 10.6755L177.038 7.7797C176.732 6.88818 176.478 6.11053 176.365 5.5216H176.332C176.227 6.13331 175.966 6.91421 175.659 7.72439L174.531 10.6755H178.058H178.055ZM161.924 10.2591L167.378 18.4455H162.195L157.467 11.1636L155.989 11.1701V18.4455H151.65V0H157.025C160.519 0 162.3 0.361166 163.402 1.18762C164.735 2.18326 165.468 3.64094 165.468 5.21575C165.468 8.9543 161.921 10.2591 161.921 10.2591H161.924ZM161.261 5.67128C161.261 4.18432 159.991 3.52706 158.434 3.52706H155.992V7.87731H158.008C159.846 7.87731 161.264 7.25585 161.264 5.66802L161.261 5.67128ZM202.463 0L203.852 3.31882H211.559L202.179 18.4455H218.085V15.0063H209.157L218.257 0H202.463Z" fill="#999999"/>
</svg>
