<svg width="20" height="20" viewBox="0 0 20 20" fill="none" xmlns="http://www.w3.org/2000/svg">
<g clip-path="url(#clip0_1871_11487)">
<path d="M2.14842 8.85533C1.49728 8.85536 0.984775 9.38293 1.00362 10.0338C1.02247 10.6846 1.5656 11.2122 2.21669 11.2123L2.18253 10.0338L2.14842 8.85533ZM18.2038 10.8671C18.6508 10.4069 18.6292 9.66071 18.1554 9.20048L10.4354 1.70087C9.96167 1.24066 9.2152 1.24066 8.76813 1.70087C8.32106 2.16109 8.34267 2.90724 8.81642 3.36746L15.6787 10.0338L9.20269 16.7001C8.75565 17.1604 8.77722 17.9065 9.25099 18.3667C9.72476 18.8269 10.4712 18.8269 10.9183 18.3667L18.2038 10.8671ZM2.18253 10.0338L2.21669 11.2123L17.3801 11.2122L17.346 10.0338L17.3118 8.85533L2.14842 8.85533L2.18253 10.0338Z" fill="white"/>
</g>
<defs>
<clipPath id="clip0_1871_11487">
<rect width="14" height="14" fill="white" transform="translate(9.8995) rotate(45)"/>
</clipPath>
</defs>
</svg>
