<svg width="81" height="39" viewBox="0 0 81 39" fill="none" xmlns="http://www.w3.org/2000/svg">
<g clip-path="url(#clip0_244_5232)">
<g clip-path="url(#clip1_244_5232)">
<g clip-path="url(#clip2_244_5232)">
<path d="M78.8656 9.4205H78.2768V5.88735C78.2768 2.58975 70.9749 -0.0012207 61.7888 -0.0012207C52.6026 -0.0012207 45.3007 2.58975 45.3007 5.88735V9.4205H44.7119C43.7366 9.4205 42.9453 10.211 42.9453 11.1871V17.0757C42.9453 18.0509 43.7366 18.8422 44.7119 18.8422H45.3007V30.6194C45.3007 31.92 46.3556 32.9748 47.6562 32.9748V35.3302C47.6562 36.6308 48.711 37.6857 50.0116 37.6857H52.367C53.6677 37.6857 54.7225 36.6308 54.7225 35.3302V32.9748H68.855V35.3302C68.855 36.6308 69.9098 37.6857 71.2105 37.6857H73.5659C74.8665 37.6857 75.9213 36.6308 75.9213 35.3302V32.9748H76.3924C77.5701 32.9748 78.2768 32.0326 78.2768 31.0904V18.8422H78.8656C79.8409 18.8422 80.6322 18.0509 80.6322 17.0757V11.1871C80.6322 10.211 79.8409 9.4205 78.8656 9.4205ZM51.1894 29.4416C49.8887 29.4416 48.8339 28.3869 48.8339 27.0862C48.8339 25.7856 49.8887 24.7308 51.1894 24.7308C52.49 24.7308 53.5448 25.7856 53.5448 27.0862C53.5448 28.3869 52.49 29.4416 51.1894 29.4416ZM52.367 21.1976C51.0664 21.1976 50.0116 20.1428 50.0116 18.8422V9.4205C50.0116 8.11986 51.0664 7.06506 52.367 7.06506H71.2105C72.5111 7.06506 73.5659 8.11986 73.5659 9.4205V18.8422C73.5659 20.1428 72.5111 21.1976 71.2105 21.1976H52.367ZM72.3881 29.4416C71.0876 29.4416 70.0327 28.3869 70.0327 27.0862C70.0327 25.7856 71.0876 24.7308 72.3881 24.7308C73.6888 24.7308 74.7436 25.7856 74.7436 27.0862C74.7436 28.3869 73.6888 29.4416 72.3881 29.4416Z" fill="#3A3A3A"/>
<path d="M35.9203 9.4205H35.3314V5.88735C35.3314 2.58975 28.0296 -0.0012207 18.8434 -0.0012207C9.65729 -0.0012207 2.35543 2.58975 2.35543 5.88735V9.4205H1.76657C0.791277 9.4205 0 10.211 0 11.1871V17.0757C0 18.0509 0.791277 18.8422 1.76657 18.8422H2.35543V30.6194C2.35543 31.92 3.41023 32.9748 4.71086 32.9748V35.3302C4.71086 36.6308 5.76565 37.6857 7.06629 37.6857H9.42172C10.7224 37.6857 11.7771 36.6308 11.7771 35.3302V32.9748H25.9097V35.3302C25.9097 36.6308 26.9645 37.6857 28.2652 37.6857H30.6206C31.9212 37.6857 32.976 36.6308 32.976 35.3302V32.9748H33.4471C34.6248 32.9748 35.3314 32.0326 35.3314 31.0904V18.8422H35.9203C36.8956 18.8422 37.6869 18.0509 37.6869 17.0757V11.1871C37.6869 10.211 36.8956 9.4205 35.9203 9.4205ZM8.244 29.4416C6.94336 29.4416 5.88857 28.3869 5.88857 27.0862C5.88857 25.7856 6.94336 24.7308 8.244 24.7308C9.54464 24.7308 10.5994 25.7856 10.5994 27.0862C10.5994 28.3869 9.54464 29.4416 8.244 29.4416ZM9.42172 21.1976C8.12108 21.1976 7.06629 20.1428 7.06629 18.8422V9.4205C7.06629 8.11986 8.12108 7.06506 9.42172 7.06506H28.2652C29.5658 7.06506 30.6206 8.11986 30.6206 9.4205V18.8422C30.6206 20.1428 29.5658 21.1976 28.2652 21.1976H9.42172ZM29.4428 29.4416C28.1422 29.4416 27.0874 28.3869 27.0874 27.0862C27.0874 25.7856 28.1422 24.7308 29.4428 24.7308C30.7435 24.7308 31.7983 25.7856 31.7983 27.0862C31.7983 28.3869 30.7435 29.4416 29.4428 29.4416Z" fill="#D3D3D3"/>
</g>
</g>
</g>
<defs>
<clipPath id="clip0_244_5232">
<rect width="81" height="38.41" fill="white"/>
</clipPath>
<clipPath id="clip1_244_5232">
<rect width="81" height="38.41" fill="white"/>
</clipPath>
<clipPath id="clip2_244_5232">
<rect width="81" height="38.4124" fill="white" transform="translate(0 -0.0012207)"/>
</clipPath>
</defs>
</svg>
