<svg xmlns="http://www.w3.org/2000/svg" width="48" height="48" viewBox="0 0 48 48" fill="none">
  <rect width="48" height="48" rx="11" fill="#E34A32"/>
  <path
    fill="#fff"
    transform="translate(9.25 10.5) scale(0.915)"
    d="M0 1.83496H0.995151L4.9347 4.66296V17.7521C4.9347 19.7695 6.57962 21.4048 8.60873 21.4048C10.6378 21.4048 12.2828 19.7695 12.2828 17.7521V10.6043C12.2828 5.84769 16.1612 1.99165 20.9454 1.99165C25.7298 1.99165 29.6082 5.84769 29.6082 10.6043V26.366H28.6215L24.6736 23.5235V10.6043C24.6736 8.5573 23.0044 6.89786 20.9454 6.89786C18.8865 6.89786 17.2175 8.5573 17.2175 10.6043V17.7521C17.2175 22.4791 13.3632 26.3111 8.60873 26.3111C3.85427 26.3111 0 22.4791 0 17.7521V1.83496Z"
  />
</svg>
