<svg width="200" height="58" viewBox="0 0 200 58" fill="none" xmlns="http://www.w3.org/2000/svg">
<mask id="mask0_181_758" style="mask-type:luminance" maskUnits="userSpaceOnUse" x="10" y="10" width="136" height="38">
<path d="M146 10H10V47.2358H146V10Z" fill="white"/>
</mask>
<g mask="url(#mask0_181_758)">
<path d="M146 33.3561C145.983 27.9764 143.765 23.9638 139.396 21.4262C137.057 20.0691 134.405 19.4659 131.731 19.4846C129.058 19.4659 126.406 20.0676 124.067 21.4262C119.697 23.9638 117.482 27.9764 117.463 33.3561C117.48 38.7372 119.697 42.7498 124.067 45.2874C126.336 46.6043 128.913 47.2219 131.526 47.2362C131.594 47.2362 131.662 47.2334 131.731 47.2334C131.8 47.2334 131.869 47.2362 131.937 47.2362C134.55 47.2219 137.127 46.6058 139.396 45.2874C143.765 42.7498 145.983 38.7358 146 33.3561ZM136.859 38.6712C135.594 39.9579 133.839 40.6401 131.783 40.643C131.766 40.643 131.75 40.643 131.733 40.643C131.716 40.643 131.7 40.643 131.683 40.643C129.626 40.6401 127.871 39.9594 126.607 38.6712C125.331 37.3701 124.639 35.4887 124.647 33.3575C124.638 31.2263 125.33 29.3435 126.607 28.0424C127.87 26.7557 129.625 26.0735 131.683 26.0706H131.694C131.707 26.0706 131.718 26.0706 131.731 26.0706C131.744 26.0706 131.756 26.0706 131.769 26.0706H131.78C133.838 26.0721 135.593 26.7542 136.856 28.0424C138.133 29.3435 138.825 31.2263 138.816 33.3575C138.825 35.4887 138.133 37.3701 136.856 38.6712H136.859Z" fill="black"/>
<path d="M45.5918 19.7819V26.3794H55.6255V46.9936H62.9699V26.3794H73.1873V19.7819H45.5918Z" fill="black"/>
<path d="M43.2205 19.7257H35.8086V46.9934H43.2205V19.7257Z" fill="black"/>
<path d="M17.4119 19.7257H10V46.9934H17.4119V19.7257Z" fill="black"/>
<path d="M28.5881 19.7257L17.4121 46.9934H25.0522L35.8019 19.7257H28.5881Z" fill="black"/>
<path d="M102.934 19.7257L95.5776 37.6715L88.2217 19.7257H75.5576V46.9934H82.9695V24.7004L91.7576 46.9934H99.3977L108.186 24.7004V46.9934H115.598V19.7257H102.934Z" fill="black"/>
<path d="M39.5113 10C37.4621 10 35.8018 11.6271 35.8018 13.632C35.8018 15.6368 37.4621 17.2639 39.5113 17.2639C41.5605 17.2639 43.2208 15.6382 43.2208 13.632C43.2208 11.6257 41.5591 10 39.5113 10Z" fill="black"/>
</g>
</svg>
