<svg width="200" height="56" viewBox="0 0 200 56" fill="none" xmlns="http://www.w3.org/2000/svg">
<mask id="mask0_181_804" style="mask-type:luminance" maskUnits="userSpaceOnUse" x="0" y="10" width="103" height="36">
<path d="M103 10H0V46H103V10Z" fill="white"/>
</mask>
<g mask="url(#mask0_181_804)">
<mask id="mask1_181_804" style="mask-type:luminance" maskUnits="userSpaceOnUse" x="0" y="10" width="103" height="36">
<path d="M103 10H0V46H103V10Z" fill="white"/>
</mask>
<g mask="url(#mask1_181_804)">
<path d="M3.14107 26.1724V10H0V46H3.14107V28.7023L3.15262 28.7258V26.1459L3.14107 26.1724Z" fill="black"/>
<path d="M13.9682 10.2057V10H10.5558L4.0918 24.1009H7.48116L13.9682 10.2057Z" fill="black"/>
<path d="M11.2989 46.0003H14.7575L7.63238 30.8828H4.16797L11.2989 46.0003Z" fill="black"/>
<path d="M30.0275 36.016V30.8828H27.0684V46.0003H29.2365L34.6323 30.8828H31.8579L30.0275 36.016Z" fill="black"/>
<path d="M38.6858 19.523V24.1009H41.645V10H39.2949L34.2715 24.1009H37.0517L38.6858 19.523Z" fill="black"/>
<path d="M30.0304 10H27.0684V24.1009H30.0304V10Z" fill="black"/>
<path d="M41.6476 30.8828H38.6855V46.0003H41.6476V30.8828Z" fill="black"/>
<path d="M71.3579 30.8828H68.2168V46.0003H71.3579V30.8828Z" fill="black"/>
<path d="M59.6957 30.8828H56.5547V46.0003H59.6957V30.8828Z" fill="black"/>
<path d="M71.3579 10H68.2168V24.1009H71.3579V10Z" fill="black"/>
<path d="M59.6957 10H56.5547V24.1009H59.6957V10Z" fill="black"/>
<path d="M89.4077 12.8296H98.063V24.1009H101.204V12.5534C101.204 11.8012 100.967 11.19 100.491 10.714C100.018 10.238 99.4083 10 98.6721 10H88.7725C88.0335 10 87.4301 10.238 86.9653 10.714C86.4976 11.19 86.2637 11.8041 86.2637 12.5534V24.1009H89.4048V12.8296H89.4077Z" fill="black"/>
<path d="M98.064 43.1707H89.4087V30.8828H86.2676V43.4469C86.2676 44.1991 86.5015 44.8132 86.9692 45.2863C87.4369 45.7623 88.0374 46.0003 88.7765 46.0003H98.676C99.4151 46.0003 100.022 45.7623 100.495 45.2863C100.969 44.8103 101.208 44.1962 101.208 43.4469V30.8828H98.0669V43.1707H98.064Z" fill="black"/>
<path d="M10.2572 30.3678H9.34203L8.704 29.1367H4.83251L4.19448 30.3678H3.2793L6.14322 24.8438H7.40484L10.2601 30.3678H10.2572ZM6.87074 25.502H6.67154L5.19339 28.4079H8.34889L6.87074 25.502Z" fill="black"/>
<path d="M19.8106 24.8477V25.5911H17.3769V30.3687H16.5685V25.5911H14.1348V24.8477H19.8077H19.8106Z" fill="black"/>
<path d="M28.2496 29.3844L31.0586 24.8477H32.505V30.3717H31.6967V25.594H31.5436L28.5036 30.3717H27.9955L24.9555 25.594H24.8025V30.3717H23.9941V24.8477H25.4405L28.2496 29.3844Z" fill="black"/>
<path d="M40.4175 24.6602C43.2034 24.6602 43.4662 25.004 43.4662 27.4956C43.4662 29.9873 43.1053 30.3399 40.4175 30.3399C37.7297 30.3399 37.3457 30.049 37.3457 27.5045C37.3457 24.9599 37.6084 24.6602 40.4175 24.6602ZM40.4175 29.5965C42.5481 29.5965 42.6578 29.3526 42.6578 27.4956C42.6578 25.5358 42.551 25.4036 40.4175 25.4036C38.284 25.4036 38.1541 25.4653 38.1541 27.4956C38.1541 29.2116 38.2233 29.5965 40.4175 29.5965Z" fill="black"/>
<path d="M54.5443 28.3419C54.5443 30.1137 54.1055 30.3399 51.4956 30.3399C48.8858 30.3399 48.4238 29.9961 48.4238 27.5045C48.4238 25.0128 48.8165 24.6602 51.4956 24.6602C54.1748 24.6602 54.5443 24.8864 54.5443 26.6582H53.7359C53.7359 25.4447 53.4588 25.4036 51.4956 25.4036C49.3246 25.4036 49.2322 25.4741 49.2322 27.5015C49.2322 29.5289 49.3246 29.5936 51.4956 29.5936C53.4588 29.5936 53.7359 29.5554 53.7359 28.3389H54.5443V28.3419Z" fill="black"/>
<path d="M63.9928 24.7383H64.8011V25.3642H66.9087C68.0404 25.3642 68.7246 25.6139 68.7246 27.4239C68.7246 29.2339 68.0404 29.5924 66.9087 29.5924H64.8011V30.2594H63.9928V29.5924H61.8824C60.7507 29.5924 60.0664 29.2163 60.0664 27.4239C60.0664 25.6316 60.7507 25.3642 61.8824 25.3642H63.9928V24.7383ZM63.9928 26.1105H61.8824C61.1751 26.1105 60.8748 26.3691 60.8748 27.4269C60.8748 28.4847 61.1751 28.8519 61.8824 28.8519H63.9928V26.1105ZM64.8011 28.8519H66.9087C67.616 28.8519 67.9162 28.4905 67.9162 27.4269C67.9162 26.3632 67.616 26.1105 66.9087 26.1105H64.8011V28.8519Z" fill="black"/>
<path d="M80.6146 24.7392V25.4826H76.2263V27.0899H80.4587V27.8333H76.2263V29.5169H80.6146V30.2603H75.418V24.7363H80.6146V24.7392Z" fill="black"/>
<path d="M86.8221 30.3678H86.0137V24.8438H90.4395C91.3778 24.8438 91.9783 25.3757 91.9783 26.6068C91.9783 27.838 91.3461 28.3463 90.4078 28.3463H86.8221V30.3678ZM86.8221 27.6028H90.402C90.8553 27.6028 91.1728 27.3119 91.1728 26.5833C91.1728 25.8546 90.8495 25.5871 90.4107 25.5871H86.825V27.6L86.8221 27.6028Z" fill="black"/>
<path d="M102.999 30.3678H102.084L101.446 29.1367H97.5747L96.9367 30.3678H96.0215L98.8854 24.8438H100.147L103.002 30.3678H102.999ZM99.6129 25.502H99.4137L97.9356 28.4079H101.091L99.6129 25.502Z" fill="black"/>
</g>
</g>
</svg>
