<svg width="29" height="22" viewBox="0 0 29 22" fill="none" xmlns="http://www.w3.org/2000/svg">
<path d="M6.84988 7.57371C5.55912 6.31953 3.49606 6.34919 2.24189 7.63995C0.987707 8.93069 1.01736 10.9938 2.30811 12.2479L4.579 9.91083L6.84988 7.57371ZM12.13 17.2478L9.85909 19.5849C11.1237 20.8136 13.1363 20.8136 14.4009 19.5849L12.13 17.2478ZM27.4434 6.91196C28.7342 5.65778 28.7638 3.59472 27.5096 2.30396C26.2554 1.01321 24.1925 0.983557 22.9017 2.23774L25.1725 4.57485L27.4434 6.91196ZM4.579 9.91083L2.30811 12.2479L9.85909 19.5849L12.13 17.2478L14.4009 14.9107L6.84988 7.57371L4.579 9.91083ZM12.13 17.2478L14.4009 19.5849L20.9222 13.2484L18.6513 10.9113L16.3803 8.57421L9.85909 14.9107L12.13 17.2478ZM18.6513 10.9113L20.9222 13.2484L27.4434 6.91196L25.1725 4.57485L22.9017 2.23774L16.3803 8.57421L18.6513 10.9113Z" fill="#D44333"/>
</svg>
