<svg width="1760" height="53" viewBox="0 0 1760 53" fill="none" xmlns="http://www.w3.org/2000/svg">
<g clip-path="url(#clip0_244_4631)">
<g clip-path="url(#clip1_244_4631)">
<g clip-path="url(#clip2_244_4631)">
<mask id="mask0_244_4631" style="mask-type:luminance" maskUnits="userSpaceOnUse" x="0" y="4" width="166" height="47">
<path d="M0 4.40552H165.372V50.7096H0V4.40552Z" fill="white"/>
</mask>
<g mask="url(#mask0_244_4631)">
<path d="M42.3826 25.7759H51.4923V34.168L56.5296 25.7759H66.518L58.7731 36.8272L66.7462 49.0713H56.2705L51.4923 40.2184V49.0713H42.3826V25.7759ZM40.0949 48.3095C38.6694 49.0713 36.7125 49.7317 33.9784 49.7317C26.5664 49.7317 21.2999 44.8466 21.2999 37.3872C21.2999 28.9367 28.0636 25.0428 33.8483 25.0428C35.7049 25.0428 38.267 25.5025 40.0949 26.8101V34.9585C38.6981 33.1912 36.6552 32.501 35.0566 32.501C31.6753 32.501 30.0491 34.8008 30.0491 37.632C30.0491 40.4631 32.1648 42.2877 35.029 42.2877C37.0433 42.2877 38.7995 41.3539 40.0949 40.1611V48.3095ZM9.09544 43.4663V39.9747H10.2034C11.081 39.9747 12.4778 40.1467 12.4778 41.7133C12.4778 43.2789 11.038 43.4806 10.2034 43.4806H9.09544V43.4663ZM0 25.7605V49.0559H13.4557C19.7597 49.0559 21.1268 44.9326 21.1268 42.5612C21.1268 39.3993 19.01 37.1006 16.0896 36.6111V36.5394C17.9748 35.9794 20.0618 34.3124 20.0618 31.6819C20.0618 29.8849 19.3849 25.7616 12.8373 25.7616L0 25.7605ZM9.09544 34.6134V31.3512H9.94435C11.5275 31.3512 11.9597 32.1846 11.9597 32.9894C11.9597 33.7943 11.5275 34.6134 9.94435 34.6134H9.09544ZM119.937 28.7074L117.348 28.8221L117.103 28.176L114.599 28.0029L114.584 27.5432L111.907 27.4991L112.354 28.4627L113.549 28.606L113.404 28.2907L114.484 29.0095L116.283 29.4262L117.477 29.4692L120.484 29.0668L119.937 28.7074ZM113.318 26.4506L112.094 26.2787C112.094 26.2787 112.123 25.8476 111.649 25.6172C111.174 25.3735 111.274 25.6028 111.274 25.6028L110.813 25.2578L109.95 25.1144L109.878 24.4673L108.77 24.41L108.799 24.0935L107.922 23.9943L107.547 23.6636L107.662 23.3042L107.446 22.9734L106.396 22.4839L105.518 22.14L104.943 21.4785L104.251 20.8897L103.358 20.0265L101.157 19.2504L99.0709 17.7135L98.222 17.3541L97.329 16.9087L95.4294 15.8878L92.6225 14.3223L86.4199 11.318L84.6505 10.5276C83.6428 10.0965 83.484 9.86606 83.4554 9.73707C82.5491 9.52209 82.2471 9.36333 81.7719 8.88927C81.2978 8.9036 80.2174 8.28621 79.9308 8.0128C79.9308 7.99847 78.1017 7.46707 77.9871 7.36564C77.9871 7.25099 73.2519 5.58404 72.6765 5.45505C72.2586 5.42638 71.122 5.2103 70.9643 5.13864C70.7769 5.13864 70.0426 4.90822 69.7549 4.87956C68.777 4.7649 67.8267 4.62158 66.819 4.60614C66.1002 4.60614 65.6823 4.60614 65.0495 4.44849C64.818 4.59181 63.3363 4.3195 62.8181 4.7219C62.2283 4.75057 60.8612 5.05264 60.4875 5.22463C59.6815 5.2533 58.299 6.1441 57.8393 6.37452C57.6078 6.48917 57.3641 6.60383 57.1194 6.71959C58.6022 7.23665 60.2857 7.85514 60.2857 7.9268C60.4004 8.02603 62.2283 8.55853 62.2283 8.57286C62.516 8.8606 63.5953 9.47799 64.0705 9.46366C64.5446 9.93773 64.8478 10.0965 65.754 10.3126C65.7827 10.4416 65.9414 10.6709 66.9336 11.1019L68.7042 11.8781L74.9068 14.8823L77.7137 16.4479L79.6132 17.4688L80.5063 17.9142L81.3552 18.2736L82.0453 18.7917L83.4124 19.3231L86.4927 20.3286L90.2048 21.7805L91.5873 22.2546L92.983 22.6857L93.6445 22.571L94.3644 22.8147L95.1703 23.5335L95.9906 23.2601L96.5528 23.3615L96.9982 23.9359L97.2849 24.281L97.9905 24.4971L98.6817 24.583L99.5019 24.4397L100.467 24.5257L100.812 25.099L102.164 25.3305L103.129 25.4022L104.107 25.4738L104.857 25.8189L105.533 26.5521L106.51 26.7527L109.03 27.1121L111.303 26.8387L112.786 26.9104L113.318 26.508V26.4506ZM92.897 30.1439L95.5738 30.1726L95.5882 30.6467L98.0919 30.8198L98.3223 31.4669L100.927 31.3512L101.489 31.6962L98.4656 32.0986L97.2716 32.0556L95.4724 31.6532L94.3787 30.9344L94.5375 31.2508L93.3424 31.1075L92.897 30.1439Z" fill="#78797B"/>
<path d="M93.1724 29.0381C93.1724 29.0381 93.201 28.607 92.7259 28.3766C92.2518 28.1318 92.351 28.3622 92.351 28.3622L91.8769 28.0172L91.0137 27.8738L90.9409 27.2267L89.833 27.1694L89.8616 26.8529L88.984 26.7526L88.6092 26.4219L88.725 26.0481L88.5089 25.7174L87.4725 25.2147L86.595 24.8696L86.0195 24.2081L85.3282 23.605L84.4507 22.7429L82.249 21.9668L80.162 20.4288L79.3131 20.0705L78.4069 19.6251L76.5062 18.6042L73.7004 17.0387L67.5122 14.0344L65.7416 13.244C64.735 12.8129 64.5763 12.5825 64.5476 12.4535C63.6414 12.2374 63.3382 12.0786 62.8641 11.6046C62.389 11.6343 61.3096 11.0159 61.0219 10.7292C61.0219 10.7149 59.194 10.1824 59.0782 10.0677C59.0782 9.96739 54.3442 8.28611 53.7687 8.14169C53.3509 8.11303 52.2142 7.89804 52.0554 7.82528C51.8537 7.82528 51.1349 7.59596 50.8471 7.5673C49.8681 7.45154 48.9178 7.30822 47.9112 7.29388C47.177 7.29388 46.7735 7.29388 46.1406 7.13623C45.9102 7.27955 44.4285 7.00614 43.896 7.39421C43.3062 7.42287 41.9523 7.72495 41.5786 7.89804C40.7738 7.92671 39.3913 8.81751 38.9161 9.04682C38.5137 9.24858 38.0385 9.44923 37.6648 9.67965C37.4917 9.82297 34.9009 11.1018 34.7289 11.2606C34.7719 11.3466 32.1954 12.8846 31.9507 13.0995C31.836 13.2153 31.1591 13.4876 30.9871 13.6607C30.814 13.8327 30.1227 14.4512 29.8934 14.5658C29.792 14.7819 29.1305 15.0112 29.0291 15.2273C28.8714 15.4423 28.0942 15.816 27.9641 15.9737C27.9354 15.9891 27.5044 16.3485 27.1593 16.6352C27.0149 16.8226 26.8704 17.0233 26.7271 17.2096C26.554 17.268 25.8628 17.6704 25.6908 17.7994C25.7051 18.2161 25.7338 18.8633 25.0866 18.7332L24.3237 19.1786C24.4097 19.1786 23.9202 19.8974 23.5178 20.4145C23.273 20.7022 22.1651 21.1201 21.949 21.421C21.5025 22.0384 20.927 22.6139 20.4805 23.2181V23.26H20.5389C20.5389 23.3471 20.97 23.3327 21.0284 23.4904C21.1144 23.7351 20.8553 23.9501 20.7836 24.1519H20.841V24.1949C21.1861 24.1949 21.5168 23.82 21.7902 23.6767C22.0217 23.5907 22.251 23.4904 22.4815 23.4044C22.8982 23.1596 23.3017 22.916 23.7052 22.6713C26.7701 21.0043 29.835 19.3374 32.8999 17.6847C34.3684 16.8943 35.5348 16.1611 37.161 15.2703C37.549 15.0542 39.0319 14.0631 40.1399 13.9914C41.5499 13.9043 43.2334 14.2638 43.6942 14.4512C44.1264 14.6088 45.1914 15.1402 45.7382 15.2703C45.8959 15.3276 46.2123 15.557 46.2851 15.5426C46.3424 15.6154 47.3501 15.773 47.8826 15.9594C48.07 16.0751 48.242 16.1754 48.4294 16.2901C49.307 16.5492 51.4943 17.0663 52.2859 17.311C52.9628 17.5117 53.3663 17.8997 53.697 17.9725C54.1568 18.2878 54.2571 18.1301 54.8194 18.4025C55.6683 18.4895 56.1864 18.7905 56.2151 18.8192C56.4742 18.935 56.6605 19.0353 56.9207 19.1499C57.1357 19.1786 57.5535 19.5093 57.7255 19.581C57.9272 19.6251 59.3086 20.0418 59.4387 20.1135C59.6692 20.0848 60.6471 20.5159 60.7617 20.6162C61.0362 20.7452 61.3526 20.8169 61.6691 20.8753L64.4903 21.9811L67.5695 22.9877L71.2827 24.4385L72.6784 24.9126L74.0741 25.3448L74.7224 25.229L75.4566 25.4737L76.2614 26.1926L77.0828 25.9191L77.644 26.0195L78.0894 26.595L78.3782 26.94L79.0838 27.1407L79.7739 27.2267L80.5942 27.0834L81.5578 27.1694L81.9039 27.7438L83.2567 27.9742L84.2202 28.0458L85.1992 28.1175L85.9478 28.4626L86.6236 29.1957L87.6026 29.3975L90.1207 29.7701L92.3951 29.4978L93.8769 29.5695L94.4094 29.167L93.1856 28.994L93.1724 29.0381ZM74.3332 48.8132C73.7791 49.1044 73.161 49.2522 72.5351 49.2432C71.254 49.2432 70.4911 48.7978 69.8726 48.2377C69.038 47.4329 68.7062 46.5278 68.7062 45.4496C68.7062 44.142 69.253 43.1784 69.8726 42.6041C70.6057 41.9139 71.5131 41.6416 72.5494 41.6416C73.0532 41.6416 73.6717 41.7276 74.3475 42.087V43.7396C74.1285 43.4843 73.8571 43.279 73.5519 43.1377C73.2466 42.9964 72.9145 42.9223 72.5781 42.9205C71.1239 42.9205 70.1603 44.1277 70.1603 45.4639C70.1603 47.0735 71.3973 47.95 72.6354 47.95C73.3123 47.95 73.9165 47.6633 74.3332 47.1595V48.8132ZM78.4785 49.0712H77.053V43.0351H75.4269V41.8136H80.119V43.0351H78.4785V49.0712ZM81.5578 41.8136V49.0855H82.9833V46.3977H83.9038C84.7384 46.3977 85.3437 46.154 85.7461 45.7516C86.3083 45.2048 86.3502 44.4154 86.3502 44.1277C86.3502 43.6095 86.1926 42.8918 85.6016 42.3747C85.0691 41.9007 84.4937 41.8136 83.6734 41.8136H81.5578ZM82.9833 43.0351H83.4728C83.8178 43.0351 84.1783 43.0495 84.4793 43.2655C84.6073 43.3598 84.7107 43.4834 84.7809 43.6259C84.8511 43.7685 84.8861 43.9258 84.8828 44.0847C84.8828 44.4011 84.7527 44.7307 84.4937 44.9325C84.1916 45.1618 83.8322 45.1618 83.5588 45.1618H82.9833V43.0208V43.0351ZM92.4381 49.0712H93.9639L90.8991 41.6559H89.8186L86.6666 49.0712H88.2068L88.8551 47.5476H91.791L92.4381 49.0712ZM89.3005 46.3977L90.3511 43.7826L91.3731 46.3977H89.3005ZM97.2163 45.2346L95.0289 41.8136H96.7411L98.0078 44.056L99.3606 41.8136H101.073L98.8281 45.2335L101.317 49.0712H99.6197L98.0078 46.412L96.3376 49.0712H94.6254L97.2163 45.2346ZM106.455 41.6416C104.167 41.6416 102.57 43.2369 102.57 45.4496C102.57 47.6622 104.167 49.2432 106.455 49.2432C108.743 49.2432 110.341 47.6622 110.341 45.4496C110.341 43.2369 108.743 41.6416 106.455 41.6416ZM106.455 47.95C105.031 47.95 104.023 46.9158 104.023 45.4352C104.023 43.9546 105.031 42.9205 106.455 42.9205C107.879 42.9205 108.887 43.9689 108.887 45.4352C108.887 46.9015 107.881 47.95 106.455 47.95ZM113.622 45.9093H114.14C114.442 45.9093 114.802 45.9093 115.104 46.0526C115.565 46.2544 115.636 46.6568 115.636 46.8872C115.636 47.1738 115.536 47.5189 115.191 47.7207C114.875 47.9081 114.485 47.9213 114.212 47.9213H113.608V45.9093H113.622ZM112.198 41.8136V49.0855H114.644C115.277 49.0855 115.94 48.9852 116.501 48.4968C117.005 48.0514 117.119 47.4472 117.119 47.0305C117.119 46.6568 117.033 46.0824 116.587 45.6656C116.322 45.422 115.992 45.2617 115.636 45.2048C115.838 45.0901 116.457 44.7164 116.457 43.7826C116.457 43.1795 116.213 42.6041 115.781 42.2733C115.191 41.8136 114.399 41.8136 113.996 41.8136H112.198ZM113.622 42.9635H114.039C114.616 42.9635 115.134 43.2082 115.134 43.8829C115.134 44.8178 114.255 44.8311 114.025 44.8311H113.622V42.9635ZM122.516 41.6416C120.228 41.6416 118.631 43.2369 118.631 45.4496C118.631 47.6622 120.228 49.2432 122.516 49.2432C124.804 49.2432 126.402 47.6622 126.402 45.4496C126.402 43.2369 124.805 41.6416 122.516 41.6416ZM122.516 47.95C121.092 47.95 120.084 46.9158 120.084 45.4352C120.084 43.9546 121.092 42.9205 122.516 42.9205C123.94 42.9205 124.948 43.9689 124.948 45.4352C124.948 46.9015 123.94 47.95 122.516 47.95ZM130.503 39.4862C130.734 40.0893 131.338 40.118 131.482 40.118C131.626 40.118 132.23 40.0893 132.46 39.4851L133.439 39.8732C133.152 40.6064 132.475 41.0948 131.467 41.0948C130.459 41.0948 129.783 40.6207 129.496 39.8732L130.489 39.4851L130.503 39.4862ZM129.697 41.8136V46.6998L133.713 41.6559H134.706V49.0855H133.281V44.185L129.265 49.2288H128.287V41.8279H129.712L129.697 41.8136ZM140.707 41.8136V44.9766C140.707 45.982 140.592 46.5289 140.448 46.8883C140.232 47.434 139.815 47.8937 139.297 47.8651V50.7249H140.606V49.0866H145.081V50.7249H146.391V47.8651H145.628V41.8147L140.707 41.8136ZM142.074 43.0351H144.19V47.864H141.254C141.455 47.6633 141.671 47.4042 141.829 47.0018C141.959 46.6568 142.074 46.0967 142.074 44.9755V43.0351ZM151.414 41.6416C149.125 41.6416 147.528 43.2369 147.528 45.4496C147.528 47.6622 149.125 49.2432 151.414 49.2432C153.703 49.2432 155.299 47.6622 155.299 45.4496C155.299 43.2369 153.703 41.6416 151.414 41.6416ZM151.414 47.95C149.99 47.95 148.982 46.9158 148.982 45.4352C148.982 43.9546 149.99 42.9205 151.414 42.9205C152.838 42.9205 153.846 43.9689 153.846 45.4352C153.846 46.9015 152.838 47.95 151.414 47.95ZM156.796 49.0712L158.149 41.6703H159.128L161.099 46.4263L163.172 41.6703H164.15L165.374 49.0712H163.935L163.272 44.5874L161.287 49.1715H160.883L158.969 44.5874L158.235 49.0712H156.796Z" fill="#78797B"/>
</g>
<path d="M451.822 43.0088C451.496 42.9625 451.173 42.904 450.847 42.871C448.097 42.592 445.595 41.6527 443.379 40.0045C440.179 37.6232 438.188 34.4546 437.488 30.5309C436.657 25.8752 437.639 21.6141 440.565 17.8723C442.833 14.9727 445.811 13.1393 449.432 12.4459C454.071 11.5584 458.317 12.501 462.045 15.4413C464.884 17.6815 466.666 20.6218 467.438 24.1465C468.214 27.6854 467.886 31.1395 466.284 34.4028C464.159 38.7289 460.705 41.4477 456.013 42.5623C455.236 42.7475 454.43 42.8158 453.638 42.9382C453.519 42.957 453.402 42.9845 453.284 43.0077L451.822 43.0088ZM462.442 26.9159C462.448 26.1497 462.178 24.7231 461.623 23.3527C459.856 18.9935 455.494 16.5041 450.869 17.2868C447.816 17.8039 445.519 19.4742 443.988 22.1587C442.691 24.4342 442.34 26.8938 442.737 29.4659C443.098 31.7922 444.099 33.8053 445.846 35.3973C448.222 37.5647 451.039 38.3343 454.194 37.8304C456.933 37.3916 459.084 35.9805 460.644 33.6972C461.89 31.8737 462.434 29.8275 462.442 26.9159ZM516.828 43.0088C516.491 42.9614 516.156 42.904 515.817 42.8699C513.234 42.6097 510.86 41.763 508.736 40.2757C505.241 37.8282 503.097 34.4833 502.422 30.274C501.617 25.2523 502.867 20.7707 506.304 16.9804C508.486 14.5725 511.221 13.0886 514.408 12.4315C515.841 12.1361 517.288 12.0567 518.733 12.1758C525.659 12.7424 530.761 17.5856 532.262 23.5478C533.432 28.197 532.76 32.5782 530.002 36.5405C527.716 39.8237 524.55 41.8357 520.633 42.6405C519.883 42.7949 519.116 42.8555 518.357 42.9614C518.286 42.9724 518.216 42.9922 518.144 43.0088H516.828ZM517.486 38.0201C518.127 37.9495 518.776 37.9274 519.405 37.7996C522.198 37.2362 524.395 35.7589 525.861 33.3103C527.642 30.3314 527.887 27.1485 526.788 23.8841C525.274 19.3893 520.906 16.4677 515.862 17.2846C512.963 17.7543 510.716 19.3011 509.179 21.7993C507.525 24.4871 507.16 27.4076 507.916 30.4482C509.058 35.0511 512.999 38.0013 517.486 38.0201ZM577.374 43.0088C577.038 42.9614 576.701 42.9029 576.363 42.8688C574.113 42.645 572.006 41.9658 570.082 40.7829C566.255 38.4302 563.864 35.0356 563.042 30.6213C562.142 25.7925 563.206 21.3947 566.337 17.5768C568.576 14.8449 571.478 13.1614 574.94 12.4359C576.361 12.1426 577.818 12.0542 579.265 12.1736C585.506 12.6664 590.364 16.6926 592.363 22.0584C593.189 24.2744 593.518 26.5719 593.293 28.9158C592.772 34.3256 590.174 38.4357 585.415 41.1202C583.833 42.0132 582.12 42.5512 580.318 42.7949C579.776 42.8676 579.233 42.9389 578.69 43.0088H577.374ZM578.008 38.0178C578.588 37.9561 579.173 37.9252 579.746 37.8271C582.648 37.3277 584.906 35.8228 586.416 33.307C588.21 30.3192 588.447 27.1221 587.332 23.8477C585.802 19.3573 581.433 16.4721 576.417 17.2835C573.616 17.7356 571.414 19.2052 569.872 21.5832C568.106 24.3063 567.702 27.2918 568.465 30.4141C569.594 35.0412 573.538 37.987 578.008 38.0178ZM419.129 43.0077C418.706 42.9592 418.284 42.9018 417.861 42.8643C416.065 42.7012 414.331 42.3043 412.706 41.505C410.326 40.3331 408.626 38.5448 407.769 36.0036C407.554 35.3675 407.438 34.7115 407.34 34.0203H412.682C412.705 34.0699 412.732 34.1118 412.743 34.157C413.024 35.3763 413.754 36.2715 414.772 36.9551C415.729 37.5989 416.8 37.9352 417.929 38.1138C419.044 38.2902 420.162 38.3089 421.28 38.1799C422.289 38.0619 423.268 37.826 424.15 37.2924C425.393 36.5394 426.063 35.4403 426.064 33.9773C426.064 32.737 425.53 31.7723 424.473 31.1108C423.75 30.6577 422.95 30.4063 422.114 30.2862C420.634 30.0723 419.148 29.8882 417.666 29.6886C416.11 29.4792 414.558 29.2443 413.085 28.671C412.551 28.4676 412.032 28.2266 411.533 27.95C409.698 26.9214 408.539 25.3779 408.129 23.3042C407.629 20.7718 408.091 18.4378 409.639 16.3497C410.71 14.9055 412.115 13.8824 413.757 13.1746C414.966 12.6548 416.249 12.3313 417.56 12.2166C419.564 12.0357 421.549 12.1284 423.498 12.6653C425.632 13.2507 427.463 14.3245 428.861 16.0708C429.925 17.3993 430.577 18.9152 430.891 20.6097H425.606C425.573 20.537 425.535 20.462 425.504 20.3848C424.777 18.5745 423.448 17.4677 421.556 17.0333C419.951 16.6639 418.347 16.6474 416.758 17.1237C415.822 17.4037 414.979 17.8557 414.315 18.59C413.441 19.558 413.168 20.6869 413.465 21.9503C413.658 22.7695 414.171 23.3527 414.89 23.7639C415.507 24.1094 416.184 24.3354 416.885 24.4298C418.197 24.6216 419.515 24.7716 420.828 24.9579C422.248 25.1563 423.681 25.2732 425.067 25.6778C426.363 26.0549 427.584 26.5863 428.652 27.4263C430.06 28.531 430.938 29.9664 431.286 31.7205C431.653 33.5837 431.528 35.4083 430.794 37.1689C430.012 39.0432 428.657 40.4036 426.897 41.3738C425.655 42.0492 424.304 42.5021 422.906 42.7122C422.257 42.8136 421.603 42.8743 420.95 42.9547C420.854 42.968 420.759 42.99 420.664 43.0077H419.129ZM626.733 12.8097L622.65 21.6935L613.295 42.0661L613.16 42.3528H609.567L595.967 12.738H601.854L611.339 33.6079C611.417 33.4536 611.474 33.3466 611.523 33.2386C614.596 26.5076 617.667 19.7751 620.735 13.0412C620.828 12.8384 620.91 12.7061 621.178 12.7083C622.957 12.7226 624.736 12.716 626.516 12.7171C626.589 12.7171 626.66 12.7303 626.733 12.7369V12.8097ZM485.149 27.0504L500.263 42.3241C500.15 42.3484 500.086 42.3737 500.023 42.3737C497.768 42.3759 495.514 42.3737 493.259 42.3793C493.175 42.3805 493.092 42.3632 493.015 42.3285C492.938 42.2938 492.87 42.2426 492.815 42.1786C488.79 38.0017 484.764 33.827 480.737 29.6544C480.628 29.5409 480.511 29.4351 480.399 29.327C480.386 29.3325 480.372 29.3336 480.364 29.3402C480.354 29.3466 480.347 29.3565 480.345 29.3678C480.339 29.3912 480.335 29.4152 480.334 29.4395L480.322 42.2712C480.322 42.2822 480.314 42.2933 480.288 42.3594C479.883 42.3958 479.45 42.3704 479.017 42.3748C478.567 42.3793 478.116 42.3748 477.665 42.3748H475.019V12.7799C475.27 12.7005 479.871 12.6807 480.317 12.7623V25.3371C480.451 25.2192 480.529 25.1585 480.596 25.088L488.084 17.3276C489.498 15.8643 490.911 14.4002 492.323 12.9354C492.443 12.8097 492.556 12.7105 492.753 12.7116C494.862 12.7182 496.97 12.716 499.078 12.7171C499.126 12.7171 499.172 12.7281 499.289 12.7435C498.338 13.7457 497.385 14.674 496.454 15.6254C495.517 16.5846 494.571 17.5327 493.628 18.4852C492.692 19.4282 491.757 20.3716 490.822 21.3153C489.88 22.2686 488.939 23.2226 487.997 24.1773L485.149 27.0504ZM545.286 37.5438H560.276C560.358 37.8415 560.373 41.946 560.297 42.355H539.973V12.7821C540.234 12.7005 544.788 12.6774 545.286 12.7601V37.5438Z" fill="#78797B"/>
<path fill-rule="evenodd" clip-rule="evenodd" d="M254.026 15.6354L278.543 4.40552V30.6445L239.545 48.5046V38.0278C241.569 39.2079 243.87 39.8292 246.213 39.8281C253.557 39.8281 259.548 33.8196 259.548 26.4551C259.548 22.0143 257.368 18.0696 254.026 15.6354ZM213.879 22.2657L252.879 4.40552V14.8835C250.856 13.7039 248.556 13.0827 246.213 13.0831C238.865 13.0831 232.876 19.0894 232.876 26.454C232.876 30.897 235.054 34.8416 238.396 37.2759L213.879 48.5046V22.2657Z" fill="#78797B"/>
<path fill-rule="evenodd" clip-rule="evenodd" d="M246.218 19.3914C250.106 19.3914 253.262 22.5522 253.262 26.4539C253.262 30.3556 250.106 33.5208 246.218 33.5208C242.325 33.5208 239.172 30.3556 239.172 26.4539C239.172 22.5522 242.325 19.3914 246.218 19.3914ZM291.068 26.4252C291.068 22.0484 293.785 19.4157 298.502 19.4157C303.24 19.4157 305.961 22.0473 305.961 26.4252C305.961 30.7811 303.269 33.437 298.522 33.437C293.785 33.437 291.068 30.8054 291.068 26.4252ZM288.326 26.4252C288.326 32.1107 292.17 35.8294 298.502 35.8294C304.853 35.8294 308.699 32.1107 308.699 26.4252C308.699 20.7398 304.853 17.0266 298.522 17.0266C292.17 17.0266 288.326 20.7398 288.326 26.4252Z" fill="#78797B"/>
<path d="M313.383 35.8294V17.0266H317.402L324.681 33.3907L332.136 17.0266H336.106V35.8294H333.511V19.3275L326.03 35.8294H323.326L315.974 19.3275V35.8294H313.383ZM341.591 17.0266H344.281V26.6876L355.357 17.0266H358.809L349.792 24.8487L358.829 35.8294H355.672L347.992 26.4252L344.281 29.5849V35.8294H341.591V17.0266Z" fill="#78797B"/>
<mask id="mask1_244_4631" style="mask-type:luminance" maskUnits="userSpaceOnUse" x="849" y="8" width="226" height="37">
<path d="M849.434 8.81543H1074.34V44.0947H849.434V8.81543Z" fill="white"/>
</mask>
<g mask="url(#mask1_244_4631)">
<path d="M950.736 43.6569H956.231V38.8281H971.076V43.6128H976.526V34.1359H973.645V15.2736H955.742L955.344 26.3745C955.255 29.263 954.68 31.6091 953.217 34.1359H950.736V43.6569ZM960.528 26.8254L960.75 19.9669H968.151V34.0907H958.801C959.909 32.0148 960.441 29.4427 960.528 26.8254ZM990.839 15.2736H979.627V38.8744H985.078V30.2552H990.839C995.891 30.2552 998.993 27.7283 998.993 22.7198C998.993 17.666 996.024 15.2736 990.839 15.2736ZM985.078 25.562V19.9217H990.706C992.523 19.9217 993.587 20.9591 993.587 22.7198C993.587 24.4804 992.523 25.6083 990.706 25.6083H985.078V25.562ZM1052.92 15.2736V38.8744H1064.93C1069.36 38.8744 1073.26 37.3397 1073.26 32.286C1073.26 29.7591 1072.07 27.9984 1070.16 27.0062C1071.8 25.9688 1072.73 24.2081 1072.73 21.9073C1072.73 16.8535 1068.92 15.3188 1064.44 15.3188H1052.92V15.2736ZM1058.33 24.7946V19.8313H1064.53C1066.48 19.8313 1067.41 20.689 1067.41 22.3582C1067.41 24.1188 1066.48 24.8398 1064.53 24.8398H1058.33V24.7946ZM1058.33 34.2715V29.3071H1065.02C1066.88 29.3071 1067.81 30.1196 1067.81 31.7899C1067.81 33.4601 1066.93 34.3167 1065.02 34.3167H1058.33V34.2715ZM1025.71 9.85938L1025.76 13.9198L1045.39 11.9794V9.85938H1025.71ZM1005.91 15.2736L998.417 38.8744H1004.35L1005.42 35.0841H1012.77L1013.93 38.8744H1019.95L1012.42 15.2736H1005.91ZM1011.45 30.3908H1006.57L1008.96 20.5986H1009.1L1011.45 30.3908ZM1028.46 15.2736H1022.75V38.8744H1029.04L1042.51 22.4486H1042.64L1042.55 38.8744H1048.27V15.2736H1041.98L1028.51 31.6995H1028.37L1028.46 15.2736ZM907.84 19.9217V38.8733H913.202V19.9217H919.406V15.2736H901.636V19.9217H907.84ZM885.106 15.2736H879.966V38.8744H885.993L893.66 22.8995H893.792L893.438 38.8744H898.622V15.2736H892.552L884.885 31.2034H884.752L885.106 15.2736ZM928.091 15.2736H922.375V38.8744H928.667L942.139 22.4486H942.271L942.183 38.8744H947.899V15.2736H941.606L928.135 31.6995H928.003L928.091 15.2736ZM876.864 32.9177L871.458 30.5253C869.774 33.6398 867.027 34.3167 863.703 34.3167C858.208 34.3167 855.416 31.8351 855.416 27.187V26.8706C855.416 22.2226 858.208 19.7409 863.703 19.7409C867.027 19.7409 869.774 20.3726 871.458 23.5312L876.864 21.1399C874.293 15.7709 869.154 14.7323 863.703 14.7323C854.928 14.7323 849.434 19.3352 849.434 26.6005V27.5023C849.434 34.8118 854.928 39.3705 863.703 39.3705C869.11 39.3705 874.293 38.2868 876.864 32.9177Z" fill="#78797B"/>
</g>
<mask id="mask2_244_4631" style="mask-type:luminance" maskUnits="userSpaceOnUse" x="1122" y="4" width="216" height="38">
<path d="M1122.85 4.40552H1337.83V41.8898H1122.85V4.40552Z" fill="white"/>
</mask>
<g mask="url(#mask2_244_4631)">
<path d="M1177.71 20.4212H1165.93V24.937H1168.51L1165.33 33.1152H1163.7V37.6298H1172.46V33.1152H1170.74L1173.67 25.1068L1176.42 33.1152H1174.79V37.6298H1183.82V33.1152H1182.19L1177.71 20.4212ZM1153.89 19.9946C1149.16 19.9946 1144.86 23.3174 1144.86 29.0261C1144.86 34.6487 1148.82 38.0554 1153.97 38.0554C1158.79 38.0554 1161.8 35.6707 1162.75 32.4327H1157.07C1157.07 32.4327 1156.39 33.5407 1154.15 33.5407C1151.91 33.5407 1150.8 32.0083 1150.71 30.6445H1163C1163 30.6445 1163.09 29.8783 1163.09 29.2818C1163.09 23.4883 1159.22 19.9957 1153.89 19.9957M1150.8 26.9821C1151.05 25.5345 1152.34 24.5125 1153.97 24.5125C1155.96 24.5125 1156.98 25.8752 1157.07 26.9821H1150.8ZM1333.79 4.40552C1330.96 4.40552 1329.4 7.21684 1328.97 9.00616C1328.97 9.00616 1328.11 4.74618 1325.1 4.74618C1323.13 4.74618 1321.75 6.79128 1321.75 9.68749C1321.75 15.0544 1325.28 20.4212 1328.97 20.4212C1333.36 20.4212 1337.66 14.6288 1337.66 9.09105C1337.57 6.36462 1336.28 4.40552 1333.79 4.40552ZM1329.06 18.8039C1326.23 18.8039 1323.47 14.3719 1323.47 9.85727C1323.47 7.38772 1324.24 6.27973 1325.1 6.27973C1327.16 6.27973 1328.02 10.7095 1328.2 11.9024C1328.29 12.4977 1328.54 12.6686 1328.88 12.6686C1329.4 12.6686 1329.58 12.3279 1329.67 12.0733C1330.1 10.7944 1331.03 6.02396 1333.79 6.02396C1335.17 6.02396 1335.85 7.13195 1335.85 9.43172C1335.85 13.4359 1332.32 18.8039 1329.06 18.8039ZM1135.49 23.915H1131.19V19.3992H1136V22.2105H1141.77V14.8846H1123.11V19.3992H1125.51V33.2H1123.11V37.6298H1135.4C1140.73 37.6298 1143.31 34.6487 1143.31 30.6445C1143.23 26.6403 1140.73 23.915 1135.49 23.915ZM1134.89 33.114H1131.19V28.4285H1134.89C1136.09 28.4285 1137.38 29.1947 1137.38 30.8132C1137.38 32.3478 1136 33.114 1134.89 33.114ZM1250.29 14.9695H1237.65L1237.56 19.4841H1240.06L1235.93 33.1152H1233.43V41.8049H1239.11V37.6298H1251.92V41.8898H1257.6V33.114H1255.28L1250.29 14.9695ZM1242.03 33.1152L1245.65 20.0806L1249.09 33.1152H1242.03ZM1290.88 24.7661H1292.6V26.9821C1292.6 26.9821 1291.74 27.5774 1290.02 27.5774C1288.73 27.5774 1287.61 27.067 1287.61 25.4474V24.7661H1289.33V20.4223H1280.13V24.937H1281.94V26.1287C1281.94 29.9632 1284.52 31.9223 1288.39 31.9223C1291.13 31.9223 1292.77 31.156 1292.77 31.156V33.2H1290.36V37.6298H1300.16V33.286H1298.28V24.7661H1300.08V20.4223H1290.88V24.7661ZM1197.49 22.1256C1196.45 21.1025 1194.66 19.9957 1191.9 19.9957C1187.35 19.9957 1183.73 23.6592 1183.73 29.025C1183.98 34.308 1187.08 38.0565 1191.9 38.0565C1194.57 38.0565 1196.29 36.9485 1197.49 35.9265V37.6298H1204.37V33.1152H1202.56V24.937H1204.37V20.4212H1197.49V22.1256ZM1193.19 33.2C1190.79 33.2 1189.23 31.4118 1189.23 29.0261C1189.23 26.7252 1190.7 24.8521 1193.19 24.8521C1195.43 24.937 1197.15 26.7263 1197.15 29.0261C1197.15 31.4107 1195.68 33.2 1193.19 33.2ZM1271.62 22.1256C1270.58 21.1025 1268.78 19.9957 1266.03 19.9957C1261.47 19.9957 1257.86 23.6592 1257.86 29.025C1258.11 34.308 1261.21 38.0565 1266.03 38.0565C1268.69 38.0565 1270.41 36.9485 1271.62 35.9265V37.6298H1278.5V33.1152H1276.69V24.937H1278.5V20.4212H1271.62V22.1256ZM1267.32 33.2C1264.91 33.2 1263.36 31.4118 1263.36 29.0261C1263.36 26.7252 1264.82 24.8521 1267.32 24.8521C1269.55 24.937 1271.27 26.7263 1271.27 29.0261C1271.27 31.4107 1269.81 33.2 1267.32 33.2ZM1315.05 22.1256C1314.01 21.1025 1312.2 19.9957 1309.46 19.9957C1304.89 19.9957 1301.29 23.6592 1301.29 29.025C1301.54 34.308 1304.64 38.0565 1309.46 38.0565C1312.11 38.0565 1313.83 36.9485 1315.05 35.9265V37.6298H1321.93V33.1152H1320.12V24.937H1321.93V20.4212H1315.05V22.1256ZM1310.75 33.2C1308.33 33.2 1306.79 31.4118 1306.79 29.0261C1306.79 26.7252 1308.24 24.8521 1310.75 24.8521C1312.97 24.937 1314.69 26.7263 1314.69 29.0261C1314.62 31.4107 1313.15 33.2 1310.75 33.2ZM1206.27 26.2147C1206.27 29.111 1208.15 30.6445 1210.21 31.3258L1208.24 33.2H1206.09V37.6298H1211.42L1216.66 32.0072V37.6298H1224.15V33.1152H1222.34V24.937H1224.15V20.4212H1212.71C1209.1 20.4212 1206.27 22.7221 1206.27 26.2147ZM1216.75 24.9359V28.5145H1214C1213.06 28.5145 1212.02 27.9192 1212.02 26.8112C1212.02 25.7032 1212.71 25.0219 1214 25.0219C1214 24.937 1216.75 24.9359 1216.75 24.9359Z" fill="#78797B"/>
</g>
<mask id="mask3_244_4631" style="mask-type:luminance" maskUnits="userSpaceOnUse" x="1574" y="8" width="150" height="41">
<path d="M1574.68 8.81543H1723.51V48.5046H1574.68V8.81543Z" fill="white"/>
</mask>
<g mask="url(#mask3_244_4631)">
<path d="M1588.05 39.0784C1587.84 39.2085 1587.67 39.3794 1587.53 39.58C1587.42 39.7829 1587.36 40.0067 1587.35 40.2371C1587.33 40.351 1587.34 40.4667 1587.37 40.5777C1587.42 40.7508 1587.49 40.7707 1587.58 40.9857C1587.62 41.1036 1587.66 41.2238 1587.67 41.3473C1587.7 41.4818 1587.72 41.6185 1587.72 41.7563C1587.72 41.8489 1587.7 41.9415 1587.67 42.0286C1587.63 42.1151 1587.58 42.1932 1587.51 42.2579C1587.41 42.3252 1587.29 42.3639 1587.16 42.3704C1586.98 42.3924 1586.81 42.3836 1586.64 42.3483C1586.19 42.2579 1586.18 42.1168 1585.83 42.0749C1585.8 42.0749 1585.63 42.0749 1585.29 42.097C1585.1 42.0948 1584.91 42.1179 1584.73 42.1653C1584.6 42.2149 1584.47 42.2844 1584.36 42.3704C1584.04 42.6041 1584.02 42.7695 1583.63 43.1862C1583.52 43.3281 1583.39 43.4548 1583.23 43.5666C1583.06 43.7033 1582.85 43.7959 1582.63 43.8378C1582.39 43.8723 1582.15 43.841 1581.93 43.7474C1581.74 43.6592 1581.56 43.5489 1581.39 43.4188C1581.27 43.3044 1581.13 43.2052 1580.97 43.1234C1580.8 43.0413 1580.6 43.01 1580.41 43.033C1580.25 43.0741 1580.09 43.1344 1579.95 43.2138C1579.57 43.3791 1579.55 43.4067 1579.43 43.4188C1579.26 43.4413 1579.08 43.4002 1578.94 43.3031C1578.83 43.2072 1578.75 43.0822 1578.7 42.9426C1578.6 42.6669 1578.66 42.5633 1578.62 42.1477C1578.62 41.9162 1578.55 41.6901 1578.43 41.4906C1578.34 41.3651 1578.22 41.2644 1578.08 41.1973C1577.82 41.0717 1577.73 41.1599 1577.52 41.0386C1577.37 40.9502 1577.25 40.8041 1577.19 40.6307C1577.16 40.4829 1577.22 40.4102 1577.24 40.2216C1577.28 39.9681 1577.25 39.7068 1577.15 39.4698C1577.05 39.3044 1576.8 39.1754 1576.29 38.9251C1576.08 38.8458 1575.88 38.7476 1575.68 38.6319C1575.41 38.4015 1575.2 38.1055 1575.08 37.7719C1574.97 37.5889 1574.9 37.3894 1574.87 37.1821C1574.84 36.9241 1574.89 36.6639 1575.01 36.4302C1575.09 36.1789 1575.25 35.9562 1575.46 35.793C1575.62 35.6827 1575.74 35.6772 1575.86 35.5229C1575.95 35.4232 1576 35.2938 1576 35.1591C1575.98 34.9386 1575.77 34.7897 1575.63 34.685C1575.32 34.4667 1575.2 34.5494 1575 34.3653C1574.83 34.2047 1574.71 33.9889 1574.68 33.7545C1574.68 33.4976 1574.75 33.2452 1574.89 33.0302C1575.03 32.7612 1575.11 32.7788 1575.18 32.5528C1575.22 32.3687 1575.24 32.1769 1575.22 31.9861C1575.22 31.7359 1575.19 31.7127 1575.18 31.4845C1575.12 31.2045 1575.14 30.9156 1575.24 30.6466C1575.36 30.4438 1575.53 30.2718 1575.73 30.1461C1575.95 29.9918 1576.06 29.9873 1576.12 29.8528C1576.2 29.7172 1576.12 29.6489 1576.12 29.3303C1576.1 29.0778 1576.12 28.8231 1576.2 28.5784C1576.26 28.4159 1576.33 28.2638 1576.43 28.1219C1576.56 27.8695 1576.77 27.6556 1577.02 27.5002C1577.26 27.3822 1577.52 27.3127 1577.79 27.2973C1578.1 27.2543 1578.24 27.2797 1578.37 27.1617C1578.48 27.0592 1578.55 26.9225 1578.56 26.7758C1578.55 26.5507 1578.45 26.3389 1578.28 26.186C1577.94 25.788 1577.78 25.7803 1577.42 25.4165C1577.2 25.218 1577.03 24.9788 1576.91 24.7142C1576.78 24.3965 1576.73 24.052 1576.76 23.7109C1576.8 23.3923 1576.86 23.3945 1576.99 22.8058C1577.07 22.464 1577.05 22.4596 1577.16 21.9437C1577.3 21.2535 1577.37 21.1157 1577.49 20.9922C1577.63 20.8511 1577.81 20.742 1578.01 20.6747C1578.3 20.549 1578.6 20.4652 1578.91 20.4233C1579.3 20.3583 1579.68 20.3351 1580.08 20.3561C1580.8 20.3936 1580.93 20.5435 1581.34 20.4233C1581.58 20.3572 1581.79 20.2161 1581.94 20.022C1582.11 19.7718 1582.06 19.6064 1582.13 19.1842C1582.18 18.9339 1582.2 18.9339 1582.62 17.9163C1582.93 17.1391 1582.87 17.2041 1583.01 16.9131C1583.2 16.5162 1583.41 16.1307 1583.64 15.7566C1583.85 15.3729 1584.12 15.0157 1584.41 14.6938C1584.57 14.5229 1584.76 14.3906 1584.98 14.3079C1585.15 14.235 1585.35 14.2114 1585.54 14.2395C1585.79 14.287 1585.84 14.4248 1586.31 14.7412C1586.51 14.9088 1586.74 15.0267 1587.01 15.0829C1587.19 15.1028 1587.38 15.0796 1587.56 15.0146C1587.93 14.8889 1588.28 14.7059 1588.59 14.4733C1589.04 14.1844 1589.08 14.1348 1589.25 14.0874C1589.53 14.0146 1589.82 14.0224 1590.09 14.1095C1590.69 14.2925 1590.68 14.6805 1591.29 14.879C1591.43 14.9198 1591.34 14.879 1592.02 14.9914C1592.64 15.0973 1592.72 15.1348 1592.9 15.105C1593.2 15.0598 1593.48 14.9165 1593.69 14.6982C1593.82 14.5405 1593.83 14.4479 1594.03 13.7456C1594.12 13.3973 1594.24 13.0566 1594.38 12.728C1594.48 12.4436 1594.67 12.1922 1594.9 12.0004C1595.05 11.9023 1595.11 11.9177 1595.8 11.684C1595.99 11.6355 1596.18 11.5671 1596.34 11.4811C1596.65 11.2309 1596.48 10.8671 1596.7 10.3478C1596.85 10.0016 1597.09 9.70395 1597.41 9.48456C1597.82 9.17917 1598.21 9.09648 1598.81 8.96639C1599.36 8.8341 1599.94 8.78889 1600.5 8.83079C1601.02 8.87783 1601.52 8.99065 1602.02 9.16925C1602.38 9.25965 1602.74 9.414 1603.06 9.62347C1603.3 9.8131 1603.52 10.0318 1603.72 10.2794C1603.88 10.5055 1603.85 10.5308 1603.97 10.6411C1604.03 10.694 1604.27 10.8913 1605.02 10.9145C1605.69 10.9145 1605.77 10.7612 1606.3 10.8241C1606.57 10.8483 1606.85 10.9255 1607.09 11.0501C1607.41 11.2143 1607.68 11.447 1607.89 11.7292C1608.02 11.91 1608.13 12.0985 1608.24 12.2959C1608.31 12.4612 1608.39 12.6211 1608.49 12.7721C1608.66 12.9827 1608.76 12.9552 1608.98 13.2021C1609.14 13.3443 1609.28 13.5218 1609.35 13.7236C1609.4 13.9397 1609.4 14.1613 1609.37 14.3796C1609.35 14.5611 1609.35 14.7426 1609.37 14.9242C1609.43 15.0785 1609.52 15.2196 1609.64 15.331C1609.76 15.4423 1609.91 15.5206 1610.07 15.5592C1610.3 15.6022 1610.53 15.5702 1610.73 15.4688C1611.05 15.3178 1611.04 15.1326 1611.5 14.7158C1611.67 14.5207 1611.89 14.3729 1612.13 14.2847C1612.24 14.2594 1612.33 14.255 1613.02 14.352C1613.24 14.4027 1613.48 14.4328 1613.72 14.4424C1614.08 14.4248 1614.13 14.2947 1614.62 14.2175C1614.84 14.1547 1615.07 14.1547 1615.29 14.2175C1615.53 14.3134 1615.72 14.4913 1615.84 14.718C1616.04 15.0796 1615.9 15.2196 1616.1 15.471C1616.29 15.7213 1616.53 15.7444 1616.92 15.8348C1617.43 15.9572 1617.54 15.8348 1617.8 15.9925C1618.05 16.1766 1618.23 16.4445 1618.28 16.7444C1618.39 17.149 1618.25 17.3563 1618.43 17.515C1618.59 17.6727 1618.68 17.5393 1618.98 17.6506C1619.26 17.7686 1619.51 17.9758 1619.66 18.2393C1619.8 18.4907 1619.72 18.526 1619.87 18.806C1620.07 19.172 1620.27 19.182 1620.33 19.4631C1620.37 19.6395 1620.34 19.8221 1620.27 19.9846C1620.15 20.2359 1619.97 20.3263 1619.87 20.4388C1619.39 20.9977 1620.8 22.5831 1620.75 24.1541C1620.74 24.4165 1620.7 24.6756 1620.61 24.9259C1620.49 25.2963 1620.28 25.6315 1619.98 25.9005C1619.74 26.1154 1619.68 26.0603 1619.21 26.4219C1618.82 26.7174 1618.75 26.8431 1618.71 26.9632C1618.68 27.0759 1618.68 27.1959 1618.71 27.3086C1618.75 27.4213 1618.81 27.522 1618.9 27.5983C1619 27.6633 1619.12 27.6655 1619.44 27.5983C1620.16 27.4439 1620.34 27.2565 1620.85 27.2146C1621.05 27.1815 1621.25 27.197 1621.44 27.2587C1621.74 27.402 1621.99 27.6534 1622.12 27.9621C1622.26 28.2675 1622.17 28.3281 1622.33 28.6181C1622.46 28.8551 1622.64 29.0635 1622.86 29.2299C1623.33 29.6346 1623.49 29.5607 1623.72 29.865C1623.89 30.0877 1623.99 30.3611 1624 30.6422C1624 30.9244 1623.92 31.199 1623.74 31.4272C1623.45 31.8086 1623.13 31.7282 1622.9 32.1063C1622.8 32.2785 1622.76 32.4753 1622.77 32.673C1622.77 32.9243 1622.88 33.1746 1623.34 33.7391C1624.04 34.5549 1624.32 34.6045 1624.51 35.1205C1624.61 35.3586 1624.65 35.6166 1624.63 35.8735C1624.61 36.0466 1624.57 36.0499 1624.47 36.5074C1624.41 36.6933 1624.38 36.8822 1624.37 37.0741C1624.37 37.2549 1624.39 37.2648 1624.39 37.5062C1624.42 37.6826 1624.39 37.8623 1624.32 38.0277C1624.24 38.1475 1624.12 38.2409 1623.98 38.2978C1623.67 38.4588 1623.56 38.4081 1623.3 38.5712C1623.18 38.6269 1623.09 38.7141 1623.02 38.8226C1622.94 38.9957 1623.02 39.0729 1623 39.3661C1622.95 39.5668 1622.87 39.763 1622.79 39.9559C1622.66 40.2944 1622.64 40.3374 1622.58 40.387C1622.44 40.4995 1622.31 40.4399 1622.06 40.4995C1621.82 40.5793 1621.61 40.7194 1621.44 40.9063C1621.2 41.1113 1620.98 41.3396 1620.81 41.5887C1620.47 42.0352 1620.5 42.1554 1620.29 42.2678C1620.07 42.3803 1619.97 42.3351 1619.45 42.313C1618.93 42.291 1619.45 42.3329 1618.45 42.2877C1617.15 42.2359 1617.15 42.1973 1616.98 42.2678C1616.67 42.4001 1616.49 42.6361 1616.07 42.6515C1615.98 42.6548 1615.89 42.6471 1615.79 42.6295C1615.48 42.5403 1615.21 42.3484 1615.02 42.0848C1614.7 41.699 1614.46 41.8191 1612.36 40.9515C1611.82 40.731 1611.55 40.6152 1611.25 40.4499C1610.51 40.0563 1610.46 39.8909 1609.99 39.698C1609.53 39.505 1609.09 39.4973 1608.24 39.4918C1607.26 39.4918 1607.11 39.6318 1606.31 39.537C1605.79 39.4764 1605.36 39.4014 1605.36 39.4014C1605.05 39.3371 1604.74 39.2918 1604.42 39.2658C1604.18 39.2249 1603.93 39.2403 1603.69 39.311C1603.42 39.4212 1603.21 39.6131 1603.08 39.8556C1602.94 40.0893 1602.94 40.2591 1602.89 40.806C1602.8 41.8665 1602.76 41.7585 1602.75 42.2579C1602.74 42.635 1602.75 43.0131 1602.79 43.3891C1602.86 43.8301 1602.97 44.2604 1603.12 44.6801C1603.29 45.1519 1603.49 45.6139 1603.71 46.0648C1603.86 46.3724 1603.98 46.6998 1604.05 47.0372C1604.1 47.222 1604.1 47.419 1604.05 47.6038C1603.98 47.7979 1603.86 47.971 1603.71 48.1055C1603.17 48.5597 1601.45 48.4197 1600.8 48.3767C1599.12 48.2708 1597.94 48.1981 1596.54 48.3546C1595.94 48.4208 1595.24 48.5376 1594.79 48.1286C1594.67 48.0018 1594.57 47.853 1594.5 47.6887C1594.44 47.5259 1594.41 47.3506 1594.41 47.175C1594.44 46.885 1594.56 46.7516 1594.77 46.3602C1595.05 45.8002 1595.28 45.2126 1595.44 44.6051C1595.57 44.2259 1595.64 43.8268 1595.63 43.4266C1595.58 42.7265 1595.27 42.5843 1595.25 41.8643C1595.24 41.3021 1595.42 41.258 1595.35 40.8434C1595.23 40.1996 1594.69 39.7851 1594.44 39.5899C1594.03 39.2735 1593.82 39.2735 1592.4 38.8193C1591.1 38.4037 1590.9 38.2901 1590.32 38.2526C1589.83 38.1854 1589.32 38.257 1588.88 38.4588C1588.58 38.6484 1588.31 38.8549 1588.05 39.0784Z" fill="#78797B"/>
<path d="M1601.17 25.9908C1601.65 25.6314 1602.12 25.2742 1602.53 24.917C1602.77 24.7252 1602.98 24.4815 1603.12 24.2048C1603.25 23.927 1603.33 23.6238 1603.34 23.3151C1603.34 23.2313 1603.33 23.1475 1603.32 23.0637C1602.88 24.2246 1601.5 25.165 1601.43 25.208C1601.19 25.3991 1600.94 25.5902 1600.67 25.7813C1600.49 25.702 1600.28 25.6215 1600.07 25.5465C1599.33 25.3047 1598.62 24.9931 1597.95 24.6116H1601.47C1601.65 24.4661 1601.82 24.3128 1601.99 24.1497H1597.32C1597.36 24.3062 1597.4 24.4602 1597.45 24.6116C1597.77 25.4914 1598.56 26.3116 1599.82 27.0789C1600.45 27.4192 1601.04 27.8205 1601.58 28.2829H1599.24C1599.05 28.435 1598.87 28.5915 1598.69 28.7437H1602C1602.26 29.0722 1602.42 29.4647 1602.45 29.877H1597.6C1597.5 30.0204 1597.41 30.1758 1597.34 30.339H1602.44C1602.36 30.7734 1602.13 31.1724 1601.8 31.4745H1597.45C1597.56 31.6436 1597.7 31.7976 1597.85 31.9365H1601.21C1599.44 33.0996 1596.23 33.5461 1594.72 33.5736L1593.75 36.3927C1595.86 36.2604 1604.64 34.8547 1604.64 29.9652C1604.64 28.3722 1603.47 27.0337 1601.17 25.9908Z" fill="#E0E2EA"/>
<path d="M1599.07 27.5575C1598.93 27.4656 1598.8 27.373 1598.67 27.2797C1597.39 28.2829 1596.33 29.3082 1596.13 30.3666C1596.06 30.7492 1596.08 31.1427 1596.2 31.5132C1596.32 31.8836 1596.53 32.2232 1596.81 32.4977C1596.99 32.4668 1597.18 32.4337 1597.37 32.3985C1596.73 31.7833 1596.45 31.2243 1596.59 30.4471C1596.77 29.5045 1597.82 28.5244 1599.07 27.5575ZM1596.81 22.0308C1597.08 21.4685 1597.49 20.9779 1598 20.5986C1599.56 19.1875 1602.39 18.3551 1604.56 18.3099L1605.57 15.2053C1603.12 15.3486 1595.58 17.2339 1595.58 22.2039C1595.56 23.1906 1595.95 24.1442 1596.65 24.8619C1596.32 23.9336 1596.39 22.9216 1596.81 22.0308Z" fill="#E0E2EA"/>
<path d="M1601.17 25.9908C1601.65 25.6314 1602.12 25.2742 1602.53 24.917C1602.77 24.7251 1602.98 24.4815 1603.12 24.2048C1603.25 23.9269 1603.33 23.6238 1603.34 23.3151C1603.34 23.2313 1603.33 23.1475 1603.32 23.0637C1602.88 24.2246 1601.5 25.165 1601.43 25.208C1601.19 25.3991 1600.94 25.5902 1600.67 25.7813C1600.49 25.7019 1600.28 25.6214 1600.07 25.5465C1599.33 25.3047 1598.62 24.993 1597.95 24.6116H1601.47C1601.65 24.4661 1601.82 24.3128 1601.99 24.1496H1597.32C1597.36 24.3062 1597.4 24.4602 1597.45 24.6116C1597.77 25.4914 1598.56 26.3116 1599.82 27.0789C1600.45 27.4192 1601.04 27.8205 1601.58 28.2828H1599.24C1599.05 28.435 1598.87 28.5915 1598.69 28.7437H1602C1602.26 29.0722 1602.42 29.4647 1602.45 29.877H1597.6C1597.5 30.0203 1597.41 30.1758 1597.34 30.339H1602.44C1602.36 30.7733 1602.13 31.1724 1601.8 31.4745H1597.45C1597.56 31.6436 1597.7 31.7975 1597.85 31.9364H1601.21C1599.44 33.0996 1596.23 33.5461 1594.72 33.5736L1593.75 36.3927C1595.86 36.2604 1604.64 34.8547 1604.64 29.9652C1604.64 28.3721 1603.47 27.0337 1601.17 25.9908ZM1597.36 23.0009H1602.82C1602.85 22.9546 1602.86 22.9071 1602.88 22.8575C1602.89 22.8383 1602.9 22.8164 1602.9 22.7936C1602.92 22.7241 1602.94 22.6536 1602.96 22.583V22.5676C1602.99 22.4009 1602.98 22.2292 1602.93 22.066C1602.42 21.2314 1601.53 20.4839 1600.86 19.9194C1600.7 19.9856 1600.53 20.0517 1600.38 20.1223L1600.5 20.2303C1600.76 20.4365 1601.02 20.6691 1601.31 20.9227H1598.91C1598.7 21.0631 1598.5 21.2167 1598.31 21.3835H1601.8C1602.14 21.7209 1602.43 22.1079 1602.66 22.5301L1597.49 22.54C1597.43 22.6902 1597.39 22.8442 1597.36 23.0009Z" fill="#E0E2EA"/>
<path d="M1635.24 24.5357C1633.95 24.5357 1632.99 24.0826 1632.35 23.1752C1631.73 22.2683 1631.42 20.9802 1631.42 19.311C1631.42 17.6419 1631.73 16.3535 1632.35 15.4458C1632.99 14.5395 1633.95 14.0853 1635.24 14.0853C1635.74 14.0853 1636.17 14.1529 1636.53 14.2882C1636.89 14.4138 1637.21 14.5924 1637.48 14.824C1637.73 15.0456 1637.95 15.3113 1638.13 15.6199C1638.32 15.9187 1638.46 16.2417 1638.58 16.5901L1637.11 17.0818C1637.03 16.8503 1636.95 16.6331 1636.85 16.4314C1636.75 16.2278 1636.63 16.054 1636.49 15.9099C1636.33 15.7628 1636.15 15.6448 1635.96 15.5615C1635.76 15.4748 1635.52 15.4314 1635.23 15.4314C1634.51 15.4314 1633.98 15.707 1633.65 16.2572C1633.32 16.7974 1633.16 17.5305 1633.16 18.4566V20.1655C1633.16 21.0915 1633.32 21.8295 1633.65 22.3792C1633.98 22.9195 1634.51 23.1896 1635.23 23.1896C1635.52 23.1896 1635.76 23.1462 1635.96 23.0595C1636.17 22.9724 1636.33 22.8566 1636.49 22.7122C1636.63 22.5674 1636.75 22.3936 1636.85 22.1907C1636.95 21.9879 1637.03 21.7718 1637.11 21.5403L1638.58 22.032C1638.46 22.3792 1638.32 22.7067 1638.13 23.0165C1637.95 23.3141 1637.73 23.5798 1637.48 23.8114C1637.21 24.0341 1636.89 24.2127 1636.53 24.3472C1636.17 24.4721 1635.74 24.5346 1635.24 24.5346M1640.28 24.3615V14.2595H1646.65V15.6199H1641.91V18.5581H1646.47V19.9185H1641.91V23.001H1646.65V24.3615H1640.28ZM1653.46 20.5557H1653.4C1653.14 20.6616 1652.86 20.7435 1652.54 20.8016C1652.22 20.8589 1651.85 20.8887 1651.43 20.8887C1650.86 20.8887 1650.37 20.8203 1649.96 20.6858C1649.57 20.5558 1649.22 20.3319 1648.94 20.0343C1648.67 19.7065 1648.48 19.32 1648.38 18.9053C1648.26 18.4522 1648.2 17.912 1648.2 17.2847V14.2595H1649.84V17.299C1649.84 17.7235 1649.87 18.0807 1649.92 18.3695C1649.99 18.6496 1650.1 18.8767 1650.24 19.0498C1650.4 19.224 1650.6 19.3496 1650.84 19.4268C1651.08 19.493 1651.39 19.5271 1651.74 19.5271C1652.37 19.5271 1652.95 19.4261 1653.46 19.2239V14.2595H1655.1V24.3604H1653.46V20.5557ZM1657.18 24.3615V14.2595H1663.55V15.6199H1658.81V18.5581H1663.37V19.9185H1658.81V23.001H1663.55V24.3615H1657.18ZM1670.44 19.9185H1667.06V24.3615H1665.43V14.2595H1667.06V18.5581H1670.44V14.2584H1672.07V24.3615H1670.44V19.9185ZM1677.2 24.5357C1676.55 24.5357 1676 24.4199 1675.51 24.1884C1675.05 23.9466 1674.66 23.6041 1674.36 23.1609C1674.05 22.7166 1673.83 22.172 1673.68 21.5248C1673.53 20.7971 1673.46 20.0548 1673.46 19.311C1673.46 18.4908 1673.54 17.7566 1673.68 17.1105C1673.83 16.4545 1674.05 15.9044 1674.36 15.4612C1674.65 15.0308 1675.05 14.6818 1675.51 14.4469C1676 14.2066 1676.55 14.0853 1677.2 14.0853C1677.84 14.0853 1678.39 14.2062 1678.85 14.448C1679.33 14.6795 1679.72 15.0169 1680.02 15.4601C1680.33 15.9044 1680.56 16.4545 1680.71 17.1105C1680.85 17.7566 1680.93 18.4908 1680.93 19.311C1680.93 20.0548 1680.86 20.7971 1680.71 21.5248C1680.56 22.172 1680.33 22.7166 1680.02 23.1609C1679.72 23.6041 1679.33 23.947 1678.85 24.1884C1678.39 24.4199 1677.84 24.5357 1677.2 24.5357ZM1677.2 23.1896C1677.93 23.1896 1678.43 22.9195 1678.74 22.3792C1679.04 21.8291 1679.2 21.086 1679.2 20.15V18.4566C1679.2 17.5305 1679.04 16.7974 1678.74 16.2572C1678.43 15.7059 1677.93 15.4314 1677.2 15.4314C1676.46 15.4314 1675.95 15.707 1675.65 16.2572C1675.35 16.7974 1675.19 17.5305 1675.19 18.4566V20.1655C1675.19 21.0915 1675.35 21.8291 1675.65 22.3792C1675.95 22.9195 1676.46 23.1896 1677.2 23.1896ZM1682.48 14.2595H1686C1686.91 14.2595 1687.63 14.4954 1688.14 14.9684C1688.65 15.4413 1688.91 16.0874 1688.91 16.9087C1688.91 17.4964 1688.76 17.9649 1688.47 18.3122C1688.18 18.6595 1687.78 18.9053 1687.29 19.0509V19.1225C1687.88 19.257 1688.36 19.5183 1688.72 19.9042C1689.07 20.2801 1689.26 20.8159 1689.26 21.5105C1689.26 21.9261 1689.19 22.3065 1689.05 22.6538C1688.92 23.001 1688.72 23.3053 1688.47 23.5655C1688.21 23.8169 1687.92 24.0142 1687.55 24.1597C1687.18 24.2993 1686.78 24.3677 1686.38 24.3615H1682.48V14.2595ZM1685.89 23.1168C1686.44 23.1168 1686.86 23.0058 1687.14 22.7839C1687.43 22.5634 1687.59 22.205 1687.59 21.7133V21.1919C1687.59 20.7002 1687.43 20.343 1687.14 20.1214C1686.86 19.8994 1686.44 19.7884 1685.89 19.7884H1684.08V23.1179L1685.89 23.1168ZM1685.66 18.601C1686.17 18.601 1686.56 18.5051 1686.82 18.3122C1687.1 18.1093 1687.23 17.7764 1687.23 17.3134V16.7919C1687.23 16.3288 1687.1 16.0014 1686.82 15.8085C1686.56 15.6056 1686.17 15.5042 1685.66 15.5042H1684.08V18.6022L1685.66 18.601ZM1694.39 24.5357C1693.09 24.5357 1692.13 24.0826 1691.5 23.1752C1690.87 22.2679 1690.56 20.9802 1690.56 19.311C1690.56 17.6419 1690.87 16.3531 1691.5 15.4458C1692.13 14.5395 1693.09 14.0853 1694.39 14.0853C1694.88 14.0853 1695.3 14.1537 1695.67 14.2882C1696.03 14.4138 1696.35 14.5924 1696.61 14.824C1696.88 15.0456 1697.1 15.3113 1697.26 15.6199C1697.45 15.9187 1697.61 16.2417 1697.72 16.5901L1696.25 17.0818C1696.17 16.8503 1696.09 16.6335 1695.99 16.4314C1695.89 16.2278 1695.77 16.054 1695.62 15.9099C1695.47 15.7584 1695.29 15.6398 1695.09 15.5615C1694.91 15.4748 1694.66 15.4314 1694.37 15.4314C1693.65 15.4314 1693.13 15.707 1692.8 16.2572C1692.47 16.7974 1692.3 17.5305 1692.3 18.4566V20.1655C1692.3 21.0915 1692.47 21.8295 1692.8 22.3792C1693.13 22.9195 1693.65 23.1896 1694.37 23.1896C1694.66 23.1896 1694.91 23.1462 1695.09 23.0595C1695.3 22.972 1695.48 22.8562 1695.62 22.7122C1695.77 22.5674 1695.89 22.3936 1695.99 22.1907C1696.09 21.9879 1696.17 21.771 1696.25 21.5403L1697.72 22.032C1697.61 22.3792 1697.45 22.7067 1697.26 23.0165C1697.1 23.3141 1696.88 23.5798 1696.61 23.8114C1696.35 24.0341 1696.03 24.2127 1695.67 24.3472C1695.3 24.4728 1694.88 24.5346 1694.39 24.5346M1699.22 14.2595H1700.85V18.5724H1702.42L1704.36 14.2595H1706.04L1704.32 18.0807C1704.16 18.4467 1703.99 18.7073 1703.82 18.8623C1703.67 19.0128 1703.48 19.1137 1703.27 19.1512V19.2383C1703.52 19.2868 1703.7 19.3882 1703.86 19.5426C1704.01 19.6969 1704.17 19.9725 1704.33 20.3672L1705.47 23.0021H1706.36V24.3604H1705.37C1705 24.3604 1704.71 24.2689 1704.46 24.0859C1704.22 23.9029 1704 23.5942 1703.81 23.1598L1702.41 19.9317H1700.85V24.3604H1699.22V14.2595ZM1707.62 14.2595H1709.23V18.7752L1709.02 21.6263H1709.13L1712.81 14.2595H1714.35V24.3604H1712.75V19.8446L1712.95 16.9936H1712.85L1709.17 24.3604H1707.62V14.2595ZM1716.07 14.2595H1717.67V18.7752L1717.47 21.6263H1717.57L1721.25 14.2595H1722.81V24.3604H1721.2V19.8446L1721.41 16.9936H1721.3L1717.62 24.3604H1716.07V14.2595ZM1719.44 13.4492C1718.87 13.4492 1718.42 13.3279 1718.07 13.0876C1717.72 12.8362 1717.43 12.4647 1717.21 11.973L1716.84 11.1615L1718.17 10.6985L1718.7 12.2331C1718.79 12.2717 1718.9 12.3004 1719.05 12.3202C1719.31 12.3388 1719.57 12.3388 1719.83 12.3202C1719.98 12.3004 1720.1 12.2717 1720.19 12.232L1720.7 10.6996L1722.04 11.1626L1721.67 11.973C1721.44 12.4654 1721.16 12.8366 1720.81 13.0865C1720.46 13.329 1720 13.4492 1719.44 13.4492ZM1632.42 35.9871H1634.04L1634.45 34.9596L1631.04 27.2456H1632.79L1634.59 31.5441L1635.18 33.2662H1635.22L1635.77 31.5155L1637.3 27.2456H1638.91L1635.68 35.7843C1635.56 36.093 1635.44 36.3487 1635.31 36.5516C1635.17 36.7545 1635.03 36.9132 1634.86 37.029C1634.7 37.1447 1634.51 37.2274 1634.29 37.2759C1634.08 37.3233 1633.83 37.3476 1633.54 37.3476H1632.42V35.9871ZM1645.1 32.9046H1641.71V37.3476H1640.08V27.2456H1641.71V31.5441H1645.1V27.2445H1646.73V37.3476H1645.1V32.9046ZM1648.48 27.2456H1650.09V31.7613L1649.88 34.6123H1649.98L1653.67 27.2456H1655.22V37.3476H1653.61V32.8318L1653.82 29.9808H1653.72L1650.02 37.3476H1648.48V27.2456ZM1657.13 27.2456H1660.65C1661.57 27.2456 1662.28 27.4815 1662.79 27.9545C1663.31 28.4274 1663.56 29.0735 1663.56 29.8948C1663.56 30.4825 1663.42 30.9499 1663.12 31.2983C1662.83 31.6456 1662.44 31.8914 1661.94 32.037V32.1086C1662.54 32.2431 1663.01 32.5033 1663.37 32.8903C1663.73 33.2662 1663.91 33.802 1663.91 34.4966C1663.91 34.9111 1663.85 35.2926 1663.71 35.6399C1663.57 35.9871 1663.37 36.2903 1663.12 36.5516C1662.87 36.803 1662.57 37.0003 1662.21 37.1447C1661.85 37.2803 1661.47 37.3476 1661.04 37.3476H1657.13V27.2456ZM1660.54 36.1029C1661.09 36.1029 1661.51 35.9919 1661.8 35.7699C1662.08 35.5483 1662.24 35.1911 1662.24 34.6994V34.178C1662.24 33.6863 1662.08 33.3291 1661.8 33.1075C1661.51 32.8848 1661.09 32.7738 1660.54 32.7745H1658.73V36.104L1660.54 36.1029ZM1660.31 31.5871C1660.83 31.5871 1661.21 31.4912 1661.48 31.2983C1661.75 31.0954 1661.89 30.7625 1661.89 30.2994V29.778C1661.89 29.3149 1661.75 28.9875 1661.48 28.7935C1661.21 28.5917 1660.83 28.4903 1660.31 28.4903H1658.73V31.5882L1660.31 31.5871ZM1665.62 37.3476V27.2456H1672V28.606H1667.26V31.5441H1671.82V32.9046H1667.26V35.9871H1672V37.3476H1665.62ZM1674.05 37.3476V27.2456H1677.85C1678.82 27.2456 1679.56 27.5157 1680.07 28.0559C1680.58 28.5961 1680.84 29.3392 1680.84 30.2851C1680.84 31.231 1680.58 31.973 1680.07 32.5132C1679.56 33.0534 1678.82 33.3239 1677.85 33.3246H1675.68V37.3487L1674.05 37.3476ZM1675.68 31.9785H1677.61C1678.61 31.9785 1679.12 31.5155 1679.12 30.5894V29.9665C1679.12 29.0492 1678.61 28.5917 1677.61 28.5917H1675.68V31.9785ZM1685.93 37.5218C1684.64 37.5218 1683.68 37.0683 1683.05 36.1613C1682.43 35.254 1682.12 33.9663 1682.12 32.296C1682.12 30.6258 1682.43 29.3392 1683.05 28.4318C1683.68 27.5249 1684.64 27.0714 1685.93 27.0714C1686.43 27.0714 1686.86 27.139 1687.22 27.2742C1687.59 27.3999 1687.9 27.5785 1688.17 27.81C1688.42 28.0316 1688.64 28.2973 1688.82 28.606C1689.01 28.9048 1689.16 29.2278 1689.27 29.5762L1687.81 30.0679C1687.72 29.8364 1687.64 29.6192 1687.54 29.4164C1687.44 29.2135 1687.32 29.0397 1687.18 28.8949C1687.02 28.7482 1686.84 28.6305 1686.65 28.5476C1686.45 28.4616 1686.21 28.4183 1685.92 28.4175C1685.2 28.4175 1684.67 28.6931 1684.34 29.2422C1684.01 29.7824 1683.85 30.5159 1683.85 31.4427V33.1505C1683.85 34.0765 1684.01 34.8148 1684.34 35.3653C1684.67 35.9055 1685.2 36.1757 1685.92 36.1757C1686.21 36.1757 1686.45 36.1323 1686.65 36.0456C1686.86 35.9574 1687.02 35.8427 1687.18 35.6983C1687.32 35.5528 1687.44 35.3789 1687.54 35.1768C1687.64 34.974 1687.72 34.7579 1687.81 34.5263L1689.27 35.017C1689.16 35.3653 1689.01 35.6928 1688.82 36.0015C1688.64 36.3013 1688.42 36.5659 1688.17 36.7975C1687.9 37.0202 1687.59 37.1988 1687.22 37.3333C1686.86 37.4582 1686.43 37.5218 1685.93 37.5218ZM1690.73 27.2456H1692.33V31.7613L1692.13 34.6123H1692.23L1695.91 27.2456H1697.46V37.3476H1695.85V32.8318L1696.06 29.9808H1695.95L1692.27 37.3476H1690.73V27.2456ZM1703.36 28.6049V37.3476H1701.72V28.6049H1698.53V27.2456H1706.55V28.606L1703.36 28.6049ZM1707.87 37.3476V27.2456H1714.24V28.606H1709.5V31.5441H1714.07V32.9046H1709.5V35.9871H1714.24V37.3476H1707.87ZM1720.25 28.6049V37.3476H1718.62V28.6049H1715.43V27.2456H1723.45V28.606L1720.25 28.6049ZM1659.19 43.5358H1657.79V45.378H1657.11V41.1886H1657.79V42.9713H1659.19V41.1897H1659.87V45.3791H1659.19V43.5358ZM1662.97 45.378L1662.65 44.2623H1661.3L1660.98 45.378H1660.3L1661.53 41.1886H1662.46L1663.68 45.378H1662.97ZM1662 41.8677H1661.95L1661.43 43.7045H1662.53L1662 41.8677ZM1664.44 44.8147H1665.12L1665.28 44.388L1663.87 41.1897H1664.6L1665.34 42.9713L1665.59 43.6857H1665.6L1665.83 42.9603L1666.46 41.1897H1667.13L1665.79 44.7298C1665.74 44.8588 1665.69 44.9646 1665.63 45.0484C1665.59 45.1242 1665.53 45.1914 1665.46 45.2468C1665.39 45.2965 1665.3 45.331 1665.22 45.3483C1665.13 45.3681 1665.03 45.378 1664.91 45.378H1664.44V44.8147ZM1667.62 41.1897H1668.29V42.9779H1668.94L1669.75 41.1897H1670.44L1669.74 42.774C1669.66 42.9261 1669.59 43.0342 1669.53 43.0981C1669.46 43.1606 1669.38 43.2025 1669.29 43.2183V43.2536C1669.39 43.2687 1669.47 43.3127 1669.54 43.3792C1669.6 43.4439 1669.67 43.5578 1669.74 43.721L1670.21 44.8147H1670.57V45.378H1670.17C1670.03 45.3819 1669.9 45.342 1669.79 45.2645C1669.69 45.1873 1669.6 45.0605 1669.52 44.8797L1668.94 43.5413H1668.29V45.378H1667.62V41.1897ZM1676 45.4508C1675.73 45.4508 1675.5 45.4027 1675.3 45.3064C1675.12 45.2072 1674.95 45.0638 1674.82 44.8797C1674.69 44.6706 1674.6 44.4415 1674.54 44.2017C1674.49 43.9338 1674.45 43.6284 1674.45 43.2833C1674.45 42.9438 1674.49 42.6395 1674.54 42.3716C1674.61 42.0993 1674.7 41.8722 1674.82 41.688C1674.95 41.5039 1675.12 41.3639 1675.3 41.268C1675.5 41.1673 1675.73 41.117 1676 41.117C1676.26 41.117 1676.49 41.1673 1676.69 41.268C1676.89 41.3639 1677.05 41.5039 1677.18 41.6869C1677.3 41.8711 1677.4 42.0993 1677.45 42.3716C1677.52 42.6399 1677.55 42.9438 1677.55 43.2833C1677.55 43.628 1677.52 43.9342 1677.45 44.2017C1677.4 44.4696 1677.3 44.6956 1677.18 44.8797C1677.05 45.0638 1676.89 45.2061 1676.69 45.3064C1676.49 45.4019 1676.26 45.4508 1676 45.4508ZM1676 44.8907C1676.31 44.8907 1676.52 44.7794 1676.64 44.5556C1676.77 44.3274 1676.82 44.0187 1676.82 43.6306V42.9283C1676.82 42.5447 1676.77 42.2404 1676.64 42.0166C1676.52 41.7884 1676.31 41.6748 1676 41.6748C1675.7 41.6748 1675.49 41.7884 1675.36 42.0166C1675.24 42.2404 1675.17 42.5447 1675.17 42.9283V43.6372C1675.17 44.0209 1675.24 44.3274 1675.36 44.5556C1675.49 44.7794 1675.7 44.8907 1676 44.8907ZM1682.7 43.5237H1682.35L1681.85 45.378H1681.2L1681.62 43.8423C1681.66 43.6416 1681.73 43.5005 1681.81 43.4156C1681.88 43.3313 1681.98 43.274 1682.08 43.2536V43.2183C1681.99 43.1967 1681.9 43.1463 1681.83 43.0739C1681.75 42.9617 1681.69 42.8325 1681.66 42.6957L1681.29 41.1897H1681.9L1682.35 42.9835H1682.7V41.1897H1683.32V42.9835H1683.67L1684.11 41.1897H1684.73L1684.35 42.6957C1684.31 42.8721 1684.26 42.9978 1684.18 43.0739C1684.11 43.1459 1684.02 43.1959 1683.92 43.2172V43.2536C1684.05 43.2778 1684.13 43.3318 1684.21 43.4156C1684.28 43.5005 1684.34 43.6416 1684.4 43.8423L1684.81 45.378H1684.16L1683.67 43.5237H1683.32V45.378H1682.7V43.5237ZM1685.12 41.1897H1685.78V43.0617L1685.7 44.2436H1685.73L1687.27 41.1897H1687.9V45.3791H1687.24V43.506L1687.33 42.3242H1687.29L1685.76 45.378H1685.12V41.1897ZM1689.9 45.4508C1689.55 45.4508 1689.26 45.3858 1689.02 45.259C1688.79 45.1385 1688.59 44.9731 1688.43 44.7728L1688.88 44.3516C1689.16 44.7077 1689.5 44.8863 1689.91 44.8863C1690.15 44.8863 1690.34 44.8279 1690.48 44.7121C1690.62 44.5964 1690.69 44.4365 1690.69 44.2326V44.13C1690.69 43.9426 1690.63 43.796 1690.51 43.6923C1690.4 43.5843 1690.21 43.5303 1689.96 43.5303H1689.37V42.9658H1689.93C1690.16 42.9658 1690.33 42.914 1690.44 42.8093C1690.55 42.7045 1690.62 42.5535 1690.62 42.3539V42.258C1690.62 42.0772 1690.55 41.9383 1690.44 41.838C1690.32 41.7332 1690.14 41.6814 1689.9 41.6814C1689.69 41.6814 1689.5 41.7211 1689.36 41.8016C1689.22 41.8817 1689.1 41.9876 1689 42.1191L1688.56 41.7542C1688.72 41.5491 1688.91 41.3937 1689.13 41.2856C1689.34 41.1732 1689.61 41.117 1689.94 41.117C1690.39 41.117 1690.73 41.2195 1690.96 41.4234C1691.2 41.6234 1691.32 41.8953 1691.32 42.2393C1691.32 42.3885 1691.3 42.5186 1691.26 42.6296C1691.22 42.734 1691.16 42.8298 1691.08 42.9118C1691 42.988 1690.91 43.0509 1690.82 43.0981C1690.71 43.1476 1690.6 43.1817 1690.48 43.1995V43.2293C1690.62 43.2414 1690.74 43.2701 1690.84 43.3142C1690.95 43.3549 1691.05 43.418 1691.13 43.4996C1691.22 43.5812 1691.29 43.6794 1691.33 43.7883C1691.38 43.9 1691.4 44.0337 1691.4 44.1896C1691.4 44.3777 1691.37 44.5501 1691.3 44.7066C1691.22 44.8548 1691.12 44.9888 1691 45.1024C1690.87 45.2105 1690.72 45.2965 1690.52 45.3604C1690.34 45.4199 1690.13 45.4508 1689.9 45.4508ZM1694.22 43.5358H1692.81V45.378H1692.14V41.1886H1692.81V42.9713H1694.22V41.1897H1694.89V45.3791H1694.22V43.5358ZM1695.62 41.1897H1696.28V43.0617L1696.21 44.2436H1696.25L1697.77 41.1897H1698.41V45.3791H1697.75V43.506L1697.84 42.3242H1697.79L1696.26 45.378H1695.62V41.1897Z" fill="#78797B"/>
</g>
<mask id="mask4_244_4631" style="mask-type:luminance" maskUnits="userSpaceOnUse" x="675" y="1" width="126" height="52">
<path d="M675.242 1.09814H800.925V52.9146H675.242V1.09814Z" fill="white"/>
</mask>
<g mask="url(#mask4_244_4631)">
<path d="M698.642 1.09814L675.242 14.0501V39.9627L698.642 52.9146L722.052 39.9627V14.0501L698.642 1.09814ZM718.511 38.0036L698.642 49.0416L678.773 38.0036V16.0092L698.642 4.97225L718.511 16.0114V38.0036Z" fill="#78797B"/>
<path d="M698.64 8.69653L682.109 17.8493V36.1637L698.639 45.3164L715.189 36.1637V36.1549L711.649 34.2035L698.639 41.4071L685.64 34.2046V19.8084L698.64 12.6059L711.649 19.8084L715.189 17.8581V17.8493L698.64 8.69653Z" fill="#78797B"/>
<path d="M688.895 21.611V32.402L698.643 37.802L708.391 32.402L704.85 30.4506L698.643 33.8826L692.436 30.4429V23.5723L698.643 20.1314L704.85 23.5612L708.391 21.611L698.643 16.2209L688.895 21.611ZM752.513 16.6542C751.726 15.6119 750.691 14.7831 749.502 14.2431C748.297 13.6937 746.976 13.4444 745.653 13.5166C741.336 13.5166 738.545 16.1184 738.545 20.1678C738.563 24.0959 741.442 26.8554 745.653 26.8554C746.98 26.9274 748.304 26.6742 749.511 26.1179C750.7 25.5707 751.733 24.7328 752.513 23.6814L755.306 25.2547C753.282 28.2258 750.115 29.8542 745.711 29.8542C739.581 29.8542 735.023 26.1741 735.023 20.1766C735.023 14.1792 739.696 10.4814 745.721 10.4814C750.048 10.4814 753.281 12.1186 755.316 15.1262L752.513 16.6542ZM775.117 16.6542C774.334 15.6194 773.307 14.7954 772.126 14.2563C770.93 13.7078 769.619 13.4545 768.304 13.5177C763.987 13.5177 761.195 16.1195 761.195 20.1678C761.147 24.0959 764.045 26.8554 768.304 26.8554C769.631 26.9274 770.955 26.6742 772.161 26.1179C773.351 25.5697 774.383 24.732 775.165 23.6814L777.946 25.2547C775.933 28.2258 772.757 29.8531 768.354 29.8531C762.223 29.8531 757.665 26.1741 757.665 20.1766C757.665 14.1792 762.3 10.4814 768.305 10.4814C772.622 10.4814 775.866 12.1186 777.9 15.1262L775.117 16.6542ZM784.558 10.9136V18.061H791.274L796.359 10.9136H800.436L794.306 19.4953L800.925 29.3845H796.742L791.379 21.1049H784.558V29.3845H781.036V10.9136H784.558ZM739.245 35.5838C739.057 35.3334 738.809 35.134 738.525 35.0039C738.237 34.8701 737.921 34.8074 737.604 34.8209C737.379 34.803 737.152 34.8317 736.938 34.9051C736.724 34.9784 736.527 35.095 736.36 35.2475C736.198 35.3995 736.071 35.5845 735.988 35.7899C735.906 35.9929 735.871 36.212 735.887 36.4305C735.881 36.6485 735.922 36.8652 736.007 37.0663C736.091 37.2673 736.218 37.4482 736.377 37.5969C736.538 37.749 736.731 37.8659 736.942 37.9431C737.153 38.0191 737.379 38.0533 737.604 38.0412C737.926 38.0566 738.247 37.9938 738.537 37.8582C738.828 37.7237 739.077 37.5197 739.265 37.2684L739.945 37.6454C739.697 38.0277 739.351 38.3362 738.943 38.5384C738.528 38.7459 738.067 38.8409 737.604 38.814C737.271 38.8338 736.938 38.7877 736.623 38.6784C736.311 38.5719 736.023 38.4027 735.779 38.1812C735.536 37.9647 735.342 37.6995 735.209 37.4029C735.077 37.1103 735.009 36.7931 735.009 36.4724C735.009 36.1516 735.077 35.8345 735.209 35.5419C735.341 35.2475 735.535 34.9829 735.779 34.7635C736.021 34.5441 736.309 34.3755 736.623 34.2663C736.938 34.157 737.271 34.111 737.604 34.1307C738.058 34.1053 738.513 34.1957 738.918 34.3931C739.325 34.5893 739.669 34.887 739.916 35.253L739.245 35.5838ZM745.222 34.2134V34.9587H743.246V38.6376H742.401V34.9587H740.406V34.2134H745.222ZM748.666 34.2134C748.913 34.1957 749.162 34.2277 749.395 34.306C749.629 34.3843 749.843 34.51 750.023 34.6731C750.202 34.8319 750.345 35.0275 750.442 35.2467C750.54 35.4659 750.588 35.7035 750.585 35.9432C750.589 36.1802 750.541 36.415 750.444 36.6322C750.347 36.8524 750.203 37.0488 750.023 37.2077C749.84 37.3701 749.626 37.4928 749.394 37.5682C749.16 37.6454 748.912 37.6741 748.666 37.6542H746.747V38.6839H745.894V34.2134H748.666ZM746.747 36.9001H748.638C748.903 36.9002 749.158 36.7988 749.35 36.6168C749.491 36.4856 749.588 36.3138 749.627 36.1252C749.666 35.9365 749.646 35.7404 749.568 35.5639C749.517 35.4464 749.442 35.3401 749.35 35.2508C749.158 35.0688 748.903 34.9674 748.638 34.9675H746.786L746.747 36.9001ZM753.808 38.814C753.254 38.7771 752.728 38.5559 752.314 38.1856C751.907 37.8285 751.641 37.3374 751.566 36.8013C751.49 36.2652 751.609 35.7198 751.901 35.264C752.2 34.8017 752.646 34.4545 753.168 34.2795C753.697 34.1005 754.271 34.1013 754.8 34.2817C755.327 34.4625 755.774 34.8109 756.064 35.2696C756.355 35.7293 756.472 36.2695 756.395 36.802C756.315 37.3386 756.05 37.8302 755.645 38.1911C755.396 38.4094 755.107 38.5768 754.794 38.6839C754.477 38.7915 754.142 38.8365 753.808 38.814ZM753.808 38.104C754.145 38.0963 754.472 37.9938 754.748 37.8097C755.023 37.6245 755.237 37.3665 755.36 37.0655C755.483 36.7656 755.511 36.4371 755.44 36.1218C755.367 35.8034 755.2 35.5144 754.961 35.2927C754.716 35.0663 754.412 34.9151 754.084 34.8572C753.753 34.7977 753.412 34.8341 753.102 34.9598C752.792 35.0866 752.528 35.2982 752.343 35.5672C752.189 35.7896 752.095 36.0476 752.069 36.3167C752.042 36.5859 752.085 36.8573 752.193 37.1052C752.283 37.3036 752.413 37.4833 752.576 37.6311C752.74 37.7799 752.934 37.8946 753.146 37.9673C753.359 38.0412 753.584 38.0721 753.808 38.0577V38.104ZM758.068 34.2134V37.598L761.177 34.2134H762.031V38.6839H761.177V35.2993L758.078 38.6564H757.215V34.2134H758.068ZM767.556 34.2134V34.9587H765.571V38.6376H764.717V34.9587H762.731V34.2134H767.556ZM772.432 34.2134V34.9587H769.111V36.0534H772.143V36.7899H769.111V37.8946H772.555V38.6487H768.305V34.2134H772.432ZM778.322 34.2134V38.6839H777.468V35.005H775.386L774.868 37.6267C774.834 37.9464 774.672 38.2385 774.415 38.4447C774.158 38.6509 773.829 38.7534 773.495 38.7313H773.016V37.8935H773.438C773.579 37.9094 773.72 37.8707 773.833 37.7854C773.887 37.7446 773.933 37.6932 773.967 37.6343C774.002 37.5754 774.024 37.5102 774.032 37.4425L774.675 34.1858L778.322 34.2134ZM780.077 34.2134V35.2905H781.852C782.095 35.2674 782.34 35.2935 782.572 35.3674C782.804 35.4413 783.019 35.5614 783.204 35.7205C783.385 35.8792 783.529 36.0733 783.626 36.2894C783.724 36.5043 783.774 36.7381 783.771 36.9729C783.773 37.2099 783.724 37.4436 783.626 37.6608C783.529 37.8802 783.385 38.0758 783.205 38.2341C783.023 38.3967 782.81 38.5199 782.578 38.5957C782.345 38.6729 782.098 38.7038 781.852 38.6839H779.224V34.2134H780.077ZM780.077 37.8935H781.785C782.476 37.8935 782.879 37.5627 782.879 36.9729C782.879 36.3831 782.476 36.0534 781.785 36.0534H780.077V37.8935ZM785.325 34.2134V35.9983H788.318V34.2134H789.174V38.6839H788.32V36.7061H785.325V38.6575H784.462V34.2145L785.325 34.2134ZM793.557 34.2134L795.544 38.6839H794.642L794.317 37.985H791.141L790.821 38.6839H789.863L791.945 34.2134H793.557ZM791.466 37.2584H793.97L793.01 34.9498H792.474L791.466 37.2584ZM800.743 38.6564H799.879V37.609H797.855L797.251 38.6564H796.291L797.02 37.415C796.727 37.285 796.479 37.0728 796.305 36.8042C796.135 36.5397 796.05 36.2297 796.061 35.9156C796.059 35.6731 796.111 35.4349 796.213 35.2133C796.315 34.9928 796.464 34.7944 796.653 34.6345C796.84 34.4736 797.062 34.3523 797.302 34.2795C797.543 34.2079 797.796 34.1847 798.047 34.2134H800.791L800.743 38.6564ZM798.038 34.9774C797.901 34.9652 797.763 34.9804 797.632 35.022C797.501 35.0637 797.38 35.131 797.275 35.22C797.174 35.3092 797.093 35.418 797.036 35.5397C796.98 35.6602 796.951 35.7915 796.951 35.9244C796.951 36.0573 796.98 36.1886 797.036 36.3092C797.093 36.4324 797.175 36.5421 797.278 36.6314C797.38 36.7206 797.5 36.7874 797.63 36.8274C797.761 36.8703 797.9 36.8853 798.038 36.8715H799.879V34.941L798.038 34.9774ZM735.974 41.8128V43.5415H737.604L738.832 41.8117H739.793L738.304 43.8821L739.906 46.2822H738.928L737.604 44.3319H735.974V46.3285H735.129V41.8117L735.974 41.8128ZM742.746 46.4024C742.186 46.3718 741.653 46.1549 741.23 45.7861C740.816 45.427 740.543 44.9329 740.46 44.3915C740.378 43.8546 740.493 43.3077 740.783 42.8425C741.073 42.3772 741.521 42.0222 742.053 41.8381C742.586 41.6529 743.165 41.6491 743.7 41.8271C744.233 42.0057 744.687 42.3563 744.982 42.8171C745.279 43.2791 745.4 43.8237 745.325 44.3606C745.249 44.9032 744.983 45.4013 744.574 45.7663C744.33 45.9867 744.043 46.1565 743.728 46.2657C743.414 46.3748 743.08 46.4211 742.746 46.4024ZM742.746 45.6847C743.084 45.677 743.41 45.5744 743.686 45.3903C743.962 45.2062 744.175 44.9471 744.297 44.6461C744.421 44.3463 744.448 44.0177 744.378 43.7024C744.306 43.3842 744.139 43.0952 743.899 42.8734C743.655 42.6472 743.35 42.4961 743.022 42.4379C742.691 42.3783 742.349 42.4147 742.04 42.5404C741.73 42.6672 741.466 42.8789 741.281 43.1479C741.097 43.415 740.999 43.732 741.001 44.0563C740.992 44.2768 741.032 44.4962 741.117 44.7002C741.203 44.9041 741.332 45.0893 741.496 45.2426C741.661 45.3969 741.858 45.5149 742.073 45.591C742.288 45.667 742.518 45.699 742.746 45.6847ZM747.4 41.8128L749.222 45.3253L751.056 41.8117H752.274V46.2822H751.419V42.8326H751.333L749.569 46.2833H748.801L747.036 42.8326H746.939V46.2833H746.114V41.8117L747.4 41.8128ZM757.752 41.8128V46.2822H756.898V42.5481H754.021V46.2822H753.166V41.8128H757.752ZM762.155 41.8128L764.132 46.2822H763.23L762.904 45.5832H759.729L759.412 46.2822H758.452L760.496 41.8117L762.155 41.8128ZM760.054 44.8567H762.549L761.59 42.5481H761.062L760.054 44.8567ZM765.715 41.8128V43.5966H768.708V41.8117H769.562V46.2822H768.708V44.3319H765.715V46.2723H764.861V41.8128H765.715ZM771.319 41.8128V45.1974L774.426 41.8128H775.28V46.2822H774.426V42.9263L771.328 46.2833H770.464V41.8128H771.319ZM780.653 46.2822H779.818V45.2525H777.785L777.191 46.301H776.231L776.96 45.0596C776.668 44.9288 776.42 44.7158 776.246 44.4466C776.076 44.1827 775.99 43.8731 776 43.5591C775.997 43.3221 776.045 43.0861 776.142 42.8678C776.239 42.6496 776.382 42.4522 776.563 42.289C776.743 42.127 776.957 42.0024 777.191 41.923C777.425 41.8436 777.673 41.8128 777.92 41.8304H780.673L780.653 46.2822ZM777.948 42.6032C777.811 42.5897 777.672 42.6039 777.539 42.645C777.407 42.6861 777.285 42.7532 777.179 42.8425C777.024 42.9733 776.916 43.1513 776.872 43.3493C776.828 43.5473 776.85 43.7542 776.935 43.9383C776.993 44.0596 777.075 44.1699 777.179 44.2581C777.284 44.3486 777.406 44.4166 777.539 44.458C777.671 44.4993 777.81 44.5131 777.948 44.4984H779.819V42.5658L777.948 42.6032Z" fill="#78797B"/>
</g>
<path d="M1469.56 49.5244C1468.58 49.326 1467.75 48.7979 1467.42 48.1485C1467.28 47.8839 1467.14 47.2644 1467.2 47.1321C1467.22 47.0681 1467.37 47.0483 1467.82 47.0483H1468.41L1468.45 47.293C1468.6 48.2422 1469.49 48.7317 1471.06 48.7284C1472.08 48.7262 1472.98 48.4716 1473.23 48.1088C1473.52 47.6976 1473.46 47.174 1473.1 46.8708C1472.8 46.6249 1472.33 46.486 1470.94 46.239C1469.22 45.9326 1468.91 45.8609 1468.51 45.6713C1467.83 45.3516 1467.53 44.915 1467.53 44.2325C1467.53 42.6913 1469.14 41.7961 1471.51 42.0331C1472.32 42.1136 1472.76 42.2238 1473.25 42.4664C1473.88 42.7773 1474.33 43.3958 1474.42 44.0815L1474.47 44.3648H1473.84C1473.27 44.3648 1473.21 44.3538 1473.21 44.2601C1473.2 44.022 1472.91 43.5325 1472.66 43.3539C1471.69 42.6516 1469.45 42.7861 1468.95 43.5766C1468.75 43.8941 1468.77 44.3549 1468.96 44.5765C1469.22 44.851 1469.54 44.9447 1471.27 45.2534C1473.36 45.6283 1473.86 45.7948 1474.27 46.2655C1474.59 46.6359 1474.66 46.8686 1474.66 47.4363C1474.66 47.9027 1474.64 48.0129 1474.51 48.2764C1474.3 48.6656 1474 48.9236 1473.47 49.1783C1472.8 49.4947 1472.11 49.6126 1470.94 49.6071C1470.39 49.6038 1469.78 49.5674 1469.56 49.5244ZM1436.84 45.8256V42.2172H1439.29C1442.04 42.2172 1442.3 42.2448 1442.91 42.613C1443.39 42.9007 1443.5 43.0198 1443.72 43.4553C1443.87 43.7794 1443.9 43.8974 1443.9 44.281C1443.89 45.1366 1443.39 45.8267 1442.5 46.1828L1442.06 46.3603L1440.13 46.3813L1438.2 46.4011V49.434H1436.84V45.8256ZM1441.59 45.4089C1442.24 45.2171 1442.54 44.8521 1442.54 44.2447C1442.54 43.7971 1442.36 43.5247 1441.95 43.3219C1441.53 43.119 1440.92 43.0529 1439.42 43.0529H1438.2V45.4982H1439.75C1440.94 45.4982 1441.36 45.4772 1441.59 45.4089ZM1443.86 49.2455C1443.95 49.0658 1445.14 46.6481 1446.62 43.6339L1447.31 42.2172H1448.82L1449.36 43.366C1450.76 46.3184 1452.18 49.3646 1452.18 49.3976C1452.18 49.4175 1451.86 49.434 1451.48 49.434H1450.76L1450.3 48.39L1449.84 47.347H1447.97L1446.12 47.3492L1445.65 48.39L1445.16 49.4318L1444.47 49.4329L1443.76 49.434L1443.86 49.2455ZM1448.7 44.9315C1448.34 44.0936 1448.03 43.4101 1448.01 43.4101C1447.98 43.4101 1446.69 46.0924 1446.58 46.3724C1446.56 46.4375 1446.82 46.4518 1447.96 46.4518H1449.36L1448.7 44.9315ZM1453.86 45.8256V42.2172H1456.44C1459.2 42.2172 1459.45 42.2382 1460.14 42.5061C1460.93 42.8048 1461.32 43.366 1461.32 44.1554C1461.32 44.861 1460.98 45.4232 1460.36 45.7374L1460.11 45.8653L1460.41 46.0053C1460.76 46.1674 1461.06 46.5235 1461.1 46.8564C1461.13 46.9777 1461.17 47.4771 1461.2 47.9644C1461.26 48.8905 1461.31 49.089 1461.56 49.1661C1461.62 49.186 1461.68 49.2554 1461.68 49.3194C1461.68 49.4274 1461.63 49.434 1460.87 49.434H1460.07L1460.03 49.2698C1460.01 49.1805 1459.99 49.0669 1459.97 49.0195C1459.96 48.9721 1459.91 48.5377 1459.89 48.0548C1459.84 47.1453 1459.8 47.013 1459.54 46.7341C1459.25 46.421 1458.96 46.378 1456.98 46.3482L1455.17 46.3195V49.434H1453.86V45.8256ZM1459.1 45.3538C1459.48 45.2325 1459.8 44.9657 1459.89 44.6834C1459.99 44.3792 1459.93 43.8026 1459.79 43.603C1459.6 43.3495 1459.23 43.1764 1458.74 43.1124C1458.5 43.0816 1457.6 43.0551 1456.74 43.054L1455.17 43.0518V45.5125L1456.98 45.4827C1458.44 45.4585 1458.84 45.4331 1459.1 45.3538ZM1463.71 45.8256V42.2172H1465.03V49.434H1463.71V45.8256ZM1506.7 43.6096L1505.94 43.5545L1505.46 43.5192V40.1975L1506.44 40.2316C1507.55 40.2713 1508.09 40.2085 1508.81 39.9538C1509.98 39.5393 1510.89 38.7036 1511.54 37.4358C1511.82 36.9044 1512.19 35.8956 1512.29 35.4315L1512.34 35.2363L1511.93 35.2661C1511.7 35.2826 1510.92 35.3102 1510.22 35.3289L1508.92 35.362L1508.44 34.3907C1508.19 33.856 1507.68 32.8285 1507.33 32.1075C1506.98 31.3865 1506.49 30.392 1506.26 29.9003C1506.02 29.4086 1505.5 28.3348 1505.09 27.5146C1504.7 26.6943 1504.17 25.6205 1503.93 25.1288C1503.69 24.636 1503.18 23.5897 1502.8 22.8026C1500.55 18.2119 1499.84 16.7489 1499.84 16.6838C1499.84 16.6507 1501.27 16.6287 1503.44 16.6287L1507.03 16.6309L1507.72 18.1964C1509.47 22.2183 1510.76 25.1475 1511.42 26.6491C1511.83 27.552 1512.34 28.7328 1512.56 29.273C1513.33 31.1263 1513.91 32.4581 1513.97 32.4757C1514 32.4856 1514.28 31.6687 1514.58 30.6599C1514.89 29.6512 1515.32 28.3304 1515.53 27.7229C1516.46 25.0527 1517.26 22.6945 1518.02 20.4763C1518.47 19.1644 1518.94 17.7951 1519.06 17.4335L1519.29 16.7786L1522.73 16.7632C1524.63 16.7544 1526.17 16.7599 1526.17 16.7742C1526.17 16.7908 1525.87 17.6165 1525.5 18.6098C1525.12 19.6032 1524.51 21.2481 1524.13 22.2657C1523.75 23.2821 1522.9 25.5643 1522.24 27.336C1521.57 29.1065 1520.88 30.9587 1520.7 31.4515C1518.28 37.9727 1518.08 38.4445 1517.32 39.6826C1515.66 42.3627 1513.76 43.334 1509.67 43.5887C1508.79 43.6438 1507.35 43.6537 1506.7 43.6096ZM1396.02 35.556C1393.34 35.4502 1391.07 35.1305 1389.64 34.6586C1387.67 34.0082 1386.59 32.6653 1386.38 30.6235C1386.34 30.2752 1386.33 29.8551 1386.36 29.692L1386.39 29.3943H1389.87C1391.79 29.3943 1393.36 29.3998 1393.36 29.4086C1393.36 29.4163 1393.32 29.5707 1393.27 29.7504C1393.09 30.413 1393.18 30.9113 1393.55 31.3324C1394.27 32.1483 1396.03 32.554 1398.86 32.554C1401.75 32.554 1403.68 32.1604 1404.58 31.3854C1405.15 30.8959 1405.32 30.0337 1404.98 29.2774C1404.69 28.6578 1404.15 28.2698 1403.19 28.0162C1402.77 27.907 1402.44 27.8839 1400.73 27.8376C1394.95 27.6843 1393.1 27.552 1391.11 27.1496C1389.52 26.8277 1388.68 26.4485 1387.92 25.6944C1387.52 25.2931 1387.36 25.0836 1387.16 24.6812C1386.73 23.8102 1386.65 23.4067 1386.64 22.0275C1386.64 20.9526 1386.65 20.7872 1386.79 20.3595C1386.85 20.0982 1387.02 19.6958 1387.14 19.4654C1387.41 18.9241 1388.16 18.1644 1388.71 17.8591C1389.81 17.256 1391.44 16.8977 1394.26 16.6474C1395.75 16.5162 1402.05 16.4942 1403.49 16.6155C1406.14 16.8426 1407.72 17.1689 1408.8 17.7201C1409.73 18.1953 1410.5 19.1776 1410.76 20.2338C1410.86 20.6164 1410.97 21.4278 1410.97 21.742V21.9371H1404.37L1404.26 21.4465C1404.06 20.5127 1403.71 20.0475 1403.04 19.8501C1402.39 19.6572 1401.79 19.6065 1399.7 19.5701C1397.57 19.5337 1396.69 19.5822 1395.74 19.7895C1394.92 19.9692 1394.36 20.2294 1393.95 20.6219C1393.55 21.0177 1393.46 21.2756 1393.47 21.9173C1393.48 22.8434 1393.8 23.388 1394.44 23.571C1395.06 23.7507 1397.04 23.8973 1400.52 24.0252C1405.85 24.2204 1408.8 24.6602 1410.15 25.4562C1410.7 25.7826 1411.22 26.3592 1411.51 26.9633C1411.9 27.7935 1411.97 28.1165 1411.97 29.5123C1411.97 30.8881 1411.89 31.2961 1411.48 32.0965C1410.36 34.329 1407.83 35.2352 1401.9 35.5362C1400.87 35.588 1397.15 35.6023 1396.02 35.556ZM1438.24 35.534C1432.32 35.2077 1430.07 34.2154 1429.31 31.5937C1429.22 31.2729 1429.18 30.9135 1429.15 30.273L1429.12 29.3932H1432.62C1434.54 29.3932 1436.12 29.4097 1436.12 29.4296C1436.12 29.4494 1436.08 29.6302 1436.02 29.832C1435.65 31.2553 1436.69 32.0876 1439.29 32.4459C1440.15 32.5661 1443.41 32.5474 1444.33 32.4184C1446.23 32.1538 1447.39 31.6213 1447.77 30.8418C1447.97 30.4141 1447.96 29.7118 1447.74 29.2598C1447.44 28.6446 1446.9 28.2709 1445.93 28.0151C1445.53 27.907 1445.19 27.8828 1443.5 27.8376C1438.7 27.7097 1437.01 27.6182 1435.34 27.3933C1432.54 27.0151 1431.15 26.4297 1430.29 25.2633C1429.7 24.4607 1429.44 23.6151 1429.38 22.3175C1429.31 20.2922 1429.84 19.0122 1431.15 18.0773C1432.21 17.321 1434.02 16.8966 1437.31 16.6265C1438.57 16.524 1443.64 16.4832 1445.16 16.5647C1450.32 16.8371 1452.36 17.5658 1453.25 19.4665C1453.5 19.9736 1453.67 20.6935 1453.72 21.3859L1453.75 21.9382L1450.45 21.9228L1447.15 21.9074L1447.01 21.344C1446.62 19.7641 1446.11 19.5866 1441.98 19.5833C1440.01 19.5822 1439.57 19.5977 1439.02 19.6914C1437.86 19.8854 1437.01 20.2448 1436.61 20.7134C1436.31 21.0496 1436.22 21.3793 1436.25 22.0099C1436.3 22.9393 1436.57 23.3935 1437.21 23.5754C1437.82 23.7507 1439.83 23.8984 1443.29 24.0252C1448.73 24.2259 1451.73 24.6856 1453 25.5125C1453.56 25.8796 1453.95 26.3118 1454.25 26.9148C1454.57 27.5653 1454.66 27.9511 1454.75 28.8221C1454.89 30.1142 1454.68 31.3346 1454.15 32.3313C1453.87 32.834 1453.06 33.6609 1452.5 33.9762C1451.13 34.7689 1449.14 35.2143 1445.79 35.4811C1444.74 35.5649 1439.47 35.6023 1438.24 35.534ZM1483.05 35.5604C1479.28 35.3598 1477.1 34.9552 1475.5 34.1669C1474.44 33.6432 1473.86 33.0733 1473.3 32.0027C1472.8 31.0701 1472.49 29.9775 1472.27 28.3789C1472.12 27.2985 1472.12 24.3427 1472.27 23.3461C1472.58 21.2547 1473.25 19.7663 1474.31 18.7951C1474.83 18.3177 1475.2 18.0762 1475.95 17.7554C1477.23 17.2053 1478.99 16.8459 1481.51 16.6177C1482.69 16.5107 1487.86 16.5107 1489 16.6177C1492.12 16.9098 1494.18 17.4666 1495.36 18.3265C1496.57 19.214 1497.34 20.6968 1497.69 22.8026C1497.79 23.4056 1497.91 25.3493 1497.93 26.6645V26.8884H1479.06L1479.02 27.1066C1478.95 27.4925 1479.04 28.9698 1479.17 29.4968C1479.39 30.3986 1479.81 31.0381 1480.43 31.4328C1481.37 32.0303 1483.7 32.317 1486.65 32.1968C1489.68 32.0722 1490.54 31.7536 1490.95 30.6103C1491.01 30.4163 1491.08 30.0503 1491.1 29.7956L1491.13 29.3336H1497.94L1497.89 30.0051C1497.84 31.1483 1497.68 31.6874 1497.22 32.3555C1496.08 34.0368 1493.56 35.0346 1489.39 35.4524C1488.51 35.5406 1484.09 35.6156 1483.05 35.5604ZM1491.16 23.2645C1491.07 21.2161 1490.54 20.4896 1488.86 20.1522C1487.25 19.8259 1483.98 19.7663 1482.23 20.0309C1481.08 20.2029 1480.29 20.5149 1479.92 20.9383C1479.48 21.4476 1479.19 22.3373 1479.14 23.4133L1479.1 24.0859H1491.2L1491.16 23.2645ZM1417.19 26.0538V16.7489H1423.99V35.3587H1417.19V26.0538ZM1459.95 22.0871V8.81543H1466.76V35.3576H1459.95V22.0871ZM1417.19 10.6941V8.81543H1423.99V12.5727H1417.19V10.6941Z" fill="#78797B"/>
</g>
</g>
</g>
<defs>
<clipPath id="clip0_244_4631">
<rect width="1760" height="52.91" fill="white"/>
</clipPath>
<clipPath id="clip1_244_4631">
<rect width="5917" height="52.91" fill="white"/>
</clipPath>
<clipPath id="clip2_244_4631">
<rect width="5917" height="52.9189" fill="white" transform="translate(0 -0.00439453)"/>
</clipPath>
</defs>
</svg>
