<svg width="15" height="15" viewBox="0 0 15 15" fill="none" xmlns="http://www.w3.org/2000/svg">
<g clip-path="url(#clip0_44_16872)">
<g clip-path="url(#clip1_44_16872)">
<g clip-path="url(#clip2_44_16872)">
<mask id="mask0_44_16872" style="mask-type:luminance" maskUnits="userSpaceOnUse" x="0" y="0" width="15" height="15">
<path d="M15 0H0V15H15V0Z" fill="white"/>
</mask>
<g mask="url(#mask0_44_16872)">
<path fill-rule="evenodd" clip-rule="evenodd" d="M11.49 14.237C11.6913 14.3795 11.9506 14.4151 12.1819 14.3276C12.4131 14.2395 12.5831 14.042 12.6344 13.8026C13.1775 11.2501 14.495 4.78947 14.9894 2.46759C15.0269 2.29259 14.9644 2.11072 14.8269 1.99384C14.6894 1.87697 14.4988 1.84322 14.3288 1.90634C11.7081 2.87634 3.6375 5.90446 0.338754 7.12509C0.129379 7.20259 -0.0068705 7.40384 4.51916e-06 7.62447C0.0075045 7.84572 0.156254 8.03759 0.370629 8.10197C1.85 8.54447 3.79188 9.16009 3.79188 9.16009C3.79188 9.16009 4.69938 11.9007 5.1725 13.2945C5.23188 13.4695 5.36875 13.607 5.54938 13.6545C5.72938 13.7013 5.92188 13.652 6.05625 13.5251C6.81625 12.8076 7.99125 11.6982 7.99125 11.6982C7.99125 11.6982 10.2238 13.3351 11.49 14.237ZM4.60875 8.81384L5.65813 12.2751L5.89125 10.0832C5.89125 10.0832 9.94563 6.42634 12.2569 4.34197C12.3244 4.28072 12.3338 4.17822 12.2775 4.10634C12.2219 4.03447 12.1194 4.01759 12.0425 4.06634C9.36375 5.77697 4.60875 8.81384 4.60875 8.81384Z" fill="white"/>
</g>
</g>
</g>
</g>
<defs>
<clipPath id="clip0_44_16872">
<rect width="15" height="15" fill="white"/>
</clipPath>
<clipPath id="clip1_44_16872">
<rect width="15" height="15" fill="white"/>
</clipPath>
<clipPath id="clip2_44_16872">
<rect width="15" height="15" fill="white"/>
</clipPath>
</defs>
</svg>
