<svg width="55" height="55" viewBox="0 0 55 55" fill="none" xmlns="http://www.w3.org/2000/svg">
<g clip-path="url(#clip0_44_15153)">
<g clip-path="url(#clip1_44_15153)">
<path d="M27.4997 0.473999C42.4255 0.473999 54.5252 12.5738 54.5252 27.4997C54.5252 42.4255 42.4255 54.5252 27.4997 54.5252C12.5738 54.5252 0.473999 42.4255 0.473999 27.4997C0.473999 12.5738 12.5738 0.473999 27.4997 0.473999Z" fill="#3A3A3A"/>
<path fill-rule="evenodd" clip-rule="evenodd" d="M32.6956 18.4909C29.2315 18.4909 25.7675 18.4909 22.3034 18.4909C21.5054 18.4909 20.8467 18.4908 20.3102 18.5351C19.753 18.5811 19.2407 18.6797 18.7596 18.9273C18.0355 19.2998 17.4428 19.8875 17.0609 20.6105C17.1018 20.6326 17.1417 20.6578 17.1802 20.6864C20.206 22.9248 23.2317 25.1633 26.2575 27.4018C26.9725 27.9071 27.125 27.9951 27.2597 28.029C27.4171 28.0687 27.5818 28.0687 27.7392 28.029C27.8739 27.9951 28.0264 27.9071 28.7415 27.4018C31.7672 25.1633 34.7929 22.9248 37.8187 20.6864C37.8573 20.6578 37.8971 20.6326 37.9381 20.6104C37.5563 19.8875 36.9635 19.2998 36.2395 18.9273C35.7583 18.6797 35.246 18.5811 34.6888 18.5351C34.1523 18.4908 33.4937 18.4909 32.6956 18.4909ZM38.389 22.7462C36.217 24.3531 34.0449 25.9601 31.8727 27.5669C34.0026 29.5365 36.1323 31.5059 38.262 33.4754C38.3106 33.2438 38.3408 33.0045 38.3609 32.7563C38.4047 32.2146 38.4047 31.5497 38.4047 30.7439C38.4047 28.581 38.4047 26.418 38.4047 24.2551C38.4047 23.6834 38.4047 23.1825 38.389 22.7462ZM37.2896 35.2878C37.2724 35.274 37.2557 35.2595 37.2393 35.2443C34.9068 33.0874 32.5744 30.9304 30.2419 28.7735C29.617 29.2307 28.9802 29.7799 28.2188 29.9715C27.7464 30.0904 27.2525 30.0904 26.78 29.9715C26.0187 29.7799 25.3819 29.2307 24.757 28.7735C22.4245 30.9304 20.0921 33.0874 17.7596 35.2443C17.7432 35.2595 17.7265 35.2739 17.7094 35.2878C18.0123 35.6039 18.3666 35.8696 18.7596 36.0717C19.2407 36.3192 19.753 36.4179 20.3102 36.4639C20.8467 36.5081 21.5054 36.5081 22.3034 36.5081C25.7675 36.5081 29.2315 36.5081 32.6956 36.5081C33.4937 36.5081 34.1523 36.5081 34.6888 36.4639C35.246 36.4179 35.7583 36.3192 36.2395 36.0717C36.6324 35.8696 36.9867 35.6039 37.2896 35.2878ZM16.737 33.4753C18.8667 31.5059 20.9964 29.5364 23.1262 27.5669C20.9541 25.9601 18.782 24.3531 16.61 22.7463C16.5943 23.1825 16.5944 23.6834 16.5944 24.2551C16.5944 26.418 16.5944 28.581 16.5944 30.7439C16.5943 31.5497 16.5943 32.2146 16.6382 32.7563C16.6582 33.0045 16.6884 33.2437 16.737 33.4753Z" fill="white"/>
</g>
</g>
<defs>
<clipPath id="clip0_44_15153">
<rect width="55" height="55" fill="white"/>
</clipPath>
<clipPath id="clip1_44_15153">
<rect width="55" height="55" fill="white"/>
</clipPath>
</defs>
</svg>
