<svg width="22" height="22" viewBox="0 0 22 22" fill="none" xmlns="http://www.w3.org/2000/svg">
<g clip-path="url(#clip0_44_15159)">
<g clip-path="url(#clip1_44_15159)">
<path d="M14.6669 1.83329H15.8047C16.5426 1.83328 17.1517 1.83327 17.6477 1.87381C18.163 1.9159 18.6366 2.00625 19.0815 2.23294C19.7714 2.58447 20.3323 3.1454 20.6839 3.83533C20.9106 4.28021 21.0009 4.75386 21.043 5.26912C21.0835 5.76519 21.0835 6.37416 21.0835 7.112V14.8878C21.0835 15.6256 21.0835 16.2347 21.043 16.7308C21.0009 17.246 20.9106 17.7197 20.6839 18.1646C20.3323 18.8545 19.7714 19.4154 19.0815 19.767C18.6366 19.9937 18.163 20.084 17.6477 20.1261C17.1517 20.1666 16.5426 20.1666 15.8047 20.1666H14.6669C14.1607 20.1666 13.7502 19.7562 13.7502 19.25C13.7502 18.7437 14.1607 18.3333 14.6669 18.3333H15.7669C16.5521 18.3333 17.0859 18.3326 17.4984 18.2988C18.1705 18.2439 18.7306 17.9598 19.0504 17.3323C19.3259 16.7915 19.2939 16.042 19.266 15.3855C19.2579 15.1969 19.2502 15.016 19.2502 14.85V7.14996C19.2502 6.9839 19.2579 6.80299 19.266 6.6144C19.2939 5.95794 19.3259 5.20836 19.0504 4.66764C18.7306 4.04015 18.1705 3.75596 17.4984 3.70105C17.0859 3.66734 16.5521 3.66662 15.7669 3.66662H14.6669C14.1607 3.66662 13.7502 3.25622 13.7502 2.74996C13.7502 2.24369 14.1607 1.83329 14.6669 1.83329Z" fill="#D44333"/>
<path d="M8.89839 5.76844C8.5404 5.41046 7.96 5.41046 7.60203 5.76844C7.24404 6.12642 7.24404 6.70682 7.60203 7.0648L10.6205 10.0833H1.83354C1.32727 10.0833 0.91687 10.4937 0.91687 11C0.91687 11.5062 1.32727 11.9166 1.83354 11.9166H10.6205L7.60203 14.9351C7.24404 15.2931 7.24404 15.8734 7.60203 16.2315C7.96 16.5894 8.5404 16.5894 8.89839 16.2315L13.4817 11.6481C13.8397 11.2902 13.8397 10.7098 13.4817 10.3518L8.89839 5.76844Z" fill="#D44333"/>
</g>
</g>
<defs>
<clipPath id="clip0_44_15159">
<rect width="22" height="22" fill="white"/>
</clipPath>
<clipPath id="clip1_44_15159">
<rect width="22" height="22" fill="white"/>
</clipPath>
</defs>
</svg>
