<svg width="202" height="29" viewBox="0 0 202 29" fill="none" xmlns="http://www.w3.org/2000/svg">
<g clip-path="url(#clip0_44_15173)">
<g clip-path="url(#clip1_44_15173)">
<g clip-path="url(#clip2_44_15173)">
<path d="M126.368 -0.00543976L122.487 4.05538V4.0579L121.772 4.8079H121.767L118.778 7.9353V8.7287H122.487V15.0721C122.487 19.3116 125.204 22.0212 129.424 22.0212H132.014V17.7179H130.032C128.177 17.7179 127.154 16.6978 127.154 14.8171V8.7287H131.982V4.8079H127.154V-0.00543976H126.368Z" fill="#272727"/>
<path d="M110.593 4.77602L111.425 6.91175C112.671 5.38169 114.238 4.71227 116.444 4.71227H117.563V9.0156H115.933C113.311 9.0156 112.288 10.1631 112.288 13.0002V21.9893H107.62V4.77602H110.593Z" fill="#272727"/>
<path d="M46.6992 22.4993C51.0792 22.4993 53.9566 20.2043 53.9566 16.6978C53.9566 12.5679 50.4762 11.9388 47.6872 11.4347L47.5304 11.4063C45.74 11.0876 44.2695 10.8007 44.2695 9.65312C44.2695 8.66495 45.1326 8.02743 46.5714 8.02743C48.2017 8.02743 49.1609 8.69683 49.193 10.0675H53.6368C53.6049 6.62485 50.8554 4.29789 46.6992 4.29789C42.5431 4.29789 39.7615 6.5611 39.7615 9.8125C39.7615 13.8608 43.2783 14.594 46.0278 15.0721C47.8502 15.359 49.3528 15.7096 49.3528 16.8891C49.3528 18.0367 48.1699 18.6423 46.8911 18.6423C45.2286 18.6423 44.0457 17.8772 44.0136 16.3472H39.4738C39.4738 20.0129 42.3831 22.4993 46.6992 22.4993Z" fill="#272727"/>
<path d="M71.0651 7.13489C72.2481 5.4773 74.1983 4.39352 76.4043 4.39352C79.985 4.39352 82.4787 7.16676 82.4787 11.2151V21.9893H77.8109V11.9801C77.8109 9.68499 76.9157 8.47369 75.2214 8.47369C73.1433 8.47369 71.8963 10.0038 71.8963 12.6814V21.9893H67.3565V11.9801C67.3565 9.68499 66.4613 8.47369 64.7989 8.47369C62.6889 8.47369 61.442 10.0038 61.442 12.6814V21.9893H56.7742V4.77602H60.0352L60.8985 6.91175C62.1133 5.38169 63.9996 4.39352 66.0458 4.39352C68.2517 4.39352 70.042 5.41355 71.0651 7.13489Z" fill="#272727"/>
<path fill-rule="evenodd" clip-rule="evenodd" d="M99.7499 6.40172L100.229 4.77602H103.714V21.9893H100.07L99.654 20.4274C98.1833 21.7344 96.2651 22.4993 94.0592 22.4993C88.8798 22.4993 85.0114 18.5786 85.0114 13.3827C85.0114 8.18681 88.8798 4.29789 94.0592 4.29789C96.2971 4.29789 98.2473 5.09479 99.7499 6.40172ZM89.7431 13.3827C89.7431 16.0603 91.7252 18.1003 94.4428 18.1003C97.1602 18.1003 99.1425 16.0922 99.1425 13.3827C99.1425 10.6732 97.1602 8.66495 94.4428 8.66495C91.7252 8.66495 89.7431 10.6732 89.7431 13.3827Z" fill="#272727"/>
<path d="M155.944 4.77602L152.555 15.0721L147.887 4.90353H146.576L142.1 15.0402L138.68 4.77602H133.948L139.638 21.9893H143.411L147.248 13.0958L151.148 21.9893H154.92L160.547 4.77602H155.944Z" fill="#272727"/>
<path fill-rule="evenodd" clip-rule="evenodd" d="M176.816 4.77602L176.336 6.40172C174.833 5.09479 172.883 4.29789 170.645 4.29789C165.466 4.29789 161.598 8.18681 161.598 13.3827C161.598 18.5786 165.466 22.4993 170.645 22.4993C172.851 22.4993 174.769 21.7344 176.24 20.4274L176.656 21.9893H180.301V4.77602H176.816ZM171.029 18.1003C168.311 18.1003 166.329 16.0603 166.329 13.3827C166.329 10.6732 168.311 8.66495 171.029 8.66495C173.746 8.66495 175.728 10.6732 175.728 13.3827C175.728 16.0922 173.746 18.1003 171.029 18.1003Z" fill="#272727"/>
<path d="M196.746 4.77602L192.432 15.3909L187.826 4.77602H182.744L190.064 20.6824L190 20.81C188.946 23.4237 188.37 24.0294 186.1 24.0294H184.502V28.2053H186.421C190.289 28.2053 192.111 26.452 194.189 21.7661L201.702 4.77602H196.746Z" fill="#272727"/>
<path d="M0 1.83496H0.995151L4.9347 4.66296V17.7521C4.9347 19.7695 6.57962 21.4048 8.60873 21.4048C10.6378 21.4048 12.2828 19.7695 12.2828 17.7521V10.6043C12.2828 5.84769 16.1612 1.99165 20.9454 1.99165C25.7298 1.99165 29.6082 5.84769 29.6082 10.6043V26.366H28.6215L24.6736 23.5235V10.6043C24.6736 8.5573 23.0044 6.89786 20.9454 6.89786C18.8865 6.89786 17.2175 8.5573 17.2175 10.6043V17.7521C17.2175 22.4791 13.3632 26.3111 8.60873 26.3111C3.85427 26.3111 0 22.4791 0 17.7521V1.83496Z" fill="#D84B3B"/>
</g>
</g>
</g>
<defs>
<clipPath id="clip0_44_15173">
<rect width="202" height="28.34" fill="white"/>
</clipPath>
<clipPath id="clip1_44_15173">
<rect width="202" height="28.34" fill="white"/>
</clipPath>
<clipPath id="clip2_44_15173">
<rect width="202" height="28.3509" fill="white" transform="translate(0 -0.00543976)"/>
</clipPath>
</defs>
</svg>
