<svg width="61" height="61" viewBox="0 0 61 61" fill="none" xmlns="http://www.w3.org/2000/svg">
<path d="M60.9798 30.4905C60.9798 47.3296 47.3291 60.9803 30.49 60.9803C13.6508 60.9803 0 47.3296 0 30.4905C0 13.6513 13.6508 0.000488281 30.49 0.000488281C47.3291 0.000488281 60.9798 13.6513 60.9798 30.4905Z" fill="white"/>
<path d="M34.1071 26.3282L31.778 21.615C31.5306 21.115 31.03 20.8037 30.4719 20.8037C29.9135 20.8037 29.4122 21.115 29.1647 21.615L26.8256 26.3362L21.6178 27.0919C21.0646 27.172 20.6138 27.5516 20.4414 28.0825C20.2683 28.6129 20.4096 29.185 20.81 29.5746L24.5824 33.2562L23.6931 38.4372C23.5986 38.9867 23.8206 39.533 24.2721 39.8607C24.5275 40.0459 24.8261 40.1402 25.127 40.1402C25.3584 40.1402 25.5914 40.0841 25.8064 39.9717L30.4781 37.5258L35.1364 39.9717C35.6312 40.231 36.2191 40.1893 36.6706 39.8607C37.1222 39.533 37.3449 38.9876 37.2504 38.4372L36.3648 33.2439L40.1335 29.5746C40.5338 29.185 40.6746 28.6136 40.5021 28.0825C40.3297 27.5516 39.8788 27.172 39.3256 27.0919L34.1179 26.3362L34.1071 26.3282Z" fill="#D44333"/>
</svg>
