<svg width="59" height="61" viewBox="0 0 59 61" fill="none" xmlns="http://www.w3.org/2000/svg">
<path d="M58.98 30.139C58.98 46.7799 45.777 60.2699 29.49 60.2699C13.2031 60.2699 0 46.7799 0 30.139C0 13.498 13.2031 0.0078125 29.49 0.0078125C45.777 0.0078125 58.98 13.498 58.98 30.139Z" fill="white"/>
<path d="M38.3155 23.8084H33.8939V22.9066C33.8939 21.9119 33.1006 21.103 32.1252 21.103H26.8193C25.8438 21.103 25.0506 21.9119 25.0506 22.9066V23.8084H20.6288C19.6533 23.8084 18.8601 24.6173 18.8601 25.6119V28.3173C18.8601 29.3119 19.6533 30.1208 20.6288 30.1208H27.7035V29.67C27.7035 29.4207 27.9014 29.2191 28.1456 29.2191H30.7988C31.0433 29.2191 31.2409 29.4207 31.2409 29.67V30.1208H38.3158C39.291 30.1208 40.0842 29.3119 40.0842 28.3173V25.6119C40.0842 24.6173 39.291 23.8084 38.3155 23.8084ZM32.1252 23.8084H26.8193V22.9066H32.1252V23.8084Z" fill="#D44333"/>
<path d="M39.8391 30.5975C39.6884 30.5213 39.5083 30.5388 39.3753 30.642C39.0608 30.8848 38.6948 31.0132 38.3155 31.0132H31.2409V32.3674C31.2409 32.6169 31.043 32.8187 30.7988 32.8187H28.1456C27.9012 32.8187 27.7035 32.6169 27.7035 32.3674V31.0132H20.6288C20.2497 31.0132 19.8835 30.8848 19.5691 30.642C19.4357 30.5379 19.2561 30.5204 19.1053 30.5975C18.9551 30.6738 18.8601 30.8302 18.8601 31.0017V37.3326C18.8601 38.3283 19.6533 39.1381 20.6288 39.1381H38.3155C39.291 39.1381 40.0842 38.3283 40.0842 37.3326V31.0017C40.0842 30.8302 39.9893 30.6738 39.8391 30.5975Z" fill="#D44333"/>
</svg>
