<svg width="61" height="63" viewBox="0 0 61 63" fill="none" xmlns="http://www.w3.org/2000/svg">
<g clip-path="url(#clip0_44_16371)">
<g clip-path="url(#clip1_44_16371)">
<g clip-path="url(#clip2_44_16371)">
<path d="M60.8696 31.0838C60.8696 48.2501 47.2436 62.1663 30.4348 62.1663C13.6261 62.1663 0 48.2501 0 31.0838C0 13.9175 13.6261 0.00146484 30.4348 0.00146484C47.2436 0.00146484 60.8696 13.9175 60.8696 31.0838Z" fill="white"/>
<path d="M31.128 29.078C29.786 29.2714 28.6142 30.5562 28.6028 30.5678C28.586 30.5855 28.5669 30.6011 28.5462 30.6139C26.7232 31.8206 25.6955 30.9026 25.6531 30.8477C24.4867 29.7767 25.5567 27.9809 25.6021 27.9057C26.0799 27.0959 26.6585 26.3525 27.3232 25.6943H22.3721L20.2235 32.9235C20.2466 32.9366 20.2676 32.9531 20.2858 32.9727C23.6206 36.8185 28.0479 40.231 29.7946 41.5185C29.9764 41.6556 30.2023 41.7173 30.4269 41.6908C30.6516 41.6645 30.8579 41.552 31.0044 41.3762C31.1506 41.2004 31.2262 40.9746 31.2155 40.7443C31.2048 40.5141 31.1087 40.2964 30.9466 40.1357L28.5434 37.6846C28.4905 37.6303 28.461 37.5572 28.461 37.4808C28.461 37.4047 28.4905 37.3316 28.5434 37.2774C28.5697 37.2503 28.6009 37.2289 28.6354 37.2143C28.6701 37.1996 28.7068 37.1919 28.7443 37.1919C28.7816 37.1919 28.8186 37.1996 28.8533 37.2143C28.8877 37.2289 28.9189 37.2503 28.9453 37.2774L31.3571 39.7371L31.9233 40.329C32.1263 40.5308 32.399 40.6433 32.6825 40.6426C32.9659 40.6419 33.2378 40.528 33.4402 40.3253C33.6423 40.1225 33.7584 39.847 33.7638 39.5581C33.7691 39.2689 33.6634 38.9891 33.469 38.7786L31.2637 36.4315L30.8449 35.9898C30.8183 35.9628 30.7971 35.9309 30.7829 35.8958C30.7685 35.8606 30.7611 35.8229 30.7611 35.7847C30.7611 35.7465 30.7685 35.7088 30.7829 35.6737C30.7971 35.6385 30.8183 35.6066 30.8449 35.5798C30.8712 35.5528 30.9024 35.5312 30.9368 35.5165C30.9715 35.5018 31.0083 35.4944 31.0458 35.4944C31.083 35.4944 31.1201 35.5018 31.1548 35.5165C31.1892 35.5312 31.2204 35.5528 31.2467 35.5798L34.4655 38.9865C34.6213 39.1439 34.8185 39.2517 35.0334 39.2969C35.248 39.342 35.4711 39.3225 35.6753 39.241C35.8795 39.1593 36.0559 39.0189 36.1833 38.837C36.3109 38.655 36.3838 38.4391 36.3933 38.2156C36.398 38.0582 36.37 37.9016 36.3116 37.7558C36.2531 37.6101 36.1651 37.4785 36.0536 37.3698L34.1228 35.4643L32.7782 34.1333C32.7484 34.1079 32.7238 34.0762 32.7065 34.0409C32.6891 34.0052 32.6791 33.9664 32.677 33.9268C32.6749 33.887 32.6809 33.8474 32.6947 33.8101C32.7084 33.7729 32.7293 33.7389 32.7566 33.7105C32.7838 33.6818 32.8164 33.6595 32.8525 33.6444C32.8886 33.6292 32.9272 33.622 32.9664 33.6229C33.0052 33.6239 33.0437 33.6332 33.0791 33.6499C33.1144 33.6667 33.1459 33.6907 33.1717 33.7205L36.9933 37.4939C37.0936 37.5989 37.2135 37.6822 37.3463 37.7386C37.4787 37.7949 37.6212 37.8233 37.7649 37.8222C37.9085 37.821 38.0506 37.79 38.1821 37.7314C38.3139 37.6727 38.4324 37.5875 38.5311 37.4808C38.6296 37.3742 38.7057 37.2483 38.7553 37.1107C38.8047 36.9731 38.8263 36.8266 38.8189 36.6804C38.8114 36.5339 38.7751 36.3908 38.712 36.2592C38.6487 36.1277 38.56 36.0103 38.4512 35.9146L31.128 29.078Z" fill="#D44333"/>
<path fill-rule="evenodd" clip-rule="evenodd" d="M34.1228 35.4643L32.7782 34.1333C32.7484 34.1079 32.7238 34.0762 32.7065 34.0409C32.6891 34.0052 32.6791 33.9664 32.677 33.9268C32.6749 33.887 32.6809 33.8474 32.6947 33.8101C32.7084 33.7729 32.7293 33.7389 32.7566 33.7105C32.7838 33.6818 32.8164 33.6595 32.8525 33.6444C32.8886 33.6292 32.9272 33.622 32.9664 33.6229C33.0052 33.6239 33.0437 33.6332 33.0791 33.6499C33.1144 33.6667 33.1459 33.6907 33.1717 33.7205L36.9933 37.4939C37.0936 37.5989 37.2135 37.6822 37.3463 37.7386C37.4787 37.7949 37.6212 37.8233 37.7649 37.8222C37.9085 37.821 38.0506 37.79 38.1821 37.7314C38.3139 37.6727 38.4324 37.5875 38.5311 37.4808C38.6296 37.3742 38.7057 37.2483 38.7553 37.1107C38.8047 36.9731 38.8263 36.8266 38.8189 36.6804C38.8114 36.5339 38.7751 36.3908 38.712 36.2592C38.6487 36.1277 38.56 36.0103 38.4512 35.9146L31.128 29.078C29.8149 29.2673 28.6645 30.5015 28.6051 30.5653C28.6037 30.5667 28.603 30.5676 28.6028 30.5678C28.586 30.5855 28.5669 30.6011 28.5462 30.6139C26.7232 31.8206 25.6955 30.9026 25.6531 30.8477C24.4867 29.7767 25.5567 27.9809 25.6021 27.9057C26.0203 27.197 26.5157 26.539 27.0787 25.9444C27.1588 25.8596 27.2403 25.7763 27.3232 25.6943H22.3721L20.2235 32.9235C20.2466 32.9366 20.2676 32.9531 20.2858 32.9727C23.6206 36.8185 28.0479 40.231 29.7946 41.5185C29.9764 41.6556 30.2023 41.7173 30.4269 41.6908C30.6516 41.6645 30.8579 41.552 31.0044 41.3762C31.1506 41.2004 31.2262 40.9746 31.2155 40.7443C31.2048 40.5141 31.1087 40.2964 30.9466 40.1357L28.5434 37.6846C28.4905 37.6303 28.461 37.5572 28.461 37.4808C28.461 37.4047 28.4905 37.3316 28.5434 37.2774C28.5697 37.2503 28.6009 37.2289 28.6354 37.2143C28.6701 37.1996 28.7068 37.1919 28.7443 37.1919C28.7816 37.1919 28.8186 37.1996 28.8533 37.2143C28.8877 37.2289 28.9189 37.2503 28.9453 37.2774L31.3571 39.7371L31.9233 40.329C32.1263 40.5308 32.399 40.6433 32.6825 40.6426C32.9659 40.6419 33.2378 40.528 33.4402 40.3253C33.6423 40.1225 33.7584 39.847 33.7638 39.5581C33.7691 39.2689 33.6634 38.9891 33.469 38.7786L31.2637 36.4315L30.8449 35.9898C30.8183 35.9628 30.7971 35.9309 30.7829 35.8958C30.7685 35.8606 30.7611 35.8229 30.7611 35.7847C30.7611 35.7465 30.7685 35.7088 30.7829 35.6737C30.7971 35.6385 30.8183 35.6066 30.8449 35.5798C30.8712 35.5528 30.9024 35.5312 30.9368 35.5165C30.9715 35.5018 31.0083 35.4944 31.0458 35.4944C31.083 35.4944 31.1201 35.5018 31.1548 35.5165C31.1892 35.5312 31.2204 35.5528 31.2467 35.5798L34.4655 38.9865C34.6213 39.1439 34.8185 39.2517 35.0334 39.2969C35.248 39.342 35.4711 39.3225 35.6753 39.241C35.8795 39.1593 36.0559 39.0189 36.1833 38.837C36.3109 38.655 36.3838 38.4391 36.3933 38.2156C36.398 38.0582 36.37 37.9016 36.3116 37.7558C36.2531 37.6101 36.1651 37.4785 36.0536 37.3698L34.1228 35.4643ZM36.1486 38.2066C36.1521 38.0848 36.1304 37.9635 36.0853 37.8508C36.0396 37.7376 35.9714 37.6352 35.8846 37.5507L32.6136 34.3184C32.5615 34.2723 32.5186 34.2159 32.4877 34.1528C32.4551 34.0865 32.4362 34.0139 32.4325 33.9398C32.4288 33.8655 32.4399 33.7915 32.4656 33.7219C32.4912 33.6525 32.5307 33.5892 32.5813 33.5359C32.632 33.4828 32.6928 33.4409 32.7601 33.4129C32.8274 33.3848 32.8995 33.3713 32.9722 33.3731C33.0448 33.3747 33.1163 33.3917 33.182 33.4232C33.2446 33.4527 33.3009 33.4947 33.3475 33.5463L37.166 37.3167L37.1686 37.3193C37.2457 37.4 37.3381 37.4643 37.4403 37.5076C37.5425 37.5512 37.6522 37.573 37.7628 37.5721C37.8736 37.5712 37.983 37.5474 38.0843 37.5023C38.1858 37.4571 38.2771 37.3914 38.353 37.3092C38.4289 37.2271 38.4876 37.1302 38.5255 37.0243C38.5637 36.9186 38.5805 36.8059 38.5746 36.6934C38.5688 36.5807 38.5409 36.4706 38.4922 36.3693C38.4436 36.2681 38.3753 36.178 38.2915 36.1041L38.289 36.1018L31.0505 29.3446C30.4786 29.4554 29.9331 29.776 29.5113 30.0926C29.0884 30.41 28.8118 30.7061 28.7788 30.7413C28.7483 30.7736 28.7138 30.802 28.6766 30.8256C27.7215 31.457 26.9483 31.5478 26.3907 31.4505C26.1148 31.4023 25.899 31.3094 25.7469 31.2223C25.671 31.1787 25.6105 31.1364 25.5658 31.1015C25.5369 31.0789 25.5053 31.0519 25.4806 31.0255C24.8122 30.4046 24.7984 29.5804 24.9342 28.9497C25.0694 28.3211 25.3619 27.8275 25.3931 27.7758C25.7805 27.1195 26.2324 26.5057 26.7418 25.9444H22.5535L20.5025 32.8455C23.8147 36.6538 28.2002 40.0349 29.9378 41.3157L29.9387 41.3166L29.9399 41.3173C30.0717 41.417 30.2358 41.4617 30.399 41.4423C30.562 41.4233 30.7117 41.3415 30.8179 41.2142C30.924 41.0868 30.9787 40.9229 30.9711 40.7562C30.9634 40.5893 30.8938 40.4317 30.7762 40.315L30.775 40.3138L28.3702 37.8613C28.2719 37.7602 28.2163 37.6233 28.2163 37.4808C28.2163 37.3386 28.2715 37.2019 28.3697 37.1011C28.4188 37.0508 28.4773 37.0105 28.5415 36.9833C28.6058 36.9561 28.6747 36.9419 28.7443 36.9419C28.8139 36.9419 28.8829 36.9561 28.9471 36.9833C29.0111 37.0105 29.0696 37.0503 29.1185 37.1006C29.1182 37.1006 29.1187 37.1009 29.1185 37.1006L31.531 39.5614L32.0961 40.1518C32.253 40.3066 32.4632 40.3932 32.6819 40.3928C32.9016 40.3921 33.1121 40.3038 33.2686 40.1469C33.425 39.99 33.5149 39.7767 33.5191 39.5532C33.5233 39.3299 33.4418 39.1139 33.2919 38.9511C33.2916 38.9509 33.2914 38.9507 33.2912 38.9504L31.0879 36.6054L31.0872 36.6047L30.6705 36.1654C30.6221 36.1158 30.5834 36.0569 30.5571 35.9922C30.5301 35.9265 30.5164 35.856 30.5164 35.7847C30.5164 35.7135 30.5301 35.6432 30.5571 35.5775C30.5836 35.5121 30.6228 35.4527 30.6721 35.4026C30.721 35.3526 30.779 35.3128 30.843 35.2858C30.9073 35.2583 30.9762 35.2443 31.0458 35.2443C31.1154 35.2443 31.1843 35.2583 31.2486 35.2858C31.3128 35.313 31.3713 35.3531 31.4204 35.4036L31.4216 35.4047L34.6394 38.8107C34.7612 38.933 34.9151 39.0168 35.0827 39.0519C35.2511 39.0873 35.4259 39.0722 35.5861 39.0082C35.7463 38.9441 35.8846 38.834 35.9845 38.6915C36.0839 38.5493 36.1409 38.3809 36.1486 38.2066Z" fill="white"/>
<path d="M21.5644 23.975C20.726 23.5916 19.8444 23.3231 18.9429 23.1742C17.792 22.984 16.8619 23.9857 16.8619 25.1764V32.6133C16.8619 33.593 17.6397 34.3874 18.5991 34.3874C18.7845 34.3879 18.965 34.3266 19.1132 34.2135C19.2615 34.1003 19.3694 33.9409 19.4207 33.7597L22.0307 25.0162C22.0903 24.8148 22.0759 24.5981 21.9902 24.4065C21.9044 24.2148 21.7531 24.0616 21.5644 23.975Z" fill="#D44333"/>
<path d="M32.0306 24.5148C31.419 24.2571 30.7354 24.2415 30.1131 24.4713C29.0265 24.8776 27.4407 25.8531 26.048 28.1816C26.048 28.1991 25.1772 29.6332 25.997 30.4055C26.0254 30.4316 26.7571 31.0588 28.1755 30.1327C28.3797 29.915 29.6591 28.6025 31.171 28.4603C31.2101 28.457 31.2495 28.4619 31.2867 28.4749C31.3238 28.488 31.3577 28.5087 31.3866 28.5357L38.8219 35.5037C38.8559 35.5358 38.8871 35.5705 38.9183 35.6054C39.7692 35.4718 40.3366 34.6762 40.5012 34.3859L37.8063 26.8694L32.0306 24.5148Z" fill="#D44333"/>
<path fill-rule="evenodd" clip-rule="evenodd" d="M31.9387 24.7474L31.9373 24.747C31.382 24.513 30.7615 24.4988 30.1967 24.7072C29.1625 25.0941 27.6254 26.0312 26.2643 28.3008C26.264 28.301 26.2638 28.3015 26.2638 28.3017C26.2605 28.308 26.2568 28.3152 26.2538 28.3208C26.2517 28.3245 26.2496 28.3285 26.2475 28.3329C26.2419 28.3429 26.2359 28.3548 26.2282 28.3692C26.2072 28.4091 26.1784 28.4656 26.1462 28.5353C26.0815 28.6754 26.0049 28.8649 25.9523 29.0733C25.8445 29.5015 25.8554 29.9287 26.16 30.2181C26.1655 30.2225 26.3106 30.3424 26.5939 30.3769C26.8887 30.4127 27.3623 30.3599 28.0198 29.9366C28.1511 29.7986 28.5224 29.4256 29.0449 29.0607C29.5957 28.6761 30.334 28.2871 31.1487 28.2105L31.1496 28.2102C31.2225 28.2039 31.2968 28.2133 31.3659 28.2375C31.4351 28.2617 31.4984 28.3001 31.5522 28.3506L38.9874 35.3186C38.9923 35.3232 38.9972 35.3279 39.0021 35.3326C39.3124 35.255 39.5823 35.0748 39.8016 34.8692C39.9958 34.6874 40.1413 34.4937 40.2298 34.3573L37.6138 27.061L31.9387 24.7474ZM37.8063 26.8694L40.5012 34.3859C40.3366 34.6762 39.7692 35.4718 38.9183 35.6054C38.8871 35.5705 38.8559 35.5358 38.8219 35.5037L31.3866 28.5357C31.3578 28.5087 31.3238 28.488 31.2868 28.4749C31.2495 28.4619 31.2102 28.457 31.171 28.4603C29.6591 28.6025 28.3797 29.915 28.1755 30.1327C26.7572 31.0588 26.0254 30.4316 25.997 30.4055C25.2426 29.6949 25.9197 28.424 26.0326 28.2119C26.0424 28.1935 26.048 28.183 26.048 28.1816C27.4407 25.8531 29.0265 24.8776 30.1131 24.4713C30.7354 24.2415 31.419 24.2571 32.0306 24.5148L37.8063 26.8694Z" fill="white"/>
<path d="M43.4587 24.4207C41.8429 24.4097 40.2401 24.718 38.7389 25.3285C38.537 25.4167 38.3766 25.5816 38.2909 25.7878C38.2055 25.9944 38.2015 26.2265 38.28 26.4358L41.4331 35.1935C41.4946 35.3623 41.6052 35.5083 41.75 35.6114C41.8946 35.7148 42.0667 35.7706 42.2434 35.7716C43.2275 35.7716 44.0252 34.9569 44.0252 33.9518V25.0139C44.0252 24.6889 43.777 24.4207 43.4587 24.4207Z" fill="#D44333"/>
</g>
</g>
</g>
<defs>
<clipPath id="clip0_44_16371">
<rect width="61" height="62.3" fill="white"/>
</clipPath>
<clipPath id="clip1_44_16371">
<rect width="61" height="62.3" fill="white"/>
</clipPath>
<clipPath id="clip2_44_16371">
<rect width="61" height="62.2971" fill="white" transform="translate(0 0.00146484)"/>
</clipPath>
</defs>
</svg>
