<svg preserveAspectRatio="none" width="100%" height="100%" overflow="visible" style="display: block;" viewBox="0 0 118.927 22.0406" fill="none" xmlns="http://www.w3.org/2000/svg">
<g id="Group_2085656449.svg">
<path id="Vector" fill-rule="evenodd" clip-rule="evenodd" d="M15.0736 13.9789C14.5014 13.947 13.964 13.6897 13.5712 13.2588C13.1784 12.8279 12.9624 12.2584 12.9667 11.667C12.9647 11.0956 13.1856 10.5453 13.5838 10.1295C13.9796 9.72223 14.5146 9.49205 15.0736 9.49205C15.3485 9.487 15.6216 9.53824 15.8754 9.64257C16.1322 9.7485 16.3646 9.90448 16.5585 10.1011C16.756 10.3015 16.9119 10.5379 17.0173 10.797C17.1242 11.0592 17.1793 11.339 17.1798 11.6215H18.985C18.9821 11.0916 18.8783 10.5668 18.6792 10.0781C18.4801 9.58944 18.1892 9.1456 17.824 8.77375C17.0863 8.01946 16.0895 7.60629 15.0519 7.60629C14.0144 7.60629 13.0212 8.04306 12.292 8.80443C11.5627 9.56584 11.156 10.5952 11.1615 11.6658C11.1615 13.8939 12.9139 15.9508 15.0736 15.9508H29.7791V13.9777H15.0736V13.9789ZM29.7791 18.7006V16.7423H15.0736C14.0964 16.7449 13.1421 16.4512 12.3405 15.9012C11.5297 15.3482 10.8964 14.5602 10.5197 13.636C10.1431 12.7117 10.04 11.6941 10.2234 10.7085C10.4027 9.73266 10.8639 8.82835 11.5519 8.10386C12.2344 7.3897 13.1064 6.90099 14.0576 6.69794C15.0088 6.49494 15.9978 6.5876 16.8979 6.96353C17.7982 7.33951 18.5712 7.98286 19.117 8.81209C19.6627 9.64137 19.9602 10.6182 19.9686 11.6215H21.8878C21.8788 10.2327 21.4716 8.87702 20.7183 7.72614C19.965 6.5752 18.8975 5.68219 17.6512 5.15689C16.405 4.63159 15.0364 4.4988 13.7169 4.77563C12.3975 5.05243 11.1879 5.71998 10.2385 6.71153C9.28213 7.7119 8.63896 8.96229 8.38586 10.3131C8.12679 11.6765 8.26413 13.0871 8.78167 14.3702C9.29926 15.6533 10.1731 16.7488 11.2922 17.519C12.4113 18.2892 13.7271 18.7012 15.0742 18.7012H29.7797L29.7791 18.7006ZM2.35667 18.7024V9.27366H0.43751V7.29644H4.24345V18.7024H2.35667ZM2.72972 6.49847H5.01952V18.7024H6.90868V4.53716H2.73091V6.49847H2.72972Z" fill="var(--fill-0, #3A3A3A)"/>
<path id="Vector_2" d="M40.6118 9.18319V2.80884H43.1616C43.884 2.80884 44.4121 2.96365 44.7461 3.27326C45.086 3.58287 45.256 3.99568 45.256 4.5117C45.256 4.83954 45.171 5.1218 45.001 5.3586C44.8311 5.58929 44.5973 5.7562 44.2998 5.85942C44.6762 5.94442 44.9737 6.11743 45.1922 6.37848C45.4169 6.63346 45.5292 6.96733 45.5292 7.38018C45.5292 7.73228 45.4533 8.04493 45.3015 8.3181C45.1498 8.59131 44.91 8.80377 44.5821 8.95553C44.2543 9.10729 43.8294 9.18319 43.3073 9.18319H40.6118ZM41.7046 8.23613H43.1889C43.6624 8.23613 43.9872 8.16028 44.1633 8.00847C44.3454 7.85671 44.4364 7.62299 44.4364 7.30731C44.4364 6.99768 44.3454 6.76093 44.1633 6.59705C43.9811 6.42706 43.6533 6.34207 43.1798 6.34207H41.7046V8.23613ZM41.7046 5.46783H43.025C43.4499 5.46783 43.7444 5.38895 43.9083 5.23108C44.0783 5.07326 44.1633 4.86075 44.1633 4.59365C44.1633 4.32047 44.0813 4.11406 43.9174 3.97443C43.7535 3.82873 43.456 3.75589 43.025 3.75589H41.7046V5.46783ZM45.8938 9.18319L47.6331 6.66987L45.9851 4.3569H47.1142L48.2888 5.9778L49.4454 4.3569H50.5378L48.9077 6.63346L50.6292 9.18319H49.4817L48.2525 7.30731L47.0049 9.18319H45.8938ZM53.2245 9.28334C52.7814 9.28334 52.381 9.19228 52.0228 9.01017C51.6647 8.82195 51.379 8.54576 51.1664 8.18149C50.9603 7.81121 50.857 7.35589 50.857 6.81557V6.63346C50.857 6.1235 50.9603 5.69246 51.1664 5.34037C51.379 4.98221 51.6647 4.71203 52.0228 4.52991C52.381 4.34779 52.7814 4.25673 53.2245 4.25673C53.674 4.25673 54.0744 4.34779 54.4266 4.52991C54.7848 4.71203 55.0672 4.98221 55.2733 5.34037C55.4859 5.69246 55.5925 6.1235 55.5925 6.63346V6.81557C55.5925 7.35589 55.4859 7.81121 55.2733 8.18149C55.0672 8.54576 54.7848 8.82195 54.4266 9.01017C54.0744 9.19228 53.674 9.28334 53.2245 9.28334ZM53.2245 8.40915C53.4555 8.40915 53.674 8.35451 53.8802 8.24527C54.0868 8.13599 54.2535 7.966 54.3812 7.73531C54.5088 7.49855 54.5722 7.19196 54.5722 6.81557V6.63346C54.5722 6.28742 54.5088 6.00512 54.3812 5.78655C54.2535 5.56197 54.0868 5.39804 53.8802 5.29482C53.674 5.18558 53.4555 5.13093 53.2245 5.13093C52.994 5.13093 52.7754 5.18558 52.5692 5.29482C52.3626 5.39804 52.1955 5.56197 52.0683 5.78655C51.9406 6.00512 51.8768 6.28742 51.8768 6.63346V6.81557C51.8768 7.19196 51.9406 7.49855 52.0683 7.73531C52.1955 7.966 52.3626 8.13599 52.5692 8.24527C52.7754 8.35451 52.994 8.40915 53.2245 8.40915ZM55.9538 10.3214V8.32719H56.5003C56.5852 8.19972 56.6582 8.00241 56.7188 7.73531C56.7795 7.46209 56.8254 7.14949 56.8557 6.79734C56.892 6.44524 56.9103 6.08708 56.9103 5.72282V4.3569H60.5071V8.32719H61.1444V10.3214H60.2159V9.18319H56.8828V10.3214H55.9538ZM57.5201 8.32719H59.5056V5.2129H57.8755V5.90497C57.8755 6.37242 57.848 6.82163 57.7933 7.25266C57.7387 7.67763 57.6478 8.03579 57.5201 8.32719ZM61.8754 9.18319V4.3569H62.8769V7.77172L65.199 4.3569H66.155V9.18319H65.1535V5.76837L62.8314 9.18319H61.8754ZM67.2965 9.18319V4.3569H68.4256L69.9648 7.17984L71.5035 4.3569H72.5784V9.18319H71.5765V5.85942L70.3018 8.18149H69.5731L68.2984 5.85942V9.18319H67.2965ZM75.8538 9.18319V4.3569H78.1304C78.5372 4.3569 78.865 4.41457 79.1139 4.52991C79.3688 4.6392 79.557 4.79399 79.6787 4.99433C79.7999 5.18861 79.8605 5.41324 79.8605 5.66817C79.8605 5.88068 79.7967 6.08708 79.6695 6.28742C79.5419 6.4817 79.3628 6.6122 79.1323 6.67896C79.4298 6.75184 79.6544 6.89147 79.8059 7.09787C79.9639 7.29821 80.0428 7.53497 80.0428 7.80813C80.0428 8.22704 79.9033 8.56091 79.6241 8.80983C79.3449 9.05875 78.9078 9.18319 78.3127 9.18319H75.8538ZM76.8557 8.32719H78.1758C78.5037 8.32719 78.7287 8.27562 78.8499 8.1724C78.9776 8.06311 79.0409 7.91136 79.0409 7.71708C79.0409 7.52284 78.9776 7.3771 78.8499 7.27998C78.7287 7.17681 78.5037 7.12519 78.1758 7.12519H76.8557V8.32719ZM76.8557 6.34207H78.0394C78.343 6.34207 78.5556 6.29348 78.6768 6.19637C78.7985 6.09314 78.8591 5.95351 78.8591 5.77746C78.8591 5.60141 78.7985 5.4648 78.6768 5.36769C78.5556 5.26446 78.343 5.2129 78.0394 5.2129H76.8557V6.34207ZM83.0509 9.18319V4.3569H86.4199V5.2129H84.0524V9.18319H83.0509ZM87.1027 11.0044V4.3569H88.0316V5.16735C88.1772 4.88807 88.3926 4.66652 88.6782 4.50259C88.9693 4.33868 89.2971 4.25673 89.6613 4.25673C90.2926 4.25673 90.7908 4.45403 91.155 4.84863C91.5191 5.24325 91.7014 5.83816 91.7014 6.63346V6.81557C91.7014 7.36195 91.6165 7.8203 91.4461 8.19063C91.2762 8.55485 91.0397 8.82806 90.7362 9.01017C90.4327 9.19228 90.0741 9.28334 89.6613 9.28334C89.3155 9.28334 88.9996 9.20748 88.7144 9.05572C88.4293 8.90392 88.2259 8.69145 88.1042 8.41829V11.0044H87.1027ZM89.4248 8.40915C89.8013 8.40915 90.1048 8.27865 90.3353 8.01761C90.5659 7.75657 90.6816 7.35589 90.6816 6.81557V6.63346C90.6816 6.1235 90.5691 5.74711 90.3445 5.50429C90.12 5.25537 89.8133 5.13093 89.4248 5.13093C89.2003 5.13093 88.9844 5.17947 88.7783 5.27663C88.5781 5.37375 88.4141 5.51642 88.2865 5.70463C88.1648 5.8928 88.1042 6.12653 88.1042 6.4058V7.04323C88.1042 7.34675 88.1648 7.60173 88.2865 7.80813C88.4141 8.00847 88.5781 8.16028 88.7783 8.26345C88.9785 8.36062 89.1938 8.40915 89.4248 8.40915ZM93.1648 11.1046C93.0734 11.1046 92.9825 11.0955 92.8916 11.0773V10.2031C92.9825 10.2213 93.0734 10.2304 93.1648 10.2304C93.2984 10.2304 93.4077 10.197 93.4927 10.1302C93.5776 10.0695 93.6566 9.96329 93.7291 9.81153C93.8021 9.65973 93.8871 9.45029 93.9844 9.18319L91.9351 4.3569H93.028L94.5033 8.09043L95.8326 4.3569H96.8525L94.9859 9.18319C94.81 9.63245 94.6429 9.9997 94.4849 10.285C94.3274 10.5704 94.1484 10.7768 93.9477 10.9043C93.7475 11.0378 93.4862 11.1046 93.1648 11.1046ZM97.5362 9.18319V4.3569H101.725V9.18319H100.723V5.2129H98.5381V9.18319H97.5362ZM102.86 9.18319V4.3569H107.049V9.18319H106.047V5.2129H103.862V9.18319H102.86ZM108.957 11.1046C108.866 11.1046 108.776 11.0955 108.684 11.0773V10.2031C108.776 10.2213 108.866 10.2304 108.957 10.2304C109.091 10.2304 109.2 10.197 109.285 10.1302C109.37 10.0695 109.449 9.96329 109.522 9.81153C109.595 9.65973 109.68 9.45029 109.777 9.18319L107.728 4.3569H108.821L110.296 8.09043L111.626 4.3569H112.645L110.779 9.18319C110.603 9.63245 110.436 9.9997 110.278 10.285C110.12 10.5704 109.941 10.7768 109.741 10.9043C109.541 11.0378 109.279 11.1046 108.957 11.1046ZM40.4297 20.2035V15.3772H41.4314V17.335H41.9778L43.6715 15.3772H44.8007L42.7518 17.6811L44.8918 20.2035H43.6715L41.9778 18.1546H41.4314V20.2035H40.4297ZM47.4921 20.3036C47.049 20.3036 46.6481 20.2126 46.29 20.0305C45.9318 19.8423 45.6465 19.5661 45.434 19.2018C45.2276 18.8315 45.1244 18.3762 45.1244 17.8359V17.6538C45.1244 17.1438 45.2276 16.7128 45.434 16.3607C45.6465 16.0025 45.9318 15.7323 46.29 15.5502C46.6481 15.3681 47.049 15.277 47.4921 15.277C47.9412 15.277 48.342 15.3681 48.6942 15.5502C49.0524 15.7323 49.3343 16.0025 49.541 16.3607C49.7536 16.7128 49.8596 17.1438 49.8596 17.6538V17.8359C49.8596 18.3762 49.7536 18.8315 49.541 19.2018C49.3343 19.5661 49.0524 19.8423 48.6942 20.0305C48.342 20.2126 47.9412 20.3036 47.4921 20.3036ZM47.4921 19.4295C47.7226 19.4295 47.9412 19.3748 48.1478 19.2656C48.354 19.1563 48.5211 18.9863 48.6483 18.7556C48.776 18.5189 48.8398 18.2123 48.8398 17.8359V17.6538C48.8398 17.3077 48.776 17.0254 48.6483 16.8068C48.5211 16.5823 48.354 16.4183 48.1478 16.3151C47.9412 16.2059 47.7226 16.1512 47.4921 16.1512C47.2611 16.1512 47.0426 16.2059 46.8364 16.3151C46.6298 16.4183 46.4631 16.5823 46.3354 16.8068C46.2082 17.0254 46.1444 17.3077 46.1444 17.6538V17.8359C46.1444 18.2123 46.2082 18.5189 46.3354 18.7556C46.4631 18.9863 46.6298 19.1563 46.8364 19.2656C47.0426 19.3748 47.2611 19.4295 47.4921 19.4295ZM50.721 20.2035V15.3772H51.8502L53.3893 18.2001L54.928 15.3772H56.003V20.2035H55.0011V16.8797L53.7264 19.2018H52.9977L51.723 16.8797V20.2035H50.721ZM57.1385 20.2035V15.3772H61.3276V20.2035H60.3257V16.2332H58.1405V20.2035H57.1385ZM63.8738 20.3036C63.5275 20.3036 63.23 20.2399 62.9811 20.1124C62.7382 19.9789 62.5532 19.7967 62.4255 19.5661C62.2983 19.3354 62.2345 19.0774 62.2345 18.792C62.2345 18.3125 62.3773 17.9573 62.6625 17.7266C62.9476 17.4898 63.3668 17.3715 63.9192 17.3715H65.4217V17.1074C65.4217 16.7431 65.3395 16.4942 65.176 16.3607C65.018 16.221 64.766 16.1512 64.4202 16.1512C64.1102 16.1512 63.8825 16.1998 63.7369 16.2969C63.5914 16.394 63.5064 16.5276 63.4821 16.6976H62.5077C62.5261 16.4183 62.6138 16.1725 62.7717 15.96C62.9297 15.7475 63.151 15.5806 63.4366 15.4592C63.7278 15.3378 64.0708 15.277 64.4657 15.277C64.8601 15.277 65.2031 15.3378 65.4947 15.4592C65.7918 15.5806 66.0195 15.7718 66.1775 16.0329C66.3414 16.2878 66.4231 16.6278 66.4231 17.0527V18.9741C66.4231 19.2291 66.4263 19.4537 66.4323 19.648C66.4383 19.8362 66.4539 20.0214 66.4778 20.2035H65.5672C65.5493 20.0639 65.5342 19.9455 65.5218 19.8484C65.5158 19.7512 65.5126 19.6298 65.5126 19.4841C65.3973 19.7087 65.1971 19.903 64.9115 20.0669C64.6323 20.2247 64.2866 20.3036 63.8738 20.3036ZM64.147 19.4295C64.3775 19.4295 64.5869 19.39 64.7751 19.3111C64.9694 19.2321 65.1241 19.1138 65.2394 18.9559C65.361 18.7981 65.4217 18.6069 65.4217 18.3822V18.1182H64.1011C63.8462 18.1182 63.64 18.1728 63.4821 18.2821C63.3301 18.3913 63.2543 18.5522 63.2543 18.7647C63.2543 18.965 63.3241 19.1259 63.4637 19.2473C63.6097 19.3687 63.837 19.4295 64.147 19.4295ZM67.5187 20.2035V15.3772H68.5207V17.3168H70.7973V15.3772H71.7987V20.2035H70.7973V18.1728H68.5207V20.2035H67.5187ZM72.9403 20.2035V15.3772H73.9422V18.792L76.2643 15.3772H77.2203V20.2035H76.2183V16.7887L73.8963 20.2035H72.9403ZM78.3618 20.2035V15.3772H79.3633V18.792L81.6853 15.3772H82.6418V20.2035H81.6399V16.7887L79.3178 20.2035H78.3618ZM80.4924 14.8308C79.9946 14.8308 79.6273 14.7215 79.3908 14.503C79.1598 14.2784 79.0446 13.9627 79.0446 13.556H79.9735C79.9735 13.7745 80.0162 13.9323 80.1012 14.0295C80.1921 14.1266 80.3257 14.1752 80.5016 14.1752C80.6779 14.1752 80.8083 14.1266 80.8932 14.0295C80.9842 13.9323 81.0301 13.7745 81.0301 13.556H81.9585C81.9585 13.9627 81.8405 14.2784 81.6036 14.503C81.3667 14.7215 80.9966 14.8308 80.4924 14.8308ZM87.6078 19.8392L85.6044 18.1182V17.2804L87.6078 15.5593V16.6521L86.3786 17.6811L87.6078 18.7101V19.8392ZM89.7476 19.8392L87.7442 18.1182V17.2804L89.7476 15.5593V16.6521L88.5184 17.6811L89.7476 18.7101V19.8392ZM90.5668 20.2035V19.2564H92.0692V14.9856L90.5668 16.051V14.9219L92.1055 13.8291H93.162V19.2564H94.3913V20.2035H90.5668ZM97.7616 20.3036C97.2396 20.3036 96.7689 20.1944 96.3501 19.9758C95.9314 19.7512 95.5971 19.4021 95.3482 18.9286C95.1058 18.449 94.9841 17.8268 94.9841 17.0618V16.8797C94.9841 16.3273 95.0571 15.8537 95.2026 15.4592C95.3482 15.0585 95.5456 14.7307 95.7945 14.4757C96.0494 14.2207 96.3442 14.0325 96.678 13.9111C97.0178 13.7897 97.3791 13.729 97.7616 13.729C98.1138 13.729 98.4412 13.7745 98.7452 13.8656C99.0487 13.9506 99.3155 14.0811 99.5465 14.2571C99.777 14.4332 99.962 14.6517 100.102 14.9128C100.242 15.1738 100.327 15.4804 100.357 15.8325H99.2094C99.1305 15.4379 98.9606 15.1495 98.6993 14.9674C98.4444 14.7853 98.1317 14.6942 97.7616 14.6942C97.4944 14.6942 97.2363 14.7641 96.9875 14.9037C96.7386 15.0372 96.532 15.2618 96.3685 15.5775C96.2105 15.8932 96.1316 16.3273 96.1316 16.8797V17.0618C96.1316 17.4989 96.1802 17.8662 96.2771 18.1637C96.3745 18.4551 96.5017 18.6858 96.6596 18.8558C96.8235 19.0257 96.9999 19.1502 97.1877 19.2291C97.3819 19.302 97.5734 19.3384 97.7616 19.3384C98.1988 19.3384 98.5354 19.2382 98.7723 19.0379C99.0152 18.8315 99.1608 18.5522 99.2094 18.2001H100.357C100.32 18.5765 100.229 18.8983 100.084 19.1654C99.9441 19.4325 99.7559 19.651 99.5189 19.821C99.2884 19.9849 99.0244 20.1064 98.7268 20.1853C98.4293 20.2642 98.1074 20.3036 97.7616 20.3036ZM101.135 15.5593L103.138 17.2804V18.1182L101.135 19.8392V18.7465L102.364 17.7175L101.135 16.6885V15.5593ZM103.275 15.5593L105.278 17.2804V18.1182L103.275 19.8392V18.7465L104.504 17.7175L103.275 16.6885V15.5593Z" fill="var(--fill-0, #444444)"/>
</g>
</svg>
