<svg preserveAspectRatio="none" width="100%" height="100%" overflow="visible" style="display: block;" viewBox="0 0 103.615 18.0414" fill="none" xmlns="http://www.w3.org/2000/svg">
<path id="Vector" d="M0.516474 6.57353V0H2.91114C3.49959 0 3.98481 0.087645 4.36667 0.26294C4.74856 0.431974 5.03031 0.673003 5.21186 0.986028C5.39966 1.29905 5.49357 1.66842 5.49357 2.09412C5.49357 2.51987 5.39966 2.88922 5.21186 3.20222C5.03031 3.51527 4.74856 3.75942 4.36667 3.93472C3.98481 4.10377 3.49959 4.18829 2.91114 4.18829H1.64337V6.57353H0.516474ZM1.64337 3.21164H2.8172C3.41194 3.21164 3.81889 3.12087 4.03799 2.93932C4.25714 2.75147 4.36667 2.46977 4.36667 2.09412C4.36667 1.72477 4.25714 1.44617 4.03799 1.25836C3.81889 1.07054 3.41194 0.976638 2.8172 0.976638H1.64337V3.21164ZM8.45533 6.67681C8.01708 6.67681 7.6133 6.58604 7.2439 6.40449C6.87455 6.21669 6.57718 5.93494 6.35178 5.55934C6.12643 5.18369 6.01373 4.70789 6.01373 4.13194V3.94409C6.01373 3.39319 6.12018 2.93619 6.33303 2.57305C6.55213 2.20995 6.84013 1.94075 7.19698 1.76545C7.55383 1.5839 7.94198 1.49312 8.36143 1.49312C9.11893 1.49312 9.69805 1.6966 10.0987 2.10354C10.5056 2.51045 10.7091 3.09269 10.7091 3.85019V4.37609H7.06548C7.07803 4.71414 7.15 4.98646 7.28146 5.19306C7.41295 5.39966 7.582 5.54991 7.7886 5.64381C7.99515 5.73146 8.21743 5.77531 8.45533 5.77531C8.81218 5.77531 9.072 5.71896 9.23475 5.60626C9.4038 5.49356 9.51962 5.34644 9.58222 5.16489H10.6152C10.515 5.65949 10.2677 6.03514 9.8733 6.29179C9.48515 6.54849 9.01253 6.67681 8.45533 6.67681ZM8.40835 2.39462C8.17675 2.39462 7.96073 2.43534 7.76043 2.5167C7.56008 2.59809 7.39728 2.72642 7.27208 2.90172C7.14688 3.07702 7.07803 3.31179 7.06548 3.60604H9.67612C9.66987 3.29304 9.6104 3.04884 9.4977 2.87355C9.385 2.69829 9.23475 2.57617 9.04695 2.50732C8.8591 2.43222 8.64625 2.39462 8.40835 2.39462ZM13.4331 6.67681C12.9824 6.67681 12.6005 6.61421 12.2875 6.48901C11.9744 6.36381 11.7334 6.18221 11.5644 5.94431C11.3954 5.70016 11.2983 5.40909 11.2733 5.07099H12.325C12.3501 5.22124 12.4002 5.34961 12.4753 5.45601C12.5567 5.56246 12.6725 5.64381 12.8228 5.70016C12.9793 5.75026 13.1765 5.77531 13.4144 5.77531C13.8401 5.77531 14.1342 5.70646 14.2971 5.56871C14.46 5.43096 14.5414 5.25879 14.5414 5.05224C14.5414 4.86439 14.4694 4.71727 14.3255 4.61086C14.1877 4.49816 13.9434 4.44182 13.5929 4.44182H12.7758V3.63422H13.5271C13.815 3.63422 14.0248 3.57474 14.1564 3.45579C14.2876 3.33684 14.3534 3.18659 14.3534 3.00504C14.3534 2.84224 14.2848 2.70142 14.147 2.58247C14.0092 2.45722 13.771 2.39462 13.4331 2.39462C13.07 2.39462 12.8165 2.4541 12.6725 2.57305C12.5348 2.69199 12.4502 2.85167 12.4189 3.05197H11.3672C11.3922 2.73272 11.4861 2.45722 11.6489 2.22562C11.8117 1.99397 12.0433 1.81555 12.3438 1.69035C12.6443 1.55885 13.0074 1.49312 13.4331 1.49312C14.1157 1.49312 14.6134 1.62775 14.9264 1.89695C15.2455 2.16614 15.4051 2.5167 15.4051 2.94869C15.4051 3.18659 15.3459 3.39632 15.2266 3.57787C15.1139 3.75942 14.9264 3.89717 14.6631 3.99107C15.014 4.07872 15.255 4.22584 15.3862 4.43244C15.524 4.63904 15.5931 4.87694 15.5931 5.14614C15.5931 5.43409 15.515 5.69391 15.3582 5.92556C15.2015 6.15721 14.9638 6.34189 14.6446 6.47959C14.3255 6.61108 13.9216 6.67681 13.4331 6.67681ZM16.4867 6.57353V1.59645H17.5194V5.11796L19.914 1.59645H20.9004V6.57353H19.8672V3.05197L17.4725 6.57353H16.4867ZM21.6078 7.74736V5.69079H22.1713C22.2589 5.55934 22.3342 5.35586 22.3967 5.08037C22.4592 4.79866 22.5061 4.47624 22.5374 4.11314C22.5753 3.75004 22.5937 3.38064 22.5937 3.00504V1.59645H26.3033V5.69079H26.9606V7.74736H26.0026V6.57353H22.5658V7.74736H21.6078ZM23.223 5.69079H25.2701V2.47915H23.5891V3.19284C23.5891 3.67489 23.5611 4.13819 23.5048 4.58269C23.4484 5.02089 23.3547 5.39029 23.223 5.69079ZM29.8283 6.67681C29.3898 6.67681 28.9859 6.58604 28.6165 6.40449C28.2472 6.21669 27.9498 5.93494 27.7244 5.55934C27.499 5.18369 27.3863 4.70789 27.3863 4.13194V3.94409C27.3863 3.39319 27.4928 2.93619 27.7059 2.57305C27.9247 2.20995 28.2131 1.94075 28.5696 1.76545C28.9267 1.5839 29.3145 1.49312 29.734 1.49312C30.4917 1.49312 31.0708 1.6966 31.4714 2.10354C31.8781 2.51045 32.0818 3.09269 32.0818 3.85019V4.37609H28.4385C28.4508 4.71414 28.5227 4.98646 28.6544 5.19306C28.7856 5.39966 28.9546 5.54991 29.1615 5.64381C29.368 5.73146 29.5901 5.77531 29.8283 5.77531C30.1848 5.77531 30.4448 5.71896 30.6077 5.60626C30.7767 5.49356 30.8923 5.34644 30.9548 5.16489H31.988C31.8876 5.65949 31.6404 6.03514 31.246 6.29179C30.8577 6.54849 30.3851 6.67681 29.8283 6.67681ZM29.7809 2.39462C29.5493 2.39462 29.3334 2.43534 29.1331 2.5167C28.9328 2.59809 28.7699 2.72642 28.6449 2.90172C28.5194 3.07702 28.4508 3.31179 28.4385 3.60604H31.049C31.0424 3.29304 30.9832 3.04884 30.8705 2.87355C30.7578 2.69829 30.6077 2.57617 30.4197 2.50732C30.2317 2.43222 30.0191 2.39462 29.7809 2.39462ZM32.9748 6.57353V1.59645H34.0076V3.59667H36.3553V1.59645H37.3881V6.57353H36.3553V4.47937H34.0076V6.57353H32.9748ZM39.7392 6.57353V2.47915H38.096V1.59645H42.4155V2.47915H40.7724V6.57353H39.7392ZM43.1201 6.57353V1.59645H44.1529V3.34309H45.0919C45.7307 3.34309 46.2033 3.48084 46.5101 3.75629C46.8169 4.02549 46.9704 4.42619 46.9704 4.95829C46.9704 5.29014 46.9045 5.57809 46.7729 5.82224C46.6417 6.06644 46.4381 6.25424 46.1625 6.38569C45.8869 6.51089 45.5304 6.57353 45.0919 6.57353H43.1201ZM44.1529 5.69079H44.9981C45.3424 5.69079 45.5834 5.63131 45.7212 5.51236C45.8652 5.38716 45.9371 5.20249 45.9371 4.95829C45.9371 4.71414 45.8652 4.53259 45.7212 4.41364C45.5834 4.28844 45.3424 4.22584 44.9981 4.22584H44.1529V5.69079ZM47.6276 6.57353V1.59645H48.6604V6.57353H47.6276ZM53.3114 6.57353V2.47915H51.6677V1.59645H55.9877V2.47915H54.3441V6.57353H53.3114ZM58.7597 6.67681C58.3217 6.67681 57.9178 6.58604 57.5485 6.40449C57.1791 6.21669 56.8817 5.93494 56.6563 5.55934C56.4309 5.18369 56.3182 4.70789 56.3182 4.13194V3.94409C56.3182 3.39319 56.4248 2.93619 56.6379 2.57305C56.8566 2.20995 57.1445 1.94075 57.5016 1.76545C57.8586 1.5839 58.2464 1.49312 58.666 1.49312C59.4236 1.49312 60.0028 1.6966 60.4034 2.10354C60.8101 2.51045 61.0137 3.09269 61.0137 3.85019V4.37609H57.3699C57.3827 4.71414 57.4547 4.98646 57.5863 5.19306C57.7175 5.39966 57.8866 5.54991 58.093 5.64381C58.2999 5.73146 58.522 5.77531 58.7597 5.77531C59.1168 5.77531 59.3767 5.71896 59.5392 5.60626C59.7082 5.49356 59.8242 5.34644 59.8867 5.16489H60.92C60.8196 5.65949 60.5724 6.03514 60.178 6.29179C59.7897 6.54849 59.3171 6.67681 58.7597 6.67681ZM58.7129 2.39462C58.4813 2.39462 58.2654 2.43534 58.0651 2.5167C57.8648 2.59809 57.7019 2.72642 57.5769 2.90172C57.4514 3.07702 57.3827 3.31179 57.3699 3.60604H59.981C59.9743 3.29304 59.9151 3.04884 59.8024 2.87355C59.6897 2.69829 59.5392 2.57617 59.3516 2.50732C59.1637 2.43222 58.951 2.39462 58.7129 2.39462ZM61.2538 6.57353L63.047 3.98169L61.3476 1.59645H62.512L63.7232 3.26799L64.9161 1.59645H66.043L64.362 3.94409L66.1368 6.57353H64.9535L63.6858 4.63904L62.3993 6.57353H61.2538ZM66.8371 6.57353V1.59645H67.8699V3.59667H70.2177V1.59645H71.2509V6.57353H70.2177V4.47937H67.8699V6.57353H66.8371ZM74.5878 6.67681C74.1309 6.67681 73.7175 6.58291 73.3481 6.39511C72.9788 6.20101 72.6847 5.91619 72.4655 5.54054C72.2524 5.15864 72.1463 4.68909 72.1463 4.13194V3.94409C72.1463 3.41824 72.2524 2.97374 72.4655 2.61064C72.6847 2.24125 72.9788 1.96267 73.3481 1.77487C73.7175 1.58702 74.1309 1.49312 74.5878 1.49312C75.0509 1.49312 75.4643 1.58702 75.8275 1.77487C76.1969 1.96267 76.4876 2.24125 76.7007 2.61064C76.9199 2.97374 77.0293 3.41824 77.0293 3.94409V4.13194C77.0293 4.68909 76.9199 5.15864 76.7007 5.54054C76.4876 5.91619 76.1969 6.20101 75.8275 6.39511C75.4643 6.58291 75.0509 6.67681 74.5878 6.67681ZM74.5878 5.77531C74.8255 5.77531 75.0509 5.71896 75.264 5.60626C75.4766 5.49356 75.649 5.31826 75.7802 5.08037C75.9118 4.83622 75.9776 4.52009 75.9776 4.13194V3.94409C75.9776 3.58724 75.9118 3.29617 75.7802 3.07077C75.649 2.83912 75.4766 2.67012 75.264 2.56367C75.0509 2.45097 74.8255 2.39462 74.5878 2.39462C74.3496 2.39462 74.1242 2.45097 73.9116 2.56367C73.6985 2.67012 73.5266 2.83912 73.395 3.07077C73.2638 3.29617 73.198 3.58724 73.198 3.94409V4.13194C73.198 4.52009 73.2638 4.83622 73.395 5.08037C73.5266 5.31826 73.6985 5.49356 73.9116 5.60626C74.1242 5.71896 74.3496 5.77531 74.5878 5.77531ZM77.9177 6.57353V1.59645H82.2376V6.57353H81.2044V2.47915H78.9509V6.57353H77.9177ZM84.8633 6.67681C84.5063 6.67681 84.1995 6.61108 83.9428 6.47959C83.6928 6.34189 83.5015 6.15408 83.3703 5.91619C83.2387 5.67829 83.1728 5.41221 83.1728 5.11796C83.1728 4.62337 83.3201 4.25714 83.6142 4.01924C83.9087 3.77509 84.3406 3.65302 84.9102 3.65302H86.4596V3.38064C86.4596 3.00504 86.3753 2.74834 86.2063 2.61064C86.0434 2.46664 85.7834 2.39462 85.4268 2.39462C85.1072 2.39462 84.8728 2.44472 84.7222 2.54487C84.5721 2.64507 84.4845 2.78277 84.4594 2.95807H83.4546C83.4735 2.67012 83.5645 2.41655 83.7269 2.19744C83.8898 1.9783 84.1185 1.80617 84.4125 1.68092C84.7132 1.55572 85.067 1.49312 85.4737 1.49312C85.8805 1.49312 86.2342 1.55572 86.5349 1.68092C86.8417 1.80617 87.0761 2.00335 87.239 2.27255C87.4081 2.53549 87.4928 2.88609 87.4928 3.32434V5.30576C87.4928 5.56871 87.4957 5.80036 87.5023 6.00066C87.5084 6.19476 87.5241 6.38569 87.5492 6.57353H86.6102C86.5912 6.42954 86.5756 6.30746 86.5628 6.20726C86.5567 6.10711 86.5538 5.98191 86.5538 5.83166C86.4345 6.06326 86.228 6.26361 85.934 6.43266C85.6456 6.59541 85.289 6.67681 84.8633 6.67681ZM85.1451 5.77531C85.3828 5.77531 85.5987 5.73459 85.7929 5.65324C85.9932 5.57184 86.1527 5.44976 86.2721 5.28696C86.3971 5.12421 86.4596 4.92699 86.4596 4.69539V4.42302H85.0982C84.8349 4.42302 84.6223 4.47937 84.4594 4.59207C84.3032 4.70476 84.2246 4.87064 84.2246 5.08979C84.2246 5.29639 84.2965 5.46226 84.4405 5.58751C84.5911 5.71271 84.8259 5.77531 85.1451 5.77531ZM88.6227 8.45168V1.59645H89.5801V2.43222C89.7307 2.14422 89.9528 1.9157 90.2473 1.7467C90.5475 1.57765 90.8856 1.49312 91.2611 1.49312C91.9122 1.49312 92.4255 1.6966 92.8015 2.10354C93.177 2.51045 93.365 3.12399 93.365 3.94409V4.13194C93.365 4.69539 93.2769 5.16802 93.1017 5.54991C92.9265 5.92556 92.6822 6.20726 92.3692 6.39511C92.0562 6.58291 91.6868 6.67681 91.2611 6.67681C90.9046 6.67681 90.5788 6.59854 90.2847 6.44204C89.9902 6.28554 89.7809 6.06644 89.6554 5.78469V8.45168H88.6227ZM91.0173 5.77531C91.4051 5.77531 91.7181 5.64069 91.9563 5.37149C92.194 5.10229 92.3128 4.68909 92.3128 4.13194V3.94409C92.3128 3.41824 92.1973 3.03009 91.9658 2.77964C91.7337 2.52299 91.4179 2.39462 91.0173 2.39462C90.7857 2.39462 90.5632 2.44472 90.3506 2.54487C90.1436 2.64507 89.9746 2.79219 89.8434 2.98624C89.7179 3.18034 89.6554 3.42137 89.6554 3.70932V4.36671C89.6554 4.67971 89.7179 4.94266 89.8434 5.15551C89.9746 5.36211 90.1436 5.51861 90.3506 5.62506C90.557 5.72521 90.7791 5.77531 91.0173 5.77531ZM94.259 6.57353V1.59645H95.2923V3.61542H95.8558L97.6021 1.59645H98.7665L96.6537 3.97227L98.8608 6.57353H97.6021L95.8558 4.46061H95.2923V6.57353H94.259ZM100.93 6.67681C100.573 6.67681 100.266 6.61108 100.009 6.47959C99.7586 6.34189 99.5677 6.15408 99.4366 5.91619C99.3049 5.67829 99.2391 5.41221 99.2391 5.11796C99.2391 4.62337 99.3864 4.25714 99.6804 4.01924C99.975 3.77509 100.407 3.65302 100.976 3.65302H102.526V3.38064C102.526 3.00504 102.442 2.74834 102.273 2.61064C102.11 2.46664 101.85 2.39462 101.493 2.39462C101.173 2.39462 100.939 2.44472 100.788 2.54487C100.638 2.64507 100.551 2.78277 100.526 2.95807H99.5209C99.5398 2.67012 99.6302 2.41655 99.7931 2.19744C99.956 1.9783 100.184 1.80617 100.479 1.68092C100.779 1.55572 101.133 1.49312 101.54 1.49312C101.947 1.49312 102.3 1.55572 102.601 1.68092C102.908 1.80617 103.142 2.00335 103.305 2.27255C103.474 2.53549 103.559 2.88609 103.559 3.32434V5.30576C103.559 5.56871 103.562 5.80036 103.568 6.00066C103.575 6.19476 103.59 6.38569 103.615 6.57353H102.676C102.657 6.42954 102.642 6.30746 102.629 6.20726C102.623 6.10711 102.62 5.98191 102.62 5.83166C102.501 6.06326 102.294 6.26361 102 6.43266C101.712 6.59541 101.355 6.67681 100.93 6.67681ZM101.211 5.77531C101.449 5.77531 101.665 5.73459 101.859 5.65324C102.059 5.57184 102.219 5.44976 102.338 5.28696C102.463 5.12421 102.526 4.92699 102.526 4.69539V4.42302H101.164C100.901 4.42302 100.689 4.47937 100.526 4.59207C100.369 4.70476 100.291 4.87064 100.291 5.08979C100.291 5.29639 100.363 5.46226 100.507 5.58751C100.657 5.71271 100.892 5.77531 101.211 5.77531ZM2.06595 17.5625L0 15.7876V14.9237L2.06595 13.1489V14.2758L0.798222 15.3369L2.06595 16.3981V17.5625ZM4.27277 17.5625L2.20682 15.7876V14.9237L4.27277 13.1489V14.2758L3.00504 15.3369L4.27277 16.3981V17.5625ZM8.02835 18.0414C7.48995 18.0414 7.00473 17.9287 6.57278 17.7034C6.14078 17.4717 5.79648 17.1118 5.53978 16.6234C5.28938 16.1289 5.16418 15.4871 5.16418 14.6983V14.5105C5.16418 13.9408 5.23928 13.4525 5.38953 13.0455C5.53978 12.6324 5.74325 12.2943 5.99995 12.0313C6.2629 11.7684 6.56653 11.5743 6.91083 11.4491C7.26143 11.3239 7.63395 11.2613 8.02835 11.2613C8.39145 11.2613 8.7295 11.3083 9.04255 11.4022C9.35555 11.4898 9.63104 11.6244 9.86894 11.806C10.1068 11.9875 10.2978 12.2129 10.4418 12.4821C10.5858 12.7513 10.6734 13.0675 10.7047 13.4306H9.52147C9.44007 13.0237 9.26477 12.7263 8.99557 12.5384C8.73262 12.3506 8.41025 12.2567 8.02835 12.2567C7.7529 12.2567 7.48682 12.3287 7.23013 12.4727C6.97343 12.6105 6.76058 12.8421 6.59157 13.1677C6.42878 13.4932 6.34738 13.9408 6.34738 14.5105V14.6983C6.34738 15.1491 6.39748 15.5279 6.49763 15.8346C6.59783 16.1351 6.72928 16.373 6.89208 16.5483C7.06108 16.7236 7.24263 16.8519 7.43673 16.9333C7.63708 17.0084 7.83425 17.046 8.02835 17.046C8.4791 17.046 8.82657 16.9427 9.07072 16.7361C9.32112 16.5233 9.47137 16.2353 9.52147 15.8722H10.7047C10.6671 16.2603 10.5732 16.5921 10.423 16.8676C10.279 17.1431 10.0849 17.3684 9.84077 17.5437C9.60287 17.7128 9.3305 17.838 9.02375 17.9194C8.717 18.0008 8.3852 18.0414 8.02835 18.0414ZM11.6478 17.9382V12.9611H12.6808V14.98H13.2442L14.9908 12.9611H16.1552L14.0423 15.3369L16.2494 17.9382H14.9908L13.2442 15.8252H12.6808V17.9382H11.6478ZM18.9305 18.0414C18.4736 18.0414 18.0607 17.9475 17.6913 17.7597C17.322 17.5656 17.0274 17.2808 16.8087 16.9052C16.5956 16.5233 16.489 16.0537 16.489 15.4966V15.3087C16.489 14.7829 16.5956 14.3384 16.8087 13.9753C17.0274 13.6059 17.322 13.3273 17.6913 13.1395C18.0607 12.9516 18.4736 12.8577 18.9305 12.8577C19.3941 12.8577 19.807 12.9516 20.1702 13.1395C20.5396 13.3273 20.8308 13.6059 21.0439 13.9753C21.2626 14.3384 21.3725 14.7829 21.3725 15.3087V15.4966C21.3725 16.0537 21.2626 16.5233 21.0439 16.9052C20.8308 17.2808 20.5396 17.5656 20.1702 17.7597C19.807 17.9475 19.3941 18.0414 18.9305 18.0414ZM18.9305 17.1399C19.1687 17.1399 19.3941 17.0836 19.6067 16.9709C19.8198 16.8582 19.9917 16.6829 20.1233 16.445C20.255 16.2008 20.3208 15.8847 20.3208 15.4966V15.3087C20.3208 14.9519 20.255 14.6608 20.1233 14.4354C19.9917 14.2037 19.8198 14.0347 19.6067 13.9283C19.3941 13.8156 19.1687 13.7592 18.9305 13.7592C18.6928 13.7592 18.4674 13.8156 18.2548 13.9283C18.0417 14.0347 17.8698 14.2037 17.7382 14.4354C17.6065 14.6608 17.5407 14.9519 17.5407 15.3087V15.4966C17.5407 15.8847 17.6065 16.2008 17.7382 16.445C17.8698 16.6829 18.0417 16.8582 18.2548 16.9709C18.4674 17.0836 18.6928 17.1399 18.9305 17.1399ZM22.0752 18.0414C22.025 18.0414 21.9687 18.0383 21.9062 18.0321C21.8498 18.0321 21.7968 18.0258 21.7466 18.0133V17.0366C21.7655 17.0429 21.8124 17.046 21.8872 17.046C22.0629 17.046 22.2035 16.9709 22.3101 16.8206C22.4228 16.6704 22.5042 16.4106 22.5539 16.0412C22.6103 15.6656 22.6387 15.1397 22.6387 14.4636V12.9611H26.3947V17.9382H25.362V13.8438H23.6341V14.6514C23.6341 15.315 23.5995 15.869 23.5308 16.3135C23.4683 16.7518 23.3713 17.0961 23.2396 17.3465C23.108 17.5969 22.9456 17.7754 22.7514 17.8818C22.5573 17.9882 22.3319 18.0414 22.0752 18.0414ZM27.5672 17.9382V12.9611H28.6004V14.98H29.1639L30.9103 12.9611H32.0747L29.9618 15.3369L32.1689 17.9382H30.9103L29.1639 15.8252H28.6004V17.9382H27.5672ZM34.8505 18.0414C34.393 18.0414 33.9801 17.9475 33.6108 17.7597C33.2414 17.5656 32.9469 17.2808 32.7281 16.9052C32.515 16.5233 32.4085 16.0537 32.4085 15.4966V15.3087C32.4085 14.7829 32.515 14.3384 32.7281 13.9753C32.9469 13.6059 33.2414 13.3273 33.6108 13.1395C33.9801 12.9516 34.393 12.8577 34.8505 12.8577C35.3136 12.8577 35.7265 12.9516 36.0897 13.1395C36.459 13.3273 36.7503 13.6059 36.9633 13.9753C37.1821 14.3384 37.292 14.7829 37.292 15.3087V15.4966C37.292 16.0537 37.1821 16.5233 36.9633 16.9052C36.7503 17.2808 36.459 17.5656 36.0897 17.7597C35.7265 17.9475 35.3136 18.0414 34.8505 18.0414ZM34.8505 17.1399C35.0882 17.1399 35.3136 17.0836 35.5262 16.9709C35.7393 16.8582 35.9116 16.6829 36.0428 16.445C36.1744 16.2008 36.2403 15.8847 36.2403 15.4966V15.3087C36.2403 14.9519 36.1744 14.6608 36.0428 14.4354C35.9116 14.2037 35.7393 14.0347 35.5262 13.9283C35.3136 13.8156 35.0882 13.7592 34.8505 13.7592C34.6123 13.7592 34.3869 13.8156 34.1743 13.9283C33.9612 14.0347 33.7893 14.2037 33.6577 14.4354C33.526 14.6608 33.4602 14.9519 33.4602 15.3087V15.4966C33.4602 15.8847 33.526 16.2008 33.6577 16.445C33.7893 16.6829 33.9612 16.8582 34.1743 16.9709C34.3869 17.0836 34.6123 17.1399 34.8505 17.1399ZM38.1803 17.9382V12.9611H40.528C40.9476 12.9611 41.2857 13.0205 41.5423 13.1395C41.8051 13.2521 41.9993 13.4118 42.1243 13.6184C42.2498 13.8187 42.3123 14.0504 42.3123 14.3133C42.3123 14.5324 42.2465 14.7453 42.1148 14.9519C41.9837 15.1522 41.799 15.2868 41.5608 15.3557C41.8677 15.4308 42.0992 15.5748 42.2559 15.7876C42.4188 15.9942 42.4998 16.2384 42.4998 16.5201C42.4998 16.9521 42.3559 17.2964 42.068 17.5531C41.78 17.8098 41.3293 17.9382 40.716 17.9382H38.1803ZM39.2131 17.0554H40.5749C40.913 17.0554 41.1446 17.0022 41.2701 16.8958C41.4012 16.7831 41.467 16.6266 41.467 16.4262C41.467 16.2259 41.4012 16.0756 41.2701 15.9755C41.1446 15.869 40.913 15.8158 40.5749 15.8158H39.2131V17.0554ZM39.2131 15.0082H40.4343C40.7473 15.0082 40.9661 14.9582 41.0915 14.858C41.2166 14.7516 41.2791 14.6076 41.2791 14.426C41.2791 14.2445 41.2166 14.1036 41.0915 14.0034C40.9661 13.897 40.7473 13.8438 40.4343 13.8438H39.2131V15.0082ZM45.555 18.0414C45.098 18.0414 44.6847 17.9475 44.3153 17.7597C43.946 17.5656 43.6519 17.2808 43.4327 16.9052C43.2196 16.5233 43.1135 16.0537 43.1135 15.4966V15.3087C43.1135 14.7829 43.2196 14.3384 43.4327 13.9753C43.6519 13.6059 43.946 13.3273 44.3153 13.1395C44.6847 12.9516 45.098 12.8577 45.555 12.8577C46.0181 12.8577 46.4315 12.9516 46.7947 13.1395C47.164 13.3273 47.4553 13.6059 47.6679 13.9753C47.8871 14.3384 47.9965 14.7829 47.9965 15.3087V15.4966C47.9965 16.0537 47.8871 16.5233 47.6679 16.9052C47.4553 17.2808 47.164 17.5656 46.7947 17.7597C46.4315 17.9475 46.0181 18.0414 45.555 18.0414ZM45.555 17.1399C45.7927 17.1399 46.0181 17.0836 46.2312 16.9709C46.4438 16.8582 46.6162 16.6829 46.7478 16.445C46.879 16.2008 46.9448 15.8847 46.9448 15.4966V15.3087C46.9448 14.9519 46.879 14.6608 46.7478 14.4354C46.6162 14.2037 46.4438 14.0347 46.2312 13.9283C46.0181 13.8156 45.7927 13.7592 45.555 13.7592C45.3173 13.7592 45.0919 13.8156 44.8788 13.9283C44.6662 14.0347 44.4938 14.2037 44.3622 14.4354C44.231 14.6608 44.1652 14.9519 44.1652 15.3087V15.4966C44.1652 15.8847 44.231 16.2008 44.3622 16.445C44.4938 16.6829 44.6662 16.8582 44.8788 16.9709C45.0919 17.0836 45.3173 17.1399 45.555 17.1399ZM48.7442 13.1489L50.8102 14.9237V15.7876L48.7442 17.5625V16.4356L50.0118 15.3745L48.7442 14.3133V13.1489ZM50.9508 13.1489L53.0168 14.9237V15.7876L50.9508 17.5625V16.4356L52.2189 15.3745L50.9508 14.3133V13.1489Z" fill="var(--fill-0, #444444)"/>
</svg>
