<svg width="22" height="22" viewBox="0 0 22 22" fill="none" xmlns="http://www.w3.org/2000/svg">
<path d="M20.871 15.9168C19.8906 15.1021 18.9103 14.2874 17.93 13.4729C16.0531 11.5965 12.7076 15.8314 12.6982 15.8408C12.4374 16.1006 10.3409 14.427 8.62635 12.7139C6.91191 11.0007 5.23868 8.90393 5.49857 8.64305C5.50891 8.63369 9.74498 5.29002 7.86718 3.41272C7.05392 2.43265 6.24058 1.45267 5.42732 0.472599C2.79315 -1.82221 -5.42837 4.41282 5.58403 15.4261C5.63968 15.4814 5.69534 15.5368 5.75108 15.5922C5.80674 15.6482 5.86239 15.7041 5.91805 15.7601C16.9258 26.7697 23.1664 18.5522 20.871 15.9168Z" fill="white"/>
</svg>
