<svg width="87" height="87" viewBox="0 0 87 87" fill="none" xmlns="http://www.w3.org/2000/svg">
<circle cx="43.5" cy="43.5" r="43.5" fill="#D44333"/>
<path fill-rule="evenodd" clip-rule="evenodd" d="M50.7501 33.1933L50.7501 36.8762L51.966 36.8762C52.7303 36.8761 53.3897 36.8761 53.9328 36.9205C54.5061 36.9673 55.0762 37.0707 55.6249 37.3503C56.4434 37.7673 57.1088 38.4328 57.5259 39.2513C57.8054 39.7999 57.9088 40.3701 57.9557 40.9433C58 41.4865 58 42.1458 58 42.9102V52.5919C58 53.3563 58 54.0156 57.9557 54.5588C57.9088 55.132 57.8054 55.7022 57.5259 56.2508C57.1088 57.0693 56.4434 57.7348 55.6249 58.1518C55.0762 58.4314 54.5061 58.5348 53.9328 58.5816C53.3897 58.626 52.7303 58.6259 51.966 58.6259H35.0343C34.27 58.6259 33.6106 58.626 33.0675 58.5816C32.4943 58.5348 31.9241 58.4314 31.3754 58.1518C30.5569 57.7348 29.8915 57.0693 29.4744 56.2508C29.1949 55.7022 29.0915 55.132 29.0447 54.5588C29.0003 54.0156 29.0003 53.3562 29.0003 52.5919L29.0002 41.1082C28.999 40.2196 28.9979 39.4384 29.2516 38.7248C29.4736 38.0999 29.8356 37.5342 30.3099 37.0707C30.8515 36.5413 31.5613 36.2149 32.3686 35.8436L45.4537 29.8045C45.9551 29.5731 46.4174 29.3596 46.8098 29.2203C47.2163 29.0758 47.7476 28.9334 48.3366 29.0336C49.1106 29.1653 49.7981 29.6052 50.242 30.2527C50.5798 30.7455 50.6731 31.2875 50.7123 31.7172C50.7502 32.1319 50.7501 32.6411 50.7501 33.1933ZM46.6155 32.4622C47.1886 32.1978 47.5286 32.0424 47.7806 31.9529L47.8202 31.9392L47.8244 31.9809C47.8487 32.2472 47.8501 32.6211 47.8501 33.2522V36.8762L37.052 36.8762L46.6155 32.4622ZM50.0251 45.5761C48.8239 45.5761 47.8501 46.5498 47.8501 47.751C47.8501 48.9522 48.8239 49.926 50.0251 49.926C51.2263 49.926 52.2001 48.9522 52.2001 47.751C52.2001 46.5498 51.2263 45.5761 50.0251 45.5761Z" fill="white"/>
</svg>
