<svg width="87" height="87" viewBox="0 0 87 87" fill="none" xmlns="http://www.w3.org/2000/svg">
<circle cx="43.5" cy="43.5" r="43.5" fill="#D44333"/>
<rect x="26" y="27" width="34" height="34" rx="10" fill="white"/>
<path fill-rule="evenodd" clip-rule="evenodd" d="M44.4766 35.1852C44.4766 34.6169 44.0159 34.1562 43.4477 34.1562C42.8794 34.1562 42.4187 34.6169 42.4187 35.1852V45.0485L39.0305 41.6603C38.6287 41.2584 37.9772 41.2584 37.5754 41.6603C37.1735 42.0621 37.1735 42.7136 37.5754 43.1154L42.7201 48.2601C43.1219 48.662 43.7734 48.662 44.1753 48.2601L49.32 43.1154C49.7218 42.7136 49.7218 42.0621 49.32 41.6603C48.9182 41.2584 48.2667 41.2584 47.8648 41.6603L44.4766 45.0485V35.1852ZM38.8334 46.7933C39.0378 46.915 39.2145 47.0854 39.5678 47.4261L42.4776 50.2319C43.0133 50.7486 43.882 50.7486 44.4178 50.2319L47.3276 47.4261L47.3276 47.4261C47.6809 47.0854 47.8575 46.915 48.0619 46.7933C48.2432 46.6854 48.4399 46.606 48.6453 46.5579C48.8769 46.5036 49.1223 46.5036 49.6131 46.5036H51.4735C52.7237 46.5036 53.7372 47.5171 53.7372 48.7673V48.8098C53.7372 49.6381 53.7372 50.3217 53.6917 50.8785C53.6444 51.4569 53.543 51.9886 53.2886 52.4879C52.894 53.2624 52.2643 53.892 51.4899 54.2866C50.9905 54.5411 50.4588 54.6425 49.8805 54.6897C49.3236 54.7352 48.64 54.7352 47.8118 54.7352H39.0836C38.2553 54.7352 37.5717 54.7352 37.0149 54.6897C36.4365 54.6425 35.9048 54.5411 35.4055 54.2866C34.631 53.892 34.0014 53.2624 33.6068 52.4879C33.3523 51.9886 33.2509 51.4569 33.2037 50.8785C33.1582 50.3217 33.1582 49.6381 33.1582 48.8098V48.8098V48.8098V48.7673C33.1582 47.5171 34.1717 46.5036 35.4219 46.5036H37.2823C37.7731 46.5036 38.0185 46.5036 38.2501 46.5579C38.4555 46.606 38.6522 46.6854 38.8334 46.7933Z" fill="#D44333"/>
</svg>
