<svg preserveAspectRatio="none" width="100%" height="100%" overflow="visible" style="display: block;" viewBox="0 0 20 20" fill="none" xmlns="http://www.w3.org/2000/svg">
<path id="Union" d="M7.97897 19.1851L8.17893 18.9865L8.17895 18.9865C8.38109 18.7857 8.48216 18.6853 8.54977 18.5671C8.60967 18.4623 8.65014 18.3478 8.66924 18.2288C8.6908 18.0945 8.67501 17.9534 8.64344 17.6712L8.45746 16.0086C8.42589 15.7264 8.4101 15.5853 8.43166 15.451C8.45076 15.3321 8.49123 15.2175 8.55113 15.1127C8.61874 14.9945 8.71982 14.8941 8.92198 14.6933L12.3087 11.3295L14.3433 17.3922C14.6177 18.2099 14.7549 18.6188 15.011 18.8076C15.2346 18.9725 15.5166 19.0386 15.7908 18.9904C16.1049 18.9353 16.4117 18.6305 17.0253 18.021L17.0253 18.021L17.4007 17.6482C17.6324 17.418 17.7483 17.303 17.8201 17.1666C17.8836 17.0459 17.9218 16.9137 17.9323 16.7779C17.9442 16.6245 17.9073 16.4659 17.8336 16.1488L16.0844 8.61974L16.0844 8.61971C16.0126 8.31074 15.9767 8.15625 15.9873 8.00632C15.9966 7.8736 16.0324 7.74403 16.0926 7.62514C16.1605 7.49084 16.2707 7.37618 16.4912 7.14684L19.3043 4.22095C20.2474 3.23994 20.2294 1.69042 19.2638 0.73126C18.2709 -0.254922 16.6571 -0.24196 15.6805 0.760042L12.9368 3.57478C12.7128 3.80458 12.6008 3.91948 12.4678 3.9923C12.3394 4.0626 12.1972 4.10436 12.0509 4.11469C11.8994 4.12539 11.7426 4.08943 11.4288 4.01751L11.4288 4.0175L3.87736 2.28662C3.55804 2.21343 3.39839 2.17684 3.24394 2.18865C3.10725 2.19911 2.97412 2.23703 2.85263 2.30012C2.71536 2.37141 2.59949 2.48649 2.36777 2.71665L1.99241 3.08948L1.99241 3.08948C1.37877 3.69898 1.07195 4.00373 1.0164 4.31564C0.967902 4.588 1.03449 4.86818 1.2005 5.09025C1.39062 5.34455 1.80226 5.48084 2.62555 5.75342L2.62555 5.75342L8.72941 7.77432L5.34271 11.1382L5.3427 11.1382C5.14055 11.339 5.03947 11.4394 4.92044 11.5065C4.81499 11.566 4.69963 11.6062 4.57987 11.6252C4.44468 11.6466 4.30261 11.6309 4.01847 11.5996L2.34463 11.4148C2.06048 11.3835 1.91841 11.3678 1.78322 11.3892C1.66346 11.4082 1.54811 11.4484 1.44265 11.5079C1.32362 11.575 1.22254 11.6754 1.02039 11.8762L0.820438 12.0748C0.341527 12.5505 0.102071 12.7884 0.0327226 13.0527C-0.0281037 13.2845 -0.00360162 13.5303 0.101817 13.7457C0.222004 13.9914 0.503769 14.178 1.0673 14.5511L1.06731 14.5511L3.44899 16.1282L3.4491 16.1283C3.54964 16.1949 3.59994 16.2282 3.64557 16.2668C3.68612 16.3012 3.72389 16.3387 3.7585 16.379C3.79746 16.4244 3.83102 16.4744 3.89814 16.5744L5.48587 18.9399C5.86155 19.4996 6.0494 19.7795 6.29673 19.8989C6.51366 20.0036 6.76111 20.0279 6.99451 19.9675C7.2606 19.8986 7.50006 19.6608 7.97895 19.1851L7.97897 19.1851Z" fill="var(--fill-0, #D44333)"/>
</svg>
